  0
SECTION
  2
HEADER
  9
$ACADVER
  1
AC1009
  0
ENDSEC
  0
SECTION
  2
ENTITIES
  0
POLYLINE
  5
90
  8
Layer_1
  62
5
  66
1
  10
0
  20
0
  30
0
  0
VERTEX
  5
90
  8
Layer_1
  10
365.4624
  20
245.21118
  0
VERTEX
  5
91
  8
Layer_1
  10
415.29248
  20
245.28668
  0
SEQEND
  0
POLYLINE
  5
93
  8
Layer_0
  62
0
  70
1
  66
1
  10
0
  20
0
  30
0
  0
VERTEX
  5
93
  8
Layer_0
  10
515.21826
  20
270.29068
  0
VERTEX
  5
94
  8
Layer_0
  10
515.19592
  20
270.51239
  0
VERTEX
  5
95
  8
Layer_0
  10
515.13177
  20
270.71887
  0
VERTEX
  5
96
  8
Layer_0
  10
515.0304
  20
270.9057
  0
VERTEX
  5
97
  8
Layer_0
  10
514.89606
  20
271.06851
  0
VERTEX
  5
98
  8
Layer_0
  10
514.73328
  20
271.20282
  0
VERTEX
  5
99
  8
Layer_0
  10
514.54639
  20
271.30426
  0
VERTEX
  5
9a
  8
Layer_0
  10
514.3399
  20
271.36835
  0
VERTEX
  5
9b
  8
Layer_0
  10
514.11823
  20
271.39069
  0
VERTEX
  5
9c
  8
Layer_0
  10
513.89655
  20
271.36835
  0
VERTEX
  5
9d
  8
Layer_0
  10
513.69006
  20
271.30426
  0
VERTEX
  5
9e
  8
Layer_0
  10
513.50317
  20
271.20282
  0
VERTEX
  5
9f
  8
Layer_0
  10
513.34039
  20
271.06851
  0
VERTEX
  5
a0
  8
Layer_0
  10
513.20605
  20
270.9057
  0
VERTEX
  5
a1
  8
Layer_0
  10
513.10468
  20
270.71887
  0
VERTEX
  5
a2
  8
Layer_0
  10
513.04053
  20
270.51239
  0
VERTEX
  5
a3
  8
Layer_0
  10
513.01819
  20
270.29068
  0
VERTEX
  5
a4
  8
Layer_0
  10
513.04053
  20
270.06897
  0
VERTEX
  5
a5
  8
Layer_0
  10
513.10468
  20
269.86249
  0
VERTEX
  5
a6
  8
Layer_0
  10
513.20605
  20
269.67566
  0
VERTEX
  5
a7
  8
Layer_0
  10
513.34039
  20
269.51285
  0
VERTEX
  5
a8
  8
Layer_0
  10
513.50317
  20
269.37854
  0
VERTEX
  5
a9
  8
Layer_0
  10
513.69006
  20
269.2771
  0
VERTEX
  5
aa
  8
Layer_0
  10
513.89655
  20
269.21301
  0
VERTEX
  5
ab
  8
Layer_0
  10
514.11823
  20
269.19067
  0
VERTEX
  5
ac
  8
Layer_0
  10
514.3399
  20
269.21301
  0
VERTEX
  5
ad
  8
Layer_0
  10
514.54639
  20
269.2771
  0
VERTEX
  5
ae
  8
Layer_0
  10
514.73328
  20
269.37854
  0
VERTEX
  5
af
  8
Layer_0
  10
514.89606
  20
269.51285
  0
VERTEX
  5
b0
  8
Layer_0
  10
515.0304
  20
269.67566
  0
VERTEX
  5
b1
  8
Layer_0
  10
515.13177
  20
269.86249
  0
VERTEX
  5
b2
  8
Layer_0
  10
515.19592
  20
270.06897
  0
VERTEX
  5
b3
  8
Layer_0
  10
515.21826
  20
270.29068
  0
SEQEND
  0
POLYLINE
  5
b5
  8
Layer_0
  62
0
  70
1
  66
1
  10
0
  20
0
  30
0
  0
VERTEX
  5
b5
  8
Layer_0
  10
367.57999
  20
284.57819
  0
VERTEX
  5
b6
  8
Layer_0
  10
367.55762
  20
284.79987
  0
VERTEX
  5
b7
  8
Layer_0
  10
367.49353
  20
285.00635
  0
VERTEX
  5
b8
  8
Layer_0
  10
367.39209
  20
285.19321
  0
VERTEX
  5
b9
  8
Layer_0
  10
367.25781
  20
285.35602
  0
VERTEX
  5
ba
  8
Layer_0
  10
367.09497
  20
285.4903
  0
VERTEX
  5
bb
  8
Layer_0
  10
366.90814
  20
285.59174
  0
VERTEX
  5
bc
  8
Layer_0
  10
366.70166
  20
285.65582
  0
VERTEX
  5
bd
  8
Layer_0
  10
366.47998
  20
285.67816
  0
VERTEX
  5
be
  8
Layer_0
  10
366.2583
  20
285.65582
  0
VERTEX
  5
bf
  8
Layer_0
  10
366.05182
  20
285.59174
  0
VERTEX
  5
c0
  8
Layer_0
  10
365.86499
  20
285.4903
  0
VERTEX
  5
c1
  8
Layer_0
  10
365.70215
  20
285.35602
  0
VERTEX
  5
c2
  8
Layer_0
  10
365.56787
  20
285.19321
  0
VERTEX
  5
c3
  8
Layer_0
  10
365.46643
  20
285.00635
  0
VERTEX
  5
c4
  8
Layer_0
  10
365.40234
  20
284.79987
  0
VERTEX
  5
c5
  8
Layer_0
  10
365.37997
  20
284.57819
  0
VERTEX
  5
c6
  8
Layer_0
  10
365.40234
  20
284.35651
  0
VERTEX
  5
c7
  8
Layer_0
  10
365.46643
  20
284.15002
  0
VERTEX
  5
c8
  8
Layer_0
  10
365.56787
  20
283.96317
  0
VERTEX
  5
c9
  8
Layer_0
  10
365.70215
  20
283.80035
  0
VERTEX
  5
ca
  8
Layer_0
  10
365.86499
  20
283.66608
  0
VERTEX
  5
cb
  8
Layer_0
  10
366.05182
  20
283.56464
  0
VERTEX
  5
cc
  8
Layer_0
  10
366.2583
  20
283.50055
  0
VERTEX
  5
cd
  8
Layer_0
  10
366.47998
  20
283.47821
  0
VERTEX
  5
ce
  8
Layer_0
  10
366.70166
  20
283.50055
  0
VERTEX
  5
cf
  8
Layer_0
  10
366.90814
  20
283.56464
  0
VERTEX
  5
d0
  8
Layer_0
  10
367.09497
  20
283.66608
  0
VERTEX
  5
d1
  8
Layer_0
  10
367.25781
  20
283.80035
  0
VERTEX
  5
d2
  8
Layer_0
  10
367.39209
  20
283.96317
  0
VERTEX
  5
d3
  8
Layer_0
  10
367.49353
  20
284.15002
  0
VERTEX
  5
d4
  8
Layer_0
  10
367.55762
  20
284.35651
  0
VERTEX
  5
d5
  8
Layer_0
  10
367.57999
  20
284.57819
  0
SEQEND
  0
POLYLINE
  5
d7
  8
Layer_0
  62
0
  70
1
  66
1
  10
0
  20
0
  30
0
  0
VERTEX
  5
d7
  8
Layer_0
  10
415.20499
  20
284.57819
  0
VERTEX
  5
d8
  8
Layer_0
  10
415.18262
  20
284.79987
  0
VERTEX
  5
d9
  8
Layer_0
  10
415.11853
  20
285.00635
  0
VERTEX
  5
da
  8
Layer_0
  10
415.01709
  20
285.19321
  0
VERTEX
  5
db
  8
Layer_0
  10
414.88281
  20
285.35602
  0
VERTEX
  5
dc
  8
Layer_0
  10
414.71997
  20
285.4903
  0
VERTEX
  5
dd
  8
Layer_0
  10
414.53314
  20
285.59174
  0
VERTEX
  5
de
  8
Layer_0
  10
414.32666
  20
285.65582
  0
VERTEX
  5
df
  8
Layer_0
  10
414.10498
  20
285.67816
  0
VERTEX
  5
e0
  8
Layer_0
  10
413.8833
  20
285.65582
  0
VERTEX
  5
e1
  8
Layer_0
  10
413.67682
  20
285.59174
  0
VERTEX
  5
e2
  8
Layer_0
  10
413.48999
  20
285.4903
  0
VERTEX
  5
e3
  8
Layer_0
  10
413.32715
  20
285.35602
  0
VERTEX
  5
e4
  8
Layer_0
  10
413.19287
  20
285.19321
  0
VERTEX
  5
e5
  8
Layer_0
  10
413.09143
  20
285.00635
  0
VERTEX
  5
e6
  8
Layer_0
  10
413.02734
  20
284.79987
  0
VERTEX
  5
e7
  8
Layer_0
  10
413.00497
  20
284.57819
  0
VERTEX
  5
e8
  8
Layer_0
  10
413.02734
  20
284.35651
  0
VERTEX
  5
e9
  8
Layer_0
  10
413.09143
  20
284.15002
  0
VERTEX
  5
ea
  8
Layer_0
  10
413.19287
  20
283.96317
  0
VERTEX
  5
eb
  8
Layer_0
  10
413.32715
  20
283.80035
  0
VERTEX
  5
ec
  8
Layer_0
  10
413.48999
  20
283.66608
  0
VERTEX
  5
ed
  8
Layer_0
  10
413.67682
  20
283.56464
  0
VERTEX
  5
ee
  8
Layer_0
  10
413.8833
  20
283.50055
  0
VERTEX
  5
ef
  8
Layer_0
  10
414.10498
  20
283.47821
  0
VERTEX
  5
f0
  8
Layer_0
  10
414.32666
  20
283.50055
  0
VERTEX
  5
f1
  8
Layer_0
  10
414.53314
  20
283.56464
  0
VERTEX
  5
f2
  8
Layer_0
  10
414.71997
  20
283.66608
  0
VERTEX
  5
f3
  8
Layer_0
  10
414.88281
  20
283.80035
  0
VERTEX
  5
f4
  8
Layer_0
  10
415.01709
  20
283.96317
  0
VERTEX
  5
f5
  8
Layer_0
  10
415.11853
  20
284.15002
  0
VERTEX
  5
f6
  8
Layer_0
  10
415.18262
  20
284.35651
  0
VERTEX
  5
f7
  8
Layer_0
  10
415.20499
  20
284.57819
  0
SEQEND
  0
POLYLINE
  5
f9
  8
Layer_0
  62
0
  70
1
  66
1
  10
0
  20
0
  30
0
  0
VERTEX
  5
f9
  8
Layer_0
  10
367.57999
  20
199.44855
  0
VERTEX
  5
fa
  8
Layer_0
  10
367.55762
  20
199.67023
  0
VERTEX
  5
fb
  8
Layer_0
  10
367.49353
  20
199.87671
  0
VERTEX
  5
fc
  8
Layer_0
  10
367.39209
  20
200.06354
  0
VERTEX
  5
fd
  8
Layer_0
  10
367.25781
  20
200.22638
  0
VERTEX
  5
fe
  8
Layer_0
  10
367.09497
  20
200.36066
  0
VERTEX
  5
ff
  8
Layer_0
  10
366.90814
  20
200.4621
  0
VERTEX
  5
100
  8
Layer_0
  10
366.70166
  20
200.52618
  0
VERTEX
  5
101
  8
Layer_0
  10
366.47998
  20
200.54855
  0
VERTEX
  5
102
  8
Layer_0
  10
366.2583
  20
200.52618
  0
VERTEX
  5
103
  8
Layer_0
  10
366.05182
  20
200.4621
  0
VERTEX
  5
104
  8
Layer_0
  10
365.86499
  20
200.36066
  0
VERTEX
  5
105
  8
Layer_0
  10
365.70215
  20
200.22638
  0
VERTEX
  5
106
  8
Layer_0
  10
365.56787
  20
200.06354
  0
VERTEX
  5
107
  8
Layer_0
  10
365.46643
  20
199.87671
  0
VERTEX
  5
108
  8
Layer_0
  10
365.40234
  20
199.67023
  0
VERTEX
  5
109
  8
Layer_0
  10
365.37997
  20
199.44855
  0
VERTEX
  5
10a
  8
Layer_0
  10
365.40234
  20
199.22687
  0
VERTEX
  5
10b
  8
Layer_0
  10
365.46643
  20
199.02039
  0
VERTEX
  5
10c
  8
Layer_0
  10
365.56787
  20
198.83356
  0
VERTEX
  5
10d
  8
Layer_0
  10
365.70215
  20
198.67072
  0
VERTEX
  5
10e
  8
Layer_0
  10
365.86499
  20
198.53644
  0
VERTEX
  5
10f
  8
Layer_0
  10
366.05182
  20
198.435
  0
VERTEX
  5
110
  8
Layer_0
  10
366.2583
  20
198.37091
  0
VERTEX
  5
111
  8
Layer_0
  10
366.47998
  20
198.34854
  0
VERTEX
  5
112
  8
Layer_0
  10
366.70166
  20
198.37091
  0
VERTEX
  5
113
  8
Layer_0
  10
366.90814
  20
198.435
  0
VERTEX
  5
114
  8
Layer_0
  10
367.09497
  20
198.53644
  0
VERTEX
  5
115
  8
Layer_0
  10
367.25781
  20
198.67072
  0
VERTEX
  5
116
  8
Layer_0
  10
367.39209
  20
198.83356
  0
VERTEX
  5
117
  8
Layer_0
  10
367.49353
  20
199.02039
  0
VERTEX
  5
118
  8
Layer_0
  10
367.55762
  20
199.22687
  0
VERTEX
  5
119
  8
Layer_0
  10
367.57999
  20
199.44855
  0
SEQEND
  0
POLYLINE
  5
11b
  8
Layer_0
  62
0
  70
1
  66
1
  10
0
  20
0
  30
0
  0
VERTEX
  5
11b
  8
Layer_0
  10
415.20499
  20
199.44855
  0
VERTEX
  5
11c
  8
Layer_0
  10
415.18262
  20
199.67023
  0
VERTEX
  5
11d
  8
Layer_0
  10
415.11853
  20
199.87671
  0
VERTEX
  5
11e
  8
Layer_0
  10
415.01709
  20
200.06354
  0
VERTEX
  5
11f
  8
Layer_0
  10
414.88281
  20
200.22638
  0
VERTEX
  5
120
  8
Layer_0
  10
414.71997
  20
200.36066
  0
VERTEX
  5
121
  8
Layer_0
  10
414.53314
  20
200.4621
  0
VERTEX
  5
122
  8
Layer_0
  10
414.32666
  20
200.52618
  0
VERTEX
  5
123
  8
Layer_0
  10
414.10498
  20
200.54855
  0
VERTEX
  5
124
  8
Layer_0
  10
413.8833
  20
200.52618
  0
VERTEX
  5
125
  8
Layer_0
  10
413.67682
  20
200.4621
  0
VERTEX
  5
126
  8
Layer_0
  10
413.48999
  20
200.36066
  0
VERTEX
  5
127
  8
Layer_0
  10
413.32715
  20
200.22638
  0
VERTEX
  5
128
  8
Layer_0
  10
413.19287
  20
200.06354
  0
VERTEX
  5
129
  8
Layer_0
  10
413.09143
  20
199.87671
  0
VERTEX
  5
12a
  8
Layer_0
  10
413.02734
  20
199.67023
  0
VERTEX
  5
12b
  8
Layer_0
  10
413.00497
  20
199.44855
  0
VERTEX
  5
12c
  8
Layer_0
  10
413.02734
  20
199.22687
  0
VERTEX
  5
12d
  8
Layer_0
  10
413.09143
  20
199.02039
  0
VERTEX
  5
12e
  8
Layer_0
  10
413.19287
  20
198.83356
  0
VERTEX
  5
12f
  8
Layer_0
  10
413.32715
  20
198.67072
  0
VERTEX
  5
130
  8
Layer_0
  10
413.48999
  20
198.53644
  0
VERTEX
  5
131
  8
Layer_0
  10
413.67682
  20
198.435
  0
VERTEX
  5
132
  8
Layer_0
  10
413.8833
  20
198.37091
  0
VERTEX
  5
133
  8
Layer_0
  10
414.10498
  20
198.34854
  0
VERTEX
  5
134
  8
Layer_0
  10
414.32666
  20
198.37091
  0
VERTEX
  5
135
  8
Layer_0
  10
414.53314
  20
198.435
  0
VERTEX
  5
136
  8
Layer_0
  10
414.71997
  20
198.53644
  0
VERTEX
  5
137
  8
Layer_0
  10
414.88281
  20
198.67072
  0
VERTEX
  5
138
  8
Layer_0
  10
415.01709
  20
198.83356
  0
VERTEX
  5
139
  8
Layer_0
  10
415.11853
  20
199.02039
  0
VERTEX
  5
13a
  8
Layer_0
  10
415.18262
  20
199.22687
  0
VERTEX
  5
13b
  8
Layer_0
  10
415.20499
  20
199.44855
  0
SEQEND
  0
POLYLINE
  5
13d
  8
Layer_0
  62
0
  70
1
  66
1
  10
0
  20
0
  30
0
  0
VERTEX
  5
13d
  8
Layer_0
  10
267.56738
  20
270.29068
  0
VERTEX
  5
13e
  8
Layer_0
  10
267.54504
  20
270.51239
  0
VERTEX
  5
13f
  8
Layer_0
  10
267.48096
  20
270.71887
  0
VERTEX
  5
140
  8
Layer_0
  10
267.37952
  20
270.9057
  0
VERTEX
  5
141
  8
Layer_0
  10
267.24521
  20
271.06851
  0
VERTEX
  5
142
  8
Layer_0
  10
267.0824
  20
271.20282
  0
VERTEX
  5
143
  8
Layer_0
  10
266.89557
  20
271.30426
  0
VERTEX
  5
144
  8
Layer_0
  10
266.68909
  20
271.36835
  0
VERTEX
  5
145
  8
Layer_0
  10
266.46738
  20
271.39069
  0
VERTEX
  5
146
  8
Layer_0
  10
266.24567
  20
271.36835
  0
VERTEX
  5
147
  8
Layer_0
  10
266.03918
  20
271.30426
  0
VERTEX
  5
148
  8
Layer_0
  10
265.85236
  20
271.20282
  0
VERTEX
  5
149
  8
Layer_0
  10
265.68954
  20
271.06851
  0
VERTEX
  5
14a
  8
Layer_0
  10
265.55524
  20
270.9057
  0
VERTEX
  5
14b
  8
Layer_0
  10
265.4538
  20
270.71887
  0
VERTEX
  5
14c
  8
Layer_0
  10
265.38971
  20
270.51239
  0
VERTEX
  5
14d
  8
Layer_0
  10
265.36737
  20
270.29068
  0
VERTEX
  5
14e
  8
Layer_0
  10
265.38971
  20
270.06897
  0
VERTEX
  5
14f
  8
Layer_0
  10
265.4538
  20
269.86249
  0
VERTEX
  5
150
  8
Layer_0
  10
265.55524
  20
269.67566
  0
VERTEX
  5
151
  8
Layer_0
  10
265.68954
  20
269.51285
  0
VERTEX
  5
152
  8
Layer_0
  10
265.85236
  20
269.37854
  0
VERTEX
  5
153
  8
Layer_0
  10
266.03918
  20
269.2771
  0
VERTEX
  5
154
  8
Layer_0
  10
266.24567
  20
269.21301
  0
VERTEX
  5
155
  8
Layer_0
  10
266.46738
  20
269.19067
  0
VERTEX
  5
156
  8
Layer_0
  10
266.68909
  20
269.21301
  0
VERTEX
  5
157
  8
Layer_0
  10
266.89557
  20
269.2771
  0
VERTEX
  5
158
  8
Layer_0
  10
267.0824
  20
269.37854
  0
VERTEX
  5
159
  8
Layer_0
  10
267.24521
  20
269.51285
  0
VERTEX
  5
15a
  8
Layer_0
  10
267.37952
  20
269.67566
  0
VERTEX
  5
15b
  8
Layer_0
  10
267.48096
  20
269.86249
  0
VERTEX
  5
15c
  8
Layer_0
  10
267.54504
  20
270.06897
  0
VERTEX
  5
15d
  8
Layer_0
  10
267.56738
  20
270.29068
  0
SEQEND
  0
POLYLINE
  5
15f
  8
Layer_0
  62
0
  70
1
  66
1
  10
0
  20
0
  30
0
  0
VERTEX
  5
15f
  8
Layer_0
  10
267.56741
  20
213.14069
  0
VERTEX
  5
160
  8
Layer_0
  10
267.54504
  20
213.36237
  0
VERTEX
  5
161
  8
Layer_0
  10
267.48096
  20
213.56885
  0
VERTEX
  5
162
  8
Layer_0
  10
267.37952
  20
213.75568
  0
VERTEX
  5
163
  8
Layer_0
  10
267.24524
  20
213.91852
  0
VERTEX
  5
164
  8
Layer_0
  10
267.0824
  20
214.0528
  0
VERTEX
  5
165
  8
Layer_0
  10
266.89557
  20
214.15424
  0
VERTEX
  5
166
  8
Layer_0
  10
266.68909
  20
214.21832
  0
VERTEX
  5
167
  8
Layer_0
  10
266.46741
  20
214.24069
  0
VERTEX
  5
168
  8
Layer_0
  10
266.24573
  20
214.21832
  0
VERTEX
  5
169
  8
Layer_0
  10
266.03925
  20
214.15424
  0
VERTEX
  5
16a
  8
Layer_0
  10
265.85242
  20
214.0528
  0
VERTEX
  5
16b
  8
Layer_0
  10
265.68958
  20
213.91852
  0
VERTEX
  5
16c
  8
Layer_0
  10
265.5553
  20
213.75568
  0
VERTEX
  5
16d
  8
Layer_0
  10
265.45386
  20
213.56885
  0
VERTEX
  5
16e
  8
Layer_0
  10
265.38977
  20
213.36237
  0
VERTEX
  5
16f
  8
Layer_0
  10
265.3674
  20
213.14069
  0
VERTEX
  5
170
  8
Layer_0
  10
265.38977
  20
212.91901
  0
VERTEX
  5
171
  8
Layer_0
  10
265.45386
  20
212.71252
  0
VERTEX
  5
172
  8
Layer_0
  10
265.5553
  20
212.5257
  0
VERTEX
  5
173
  8
Layer_0
  10
265.68958
  20
212.36285
  0
VERTEX
  5
174
  8
Layer_0
  10
265.85242
  20
212.22858
  0
VERTEX
  5
175
  8
Layer_0
  10
266.03925
  20
212.12714
  0
VERTEX
  5
176
  8
Layer_0
  10
266.24573
  20
212.06305
  0
VERTEX
  5
177
  8
Layer_0
  10
266.46741
  20
212.04068
  0
VERTEX
  5
178
  8
Layer_0
  10
266.68909
  20
212.06305
  0
VERTEX
  5
179
  8
Layer_0
  10
266.89557
  20
212.12714
  0
VERTEX
  5
17a
  8
Layer_0
  10
267.0824
  20
212.22858
  0
VERTEX
  5
17b
  8
Layer_0
  10
267.24524
  20
212.36285
  0
VERTEX
  5
17c
  8
Layer_0
  10
267.37952
  20
212.5257
  0
VERTEX
  5
17d
  8
Layer_0
  10
267.48096
  20
212.71252
  0
VERTEX
  5
17e
  8
Layer_0
  10
267.54504
  20
212.91901
  0
VERTEX
  5
17f
  8
Layer_0
  10
267.56741
  20
213.14069
  0
SEQEND
  0
POLYLINE
  5
181
  8
Layer_0
  62
0
  70
1
  66
1
  10
0
  20
0
  30
0
  0
VERTEX
  5
181
  8
Layer_0
  10
515.21826
  20
213.14069
  0
VERTEX
  5
182
  8
Layer_0
  10
515.19592
  20
213.36237
  0
VERTEX
  5
183
  8
Layer_0
  10
515.13177
  20
213.56885
  0
VERTEX
  5
184
  8
Layer_0
  10
515.0304
  20
213.75568
  0
VERTEX
  5
185
  8
Layer_0
  10
514.89606
  20
213.91852
  0
VERTEX
  5
186
  8
Layer_0
  10
514.73328
  20
214.0528
  0
VERTEX
  5
187
  8
Layer_0
  10
514.54639
  20
214.15424
  0
VERTEX
  5
188
  8
Layer_0
  10
514.3399
  20
214.21832
  0
VERTEX
  5
189
  8
Layer_0
  10
514.11823
  20
214.24069
  0
VERTEX
  5
18a
  8
Layer_0
  10
513.89655
  20
214.21832
  0
VERTEX
  5
18b
  8
Layer_0
  10
513.69006
  20
214.15424
  0
VERTEX
  5
18c
  8
Layer_0
  10
513.50317
  20
214.0528
  0
VERTEX
  5
18d
  8
Layer_0
  10
513.34039
  20
213.91852
  0
VERTEX
  5
18e
  8
Layer_0
  10
513.20605
  20
213.75568
  0
VERTEX
  5
18f
  8
Layer_0
  10
513.10468
  20
213.56885
  0
VERTEX
  5
190
  8
Layer_0
  10
513.04053
  20
213.36237
  0
VERTEX
  5
191
  8
Layer_0
  10
513.01819
  20
213.14069
  0
VERTEX
  5
192
  8
Layer_0
  10
513.04053
  20
212.91901
  0
VERTEX
  5
193
  8
Layer_0
  10
513.10468
  20
212.71252
  0
VERTEX
  5
194
  8
Layer_0
  10
513.20605
  20
212.5257
  0
VERTEX
  5
195
  8
Layer_0
  10
513.34039
  20
212.36285
  0
VERTEX
  5
196
  8
Layer_0
  10
513.50317
  20
212.22858
  0
VERTEX
  5
197
  8
Layer_0
  10
513.69006
  20
212.12714
  0
VERTEX
  5
198
  8
Layer_0
  10
513.89655
  20
212.06305
  0
VERTEX
  5
199
  8
Layer_0
  10
514.11823
  20
212.04068
  0
VERTEX
  5
19a
  8
Layer_0
  10
514.3399
  20
212.06305
  0
VERTEX
  5
19b
  8
Layer_0
  10
514.54639
  20
212.12714
  0
VERTEX
  5
19c
  8
Layer_0
  10
514.73328
  20
212.22858
  0
VERTEX
  5
19d
  8
Layer_0
  10
514.89606
  20
212.36285
  0
VERTEX
  5
19e
  8
Layer_0
  10
515.0304
  20
212.5257
  0
VERTEX
  5
19f
  8
Layer_0
  10
515.13177
  20
212.71252
  0
VERTEX
  5
1a0
  8
Layer_0
  10
515.19592
  20
212.91901
  0
VERTEX
  5
1a1
  8
Layer_0
  10
515.21826
  20
213.14069
  0
SEQEND
  0
POLYLINE
  5
1a3
  8
Layer_1
  62
5
  66
1
  10
0
  20
0
  30
0
  0
VERTEX
  5
1a3
  8
Layer_1
  10
370.95923
  20
244.49335
  0
VERTEX
  5
1a4
  8
Layer_1
  10
370.95923
  20
233.87756
  0
VERTEX
  5
1a5
  8
Layer_1
  10
370.24146
  20
231.74304
  0
VERTEX
  5
1a6
  8
Layer_1
  10
368.82471
  20
230.32635
  0
VERTEX
  5
1a7
  8
Layer_1
  10
366.70911
  20
229.62744
  0
VERTEX
  5
1a8
  8
Layer_1
  10
365.29248
  20
229.62744
  0
SEQEND
  0
POLYLINE
  5
1aa
  8
Layer_1
  62
5
  66
1
  10
0
  20
0
  30
0
  0
VERTEX
  5
1aa
  8
Layer_1
  10
377.32495
  20
233.87756
  0
VERTEX
  5
1ab
  8
Layer_1
  10
384.40845
  20
233.87756
  0
SEQEND
  0
POLYLINE
  5
1ad
  8
Layer_1
  62
5
  66
1
  10
0
  20
0
  30
0
  0
VERTEX
  5
1ad
  8
Layer_1
  10
375.9082
  20
229.62744
  0
VERTEX
  5
1ae
  8
Layer_1
  10
380.8761
  20
244.49335
  0
VERTEX
  5
1af
  8
Layer_1
  10
385.82507
  20
229.62744
  0
SEQEND
  0
POLYLINE
  5
1b1
  8
Layer_1
  62
5
  66
1
  10
0
  20
0
  30
0
  0
VERTEX
  5
1b1
  8
Layer_1
  10
399.27429
  20
231.04413
  0
VERTEX
  5
1b2
  8
Layer_1
  10
398.57544
  20
230.32635
  0
VERTEX
  5
1b3
  8
Layer_1
  10
396.44092
  20
229.62744
  0
VERTEX
  5
1b4
  8
Layer_1
  10
395.02429
  20
229.62744
  0
VERTEX
  5
1b5
  8
Layer_1
  10
392.90857
  20
230.32635
  0
VERTEX
  5
1b6
  8
Layer_1
  10
391.49194
  20
231.74304
  0
VERTEX
  5
1b7
  8
Layer_1
  10
390.79309
  20
233.15973
  0
VERTEX
  5
1b8
  8
Layer_1
  10
390.0752
  20
235.9931
  0
VERTEX
  5
1b9
  8
Layer_1
  10
390.0752
  20
238.12769
  0
VERTEX
  5
1ba
  8
Layer_1
  10
390.79309
  20
240.96106
  0
VERTEX
  5
1bb
  8
Layer_1
  10
391.49194
  20
242.37775
  0
VERTEX
  5
1bc
  8
Layer_1
  10
392.90857
  20
243.79443
  0
VERTEX
  5
1bd
  8
Layer_1
  10
395.02429
  20
244.49335
  0
VERTEX
  5
1be
  8
Layer_1
  10
396.44092
  20
244.49335
  0
VERTEX
  5
1bf
  8
Layer_1
  10
398.57544
  20
243.79443
  0
VERTEX
  5
1c0
  8
Layer_1
  10
399.27429
  20
243.0766
  0
SEQEND
  0
POLYLINE
  5
1c2
  8
Layer_1
  62
5
  66
1
  10
0
  20
0
  30
0
  0
VERTEX
  5
1c2
  8
Layer_1
  10
405.65894
  20
229.62744
  0
VERTEX
  5
1c3
  8
Layer_1
  10
405.65894
  20
244.49335
  0
SEQEND
  0
POLYLINE
  5
1c5
  8
Layer_1
  62
5
  66
1
  10
0
  20
0
  30
0
  0
VERTEX
  5
1c5
  8
Layer_1
  10
414.15918
  20
229.62744
  0
VERTEX
  5
1c6
  8
Layer_1
  10
407.77454
  20
238.12769
  0
SEQEND
  0
POLYLINE
  5
1c8
  8
Layer_1
  62
5
  66
1
  10
0
  20
0
  30
0
  0
VERTEX
  5
1c8
  8
Layer_1
  10
414.15918
  20
244.49335
  0
VERTEX
  5
1c9
  8
Layer_1
  10
405.65894
  20
235.9931
  0
SEQEND
  0
POLYLINE
  5
1cb
  8
Layer_1
  62
5
  66
1
  10
0
  20
0
  30
0
  0
VERTEX
  5
1cb
  8
Layer_1
  10
374.09485
  20
246.38226
  0
VERTEX
  5
1cc
  8
Layer_1
  10
370.56262
  20
246.38226
  0
VERTEX
  5
1cd
  8
Layer_1
  10
370.56262
  20
253.80579
  0
SEQEND
  0
POLYLINE
  5
1cf
  8
Layer_1
  62
5
  66
1
  10
0
  20
0
  30
0
  0
VERTEX
  5
1cf
  8
Layer_1
  10
376.58826
  20
253.80579
  0
VERTEX
  5
1d0
  8
Layer_1
  10
376.58826
  20
247.79895
  0
VERTEX
  5
1d1
  8
Layer_1
  10
376.92822
  20
247.08118
  0
VERTEX
  5
1d2
  8
Layer_1
  10
377.28723
  20
246.72229
  0
VERTEX
  5
1d3
  8
Layer_1
  10
378.00488
  20
246.38226
  0
VERTEX
  5
1d4
  8
Layer_1
  10
379.42163
  20
246.38226
  0
VERTEX
  5
1d5
  8
Layer_1
  10
380.12061
  20
246.72229
  0
VERTEX
  5
1d6
  8
Layer_1
  10
380.47949
  20
247.08118
  0
VERTEX
  5
1d7
  8
Layer_1
  10
380.83838
  20
247.79895
  0
VERTEX
  5
1d8
  8
Layer_1
  10
380.83838
  20
253.80579
  0
SEQEND
  0
POLYLINE
  5
1da
  8
Layer_1
  62
5
  66
1
  10
0
  20
0
  30
0
  0
VERTEX
  5
1da
  8
Layer_1
  10
384.37073
  20
246.38226
  0
VERTEX
  5
1db
  8
Layer_1
  10
384.37073
  20
253.80579
  0
VERTEX
  5
1dc
  8
Layer_1
  10
386.84509
  20
248.49786
  0
VERTEX
  5
1dd
  8
Layer_1
  10
389.3197
  20
253.80579
  0
VERTEX
  5
1de
  8
Layer_1
  10
389.3197
  20
246.38226
  0
SEQEND
  0
POLYLINE
  5
1e0
  8
Layer_1
  62
5
  66
1
  10
0
  20
0
  30
0
  0
VERTEX
  5
1e0
  8
Layer_1
  10
395.34534
  20
250.2735
  0
VERTEX
  5
1e1
  8
Layer_1
  10
396.4032
  20
249.91455
  0
VERTEX
  5
1e2
  8
Layer_1
  10
396.76208
  20
249.55566
  0
VERTEX
  5
1e3
  8
Layer_1
  10
397.12097
  20
248.85681
  0
VERTEX
  5
1e4
  8
Layer_1
  10
397.12097
  20
247.79895
  0
VERTEX
  5
1e5
  8
Layer_1
  10
396.76208
  20
247.08118
  0
VERTEX
  5
1e6
  8
Layer_1
  10
396.4032
  20
246.72229
  0
VERTEX
  5
1e7
  8
Layer_1
  10
395.70435
  20
246.38226
  0
VERTEX
  5
1e8
  8
Layer_1
  10
392.87085
  20
246.38226
  0
VERTEX
  5
1e9
  8
Layer_1
  10
392.87085
  20
253.80579
  0
VERTEX
  5
1ea
  8
Layer_1
  10
395.34534
  20
253.80579
  0
VERTEX
  5
1eb
  8
Layer_1
  10
396.06311
  20
253.46576
  0
VERTEX
  5
1ec
  8
Layer_1
  10
396.4032
  20
253.10687
  0
VERTEX
  5
1ed
  8
Layer_1
  10
396.76208
  20
252.38904
  0
VERTEX
  5
1ee
  8
Layer_1
  10
396.76208
  20
251.69019
  0
VERTEX
  5
1ef
  8
Layer_1
  10
396.4032
  20
250.97235
  0
VERTEX
  5
1f0
  8
Layer_1
  10
396.06311
  20
250.63239
  0
VERTEX
  5
1f1
  8
Layer_1
  10
395.34534
  20
250.2735
  0
VERTEX
  5
1f2
  8
Layer_1
  10
392.87085
  20
250.2735
  0
SEQEND
  0
POLYLINE
  5
1f4
  8
Layer_1
  62
5
  66
1
  10
0
  20
0
  30
0
  0
VERTEX
  5
1f4
  8
Layer_1
  10
400.31323
  20
250.2735
  0
VERTEX
  5
1f5
  8
Layer_1
  10
402.78784
  20
250.2735
  0
SEQEND
  0
POLYLINE
  5
1f7
  8
Layer_1
  62
5
  66
1
  10
0
  20
0
  30
0
  0
VERTEX
  5
1f7
  8
Layer_1
  10
403.84558
  20
246.38226
  0
VERTEX
  5
1f8
  8
Layer_1
  10
400.31323
  20
246.38226
  0
VERTEX
  5
1f9
  8
Layer_1
  10
400.31323
  20
253.80579
  0
VERTEX
  5
1fa
  8
Layer_1
  10
403.84558
  20
253.80579
  0
SEQEND
  0
POLYLINE
  5
1fc
  8
Layer_1
  62
5
  66
1
  10
0
  20
0
  30
0
  0
VERTEX
  5
1fc
  8
Layer_1
  10
411.28796
  20
246.38226
  0
VERTEX
  5
1fd
  8
Layer_1
  10
408.81348
  20
249.91455
  0
SEQEND
  0
POLYLINE
  5
1ff
  8
Layer_1
  62
5
  66
1
  10
0
  20
0
  30
0
  0
VERTEX
  5
1ff
  8
Layer_1
  10
407.03796
  20
246.38226
  0
VERTEX
  5
200
  8
Layer_1
  10
407.03796
  20
253.80579
  0
VERTEX
  5
201
  8
Layer_1
  10
409.87134
  20
253.80579
  0
VERTEX
  5
202
  8
Layer_1
  10
410.57019
  20
253.46576
  0
VERTEX
  5
203
  8
Layer_1
  10
410.92908
  20
253.10687
  0
VERTEX
  5
204
  8
Layer_1
  10
411.28796
  20
252.38904
  0
VERTEX
  5
205
  8
Layer_1
  10
411.28796
  20
251.3313
  0
VERTEX
  5
206
  8
Layer_1
  10
410.92908
  20
250.63239
  0
VERTEX
  5
207
  8
Layer_1
  10
410.57019
  20
250.2735
  0
VERTEX
  5
208
  8
Layer_1
  10
409.87134
  20
249.91455
  0
VERTEX
  5
209
  8
Layer_1
  10
407.03796
  20
249.91455
  0
SEQEND
  0
POLYLINE
  5
20b
  8
Layer_0
  62
0
  70
1
  66
1
  10
0
  20
0
  30
0
  0
VERTEX
  5
20b
  8
Layer_0
  10
530.39197
  20
288.81744
  0
VERTEX
  5
20c
  8
Layer_0
  10
250.19241
  20
288.81567
  0
VERTEX
  5
20d
  8
Layer_0
  10
249.73898
  20
288.76996
  0
VERTEX
  5
20e
  8
Layer_0
  10
249.31662
  20
288.63885
  0
VERTEX
  5
20f
  8
Layer_0
  10
248.93442
  20
288.43143
  0
VERTEX
  5
210
  8
Layer_0
  10
248.60144
  20
288.15668
  0
VERTEX
  5
211
  8
Layer_0
  10
248.32672
  20
287.8237
  0
VERTEX
  5
212
  8
Layer_0
  10
248.11926
  20
287.44153
  0
VERTEX
  5
213
  8
Layer_0
  10
247.98816
  20
287.01917
  0
VERTEX
  5
214
  8
Layer_0
  10
247.94241
  20
286.56573
  0
VERTEX
  5
215
  8
Layer_0
  10
247.94241
  20
196.86591
  0
VERTEX
  5
216
  8
Layer_0
  10
247.98602
  20
196.42477
  0
VERTEX
  5
217
  8
Layer_0
  10
248.11371
  20
196.00464
  0
VERTEX
  5
218
  8
Layer_0
  10
248.32047
  20
195.61737
  0
VERTEX
  5
219
  8
Layer_0
  10
248.60147
  20
195.27466
  0
VERTEX
  5
21a
  8
Layer_0
  10
248.94418
  20
194.99365
  0
VERTEX
  5
21b
  8
Layer_0
  10
249.33145
  20
194.78693
  0
VERTEX
  5
21c
  8
Layer_0
  10
249.75146
  20
194.6593
  0
VERTEX
  5
21d
  8
Layer_0
  10
250.19241
  20
194.61572
  0
VERTEX
  5
21e
  8
Layer_0
  10
530.39197
  20
194.61572
  0
VERTEX
  5
21f
  8
Layer_0
  10
530.83313
  20
194.65927
  0
VERTEX
  5
220
  8
Layer_0
  10
531.25323
  20
194.78687
  0
VERTEX
  5
221
  8
Layer_0
  10
531.64056
  20
194.99362
  0
VERTEX
  5
222
  8
Layer_0
  10
531.98334
  20
195.27463
  0
VERTEX
  5
223
  8
Layer_0
  10
532.2644
  20
195.61737
  0
VERTEX
  5
224
  8
Layer_0
  10
532.47119
  20
196.0047
  0
VERTEX
  5
225
  8
Layer_0
  10
532.59888
  20
196.4248
  0
VERTEX
  5
226
  8
Layer_0
  10
532.64246
  20
196.86591
  0
VERTEX
  5
227
  8
Layer_0
  10
532.64246
  20
286.56573
  0
VERTEX
  5
228
  8
Layer_0
  10
532.59882
  20
287.00674
  0
VERTEX
  5
229
  8
Layer_0
  10
532.47113
  20
287.42682
  0
VERTEX
  5
22a
  8
Layer_0
  10
532.26434
  20
287.81409
  0
VERTEX
  5
22b
  8
Layer_0
  10
531.98328
  20
288.1568
  0
VERTEX
  5
22c
  8
Layer_0
  10
531.6405
  20
288.43781
  0
VERTEX
  5
22d
  8
Layer_0
  10
531.25317
  20
288.64471
  0
VERTEX
  5
22e
  8
Layer_0
  10
530.83313
  20
288.77286
  0
VERTEX
  5
22f
  8
Layer_0
  10
530.39197
  20
288.81744
  0
SEQEND
  0
ENDSEC
  0
EOF
