%FSLAX45Y45*%
G04 Gerber Fmt 4.5, Leading zero omitted, Abs format (unit mm)*
G04 Created by KiCad (PCBNEW 5.1.10-88a1d61d58~90~ubuntu21.04.1) date 2021-08-14 22:31:23*
%MOMM*%
%LPD*%
G01*
G04 APERTURE LIST*
%TA.AperFunction,Profile*%
%ADD10C,0.100000*%
%TD*%
%ADD11C,0.200000*%
%ADD12C,0.300000*%
G04 APERTURE END LIST*
D10*
X10239384Y-14525637D02*
X21490799Y-14525637D01*
X10239384Y-5000629D02*
X10239384Y-14525637D01*
X21490799Y-5000629D02*
X10239384Y-5000629D01*
X10477500Y-14287500D02*
X10477500Y-12858750D01*
X13811250Y-14287500D02*
X13811250Y-12858750D01*
X13573136Y-12858761D02*
X13573136Y-12739698D01*
X10715634Y-12739698D02*
X10715634Y-12858761D01*
X13096886Y-12739698D02*
X13096886Y-12858761D01*
X13573136Y-12858761D02*
X13811262Y-12858761D01*
X11191884Y-12739698D02*
X10715634Y-12739698D01*
X10477500Y-12858750D02*
X10715634Y-12858761D01*
X13811250Y-14287500D02*
X10477500Y-14287500D01*
X14287500Y-12858750D02*
X14287500Y-14287500D01*
X17621250Y-14287500D02*
X16192500Y-14287500D01*
X11191884Y-12858761D02*
X11191884Y-12739698D01*
X13573136Y-12739698D02*
X13096886Y-12739698D01*
X18097500Y-12858750D02*
X19526250Y-12858750D01*
X17621250Y-12858750D02*
X17621250Y-14287500D01*
X15716250Y-12858750D02*
X14287500Y-12858750D01*
X16192500Y-12858750D02*
X17621250Y-12858750D01*
X20002500Y-14287500D02*
X20002500Y-12858750D01*
X18097500Y-14287500D02*
X18097500Y-12858750D01*
X19526250Y-14287500D02*
X18097500Y-14287500D01*
X14287500Y-14287500D02*
X15716250Y-14287500D01*
X15716250Y-14287500D02*
X15716250Y-12858750D01*
X16192500Y-14287500D02*
X16192500Y-12858750D01*
X19526250Y-12858750D02*
X19526250Y-14287500D01*
X11191884Y-12858761D02*
X13096886Y-12858761D01*
X10477500Y-10477500D02*
X10477500Y-9048750D01*
X12382500Y-10477500D02*
X13811250Y-10477500D01*
X17621250Y-9048750D02*
X17621250Y-10477500D01*
X10477500Y-12382500D02*
X10477500Y-10953750D01*
X19526250Y-10953750D02*
X19526250Y-12382500D01*
X11906250Y-12382500D02*
X10477500Y-12382500D01*
X10477500Y-10953750D02*
X11906250Y-10953750D01*
X15716250Y-12382500D02*
X15716250Y-10953750D01*
X15716250Y-10953750D02*
X14287500Y-10953750D01*
X12382500Y-12382500D02*
X13811250Y-12382500D01*
X13811250Y-12382500D02*
X13811250Y-10953750D01*
X18097500Y-12382500D02*
X18097500Y-10953750D01*
X16192500Y-12382500D02*
X16192500Y-10953750D01*
X14287500Y-12382500D02*
X15716250Y-12382500D01*
X17621250Y-12382500D02*
X16192500Y-12382500D01*
X11906250Y-10953750D02*
X11906250Y-12382500D01*
X17621250Y-10953750D02*
X17621250Y-12382500D01*
X14287500Y-10953750D02*
X14287500Y-12382500D01*
X12382500Y-10953750D02*
X12382500Y-12382500D01*
X16192500Y-10953750D02*
X17621250Y-10953750D01*
X18097500Y-10953750D02*
X19526250Y-10953750D01*
X19526250Y-12382500D02*
X18097500Y-12382500D01*
X13811250Y-10953750D02*
X12382500Y-10953750D01*
X20002500Y-12382500D02*
X20002500Y-10953750D01*
X11906250Y-10477500D02*
X10477500Y-10477500D01*
X16192500Y-10477500D02*
X16192500Y-9048750D01*
X10477500Y-9048750D02*
X11906250Y-9048750D01*
X18097500Y-9048750D02*
X19526250Y-9048750D01*
X12382500Y-9048750D02*
X12382500Y-10477500D01*
X15716250Y-9048750D02*
X14287500Y-9048750D01*
X14287500Y-9048750D02*
X14287500Y-10477500D01*
X15716250Y-10477500D02*
X15716250Y-9048750D01*
X13811250Y-10477500D02*
X13811250Y-9048750D01*
X14287500Y-10477500D02*
X15716250Y-10477500D01*
X20002500Y-10477500D02*
X20002500Y-9048750D01*
X19526250Y-9048750D02*
X19526250Y-10477500D01*
X11906250Y-8572500D02*
X10477500Y-8572500D01*
X10477500Y-7143750D02*
X11906250Y-7143750D01*
X16192500Y-8572500D02*
X16192500Y-7143750D01*
X19526250Y-7143750D02*
X19526250Y-8572500D01*
X20002500Y-8572500D02*
X20002500Y-7143750D01*
X12382500Y-7143750D02*
X12382500Y-8572500D01*
X20002500Y-6667500D02*
X20002500Y-5238750D01*
X18097500Y-6667500D02*
X18097500Y-5238750D01*
X19526250Y-6667500D02*
X18097500Y-6667500D01*
X19526250Y-5238750D02*
X19526250Y-6667500D01*
X18097500Y-5238750D02*
X19526250Y-5238750D01*
X16192500Y-6667500D02*
X16192500Y-5238750D01*
X17621250Y-6667500D02*
X16192500Y-6667500D01*
X17621250Y-5238750D02*
X17621250Y-6667500D01*
X16192500Y-5238750D02*
X17621250Y-5238750D01*
X15716250Y-5238750D02*
X14287500Y-5238750D01*
X15716250Y-6667500D02*
X15716250Y-5238750D01*
X14287500Y-6667500D02*
X15716250Y-6667500D01*
X14287500Y-5238750D02*
X14287500Y-6667500D01*
X13811250Y-5238750D02*
X12382500Y-5238750D01*
X13811250Y-6667500D02*
X13811250Y-5238750D01*
X12382500Y-6667500D02*
X13811250Y-6667500D01*
X12382500Y-5238750D02*
X12382500Y-6667500D01*
X10477500Y-6667500D02*
X10477500Y-5238750D01*
X11906250Y-6667500D02*
X10477500Y-6667500D01*
X11906250Y-5238750D02*
X11906250Y-6667500D01*
X10477500Y-5238750D02*
X11906250Y-5238750D01*
X18097500Y-10477500D02*
X18097500Y-9048750D01*
X17621250Y-10477500D02*
X16192500Y-10477500D01*
X19526250Y-10477500D02*
X18097500Y-10477500D01*
X16192500Y-9048750D02*
X17621250Y-9048750D01*
X13811250Y-9048750D02*
X12382500Y-9048750D01*
X11906250Y-9048750D02*
X11906250Y-10477500D01*
X12382500Y-8572500D02*
X13811250Y-8572500D01*
X15716250Y-8572500D02*
X15716250Y-7143750D01*
X14287500Y-7143750D02*
X14287500Y-8572500D01*
X14287500Y-8572500D02*
X15716250Y-8572500D01*
X10477500Y-8572500D02*
X10477500Y-7143750D01*
X17621250Y-7143750D02*
X17621250Y-8572500D01*
X15716250Y-7143750D02*
X14287500Y-7143750D01*
X18097500Y-7143750D02*
X19526250Y-7143750D01*
X13811250Y-8572500D02*
X13811250Y-7143750D01*
X13811250Y-7143750D02*
X12382500Y-7143750D01*
X11906250Y-7143750D02*
X11906250Y-8572500D01*
X19526250Y-8572500D02*
X18097500Y-8572500D01*
X16192500Y-7143750D02*
X17621250Y-7143750D01*
X18097500Y-8572500D02*
X18097500Y-7143750D01*
X17621250Y-8572500D02*
X16192500Y-8572500D01*
X20002500Y-9048750D02*
X21431250Y-9048750D01*
X21431250Y-9048750D02*
X21431250Y-10477500D01*
X21431250Y-10477500D02*
X20002500Y-10477509D01*
X21431250Y-7143750D02*
X21431250Y-8572500D01*
X21431250Y-8572500D02*
X20002500Y-8572500D01*
X21431250Y-6667500D02*
X20002500Y-6667500D01*
X21431250Y-5238750D02*
X21431250Y-6667500D01*
X20002500Y-5238750D02*
X21431250Y-5238750D01*
X20002500Y-7143750D02*
X21431250Y-7143750D01*
X21431250Y-14287500D02*
X20002500Y-14287500D01*
X20002500Y-12858750D02*
X21431250Y-12858750D01*
X21431250Y-12858750D02*
X21431250Y-14287500D01*
X20002500Y-10953750D02*
X21431250Y-10953750D01*
X21431250Y-12382500D02*
X20002500Y-12382500D01*
X21431250Y-10953750D02*
X21431250Y-12382500D01*
X21669393Y-5179223D02*
X21669393Y-14347043D01*
X21669393Y-14347043D02*
G75*
G02*
X21490799Y-14525637I-178594J0D01*
G01*
X21490799Y-5000629D02*
G75*
G02*
X21669393Y-5179223I0J-178594D01*
G01*
D11*
D12*
X10520812Y-14996351D02*
X10520812Y-14696351D01*
X10592241Y-14696351D01*
X10635098Y-14710637D01*
X10663669Y-14739209D01*
X10677955Y-14767780D01*
X10692241Y-14824923D01*
X10692241Y-14867780D01*
X10677955Y-14924923D01*
X10663669Y-14953494D01*
X10635098Y-14982066D01*
X10592241Y-14996351D01*
X10520812Y-14996351D01*
X10820812Y-14996351D02*
X10820812Y-14796351D01*
X10820812Y-14853494D02*
X10835098Y-14824923D01*
X10849384Y-14810637D01*
X10877955Y-14796351D01*
X10906526Y-14796351D01*
X11006526Y-14996351D02*
X11006526Y-14796351D01*
X11006526Y-14696351D02*
X10992241Y-14710637D01*
X11006526Y-14724923D01*
X11020812Y-14710637D01*
X11006526Y-14696351D01*
X11006526Y-14724923D01*
X11192241Y-14996351D02*
X11163669Y-14982066D01*
X11149384Y-14953494D01*
X11149384Y-14696351D01*
X11349383Y-14996351D02*
X11320812Y-14982066D01*
X11306526Y-14953494D01*
X11306526Y-14696351D01*
X11692241Y-14996351D02*
X11692241Y-14696351D01*
X11792241Y-14910637D01*
X11892241Y-14696351D01*
X11892241Y-14996351D01*
X12163669Y-14996351D02*
X12163669Y-14839209D01*
X12149383Y-14810637D01*
X12120812Y-14796351D01*
X12063669Y-14796351D01*
X12035098Y-14810637D01*
X12163669Y-14982066D02*
X12135098Y-14996351D01*
X12063669Y-14996351D01*
X12035098Y-14982066D01*
X12020812Y-14953494D01*
X12020812Y-14924923D01*
X12035098Y-14896351D01*
X12063669Y-14882066D01*
X12135098Y-14882066D01*
X12163669Y-14867780D01*
X12306526Y-14796351D02*
X12306526Y-15096351D01*
X12306526Y-14810637D02*
X12335098Y-14796351D01*
X12392241Y-14796351D01*
X12420812Y-14810637D01*
X12435098Y-14824923D01*
X12449383Y-14853494D01*
X12449383Y-14939209D01*
X12435098Y-14967780D01*
X12420812Y-14982066D01*
X12392241Y-14996351D01*
X12335098Y-14996351D01*
X12306526Y-14982066D01*
X12577955Y-14967780D02*
X12592241Y-14982066D01*
X12577955Y-14996351D01*
X12563669Y-14982066D01*
X12577955Y-14967780D01*
X12577955Y-14996351D01*
X12577955Y-14810637D02*
X12592241Y-14824923D01*
X12577955Y-14839209D01*
X12563669Y-14824923D01*
X12577955Y-14810637D01*
X12577955Y-14839209D01*
M02*
