G04 #@! TF.GenerationSoftware,KiCad,Pcbnew,5.1.10-88a1d61d58~90~ubuntu21.04.1*
G04 #@! TF.CreationDate,2021-08-14T22:36:03+02:00*
G04 #@! TF.ProjectId,plate,706c6174-652e-46b6-9963-61645f706362,rev?*
G04 #@! TF.SameCoordinates,Original*
G04 #@! TF.FileFunction,Legend,Bot*
G04 #@! TF.FilePolarity,Positive*
%FSLAX46Y46*%
G04 Gerber Fmt 4.6, Leading zero omitted, Abs format (unit mm)*
G04 Created by KiCad (PCBNEW 5.1.10-88a1d61d58~90~ubuntu21.04.1) date 2021-08-14 22:36:03*
%MOMM*%
%LPD*%
G01*
G04 APERTURE LIST*
%ADD10C,0.150000*%
%ADD11O,5.000000X2.500000*%
G04 APERTURE END LIST*
D10*
X211149738Y-143262404D02*
X211149738Y-143833833D01*
X211187833Y-143948119D01*
X211264023Y-144024309D01*
X211378309Y-144062404D01*
X211454500Y-144062404D01*
X210387833Y-144062404D02*
X210768785Y-144062404D01*
X210768785Y-143262404D01*
X209664023Y-143986214D02*
X209702119Y-144024309D01*
X209816404Y-144062404D01*
X209892595Y-144062404D01*
X210006880Y-144024309D01*
X210083071Y-143948119D01*
X210121166Y-143871928D01*
X210159261Y-143719547D01*
X210159261Y-143605261D01*
X210121166Y-143452880D01*
X210083071Y-143376690D01*
X210006880Y-143300500D01*
X209892595Y-143262404D01*
X209816404Y-143262404D01*
X209702119Y-143300500D01*
X209664023Y-143338595D01*
X209092595Y-143262404D02*
X209092595Y-143833833D01*
X209130690Y-143948119D01*
X209206880Y-144024309D01*
X209321166Y-144062404D01*
X209397357Y-144062404D01*
X208330690Y-144062404D02*
X208711642Y-144062404D01*
X208711642Y-143262404D01*
X207606880Y-143986214D02*
X207644976Y-144024309D01*
X207759261Y-144062404D01*
X207835452Y-144062404D01*
X207949738Y-144024309D01*
X208025928Y-143948119D01*
X208064023Y-143871928D01*
X208102119Y-143719547D01*
X208102119Y-143605261D01*
X208064023Y-143452880D01*
X208025928Y-143376690D01*
X207949738Y-143300500D01*
X207835452Y-143262404D01*
X207759261Y-143262404D01*
X207644976Y-143300500D01*
X207606880Y-143338595D01*
X207035452Y-143262404D02*
X207035452Y-143833833D01*
X207073547Y-143948119D01*
X207149738Y-144024309D01*
X207264023Y-144062404D01*
X207340214Y-144062404D01*
X206273547Y-144062404D02*
X206654500Y-144062404D01*
X206654500Y-143262404D01*
X205549738Y-143986214D02*
X205587833Y-144024309D01*
X205702119Y-144062404D01*
X205778309Y-144062404D01*
X205892595Y-144024309D01*
X205968785Y-143948119D01*
X206006880Y-143871928D01*
X206044976Y-143719547D01*
X206044976Y-143605261D01*
X206006880Y-143452880D01*
X205968785Y-143376690D01*
X205892595Y-143300500D01*
X205778309Y-143262404D01*
X205702119Y-143262404D01*
X205587833Y-143300500D01*
X205549738Y-143338595D01*
X204978309Y-143262404D02*
X204978309Y-143833833D01*
X205016404Y-143948119D01*
X205092595Y-144024309D01*
X205206880Y-144062404D01*
X205283071Y-144062404D01*
X204216404Y-144062404D02*
X204597357Y-144062404D01*
X204597357Y-143262404D01*
X203492595Y-143986214D02*
X203530690Y-144024309D01*
X203644976Y-144062404D01*
X203721166Y-144062404D01*
X203835452Y-144024309D01*
X203911642Y-143948119D01*
X203949738Y-143871928D01*
X203987833Y-143719547D01*
X203987833Y-143605261D01*
X203949738Y-143452880D01*
X203911642Y-143376690D01*
X203835452Y-143300500D01*
X203721166Y-143262404D01*
X203644976Y-143262404D01*
X203530690Y-143300500D01*
X203492595Y-143338595D01*
%LPC*%
D11*
X215392000Y-107124500D03*
M02*
