%FSLAX45Y45*%
G04 Gerber Fmt 4.5, Leading zero omitted, Abs format (unit mm)*
G04 Created by KiCad (PCBNEW 6.0.1-79c1e3a40b~116~ubuntu21.10.1) date 2022-01-31 22:58:53*
%MOMM*%
%LPD*%
G01*
G04 APERTURE LIST*
%TA.AperFunction,Profile*%
%ADD10C,0.200000*%
%TD*%
%ADD11C,0.200000*%
%ADD12C,0.040000*%
%ADD13C,0.060000*%
%ADD14C,0.070000*%
%ADD15C,0.071000*%
%ADD16C,0.073660*%
%ADD17C,0.080000*%
%ADD18C,0.100000*%
%ADD19C,0.110000*%
%ADD20C,0.149860*%
%ADD21C,0.150000*%
G04 APERTURE END LIST*
D10*
X23876439Y-14949375D02*
X6603561Y-14949375D01*
X29475000Y-14724375D02*
X29475000Y-5754375D01*
X27210189Y-5529375D02*
X26129811Y-5529375D01*
X29250000Y-14949375D02*
X24701061Y-14949375D01*
X16389443Y-5610020D02*
G75*
G03*
X16256439Y-5529375I-133003J-69355D01*
G01*
X16256439Y-5529375D02*
X14223561Y-5529375D01*
X13531943Y-5610020D02*
G75*
G03*
X13398939Y-5529375I-133003J-69355D01*
G01*
X5778939Y-14949375D02*
X1230000Y-14949375D01*
X13531943Y-5610020D02*
G75*
G03*
X14090557Y-5610020I279307J145645D01*
G01*
X1230000Y-5529375D02*
G75*
G03*
X1005000Y-5754375I0J-225000D01*
G01*
X13398939Y-5529375D02*
X5174811Y-5529375D01*
X14223561Y-5529375D02*
G75*
G03*
X14090557Y-5610020I0J-150000D01*
G01*
X25305189Y-5529375D02*
X17081061Y-5529375D01*
X16389443Y-5610020D02*
G75*
G03*
X16948057Y-5610020I279307J145645D01*
G01*
X25438193Y-5610020D02*
G75*
G03*
X25996807Y-5610020I279307J145645D01*
G01*
X25438193Y-5610020D02*
G75*
G03*
X25305189Y-5529375I-133003J-69355D01*
G01*
X17081061Y-5529375D02*
G75*
G03*
X16948057Y-5610020I0J-150000D01*
G01*
X1005000Y-14724375D02*
X1005000Y-5754375D01*
X29475000Y-5754375D02*
G75*
G03*
X29250000Y-5529375I-225000J0D01*
G01*
X6470557Y-14868730D02*
G75*
G03*
X6603561Y-14949375I133004J69355D01*
G01*
X23876439Y-14949375D02*
G75*
G03*
X24009443Y-14868730I0J150000D01*
G01*
X24568057Y-14868730D02*
G75*
G03*
X24701061Y-14949375I133004J69355D01*
G01*
X24568057Y-14868730D02*
G75*
G03*
X24009443Y-14868730I-279307J-145645D01*
G01*
X29250000Y-14949375D02*
G75*
G03*
X29475000Y-14724375I0J225000D01*
G01*
X26129811Y-5529375D02*
G75*
G03*
X25996807Y-5610020I0J-150000D01*
G01*
X5778939Y-14949375D02*
G75*
G03*
X5911943Y-14868730I0J150000D01*
G01*
X6470557Y-14868730D02*
G75*
G03*
X5911943Y-14868730I-279307J-145645D01*
G01*
X1005000Y-14724375D02*
G75*
G03*
X1230000Y-14949375I225000J0D01*
G01*
X5174811Y-5529375D02*
G75*
G03*
X5041807Y-5610020I0J-150000D01*
G01*
X4483193Y-5610020D02*
G75*
G03*
X5041807Y-5610020I279307J145645D01*
G01*
X4483193Y-5610020D02*
G75*
G03*
X4350189Y-5529375I-133003J-69355D01*
G01*
X29250000Y-5529375D02*
X28034810Y-5529375D01*
X28034810Y-5529375D02*
G75*
G03*
X27901807Y-5610020I0J-150000D01*
G01*
X27343193Y-5610020D02*
G75*
G03*
X27210189Y-5529375I-133003J-69355D01*
G01*
X27343193Y-5610020D02*
G75*
G03*
X27901807Y-5610020I279307J145645D01*
G01*
X3269811Y-5529375D02*
G75*
G03*
X3136807Y-5610020I0J-150000D01*
G01*
X2578193Y-5610020D02*
G75*
G03*
X2445190Y-5529375I-133004J-69355D01*
G01*
X3269811Y-5529375D02*
X4350189Y-5529375D01*
X1230000Y-5529375D02*
X2445190Y-5529375D01*
X2578193Y-5610020D02*
G75*
G03*
X3136807Y-5610020I279307J145645D01*
G01*
D11*
D12*
X2123125Y-5647375D02*
X2163125Y-5687375D01*
X2163125Y-5647375D02*
X2123125Y-5687375D01*
X2742030Y-7110000D02*
X2782030Y-7150000D01*
X2782030Y-7110000D02*
X2742030Y-7150000D01*
X2843070Y-7172500D02*
X2883070Y-7212500D01*
X2883070Y-7172500D02*
X2843070Y-7212500D01*
X2881950Y-7988620D02*
X2921950Y-8028620D01*
X2921950Y-7988620D02*
X2881950Y-8028620D01*
X3083880Y-7734620D02*
X3123880Y-7774620D01*
X3123880Y-7734620D02*
X3083880Y-7774620D01*
X3137220Y-10515920D02*
X3177220Y-10555920D01*
X3177220Y-10515920D02*
X3137220Y-10555920D01*
X4051937Y-6742750D02*
X4091937Y-6782750D01*
X4091937Y-6742750D02*
X4051937Y-6782750D01*
X4742500Y-8314375D02*
X4782500Y-8354375D01*
X4782500Y-8314375D02*
X4742500Y-8354375D01*
X6037900Y-6882450D02*
X6077900Y-6922450D01*
X6077900Y-6882450D02*
X6037900Y-6922450D01*
X6623687Y-8790625D02*
X6663687Y-8830625D01*
X6663687Y-8790625D02*
X6623687Y-8830625D01*
X6647500Y-10290813D02*
X6687500Y-10330813D01*
X6687500Y-10290813D02*
X6647500Y-10330813D01*
X11945940Y-13377230D02*
X11985940Y-13417230D01*
X11985940Y-13377230D02*
X11945940Y-13417230D01*
X12067860Y-8871270D02*
X12107860Y-8911270D01*
X12107860Y-8871270D02*
X12067860Y-8911270D01*
X12175810Y-6365560D02*
X12215810Y-6405560D01*
X12215810Y-6365560D02*
X12175810Y-6405560D01*
X12992420Y-10931210D02*
X13032420Y-10971210D01*
X13032420Y-10931210D02*
X12992420Y-10971210D01*
X13059730Y-10519730D02*
X13099730Y-10559730D01*
X13099730Y-10519730D02*
X13059730Y-10559730D01*
X13617260Y-12711750D02*
X13657260Y-12751750D01*
X13657260Y-12711750D02*
X13617260Y-12751750D01*
X13848400Y-13697270D02*
X13888400Y-13737270D01*
X13888400Y-13697270D02*
X13848400Y-13737270D01*
X13927140Y-10606090D02*
X13967140Y-10646090D01*
X13967140Y-10606090D02*
X13927140Y-10646090D01*
X14145580Y-13412790D02*
X14185580Y-13452790D01*
X14185580Y-13412790D02*
X14145580Y-13452790D01*
X14280200Y-13847824D02*
X14320200Y-13887824D01*
X14320200Y-13847824D02*
X14280200Y-13887824D01*
X15065060Y-9932990D02*
X15105060Y-9972990D01*
X15105060Y-9932990D02*
X15065060Y-9972990D01*
X15113320Y-7405690D02*
X15153320Y-7445690D01*
X15153320Y-7405690D02*
X15113320Y-7445690D01*
X15214306Y-7027844D02*
X15254306Y-7067844D01*
X15254306Y-7027844D02*
X15214306Y-7067844D01*
X15389915Y-6729019D02*
X15429915Y-6769019D01*
X15429915Y-6729019D02*
X15389915Y-6769019D01*
X15702600Y-13415330D02*
X15742600Y-13455330D01*
X15742600Y-13415330D02*
X15702600Y-13455330D01*
X15857540Y-9595170D02*
X15897540Y-9635170D01*
X15897540Y-9595170D02*
X15857540Y-9635170D01*
X15865160Y-8010210D02*
X15905160Y-8050210D01*
X15905160Y-8010210D02*
X15865160Y-8050210D01*
X15885480Y-7302820D02*
X15925480Y-7342820D01*
X15925480Y-7302820D02*
X15885480Y-7342820D01*
X16302040Y-13405170D02*
X16342040Y-13445170D01*
X16342040Y-13405170D02*
X16302040Y-13445170D01*
X16524290Y-8247700D02*
X16564290Y-8287700D01*
X16564290Y-8247700D02*
X16524290Y-8287700D01*
X16652560Y-9709470D02*
X16692560Y-9749470D01*
X16692560Y-9709470D02*
X16652560Y-9749470D01*
X16727490Y-7949250D02*
X16767490Y-7989250D01*
X16767490Y-7949250D02*
X16727490Y-7989250D01*
X16807500Y-10440990D02*
X16847500Y-10480990D01*
X16847500Y-10440990D02*
X16807500Y-10480990D01*
X16825280Y-12704130D02*
X16865280Y-12744130D01*
X16865280Y-12704130D02*
X16825280Y-12744130D01*
X17249460Y-8238810D02*
X17289460Y-8278810D01*
X17289460Y-8238810D02*
X17249460Y-8278810D01*
X17312960Y-7953060D02*
X17352960Y-7993060D01*
X17352960Y-7953060D02*
X17312960Y-7993060D01*
X18256109Y-14386575D02*
X18296109Y-14426575D01*
X18296109Y-14386575D02*
X18256109Y-14426575D01*
X2533010Y-6007080D02*
G75*
G03*
X2533010Y-6007080I-20000J0D01*
G01*
X2533010Y-6139580D02*
G75*
G03*
X2533010Y-6139580I-20000J0D01*
G01*
X2618010Y-6139580D02*
G75*
G03*
X2618010Y-6139580I-20000J0D01*
G01*
X2618510Y-6007080D02*
G75*
G03*
X2618510Y-6007080I-20000J0D01*
G01*
X2703010Y-6139580D02*
G75*
G03*
X2703010Y-6139580I-20000J0D01*
G01*
X2703510Y-6007080D02*
G75*
G03*
X2703510Y-6007080I-20000J0D01*
G01*
X2788010Y-6139580D02*
G75*
G03*
X2788010Y-6139580I-20000J0D01*
G01*
X2788510Y-6007080D02*
G75*
G03*
X2788510Y-6007080I-20000J0D01*
G01*
X2873010Y-6139580D02*
G75*
G03*
X2873010Y-6139580I-20000J0D01*
G01*
X2873510Y-6007080D02*
G75*
G03*
X2873510Y-6007080I-20000J0D01*
G01*
X2958010Y-6139580D02*
G75*
G03*
X2958010Y-6139580I-20000J0D01*
G01*
X2958510Y-6007080D02*
G75*
G03*
X2958510Y-6007080I-20000J0D01*
G01*
X3043010Y-6139580D02*
G75*
G03*
X3043010Y-6139580I-20000J0D01*
G01*
X3043510Y-6007080D02*
G75*
G03*
X3043510Y-6007080I-20000J0D01*
G01*
X3128010Y-6139580D02*
G75*
G03*
X3128010Y-6139580I-20000J0D01*
G01*
X3128510Y-6007080D02*
G75*
G03*
X3128510Y-6007080I-20000J0D01*
G01*
D13*
X2378010Y-5673580D02*
X2378010Y-5733580D01*
X2348010Y-5703580D02*
X2408010Y-5703580D01*
D11*
X2358010Y-5663580D02*
X2358010Y-5743580D01*
X2398010Y-5663580D02*
X2398010Y-5743580D01*
X2358010Y-5743580D02*
G75*
G03*
X2398010Y-5743580I20000J0D01*
G01*
X2398010Y-5663580D02*
G75*
G03*
X2358010Y-5663580I-20000J0D01*
G01*
D13*
X2378010Y-6011580D02*
X2378010Y-6071580D01*
X2348010Y-6041580D02*
X2408010Y-6041580D01*
D11*
X2358010Y-5966580D02*
X2358010Y-6116580D01*
X2398010Y-5966580D02*
X2398010Y-6116580D01*
X2358010Y-6116580D02*
G75*
G03*
X2398010Y-6116580I20000J0D01*
G01*
X2398010Y-5966580D02*
G75*
G03*
X2358010Y-5966580I-20000J0D01*
G01*
D13*
X3243010Y-5673580D02*
X3243010Y-5733580D01*
X3213010Y-5703580D02*
X3273010Y-5703580D01*
D11*
X3223010Y-5663580D02*
X3223010Y-5743580D01*
X3263010Y-5663580D02*
X3263010Y-5743580D01*
X3223010Y-5743580D02*
G75*
G03*
X3263010Y-5743580I20000J0D01*
G01*
X3263010Y-5663580D02*
G75*
G03*
X3223010Y-5663580I-20000J0D01*
G01*
D13*
X3243010Y-6011580D02*
X3243010Y-6071580D01*
X3213010Y-6041580D02*
X3273010Y-6041580D01*
D11*
X3223010Y-5966580D02*
X3223010Y-6116580D01*
X3263010Y-5966580D02*
X3263010Y-6116580D01*
X3223010Y-6116580D02*
G75*
G03*
X3263010Y-6116580I20000J0D01*
G01*
X3263010Y-5966580D02*
G75*
G03*
X3223010Y-5966580I-20000J0D01*
G01*
D13*
X14554231Y-12769229D02*
X14554231Y-12829229D01*
X14524231Y-12799229D02*
X14584231Y-12799229D01*
X14704231Y-12769229D02*
X14704231Y-12829229D01*
X14674231Y-12799229D02*
X14734231Y-12799229D01*
D14*
X2498709Y-9193372D02*
X2498709Y-9143874D01*
X2449211Y-9143874D01*
X2449211Y-9193372D01*
X2498709Y-9193372D01*
X2498709Y-9431497D02*
X2498709Y-9381999D01*
X2449211Y-9381999D01*
X2449211Y-9431497D01*
X2498709Y-9431497D01*
X3260709Y-9193372D02*
X3260709Y-9143874D01*
X3211211Y-9143874D01*
X3211211Y-9193372D01*
X3260709Y-9193372D01*
X3260709Y-9431497D02*
X3260709Y-9381999D01*
X3211211Y-9381999D01*
X3211211Y-9431497D01*
X3260709Y-9431497D01*
X15502887Y-10680852D02*
X15502887Y-10631354D01*
X15453389Y-10631354D01*
X15453389Y-10680852D01*
X15502887Y-10680852D01*
X15502887Y-10919102D02*
X15502887Y-10869604D01*
X15453389Y-10869604D01*
X15453389Y-10919102D01*
X15502887Y-10919102D01*
X15502887Y-11157102D02*
X15502887Y-11107604D01*
X15453389Y-11107604D01*
X15453389Y-11157102D01*
X15502887Y-11157102D01*
X15502887Y-11395227D02*
X15502887Y-11345729D01*
X15453389Y-11345729D01*
X15453389Y-11395227D01*
X15502887Y-11395227D01*
X16264887Y-10680852D02*
X16264887Y-10631354D01*
X16215389Y-10631354D01*
X16215389Y-10680852D01*
X16264887Y-10680852D01*
X16264887Y-10919102D02*
X16264887Y-10869604D01*
X16215389Y-10869604D01*
X16215389Y-10919102D01*
X16264887Y-10919102D01*
X16264887Y-11157102D02*
X16264887Y-11107604D01*
X16215389Y-11107604D01*
X16215389Y-11157102D01*
X16264887Y-11157102D01*
X16264887Y-11395227D02*
X16264887Y-11345729D01*
X16215389Y-11345729D01*
X16215389Y-11395227D01*
X16264887Y-11395227D01*
D15*
X14049387Y-11390103D02*
X14084887Y-11354603D01*
X14049387Y-11319103D01*
X14013887Y-11354603D01*
X14049387Y-11390103D01*
X14049387Y-11898103D02*
X14084887Y-11862603D01*
X14049387Y-11827103D01*
X14013887Y-11862603D01*
X14049387Y-11898103D01*
D16*
X6630670Y-6918857D02*
X6704330Y-6992517D01*
X6704330Y-6918857D02*
X6630670Y-6992517D01*
X6704330Y-6955687D02*
G75*
G03*
X6704330Y-6955687I-36830J0D01*
G01*
X6630670Y-7068857D02*
X6704330Y-7142517D01*
X6704330Y-7068857D02*
X6630670Y-7142517D01*
X6704330Y-7105687D02*
G75*
G03*
X6704330Y-7105687I-36830J0D01*
G01*
X6630670Y-7218858D02*
X6704330Y-7292518D01*
X6704330Y-7218858D02*
X6630670Y-7292518D01*
X6704330Y-7255688D02*
G75*
G03*
X6704330Y-7255688I-36830J0D01*
G01*
X6630670Y-7368857D02*
X6704330Y-7442517D01*
X6704330Y-7368857D02*
X6630670Y-7442517D01*
X6704330Y-7405687D02*
G75*
G03*
X6704330Y-7405687I-36830J0D01*
G01*
D17*
X12592542Y-6746568D02*
X12672542Y-6826568D01*
X12672542Y-6746568D02*
X12592542Y-6826568D01*
X12632542Y-6746568D02*
X12632542Y-6826568D01*
X12592542Y-6786568D02*
X12672542Y-6786568D01*
X12592542Y-7341881D02*
X12672542Y-7421881D01*
X12672542Y-7341881D02*
X12592542Y-7421881D01*
X12632542Y-7341881D02*
X12632542Y-7421881D01*
X12592542Y-7381881D02*
X12672542Y-7381881D01*
X12592542Y-7937194D02*
X12672542Y-8017194D01*
X12672542Y-7937194D02*
X12592542Y-8017194D01*
X12632542Y-7937194D02*
X12632542Y-8017194D01*
X12592542Y-7977194D02*
X12672542Y-7977194D01*
X12592542Y-8532507D02*
X12672542Y-8612507D01*
X12672542Y-8532507D02*
X12592542Y-8612507D01*
X12632542Y-8532507D02*
X12632542Y-8612507D01*
X12592542Y-8572507D02*
X12672542Y-8572507D01*
X12592542Y-9127820D02*
X12672542Y-9207820D01*
X12672542Y-9127820D02*
X12592542Y-9207820D01*
X12632542Y-9127820D02*
X12632542Y-9207820D01*
X12592542Y-9167820D02*
X12672542Y-9167820D01*
X12592542Y-9723133D02*
X12672542Y-9803133D01*
X12672542Y-9723133D02*
X12592542Y-9803133D01*
X12632542Y-9723133D02*
X12632542Y-9803133D01*
X12592542Y-9763133D02*
X12672542Y-9763133D01*
X12592542Y-10020790D02*
X12672542Y-10100790D01*
X12672542Y-10020790D02*
X12592542Y-10100790D01*
X12632542Y-10020790D02*
X12632542Y-10100790D01*
X12592542Y-10060790D02*
X12672542Y-10060790D01*
X12592542Y-10318446D02*
X12672542Y-10398446D01*
X12672542Y-10318446D02*
X12592542Y-10398446D01*
X12632542Y-10318446D02*
X12632542Y-10398446D01*
X12592542Y-10358446D02*
X12672542Y-10358446D01*
X12592542Y-10913759D02*
X12672542Y-10993759D01*
X12672542Y-10913759D02*
X12592542Y-10993759D01*
X12632542Y-10913759D02*
X12632542Y-10993759D01*
X12592542Y-10953759D02*
X12672542Y-10953759D01*
X12592542Y-11509072D02*
X12672542Y-11589072D01*
X12672542Y-11509072D02*
X12592542Y-11589072D01*
X12632542Y-11509072D02*
X12632542Y-11589072D01*
X12592542Y-11549072D02*
X12672542Y-11549072D01*
X12592542Y-12104385D02*
X12672542Y-12184385D01*
X12672542Y-12104385D02*
X12592542Y-12184385D01*
X12632542Y-12104385D02*
X12632542Y-12184385D01*
X12592542Y-12144385D02*
X12672542Y-12144385D01*
X12592542Y-12699698D02*
X12672542Y-12779698D01*
X12672542Y-12699698D02*
X12592542Y-12779698D01*
X12632542Y-12699698D02*
X12632542Y-12779698D01*
X12592542Y-12739698D02*
X12672542Y-12739698D01*
X12592542Y-13295011D02*
X12672542Y-13375011D01*
X12672542Y-13295011D02*
X12592542Y-13375011D01*
X12632542Y-13295011D02*
X12632542Y-13375011D01*
X12592542Y-13335011D02*
X12672542Y-13335011D01*
X12830668Y-6448912D02*
X12910668Y-6528912D01*
X12910668Y-6448912D02*
X12830668Y-6528912D01*
X12870668Y-6448912D02*
X12870668Y-6528912D01*
X12830668Y-6488912D02*
X12910668Y-6488912D01*
X12830668Y-7044225D02*
X12910668Y-7124225D01*
X12910668Y-7044225D02*
X12830668Y-7124225D01*
X12870668Y-7044225D02*
X12870668Y-7124225D01*
X12830668Y-7084225D02*
X12910668Y-7084225D01*
X12830668Y-7639538D02*
X12910668Y-7719538D01*
X12910668Y-7639538D02*
X12830668Y-7719538D01*
X12870668Y-7639538D02*
X12870668Y-7719538D01*
X12830668Y-7679538D02*
X12910668Y-7679538D01*
X12830668Y-8234851D02*
X12910668Y-8314851D01*
X12910668Y-8234851D02*
X12830668Y-8314851D01*
X12870668Y-8234851D02*
X12870668Y-8314851D01*
X12830668Y-8274851D02*
X12910668Y-8274851D01*
X12830668Y-8830164D02*
X12910668Y-8910164D01*
X12910668Y-8830164D02*
X12830668Y-8910164D01*
X12870668Y-8830164D02*
X12870668Y-8910164D01*
X12830668Y-8870164D02*
X12910668Y-8870164D01*
X12830668Y-9425477D02*
X12910668Y-9505477D01*
X12910668Y-9425477D02*
X12830668Y-9505477D01*
X12870668Y-9425477D02*
X12870668Y-9505477D01*
X12830668Y-9465477D02*
X12910668Y-9465477D01*
X12830668Y-10616103D02*
X12910668Y-10696103D01*
X12910668Y-10616103D02*
X12830668Y-10696103D01*
X12870668Y-10616103D02*
X12870668Y-10696103D01*
X12830668Y-10656103D02*
X12910668Y-10656103D01*
X12830668Y-11211416D02*
X12910668Y-11291416D01*
X12910668Y-11211416D02*
X12830668Y-11291416D01*
X12870668Y-11211416D02*
X12870668Y-11291416D01*
X12830668Y-11251416D02*
X12910668Y-11251416D01*
X12830668Y-11806729D02*
X12910668Y-11886729D01*
X12910668Y-11806729D02*
X12830668Y-11886729D01*
X12870668Y-11806729D02*
X12870668Y-11886729D01*
X12830668Y-11846729D02*
X12910668Y-11846729D01*
X12830668Y-12402042D02*
X12910668Y-12482042D01*
X12910668Y-12402042D02*
X12830668Y-12482042D01*
X12870668Y-12402042D02*
X12870668Y-12482042D01*
X12830668Y-12442042D02*
X12910668Y-12442042D01*
X12830668Y-12997355D02*
X12910668Y-13077355D01*
X12910668Y-12997355D02*
X12830668Y-13077355D01*
X12870668Y-12997355D02*
X12870668Y-13077355D01*
X12830668Y-13037355D02*
X12910668Y-13037355D01*
X13354542Y-6746568D02*
X13434542Y-6826568D01*
X13434542Y-6746568D02*
X13354542Y-6826568D01*
X13394542Y-6746568D02*
X13394542Y-6826568D01*
X13354542Y-6786568D02*
X13434542Y-6786568D01*
X13354542Y-7341881D02*
X13434542Y-7421881D01*
X13434542Y-7341881D02*
X13354542Y-7421881D01*
X13394542Y-7341881D02*
X13394542Y-7421881D01*
X13354542Y-7381881D02*
X13434542Y-7381881D01*
X13354542Y-7937194D02*
X13434542Y-8017194D01*
X13434542Y-7937194D02*
X13354542Y-8017194D01*
X13394542Y-7937194D02*
X13394542Y-8017194D01*
X13354542Y-7977194D02*
X13434542Y-7977194D01*
X13354542Y-8532507D02*
X13434542Y-8612507D01*
X13434542Y-8532507D02*
X13354542Y-8612507D01*
X13394542Y-8532507D02*
X13394542Y-8612507D01*
X13354542Y-8572507D02*
X13434542Y-8572507D01*
X13354542Y-9127820D02*
X13434542Y-9207820D01*
X13434542Y-9127820D02*
X13354542Y-9207820D01*
X13394542Y-9127820D02*
X13394542Y-9207820D01*
X13354542Y-9167820D02*
X13434542Y-9167820D01*
X13354542Y-9723133D02*
X13434542Y-9803133D01*
X13434542Y-9723133D02*
X13354542Y-9803133D01*
X13394542Y-9723133D02*
X13394542Y-9803133D01*
X13354542Y-9763133D02*
X13434542Y-9763133D01*
X13354542Y-10020790D02*
X13434542Y-10100790D01*
X13434542Y-10020790D02*
X13354542Y-10100790D01*
X13394542Y-10020790D02*
X13394542Y-10100790D01*
X13354542Y-10060790D02*
X13434542Y-10060790D01*
X13354542Y-10318446D02*
X13434542Y-10398446D01*
X13434542Y-10318446D02*
X13354542Y-10398446D01*
X13394542Y-10318446D02*
X13394542Y-10398446D01*
X13354542Y-10358446D02*
X13434542Y-10358446D01*
X13354542Y-10913759D02*
X13434542Y-10993759D01*
X13434542Y-10913759D02*
X13354542Y-10993759D01*
X13394542Y-10913759D02*
X13394542Y-10993759D01*
X13354542Y-10953759D02*
X13434542Y-10953759D01*
X13354542Y-11509072D02*
X13434542Y-11589072D01*
X13434542Y-11509072D02*
X13354542Y-11589072D01*
X13394542Y-11509072D02*
X13394542Y-11589072D01*
X13354542Y-11549072D02*
X13434542Y-11549072D01*
X13354542Y-12104385D02*
X13434542Y-12184385D01*
X13434542Y-12104385D02*
X13354542Y-12184385D01*
X13394542Y-12104385D02*
X13394542Y-12184385D01*
X13354542Y-12144385D02*
X13434542Y-12144385D01*
X13354542Y-12699698D02*
X13434542Y-12779698D01*
X13434542Y-12699698D02*
X13354542Y-12779698D01*
X13394542Y-12699698D02*
X13394542Y-12779698D01*
X13354542Y-12739698D02*
X13434542Y-12739698D01*
X13354542Y-13295011D02*
X13434542Y-13375011D01*
X13434542Y-13295011D02*
X13354542Y-13375011D01*
X13394542Y-13295011D02*
X13394542Y-13375011D01*
X13354542Y-13335011D02*
X13434542Y-13335011D01*
X13533136Y-13652199D02*
X13613136Y-13732199D01*
X13613136Y-13652199D02*
X13533136Y-13732199D01*
X13573136Y-13652199D02*
X13573136Y-13732199D01*
X13533136Y-13692199D02*
X13613136Y-13692199D01*
X13533136Y-14414199D02*
X13613136Y-14494199D01*
X13613136Y-14414199D02*
X13533136Y-14494199D01*
X13573136Y-14414199D02*
X13573136Y-14494199D01*
X13533136Y-14454199D02*
X13613136Y-14454199D01*
X13592668Y-6448912D02*
X13672668Y-6528912D01*
X13672668Y-6448912D02*
X13592668Y-6528912D01*
X13632668Y-6448912D02*
X13632668Y-6528912D01*
X13592668Y-6488912D02*
X13672668Y-6488912D01*
X13592668Y-7044225D02*
X13672668Y-7124225D01*
X13672668Y-7044225D02*
X13592668Y-7124225D01*
X13632668Y-7044225D02*
X13632668Y-7124225D01*
X13592668Y-7084225D02*
X13672668Y-7084225D01*
X13592668Y-7639538D02*
X13672668Y-7719538D01*
X13672668Y-7639538D02*
X13592668Y-7719538D01*
X13632668Y-7639538D02*
X13632668Y-7719538D01*
X13592668Y-7679538D02*
X13672668Y-7679538D01*
X13592668Y-8234851D02*
X13672668Y-8314851D01*
X13672668Y-8234851D02*
X13592668Y-8314851D01*
X13632668Y-8234851D02*
X13632668Y-8314851D01*
X13592668Y-8274851D02*
X13672668Y-8274851D01*
X13592668Y-8830164D02*
X13672668Y-8910164D01*
X13672668Y-8830164D02*
X13592668Y-8910164D01*
X13632668Y-8830164D02*
X13632668Y-8910164D01*
X13592668Y-8870164D02*
X13672668Y-8870164D01*
X13592668Y-9425477D02*
X13672668Y-9505477D01*
X13672668Y-9425477D02*
X13592668Y-9505477D01*
X13632668Y-9425477D02*
X13632668Y-9505477D01*
X13592668Y-9465477D02*
X13672668Y-9465477D01*
X13592668Y-10616103D02*
X13672668Y-10696103D01*
X13672668Y-10616103D02*
X13592668Y-10696103D01*
X13632668Y-10616103D02*
X13632668Y-10696103D01*
X13592668Y-10656103D02*
X13672668Y-10656103D01*
X13592668Y-11211416D02*
X13672668Y-11291416D01*
X13672668Y-11211416D02*
X13592668Y-11291416D01*
X13632668Y-11211416D02*
X13632668Y-11291416D01*
X13592668Y-11251416D02*
X13672668Y-11251416D01*
X13592668Y-11806729D02*
X13672668Y-11886729D01*
X13672668Y-11806729D02*
X13592668Y-11886729D01*
X13632668Y-11806729D02*
X13632668Y-11886729D01*
X13592668Y-11846729D02*
X13672668Y-11846729D01*
X13592668Y-12402042D02*
X13672668Y-12482042D01*
X13672668Y-12402042D02*
X13592668Y-12482042D01*
X13632668Y-12402042D02*
X13632668Y-12482042D01*
X13592668Y-12442042D02*
X13672668Y-12442042D01*
X13592668Y-12997355D02*
X13672668Y-13077355D01*
X13672668Y-12997355D02*
X13592668Y-13077355D01*
X13632668Y-12997355D02*
X13632668Y-13077355D01*
X13592668Y-13037355D02*
X13672668Y-13037355D01*
X13830793Y-13414074D02*
X13910793Y-13494074D01*
X13910793Y-13414074D02*
X13830793Y-13494074D01*
X13870793Y-13414074D02*
X13870793Y-13494074D01*
X13830793Y-13454074D02*
X13910793Y-13454074D01*
X13830793Y-14176074D02*
X13910793Y-14256074D01*
X13910793Y-14176074D02*
X13830793Y-14256074D01*
X13870793Y-14176074D02*
X13870793Y-14256074D01*
X13830793Y-14216074D02*
X13910793Y-14216074D01*
X14128449Y-13652199D02*
X14208449Y-13732199D01*
X14208449Y-13652199D02*
X14128449Y-13732199D01*
X14168449Y-13652199D02*
X14168449Y-13732199D01*
X14128449Y-13692199D02*
X14208449Y-13692199D01*
X14128449Y-14414199D02*
X14208449Y-14494199D01*
X14208449Y-14414199D02*
X14128449Y-14494199D01*
X14168449Y-14414199D02*
X14168449Y-14494199D01*
X14128449Y-14454199D02*
X14208449Y-14454199D01*
X14188775Y-8830164D02*
X14268775Y-8910164D01*
X14268775Y-8830164D02*
X14188775Y-8910164D01*
X14228775Y-8830164D02*
X14228775Y-8910164D01*
X14188775Y-8870164D02*
X14268775Y-8870164D01*
X14188775Y-9080164D02*
X14268775Y-9160164D01*
X14268775Y-9080164D02*
X14188775Y-9160164D01*
X14228775Y-9080164D02*
X14228775Y-9160164D01*
X14188775Y-9120164D02*
X14268775Y-9120164D01*
X14188775Y-9365945D02*
X14268775Y-9445945D01*
X14268775Y-9365945D02*
X14188775Y-9445945D01*
X14228775Y-9365945D02*
X14228775Y-9445945D01*
X14188775Y-9405945D02*
X14268775Y-9405945D01*
X14188775Y-9615945D02*
X14268775Y-9695945D01*
X14268775Y-9615945D02*
X14188775Y-9695945D01*
X14228775Y-9615945D02*
X14228775Y-9695945D01*
X14188775Y-9655945D02*
X14268775Y-9655945D01*
X14426106Y-13414074D02*
X14506106Y-13494074D01*
X14506106Y-13414074D02*
X14426106Y-13494074D01*
X14466106Y-13414074D02*
X14466106Y-13494074D01*
X14426106Y-13454074D02*
X14506106Y-13454074D01*
X14426106Y-14176074D02*
X14506106Y-14256074D01*
X14506106Y-14176074D02*
X14426106Y-14256074D01*
X14466106Y-14176074D02*
X14466106Y-14256074D01*
X14426106Y-14216074D02*
X14506106Y-14216074D01*
X14665025Y-8949226D02*
X14745025Y-9029226D01*
X14745025Y-8949226D02*
X14665025Y-9029226D01*
X14705025Y-8949226D02*
X14705025Y-9029226D01*
X14665025Y-8989226D02*
X14745025Y-8989226D01*
X14665025Y-9437226D02*
X14745025Y-9517226D01*
X14745025Y-9437226D02*
X14665025Y-9517226D01*
X14705025Y-9437226D02*
X14705025Y-9517226D01*
X14665025Y-9477226D02*
X14745025Y-9477226D01*
X14723762Y-13652199D02*
X14803762Y-13732199D01*
X14803762Y-13652199D02*
X14723762Y-13732199D01*
X14763762Y-13652199D02*
X14763762Y-13732199D01*
X14723762Y-13692199D02*
X14803762Y-13692199D01*
X14723762Y-14414199D02*
X14803762Y-14494199D01*
X14803762Y-14414199D02*
X14723762Y-14494199D01*
X14763762Y-14414199D02*
X14763762Y-14494199D01*
X14723762Y-14454199D02*
X14803762Y-14454199D01*
X15021419Y-13414074D02*
X15101419Y-13494074D01*
X15101419Y-13414074D02*
X15021419Y-13494074D01*
X15061419Y-13414074D02*
X15061419Y-13494074D01*
X15021419Y-13454074D02*
X15101419Y-13454074D01*
X15021419Y-14176074D02*
X15101419Y-14256074D01*
X15101419Y-14176074D02*
X15021419Y-14256074D01*
X15061419Y-14176074D02*
X15061419Y-14256074D01*
X15021419Y-14216074D02*
X15101419Y-14216074D01*
X15378607Y-13414074D02*
X15458607Y-13494074D01*
X15458607Y-13414074D02*
X15378607Y-13494074D01*
X15418607Y-13414074D02*
X15418607Y-13494074D01*
X15378607Y-13454074D02*
X15458607Y-13454074D01*
X15378607Y-14176074D02*
X15458607Y-14256074D01*
X15458607Y-14176074D02*
X15378607Y-14256074D01*
X15418607Y-14176074D02*
X15418607Y-14256074D01*
X15378607Y-14216074D02*
X15458607Y-14216074D01*
X15438138Y-6865631D02*
X15518138Y-6945631D01*
X15518138Y-6865631D02*
X15438138Y-6945631D01*
X15478138Y-6865631D02*
X15478138Y-6945631D01*
X15438138Y-6905631D02*
X15518138Y-6905631D01*
X15438138Y-7119631D02*
X15518138Y-7199631D01*
X15518138Y-7119631D02*
X15438138Y-7199631D01*
X15478138Y-7119631D02*
X15478138Y-7199631D01*
X15438138Y-7159631D02*
X15518138Y-7159631D01*
X15438138Y-7373631D02*
X15518138Y-7453631D01*
X15518138Y-7373631D02*
X15438138Y-7453631D01*
X15478138Y-7373631D02*
X15478138Y-7453631D01*
X15438138Y-7413631D02*
X15518138Y-7413631D01*
X15438138Y-7627631D02*
X15518138Y-7707631D01*
X15518138Y-7627631D02*
X15438138Y-7707631D01*
X15478138Y-7627631D02*
X15478138Y-7707631D01*
X15438138Y-7667631D02*
X15518138Y-7667631D01*
X15438138Y-7881631D02*
X15518138Y-7961631D01*
X15518138Y-7881631D02*
X15438138Y-7961631D01*
X15478138Y-7881631D02*
X15478138Y-7961631D01*
X15438138Y-7921631D02*
X15518138Y-7921631D01*
X15438138Y-8135631D02*
X15518138Y-8215631D01*
X15518138Y-8135631D02*
X15438138Y-8215631D01*
X15478138Y-8135631D02*
X15478138Y-8215631D01*
X15438138Y-8175631D02*
X15518138Y-8175631D01*
X15438138Y-8389631D02*
X15518138Y-8469631D01*
X15518138Y-8389631D02*
X15438138Y-8469631D01*
X15478138Y-8389631D02*
X15478138Y-8469631D01*
X15438138Y-8429631D02*
X15518138Y-8429631D01*
X15438138Y-8643631D02*
X15518138Y-8723631D01*
X15518138Y-8643631D02*
X15438138Y-8723631D01*
X15478138Y-8643631D02*
X15478138Y-8723631D01*
X15438138Y-8683631D02*
X15518138Y-8683631D01*
X15438138Y-8897631D02*
X15518138Y-8977631D01*
X15518138Y-8897631D02*
X15438138Y-8977631D01*
X15478138Y-8897631D02*
X15478138Y-8977631D01*
X15438138Y-8937631D02*
X15518138Y-8937631D01*
X15438138Y-9151631D02*
X15518138Y-9231631D01*
X15518138Y-9151631D02*
X15438138Y-9231631D01*
X15478138Y-9151631D02*
X15478138Y-9231631D01*
X15438138Y-9191631D02*
X15518138Y-9191631D01*
X15438138Y-9405631D02*
X15518138Y-9485631D01*
X15518138Y-9405631D02*
X15438138Y-9485631D01*
X15478138Y-9405631D02*
X15478138Y-9485631D01*
X15438138Y-9445631D02*
X15518138Y-9445631D01*
X15438138Y-9659631D02*
X15518138Y-9739631D01*
X15518138Y-9659631D02*
X15438138Y-9739631D01*
X15478138Y-9659631D02*
X15478138Y-9739631D01*
X15438138Y-9699631D02*
X15518138Y-9699631D01*
X15438138Y-9913631D02*
X15518138Y-9993631D01*
X15518138Y-9913631D02*
X15438138Y-9993631D01*
X15478138Y-9913631D02*
X15478138Y-9993631D01*
X15438138Y-9953631D02*
X15518138Y-9953631D01*
X15438138Y-10167631D02*
X15518138Y-10247631D01*
X15518138Y-10167631D02*
X15438138Y-10247631D01*
X15478138Y-10167631D02*
X15478138Y-10247631D01*
X15438138Y-10207631D02*
X15518138Y-10207631D01*
X15450045Y-11804385D02*
X15530045Y-11884385D01*
X15530045Y-11804385D02*
X15450045Y-11884385D01*
X15490045Y-11804385D02*
X15490045Y-11884385D01*
X15450045Y-11844385D02*
X15530045Y-11844385D01*
X15450045Y-12104385D02*
X15530045Y-12184385D01*
X15530045Y-12104385D02*
X15450045Y-12184385D01*
X15490045Y-12104385D02*
X15490045Y-12184385D01*
X15450045Y-12144385D02*
X15530045Y-12144385D01*
X15533451Y-12640167D02*
X15613451Y-12720167D01*
X15613451Y-12640167D02*
X15533451Y-12720167D01*
X15573451Y-12640167D02*
X15573451Y-12720167D01*
X15533451Y-12680167D02*
X15613451Y-12680167D01*
X15533451Y-12937823D02*
X15613451Y-13017823D01*
X15613451Y-12937823D02*
X15533451Y-13017823D01*
X15573451Y-12937823D02*
X15573451Y-13017823D01*
X15533451Y-12977823D02*
X15613451Y-12977823D01*
X15676263Y-13652199D02*
X15756263Y-13732199D01*
X15756263Y-13652199D02*
X15676263Y-13732199D01*
X15716263Y-13652199D02*
X15716263Y-13732199D01*
X15676263Y-13692199D02*
X15756263Y-13692199D01*
X15676263Y-14414199D02*
X15756263Y-14494199D01*
X15756263Y-14414199D02*
X15676263Y-14494199D01*
X15716263Y-14414199D02*
X15716263Y-14494199D01*
X15676263Y-14454199D02*
X15756263Y-14454199D01*
X15973920Y-13414074D02*
X16053920Y-13494074D01*
X16053920Y-13414074D02*
X15973920Y-13494074D01*
X16013920Y-13414074D02*
X16013920Y-13494074D01*
X15973920Y-13454074D02*
X16053920Y-13454074D01*
X15973920Y-14176074D02*
X16053920Y-14256074D01*
X16053920Y-14176074D02*
X15973920Y-14256074D01*
X16013920Y-14176074D02*
X16013920Y-14256074D01*
X15973920Y-14216074D02*
X16053920Y-14216074D01*
X16033451Y-12640167D02*
X16113451Y-12720167D01*
X16113451Y-12640167D02*
X16033451Y-12720167D01*
X16073451Y-12640167D02*
X16073451Y-12720167D01*
X16033451Y-12680167D02*
X16113451Y-12680167D01*
X16033451Y-12937823D02*
X16113451Y-13017823D01*
X16113451Y-12937823D02*
X16033451Y-13017823D01*
X16073451Y-12937823D02*
X16073451Y-13017823D01*
X16033451Y-12977823D02*
X16113451Y-12977823D01*
X16200138Y-6865631D02*
X16280138Y-6945631D01*
X16280138Y-6865631D02*
X16200138Y-6945631D01*
X16240138Y-6865631D02*
X16240138Y-6945631D01*
X16200138Y-6905631D02*
X16280138Y-6905631D01*
X16200138Y-7119631D02*
X16280138Y-7199631D01*
X16280138Y-7119631D02*
X16200138Y-7199631D01*
X16240138Y-7119631D02*
X16240138Y-7199631D01*
X16200138Y-7159631D02*
X16280138Y-7159631D01*
X16200138Y-7373631D02*
X16280138Y-7453631D01*
X16280138Y-7373631D02*
X16200138Y-7453631D01*
X16240138Y-7373631D02*
X16240138Y-7453631D01*
X16200138Y-7413631D02*
X16280138Y-7413631D01*
X16200138Y-7627631D02*
X16280138Y-7707631D01*
X16280138Y-7627631D02*
X16200138Y-7707631D01*
X16240138Y-7627631D02*
X16240138Y-7707631D01*
X16200138Y-7667631D02*
X16280138Y-7667631D01*
X16200138Y-7881631D02*
X16280138Y-7961631D01*
X16280138Y-7881631D02*
X16200138Y-7961631D01*
X16240138Y-7881631D02*
X16240138Y-7961631D01*
X16200138Y-7921631D02*
X16280138Y-7921631D01*
X16200138Y-8135631D02*
X16280138Y-8215631D01*
X16280138Y-8135631D02*
X16200138Y-8215631D01*
X16240138Y-8135631D02*
X16240138Y-8215631D01*
X16200138Y-8175631D02*
X16280138Y-8175631D01*
X16200138Y-8389631D02*
X16280138Y-8469631D01*
X16280138Y-8389631D02*
X16200138Y-8469631D01*
X16240138Y-8389631D02*
X16240138Y-8469631D01*
X16200138Y-8429631D02*
X16280138Y-8429631D01*
X16200138Y-8643631D02*
X16280138Y-8723631D01*
X16280138Y-8643631D02*
X16200138Y-8723631D01*
X16240138Y-8643631D02*
X16240138Y-8723631D01*
X16200138Y-8683631D02*
X16280138Y-8683631D01*
X16200138Y-8897631D02*
X16280138Y-8977631D01*
X16280138Y-8897631D02*
X16200138Y-8977631D01*
X16240138Y-8897631D02*
X16240138Y-8977631D01*
X16200138Y-8937631D02*
X16280138Y-8937631D01*
X16200138Y-9151631D02*
X16280138Y-9231631D01*
X16280138Y-9151631D02*
X16200138Y-9231631D01*
X16240138Y-9151631D02*
X16240138Y-9231631D01*
X16200138Y-9191631D02*
X16280138Y-9191631D01*
X16200138Y-9405631D02*
X16280138Y-9485631D01*
X16280138Y-9405631D02*
X16200138Y-9485631D01*
X16240138Y-9405631D02*
X16240138Y-9485631D01*
X16200138Y-9445631D02*
X16280138Y-9445631D01*
X16200138Y-9659631D02*
X16280138Y-9739631D01*
X16280138Y-9659631D02*
X16200138Y-9739631D01*
X16240138Y-9659631D02*
X16240138Y-9739631D01*
X16200138Y-9699631D02*
X16280138Y-9699631D01*
X16200138Y-9913631D02*
X16280138Y-9993631D01*
X16280138Y-9913631D02*
X16200138Y-9993631D01*
X16240138Y-9913631D02*
X16240138Y-9993631D01*
X16200138Y-9953631D02*
X16280138Y-9953631D01*
X16200138Y-10167631D02*
X16280138Y-10247631D01*
X16280138Y-10167631D02*
X16200138Y-10247631D01*
X16240138Y-10167631D02*
X16240138Y-10247631D01*
X16200138Y-10207631D02*
X16280138Y-10207631D01*
X16212045Y-11804385D02*
X16292045Y-11884385D01*
X16292045Y-11804385D02*
X16212045Y-11884385D01*
X16252045Y-11804385D02*
X16252045Y-11884385D01*
X16212045Y-11844385D02*
X16292045Y-11844385D01*
X16212045Y-12104385D02*
X16292045Y-12184385D01*
X16292045Y-12104385D02*
X16212045Y-12184385D01*
X16252045Y-12104385D02*
X16252045Y-12184385D01*
X16212045Y-12144385D02*
X16292045Y-12144385D01*
X16271576Y-13652199D02*
X16351576Y-13732199D01*
X16351576Y-13652199D02*
X16271576Y-13732199D01*
X16311576Y-13652199D02*
X16311576Y-13732199D01*
X16271576Y-13692199D02*
X16351576Y-13692199D01*
X16271576Y-14414199D02*
X16351576Y-14494199D01*
X16351576Y-14414199D02*
X16271576Y-14494199D01*
X16311576Y-14414199D02*
X16311576Y-14494199D01*
X16271576Y-14454199D02*
X16351576Y-14454199D01*
X16569233Y-13414074D02*
X16649233Y-13494074D01*
X16649233Y-13414074D02*
X16569233Y-13494074D01*
X16609233Y-13414074D02*
X16609233Y-13494074D01*
X16569233Y-13454074D02*
X16649233Y-13454074D01*
X16569233Y-14176074D02*
X16649233Y-14256074D01*
X16649233Y-14176074D02*
X16569233Y-14256074D01*
X16609233Y-14176074D02*
X16609233Y-14256074D01*
X16569233Y-14216074D02*
X16649233Y-14216074D01*
X16807358Y-6448912D02*
X16887358Y-6528912D01*
X16887358Y-6448912D02*
X16807358Y-6528912D01*
X16847358Y-6448912D02*
X16847358Y-6528912D01*
X16807358Y-6488912D02*
X16887358Y-6488912D01*
X16807358Y-7044225D02*
X16887358Y-7124225D01*
X16887358Y-7044225D02*
X16807358Y-7124225D01*
X16847358Y-7044225D02*
X16847358Y-7124225D01*
X16807358Y-7084225D02*
X16887358Y-7084225D01*
X16807358Y-7639538D02*
X16887358Y-7719538D01*
X16887358Y-7639538D02*
X16807358Y-7719538D01*
X16847358Y-7639538D02*
X16847358Y-7719538D01*
X16807358Y-7679538D02*
X16887358Y-7679538D01*
X16807358Y-8234851D02*
X16887358Y-8314851D01*
X16887358Y-8234851D02*
X16807358Y-8314851D01*
X16847358Y-8234851D02*
X16847358Y-8314851D01*
X16807358Y-8274851D02*
X16887358Y-8274851D01*
X16807358Y-8830164D02*
X16887358Y-8910164D01*
X16887358Y-8830164D02*
X16807358Y-8910164D01*
X16847358Y-8830164D02*
X16847358Y-8910164D01*
X16807358Y-8870164D02*
X16887358Y-8870164D01*
X16807358Y-9425477D02*
X16887358Y-9505477D01*
X16887358Y-9425477D02*
X16807358Y-9505477D01*
X16847358Y-9425477D02*
X16847358Y-9505477D01*
X16807358Y-9465477D02*
X16887358Y-9465477D01*
X16807358Y-10020790D02*
X16887358Y-10100790D01*
X16887358Y-10020790D02*
X16807358Y-10100790D01*
X16847358Y-10020790D02*
X16847358Y-10100790D01*
X16807358Y-10060790D02*
X16887358Y-10060790D01*
X16807358Y-10616103D02*
X16887358Y-10696103D01*
X16887358Y-10616103D02*
X16807358Y-10696103D01*
X16847358Y-10616103D02*
X16847358Y-10696103D01*
X16807358Y-10656103D02*
X16887358Y-10656103D01*
X16807358Y-11211416D02*
X16887358Y-11291416D01*
X16887358Y-11211416D02*
X16807358Y-11291416D01*
X16847358Y-11211416D02*
X16847358Y-11291416D01*
X16807358Y-11251416D02*
X16887358Y-11251416D01*
X16807358Y-11806729D02*
X16887358Y-11886729D01*
X16887358Y-11806729D02*
X16807358Y-11886729D01*
X16847358Y-11806729D02*
X16847358Y-11886729D01*
X16807358Y-11846729D02*
X16887358Y-11846729D01*
X16807358Y-12402042D02*
X16887358Y-12482042D01*
X16887358Y-12402042D02*
X16807358Y-12482042D01*
X16847358Y-12402042D02*
X16847358Y-12482042D01*
X16807358Y-12442042D02*
X16887358Y-12442042D01*
X16807358Y-12997355D02*
X16887358Y-13077355D01*
X16887358Y-12997355D02*
X16807358Y-13077355D01*
X16847358Y-12997355D02*
X16847358Y-13077355D01*
X16807358Y-13037355D02*
X16887358Y-13037355D01*
X16866889Y-13652199D02*
X16946889Y-13732199D01*
X16946889Y-13652199D02*
X16866889Y-13732199D01*
X16906889Y-13652199D02*
X16906889Y-13732199D01*
X16866889Y-13692199D02*
X16946889Y-13692199D01*
X16866889Y-14414199D02*
X16946889Y-14494199D01*
X16946889Y-14414199D02*
X16866889Y-14494199D01*
X16906889Y-14414199D02*
X16906889Y-14494199D01*
X16866889Y-14454199D02*
X16946889Y-14454199D01*
X17045483Y-6746568D02*
X17125483Y-6826568D01*
X17125483Y-6746568D02*
X17045483Y-6826568D01*
X17085483Y-6746568D02*
X17085483Y-6826568D01*
X17045483Y-6786568D02*
X17125483Y-6786568D01*
X17045483Y-7341881D02*
X17125483Y-7421881D01*
X17125483Y-7341881D02*
X17045483Y-7421881D01*
X17085483Y-7341881D02*
X17085483Y-7421881D01*
X17045483Y-7381881D02*
X17125483Y-7381881D01*
X17045483Y-7937194D02*
X17125483Y-8017194D01*
X17125483Y-7937194D02*
X17045483Y-8017194D01*
X17085483Y-7937194D02*
X17085483Y-8017194D01*
X17045483Y-7977194D02*
X17125483Y-7977194D01*
X17045483Y-8532507D02*
X17125483Y-8612507D01*
X17125483Y-8532507D02*
X17045483Y-8612507D01*
X17085483Y-8532507D02*
X17085483Y-8612507D01*
X17045483Y-8572507D02*
X17125483Y-8572507D01*
X17045483Y-9127820D02*
X17125483Y-9207820D01*
X17125483Y-9127820D02*
X17045483Y-9207820D01*
X17085483Y-9127820D02*
X17085483Y-9207820D01*
X17045483Y-9167820D02*
X17125483Y-9167820D01*
X17045483Y-9723133D02*
X17125483Y-9803133D01*
X17125483Y-9723133D02*
X17045483Y-9803133D01*
X17085483Y-9723133D02*
X17085483Y-9803133D01*
X17045483Y-9763133D02*
X17125483Y-9763133D01*
X17045483Y-10318446D02*
X17125483Y-10398446D01*
X17125483Y-10318446D02*
X17045483Y-10398446D01*
X17085483Y-10318446D02*
X17085483Y-10398446D01*
X17045483Y-10358446D02*
X17125483Y-10358446D01*
X17045483Y-10913759D02*
X17125483Y-10993759D01*
X17125483Y-10913759D02*
X17045483Y-10993759D01*
X17085483Y-10913759D02*
X17085483Y-10993759D01*
X17045483Y-10953759D02*
X17125483Y-10953759D01*
X17045483Y-11509072D02*
X17125483Y-11589072D01*
X17125483Y-11509072D02*
X17045483Y-11589072D01*
X17085483Y-11509072D02*
X17085483Y-11589072D01*
X17045483Y-11549072D02*
X17125483Y-11549072D01*
X17045483Y-12104385D02*
X17125483Y-12184385D01*
X17125483Y-12104385D02*
X17045483Y-12184385D01*
X17085483Y-12104385D02*
X17085483Y-12184385D01*
X17045483Y-12144385D02*
X17125483Y-12144385D01*
X17045483Y-12699698D02*
X17125483Y-12779698D01*
X17125483Y-12699698D02*
X17045483Y-12779698D01*
X17085483Y-12699698D02*
X17085483Y-12779698D01*
X17045483Y-12739698D02*
X17125483Y-12739698D01*
X17045483Y-13295011D02*
X17125483Y-13375011D01*
X17125483Y-13295011D02*
X17045483Y-13375011D01*
X17085483Y-13295011D02*
X17085483Y-13375011D01*
X17045483Y-13335011D02*
X17125483Y-13335011D01*
X17569358Y-6448912D02*
X17649358Y-6528912D01*
X17649358Y-6448912D02*
X17569358Y-6528912D01*
X17609358Y-6448912D02*
X17609358Y-6528912D01*
X17569358Y-6488912D02*
X17649358Y-6488912D01*
X17569358Y-7044225D02*
X17649358Y-7124225D01*
X17649358Y-7044225D02*
X17569358Y-7124225D01*
X17609358Y-7044225D02*
X17609358Y-7124225D01*
X17569358Y-7084225D02*
X17649358Y-7084225D01*
X17569358Y-7639538D02*
X17649358Y-7719538D01*
X17649358Y-7639538D02*
X17569358Y-7719538D01*
X17609358Y-7639538D02*
X17609358Y-7719538D01*
X17569358Y-7679538D02*
X17649358Y-7679538D01*
X17569358Y-8234851D02*
X17649358Y-8314851D01*
X17649358Y-8234851D02*
X17569358Y-8314851D01*
X17609358Y-8234851D02*
X17609358Y-8314851D01*
X17569358Y-8274851D02*
X17649358Y-8274851D01*
X17569358Y-8830164D02*
X17649358Y-8910164D01*
X17649358Y-8830164D02*
X17569358Y-8910164D01*
X17609358Y-8830164D02*
X17609358Y-8910164D01*
X17569358Y-8870164D02*
X17649358Y-8870164D01*
X17569358Y-9425477D02*
X17649358Y-9505477D01*
X17649358Y-9425477D02*
X17569358Y-9505477D01*
X17609358Y-9425477D02*
X17609358Y-9505477D01*
X17569358Y-9465477D02*
X17649358Y-9465477D01*
X17569358Y-10020790D02*
X17649358Y-10100790D01*
X17649358Y-10020790D02*
X17569358Y-10100790D01*
X17609358Y-10020790D02*
X17609358Y-10100790D01*
X17569358Y-10060790D02*
X17649358Y-10060790D01*
X17569358Y-10616103D02*
X17649358Y-10696103D01*
X17649358Y-10616103D02*
X17569358Y-10696103D01*
X17609358Y-10616103D02*
X17609358Y-10696103D01*
X17569358Y-10656103D02*
X17649358Y-10656103D01*
X17569358Y-11211416D02*
X17649358Y-11291416D01*
X17649358Y-11211416D02*
X17569358Y-11291416D01*
X17609358Y-11211416D02*
X17609358Y-11291416D01*
X17569358Y-11251416D02*
X17649358Y-11251416D01*
X17569358Y-11806729D02*
X17649358Y-11886729D01*
X17649358Y-11806729D02*
X17569358Y-11886729D01*
X17609358Y-11806729D02*
X17609358Y-11886729D01*
X17569358Y-11846729D02*
X17649358Y-11846729D01*
X17569358Y-12402042D02*
X17649358Y-12482042D01*
X17649358Y-12402042D02*
X17569358Y-12482042D01*
X17609358Y-12402042D02*
X17609358Y-12482042D01*
X17569358Y-12442042D02*
X17649358Y-12442042D01*
X17569358Y-12997355D02*
X17649358Y-13077355D01*
X17649358Y-12997355D02*
X17569358Y-13077355D01*
X17609358Y-12997355D02*
X17609358Y-13077355D01*
X17569358Y-13037355D02*
X17649358Y-13037355D01*
X17807483Y-6746568D02*
X17887483Y-6826568D01*
X17887483Y-6746568D02*
X17807483Y-6826568D01*
X17847483Y-6746568D02*
X17847483Y-6826568D01*
X17807483Y-6786568D02*
X17887483Y-6786568D01*
X17807483Y-7341881D02*
X17887483Y-7421881D01*
X17887483Y-7341881D02*
X17807483Y-7421881D01*
X17847483Y-7341881D02*
X17847483Y-7421881D01*
X17807483Y-7381881D02*
X17887483Y-7381881D01*
X17807483Y-7937194D02*
X17887483Y-8017194D01*
X17887483Y-7937194D02*
X17807483Y-8017194D01*
X17847483Y-7937194D02*
X17847483Y-8017194D01*
X17807483Y-7977194D02*
X17887483Y-7977194D01*
X17807483Y-8532507D02*
X17887483Y-8612507D01*
X17887483Y-8532507D02*
X17807483Y-8612507D01*
X17847483Y-8532507D02*
X17847483Y-8612507D01*
X17807483Y-8572507D02*
X17887483Y-8572507D01*
X17807483Y-9127820D02*
X17887483Y-9207820D01*
X17887483Y-9127820D02*
X17807483Y-9207820D01*
X17847483Y-9127820D02*
X17847483Y-9207820D01*
X17807483Y-9167820D02*
X17887483Y-9167820D01*
X17807483Y-9723133D02*
X17887483Y-9803133D01*
X17887483Y-9723133D02*
X17807483Y-9803133D01*
X17847483Y-9723133D02*
X17847483Y-9803133D01*
X17807483Y-9763133D02*
X17887483Y-9763133D01*
X17807483Y-10318446D02*
X17887483Y-10398446D01*
X17887483Y-10318446D02*
X17807483Y-10398446D01*
X17847483Y-10318446D02*
X17847483Y-10398446D01*
X17807483Y-10358446D02*
X17887483Y-10358446D01*
X17807483Y-10913759D02*
X17887483Y-10993759D01*
X17887483Y-10913759D02*
X17807483Y-10993759D01*
X17847483Y-10913759D02*
X17847483Y-10993759D01*
X17807483Y-10953759D02*
X17887483Y-10953759D01*
X17807483Y-11509072D02*
X17887483Y-11589072D01*
X17887483Y-11509072D02*
X17807483Y-11589072D01*
X17847483Y-11509072D02*
X17847483Y-11589072D01*
X17807483Y-11549072D02*
X17887483Y-11549072D01*
X17807483Y-12104385D02*
X17887483Y-12184385D01*
X17887483Y-12104385D02*
X17807483Y-12184385D01*
X17847483Y-12104385D02*
X17847483Y-12184385D01*
X17807483Y-12144385D02*
X17887483Y-12144385D01*
X17807483Y-12699698D02*
X17887483Y-12779698D01*
X17887483Y-12699698D02*
X17807483Y-12779698D01*
X17847483Y-12699698D02*
X17847483Y-12779698D01*
X17807483Y-12739698D02*
X17887483Y-12739698D01*
X17807483Y-13295011D02*
X17887483Y-13375011D01*
X17887483Y-13295011D02*
X17807483Y-13375011D01*
X17847483Y-13295011D02*
X17847483Y-13375011D01*
X17807483Y-13335011D02*
X17887483Y-13335011D01*
D18*
X1604810Y-13296770D02*
X1704810Y-13396770D01*
X1704810Y-13296770D02*
X1604810Y-13396770D01*
X1690166Y-13382126D02*
X1690166Y-13311414D01*
X1619454Y-13311414D01*
X1619454Y-13382126D01*
X1690166Y-13382126D01*
X1604810Y-14746770D02*
X1704810Y-14846770D01*
X1704810Y-14746770D02*
X1604810Y-14846770D01*
X1690166Y-14832126D02*
X1690166Y-14761414D01*
X1619454Y-14761414D01*
X1619454Y-14832126D01*
X1690166Y-14832126D01*
X1854810Y-14746770D02*
X1954810Y-14846770D01*
X1954810Y-14746770D02*
X1854810Y-14846770D01*
X1940166Y-14832126D02*
X1940166Y-14761414D01*
X1869454Y-14761414D01*
X1869454Y-14832126D01*
X1940166Y-14832126D01*
X2104810Y-13296770D02*
X2204810Y-13396770D01*
X2204810Y-13296770D02*
X2104810Y-13396770D01*
X2190166Y-13382126D02*
X2190166Y-13311414D01*
X2119454Y-13311414D01*
X2119454Y-13382126D01*
X2190166Y-13382126D01*
X2104810Y-14746770D02*
X2204810Y-14846770D01*
X2204810Y-14746770D02*
X2104810Y-14846770D01*
X2190166Y-14832126D02*
X2190166Y-14761414D01*
X2119454Y-14761414D01*
X2119454Y-14832126D01*
X2190166Y-14832126D01*
X14363699Y-7365225D02*
X14463699Y-7465225D01*
X14463699Y-7365225D02*
X14363699Y-7465225D01*
X14449055Y-7450580D02*
X14449055Y-7379869D01*
X14378344Y-7379869D01*
X14378344Y-7450580D01*
X14449055Y-7450580D01*
X14363699Y-7619225D02*
X14463699Y-7719225D01*
X14463699Y-7619225D02*
X14363699Y-7719225D01*
X14449055Y-7704580D02*
X14449055Y-7633869D01*
X14378344Y-7633869D01*
X14378344Y-7704580D01*
X14449055Y-7704580D01*
X14363699Y-7873225D02*
X14463699Y-7973225D01*
X14463699Y-7873225D02*
X14363699Y-7973225D01*
X14449055Y-7958580D02*
X14449055Y-7887869D01*
X14378344Y-7887869D01*
X14378344Y-7958580D01*
X14449055Y-7958580D01*
X14617699Y-7365225D02*
X14717699Y-7465225D01*
X14717699Y-7365225D02*
X14617699Y-7465225D01*
X14703055Y-7450580D02*
X14703055Y-7379869D01*
X14632344Y-7379869D01*
X14632344Y-7450580D01*
X14703055Y-7450580D01*
X14617699Y-7619225D02*
X14717699Y-7719225D01*
X14717699Y-7619225D02*
X14617699Y-7719225D01*
X14703055Y-7704580D02*
X14703055Y-7633869D01*
X14632344Y-7633869D01*
X14632344Y-7704580D01*
X14703055Y-7704580D01*
X14617699Y-7873225D02*
X14717699Y-7973225D01*
X14717699Y-7873225D02*
X14617699Y-7973225D01*
X14703055Y-7958580D02*
X14703055Y-7887869D01*
X14632344Y-7887869D01*
X14632344Y-7958580D01*
X14703055Y-7958580D01*
D19*
X14303761Y-5823130D02*
X14413761Y-5933130D01*
X14413761Y-5823130D02*
X14303761Y-5933130D01*
X14358761Y-5933130D02*
X14413761Y-5878130D01*
X14358761Y-5823130D01*
X14303761Y-5878130D01*
X14358761Y-5933130D01*
X14303761Y-6273130D02*
X14413761Y-6383130D01*
X14413761Y-6273130D02*
X14303761Y-6383130D01*
X14358761Y-6383130D02*
X14413761Y-6328130D01*
X14358761Y-6273130D01*
X14303761Y-6328130D01*
X14358761Y-6383130D01*
X14953761Y-5823130D02*
X15063761Y-5933130D01*
X15063761Y-5823130D02*
X14953761Y-5933130D01*
X15008761Y-5933130D02*
X15063761Y-5878130D01*
X15008761Y-5823130D01*
X14953761Y-5878130D01*
X15008761Y-5933130D01*
X14953761Y-6273130D02*
X15063761Y-6383130D01*
X15063761Y-6273130D02*
X14953761Y-6383130D01*
X15008761Y-6383130D02*
X15063761Y-6328130D01*
X15008761Y-6273130D01*
X14953761Y-6328130D01*
X15008761Y-6383130D01*
X15416265Y-5823130D02*
X15526265Y-5933130D01*
X15526265Y-5823130D02*
X15416265Y-5933130D01*
X15471265Y-5933130D02*
X15526265Y-5878130D01*
X15471265Y-5823130D01*
X15416265Y-5878130D01*
X15471265Y-5933130D01*
X15416265Y-6273130D02*
X15526265Y-6383130D01*
X15526265Y-6273130D02*
X15416265Y-6383130D01*
X15471265Y-6383130D02*
X15526265Y-6328130D01*
X15471265Y-6273130D01*
X15416265Y-6328130D01*
X15471265Y-6383130D01*
X16066265Y-5823130D02*
X16176265Y-5933130D01*
X16176265Y-5823130D02*
X16066265Y-5933130D01*
X16121265Y-5933130D02*
X16176265Y-5878130D01*
X16121265Y-5823130D01*
X16066265Y-5878130D01*
X16121265Y-5933130D01*
X16066265Y-6273130D02*
X16176265Y-6383130D01*
X16176265Y-6273130D02*
X16066265Y-6383130D01*
X16121265Y-6383130D02*
X16176265Y-6328130D01*
X16121265Y-6273130D01*
X16066265Y-6328130D01*
X16121265Y-6383130D01*
D20*
X1523997Y-6100445D02*
X1523997Y-6250305D01*
X1449067Y-6175375D02*
X1598927Y-6175375D01*
X1598927Y-6175375D02*
G75*
G03*
X1598927Y-6175375I-74930J0D01*
G01*
X1524002Y-8005452D02*
X1524002Y-8155312D01*
X1449072Y-8080382D02*
X1598932Y-8080382D01*
X1598932Y-8080382D02*
G75*
G03*
X1598932Y-8080382I-74930J0D01*
G01*
X1524002Y-9910454D02*
X1524002Y-10060314D01*
X1449072Y-9985384D02*
X1598932Y-9985384D01*
X1598932Y-9985384D02*
G75*
G03*
X1598932Y-9985384I-74930J0D01*
G01*
X1524002Y-11815455D02*
X1524002Y-11965315D01*
X1449072Y-11890385D02*
X1598932Y-11890385D01*
X1598932Y-11890385D02*
G75*
G03*
X1598932Y-11890385I-74930J0D01*
G01*
X1524002Y-13720457D02*
X1524002Y-13870317D01*
X1449072Y-13795387D02*
X1598932Y-13795387D01*
X1598932Y-13795387D02*
G75*
G03*
X1598932Y-13795387I-74930J0D01*
G01*
X2158997Y-5846445D02*
X2158997Y-5996305D01*
X2084067Y-5921375D02*
X2233927Y-5921375D01*
X2233927Y-5921375D02*
G75*
G03*
X2233927Y-5921375I-74930J0D01*
G01*
X2159002Y-7751452D02*
X2159002Y-7901312D01*
X2084072Y-7826382D02*
X2233932Y-7826382D01*
X2233932Y-7826382D02*
G75*
G03*
X2233932Y-7826382I-74930J0D01*
G01*
X2159002Y-9656454D02*
X2159002Y-9806314D01*
X2084072Y-9731384D02*
X2233932Y-9731384D01*
X2233932Y-9731384D02*
G75*
G03*
X2233932Y-9731384I-74930J0D01*
G01*
X2159002Y-11561455D02*
X2159002Y-11711315D01*
X2084072Y-11636385D02*
X2233932Y-11636385D01*
X2233932Y-11636385D02*
G75*
G03*
X2233932Y-11636385I-74930J0D01*
G01*
X2159002Y-13466457D02*
X2159002Y-13616317D01*
X2084072Y-13541387D02*
X2233932Y-13541387D01*
X2233932Y-13541387D02*
G75*
G03*
X2233932Y-13541387I-74930J0D01*
G01*
X3429003Y-6100450D02*
X3429003Y-6250310D01*
X3354073Y-6175380D02*
X3503933Y-6175380D01*
X3503933Y-6175380D02*
G75*
G03*
X3503933Y-6175380I-74930J0D01*
G01*
X3429003Y-8005452D02*
X3429003Y-8155312D01*
X3354073Y-8080382D02*
X3503933Y-8080382D01*
X3503933Y-8080382D02*
G75*
G03*
X3503933Y-8080382I-74930J0D01*
G01*
X3429003Y-9910454D02*
X3429003Y-10060314D01*
X3354073Y-9985384D02*
X3503933Y-9985384D01*
X3503933Y-9985384D02*
G75*
G03*
X3503933Y-9985384I-74930J0D01*
G01*
X3429003Y-11815455D02*
X3429003Y-11965315D01*
X3354073Y-11890385D02*
X3503933Y-11890385D01*
X3503933Y-11890385D02*
G75*
G03*
X3503933Y-11890385I-74930J0D01*
G01*
X3429003Y-13720457D02*
X3429003Y-13870317D01*
X3354073Y-13795387D02*
X3503933Y-13795387D01*
X3503933Y-13795387D02*
G75*
G03*
X3503933Y-13795387I-74930J0D01*
G01*
X3556003Y-8767452D02*
X3556003Y-8917312D01*
X3481073Y-8842382D02*
X3630933Y-8842382D01*
X3630933Y-8842382D02*
G75*
G03*
X3630933Y-8842382I-74930J0D01*
G01*
X4064003Y-5846450D02*
X4064003Y-5996310D01*
X3989073Y-5921380D02*
X4138933Y-5921380D01*
X4138933Y-5921380D02*
G75*
G03*
X4138933Y-5921380I-74930J0D01*
G01*
X4064003Y-7751452D02*
X4064003Y-7901312D01*
X3989073Y-7826382D02*
X4138933Y-7826382D01*
X4138933Y-7826382D02*
G75*
G03*
X4138933Y-7826382I-74930J0D01*
G01*
X4064003Y-9656454D02*
X4064003Y-9806314D01*
X3989073Y-9731384D02*
X4138933Y-9731384D01*
X4138933Y-9731384D02*
G75*
G03*
X4138933Y-9731384I-74930J0D01*
G01*
X4064003Y-11561455D02*
X4064003Y-11711315D01*
X3989073Y-11636385D02*
X4138933Y-11636385D01*
X4138933Y-11636385D02*
G75*
G03*
X4138933Y-11636385I-74930J0D01*
G01*
X4064003Y-13466457D02*
X4064003Y-13616317D01*
X3989073Y-13541387D02*
X4138933Y-13541387D01*
X4138933Y-13541387D02*
G75*
G03*
X4138933Y-13541387I-74930J0D01*
G01*
X4191003Y-8513452D02*
X4191003Y-8663312D01*
X4116073Y-8588382D02*
X4265933Y-8588382D01*
X4265933Y-8588382D02*
G75*
G03*
X4265933Y-8588382I-74930J0D01*
G01*
X5334005Y-6100450D02*
X5334005Y-6250310D01*
X5259075Y-6175380D02*
X5408935Y-6175380D01*
X5408935Y-6175380D02*
G75*
G03*
X5408935Y-6175380I-74930J0D01*
G01*
X5334005Y-8005452D02*
X5334005Y-8155312D01*
X5259075Y-8080382D02*
X5408935Y-8080382D01*
X5408935Y-8080382D02*
G75*
G03*
X5408935Y-8080382I-74930J0D01*
G01*
X5334005Y-9910454D02*
X5334005Y-10060314D01*
X5259075Y-9985384D02*
X5408935Y-9985384D01*
X5408935Y-9985384D02*
G75*
G03*
X5408935Y-9985384I-74930J0D01*
G01*
X5334005Y-11815455D02*
X5334005Y-11965315D01*
X5259075Y-11890385D02*
X5408935Y-11890385D01*
X5408935Y-11890385D02*
G75*
G03*
X5408935Y-11890385I-74930J0D01*
G01*
X5334005Y-13720457D02*
X5334005Y-13870317D01*
X5259075Y-13795387D02*
X5408935Y-13795387D01*
X5408935Y-13795387D02*
G75*
G03*
X5408935Y-13795387I-74930J0D01*
G01*
X5969005Y-5846450D02*
X5969005Y-5996310D01*
X5894075Y-5921380D02*
X6043935Y-5921380D01*
X6043935Y-5921380D02*
G75*
G03*
X6043935Y-5921380I-74930J0D01*
G01*
X5969005Y-7751452D02*
X5969005Y-7901312D01*
X5894075Y-7826382D02*
X6043935Y-7826382D01*
X6043935Y-7826382D02*
G75*
G03*
X6043935Y-7826382I-74930J0D01*
G01*
X5969005Y-9656454D02*
X5969005Y-9806314D01*
X5894075Y-9731384D02*
X6043935Y-9731384D01*
X6043935Y-9731384D02*
G75*
G03*
X6043935Y-9731384I-74930J0D01*
G01*
X5969005Y-11561455D02*
X5969005Y-11711315D01*
X5894075Y-11636385D02*
X6043935Y-11636385D01*
X6043935Y-11636385D02*
G75*
G03*
X6043935Y-11636385I-74930J0D01*
G01*
X5969005Y-13466457D02*
X5969005Y-13616317D01*
X5894075Y-13541387D02*
X6043935Y-13541387D01*
X6043935Y-13541387D02*
G75*
G03*
X6043935Y-13541387I-74930J0D01*
G01*
X7239006Y-6100450D02*
X7239006Y-6250310D01*
X7164076Y-6175380D02*
X7313936Y-6175380D01*
X7313936Y-6175380D02*
G75*
G03*
X7313936Y-6175380I-74930J0D01*
G01*
X7239006Y-8005452D02*
X7239006Y-8155312D01*
X7164076Y-8080382D02*
X7313936Y-8080382D01*
X7313936Y-8080382D02*
G75*
G03*
X7313936Y-8080382I-74930J0D01*
G01*
X7239006Y-9910454D02*
X7239006Y-10060314D01*
X7164076Y-9985384D02*
X7313936Y-9985384D01*
X7313936Y-9985384D02*
G75*
G03*
X7313936Y-9985384I-74930J0D01*
G01*
X7239006Y-11815455D02*
X7239006Y-11965315D01*
X7164076Y-11890385D02*
X7313936Y-11890385D01*
X7313936Y-11890385D02*
G75*
G03*
X7313936Y-11890385I-74930J0D01*
G01*
X7239006Y-13720457D02*
X7239006Y-13870317D01*
X7164076Y-13795387D02*
X7313936Y-13795387D01*
X7313936Y-13795387D02*
G75*
G03*
X7313936Y-13795387I-74930J0D01*
G01*
X7874006Y-5846450D02*
X7874006Y-5996310D01*
X7799076Y-5921380D02*
X7948936Y-5921380D01*
X7948936Y-5921380D02*
G75*
G03*
X7948936Y-5921380I-74930J0D01*
G01*
X7874006Y-7751452D02*
X7874006Y-7901312D01*
X7799076Y-7826382D02*
X7948936Y-7826382D01*
X7948936Y-7826382D02*
G75*
G03*
X7948936Y-7826382I-74930J0D01*
G01*
X7874006Y-9656454D02*
X7874006Y-9806314D01*
X7799076Y-9731384D02*
X7948936Y-9731384D01*
X7948936Y-9731384D02*
G75*
G03*
X7948936Y-9731384I-74930J0D01*
G01*
X7874006Y-11561455D02*
X7874006Y-11711315D01*
X7799076Y-11636385D02*
X7948936Y-11636385D01*
X7948936Y-11636385D02*
G75*
G03*
X7948936Y-11636385I-74930J0D01*
G01*
X7874006Y-13466457D02*
X7874006Y-13616317D01*
X7799076Y-13541387D02*
X7948936Y-13541387D01*
X7948936Y-13541387D02*
G75*
G03*
X7948936Y-13541387I-74930J0D01*
G01*
X9144008Y-6100450D02*
X9144008Y-6250310D01*
X9069078Y-6175380D02*
X9218938Y-6175380D01*
X9218938Y-6175380D02*
G75*
G03*
X9218938Y-6175380I-74930J0D01*
G01*
X9144008Y-8005452D02*
X9144008Y-8155312D01*
X9069078Y-8080382D02*
X9218938Y-8080382D01*
X9218938Y-8080382D02*
G75*
G03*
X9218938Y-8080382I-74930J0D01*
G01*
X9144008Y-9910454D02*
X9144008Y-10060314D01*
X9069078Y-9985384D02*
X9218938Y-9985384D01*
X9218938Y-9985384D02*
G75*
G03*
X9218938Y-9985384I-74930J0D01*
G01*
X9144008Y-11815455D02*
X9144008Y-11965315D01*
X9069078Y-11890385D02*
X9218938Y-11890385D01*
X9218938Y-11890385D02*
G75*
G03*
X9218938Y-11890385I-74930J0D01*
G01*
X9144008Y-13720457D02*
X9144008Y-13870317D01*
X9069078Y-13795387D02*
X9218938Y-13795387D01*
X9218938Y-13795387D02*
G75*
G03*
X9218938Y-13795387I-74930J0D01*
G01*
X9779008Y-5846450D02*
X9779008Y-5996310D01*
X9704078Y-5921380D02*
X9853938Y-5921380D01*
X9853938Y-5921380D02*
G75*
G03*
X9853938Y-5921380I-74930J0D01*
G01*
X9779008Y-7751452D02*
X9779008Y-7901312D01*
X9704078Y-7826382D02*
X9853938Y-7826382D01*
X9853938Y-7826382D02*
G75*
G03*
X9853938Y-7826382I-74930J0D01*
G01*
X9779008Y-9656454D02*
X9779008Y-9806314D01*
X9704078Y-9731384D02*
X9853938Y-9731384D01*
X9853938Y-9731384D02*
G75*
G03*
X9853938Y-9731384I-74930J0D01*
G01*
X9779008Y-11561455D02*
X9779008Y-11711315D01*
X9704078Y-11636385D02*
X9853938Y-11636385D01*
X9853938Y-11636385D02*
G75*
G03*
X9853938Y-11636385I-74930J0D01*
G01*
X9779008Y-13466457D02*
X9779008Y-13616317D01*
X9704078Y-13541387D02*
X9853938Y-13541387D01*
X9853938Y-13541387D02*
G75*
G03*
X9853938Y-13541387I-74930J0D01*
G01*
X10096509Y-13720457D02*
X10096509Y-13870317D01*
X10021579Y-13795387D02*
X10171439Y-13795387D01*
X10171439Y-13795387D02*
G75*
G03*
X10171439Y-13795387I-74930J0D01*
G01*
X10731509Y-13466457D02*
X10731509Y-13616317D01*
X10656579Y-13541387D02*
X10806439Y-13541387D01*
X10806439Y-13541387D02*
G75*
G03*
X10806439Y-13541387I-74930J0D01*
G01*
X11049010Y-6100450D02*
X11049010Y-6250310D01*
X10974080Y-6175380D02*
X11123940Y-6175380D01*
X11123940Y-6175380D02*
G75*
G03*
X11123940Y-6175380I-74930J0D01*
G01*
X11049010Y-8005452D02*
X11049010Y-8155312D01*
X10974080Y-8080382D02*
X11123940Y-8080382D01*
X11123940Y-8080382D02*
G75*
G03*
X11123940Y-8080382I-74930J0D01*
G01*
X11049010Y-9910454D02*
X11049010Y-10060314D01*
X10974080Y-9985384D02*
X11123940Y-9985384D01*
X11123940Y-9985384D02*
G75*
G03*
X11123940Y-9985384I-74930J0D01*
G01*
X11049010Y-11815455D02*
X11049010Y-11965315D01*
X10974080Y-11890385D02*
X11123940Y-11890385D01*
X11123940Y-11890385D02*
G75*
G03*
X11123940Y-11890385I-74930J0D01*
G01*
X11049010Y-13720457D02*
X11049010Y-13870317D01*
X10974080Y-13795387D02*
X11123940Y-13795387D01*
X11123940Y-13795387D02*
G75*
G03*
X11123940Y-13795387I-74930J0D01*
G01*
X11684010Y-5846450D02*
X11684010Y-5996310D01*
X11609080Y-5921380D02*
X11758940Y-5921380D01*
X11758940Y-5921380D02*
G75*
G03*
X11758940Y-5921380I-74930J0D01*
G01*
X11684010Y-7751452D02*
X11684010Y-7901312D01*
X11609080Y-7826382D02*
X11758940Y-7826382D01*
X11758940Y-7826382D02*
G75*
G03*
X11758940Y-7826382I-74930J0D01*
G01*
X11684010Y-9656454D02*
X11684010Y-9806314D01*
X11609080Y-9731384D02*
X11758940Y-9731384D01*
X11758940Y-9731384D02*
G75*
G03*
X11758940Y-9731384I-74930J0D01*
G01*
X11684010Y-11561455D02*
X11684010Y-11711315D01*
X11609080Y-11636385D02*
X11758940Y-11636385D01*
X11758940Y-11636385D02*
G75*
G03*
X11758940Y-11636385I-74930J0D01*
G01*
X11684010Y-13466457D02*
X11684010Y-13616317D01*
X11609080Y-13541387D02*
X11758940Y-13541387D01*
X11758940Y-13541387D02*
G75*
G03*
X11758940Y-13541387I-74930J0D01*
G01*
X18669016Y-6100450D02*
X18669016Y-6250310D01*
X18594086Y-6175380D02*
X18743946Y-6175380D01*
X18743946Y-6175380D02*
G75*
G03*
X18743946Y-6175380I-74930J0D01*
G01*
X18669016Y-8005452D02*
X18669016Y-8155312D01*
X18594086Y-8080382D02*
X18743946Y-8080382D01*
X18743946Y-8080382D02*
G75*
G03*
X18743946Y-8080382I-74930J0D01*
G01*
X18669016Y-9910454D02*
X18669016Y-10060314D01*
X18594086Y-9985384D02*
X18743946Y-9985384D01*
X18743946Y-9985384D02*
G75*
G03*
X18743946Y-9985384I-74930J0D01*
G01*
X18669016Y-11815455D02*
X18669016Y-11965315D01*
X18594086Y-11890385D02*
X18743946Y-11890385D01*
X18743946Y-11890385D02*
G75*
G03*
X18743946Y-11890385I-74930J0D01*
G01*
X18669016Y-13720457D02*
X18669016Y-13870317D01*
X18594086Y-13795387D02*
X18743946Y-13795387D01*
X18743946Y-13795387D02*
G75*
G03*
X18743946Y-13795387I-74930J0D01*
G01*
X19304016Y-5846450D02*
X19304016Y-5996310D01*
X19229086Y-5921380D02*
X19378946Y-5921380D01*
X19378946Y-5921380D02*
G75*
G03*
X19378946Y-5921380I-74930J0D01*
G01*
X19304016Y-7751452D02*
X19304016Y-7901312D01*
X19229086Y-7826382D02*
X19378946Y-7826382D01*
X19378946Y-7826382D02*
G75*
G03*
X19378946Y-7826382I-74930J0D01*
G01*
X19304016Y-9656454D02*
X19304016Y-9806314D01*
X19229086Y-9731384D02*
X19378946Y-9731384D01*
X19378946Y-9731384D02*
G75*
G03*
X19378946Y-9731384I-74930J0D01*
G01*
X19304016Y-11561455D02*
X19304016Y-11711315D01*
X19229086Y-11636385D02*
X19378946Y-11636385D01*
X19378946Y-11636385D02*
G75*
G03*
X19378946Y-11636385I-74930J0D01*
G01*
X19304016Y-13466457D02*
X19304016Y-13616317D01*
X19229086Y-13541387D02*
X19378946Y-13541387D01*
X19378946Y-13541387D02*
G75*
G03*
X19378946Y-13541387I-74930J0D01*
G01*
X19621517Y-13720457D02*
X19621517Y-13870317D01*
X19546587Y-13795387D02*
X19696447Y-13795387D01*
X19696447Y-13795387D02*
G75*
G03*
X19696447Y-13795387I-74930J0D01*
G01*
X20256517Y-13466457D02*
X20256517Y-13616317D01*
X20181587Y-13541387D02*
X20331447Y-13541387D01*
X20331447Y-13541387D02*
G75*
G03*
X20331447Y-13541387I-74930J0D01*
G01*
X20574018Y-6100450D02*
X20574018Y-6250310D01*
X20499088Y-6175380D02*
X20648948Y-6175380D01*
X20648948Y-6175380D02*
G75*
G03*
X20648948Y-6175380I-74930J0D01*
G01*
X20574018Y-8005452D02*
X20574018Y-8155312D01*
X20499088Y-8080382D02*
X20648948Y-8080382D01*
X20648948Y-8080382D02*
G75*
G03*
X20648948Y-8080382I-74930J0D01*
G01*
X20574018Y-9910454D02*
X20574018Y-10060314D01*
X20499088Y-9985384D02*
X20648948Y-9985384D01*
X20648948Y-9985384D02*
G75*
G03*
X20648948Y-9985384I-74930J0D01*
G01*
X20574018Y-11815455D02*
X20574018Y-11965315D01*
X20499088Y-11890385D02*
X20648948Y-11890385D01*
X20648948Y-11890385D02*
G75*
G03*
X20648948Y-11890385I-74930J0D01*
G01*
X20574018Y-13720457D02*
X20574018Y-13870317D01*
X20499088Y-13795387D02*
X20648948Y-13795387D01*
X20648948Y-13795387D02*
G75*
G03*
X20648948Y-13795387I-74930J0D01*
G01*
X21209018Y-5846450D02*
X21209018Y-5996310D01*
X21134088Y-5921380D02*
X21283948Y-5921380D01*
X21283948Y-5921380D02*
G75*
G03*
X21283948Y-5921380I-74930J0D01*
G01*
X21209018Y-7751452D02*
X21209018Y-7901312D01*
X21134088Y-7826382D02*
X21283948Y-7826382D01*
X21283948Y-7826382D02*
G75*
G03*
X21283948Y-7826382I-74930J0D01*
G01*
X21209018Y-9656454D02*
X21209018Y-9806314D01*
X21134088Y-9731384D02*
X21283948Y-9731384D01*
X21283948Y-9731384D02*
G75*
G03*
X21283948Y-9731384I-74930J0D01*
G01*
X21209018Y-11561455D02*
X21209018Y-11711315D01*
X21134088Y-11636385D02*
X21283948Y-11636385D01*
X21283948Y-11636385D02*
G75*
G03*
X21283948Y-11636385I-74930J0D01*
G01*
X21209018Y-13466457D02*
X21209018Y-13616317D01*
X21134088Y-13541387D02*
X21283948Y-13541387D01*
X21283948Y-13541387D02*
G75*
G03*
X21283948Y-13541387I-74930J0D01*
G01*
X22479019Y-6100450D02*
X22479019Y-6250310D01*
X22404089Y-6175380D02*
X22553949Y-6175380D01*
X22553949Y-6175380D02*
G75*
G03*
X22553949Y-6175380I-74930J0D01*
G01*
X22479019Y-8005452D02*
X22479019Y-8155312D01*
X22404089Y-8080382D02*
X22553949Y-8080382D01*
X22553949Y-8080382D02*
G75*
G03*
X22553949Y-8080382I-74930J0D01*
G01*
X22479019Y-9910454D02*
X22479019Y-10060314D01*
X22404089Y-9985384D02*
X22553949Y-9985384D01*
X22553949Y-9985384D02*
G75*
G03*
X22553949Y-9985384I-74930J0D01*
G01*
X22479019Y-11815455D02*
X22479019Y-11965315D01*
X22404089Y-11890385D02*
X22553949Y-11890385D01*
X22553949Y-11890385D02*
G75*
G03*
X22553949Y-11890385I-74930J0D01*
G01*
X22479019Y-13720457D02*
X22479019Y-13870317D01*
X22404089Y-13795387D02*
X22553949Y-13795387D01*
X22553949Y-13795387D02*
G75*
G03*
X22553949Y-13795387I-74930J0D01*
G01*
X23114019Y-5846450D02*
X23114019Y-5996310D01*
X23039089Y-5921380D02*
X23188949Y-5921380D01*
X23188949Y-5921380D02*
G75*
G03*
X23188949Y-5921380I-74930J0D01*
G01*
X23114019Y-7751452D02*
X23114019Y-7901312D01*
X23039089Y-7826382D02*
X23188949Y-7826382D01*
X23188949Y-7826382D02*
G75*
G03*
X23188949Y-7826382I-74930J0D01*
G01*
X23114019Y-9656454D02*
X23114019Y-9806314D01*
X23039089Y-9731384D02*
X23188949Y-9731384D01*
X23188949Y-9731384D02*
G75*
G03*
X23188949Y-9731384I-74930J0D01*
G01*
X23114019Y-11561455D02*
X23114019Y-11711315D01*
X23039089Y-11636385D02*
X23188949Y-11636385D01*
X23188949Y-11636385D02*
G75*
G03*
X23188949Y-11636385I-74930J0D01*
G01*
X23114019Y-13466457D02*
X23114019Y-13616317D01*
X23039089Y-13541387D02*
X23188949Y-13541387D01*
X23188949Y-13541387D02*
G75*
G03*
X23188949Y-13541387I-74930J0D01*
G01*
X24384021Y-6100450D02*
X24384021Y-6250310D01*
X24309091Y-6175380D02*
X24458951Y-6175380D01*
X24458951Y-6175380D02*
G75*
G03*
X24458951Y-6175380I-74930J0D01*
G01*
X24384021Y-8005452D02*
X24384021Y-8155312D01*
X24309091Y-8080382D02*
X24458951Y-8080382D01*
X24458951Y-8080382D02*
G75*
G03*
X24458951Y-8080382I-74930J0D01*
G01*
X24384021Y-9910454D02*
X24384021Y-10060314D01*
X24309091Y-9985384D02*
X24458951Y-9985384D01*
X24458951Y-9985384D02*
G75*
G03*
X24458951Y-9985384I-74930J0D01*
G01*
X24384021Y-11815455D02*
X24384021Y-11965315D01*
X24309091Y-11890385D02*
X24458951Y-11890385D01*
X24458951Y-11890385D02*
G75*
G03*
X24458951Y-11890385I-74930J0D01*
G01*
X24384021Y-13720457D02*
X24384021Y-13870317D01*
X24309091Y-13795387D02*
X24458951Y-13795387D01*
X24458951Y-13795387D02*
G75*
G03*
X24458951Y-13795387I-74930J0D01*
G01*
X25019021Y-5846450D02*
X25019021Y-5996310D01*
X24944091Y-5921380D02*
X25093951Y-5921380D01*
X25093951Y-5921380D02*
G75*
G03*
X25093951Y-5921380I-74930J0D01*
G01*
X25019021Y-7751452D02*
X25019021Y-7901312D01*
X24944091Y-7826382D02*
X25093951Y-7826382D01*
X25093951Y-7826382D02*
G75*
G03*
X25093951Y-7826382I-74930J0D01*
G01*
X25019021Y-9656454D02*
X25019021Y-9806314D01*
X24944091Y-9731384D02*
X25093951Y-9731384D01*
X25093951Y-9731384D02*
G75*
G03*
X25093951Y-9731384I-74930J0D01*
G01*
X25019021Y-11561455D02*
X25019021Y-11711315D01*
X24944091Y-11636385D02*
X25093951Y-11636385D01*
X25093951Y-11636385D02*
G75*
G03*
X25093951Y-11636385I-74930J0D01*
G01*
X25019021Y-13466457D02*
X25019021Y-13616317D01*
X24944091Y-13541387D02*
X25093951Y-13541387D01*
X25093951Y-13541387D02*
G75*
G03*
X25093951Y-13541387I-74930J0D01*
G01*
X26289022Y-6100450D02*
X26289022Y-6250310D01*
X26214092Y-6175380D02*
X26363952Y-6175380D01*
X26363952Y-6175380D02*
G75*
G03*
X26363952Y-6175380I-74930J0D01*
G01*
X26289022Y-8005452D02*
X26289022Y-8155312D01*
X26214092Y-8080382D02*
X26363952Y-8080382D01*
X26363952Y-8080382D02*
G75*
G03*
X26363952Y-8080382I-74930J0D01*
G01*
X26289022Y-9910454D02*
X26289022Y-10060314D01*
X26214092Y-9985384D02*
X26363952Y-9985384D01*
X26363952Y-9985384D02*
G75*
G03*
X26363952Y-9985384I-74930J0D01*
G01*
X26289022Y-11815455D02*
X26289022Y-11965315D01*
X26214092Y-11890385D02*
X26363952Y-11890385D01*
X26363952Y-11890385D02*
G75*
G03*
X26363952Y-11890385I-74930J0D01*
G01*
X26289022Y-13720457D02*
X26289022Y-13870317D01*
X26214092Y-13795387D02*
X26363952Y-13795387D01*
X26363952Y-13795387D02*
G75*
G03*
X26363952Y-13795387I-74930J0D01*
G01*
X26924022Y-5846450D02*
X26924022Y-5996310D01*
X26849092Y-5921380D02*
X26998952Y-5921380D01*
X26998952Y-5921380D02*
G75*
G03*
X26998952Y-5921380I-74930J0D01*
G01*
X26924022Y-7751452D02*
X26924022Y-7901312D01*
X26849092Y-7826382D02*
X26998952Y-7826382D01*
X26998952Y-7826382D02*
G75*
G03*
X26998952Y-7826382I-74930J0D01*
G01*
X26924022Y-9656454D02*
X26924022Y-9806314D01*
X26849092Y-9731384D02*
X26998952Y-9731384D01*
X26998952Y-9731384D02*
G75*
G03*
X26998952Y-9731384I-74930J0D01*
G01*
X26924022Y-11561455D02*
X26924022Y-11711315D01*
X26849092Y-11636385D02*
X26998952Y-11636385D01*
X26998952Y-11636385D02*
G75*
G03*
X26998952Y-11636385I-74930J0D01*
G01*
X26924022Y-13466457D02*
X26924022Y-13616317D01*
X26849092Y-13541387D02*
X26998952Y-13541387D01*
X26998952Y-13541387D02*
G75*
G03*
X26998952Y-13541387I-74930J0D01*
G01*
X28194024Y-6100450D02*
X28194024Y-6250310D01*
X28119094Y-6175380D02*
X28268954Y-6175380D01*
X28268954Y-6175380D02*
G75*
G03*
X28268954Y-6175380I-74930J0D01*
G01*
X28194024Y-8005452D02*
X28194024Y-8155312D01*
X28119094Y-8080382D02*
X28268954Y-8080382D01*
X28268954Y-8080382D02*
G75*
G03*
X28268954Y-8080382I-74930J0D01*
G01*
X28194024Y-9910454D02*
X28194024Y-10060314D01*
X28119094Y-9985384D02*
X28268954Y-9985384D01*
X28268954Y-9985384D02*
G75*
G03*
X28268954Y-9985384I-74930J0D01*
G01*
X28194024Y-11815455D02*
X28194024Y-11965315D01*
X28119094Y-11890385D02*
X28268954Y-11890385D01*
X28268954Y-11890385D02*
G75*
G03*
X28268954Y-11890385I-74930J0D01*
G01*
X28194024Y-13720457D02*
X28194024Y-13870317D01*
X28119094Y-13795387D02*
X28268954Y-13795387D01*
X28268954Y-13795387D02*
G75*
G03*
X28268954Y-13795387I-74930J0D01*
G01*
X28829024Y-5846450D02*
X28829024Y-5996310D01*
X28754094Y-5921380D02*
X28903954Y-5921380D01*
X28903954Y-5921380D02*
G75*
G03*
X28903954Y-5921380I-74930J0D01*
G01*
X28829024Y-7751452D02*
X28829024Y-7901312D01*
X28754094Y-7826382D02*
X28903954Y-7826382D01*
X28903954Y-7826382D02*
G75*
G03*
X28903954Y-7826382I-74930J0D01*
G01*
X28829024Y-9656454D02*
X28829024Y-9806314D01*
X28754094Y-9731384D02*
X28903954Y-9731384D01*
X28903954Y-9731384D02*
G75*
G03*
X28903954Y-9731384I-74930J0D01*
G01*
X28829024Y-11561455D02*
X28829024Y-11711315D01*
X28754094Y-11636385D02*
X28903954Y-11636385D01*
X28903954Y-11636385D02*
G75*
G03*
X28903954Y-11636385I-74930J0D01*
G01*
X28829024Y-13466457D02*
X28829024Y-13616317D01*
X28754094Y-13541387D02*
X28903954Y-13541387D01*
X28903954Y-13541387D02*
G75*
G03*
X28903954Y-13541387I-74930J0D01*
G01*
D21*
X1397844Y-14099803D02*
X1397844Y-13993736D01*
X1291777Y-13993736D01*
X1291777Y-14099803D01*
X1397844Y-14099803D01*
X1419810Y-14046770D02*
G75*
G03*
X1419810Y-14046770I-75000J0D01*
G01*
D11*
X1409810Y-14111770D02*
X1409810Y-13981770D01*
X1279810Y-14111770D02*
X1279810Y-13981770D01*
X1409810Y-13981770D02*
G75*
G03*
X1279810Y-13981770I-65000J0D01*
G01*
X1279810Y-14111770D02*
G75*
G03*
X1409810Y-14111770I65000J0D01*
G01*
D21*
X2517844Y-14099803D02*
X2517844Y-13993736D01*
X2411777Y-13993736D01*
X2411777Y-14099803D01*
X2517844Y-14099803D01*
X2539810Y-14046770D02*
G75*
G03*
X2539810Y-14046770I-75000J0D01*
G01*
D11*
X2529810Y-14111770D02*
X2529810Y-13981770D01*
X2399810Y-14111770D02*
X2399810Y-13981770D01*
X2529810Y-13981770D02*
G75*
G03*
X2399810Y-13981770I-65000J0D01*
G01*
X2399810Y-14111770D02*
G75*
G03*
X2529810Y-14111770I65000J0D01*
G01*
X1252619Y-15269851D02*
X1252619Y-15069851D01*
X1300238Y-15069851D01*
X1328810Y-15079375D01*
X1347857Y-15098423D01*
X1357381Y-15117470D01*
X1366905Y-15155565D01*
X1366905Y-15184137D01*
X1357381Y-15222232D01*
X1347857Y-15241280D01*
X1328810Y-15260327D01*
X1300238Y-15269851D01*
X1252619Y-15269851D01*
X1452619Y-15269851D02*
X1452619Y-15136518D01*
X1452619Y-15174613D02*
X1462143Y-15155565D01*
X1471667Y-15146042D01*
X1490714Y-15136518D01*
X1509762Y-15136518D01*
X1576428Y-15269851D02*
X1576428Y-15136518D01*
X1576428Y-15069851D02*
X1566905Y-15079375D01*
X1576428Y-15088899D01*
X1585952Y-15079375D01*
X1576428Y-15069851D01*
X1576428Y-15088899D01*
X1700238Y-15269851D02*
X1681190Y-15260327D01*
X1671667Y-15241280D01*
X1671667Y-15069851D01*
X1805000Y-15269851D02*
X1785952Y-15260327D01*
X1776428Y-15241280D01*
X1776428Y-15069851D01*
X2033571Y-15269851D02*
X2033571Y-15069851D01*
X2100238Y-15212708D01*
X2166905Y-15069851D01*
X2166905Y-15269851D01*
X2347857Y-15269851D02*
X2347857Y-15165089D01*
X2338333Y-15146042D01*
X2319286Y-15136518D01*
X2281190Y-15136518D01*
X2262143Y-15146042D01*
X2347857Y-15260327D02*
X2328810Y-15269851D01*
X2281190Y-15269851D01*
X2262143Y-15260327D01*
X2252619Y-15241280D01*
X2252619Y-15222232D01*
X2262143Y-15203184D01*
X2281190Y-15193661D01*
X2328810Y-15193661D01*
X2347857Y-15184137D01*
X2443095Y-15136518D02*
X2443095Y-15336518D01*
X2443095Y-15146042D02*
X2462143Y-15136518D01*
X2500238Y-15136518D01*
X2519286Y-15146042D01*
X2528810Y-15155565D01*
X2538333Y-15174613D01*
X2538333Y-15231756D01*
X2528810Y-15250803D01*
X2519286Y-15260327D01*
X2500238Y-15269851D01*
X2462143Y-15269851D01*
X2443095Y-15260327D01*
X2624048Y-15250803D02*
X2633571Y-15260327D01*
X2624048Y-15269851D01*
X2614524Y-15260327D01*
X2624048Y-15250803D01*
X2624048Y-15269851D01*
X2624048Y-15146042D02*
X2633571Y-15155565D01*
X2624048Y-15165089D01*
X2614524Y-15155565D01*
X2624048Y-15146042D01*
X2624048Y-15165089D01*
D12*
X955000Y-15579375D02*
X995000Y-15619375D01*
X995000Y-15579375D02*
X955000Y-15619375D01*
D11*
X1290714Y-15489851D02*
X1309762Y-15489851D01*
X1328810Y-15499375D01*
X1338333Y-15508899D01*
X1347857Y-15527946D01*
X1357381Y-15566042D01*
X1357381Y-15613661D01*
X1347857Y-15651756D01*
X1338333Y-15670803D01*
X1328810Y-15680327D01*
X1309762Y-15689851D01*
X1290714Y-15689851D01*
X1271667Y-15680327D01*
X1262143Y-15670803D01*
X1252619Y-15651756D01*
X1243095Y-15613661D01*
X1243095Y-15566042D01*
X1252619Y-15527946D01*
X1262143Y-15508899D01*
X1271667Y-15499375D01*
X1290714Y-15489851D01*
X1443095Y-15670803D02*
X1452619Y-15680327D01*
X1443095Y-15689851D01*
X1433571Y-15680327D01*
X1443095Y-15670803D01*
X1443095Y-15689851D01*
X1624048Y-15556518D02*
X1624048Y-15689851D01*
X1576428Y-15480327D02*
X1528809Y-15623184D01*
X1652619Y-15623184D01*
X1766905Y-15489851D02*
X1785952Y-15489851D01*
X1805000Y-15499375D01*
X1814524Y-15508899D01*
X1824048Y-15527946D01*
X1833571Y-15566042D01*
X1833571Y-15613661D01*
X1824048Y-15651756D01*
X1814524Y-15670803D01*
X1805000Y-15680327D01*
X1785952Y-15689851D01*
X1766905Y-15689851D01*
X1747857Y-15680327D01*
X1738333Y-15670803D01*
X1728809Y-15651756D01*
X1719286Y-15613661D01*
X1719286Y-15566042D01*
X1728809Y-15527946D01*
X1738333Y-15508899D01*
X1747857Y-15499375D01*
X1766905Y-15489851D01*
X1957381Y-15489851D02*
X1976428Y-15489851D01*
X1995476Y-15499375D01*
X2005000Y-15508899D01*
X2014524Y-15527946D01*
X2024048Y-15566042D01*
X2024048Y-15613661D01*
X2014524Y-15651756D01*
X2005000Y-15670803D01*
X1995476Y-15680327D01*
X1976428Y-15689851D01*
X1957381Y-15689851D01*
X1938333Y-15680327D01*
X1928809Y-15670803D01*
X1919286Y-15651756D01*
X1909762Y-15613661D01*
X1909762Y-15566042D01*
X1919286Y-15527946D01*
X1928809Y-15508899D01*
X1938333Y-15499375D01*
X1957381Y-15489851D01*
X2109762Y-15689851D02*
X2109762Y-15556518D01*
X2109762Y-15575565D02*
X2119286Y-15566042D01*
X2138333Y-15556518D01*
X2166905Y-15556518D01*
X2185952Y-15566042D01*
X2195476Y-15585089D01*
X2195476Y-15689851D01*
X2195476Y-15585089D02*
X2205000Y-15566042D01*
X2224048Y-15556518D01*
X2252619Y-15556518D01*
X2271667Y-15566042D01*
X2281190Y-15585089D01*
X2281190Y-15689851D01*
X2376429Y-15689851D02*
X2376429Y-15556518D01*
X2376429Y-15575565D02*
X2385952Y-15566042D01*
X2405000Y-15556518D01*
X2433571Y-15556518D01*
X2452619Y-15566042D01*
X2462143Y-15585089D01*
X2462143Y-15689851D01*
X2462143Y-15585089D02*
X2471667Y-15566042D01*
X2490714Y-15556518D01*
X2519286Y-15556518D01*
X2538333Y-15566042D01*
X2547857Y-15585089D01*
X2547857Y-15689851D01*
X2938333Y-15480327D02*
X2766905Y-15737470D01*
X3195476Y-15489851D02*
X3214524Y-15489851D01*
X3233571Y-15499375D01*
X3243095Y-15508899D01*
X3252619Y-15527946D01*
X3262143Y-15566042D01*
X3262143Y-15613661D01*
X3252619Y-15651756D01*
X3243095Y-15670803D01*
X3233571Y-15680327D01*
X3214524Y-15689851D01*
X3195476Y-15689851D01*
X3176428Y-15680327D01*
X3166905Y-15670803D01*
X3157381Y-15651756D01*
X3147857Y-15613661D01*
X3147857Y-15566042D01*
X3157381Y-15527946D01*
X3166905Y-15508899D01*
X3176428Y-15499375D01*
X3195476Y-15489851D01*
X3347857Y-15670803D02*
X3357381Y-15680327D01*
X3347857Y-15689851D01*
X3338333Y-15680327D01*
X3347857Y-15670803D01*
X3347857Y-15689851D01*
X3481190Y-15489851D02*
X3500238Y-15489851D01*
X3519286Y-15499375D01*
X3528809Y-15508899D01*
X3538333Y-15527946D01*
X3547857Y-15566042D01*
X3547857Y-15613661D01*
X3538333Y-15651756D01*
X3528809Y-15670803D01*
X3519286Y-15680327D01*
X3500238Y-15689851D01*
X3481190Y-15689851D01*
X3462143Y-15680327D01*
X3452619Y-15670803D01*
X3443095Y-15651756D01*
X3433571Y-15613661D01*
X3433571Y-15566042D01*
X3443095Y-15527946D01*
X3452619Y-15508899D01*
X3462143Y-15499375D01*
X3481190Y-15489851D01*
X3738333Y-15689851D02*
X3624048Y-15689851D01*
X3681190Y-15689851D02*
X3681190Y-15489851D01*
X3662143Y-15518423D01*
X3643095Y-15537470D01*
X3624048Y-15546994D01*
X3919286Y-15489851D02*
X3824048Y-15489851D01*
X3814524Y-15585089D01*
X3824048Y-15575565D01*
X3843095Y-15566042D01*
X3890714Y-15566042D01*
X3909762Y-15575565D01*
X3919286Y-15585089D01*
X3928809Y-15604137D01*
X3928809Y-15651756D01*
X3919286Y-15670803D01*
X3909762Y-15680327D01*
X3890714Y-15689851D01*
X3843095Y-15689851D01*
X3824048Y-15680327D01*
X3814524Y-15670803D01*
X3995476Y-15489851D02*
X4128809Y-15489851D01*
X4043095Y-15689851D01*
X4195476Y-15489851D02*
X4195476Y-15527946D01*
X4271667Y-15489851D02*
X4271667Y-15527946D01*
X4566905Y-15766042D02*
X4557381Y-15756518D01*
X4538333Y-15727946D01*
X4528810Y-15708899D01*
X4519286Y-15680327D01*
X4509762Y-15632708D01*
X4509762Y-15594613D01*
X4519286Y-15546994D01*
X4528810Y-15518423D01*
X4538333Y-15499375D01*
X4557381Y-15470803D01*
X4566905Y-15461280D01*
X4624048Y-15489851D02*
X4747857Y-15489851D01*
X4681190Y-15566042D01*
X4709762Y-15566042D01*
X4728810Y-15575565D01*
X4738333Y-15585089D01*
X4747857Y-15604137D01*
X4747857Y-15651756D01*
X4738333Y-15670803D01*
X4728810Y-15680327D01*
X4709762Y-15689851D01*
X4652619Y-15689851D01*
X4633571Y-15680327D01*
X4624048Y-15670803D01*
X4862143Y-15575565D02*
X4843095Y-15566042D01*
X4833571Y-15556518D01*
X4824048Y-15537470D01*
X4824048Y-15527946D01*
X4833571Y-15508899D01*
X4843095Y-15499375D01*
X4862143Y-15489851D01*
X4900238Y-15489851D01*
X4919286Y-15499375D01*
X4928810Y-15508899D01*
X4938333Y-15527946D01*
X4938333Y-15537470D01*
X4928810Y-15556518D01*
X4919286Y-15566042D01*
X4900238Y-15575565D01*
X4862143Y-15575565D01*
X4843095Y-15585089D01*
X4833571Y-15594613D01*
X4824048Y-15613661D01*
X4824048Y-15651756D01*
X4833571Y-15670803D01*
X4843095Y-15680327D01*
X4862143Y-15689851D01*
X4900238Y-15689851D01*
X4919286Y-15680327D01*
X4928810Y-15670803D01*
X4938333Y-15651756D01*
X4938333Y-15613661D01*
X4928810Y-15594613D01*
X4919286Y-15585089D01*
X4900238Y-15575565D01*
X5176429Y-15689851D02*
X5176429Y-15489851D01*
X5262143Y-15689851D02*
X5262143Y-15585089D01*
X5252619Y-15566042D01*
X5233571Y-15556518D01*
X5205000Y-15556518D01*
X5185952Y-15566042D01*
X5176429Y-15575565D01*
X5385952Y-15689851D02*
X5366905Y-15680327D01*
X5357381Y-15670803D01*
X5347857Y-15651756D01*
X5347857Y-15594613D01*
X5357381Y-15575565D01*
X5366905Y-15566042D01*
X5385952Y-15556518D01*
X5414524Y-15556518D01*
X5433571Y-15566042D01*
X5443095Y-15575565D01*
X5452619Y-15594613D01*
X5452619Y-15651756D01*
X5443095Y-15670803D01*
X5433571Y-15680327D01*
X5414524Y-15689851D01*
X5385952Y-15689851D01*
X5566905Y-15689851D02*
X5547857Y-15680327D01*
X5538333Y-15661280D01*
X5538333Y-15489851D01*
X5719286Y-15680327D02*
X5700238Y-15689851D01*
X5662143Y-15689851D01*
X5643095Y-15680327D01*
X5633571Y-15661280D01*
X5633571Y-15585089D01*
X5643095Y-15566042D01*
X5662143Y-15556518D01*
X5700238Y-15556518D01*
X5719286Y-15566042D01*
X5728809Y-15585089D01*
X5728809Y-15604137D01*
X5633571Y-15623184D01*
X5805000Y-15680327D02*
X5824048Y-15689851D01*
X5862143Y-15689851D01*
X5881190Y-15680327D01*
X5890714Y-15661280D01*
X5890714Y-15651756D01*
X5881190Y-15632708D01*
X5862143Y-15623184D01*
X5833571Y-15623184D01*
X5814524Y-15613661D01*
X5805000Y-15594613D01*
X5805000Y-15585089D01*
X5814524Y-15566042D01*
X5833571Y-15556518D01*
X5862143Y-15556518D01*
X5881190Y-15566042D01*
X5957381Y-15766042D02*
X5966905Y-15756518D01*
X5985952Y-15727946D01*
X5995476Y-15708899D01*
X6005000Y-15680327D01*
X6014524Y-15632708D01*
X6014524Y-15594613D01*
X6005000Y-15546994D01*
X5995476Y-15518423D01*
X5985952Y-15499375D01*
X5966905Y-15470803D01*
X5957381Y-15461280D01*
D12*
X995000Y-15863375D02*
G75*
G03*
X995000Y-15863375I-20000J0D01*
G01*
D11*
X1290714Y-15753851D02*
X1309762Y-15753851D01*
X1328810Y-15763375D01*
X1338333Y-15772899D01*
X1347857Y-15791946D01*
X1357381Y-15830042D01*
X1357381Y-15877661D01*
X1347857Y-15915756D01*
X1338333Y-15934803D01*
X1328810Y-15944327D01*
X1309762Y-15953851D01*
X1290714Y-15953851D01*
X1271667Y-15944327D01*
X1262143Y-15934803D01*
X1252619Y-15915756D01*
X1243095Y-15877661D01*
X1243095Y-15830042D01*
X1252619Y-15791946D01*
X1262143Y-15772899D01*
X1271667Y-15763375D01*
X1290714Y-15753851D01*
X1443095Y-15934803D02*
X1452619Y-15944327D01*
X1443095Y-15953851D01*
X1433571Y-15944327D01*
X1443095Y-15934803D01*
X1443095Y-15953851D01*
X1624048Y-15820518D02*
X1624048Y-15953851D01*
X1576428Y-15744327D02*
X1528809Y-15887184D01*
X1652619Y-15887184D01*
X1766905Y-15753851D02*
X1785952Y-15753851D01*
X1805000Y-15763375D01*
X1814524Y-15772899D01*
X1824048Y-15791946D01*
X1833571Y-15830042D01*
X1833571Y-15877661D01*
X1824048Y-15915756D01*
X1814524Y-15934803D01*
X1805000Y-15944327D01*
X1785952Y-15953851D01*
X1766905Y-15953851D01*
X1747857Y-15944327D01*
X1738333Y-15934803D01*
X1728809Y-15915756D01*
X1719286Y-15877661D01*
X1719286Y-15830042D01*
X1728809Y-15791946D01*
X1738333Y-15772899D01*
X1747857Y-15763375D01*
X1766905Y-15753851D01*
X1957381Y-15753851D02*
X1976428Y-15753851D01*
X1995476Y-15763375D01*
X2005000Y-15772899D01*
X2014524Y-15791946D01*
X2024048Y-15830042D01*
X2024048Y-15877661D01*
X2014524Y-15915756D01*
X2005000Y-15934803D01*
X1995476Y-15944327D01*
X1976428Y-15953851D01*
X1957381Y-15953851D01*
X1938333Y-15944327D01*
X1928809Y-15934803D01*
X1919286Y-15915756D01*
X1909762Y-15877661D01*
X1909762Y-15830042D01*
X1919286Y-15791946D01*
X1928809Y-15772899D01*
X1938333Y-15763375D01*
X1957381Y-15753851D01*
X2109762Y-15953851D02*
X2109762Y-15820518D01*
X2109762Y-15839565D02*
X2119286Y-15830042D01*
X2138333Y-15820518D01*
X2166905Y-15820518D01*
X2185952Y-15830042D01*
X2195476Y-15849089D01*
X2195476Y-15953851D01*
X2195476Y-15849089D02*
X2205000Y-15830042D01*
X2224048Y-15820518D01*
X2252619Y-15820518D01*
X2271667Y-15830042D01*
X2281190Y-15849089D01*
X2281190Y-15953851D01*
X2376429Y-15953851D02*
X2376429Y-15820518D01*
X2376429Y-15839565D02*
X2385952Y-15830042D01*
X2405000Y-15820518D01*
X2433571Y-15820518D01*
X2452619Y-15830042D01*
X2462143Y-15849089D01*
X2462143Y-15953851D01*
X2462143Y-15849089D02*
X2471667Y-15830042D01*
X2490714Y-15820518D01*
X2519286Y-15820518D01*
X2538333Y-15830042D01*
X2547857Y-15849089D01*
X2547857Y-15953851D01*
X2938333Y-15744327D02*
X2766905Y-16001470D01*
X3195476Y-15753851D02*
X3214524Y-15753851D01*
X3233571Y-15763375D01*
X3243095Y-15772899D01*
X3252619Y-15791946D01*
X3262143Y-15830042D01*
X3262143Y-15877661D01*
X3252619Y-15915756D01*
X3243095Y-15934803D01*
X3233571Y-15944327D01*
X3214524Y-15953851D01*
X3195476Y-15953851D01*
X3176428Y-15944327D01*
X3166905Y-15934803D01*
X3157381Y-15915756D01*
X3147857Y-15877661D01*
X3147857Y-15830042D01*
X3157381Y-15791946D01*
X3166905Y-15772899D01*
X3176428Y-15763375D01*
X3195476Y-15753851D01*
X3347857Y-15934803D02*
X3357381Y-15944327D01*
X3347857Y-15953851D01*
X3338333Y-15944327D01*
X3347857Y-15934803D01*
X3347857Y-15953851D01*
X3481190Y-15753851D02*
X3500238Y-15753851D01*
X3519286Y-15763375D01*
X3528809Y-15772899D01*
X3538333Y-15791946D01*
X3547857Y-15830042D01*
X3547857Y-15877661D01*
X3538333Y-15915756D01*
X3528809Y-15934803D01*
X3519286Y-15944327D01*
X3500238Y-15953851D01*
X3481190Y-15953851D01*
X3462143Y-15944327D01*
X3452619Y-15934803D01*
X3443095Y-15915756D01*
X3433571Y-15877661D01*
X3433571Y-15830042D01*
X3443095Y-15791946D01*
X3452619Y-15772899D01*
X3462143Y-15763375D01*
X3481190Y-15753851D01*
X3738333Y-15953851D02*
X3624048Y-15953851D01*
X3681190Y-15953851D02*
X3681190Y-15753851D01*
X3662143Y-15782423D01*
X3643095Y-15801470D01*
X3624048Y-15810994D01*
X3919286Y-15753851D02*
X3824048Y-15753851D01*
X3814524Y-15849089D01*
X3824048Y-15839565D01*
X3843095Y-15830042D01*
X3890714Y-15830042D01*
X3909762Y-15839565D01*
X3919286Y-15849089D01*
X3928809Y-15868137D01*
X3928809Y-15915756D01*
X3919286Y-15934803D01*
X3909762Y-15944327D01*
X3890714Y-15953851D01*
X3843095Y-15953851D01*
X3824048Y-15944327D01*
X3814524Y-15934803D01*
X3995476Y-15753851D02*
X4128809Y-15753851D01*
X4043095Y-15953851D01*
X4195476Y-15753851D02*
X4195476Y-15791946D01*
X4271667Y-15753851D02*
X4271667Y-15791946D01*
X4566905Y-16030042D02*
X4557381Y-16020518D01*
X4538333Y-15991946D01*
X4528810Y-15972899D01*
X4519286Y-15944327D01*
X4509762Y-15896708D01*
X4509762Y-15858613D01*
X4519286Y-15810994D01*
X4528810Y-15782423D01*
X4538333Y-15763375D01*
X4557381Y-15734803D01*
X4566905Y-15725280D01*
X4747857Y-15953851D02*
X4633571Y-15953851D01*
X4690714Y-15953851D02*
X4690714Y-15753851D01*
X4671667Y-15782423D01*
X4652619Y-15801470D01*
X4633571Y-15810994D01*
X4919286Y-15753851D02*
X4881190Y-15753851D01*
X4862143Y-15763375D01*
X4852619Y-15772899D01*
X4833571Y-15801470D01*
X4824048Y-15839565D01*
X4824048Y-15915756D01*
X4833571Y-15934803D01*
X4843095Y-15944327D01*
X4862143Y-15953851D01*
X4900238Y-15953851D01*
X4919286Y-15944327D01*
X4928810Y-15934803D01*
X4938333Y-15915756D01*
X4938333Y-15868137D01*
X4928810Y-15849089D01*
X4919286Y-15839565D01*
X4900238Y-15830042D01*
X4862143Y-15830042D01*
X4843095Y-15839565D01*
X4833571Y-15849089D01*
X4824048Y-15868137D01*
X5176429Y-15953851D02*
X5176429Y-15753851D01*
X5262143Y-15953851D02*
X5262143Y-15849089D01*
X5252619Y-15830042D01*
X5233571Y-15820518D01*
X5205000Y-15820518D01*
X5185952Y-15830042D01*
X5176429Y-15839565D01*
X5385952Y-15953851D02*
X5366905Y-15944327D01*
X5357381Y-15934803D01*
X5347857Y-15915756D01*
X5347857Y-15858613D01*
X5357381Y-15839565D01*
X5366905Y-15830042D01*
X5385952Y-15820518D01*
X5414524Y-15820518D01*
X5433571Y-15830042D01*
X5443095Y-15839565D01*
X5452619Y-15858613D01*
X5452619Y-15915756D01*
X5443095Y-15934803D01*
X5433571Y-15944327D01*
X5414524Y-15953851D01*
X5385952Y-15953851D01*
X5566905Y-15953851D02*
X5547857Y-15944327D01*
X5538333Y-15925280D01*
X5538333Y-15753851D01*
X5719286Y-15944327D02*
X5700238Y-15953851D01*
X5662143Y-15953851D01*
X5643095Y-15944327D01*
X5633571Y-15925280D01*
X5633571Y-15849089D01*
X5643095Y-15830042D01*
X5662143Y-15820518D01*
X5700238Y-15820518D01*
X5719286Y-15830042D01*
X5728809Y-15849089D01*
X5728809Y-15868137D01*
X5633571Y-15887184D01*
X5805000Y-15944327D02*
X5824048Y-15953851D01*
X5862143Y-15953851D01*
X5881190Y-15944327D01*
X5890714Y-15925280D01*
X5890714Y-15915756D01*
X5881190Y-15896708D01*
X5862143Y-15887184D01*
X5833571Y-15887184D01*
X5814524Y-15877661D01*
X5805000Y-15858613D01*
X5805000Y-15849089D01*
X5814524Y-15830042D01*
X5833571Y-15820518D01*
X5862143Y-15820518D01*
X5881190Y-15830042D01*
X5957381Y-16030042D02*
X5966905Y-16020518D01*
X5985952Y-15991946D01*
X5995476Y-15972899D01*
X6005000Y-15944327D01*
X6014524Y-15896708D01*
X6014524Y-15858613D01*
X6005000Y-15810994D01*
X5995476Y-15782423D01*
X5985952Y-15763375D01*
X5966905Y-15734803D01*
X5957381Y-15725280D01*
D13*
X965000Y-16097375D02*
X965000Y-16157375D01*
X935000Y-16127375D02*
X995000Y-16127375D01*
D11*
X1290714Y-16017851D02*
X1309762Y-16017851D01*
X1328810Y-16027375D01*
X1338333Y-16036899D01*
X1347857Y-16055946D01*
X1357381Y-16094042D01*
X1357381Y-16141661D01*
X1347857Y-16179756D01*
X1338333Y-16198803D01*
X1328810Y-16208327D01*
X1309762Y-16217851D01*
X1290714Y-16217851D01*
X1271667Y-16208327D01*
X1262143Y-16198803D01*
X1252619Y-16179756D01*
X1243095Y-16141661D01*
X1243095Y-16094042D01*
X1252619Y-16055946D01*
X1262143Y-16036899D01*
X1271667Y-16027375D01*
X1290714Y-16017851D01*
X1443095Y-16198803D02*
X1452619Y-16208327D01*
X1443095Y-16217851D01*
X1433571Y-16208327D01*
X1443095Y-16198803D01*
X1443095Y-16217851D01*
X1624048Y-16017851D02*
X1585952Y-16017851D01*
X1566905Y-16027375D01*
X1557381Y-16036899D01*
X1538333Y-16065470D01*
X1528809Y-16103565D01*
X1528809Y-16179756D01*
X1538333Y-16198803D01*
X1547857Y-16208327D01*
X1566905Y-16217851D01*
X1605000Y-16217851D01*
X1624048Y-16208327D01*
X1633571Y-16198803D01*
X1643095Y-16179756D01*
X1643095Y-16132137D01*
X1633571Y-16113089D01*
X1624048Y-16103565D01*
X1605000Y-16094042D01*
X1566905Y-16094042D01*
X1547857Y-16103565D01*
X1538333Y-16113089D01*
X1528809Y-16132137D01*
X1766905Y-16017851D02*
X1785952Y-16017851D01*
X1805000Y-16027375D01*
X1814524Y-16036899D01*
X1824048Y-16055946D01*
X1833571Y-16094042D01*
X1833571Y-16141661D01*
X1824048Y-16179756D01*
X1814524Y-16198803D01*
X1805000Y-16208327D01*
X1785952Y-16217851D01*
X1766905Y-16217851D01*
X1747857Y-16208327D01*
X1738333Y-16198803D01*
X1728809Y-16179756D01*
X1719286Y-16141661D01*
X1719286Y-16094042D01*
X1728809Y-16055946D01*
X1738333Y-16036899D01*
X1747857Y-16027375D01*
X1766905Y-16017851D01*
X1957381Y-16017851D02*
X1976428Y-16017851D01*
X1995476Y-16027375D01*
X2005000Y-16036899D01*
X2014524Y-16055946D01*
X2024048Y-16094042D01*
X2024048Y-16141661D01*
X2014524Y-16179756D01*
X2005000Y-16198803D01*
X1995476Y-16208327D01*
X1976428Y-16217851D01*
X1957381Y-16217851D01*
X1938333Y-16208327D01*
X1928809Y-16198803D01*
X1919286Y-16179756D01*
X1909762Y-16141661D01*
X1909762Y-16094042D01*
X1919286Y-16055946D01*
X1928809Y-16036899D01*
X1938333Y-16027375D01*
X1957381Y-16017851D01*
X2109762Y-16217851D02*
X2109762Y-16084518D01*
X2109762Y-16103565D02*
X2119286Y-16094042D01*
X2138333Y-16084518D01*
X2166905Y-16084518D01*
X2185952Y-16094042D01*
X2195476Y-16113089D01*
X2195476Y-16217851D01*
X2195476Y-16113089D02*
X2205000Y-16094042D01*
X2224048Y-16084518D01*
X2252619Y-16084518D01*
X2271667Y-16094042D01*
X2281190Y-16113089D01*
X2281190Y-16217851D01*
X2376429Y-16217851D02*
X2376429Y-16084518D01*
X2376429Y-16103565D02*
X2385952Y-16094042D01*
X2405000Y-16084518D01*
X2433571Y-16084518D01*
X2452619Y-16094042D01*
X2462143Y-16113089D01*
X2462143Y-16217851D01*
X2462143Y-16113089D02*
X2471667Y-16094042D01*
X2490714Y-16084518D01*
X2519286Y-16084518D01*
X2538333Y-16094042D01*
X2547857Y-16113089D01*
X2547857Y-16217851D01*
X2938333Y-16008327D02*
X2766905Y-16265470D01*
X3195476Y-16017851D02*
X3214524Y-16017851D01*
X3233571Y-16027375D01*
X3243095Y-16036899D01*
X3252619Y-16055946D01*
X3262143Y-16094042D01*
X3262143Y-16141661D01*
X3252619Y-16179756D01*
X3243095Y-16198803D01*
X3233571Y-16208327D01*
X3214524Y-16217851D01*
X3195476Y-16217851D01*
X3176428Y-16208327D01*
X3166905Y-16198803D01*
X3157381Y-16179756D01*
X3147857Y-16141661D01*
X3147857Y-16094042D01*
X3157381Y-16055946D01*
X3166905Y-16036899D01*
X3176428Y-16027375D01*
X3195476Y-16017851D01*
X3347857Y-16198803D02*
X3357381Y-16208327D01*
X3347857Y-16217851D01*
X3338333Y-16208327D01*
X3347857Y-16198803D01*
X3347857Y-16217851D01*
X3481190Y-16017851D02*
X3500238Y-16017851D01*
X3519286Y-16027375D01*
X3528809Y-16036899D01*
X3538333Y-16055946D01*
X3547857Y-16094042D01*
X3547857Y-16141661D01*
X3538333Y-16179756D01*
X3528809Y-16198803D01*
X3519286Y-16208327D01*
X3500238Y-16217851D01*
X3481190Y-16217851D01*
X3462143Y-16208327D01*
X3452619Y-16198803D01*
X3443095Y-16179756D01*
X3433571Y-16141661D01*
X3433571Y-16094042D01*
X3443095Y-16055946D01*
X3452619Y-16036899D01*
X3462143Y-16027375D01*
X3481190Y-16017851D01*
X3624048Y-16036899D02*
X3633571Y-16027375D01*
X3652619Y-16017851D01*
X3700238Y-16017851D01*
X3719286Y-16027375D01*
X3728809Y-16036899D01*
X3738333Y-16055946D01*
X3738333Y-16074994D01*
X3728809Y-16103565D01*
X3614524Y-16217851D01*
X3738333Y-16217851D01*
X3805000Y-16017851D02*
X3928809Y-16017851D01*
X3862143Y-16094042D01*
X3890714Y-16094042D01*
X3909762Y-16103565D01*
X3919286Y-16113089D01*
X3928809Y-16132137D01*
X3928809Y-16179756D01*
X3919286Y-16198803D01*
X3909762Y-16208327D01*
X3890714Y-16217851D01*
X3833571Y-16217851D01*
X3814524Y-16208327D01*
X3805000Y-16198803D01*
X4100238Y-16017851D02*
X4062143Y-16017851D01*
X4043095Y-16027375D01*
X4033571Y-16036899D01*
X4014524Y-16065470D01*
X4005000Y-16103565D01*
X4005000Y-16179756D01*
X4014524Y-16198803D01*
X4024048Y-16208327D01*
X4043095Y-16217851D01*
X4081190Y-16217851D01*
X4100238Y-16208327D01*
X4109762Y-16198803D01*
X4119286Y-16179756D01*
X4119286Y-16132137D01*
X4109762Y-16113089D01*
X4100238Y-16103565D01*
X4081190Y-16094042D01*
X4043095Y-16094042D01*
X4024048Y-16103565D01*
X4014524Y-16113089D01*
X4005000Y-16132137D01*
X4195476Y-16017851D02*
X4195476Y-16055946D01*
X4271667Y-16017851D02*
X4271667Y-16055946D01*
X4566905Y-16294042D02*
X4557381Y-16284518D01*
X4538333Y-16255946D01*
X4528810Y-16236899D01*
X4519286Y-16208327D01*
X4509762Y-16160708D01*
X4509762Y-16122613D01*
X4519286Y-16074994D01*
X4528810Y-16046423D01*
X4538333Y-16027375D01*
X4557381Y-15998803D01*
X4566905Y-15989280D01*
X4633571Y-16036899D02*
X4643095Y-16027375D01*
X4662143Y-16017851D01*
X4709762Y-16017851D01*
X4728810Y-16027375D01*
X4738333Y-16036899D01*
X4747857Y-16055946D01*
X4747857Y-16074994D01*
X4738333Y-16103565D01*
X4624048Y-16217851D01*
X4747857Y-16217851D01*
X4985952Y-16217851D02*
X4985952Y-16017851D01*
X5071667Y-16217851D02*
X5071667Y-16113089D01*
X5062143Y-16094042D01*
X5043095Y-16084518D01*
X5014524Y-16084518D01*
X4995476Y-16094042D01*
X4985952Y-16103565D01*
X5195476Y-16217851D02*
X5176429Y-16208327D01*
X5166905Y-16198803D01*
X5157381Y-16179756D01*
X5157381Y-16122613D01*
X5166905Y-16103565D01*
X5176429Y-16094042D01*
X5195476Y-16084518D01*
X5224048Y-16084518D01*
X5243095Y-16094042D01*
X5252619Y-16103565D01*
X5262143Y-16122613D01*
X5262143Y-16179756D01*
X5252619Y-16198803D01*
X5243095Y-16208327D01*
X5224048Y-16217851D01*
X5195476Y-16217851D01*
X5376429Y-16217851D02*
X5357381Y-16208327D01*
X5347857Y-16189280D01*
X5347857Y-16017851D01*
X5528810Y-16208327D02*
X5509762Y-16217851D01*
X5471667Y-16217851D01*
X5452619Y-16208327D01*
X5443095Y-16189280D01*
X5443095Y-16113089D01*
X5452619Y-16094042D01*
X5471667Y-16084518D01*
X5509762Y-16084518D01*
X5528810Y-16094042D01*
X5538333Y-16113089D01*
X5538333Y-16132137D01*
X5443095Y-16151184D01*
X5614524Y-16208327D02*
X5633571Y-16217851D01*
X5671667Y-16217851D01*
X5690714Y-16208327D01*
X5700238Y-16189280D01*
X5700238Y-16179756D01*
X5690714Y-16160708D01*
X5671667Y-16151184D01*
X5643095Y-16151184D01*
X5624048Y-16141661D01*
X5614524Y-16122613D01*
X5614524Y-16113089D01*
X5624048Y-16094042D01*
X5643095Y-16084518D01*
X5671667Y-16084518D01*
X5690714Y-16094042D01*
X5938333Y-16141661D02*
X6090714Y-16141661D01*
X6014524Y-16217851D02*
X6014524Y-16065470D01*
X6424048Y-16084518D02*
X6424048Y-16217851D01*
X6376428Y-16008327D02*
X6328809Y-16151184D01*
X6452619Y-16151184D01*
X6671667Y-16208327D02*
X6690714Y-16217851D01*
X6728809Y-16217851D01*
X6747857Y-16208327D01*
X6757381Y-16189280D01*
X6757381Y-16179756D01*
X6747857Y-16160708D01*
X6728809Y-16151184D01*
X6700238Y-16151184D01*
X6681190Y-16141661D01*
X6671667Y-16122613D01*
X6671667Y-16113089D01*
X6681190Y-16094042D01*
X6700238Y-16084518D01*
X6728809Y-16084518D01*
X6747857Y-16094042D01*
X6871667Y-16217851D02*
X6852619Y-16208327D01*
X6843095Y-16189280D01*
X6843095Y-16017851D01*
X6976428Y-16217851D02*
X6957381Y-16208327D01*
X6947857Y-16198803D01*
X6938333Y-16179756D01*
X6938333Y-16122613D01*
X6947857Y-16103565D01*
X6957381Y-16094042D01*
X6976428Y-16084518D01*
X7005000Y-16084518D01*
X7024048Y-16094042D01*
X7033571Y-16103565D01*
X7043095Y-16122613D01*
X7043095Y-16179756D01*
X7033571Y-16198803D01*
X7024048Y-16208327D01*
X7005000Y-16217851D01*
X6976428Y-16217851D01*
X7100238Y-16084518D02*
X7176428Y-16084518D01*
X7128809Y-16017851D02*
X7128809Y-16189280D01*
X7138333Y-16208327D01*
X7157381Y-16217851D01*
X7176428Y-16217851D01*
X7233571Y-16208327D02*
X7252619Y-16217851D01*
X7290714Y-16217851D01*
X7309762Y-16208327D01*
X7319286Y-16189280D01*
X7319286Y-16179756D01*
X7309762Y-16160708D01*
X7290714Y-16151184D01*
X7262143Y-16151184D01*
X7243095Y-16141661D01*
X7233571Y-16122613D01*
X7233571Y-16113089D01*
X7243095Y-16094042D01*
X7262143Y-16084518D01*
X7290714Y-16084518D01*
X7309762Y-16094042D01*
X7385952Y-16294042D02*
X7395476Y-16284518D01*
X7414524Y-16255946D01*
X7424048Y-16236899D01*
X7433571Y-16208327D01*
X7443095Y-16160708D01*
X7443095Y-16122613D01*
X7433571Y-16074994D01*
X7424048Y-16046423D01*
X7414524Y-16027375D01*
X7395476Y-15998803D01*
X7385952Y-15989280D01*
D14*
X984749Y-16416124D02*
X984749Y-16366626D01*
X935251Y-16366626D01*
X935251Y-16416124D01*
X984749Y-16416124D01*
D11*
X1290714Y-16281851D02*
X1309762Y-16281851D01*
X1328810Y-16291375D01*
X1338333Y-16300899D01*
X1347857Y-16319946D01*
X1357381Y-16358042D01*
X1357381Y-16405661D01*
X1347857Y-16443756D01*
X1338333Y-16462803D01*
X1328810Y-16472327D01*
X1309762Y-16481851D01*
X1290714Y-16481851D01*
X1271667Y-16472327D01*
X1262143Y-16462803D01*
X1252619Y-16443756D01*
X1243095Y-16405661D01*
X1243095Y-16358042D01*
X1252619Y-16319946D01*
X1262143Y-16300899D01*
X1271667Y-16291375D01*
X1290714Y-16281851D01*
X1443095Y-16462803D02*
X1452619Y-16472327D01*
X1443095Y-16481851D01*
X1433571Y-16472327D01*
X1443095Y-16462803D01*
X1443095Y-16481851D01*
X1519286Y-16281851D02*
X1652619Y-16281851D01*
X1566905Y-16481851D01*
X1766905Y-16281851D02*
X1785952Y-16281851D01*
X1805000Y-16291375D01*
X1814524Y-16300899D01*
X1824048Y-16319946D01*
X1833571Y-16358042D01*
X1833571Y-16405661D01*
X1824048Y-16443756D01*
X1814524Y-16462803D01*
X1805000Y-16472327D01*
X1785952Y-16481851D01*
X1766905Y-16481851D01*
X1747857Y-16472327D01*
X1738333Y-16462803D01*
X1728809Y-16443756D01*
X1719286Y-16405661D01*
X1719286Y-16358042D01*
X1728809Y-16319946D01*
X1738333Y-16300899D01*
X1747857Y-16291375D01*
X1766905Y-16281851D01*
X1957381Y-16281851D02*
X1976428Y-16281851D01*
X1995476Y-16291375D01*
X2005000Y-16300899D01*
X2014524Y-16319946D01*
X2024048Y-16358042D01*
X2024048Y-16405661D01*
X2014524Y-16443756D01*
X2005000Y-16462803D01*
X1995476Y-16472327D01*
X1976428Y-16481851D01*
X1957381Y-16481851D01*
X1938333Y-16472327D01*
X1928809Y-16462803D01*
X1919286Y-16443756D01*
X1909762Y-16405661D01*
X1909762Y-16358042D01*
X1919286Y-16319946D01*
X1928809Y-16300899D01*
X1938333Y-16291375D01*
X1957381Y-16281851D01*
X2109762Y-16481851D02*
X2109762Y-16348518D01*
X2109762Y-16367565D02*
X2119286Y-16358042D01*
X2138333Y-16348518D01*
X2166905Y-16348518D01*
X2185952Y-16358042D01*
X2195476Y-16377089D01*
X2195476Y-16481851D01*
X2195476Y-16377089D02*
X2205000Y-16358042D01*
X2224048Y-16348518D01*
X2252619Y-16348518D01*
X2271667Y-16358042D01*
X2281190Y-16377089D01*
X2281190Y-16481851D01*
X2376429Y-16481851D02*
X2376429Y-16348518D01*
X2376429Y-16367565D02*
X2385952Y-16358042D01*
X2405000Y-16348518D01*
X2433571Y-16348518D01*
X2452619Y-16358042D01*
X2462143Y-16377089D01*
X2462143Y-16481851D01*
X2462143Y-16377089D02*
X2471667Y-16358042D01*
X2490714Y-16348518D01*
X2519286Y-16348518D01*
X2538333Y-16358042D01*
X2547857Y-16377089D01*
X2547857Y-16481851D01*
X2938333Y-16272327D02*
X2766905Y-16529470D01*
X3195476Y-16281851D02*
X3214524Y-16281851D01*
X3233571Y-16291375D01*
X3243095Y-16300899D01*
X3252619Y-16319946D01*
X3262143Y-16358042D01*
X3262143Y-16405661D01*
X3252619Y-16443756D01*
X3243095Y-16462803D01*
X3233571Y-16472327D01*
X3214524Y-16481851D01*
X3195476Y-16481851D01*
X3176428Y-16472327D01*
X3166905Y-16462803D01*
X3157381Y-16443756D01*
X3147857Y-16405661D01*
X3147857Y-16358042D01*
X3157381Y-16319946D01*
X3166905Y-16300899D01*
X3176428Y-16291375D01*
X3195476Y-16281851D01*
X3347857Y-16462803D02*
X3357381Y-16472327D01*
X3347857Y-16481851D01*
X3338333Y-16472327D01*
X3347857Y-16462803D01*
X3347857Y-16481851D01*
X3481190Y-16281851D02*
X3500238Y-16281851D01*
X3519286Y-16291375D01*
X3528809Y-16300899D01*
X3538333Y-16319946D01*
X3547857Y-16358042D01*
X3547857Y-16405661D01*
X3538333Y-16443756D01*
X3528809Y-16462803D01*
X3519286Y-16472327D01*
X3500238Y-16481851D01*
X3481190Y-16481851D01*
X3462143Y-16472327D01*
X3452619Y-16462803D01*
X3443095Y-16443756D01*
X3433571Y-16405661D01*
X3433571Y-16358042D01*
X3443095Y-16319946D01*
X3452619Y-16300899D01*
X3462143Y-16291375D01*
X3481190Y-16281851D01*
X3624048Y-16300899D02*
X3633571Y-16291375D01*
X3652619Y-16281851D01*
X3700238Y-16281851D01*
X3719286Y-16291375D01*
X3728809Y-16300899D01*
X3738333Y-16319946D01*
X3738333Y-16338994D01*
X3728809Y-16367565D01*
X3614524Y-16481851D01*
X3738333Y-16481851D01*
X3805000Y-16281851D02*
X3938333Y-16281851D01*
X3852619Y-16481851D01*
X4100238Y-16281851D02*
X4062143Y-16281851D01*
X4043095Y-16291375D01*
X4033571Y-16300899D01*
X4014524Y-16329470D01*
X4005000Y-16367565D01*
X4005000Y-16443756D01*
X4014524Y-16462803D01*
X4024048Y-16472327D01*
X4043095Y-16481851D01*
X4081190Y-16481851D01*
X4100238Y-16472327D01*
X4109762Y-16462803D01*
X4119286Y-16443756D01*
X4119286Y-16396137D01*
X4109762Y-16377089D01*
X4100238Y-16367565D01*
X4081190Y-16358042D01*
X4043095Y-16358042D01*
X4024048Y-16367565D01*
X4014524Y-16377089D01*
X4005000Y-16396137D01*
X4195476Y-16281851D02*
X4195476Y-16319946D01*
X4271667Y-16281851D02*
X4271667Y-16319946D01*
X4566905Y-16558042D02*
X4557381Y-16548518D01*
X4538333Y-16519946D01*
X4528810Y-16500899D01*
X4519286Y-16472327D01*
X4509762Y-16424708D01*
X4509762Y-16386613D01*
X4519286Y-16338994D01*
X4528810Y-16310423D01*
X4538333Y-16291375D01*
X4557381Y-16262803D01*
X4566905Y-16253280D01*
X4747857Y-16481851D02*
X4633571Y-16481851D01*
X4690714Y-16481851D02*
X4690714Y-16281851D01*
X4671667Y-16310423D01*
X4652619Y-16329470D01*
X4633571Y-16338994D01*
X4824048Y-16300899D02*
X4833571Y-16291375D01*
X4852619Y-16281851D01*
X4900238Y-16281851D01*
X4919286Y-16291375D01*
X4928810Y-16300899D01*
X4938333Y-16319946D01*
X4938333Y-16338994D01*
X4928810Y-16367565D01*
X4814524Y-16481851D01*
X4938333Y-16481851D01*
X5176429Y-16481851D02*
X5176429Y-16281851D01*
X5262143Y-16481851D02*
X5262143Y-16377089D01*
X5252619Y-16358042D01*
X5233571Y-16348518D01*
X5205000Y-16348518D01*
X5185952Y-16358042D01*
X5176429Y-16367565D01*
X5385952Y-16481851D02*
X5366905Y-16472327D01*
X5357381Y-16462803D01*
X5347857Y-16443756D01*
X5347857Y-16386613D01*
X5357381Y-16367565D01*
X5366905Y-16358042D01*
X5385952Y-16348518D01*
X5414524Y-16348518D01*
X5433571Y-16358042D01*
X5443095Y-16367565D01*
X5452619Y-16386613D01*
X5452619Y-16443756D01*
X5443095Y-16462803D01*
X5433571Y-16472327D01*
X5414524Y-16481851D01*
X5385952Y-16481851D01*
X5566905Y-16481851D02*
X5547857Y-16472327D01*
X5538333Y-16453280D01*
X5538333Y-16281851D01*
X5719286Y-16472327D02*
X5700238Y-16481851D01*
X5662143Y-16481851D01*
X5643095Y-16472327D01*
X5633571Y-16453280D01*
X5633571Y-16377089D01*
X5643095Y-16358042D01*
X5662143Y-16348518D01*
X5700238Y-16348518D01*
X5719286Y-16358042D01*
X5728809Y-16377089D01*
X5728809Y-16396137D01*
X5633571Y-16415184D01*
X5805000Y-16472327D02*
X5824048Y-16481851D01*
X5862143Y-16481851D01*
X5881190Y-16472327D01*
X5890714Y-16453280D01*
X5890714Y-16443756D01*
X5881190Y-16424708D01*
X5862143Y-16415184D01*
X5833571Y-16415184D01*
X5814524Y-16405661D01*
X5805000Y-16386613D01*
X5805000Y-16377089D01*
X5814524Y-16358042D01*
X5833571Y-16348518D01*
X5862143Y-16348518D01*
X5881190Y-16358042D01*
X5957381Y-16558042D02*
X5966905Y-16548518D01*
X5985952Y-16519946D01*
X5995476Y-16500899D01*
X6005000Y-16472327D01*
X6014524Y-16424708D01*
X6014524Y-16386613D01*
X6005000Y-16338994D01*
X5995476Y-16310423D01*
X5985952Y-16291375D01*
X5966905Y-16262803D01*
X5957381Y-16253280D01*
D15*
X959500Y-16690875D02*
X995000Y-16655375D01*
X959500Y-16619875D01*
X924000Y-16655375D01*
X959500Y-16690875D01*
D11*
X1290714Y-16545851D02*
X1309762Y-16545851D01*
X1328810Y-16555375D01*
X1338333Y-16564899D01*
X1347857Y-16583946D01*
X1357381Y-16622042D01*
X1357381Y-16669661D01*
X1347857Y-16707756D01*
X1338333Y-16726803D01*
X1328810Y-16736327D01*
X1309762Y-16745851D01*
X1290714Y-16745851D01*
X1271667Y-16736327D01*
X1262143Y-16726803D01*
X1252619Y-16707756D01*
X1243095Y-16669661D01*
X1243095Y-16622042D01*
X1252619Y-16583946D01*
X1262143Y-16564899D01*
X1271667Y-16555375D01*
X1290714Y-16545851D01*
X1443095Y-16726803D02*
X1452619Y-16736327D01*
X1443095Y-16745851D01*
X1433571Y-16736327D01*
X1443095Y-16726803D01*
X1443095Y-16745851D01*
X1519286Y-16545851D02*
X1652619Y-16545851D01*
X1566905Y-16745851D01*
X1833571Y-16745851D02*
X1719286Y-16745851D01*
X1776428Y-16745851D02*
X1776428Y-16545851D01*
X1757381Y-16574423D01*
X1738333Y-16593470D01*
X1719286Y-16602994D01*
X1957381Y-16545851D02*
X1976428Y-16545851D01*
X1995476Y-16555375D01*
X2005000Y-16564899D01*
X2014524Y-16583946D01*
X2024048Y-16622042D01*
X2024048Y-16669661D01*
X2014524Y-16707756D01*
X2005000Y-16726803D01*
X1995476Y-16736327D01*
X1976428Y-16745851D01*
X1957381Y-16745851D01*
X1938333Y-16736327D01*
X1928809Y-16726803D01*
X1919286Y-16707756D01*
X1909762Y-16669661D01*
X1909762Y-16622042D01*
X1919286Y-16583946D01*
X1928809Y-16564899D01*
X1938333Y-16555375D01*
X1957381Y-16545851D01*
X2109762Y-16745851D02*
X2109762Y-16612518D01*
X2109762Y-16631565D02*
X2119286Y-16622042D01*
X2138333Y-16612518D01*
X2166905Y-16612518D01*
X2185952Y-16622042D01*
X2195476Y-16641089D01*
X2195476Y-16745851D01*
X2195476Y-16641089D02*
X2205000Y-16622042D01*
X2224048Y-16612518D01*
X2252619Y-16612518D01*
X2271667Y-16622042D01*
X2281190Y-16641089D01*
X2281190Y-16745851D01*
X2376429Y-16745851D02*
X2376429Y-16612518D01*
X2376429Y-16631565D02*
X2385952Y-16622042D01*
X2405000Y-16612518D01*
X2433571Y-16612518D01*
X2452619Y-16622042D01*
X2462143Y-16641089D01*
X2462143Y-16745851D01*
X2462143Y-16641089D02*
X2471667Y-16622042D01*
X2490714Y-16612518D01*
X2519286Y-16612518D01*
X2538333Y-16622042D01*
X2547857Y-16641089D01*
X2547857Y-16745851D01*
X2938333Y-16536327D02*
X2766905Y-16793470D01*
X3195476Y-16545851D02*
X3214524Y-16545851D01*
X3233571Y-16555375D01*
X3243095Y-16564899D01*
X3252619Y-16583946D01*
X3262143Y-16622042D01*
X3262143Y-16669661D01*
X3252619Y-16707756D01*
X3243095Y-16726803D01*
X3233571Y-16736327D01*
X3214524Y-16745851D01*
X3195476Y-16745851D01*
X3176428Y-16736327D01*
X3166905Y-16726803D01*
X3157381Y-16707756D01*
X3147857Y-16669661D01*
X3147857Y-16622042D01*
X3157381Y-16583946D01*
X3166905Y-16564899D01*
X3176428Y-16555375D01*
X3195476Y-16545851D01*
X3347857Y-16726803D02*
X3357381Y-16736327D01*
X3347857Y-16745851D01*
X3338333Y-16736327D01*
X3347857Y-16726803D01*
X3347857Y-16745851D01*
X3481190Y-16545851D02*
X3500238Y-16545851D01*
X3519286Y-16555375D01*
X3528809Y-16564899D01*
X3538333Y-16583946D01*
X3547857Y-16622042D01*
X3547857Y-16669661D01*
X3538333Y-16707756D01*
X3528809Y-16726803D01*
X3519286Y-16736327D01*
X3500238Y-16745851D01*
X3481190Y-16745851D01*
X3462143Y-16736327D01*
X3452619Y-16726803D01*
X3443095Y-16707756D01*
X3433571Y-16669661D01*
X3433571Y-16622042D01*
X3443095Y-16583946D01*
X3452619Y-16564899D01*
X3462143Y-16555375D01*
X3481190Y-16545851D01*
X3624048Y-16564899D02*
X3633571Y-16555375D01*
X3652619Y-16545851D01*
X3700238Y-16545851D01*
X3719286Y-16555375D01*
X3728809Y-16564899D01*
X3738333Y-16583946D01*
X3738333Y-16602994D01*
X3728809Y-16631565D01*
X3614524Y-16745851D01*
X3738333Y-16745851D01*
X3852619Y-16631565D02*
X3833571Y-16622042D01*
X3824048Y-16612518D01*
X3814524Y-16593470D01*
X3814524Y-16583946D01*
X3824048Y-16564899D01*
X3833571Y-16555375D01*
X3852619Y-16545851D01*
X3890714Y-16545851D01*
X3909762Y-16555375D01*
X3919286Y-16564899D01*
X3928809Y-16583946D01*
X3928809Y-16593470D01*
X3919286Y-16612518D01*
X3909762Y-16622042D01*
X3890714Y-16631565D01*
X3852619Y-16631565D01*
X3833571Y-16641089D01*
X3824048Y-16650613D01*
X3814524Y-16669661D01*
X3814524Y-16707756D01*
X3824048Y-16726803D01*
X3833571Y-16736327D01*
X3852619Y-16745851D01*
X3890714Y-16745851D01*
X3909762Y-16736327D01*
X3919286Y-16726803D01*
X3928809Y-16707756D01*
X3928809Y-16669661D01*
X3919286Y-16650613D01*
X3909762Y-16641089D01*
X3890714Y-16631565D01*
X4052619Y-16545851D02*
X4071667Y-16545851D01*
X4090714Y-16555375D01*
X4100238Y-16564899D01*
X4109762Y-16583946D01*
X4119286Y-16622042D01*
X4119286Y-16669661D01*
X4109762Y-16707756D01*
X4100238Y-16726803D01*
X4090714Y-16736327D01*
X4071667Y-16745851D01*
X4052619Y-16745851D01*
X4033571Y-16736327D01*
X4024048Y-16726803D01*
X4014524Y-16707756D01*
X4005000Y-16669661D01*
X4005000Y-16622042D01*
X4014524Y-16583946D01*
X4024048Y-16564899D01*
X4033571Y-16555375D01*
X4052619Y-16545851D01*
X4195476Y-16545851D02*
X4195476Y-16583946D01*
X4271667Y-16545851D02*
X4271667Y-16583946D01*
X4566905Y-16822042D02*
X4557381Y-16812518D01*
X4538333Y-16783946D01*
X4528810Y-16764899D01*
X4519286Y-16736327D01*
X4509762Y-16688708D01*
X4509762Y-16650613D01*
X4519286Y-16602994D01*
X4528810Y-16574423D01*
X4538333Y-16555375D01*
X4557381Y-16526803D01*
X4566905Y-16517280D01*
X4633571Y-16564899D02*
X4643095Y-16555375D01*
X4662143Y-16545851D01*
X4709762Y-16545851D01*
X4728810Y-16555375D01*
X4738333Y-16564899D01*
X4747857Y-16583946D01*
X4747857Y-16602994D01*
X4738333Y-16631565D01*
X4624048Y-16745851D01*
X4747857Y-16745851D01*
X4985952Y-16745851D02*
X4985952Y-16545851D01*
X5071667Y-16745851D02*
X5071667Y-16641089D01*
X5062143Y-16622042D01*
X5043095Y-16612518D01*
X5014524Y-16612518D01*
X4995476Y-16622042D01*
X4985952Y-16631565D01*
X5195476Y-16745851D02*
X5176429Y-16736327D01*
X5166905Y-16726803D01*
X5157381Y-16707756D01*
X5157381Y-16650613D01*
X5166905Y-16631565D01*
X5176429Y-16622042D01*
X5195476Y-16612518D01*
X5224048Y-16612518D01*
X5243095Y-16622042D01*
X5252619Y-16631565D01*
X5262143Y-16650613D01*
X5262143Y-16707756D01*
X5252619Y-16726803D01*
X5243095Y-16736327D01*
X5224048Y-16745851D01*
X5195476Y-16745851D01*
X5376429Y-16745851D02*
X5357381Y-16736327D01*
X5347857Y-16717280D01*
X5347857Y-16545851D01*
X5528810Y-16736327D02*
X5509762Y-16745851D01*
X5471667Y-16745851D01*
X5452619Y-16736327D01*
X5443095Y-16717280D01*
X5443095Y-16641089D01*
X5452619Y-16622042D01*
X5471667Y-16612518D01*
X5509762Y-16612518D01*
X5528810Y-16622042D01*
X5538333Y-16641089D01*
X5538333Y-16660137D01*
X5443095Y-16679184D01*
X5614524Y-16736327D02*
X5633571Y-16745851D01*
X5671667Y-16745851D01*
X5690714Y-16736327D01*
X5700238Y-16717280D01*
X5700238Y-16707756D01*
X5690714Y-16688708D01*
X5671667Y-16679184D01*
X5643095Y-16679184D01*
X5624048Y-16669661D01*
X5614524Y-16650613D01*
X5614524Y-16641089D01*
X5624048Y-16622042D01*
X5643095Y-16612518D01*
X5671667Y-16612518D01*
X5690714Y-16622042D01*
X5766905Y-16822042D02*
X5776428Y-16812518D01*
X5795476Y-16783946D01*
X5805000Y-16764899D01*
X5814524Y-16736327D01*
X5824048Y-16688708D01*
X5824048Y-16650613D01*
X5814524Y-16602994D01*
X5805000Y-16574423D01*
X5795476Y-16555375D01*
X5776428Y-16526803D01*
X5766905Y-16517280D01*
D16*
X921340Y-16882545D02*
X995000Y-16956205D01*
X995000Y-16882545D02*
X921340Y-16956205D01*
X995000Y-16919375D02*
G75*
G03*
X995000Y-16919375I-36830J0D01*
G01*
D11*
X1290714Y-16809851D02*
X1309762Y-16809851D01*
X1328810Y-16819375D01*
X1338333Y-16828899D01*
X1347857Y-16847946D01*
X1357381Y-16886042D01*
X1357381Y-16933661D01*
X1347857Y-16971756D01*
X1338333Y-16990804D01*
X1328810Y-17000327D01*
X1309762Y-17009851D01*
X1290714Y-17009851D01*
X1271667Y-17000327D01*
X1262143Y-16990804D01*
X1252619Y-16971756D01*
X1243095Y-16933661D01*
X1243095Y-16886042D01*
X1252619Y-16847946D01*
X1262143Y-16828899D01*
X1271667Y-16819375D01*
X1290714Y-16809851D01*
X1443095Y-16990804D02*
X1452619Y-17000327D01*
X1443095Y-17009851D01*
X1433571Y-17000327D01*
X1443095Y-16990804D01*
X1443095Y-17009851D01*
X1519286Y-16809851D02*
X1652619Y-16809851D01*
X1566905Y-17009851D01*
X1709762Y-16809851D02*
X1833571Y-16809851D01*
X1766905Y-16886042D01*
X1795476Y-16886042D01*
X1814524Y-16895565D01*
X1824048Y-16905089D01*
X1833571Y-16924137D01*
X1833571Y-16971756D01*
X1824048Y-16990804D01*
X1814524Y-17000327D01*
X1795476Y-17009851D01*
X1738333Y-17009851D01*
X1719286Y-17000327D01*
X1709762Y-16990804D01*
X1900238Y-16809851D02*
X2033571Y-16809851D01*
X1947857Y-17009851D01*
X2109762Y-17009851D02*
X2109762Y-16876518D01*
X2109762Y-16895565D02*
X2119286Y-16886042D01*
X2138333Y-16876518D01*
X2166905Y-16876518D01*
X2185952Y-16886042D01*
X2195476Y-16905089D01*
X2195476Y-17009851D01*
X2195476Y-16905089D02*
X2205000Y-16886042D01*
X2224048Y-16876518D01*
X2252619Y-16876518D01*
X2271667Y-16886042D01*
X2281190Y-16905089D01*
X2281190Y-17009851D01*
X2376429Y-17009851D02*
X2376429Y-16876518D01*
X2376429Y-16895565D02*
X2385952Y-16886042D01*
X2405000Y-16876518D01*
X2433571Y-16876518D01*
X2452619Y-16886042D01*
X2462143Y-16905089D01*
X2462143Y-17009851D01*
X2462143Y-16905089D02*
X2471667Y-16886042D01*
X2490714Y-16876518D01*
X2519286Y-16876518D01*
X2538333Y-16886042D01*
X2547857Y-16905089D01*
X2547857Y-17009851D01*
X2938333Y-16800327D02*
X2766905Y-17057470D01*
X3195476Y-16809851D02*
X3214524Y-16809851D01*
X3233571Y-16819375D01*
X3243095Y-16828899D01*
X3252619Y-16847946D01*
X3262143Y-16886042D01*
X3262143Y-16933661D01*
X3252619Y-16971756D01*
X3243095Y-16990804D01*
X3233571Y-17000327D01*
X3214524Y-17009851D01*
X3195476Y-17009851D01*
X3176428Y-17000327D01*
X3166905Y-16990804D01*
X3157381Y-16971756D01*
X3147857Y-16933661D01*
X3147857Y-16886042D01*
X3157381Y-16847946D01*
X3166905Y-16828899D01*
X3176428Y-16819375D01*
X3195476Y-16809851D01*
X3347857Y-16990804D02*
X3357381Y-17000327D01*
X3347857Y-17009851D01*
X3338333Y-17000327D01*
X3347857Y-16990804D01*
X3347857Y-17009851D01*
X3481190Y-16809851D02*
X3500238Y-16809851D01*
X3519286Y-16819375D01*
X3528809Y-16828899D01*
X3538333Y-16847946D01*
X3547857Y-16886042D01*
X3547857Y-16933661D01*
X3538333Y-16971756D01*
X3528809Y-16990804D01*
X3519286Y-17000327D01*
X3500238Y-17009851D01*
X3481190Y-17009851D01*
X3462143Y-17000327D01*
X3452619Y-16990804D01*
X3443095Y-16971756D01*
X3433571Y-16933661D01*
X3433571Y-16886042D01*
X3443095Y-16847946D01*
X3452619Y-16828899D01*
X3462143Y-16819375D01*
X3481190Y-16809851D01*
X3624048Y-16828899D02*
X3633571Y-16819375D01*
X3652619Y-16809851D01*
X3700238Y-16809851D01*
X3719286Y-16819375D01*
X3728809Y-16828899D01*
X3738333Y-16847946D01*
X3738333Y-16866994D01*
X3728809Y-16895565D01*
X3614524Y-17009851D01*
X3738333Y-17009851D01*
X3833571Y-17009851D02*
X3871667Y-17009851D01*
X3890714Y-17000327D01*
X3900238Y-16990804D01*
X3919286Y-16962232D01*
X3928809Y-16924137D01*
X3928809Y-16847946D01*
X3919286Y-16828899D01*
X3909762Y-16819375D01*
X3890714Y-16809851D01*
X3852619Y-16809851D01*
X3833571Y-16819375D01*
X3824048Y-16828899D01*
X3814524Y-16847946D01*
X3814524Y-16895565D01*
X3824048Y-16914613D01*
X3833571Y-16924137D01*
X3852619Y-16933661D01*
X3890714Y-16933661D01*
X3909762Y-16924137D01*
X3919286Y-16914613D01*
X3928809Y-16895565D01*
X4052619Y-16809851D02*
X4071667Y-16809851D01*
X4090714Y-16819375D01*
X4100238Y-16828899D01*
X4109762Y-16847946D01*
X4119286Y-16886042D01*
X4119286Y-16933661D01*
X4109762Y-16971756D01*
X4100238Y-16990804D01*
X4090714Y-17000327D01*
X4071667Y-17009851D01*
X4052619Y-17009851D01*
X4033571Y-17000327D01*
X4024048Y-16990804D01*
X4014524Y-16971756D01*
X4005000Y-16933661D01*
X4005000Y-16886042D01*
X4014524Y-16847946D01*
X4024048Y-16828899D01*
X4033571Y-16819375D01*
X4052619Y-16809851D01*
X4195476Y-16809851D02*
X4195476Y-16847946D01*
X4271667Y-16809851D02*
X4271667Y-16847946D01*
X4566905Y-17086042D02*
X4557381Y-17076518D01*
X4538333Y-17047946D01*
X4528810Y-17028899D01*
X4519286Y-17000327D01*
X4509762Y-16952708D01*
X4509762Y-16914613D01*
X4519286Y-16866994D01*
X4528810Y-16838423D01*
X4538333Y-16819375D01*
X4557381Y-16790804D01*
X4566905Y-16781280D01*
X4728810Y-16876518D02*
X4728810Y-17009851D01*
X4681190Y-16800327D02*
X4633571Y-16943185D01*
X4757381Y-16943185D01*
X4985952Y-17009851D02*
X4985952Y-16809851D01*
X5071667Y-17009851D02*
X5071667Y-16905089D01*
X5062143Y-16886042D01*
X5043095Y-16876518D01*
X5014524Y-16876518D01*
X4995476Y-16886042D01*
X4985952Y-16895565D01*
X5195476Y-17009851D02*
X5176429Y-17000327D01*
X5166905Y-16990804D01*
X5157381Y-16971756D01*
X5157381Y-16914613D01*
X5166905Y-16895565D01*
X5176429Y-16886042D01*
X5195476Y-16876518D01*
X5224048Y-16876518D01*
X5243095Y-16886042D01*
X5252619Y-16895565D01*
X5262143Y-16914613D01*
X5262143Y-16971756D01*
X5252619Y-16990804D01*
X5243095Y-17000327D01*
X5224048Y-17009851D01*
X5195476Y-17009851D01*
X5376429Y-17009851D02*
X5357381Y-17000327D01*
X5347857Y-16981280D01*
X5347857Y-16809851D01*
X5528810Y-17000327D02*
X5509762Y-17009851D01*
X5471667Y-17009851D01*
X5452619Y-17000327D01*
X5443095Y-16981280D01*
X5443095Y-16905089D01*
X5452619Y-16886042D01*
X5471667Y-16876518D01*
X5509762Y-16876518D01*
X5528810Y-16886042D01*
X5538333Y-16905089D01*
X5538333Y-16924137D01*
X5443095Y-16943185D01*
X5614524Y-17000327D02*
X5633571Y-17009851D01*
X5671667Y-17009851D01*
X5690714Y-17000327D01*
X5700238Y-16981280D01*
X5700238Y-16971756D01*
X5690714Y-16952708D01*
X5671667Y-16943185D01*
X5643095Y-16943185D01*
X5624048Y-16933661D01*
X5614524Y-16914613D01*
X5614524Y-16905089D01*
X5624048Y-16886042D01*
X5643095Y-16876518D01*
X5671667Y-16876518D01*
X5690714Y-16886042D01*
X5766905Y-17086042D02*
X5776428Y-17076518D01*
X5795476Y-17047946D01*
X5805000Y-17028899D01*
X5814524Y-17000327D01*
X5824048Y-16952708D01*
X5824048Y-16914613D01*
X5814524Y-16866994D01*
X5805000Y-16838423D01*
X5795476Y-16819375D01*
X5776428Y-16790804D01*
X5766905Y-16781280D01*
D17*
X915000Y-17143375D02*
X995000Y-17223375D01*
X995000Y-17143375D02*
X915000Y-17223375D01*
X955000Y-17143375D02*
X955000Y-17223375D01*
X915000Y-17183375D02*
X995000Y-17183375D01*
D11*
X1290714Y-17073851D02*
X1309762Y-17073851D01*
X1328810Y-17083375D01*
X1338333Y-17092899D01*
X1347857Y-17111946D01*
X1357381Y-17150042D01*
X1357381Y-17197661D01*
X1347857Y-17235756D01*
X1338333Y-17254804D01*
X1328810Y-17264327D01*
X1309762Y-17273851D01*
X1290714Y-17273851D01*
X1271667Y-17264327D01*
X1262143Y-17254804D01*
X1252619Y-17235756D01*
X1243095Y-17197661D01*
X1243095Y-17150042D01*
X1252619Y-17111946D01*
X1262143Y-17092899D01*
X1271667Y-17083375D01*
X1290714Y-17073851D01*
X1443095Y-17254804D02*
X1452619Y-17264327D01*
X1443095Y-17273851D01*
X1433571Y-17264327D01*
X1443095Y-17254804D01*
X1443095Y-17273851D01*
X1566905Y-17159565D02*
X1547857Y-17150042D01*
X1538333Y-17140518D01*
X1528809Y-17121470D01*
X1528809Y-17111946D01*
X1538333Y-17092899D01*
X1547857Y-17083375D01*
X1566905Y-17073851D01*
X1605000Y-17073851D01*
X1624048Y-17083375D01*
X1633571Y-17092899D01*
X1643095Y-17111946D01*
X1643095Y-17121470D01*
X1633571Y-17140518D01*
X1624048Y-17150042D01*
X1605000Y-17159565D01*
X1566905Y-17159565D01*
X1547857Y-17169089D01*
X1538333Y-17178613D01*
X1528809Y-17197661D01*
X1528809Y-17235756D01*
X1538333Y-17254804D01*
X1547857Y-17264327D01*
X1566905Y-17273851D01*
X1605000Y-17273851D01*
X1624048Y-17264327D01*
X1633571Y-17254804D01*
X1643095Y-17235756D01*
X1643095Y-17197661D01*
X1633571Y-17178613D01*
X1624048Y-17169089D01*
X1605000Y-17159565D01*
X1766905Y-17073851D02*
X1785952Y-17073851D01*
X1805000Y-17083375D01*
X1814524Y-17092899D01*
X1824048Y-17111946D01*
X1833571Y-17150042D01*
X1833571Y-17197661D01*
X1824048Y-17235756D01*
X1814524Y-17254804D01*
X1805000Y-17264327D01*
X1785952Y-17273851D01*
X1766905Y-17273851D01*
X1747857Y-17264327D01*
X1738333Y-17254804D01*
X1728809Y-17235756D01*
X1719286Y-17197661D01*
X1719286Y-17150042D01*
X1728809Y-17111946D01*
X1738333Y-17092899D01*
X1747857Y-17083375D01*
X1766905Y-17073851D01*
X1957381Y-17073851D02*
X1976428Y-17073851D01*
X1995476Y-17083375D01*
X2005000Y-17092899D01*
X2014524Y-17111946D01*
X2024048Y-17150042D01*
X2024048Y-17197661D01*
X2014524Y-17235756D01*
X2005000Y-17254804D01*
X1995476Y-17264327D01*
X1976428Y-17273851D01*
X1957381Y-17273851D01*
X1938333Y-17264327D01*
X1928809Y-17254804D01*
X1919286Y-17235756D01*
X1909762Y-17197661D01*
X1909762Y-17150042D01*
X1919286Y-17111946D01*
X1928809Y-17092899D01*
X1938333Y-17083375D01*
X1957381Y-17073851D01*
X2109762Y-17273851D02*
X2109762Y-17140518D01*
X2109762Y-17159565D02*
X2119286Y-17150042D01*
X2138333Y-17140518D01*
X2166905Y-17140518D01*
X2185952Y-17150042D01*
X2195476Y-17169089D01*
X2195476Y-17273851D01*
X2195476Y-17169089D02*
X2205000Y-17150042D01*
X2224048Y-17140518D01*
X2252619Y-17140518D01*
X2271667Y-17150042D01*
X2281190Y-17169089D01*
X2281190Y-17273851D01*
X2376429Y-17273851D02*
X2376429Y-17140518D01*
X2376429Y-17159565D02*
X2385952Y-17150042D01*
X2405000Y-17140518D01*
X2433571Y-17140518D01*
X2452619Y-17150042D01*
X2462143Y-17169089D01*
X2462143Y-17273851D01*
X2462143Y-17169089D02*
X2471667Y-17150042D01*
X2490714Y-17140518D01*
X2519286Y-17140518D01*
X2538333Y-17150042D01*
X2547857Y-17169089D01*
X2547857Y-17273851D01*
X2938333Y-17064327D02*
X2766905Y-17321470D01*
X3195476Y-17073851D02*
X3214524Y-17073851D01*
X3233571Y-17083375D01*
X3243095Y-17092899D01*
X3252619Y-17111946D01*
X3262143Y-17150042D01*
X3262143Y-17197661D01*
X3252619Y-17235756D01*
X3243095Y-17254804D01*
X3233571Y-17264327D01*
X3214524Y-17273851D01*
X3195476Y-17273851D01*
X3176428Y-17264327D01*
X3166905Y-17254804D01*
X3157381Y-17235756D01*
X3147857Y-17197661D01*
X3147857Y-17150042D01*
X3157381Y-17111946D01*
X3166905Y-17092899D01*
X3176428Y-17083375D01*
X3195476Y-17073851D01*
X3347857Y-17254804D02*
X3357381Y-17264327D01*
X3347857Y-17273851D01*
X3338333Y-17264327D01*
X3347857Y-17254804D01*
X3347857Y-17273851D01*
X3481190Y-17073851D02*
X3500238Y-17073851D01*
X3519286Y-17083375D01*
X3528809Y-17092899D01*
X3538333Y-17111946D01*
X3547857Y-17150042D01*
X3547857Y-17197661D01*
X3538333Y-17235756D01*
X3528809Y-17254804D01*
X3519286Y-17264327D01*
X3500238Y-17273851D01*
X3481190Y-17273851D01*
X3462143Y-17264327D01*
X3452619Y-17254804D01*
X3443095Y-17235756D01*
X3433571Y-17197661D01*
X3433571Y-17150042D01*
X3443095Y-17111946D01*
X3452619Y-17092899D01*
X3462143Y-17083375D01*
X3481190Y-17073851D01*
X3614524Y-17073851D02*
X3738333Y-17073851D01*
X3671667Y-17150042D01*
X3700238Y-17150042D01*
X3719286Y-17159565D01*
X3728809Y-17169089D01*
X3738333Y-17188137D01*
X3738333Y-17235756D01*
X3728809Y-17254804D01*
X3719286Y-17264327D01*
X3700238Y-17273851D01*
X3643095Y-17273851D01*
X3624048Y-17264327D01*
X3614524Y-17254804D01*
X3928809Y-17273851D02*
X3814524Y-17273851D01*
X3871667Y-17273851D02*
X3871667Y-17073851D01*
X3852619Y-17102423D01*
X3833571Y-17121470D01*
X3814524Y-17130994D01*
X4109762Y-17073851D02*
X4014524Y-17073851D01*
X4005000Y-17169089D01*
X4014524Y-17159565D01*
X4033571Y-17150042D01*
X4081190Y-17150042D01*
X4100238Y-17159565D01*
X4109762Y-17169089D01*
X4119286Y-17188137D01*
X4119286Y-17235756D01*
X4109762Y-17254804D01*
X4100238Y-17264327D01*
X4081190Y-17273851D01*
X4033571Y-17273851D01*
X4014524Y-17264327D01*
X4005000Y-17254804D01*
X4195476Y-17073851D02*
X4195476Y-17111946D01*
X4271667Y-17073851D02*
X4271667Y-17111946D01*
X4566905Y-17350042D02*
X4557381Y-17340518D01*
X4538333Y-17311946D01*
X4528810Y-17292899D01*
X4519286Y-17264327D01*
X4509762Y-17216708D01*
X4509762Y-17178613D01*
X4519286Y-17130994D01*
X4528810Y-17102423D01*
X4538333Y-17083375D01*
X4557381Y-17054804D01*
X4566905Y-17045280D01*
X4747857Y-17273851D02*
X4633571Y-17273851D01*
X4690714Y-17273851D02*
X4690714Y-17073851D01*
X4671667Y-17102423D01*
X4652619Y-17121470D01*
X4633571Y-17130994D01*
X4919286Y-17073851D02*
X4881190Y-17073851D01*
X4862143Y-17083375D01*
X4852619Y-17092899D01*
X4833571Y-17121470D01*
X4824048Y-17159565D01*
X4824048Y-17235756D01*
X4833571Y-17254804D01*
X4843095Y-17264327D01*
X4862143Y-17273851D01*
X4900238Y-17273851D01*
X4919286Y-17264327D01*
X4928810Y-17254804D01*
X4938333Y-17235756D01*
X4938333Y-17188137D01*
X4928810Y-17169089D01*
X4919286Y-17159565D01*
X4900238Y-17150042D01*
X4862143Y-17150042D01*
X4843095Y-17159565D01*
X4833571Y-17169089D01*
X4824048Y-17188137D01*
X5014524Y-17092899D02*
X5024048Y-17083375D01*
X5043095Y-17073851D01*
X5090714Y-17073851D01*
X5109762Y-17083375D01*
X5119286Y-17092899D01*
X5128810Y-17111946D01*
X5128810Y-17130994D01*
X5119286Y-17159565D01*
X5005000Y-17273851D01*
X5128810Y-17273851D01*
X5366905Y-17273851D02*
X5366905Y-17073851D01*
X5452619Y-17273851D02*
X5452619Y-17169089D01*
X5443095Y-17150042D01*
X5424048Y-17140518D01*
X5395476Y-17140518D01*
X5376429Y-17150042D01*
X5366905Y-17159565D01*
X5576429Y-17273851D02*
X5557381Y-17264327D01*
X5547857Y-17254804D01*
X5538333Y-17235756D01*
X5538333Y-17178613D01*
X5547857Y-17159565D01*
X5557381Y-17150042D01*
X5576429Y-17140518D01*
X5605000Y-17140518D01*
X5624048Y-17150042D01*
X5633571Y-17159565D01*
X5643095Y-17178613D01*
X5643095Y-17235756D01*
X5633571Y-17254804D01*
X5624048Y-17264327D01*
X5605000Y-17273851D01*
X5576429Y-17273851D01*
X5757381Y-17273851D02*
X5738333Y-17264327D01*
X5728809Y-17245280D01*
X5728809Y-17073851D01*
X5909762Y-17264327D02*
X5890714Y-17273851D01*
X5852619Y-17273851D01*
X5833571Y-17264327D01*
X5824048Y-17245280D01*
X5824048Y-17169089D01*
X5833571Y-17150042D01*
X5852619Y-17140518D01*
X5890714Y-17140518D01*
X5909762Y-17150042D01*
X5919286Y-17169089D01*
X5919286Y-17188137D01*
X5824048Y-17207185D01*
X5995476Y-17264327D02*
X6014524Y-17273851D01*
X6052619Y-17273851D01*
X6071667Y-17264327D01*
X6081190Y-17245280D01*
X6081190Y-17235756D01*
X6071667Y-17216708D01*
X6052619Y-17207185D01*
X6024048Y-17207185D01*
X6005000Y-17197661D01*
X5995476Y-17178613D01*
X5995476Y-17169089D01*
X6005000Y-17150042D01*
X6024048Y-17140518D01*
X6052619Y-17140518D01*
X6071667Y-17150042D01*
X6147857Y-17350042D02*
X6157381Y-17340518D01*
X6176428Y-17311946D01*
X6185952Y-17292899D01*
X6195476Y-17264327D01*
X6205000Y-17216708D01*
X6205000Y-17178613D01*
X6195476Y-17130994D01*
X6185952Y-17102423D01*
X6176428Y-17083375D01*
X6157381Y-17054804D01*
X6147857Y-17045280D01*
D18*
X895000Y-17397375D02*
X995000Y-17497375D01*
X995000Y-17397375D02*
X895000Y-17497375D01*
X980356Y-17482731D02*
X980356Y-17412019D01*
X909644Y-17412019D01*
X909644Y-17482731D01*
X980356Y-17482731D01*
D11*
X1357381Y-17537851D02*
X1243095Y-17537851D01*
X1300238Y-17537851D02*
X1300238Y-17337851D01*
X1281190Y-17366423D01*
X1262143Y-17385470D01*
X1243095Y-17394994D01*
X1443095Y-17518804D02*
X1452619Y-17528327D01*
X1443095Y-17537851D01*
X1433571Y-17528327D01*
X1443095Y-17518804D01*
X1443095Y-17537851D01*
X1576428Y-17337851D02*
X1595476Y-17337851D01*
X1614524Y-17347375D01*
X1624048Y-17356899D01*
X1633571Y-17375946D01*
X1643095Y-17414042D01*
X1643095Y-17461661D01*
X1633571Y-17499756D01*
X1624048Y-17518804D01*
X1614524Y-17528327D01*
X1595476Y-17537851D01*
X1576428Y-17537851D01*
X1557381Y-17528327D01*
X1547857Y-17518804D01*
X1538333Y-17499756D01*
X1528809Y-17461661D01*
X1528809Y-17414042D01*
X1538333Y-17375946D01*
X1547857Y-17356899D01*
X1557381Y-17347375D01*
X1576428Y-17337851D01*
X1766905Y-17337851D02*
X1785952Y-17337851D01*
X1805000Y-17347375D01*
X1814524Y-17356899D01*
X1824048Y-17375946D01*
X1833571Y-17414042D01*
X1833571Y-17461661D01*
X1824048Y-17499756D01*
X1814524Y-17518804D01*
X1805000Y-17528327D01*
X1785952Y-17537851D01*
X1766905Y-17537851D01*
X1747857Y-17528327D01*
X1738333Y-17518804D01*
X1728809Y-17499756D01*
X1719286Y-17461661D01*
X1719286Y-17414042D01*
X1728809Y-17375946D01*
X1738333Y-17356899D01*
X1747857Y-17347375D01*
X1766905Y-17337851D01*
X1957381Y-17337851D02*
X1976428Y-17337851D01*
X1995476Y-17347375D01*
X2005000Y-17356899D01*
X2014524Y-17375946D01*
X2024048Y-17414042D01*
X2024048Y-17461661D01*
X2014524Y-17499756D01*
X2005000Y-17518804D01*
X1995476Y-17528327D01*
X1976428Y-17537851D01*
X1957381Y-17537851D01*
X1938333Y-17528327D01*
X1928809Y-17518804D01*
X1919286Y-17499756D01*
X1909762Y-17461661D01*
X1909762Y-17414042D01*
X1919286Y-17375946D01*
X1928809Y-17356899D01*
X1938333Y-17347375D01*
X1957381Y-17337851D01*
X2109762Y-17537851D02*
X2109762Y-17404518D01*
X2109762Y-17423565D02*
X2119286Y-17414042D01*
X2138333Y-17404518D01*
X2166905Y-17404518D01*
X2185952Y-17414042D01*
X2195476Y-17433089D01*
X2195476Y-17537851D01*
X2195476Y-17433089D02*
X2205000Y-17414042D01*
X2224048Y-17404518D01*
X2252619Y-17404518D01*
X2271667Y-17414042D01*
X2281190Y-17433089D01*
X2281190Y-17537851D01*
X2376429Y-17537851D02*
X2376429Y-17404518D01*
X2376429Y-17423565D02*
X2385952Y-17414042D01*
X2405000Y-17404518D01*
X2433571Y-17404518D01*
X2452619Y-17414042D01*
X2462143Y-17433089D01*
X2462143Y-17537851D01*
X2462143Y-17433089D02*
X2471667Y-17414042D01*
X2490714Y-17404518D01*
X2519286Y-17404518D01*
X2538333Y-17414042D01*
X2547857Y-17433089D01*
X2547857Y-17537851D01*
X2938333Y-17328327D02*
X2766905Y-17585470D01*
X3195476Y-17337851D02*
X3214524Y-17337851D01*
X3233571Y-17347375D01*
X3243095Y-17356899D01*
X3252619Y-17375946D01*
X3262143Y-17414042D01*
X3262143Y-17461661D01*
X3252619Y-17499756D01*
X3243095Y-17518804D01*
X3233571Y-17528327D01*
X3214524Y-17537851D01*
X3195476Y-17537851D01*
X3176428Y-17528327D01*
X3166905Y-17518804D01*
X3157381Y-17499756D01*
X3147857Y-17461661D01*
X3147857Y-17414042D01*
X3157381Y-17375946D01*
X3166905Y-17356899D01*
X3176428Y-17347375D01*
X3195476Y-17337851D01*
X3347857Y-17518804D02*
X3357381Y-17528327D01*
X3347857Y-17537851D01*
X3338333Y-17528327D01*
X3347857Y-17518804D01*
X3347857Y-17537851D01*
X3481190Y-17337851D02*
X3500238Y-17337851D01*
X3519286Y-17347375D01*
X3528809Y-17356899D01*
X3538333Y-17375946D01*
X3547857Y-17414042D01*
X3547857Y-17461661D01*
X3538333Y-17499756D01*
X3528809Y-17518804D01*
X3519286Y-17528327D01*
X3500238Y-17537851D01*
X3481190Y-17537851D01*
X3462143Y-17528327D01*
X3452619Y-17518804D01*
X3443095Y-17499756D01*
X3433571Y-17461661D01*
X3433571Y-17414042D01*
X3443095Y-17375946D01*
X3452619Y-17356899D01*
X3462143Y-17347375D01*
X3481190Y-17337851D01*
X3614524Y-17337851D02*
X3738333Y-17337851D01*
X3671667Y-17414042D01*
X3700238Y-17414042D01*
X3719286Y-17423565D01*
X3728809Y-17433089D01*
X3738333Y-17452137D01*
X3738333Y-17499756D01*
X3728809Y-17518804D01*
X3719286Y-17528327D01*
X3700238Y-17537851D01*
X3643095Y-17537851D01*
X3624048Y-17528327D01*
X3614524Y-17518804D01*
X3833571Y-17537851D02*
X3871667Y-17537851D01*
X3890714Y-17528327D01*
X3900238Y-17518804D01*
X3919286Y-17490232D01*
X3928809Y-17452137D01*
X3928809Y-17375946D01*
X3919286Y-17356899D01*
X3909762Y-17347375D01*
X3890714Y-17337851D01*
X3852619Y-17337851D01*
X3833571Y-17347375D01*
X3824048Y-17356899D01*
X3814524Y-17375946D01*
X3814524Y-17423565D01*
X3824048Y-17442613D01*
X3833571Y-17452137D01*
X3852619Y-17461661D01*
X3890714Y-17461661D01*
X3909762Y-17452137D01*
X3919286Y-17442613D01*
X3928809Y-17423565D01*
X4100238Y-17404518D02*
X4100238Y-17537851D01*
X4052619Y-17328327D02*
X4005000Y-17471185D01*
X4128809Y-17471185D01*
X4195476Y-17337851D02*
X4195476Y-17375946D01*
X4271667Y-17337851D02*
X4271667Y-17375946D01*
X4566905Y-17614042D02*
X4557381Y-17604518D01*
X4538333Y-17575946D01*
X4528810Y-17556899D01*
X4519286Y-17528327D01*
X4509762Y-17480708D01*
X4509762Y-17442613D01*
X4519286Y-17394994D01*
X4528810Y-17366423D01*
X4538333Y-17347375D01*
X4557381Y-17318804D01*
X4566905Y-17309280D01*
X4747857Y-17537851D02*
X4633571Y-17537851D01*
X4690714Y-17537851D02*
X4690714Y-17337851D01*
X4671667Y-17366423D01*
X4652619Y-17385470D01*
X4633571Y-17394994D01*
X4938333Y-17537851D02*
X4824048Y-17537851D01*
X4881190Y-17537851D02*
X4881190Y-17337851D01*
X4862143Y-17366423D01*
X4843095Y-17385470D01*
X4824048Y-17394994D01*
X5176429Y-17537851D02*
X5176429Y-17337851D01*
X5262143Y-17537851D02*
X5262143Y-17433089D01*
X5252619Y-17414042D01*
X5233571Y-17404518D01*
X5205000Y-17404518D01*
X5185952Y-17414042D01*
X5176429Y-17423565D01*
X5385952Y-17537851D02*
X5366905Y-17528327D01*
X5357381Y-17518804D01*
X5347857Y-17499756D01*
X5347857Y-17442613D01*
X5357381Y-17423565D01*
X5366905Y-17414042D01*
X5385952Y-17404518D01*
X5414524Y-17404518D01*
X5433571Y-17414042D01*
X5443095Y-17423565D01*
X5452619Y-17442613D01*
X5452619Y-17499756D01*
X5443095Y-17518804D01*
X5433571Y-17528327D01*
X5414524Y-17537851D01*
X5385952Y-17537851D01*
X5566905Y-17537851D02*
X5547857Y-17528327D01*
X5538333Y-17509280D01*
X5538333Y-17337851D01*
X5719286Y-17528327D02*
X5700238Y-17537851D01*
X5662143Y-17537851D01*
X5643095Y-17528327D01*
X5633571Y-17509280D01*
X5633571Y-17433089D01*
X5643095Y-17414042D01*
X5662143Y-17404518D01*
X5700238Y-17404518D01*
X5719286Y-17414042D01*
X5728809Y-17433089D01*
X5728809Y-17452137D01*
X5633571Y-17471185D01*
X5805000Y-17528327D02*
X5824048Y-17537851D01*
X5862143Y-17537851D01*
X5881190Y-17528327D01*
X5890714Y-17509280D01*
X5890714Y-17499756D01*
X5881190Y-17480708D01*
X5862143Y-17471185D01*
X5833571Y-17471185D01*
X5814524Y-17461661D01*
X5805000Y-17442613D01*
X5805000Y-17433089D01*
X5814524Y-17414042D01*
X5833571Y-17404518D01*
X5862143Y-17404518D01*
X5881190Y-17414042D01*
X5957381Y-17614042D02*
X5966905Y-17604518D01*
X5985952Y-17575946D01*
X5995476Y-17556899D01*
X6005000Y-17528327D01*
X6014524Y-17480708D01*
X6014524Y-17442613D01*
X6005000Y-17394994D01*
X5995476Y-17366423D01*
X5985952Y-17347375D01*
X5966905Y-17318804D01*
X5957381Y-17309280D01*
D19*
X885000Y-17656375D02*
X995000Y-17766375D01*
X995000Y-17656375D02*
X885000Y-17766375D01*
X940000Y-17766375D02*
X995000Y-17711375D01*
X940000Y-17656375D01*
X885000Y-17711375D01*
X940000Y-17766375D01*
D11*
X1357381Y-17801851D02*
X1243095Y-17801851D01*
X1300238Y-17801851D02*
X1300238Y-17601851D01*
X1281190Y-17630423D01*
X1262143Y-17649470D01*
X1243095Y-17658994D01*
X1443095Y-17782804D02*
X1452619Y-17792327D01*
X1443095Y-17801851D01*
X1433571Y-17792327D01*
X1443095Y-17782804D01*
X1443095Y-17801851D01*
X1643095Y-17801851D02*
X1528809Y-17801851D01*
X1585952Y-17801851D02*
X1585952Y-17601851D01*
X1566905Y-17630423D01*
X1547857Y-17649470D01*
X1528809Y-17658994D01*
X1766905Y-17601851D02*
X1785952Y-17601851D01*
X1805000Y-17611375D01*
X1814524Y-17620899D01*
X1824048Y-17639946D01*
X1833571Y-17678042D01*
X1833571Y-17725661D01*
X1824048Y-17763756D01*
X1814524Y-17782804D01*
X1805000Y-17792327D01*
X1785952Y-17801851D01*
X1766905Y-17801851D01*
X1747857Y-17792327D01*
X1738333Y-17782804D01*
X1728809Y-17763756D01*
X1719286Y-17725661D01*
X1719286Y-17678042D01*
X1728809Y-17639946D01*
X1738333Y-17620899D01*
X1747857Y-17611375D01*
X1766905Y-17601851D01*
X1957381Y-17601851D02*
X1976428Y-17601851D01*
X1995476Y-17611375D01*
X2005000Y-17620899D01*
X2014524Y-17639946D01*
X2024048Y-17678042D01*
X2024048Y-17725661D01*
X2014524Y-17763756D01*
X2005000Y-17782804D01*
X1995476Y-17792327D01*
X1976428Y-17801851D01*
X1957381Y-17801851D01*
X1938333Y-17792327D01*
X1928809Y-17782804D01*
X1919286Y-17763756D01*
X1909762Y-17725661D01*
X1909762Y-17678042D01*
X1919286Y-17639946D01*
X1928809Y-17620899D01*
X1938333Y-17611375D01*
X1957381Y-17601851D01*
X2109762Y-17801851D02*
X2109762Y-17668518D01*
X2109762Y-17687565D02*
X2119286Y-17678042D01*
X2138333Y-17668518D01*
X2166905Y-17668518D01*
X2185952Y-17678042D01*
X2195476Y-17697089D01*
X2195476Y-17801851D01*
X2195476Y-17697089D02*
X2205000Y-17678042D01*
X2224048Y-17668518D01*
X2252619Y-17668518D01*
X2271667Y-17678042D01*
X2281190Y-17697089D01*
X2281190Y-17801851D01*
X2376429Y-17801851D02*
X2376429Y-17668518D01*
X2376429Y-17687565D02*
X2385952Y-17678042D01*
X2405000Y-17668518D01*
X2433571Y-17668518D01*
X2452619Y-17678042D01*
X2462143Y-17697089D01*
X2462143Y-17801851D01*
X2462143Y-17697089D02*
X2471667Y-17678042D01*
X2490714Y-17668518D01*
X2519286Y-17668518D01*
X2538333Y-17678042D01*
X2547857Y-17697089D01*
X2547857Y-17801851D01*
X2938333Y-17592327D02*
X2766905Y-17849470D01*
X3195476Y-17601851D02*
X3214524Y-17601851D01*
X3233571Y-17611375D01*
X3243095Y-17620899D01*
X3252619Y-17639946D01*
X3262143Y-17678042D01*
X3262143Y-17725661D01*
X3252619Y-17763756D01*
X3243095Y-17782804D01*
X3233571Y-17792327D01*
X3214524Y-17801851D01*
X3195476Y-17801851D01*
X3176428Y-17792327D01*
X3166905Y-17782804D01*
X3157381Y-17763756D01*
X3147857Y-17725661D01*
X3147857Y-17678042D01*
X3157381Y-17639946D01*
X3166905Y-17620899D01*
X3176428Y-17611375D01*
X3195476Y-17601851D01*
X3347857Y-17782804D02*
X3357381Y-17792327D01*
X3347857Y-17801851D01*
X3338333Y-17792327D01*
X3347857Y-17782804D01*
X3347857Y-17801851D01*
X3481190Y-17601851D02*
X3500238Y-17601851D01*
X3519286Y-17611375D01*
X3528809Y-17620899D01*
X3538333Y-17639946D01*
X3547857Y-17678042D01*
X3547857Y-17725661D01*
X3538333Y-17763756D01*
X3528809Y-17782804D01*
X3519286Y-17792327D01*
X3500238Y-17801851D01*
X3481190Y-17801851D01*
X3462143Y-17792327D01*
X3452619Y-17782804D01*
X3443095Y-17763756D01*
X3433571Y-17725661D01*
X3433571Y-17678042D01*
X3443095Y-17639946D01*
X3452619Y-17620899D01*
X3462143Y-17611375D01*
X3481190Y-17601851D01*
X3719286Y-17668518D02*
X3719286Y-17801851D01*
X3671667Y-17592327D02*
X3624048Y-17735185D01*
X3747857Y-17735185D01*
X3805000Y-17601851D02*
X3928809Y-17601851D01*
X3862143Y-17678042D01*
X3890714Y-17678042D01*
X3909762Y-17687565D01*
X3919286Y-17697089D01*
X3928809Y-17716137D01*
X3928809Y-17763756D01*
X3919286Y-17782804D01*
X3909762Y-17792327D01*
X3890714Y-17801851D01*
X3833571Y-17801851D01*
X3814524Y-17792327D01*
X3805000Y-17782804D01*
X3995476Y-17601851D02*
X4119286Y-17601851D01*
X4052619Y-17678042D01*
X4081190Y-17678042D01*
X4100238Y-17687565D01*
X4109762Y-17697089D01*
X4119286Y-17716137D01*
X4119286Y-17763756D01*
X4109762Y-17782804D01*
X4100238Y-17792327D01*
X4081190Y-17801851D01*
X4024048Y-17801851D01*
X4005000Y-17792327D01*
X3995476Y-17782804D01*
X4195476Y-17601851D02*
X4195476Y-17639946D01*
X4271667Y-17601851D02*
X4271667Y-17639946D01*
X4566905Y-17878042D02*
X4557381Y-17868518D01*
X4538333Y-17839946D01*
X4528810Y-17820899D01*
X4519286Y-17792327D01*
X4509762Y-17744708D01*
X4509762Y-17706613D01*
X4519286Y-17658994D01*
X4528810Y-17630423D01*
X4538333Y-17611375D01*
X4557381Y-17582804D01*
X4566905Y-17573280D01*
X4671667Y-17687565D02*
X4652619Y-17678042D01*
X4643095Y-17668518D01*
X4633571Y-17649470D01*
X4633571Y-17639946D01*
X4643095Y-17620899D01*
X4652619Y-17611375D01*
X4671667Y-17601851D01*
X4709762Y-17601851D01*
X4728810Y-17611375D01*
X4738333Y-17620899D01*
X4747857Y-17639946D01*
X4747857Y-17649470D01*
X4738333Y-17668518D01*
X4728810Y-17678042D01*
X4709762Y-17687565D01*
X4671667Y-17687565D01*
X4652619Y-17697089D01*
X4643095Y-17706613D01*
X4633571Y-17725661D01*
X4633571Y-17763756D01*
X4643095Y-17782804D01*
X4652619Y-17792327D01*
X4671667Y-17801851D01*
X4709762Y-17801851D01*
X4728810Y-17792327D01*
X4738333Y-17782804D01*
X4747857Y-17763756D01*
X4747857Y-17725661D01*
X4738333Y-17706613D01*
X4728810Y-17697089D01*
X4709762Y-17687565D01*
X4985952Y-17801851D02*
X4985952Y-17601851D01*
X5071667Y-17801851D02*
X5071667Y-17697089D01*
X5062143Y-17678042D01*
X5043095Y-17668518D01*
X5014524Y-17668518D01*
X4995476Y-17678042D01*
X4985952Y-17687565D01*
X5195476Y-17801851D02*
X5176429Y-17792327D01*
X5166905Y-17782804D01*
X5157381Y-17763756D01*
X5157381Y-17706613D01*
X5166905Y-17687565D01*
X5176429Y-17678042D01*
X5195476Y-17668518D01*
X5224048Y-17668518D01*
X5243095Y-17678042D01*
X5252619Y-17687565D01*
X5262143Y-17706613D01*
X5262143Y-17763756D01*
X5252619Y-17782804D01*
X5243095Y-17792327D01*
X5224048Y-17801851D01*
X5195476Y-17801851D01*
X5376429Y-17801851D02*
X5357381Y-17792327D01*
X5347857Y-17773280D01*
X5347857Y-17601851D01*
X5528810Y-17792327D02*
X5509762Y-17801851D01*
X5471667Y-17801851D01*
X5452619Y-17792327D01*
X5443095Y-17773280D01*
X5443095Y-17697089D01*
X5452619Y-17678042D01*
X5471667Y-17668518D01*
X5509762Y-17668518D01*
X5528810Y-17678042D01*
X5538333Y-17697089D01*
X5538333Y-17716137D01*
X5443095Y-17735185D01*
X5614524Y-17792327D02*
X5633571Y-17801851D01*
X5671667Y-17801851D01*
X5690714Y-17792327D01*
X5700238Y-17773280D01*
X5700238Y-17763756D01*
X5690714Y-17744708D01*
X5671667Y-17735185D01*
X5643095Y-17735185D01*
X5624048Y-17725661D01*
X5614524Y-17706613D01*
X5614524Y-17697089D01*
X5624048Y-17678042D01*
X5643095Y-17668518D01*
X5671667Y-17668518D01*
X5690714Y-17678042D01*
X5766905Y-17878042D02*
X5776428Y-17868518D01*
X5795476Y-17839946D01*
X5805000Y-17820899D01*
X5814524Y-17792327D01*
X5824048Y-17744708D01*
X5824048Y-17706613D01*
X5814524Y-17658994D01*
X5805000Y-17630423D01*
X5795476Y-17611375D01*
X5776428Y-17582804D01*
X5766905Y-17573280D01*
D20*
X920070Y-17900445D02*
X920070Y-18050305D01*
X845140Y-17975375D02*
X995000Y-17975375D01*
X995000Y-17975375D02*
G75*
G03*
X995000Y-17975375I-74930J0D01*
G01*
D11*
X1357381Y-18065851D02*
X1243095Y-18065851D01*
X1300238Y-18065851D02*
X1300238Y-17865851D01*
X1281190Y-17894423D01*
X1262143Y-17913470D01*
X1243095Y-17922994D01*
X1443095Y-18046804D02*
X1452619Y-18056327D01*
X1443095Y-18065851D01*
X1433571Y-18056327D01*
X1443095Y-18046804D01*
X1443095Y-18065851D01*
X1624048Y-17932518D02*
X1624048Y-18065851D01*
X1576428Y-17856327D02*
X1528809Y-17999185D01*
X1652619Y-17999185D01*
X1738333Y-18065851D02*
X1776428Y-18065851D01*
X1795476Y-18056327D01*
X1805000Y-18046804D01*
X1824048Y-18018232D01*
X1833571Y-17980137D01*
X1833571Y-17903946D01*
X1824048Y-17884899D01*
X1814524Y-17875375D01*
X1795476Y-17865851D01*
X1757381Y-17865851D01*
X1738333Y-17875375D01*
X1728809Y-17884899D01*
X1719286Y-17903946D01*
X1719286Y-17951565D01*
X1728809Y-17970613D01*
X1738333Y-17980137D01*
X1757381Y-17989661D01*
X1795476Y-17989661D01*
X1814524Y-17980137D01*
X1824048Y-17970613D01*
X1833571Y-17951565D01*
X1928809Y-18065851D02*
X1966905Y-18065851D01*
X1985952Y-18056327D01*
X1995476Y-18046804D01*
X2014524Y-18018232D01*
X2024048Y-17980137D01*
X2024048Y-17903946D01*
X2014524Y-17884899D01*
X2005000Y-17875375D01*
X1985952Y-17865851D01*
X1947857Y-17865851D01*
X1928809Y-17875375D01*
X1919286Y-17884899D01*
X1909762Y-17903946D01*
X1909762Y-17951565D01*
X1919286Y-17970613D01*
X1928809Y-17980137D01*
X1947857Y-17989661D01*
X1985952Y-17989661D01*
X2005000Y-17980137D01*
X2014524Y-17970613D01*
X2024048Y-17951565D01*
X2109762Y-18065851D02*
X2109762Y-17932518D01*
X2109762Y-17951565D02*
X2119286Y-17942042D01*
X2138333Y-17932518D01*
X2166905Y-17932518D01*
X2185952Y-17942042D01*
X2195476Y-17961089D01*
X2195476Y-18065851D01*
X2195476Y-17961089D02*
X2205000Y-17942042D01*
X2224048Y-17932518D01*
X2252619Y-17932518D01*
X2271667Y-17942042D01*
X2281190Y-17961089D01*
X2281190Y-18065851D01*
X2376429Y-18065851D02*
X2376429Y-17932518D01*
X2376429Y-17951565D02*
X2385952Y-17942042D01*
X2405000Y-17932518D01*
X2433571Y-17932518D01*
X2452619Y-17942042D01*
X2462143Y-17961089D01*
X2462143Y-18065851D01*
X2462143Y-17961089D02*
X2471667Y-17942042D01*
X2490714Y-17932518D01*
X2519286Y-17932518D01*
X2538333Y-17942042D01*
X2547857Y-17961089D01*
X2547857Y-18065851D01*
X2938333Y-17856327D02*
X2766905Y-18113470D01*
X3195476Y-17865851D02*
X3214524Y-17865851D01*
X3233571Y-17875375D01*
X3243095Y-17884899D01*
X3252619Y-17903946D01*
X3262143Y-17942042D01*
X3262143Y-17989661D01*
X3252619Y-18027756D01*
X3243095Y-18046804D01*
X3233571Y-18056327D01*
X3214524Y-18065851D01*
X3195476Y-18065851D01*
X3176428Y-18056327D01*
X3166905Y-18046804D01*
X3157381Y-18027756D01*
X3147857Y-17989661D01*
X3147857Y-17942042D01*
X3157381Y-17903946D01*
X3166905Y-17884899D01*
X3176428Y-17875375D01*
X3195476Y-17865851D01*
X3347857Y-18046804D02*
X3357381Y-18056327D01*
X3347857Y-18065851D01*
X3338333Y-18056327D01*
X3347857Y-18046804D01*
X3347857Y-18065851D01*
X3481190Y-17865851D02*
X3500238Y-17865851D01*
X3519286Y-17875375D01*
X3528809Y-17884899D01*
X3538333Y-17903946D01*
X3547857Y-17942042D01*
X3547857Y-17989661D01*
X3538333Y-18027756D01*
X3528809Y-18046804D01*
X3519286Y-18056327D01*
X3500238Y-18065851D01*
X3481190Y-18065851D01*
X3462143Y-18056327D01*
X3452619Y-18046804D01*
X3443095Y-18027756D01*
X3433571Y-17989661D01*
X3433571Y-17942042D01*
X3443095Y-17903946D01*
X3452619Y-17884899D01*
X3462143Y-17875375D01*
X3481190Y-17865851D01*
X3728809Y-17865851D02*
X3633571Y-17865851D01*
X3624048Y-17961089D01*
X3633571Y-17951565D01*
X3652619Y-17942042D01*
X3700238Y-17942042D01*
X3719286Y-17951565D01*
X3728809Y-17961089D01*
X3738333Y-17980137D01*
X3738333Y-18027756D01*
X3728809Y-18046804D01*
X3719286Y-18056327D01*
X3700238Y-18065851D01*
X3652619Y-18065851D01*
X3633571Y-18056327D01*
X3624048Y-18046804D01*
X3833571Y-18065851D02*
X3871667Y-18065851D01*
X3890714Y-18056327D01*
X3900238Y-18046804D01*
X3919286Y-18018232D01*
X3928809Y-17980137D01*
X3928809Y-17903946D01*
X3919286Y-17884899D01*
X3909762Y-17875375D01*
X3890714Y-17865851D01*
X3852619Y-17865851D01*
X3833571Y-17875375D01*
X3824048Y-17884899D01*
X3814524Y-17903946D01*
X3814524Y-17951565D01*
X3824048Y-17970613D01*
X3833571Y-17980137D01*
X3852619Y-17989661D01*
X3890714Y-17989661D01*
X3909762Y-17980137D01*
X3919286Y-17970613D01*
X3928809Y-17951565D01*
X4052619Y-17865851D02*
X4071667Y-17865851D01*
X4090714Y-17875375D01*
X4100238Y-17884899D01*
X4109762Y-17903946D01*
X4119286Y-17942042D01*
X4119286Y-17989661D01*
X4109762Y-18027756D01*
X4100238Y-18046804D01*
X4090714Y-18056327D01*
X4071667Y-18065851D01*
X4052619Y-18065851D01*
X4033571Y-18056327D01*
X4024048Y-18046804D01*
X4014524Y-18027756D01*
X4005000Y-17989661D01*
X4005000Y-17942042D01*
X4014524Y-17903946D01*
X4024048Y-17884899D01*
X4033571Y-17875375D01*
X4052619Y-17865851D01*
X4195476Y-17865851D02*
X4195476Y-17903946D01*
X4271667Y-17865851D02*
X4271667Y-17903946D01*
X4566905Y-18142042D02*
X4557381Y-18132518D01*
X4538333Y-18103946D01*
X4528810Y-18084899D01*
X4519286Y-18056327D01*
X4509762Y-18008708D01*
X4509762Y-17970613D01*
X4519286Y-17922994D01*
X4528810Y-17894423D01*
X4538333Y-17875375D01*
X4557381Y-17846804D01*
X4566905Y-17837280D01*
X4747857Y-18065851D02*
X4633571Y-18065851D01*
X4690714Y-18065851D02*
X4690714Y-17865851D01*
X4671667Y-17894423D01*
X4652619Y-17913470D01*
X4633571Y-17922994D01*
X4824048Y-17884899D02*
X4833571Y-17875375D01*
X4852619Y-17865851D01*
X4900238Y-17865851D01*
X4919286Y-17875375D01*
X4928810Y-17884899D01*
X4938333Y-17903946D01*
X4938333Y-17922994D01*
X4928810Y-17951565D01*
X4814524Y-18065851D01*
X4938333Y-18065851D01*
X5109762Y-17865851D02*
X5071667Y-17865851D01*
X5052619Y-17875375D01*
X5043095Y-17884899D01*
X5024048Y-17913470D01*
X5014524Y-17951565D01*
X5014524Y-18027756D01*
X5024048Y-18046804D01*
X5033571Y-18056327D01*
X5052619Y-18065851D01*
X5090714Y-18065851D01*
X5109762Y-18056327D01*
X5119286Y-18046804D01*
X5128810Y-18027756D01*
X5128810Y-17980137D01*
X5119286Y-17961089D01*
X5109762Y-17951565D01*
X5090714Y-17942042D01*
X5052619Y-17942042D01*
X5033571Y-17951565D01*
X5024048Y-17961089D01*
X5014524Y-17980137D01*
X5366905Y-18065851D02*
X5366905Y-17865851D01*
X5452619Y-18065851D02*
X5452619Y-17961089D01*
X5443095Y-17942042D01*
X5424048Y-17932518D01*
X5395476Y-17932518D01*
X5376429Y-17942042D01*
X5366905Y-17951565D01*
X5576429Y-18065851D02*
X5557381Y-18056327D01*
X5547857Y-18046804D01*
X5538333Y-18027756D01*
X5538333Y-17970613D01*
X5547857Y-17951565D01*
X5557381Y-17942042D01*
X5576429Y-17932518D01*
X5605000Y-17932518D01*
X5624048Y-17942042D01*
X5633571Y-17951565D01*
X5643095Y-17970613D01*
X5643095Y-18027756D01*
X5633571Y-18046804D01*
X5624048Y-18056327D01*
X5605000Y-18065851D01*
X5576429Y-18065851D01*
X5757381Y-18065851D02*
X5738333Y-18056327D01*
X5728809Y-18037280D01*
X5728809Y-17865851D01*
X5909762Y-18056327D02*
X5890714Y-18065851D01*
X5852619Y-18065851D01*
X5833571Y-18056327D01*
X5824048Y-18037280D01*
X5824048Y-17961089D01*
X5833571Y-17942042D01*
X5852619Y-17932518D01*
X5890714Y-17932518D01*
X5909762Y-17942042D01*
X5919286Y-17961089D01*
X5919286Y-17980137D01*
X5824048Y-17999185D01*
X5995476Y-18056327D02*
X6014524Y-18065851D01*
X6052619Y-18065851D01*
X6071667Y-18056327D01*
X6081190Y-18037280D01*
X6081190Y-18027756D01*
X6071667Y-18008708D01*
X6052619Y-17999185D01*
X6024048Y-17999185D01*
X6005000Y-17989661D01*
X5995476Y-17970613D01*
X5995476Y-17961089D01*
X6005000Y-17942042D01*
X6024048Y-17932518D01*
X6052619Y-17932518D01*
X6071667Y-17942042D01*
X6147857Y-18142042D02*
X6157381Y-18132518D01*
X6176428Y-18103946D01*
X6185952Y-18084899D01*
X6195476Y-18056327D01*
X6205000Y-18008708D01*
X6205000Y-17970613D01*
X6195476Y-17922994D01*
X6185952Y-17894423D01*
X6176428Y-17875375D01*
X6157381Y-17846804D01*
X6147857Y-17837280D01*
D21*
X973033Y-18298269D02*
X973033Y-18192202D01*
X866966Y-18192202D01*
X866966Y-18298269D01*
X973033Y-18298269D01*
X995000Y-18245235D02*
G75*
G03*
X995000Y-18245235I-75000J0D01*
G01*
D11*
X1357381Y-18335711D02*
X1243095Y-18335711D01*
X1300238Y-18335711D02*
X1300238Y-18135711D01*
X1281190Y-18164283D01*
X1262143Y-18183330D01*
X1243095Y-18192854D01*
X1443095Y-18316664D02*
X1452619Y-18326187D01*
X1443095Y-18335711D01*
X1433571Y-18326187D01*
X1443095Y-18316664D01*
X1443095Y-18335711D01*
X1633571Y-18135711D02*
X1538333Y-18135711D01*
X1528809Y-18230949D01*
X1538333Y-18221425D01*
X1557381Y-18211902D01*
X1605000Y-18211902D01*
X1624048Y-18221425D01*
X1633571Y-18230949D01*
X1643095Y-18249997D01*
X1643095Y-18297616D01*
X1633571Y-18316664D01*
X1624048Y-18326187D01*
X1605000Y-18335711D01*
X1557381Y-18335711D01*
X1538333Y-18326187D01*
X1528809Y-18316664D01*
X1766905Y-18135711D02*
X1785952Y-18135711D01*
X1805000Y-18145235D01*
X1814524Y-18154759D01*
X1824048Y-18173806D01*
X1833571Y-18211902D01*
X1833571Y-18259521D01*
X1824048Y-18297616D01*
X1814524Y-18316664D01*
X1805000Y-18326187D01*
X1785952Y-18335711D01*
X1766905Y-18335711D01*
X1747857Y-18326187D01*
X1738333Y-18316664D01*
X1728809Y-18297616D01*
X1719286Y-18259521D01*
X1719286Y-18211902D01*
X1728809Y-18173806D01*
X1738333Y-18154759D01*
X1747857Y-18145235D01*
X1766905Y-18135711D01*
X1957381Y-18135711D02*
X1976428Y-18135711D01*
X1995476Y-18145235D01*
X2005000Y-18154759D01*
X2014524Y-18173806D01*
X2024048Y-18211902D01*
X2024048Y-18259521D01*
X2014524Y-18297616D01*
X2005000Y-18316664D01*
X1995476Y-18326187D01*
X1976428Y-18335711D01*
X1957381Y-18335711D01*
X1938333Y-18326187D01*
X1928809Y-18316664D01*
X1919286Y-18297616D01*
X1909762Y-18259521D01*
X1909762Y-18211902D01*
X1919286Y-18173806D01*
X1928809Y-18154759D01*
X1938333Y-18145235D01*
X1957381Y-18135711D01*
X2109762Y-18335711D02*
X2109762Y-18202378D01*
X2109762Y-18221425D02*
X2119286Y-18211902D01*
X2138333Y-18202378D01*
X2166905Y-18202378D01*
X2185952Y-18211902D01*
X2195476Y-18230949D01*
X2195476Y-18335711D01*
X2195476Y-18230949D02*
X2205000Y-18211902D01*
X2224048Y-18202378D01*
X2252619Y-18202378D01*
X2271667Y-18211902D01*
X2281190Y-18230949D01*
X2281190Y-18335711D01*
X2376429Y-18335711D02*
X2376429Y-18202378D01*
X2376429Y-18221425D02*
X2385952Y-18211902D01*
X2405000Y-18202378D01*
X2433571Y-18202378D01*
X2452619Y-18211902D01*
X2462143Y-18230949D01*
X2462143Y-18335711D01*
X2462143Y-18230949D02*
X2471667Y-18211902D01*
X2490714Y-18202378D01*
X2519286Y-18202378D01*
X2538333Y-18211902D01*
X2547857Y-18230949D01*
X2547857Y-18335711D01*
X2938333Y-18126187D02*
X2766905Y-18383330D01*
X3195476Y-18135711D02*
X3214524Y-18135711D01*
X3233571Y-18145235D01*
X3243095Y-18154759D01*
X3252619Y-18173806D01*
X3262143Y-18211902D01*
X3262143Y-18259521D01*
X3252619Y-18297616D01*
X3243095Y-18316664D01*
X3233571Y-18326187D01*
X3214524Y-18335711D01*
X3195476Y-18335711D01*
X3176428Y-18326187D01*
X3166905Y-18316664D01*
X3157381Y-18297616D01*
X3147857Y-18259521D01*
X3147857Y-18211902D01*
X3157381Y-18173806D01*
X3166905Y-18154759D01*
X3176428Y-18145235D01*
X3195476Y-18135711D01*
X3347857Y-18316664D02*
X3357381Y-18326187D01*
X3347857Y-18335711D01*
X3338333Y-18326187D01*
X3347857Y-18316664D01*
X3347857Y-18335711D01*
X3481190Y-18135711D02*
X3500238Y-18135711D01*
X3519286Y-18145235D01*
X3528809Y-18154759D01*
X3538333Y-18173806D01*
X3547857Y-18211902D01*
X3547857Y-18259521D01*
X3538333Y-18297616D01*
X3528809Y-18316664D01*
X3519286Y-18326187D01*
X3500238Y-18335711D01*
X3481190Y-18335711D01*
X3462143Y-18326187D01*
X3452619Y-18316664D01*
X3443095Y-18297616D01*
X3433571Y-18259521D01*
X3433571Y-18211902D01*
X3443095Y-18173806D01*
X3452619Y-18154759D01*
X3462143Y-18145235D01*
X3481190Y-18135711D01*
X3728809Y-18135711D02*
X3633571Y-18135711D01*
X3624048Y-18230949D01*
X3633571Y-18221425D01*
X3652619Y-18211902D01*
X3700238Y-18211902D01*
X3719286Y-18221425D01*
X3728809Y-18230949D01*
X3738333Y-18249997D01*
X3738333Y-18297616D01*
X3728809Y-18316664D01*
X3719286Y-18326187D01*
X3700238Y-18335711D01*
X3652619Y-18335711D01*
X3633571Y-18326187D01*
X3624048Y-18316664D01*
X3833571Y-18335711D02*
X3871667Y-18335711D01*
X3890714Y-18326187D01*
X3900238Y-18316664D01*
X3919286Y-18288092D01*
X3928809Y-18249997D01*
X3928809Y-18173806D01*
X3919286Y-18154759D01*
X3909762Y-18145235D01*
X3890714Y-18135711D01*
X3852619Y-18135711D01*
X3833571Y-18145235D01*
X3824048Y-18154759D01*
X3814524Y-18173806D01*
X3814524Y-18221425D01*
X3824048Y-18240473D01*
X3833571Y-18249997D01*
X3852619Y-18259521D01*
X3890714Y-18259521D01*
X3909762Y-18249997D01*
X3919286Y-18240473D01*
X3928809Y-18221425D01*
X4119286Y-18335711D02*
X4005000Y-18335711D01*
X4062143Y-18335711D02*
X4062143Y-18135711D01*
X4043095Y-18164283D01*
X4024048Y-18183330D01*
X4005000Y-18192854D01*
X4195476Y-18135711D02*
X4195476Y-18173806D01*
X4271667Y-18135711D02*
X4271667Y-18173806D01*
X4566905Y-18411902D02*
X4557381Y-18402378D01*
X4538333Y-18373806D01*
X4528810Y-18354759D01*
X4519286Y-18326187D01*
X4509762Y-18278568D01*
X4509762Y-18240473D01*
X4519286Y-18192854D01*
X4528810Y-18164283D01*
X4538333Y-18145235D01*
X4557381Y-18116664D01*
X4566905Y-18107140D01*
X4681190Y-18135711D02*
X4700238Y-18135711D01*
X4719286Y-18145235D01*
X4728810Y-18154759D01*
X4738333Y-18173806D01*
X4747857Y-18211902D01*
X4747857Y-18259521D01*
X4738333Y-18297616D01*
X4728810Y-18316664D01*
X4719286Y-18326187D01*
X4700238Y-18335711D01*
X4681190Y-18335711D01*
X4662143Y-18326187D01*
X4652619Y-18316664D01*
X4643095Y-18297616D01*
X4633571Y-18259521D01*
X4633571Y-18211902D01*
X4643095Y-18173806D01*
X4652619Y-18154759D01*
X4662143Y-18145235D01*
X4681190Y-18135711D01*
X4985952Y-18335711D02*
X4985952Y-18135711D01*
X5071667Y-18335711D02*
X5071667Y-18230949D01*
X5062143Y-18211902D01*
X5043095Y-18202378D01*
X5014524Y-18202378D01*
X4995476Y-18211902D01*
X4985952Y-18221425D01*
X5195476Y-18335711D02*
X5176429Y-18326187D01*
X5166905Y-18316664D01*
X5157381Y-18297616D01*
X5157381Y-18240473D01*
X5166905Y-18221425D01*
X5176429Y-18211902D01*
X5195476Y-18202378D01*
X5224048Y-18202378D01*
X5243095Y-18211902D01*
X5252619Y-18221425D01*
X5262143Y-18240473D01*
X5262143Y-18297616D01*
X5252619Y-18316664D01*
X5243095Y-18326187D01*
X5224048Y-18335711D01*
X5195476Y-18335711D01*
X5376429Y-18335711D02*
X5357381Y-18326187D01*
X5347857Y-18307140D01*
X5347857Y-18135711D01*
X5528810Y-18326187D02*
X5509762Y-18335711D01*
X5471667Y-18335711D01*
X5452619Y-18326187D01*
X5443095Y-18307140D01*
X5443095Y-18230949D01*
X5452619Y-18211902D01*
X5471667Y-18202378D01*
X5509762Y-18202378D01*
X5528810Y-18211902D01*
X5538333Y-18230949D01*
X5538333Y-18249997D01*
X5443095Y-18269045D01*
X5614524Y-18326187D02*
X5633571Y-18335711D01*
X5671667Y-18335711D01*
X5690714Y-18326187D01*
X5700238Y-18307140D01*
X5700238Y-18297616D01*
X5690714Y-18278568D01*
X5671667Y-18269045D01*
X5643095Y-18269045D01*
X5624048Y-18259521D01*
X5614524Y-18240473D01*
X5614524Y-18230949D01*
X5624048Y-18211902D01*
X5643095Y-18202378D01*
X5671667Y-18202378D01*
X5690714Y-18211902D01*
X5938333Y-18259521D02*
X6090714Y-18259521D01*
X6014524Y-18335711D02*
X6014524Y-18183330D01*
X6328809Y-18154759D02*
X6338333Y-18145235D01*
X6357381Y-18135711D01*
X6405000Y-18135711D01*
X6424048Y-18145235D01*
X6433571Y-18154759D01*
X6443095Y-18173806D01*
X6443095Y-18192854D01*
X6433571Y-18221425D01*
X6319286Y-18335711D01*
X6443095Y-18335711D01*
X6671667Y-18326187D02*
X6690714Y-18335711D01*
X6728809Y-18335711D01*
X6747857Y-18326187D01*
X6757381Y-18307140D01*
X6757381Y-18297616D01*
X6747857Y-18278568D01*
X6728809Y-18269045D01*
X6700238Y-18269045D01*
X6681190Y-18259521D01*
X6671667Y-18240473D01*
X6671667Y-18230949D01*
X6681190Y-18211902D01*
X6700238Y-18202378D01*
X6728809Y-18202378D01*
X6747857Y-18211902D01*
X6871667Y-18335711D02*
X6852619Y-18326187D01*
X6843095Y-18307140D01*
X6843095Y-18135711D01*
X6976428Y-18335711D02*
X6957381Y-18326187D01*
X6947857Y-18316664D01*
X6938333Y-18297616D01*
X6938333Y-18240473D01*
X6947857Y-18221425D01*
X6957381Y-18211902D01*
X6976428Y-18202378D01*
X7005000Y-18202378D01*
X7024048Y-18211902D01*
X7033571Y-18221425D01*
X7043095Y-18240473D01*
X7043095Y-18297616D01*
X7033571Y-18316664D01*
X7024048Y-18326187D01*
X7005000Y-18335711D01*
X6976428Y-18335711D01*
X7100238Y-18202378D02*
X7176428Y-18202378D01*
X7128809Y-18135711D02*
X7128809Y-18307140D01*
X7138333Y-18326187D01*
X7157381Y-18335711D01*
X7176428Y-18335711D01*
X7233571Y-18326187D02*
X7252619Y-18335711D01*
X7290714Y-18335711D01*
X7309762Y-18326187D01*
X7319286Y-18307140D01*
X7319286Y-18297616D01*
X7309762Y-18278568D01*
X7290714Y-18269045D01*
X7262143Y-18269045D01*
X7243095Y-18259521D01*
X7233571Y-18240473D01*
X7233571Y-18230949D01*
X7243095Y-18211902D01*
X7262143Y-18202378D01*
X7290714Y-18202378D01*
X7309762Y-18211902D01*
X7385952Y-18411902D02*
X7395476Y-18402378D01*
X7414524Y-18373806D01*
X7424048Y-18354759D01*
X7433571Y-18326187D01*
X7443095Y-18278568D01*
X7443095Y-18240473D01*
X7433571Y-18192854D01*
X7424048Y-18164283D01*
X7414524Y-18145235D01*
X7395476Y-18116664D01*
X7385952Y-18107140D01*
M02*
