%TF.GenerationSoftware,KiCad,Pcbnew,6.0.10-86aedd382b~118~ubuntu22.10.1*%
%TF.CreationDate,2023-02-06T16:51:53+01:00*%
%TF.ProjectId,lumberjack,6c756d62-6572-46a6-9163-6b2e6b696361,1.7*%
%TF.SameCoordinates,Original*%
%TF.FileFunction,Legend,Top*%
%TF.FilePolarity,Positive*%
%FSLAX46Y46*%
G04 Gerber Fmt 4.6, Leading zero omitted, Abs format (unit mm)*
G04 Created by KiCad (PCBNEW 6.0.10-86aedd382b~118~ubuntu22.10.1) date 2023-02-06 16:51:53*
%MOMM*%
%LPD*%
G01*
G04 APERTURE LIST*
%ADD10C,0.150000*%
%ADD11C,0.120000*%
G04 APERTURE END LIST*
D10*
X151133333Y-98357142D02*
X151085714Y-98404761D01*
X150942857Y-98452380D01*
X150847619Y-98452380D01*
X150704761Y-98404761D01*
X150609523Y-98309523D01*
X150561904Y-98214285D01*
X150514285Y-98023809D01*
X150514285Y-97880952D01*
X150561904Y-97690476D01*
X150609523Y-97595238D01*
X150704761Y-97500000D01*
X150847619Y-97452380D01*
X150942857Y-97452380D01*
X151085714Y-97500000D01*
X151133333Y-97547619D01*
X152085714Y-98452380D02*
X151514285Y-98452380D01*
X151800000Y-98452380D02*
X151800000Y-97452380D01*
X151704761Y-97595238D01*
X151609523Y-97690476D01*
X151514285Y-97738095D01*
X151133333Y-86157142D02*
X151085714Y-86204761D01*
X150942857Y-86252380D01*
X150847619Y-86252380D01*
X150704761Y-86204761D01*
X150609523Y-86109523D01*
X150561904Y-86014285D01*
X150514285Y-85823809D01*
X150514285Y-85680952D01*
X150561904Y-85490476D01*
X150609523Y-85395238D01*
X150704761Y-85300000D01*
X150847619Y-85252380D01*
X150942857Y-85252380D01*
X151085714Y-85300000D01*
X151133333Y-85347619D01*
X151514285Y-85347619D02*
X151561904Y-85300000D01*
X151657142Y-85252380D01*
X151895238Y-85252380D01*
X151990476Y-85300000D01*
X152038095Y-85347619D01*
X152085714Y-85442857D01*
X152085714Y-85538095D01*
X152038095Y-85680952D01*
X151466666Y-86252380D01*
X152085714Y-86252380D01*
X162218768Y-64817538D02*
X162218768Y-65293729D01*
X161218768Y-65293729D01*
X161694959Y-64484205D02*
X161694959Y-64150871D01*
X162218768Y-64008014D02*
X162218768Y-64484205D01*
X161218768Y-64484205D01*
X161218768Y-64008014D01*
X162218768Y-63579443D02*
X161218768Y-63579443D01*
X161218768Y-63341348D01*
X161266388Y-63198491D01*
X161361626Y-63103252D01*
X161456864Y-63055633D01*
X161647340Y-63008014D01*
X161790197Y-63008014D01*
X161980673Y-63055633D01*
X162075911Y-63103252D01*
X162171149Y-63198491D01*
X162218768Y-63341348D01*
X162218768Y-63579443D01*
X161314007Y-62627062D02*
X161266388Y-62579443D01*
X161218768Y-62484205D01*
X161218768Y-62246110D01*
X161266388Y-62150871D01*
X161314007Y-62103252D01*
X161409245Y-62055633D01*
X161504483Y-62055633D01*
X161647340Y-62103252D01*
X162218768Y-62674681D01*
X162218768Y-62055633D01*
X158038095Y-84952380D02*
X158038095Y-85761904D01*
X158085714Y-85857142D01*
X158133333Y-85904761D01*
X158228571Y-85952380D01*
X158419047Y-85952380D01*
X158514285Y-85904761D01*
X158561904Y-85857142D01*
X158609523Y-85761904D01*
X158609523Y-84952380D01*
X159609523Y-85952380D02*
X159038095Y-85952380D01*
X159323809Y-85952380D02*
X159323809Y-84952380D01*
X159228571Y-85095238D01*
X159133333Y-85190476D01*
X159038095Y-85238095D01*
X146066666Y-112428571D02*
X145733333Y-112428571D01*
X145733333Y-112952380D02*
X145733333Y-111952380D01*
X146209523Y-111952380D01*
X147114285Y-112952380D02*
X146542857Y-112952380D01*
X146828571Y-112952380D02*
X146828571Y-111952380D01*
X146733333Y-112095238D01*
X146638095Y-112190476D01*
X146542857Y-112238095D01*
X125468260Y-83200887D02*
X125468260Y-82200887D01*
X125706356Y-82200887D01*
X125849213Y-82248507D01*
X125944451Y-82343745D01*
X125992070Y-82438983D01*
X126039689Y-82629459D01*
X126039689Y-82772316D01*
X125992070Y-82962792D01*
X125944451Y-83058030D01*
X125849213Y-83153268D01*
X125706356Y-83200887D01*
X125468260Y-83200887D01*
X126420641Y-82296126D02*
X126468260Y-82248507D01*
X126563498Y-82200887D01*
X126801594Y-82200887D01*
X126896832Y-82248507D01*
X126944451Y-82296126D01*
X126992070Y-82391364D01*
X126992070Y-82486602D01*
X126944451Y-82629459D01*
X126373022Y-83200887D01*
X126992070Y-83200887D01*
X124872947Y-118919667D02*
X124872947Y-117919667D01*
X125111043Y-117919667D01*
X125253900Y-117967287D01*
X125349138Y-118062525D01*
X125396757Y-118157763D01*
X125444376Y-118348239D01*
X125444376Y-118491096D01*
X125396757Y-118681572D01*
X125349138Y-118776810D01*
X125253900Y-118872048D01*
X125111043Y-118919667D01*
X124872947Y-118919667D01*
X126301519Y-118253001D02*
X126301519Y-118919667D01*
X126063423Y-117872048D02*
X125825328Y-118586334D01*
X126444376Y-118586334D01*
X151066569Y-145399154D02*
X150066569Y-145399154D01*
X150066569Y-145161059D01*
X150114189Y-145018201D01*
X150209427Y-144922963D01*
X150304665Y-144875344D01*
X150495141Y-144827725D01*
X150637998Y-144827725D01*
X150828474Y-144875344D01*
X150923712Y-144922963D01*
X151018950Y-145018201D01*
X151066569Y-145161059D01*
X151066569Y-145399154D01*
X150066569Y-143922963D02*
X150066569Y-144399154D01*
X150542760Y-144446773D01*
X150495141Y-144399154D01*
X150447522Y-144303916D01*
X150447522Y-144065820D01*
X150495141Y-143970582D01*
X150542760Y-143922963D01*
X150637998Y-143875344D01*
X150876093Y-143875344D01*
X150971331Y-143922963D01*
X151018950Y-143970582D01*
X151066569Y-144065820D01*
X151066569Y-144303916D01*
X151018950Y-144399154D01*
X150971331Y-144446773D01*
X148090004Y-135278833D02*
X147090004Y-135278833D01*
X147090004Y-135040738D01*
X147137624Y-134897880D01*
X147232862Y-134802642D01*
X147328100Y-134755023D01*
X147518576Y-134707404D01*
X147661433Y-134707404D01*
X147851909Y-134755023D01*
X147947147Y-134802642D01*
X148042385Y-134897880D01*
X148090004Y-135040738D01*
X148090004Y-135278833D01*
X147090004Y-133850261D02*
X147090004Y-134040738D01*
X147137624Y-134135976D01*
X147185243Y-134183595D01*
X147328100Y-134278833D01*
X147518576Y-134326452D01*
X147899528Y-134326452D01*
X147994766Y-134278833D01*
X148042385Y-134231214D01*
X148090004Y-134135976D01*
X148090004Y-133945499D01*
X148042385Y-133850261D01*
X147994766Y-133802642D01*
X147899528Y-133755023D01*
X147661433Y-133755023D01*
X147566195Y-133802642D01*
X147518576Y-133850261D01*
X147470957Y-133945499D01*
X147470957Y-134135976D01*
X147518576Y-134231214D01*
X147566195Y-134278833D01*
X147661433Y-134326452D01*
X145113439Y-146470657D02*
X144113439Y-146470657D01*
X144113439Y-146232562D01*
X144161059Y-146089705D01*
X144256297Y-145994467D01*
X144351535Y-145946848D01*
X144542011Y-145899229D01*
X144684868Y-145899229D01*
X144875344Y-145946848D01*
X144970582Y-145994467D01*
X145065820Y-146089705D01*
X145113439Y-146232562D01*
X145113439Y-146470657D01*
X145113439Y-144946848D02*
X145113439Y-145518276D01*
X145113439Y-145232562D02*
X144113439Y-145232562D01*
X144256297Y-145327800D01*
X144351535Y-145423038D01*
X144399154Y-145518276D01*
X144208678Y-144565895D02*
X144161059Y-144518276D01*
X144113439Y-144423038D01*
X144113439Y-144184943D01*
X144161059Y-144089705D01*
X144208678Y-144042086D01*
X144303916Y-143994467D01*
X144399154Y-143994467D01*
X144542011Y-144042086D01*
X145113439Y-144613514D01*
X145113439Y-143994467D01*
X139160309Y-146470657D02*
X138160309Y-146470657D01*
X138160309Y-146232562D01*
X138207929Y-146089705D01*
X138303167Y-145994467D01*
X138398405Y-145946848D01*
X138588881Y-145899229D01*
X138731738Y-145899229D01*
X138922214Y-145946848D01*
X139017452Y-145994467D01*
X139112690Y-146089705D01*
X139160309Y-146232562D01*
X139160309Y-146470657D01*
X138255548Y-145518276D02*
X138207929Y-145470657D01*
X138160309Y-145375419D01*
X138160309Y-145137324D01*
X138207929Y-145042086D01*
X138255548Y-144994467D01*
X138350786Y-144946848D01*
X138446024Y-144946848D01*
X138588881Y-144994467D01*
X139160309Y-145565895D01*
X139160309Y-144946848D01*
X138493643Y-144089705D02*
X139160309Y-144089705D01*
X138112690Y-144327800D02*
X138826976Y-144565895D01*
X138826976Y-143946848D01*
X140733333Y-95224333D02*
X140685714Y-95271952D01*
X140542857Y-95319571D01*
X140447619Y-95319571D01*
X140304761Y-95271952D01*
X140209523Y-95176714D01*
X140161904Y-95081476D01*
X140114285Y-94891000D01*
X140114285Y-94748143D01*
X140161904Y-94557667D01*
X140209523Y-94462429D01*
X140304761Y-94367191D01*
X140447619Y-94319571D01*
X140542857Y-94319571D01*
X140685714Y-94367191D01*
X140733333Y-94414810D01*
X141066666Y-94319571D02*
X141685714Y-94319571D01*
X141352380Y-94700524D01*
X141495238Y-94700524D01*
X141590476Y-94748143D01*
X141638095Y-94795762D01*
X141685714Y-94891000D01*
X141685714Y-95129095D01*
X141638095Y-95224333D01*
X141590476Y-95271952D01*
X141495238Y-95319571D01*
X141209523Y-95319571D01*
X141114285Y-95271952D01*
X141066666Y-95224333D01*
X125468260Y-77247757D02*
X125468260Y-76247757D01*
X125706356Y-76247757D01*
X125849213Y-76295377D01*
X125944451Y-76390615D01*
X125992070Y-76485853D01*
X126039689Y-76676329D01*
X126039689Y-76819186D01*
X125992070Y-77009662D01*
X125944451Y-77104900D01*
X125849213Y-77200138D01*
X125706356Y-77247757D01*
X125468260Y-77247757D01*
X126992070Y-77247757D02*
X126420641Y-77247757D01*
X126706356Y-77247757D02*
X126706356Y-76247757D01*
X126611117Y-76390615D01*
X126515879Y-76485853D01*
X126420641Y-76533472D01*
X144942857Y-84478571D02*
X145085714Y-84526190D01*
X145133333Y-84573809D01*
X145180952Y-84669047D01*
X145180952Y-84811904D01*
X145133333Y-84907142D01*
X145085714Y-84954761D01*
X144990476Y-85002380D01*
X144609523Y-85002380D01*
X144609523Y-84002380D01*
X144942857Y-84002380D01*
X145038095Y-84050000D01*
X145085714Y-84097619D01*
X145133333Y-84192857D01*
X145133333Y-84288095D01*
X145085714Y-84383333D01*
X145038095Y-84430952D01*
X144942857Y-84478571D01*
X144609523Y-84478571D01*
X145800000Y-84002380D02*
X145990476Y-84002380D01*
X146085714Y-84050000D01*
X146180952Y-84145238D01*
X146228571Y-84335714D01*
X146228571Y-84669047D01*
X146180952Y-84859523D01*
X146085714Y-84954761D01*
X145990476Y-85002380D01*
X145800000Y-85002380D01*
X145704761Y-84954761D01*
X145609523Y-84859523D01*
X145561904Y-84669047D01*
X145561904Y-84335714D01*
X145609523Y-84145238D01*
X145704761Y-84050000D01*
X145800000Y-84002380D01*
X146847619Y-84002380D02*
X147038095Y-84002380D01*
X147133333Y-84050000D01*
X147228571Y-84145238D01*
X147276190Y-84335714D01*
X147276190Y-84669047D01*
X147228571Y-84859523D01*
X147133333Y-84954761D01*
X147038095Y-85002380D01*
X146847619Y-85002380D01*
X146752380Y-84954761D01*
X146657142Y-84859523D01*
X146609523Y-84669047D01*
X146609523Y-84335714D01*
X146657142Y-84145238D01*
X146752380Y-84050000D01*
X146847619Y-84002380D01*
X147561904Y-84002380D02*
X148133333Y-84002380D01*
X147847619Y-85002380D02*
X147847619Y-84002380D01*
X166544707Y-146470657D02*
X165544707Y-146470657D01*
X165544707Y-146232562D01*
X165592327Y-146089705D01*
X165687565Y-145994467D01*
X165782803Y-145946848D01*
X165973279Y-145899229D01*
X166116136Y-145899229D01*
X166306612Y-145946848D01*
X166401850Y-145994467D01*
X166497088Y-146089705D01*
X166544707Y-146232562D01*
X166544707Y-146470657D01*
X165544707Y-144994467D02*
X165544707Y-145470657D01*
X166020898Y-145518276D01*
X165973279Y-145470657D01*
X165925660Y-145375419D01*
X165925660Y-145137324D01*
X165973279Y-145042086D01*
X166020898Y-144994467D01*
X166116136Y-144946848D01*
X166354231Y-144946848D01*
X166449469Y-144994467D01*
X166497088Y-145042086D01*
X166544707Y-145137324D01*
X166544707Y-145375419D01*
X166497088Y-145470657D01*
X166449469Y-145518276D01*
X165878041Y-144089705D02*
X166544707Y-144089705D01*
X165497088Y-144327800D02*
X166211374Y-144565895D01*
X166211374Y-143946848D01*
X143327500Y-64817538D02*
X143327500Y-65293729D01*
X142327500Y-65293729D01*
X142803691Y-64484205D02*
X142803691Y-64150871D01*
X143327500Y-64008014D02*
X143327500Y-64484205D01*
X142327500Y-64484205D01*
X142327500Y-64008014D01*
X143327500Y-63579443D02*
X142327500Y-63579443D01*
X142327500Y-63341348D01*
X142375120Y-63198491D01*
X142470358Y-63103252D01*
X142565596Y-63055633D01*
X142756072Y-63008014D01*
X142898929Y-63008014D01*
X143089405Y-63055633D01*
X143184643Y-63103252D01*
X143279881Y-63198491D01*
X143327500Y-63341348D01*
X143327500Y-63579443D01*
X143327500Y-62055633D02*
X143327500Y-62627062D01*
X143327500Y-62341348D02*
X142327500Y-62341348D01*
X142470358Y-62436586D01*
X142565596Y-62531824D01*
X142613215Y-62627062D01*
X124396757Y-130825927D02*
X124396757Y-129825927D01*
X124634852Y-129825927D01*
X124777709Y-129873547D01*
X124872947Y-129968785D01*
X124920566Y-130064023D01*
X124968185Y-130254499D01*
X124968185Y-130397356D01*
X124920566Y-130587832D01*
X124872947Y-130683070D01*
X124777709Y-130778308D01*
X124634852Y-130825927D01*
X124396757Y-130825927D01*
X125349138Y-129921166D02*
X125396757Y-129873547D01*
X125491995Y-129825927D01*
X125730090Y-129825927D01*
X125825328Y-129873547D01*
X125872947Y-129921166D01*
X125920566Y-130016404D01*
X125920566Y-130111642D01*
X125872947Y-130254499D01*
X125301519Y-130825927D01*
X125920566Y-130825927D01*
X126253900Y-129825927D02*
X126872947Y-129825927D01*
X126539614Y-130206880D01*
X126682471Y-130206880D01*
X126777709Y-130254499D01*
X126825328Y-130302118D01*
X126872947Y-130397356D01*
X126872947Y-130635451D01*
X126825328Y-130730689D01*
X126777709Y-130778308D01*
X126682471Y-130825927D01*
X126396757Y-130825927D01*
X126301519Y-130778308D01*
X126253900Y-130730689D01*
X124396757Y-124872797D02*
X124396757Y-123872797D01*
X124634852Y-123872797D01*
X124777709Y-123920417D01*
X124872947Y-124015655D01*
X124920566Y-124110893D01*
X124968185Y-124301369D01*
X124968185Y-124444226D01*
X124920566Y-124634702D01*
X124872947Y-124729940D01*
X124777709Y-124825178D01*
X124634852Y-124872797D01*
X124396757Y-124872797D01*
X125920566Y-124872797D02*
X125349138Y-124872797D01*
X125634852Y-124872797D02*
X125634852Y-123872797D01*
X125539614Y-124015655D01*
X125444376Y-124110893D01*
X125349138Y-124158512D01*
X126872947Y-124872797D02*
X126301519Y-124872797D01*
X126587233Y-124872797D02*
X126587233Y-123872797D01*
X126491995Y-124015655D01*
X126396757Y-124110893D01*
X126301519Y-124158512D01*
X135707704Y-115943102D02*
X135707704Y-114943102D01*
X135945799Y-114943102D01*
X136088656Y-114990722D01*
X136183894Y-115085960D01*
X136231513Y-115181198D01*
X136279132Y-115371674D01*
X136279132Y-115514531D01*
X136231513Y-115705007D01*
X136183894Y-115800245D01*
X136088656Y-115895483D01*
X135945799Y-115943102D01*
X135707704Y-115943102D01*
X136660085Y-115038341D02*
X136707704Y-114990722D01*
X136802942Y-114943102D01*
X137041037Y-114943102D01*
X137136275Y-114990722D01*
X137183894Y-115038341D01*
X137231513Y-115133579D01*
X137231513Y-115228817D01*
X137183894Y-115371674D01*
X136612466Y-115943102D01*
X137231513Y-115943102D01*
X137802942Y-115371674D02*
X137707704Y-115324055D01*
X137660085Y-115276436D01*
X137612466Y-115181198D01*
X137612466Y-115133579D01*
X137660085Y-115038341D01*
X137707704Y-114990722D01*
X137802942Y-114943102D01*
X137993418Y-114943102D01*
X138088656Y-114990722D01*
X138136275Y-115038341D01*
X138183894Y-115133579D01*
X138183894Y-115181198D01*
X138136275Y-115276436D01*
X138088656Y-115324055D01*
X137993418Y-115371674D01*
X137802942Y-115371674D01*
X137707704Y-115419293D01*
X137660085Y-115466912D01*
X137612466Y-115562150D01*
X137612466Y-115752626D01*
X137660085Y-115847864D01*
X137707704Y-115895483D01*
X137802942Y-115943102D01*
X137993418Y-115943102D01*
X138088656Y-115895483D01*
X138136275Y-115847864D01*
X138183894Y-115752626D01*
X138183894Y-115562150D01*
X138136275Y-115466912D01*
X138088656Y-115419293D01*
X137993418Y-115371674D01*
X124396757Y-112966537D02*
X124396757Y-111966537D01*
X124634852Y-111966537D01*
X124777709Y-112014157D01*
X124872947Y-112109395D01*
X124920566Y-112204633D01*
X124968185Y-112395109D01*
X124968185Y-112537966D01*
X124920566Y-112728442D01*
X124872947Y-112823680D01*
X124777709Y-112918918D01*
X124634852Y-112966537D01*
X124396757Y-112966537D01*
X125349138Y-112061776D02*
X125396757Y-112014157D01*
X125491995Y-111966537D01*
X125730090Y-111966537D01*
X125825328Y-112014157D01*
X125872947Y-112061776D01*
X125920566Y-112157014D01*
X125920566Y-112252252D01*
X125872947Y-112395109D01*
X125301519Y-112966537D01*
X125920566Y-112966537D01*
X126301519Y-112061776D02*
X126349138Y-112014157D01*
X126444376Y-111966537D01*
X126682471Y-111966537D01*
X126777709Y-112014157D01*
X126825328Y-112061776D01*
X126872947Y-112157014D01*
X126872947Y-112252252D01*
X126825328Y-112395109D01*
X126253900Y-112966537D01*
X126872947Y-112966537D01*
X135707704Y-109989972D02*
X135707704Y-108989972D01*
X135945799Y-108989972D01*
X136088656Y-109037592D01*
X136183894Y-109132830D01*
X136231513Y-109228068D01*
X136279132Y-109418544D01*
X136279132Y-109561401D01*
X136231513Y-109751877D01*
X136183894Y-109847115D01*
X136088656Y-109942353D01*
X135945799Y-109989972D01*
X135707704Y-109989972D01*
X137231513Y-109989972D02*
X136660085Y-109989972D01*
X136945799Y-109989972D02*
X136945799Y-108989972D01*
X136850561Y-109132830D01*
X136755323Y-109228068D01*
X136660085Y-109275687D01*
X138088656Y-108989972D02*
X137898180Y-108989972D01*
X137802942Y-109037592D01*
X137755323Y-109085211D01*
X137660085Y-109228068D01*
X137612466Y-109418544D01*
X137612466Y-109799496D01*
X137660085Y-109894734D01*
X137707704Y-109942353D01*
X137802942Y-109989972D01*
X137993418Y-109989972D01*
X138088656Y-109942353D01*
X138136275Y-109894734D01*
X138183894Y-109799496D01*
X138183894Y-109561401D01*
X138136275Y-109466163D01*
X138088656Y-109418544D01*
X137993418Y-109370925D01*
X137802942Y-109370925D01*
X137707704Y-109418544D01*
X137660085Y-109466163D01*
X137612466Y-109561401D01*
X135707704Y-121896232D02*
X135707704Y-120896232D01*
X135945799Y-120896232D01*
X136088656Y-120943852D01*
X136183894Y-121039090D01*
X136231513Y-121134328D01*
X136279132Y-121324804D01*
X136279132Y-121467661D01*
X136231513Y-121658137D01*
X136183894Y-121753375D01*
X136088656Y-121848613D01*
X135945799Y-121896232D01*
X135707704Y-121896232D01*
X137231513Y-121896232D02*
X136660085Y-121896232D01*
X136945799Y-121896232D02*
X136945799Y-120896232D01*
X136850561Y-121039090D01*
X136755323Y-121134328D01*
X136660085Y-121181947D01*
X137850561Y-120896232D02*
X137945799Y-120896232D01*
X138041037Y-120943852D01*
X138088656Y-120991471D01*
X138136275Y-121086709D01*
X138183894Y-121277185D01*
X138183894Y-121515280D01*
X138136275Y-121705756D01*
X138088656Y-121800994D01*
X138041037Y-121848613D01*
X137945799Y-121896232D01*
X137850561Y-121896232D01*
X137755323Y-121848613D01*
X137707704Y-121800994D01*
X137660085Y-121705756D01*
X137612466Y-121515280D01*
X137612466Y-121277185D01*
X137660085Y-121086709D01*
X137707704Y-120991471D01*
X137755323Y-120943852D01*
X137850561Y-120896232D01*
X135707704Y-98083712D02*
X135707704Y-97083712D01*
X135945799Y-97083712D01*
X136088656Y-97131332D01*
X136183894Y-97226570D01*
X136231513Y-97321808D01*
X136279132Y-97512284D01*
X136279132Y-97655141D01*
X136231513Y-97845617D01*
X136183894Y-97940855D01*
X136088656Y-98036093D01*
X135945799Y-98083712D01*
X135707704Y-98083712D01*
X136660085Y-97178951D02*
X136707704Y-97131332D01*
X136802942Y-97083712D01*
X137041037Y-97083712D01*
X137136275Y-97131332D01*
X137183894Y-97178951D01*
X137231513Y-97274189D01*
X137231513Y-97369427D01*
X137183894Y-97512284D01*
X136612466Y-98083712D01*
X137231513Y-98083712D01*
X137564847Y-97083712D02*
X138231513Y-97083712D01*
X137802942Y-98083712D01*
X124396757Y-95107147D02*
X124396757Y-94107147D01*
X124634852Y-94107147D01*
X124777709Y-94154767D01*
X124872947Y-94250005D01*
X124920566Y-94345243D01*
X124968185Y-94535719D01*
X124968185Y-94678576D01*
X124920566Y-94869052D01*
X124872947Y-94964290D01*
X124777709Y-95059528D01*
X124634852Y-95107147D01*
X124396757Y-95107147D01*
X125349138Y-94202386D02*
X125396757Y-94154767D01*
X125491995Y-94107147D01*
X125730090Y-94107147D01*
X125825328Y-94154767D01*
X125872947Y-94202386D01*
X125920566Y-94297624D01*
X125920566Y-94392862D01*
X125872947Y-94535719D01*
X125301519Y-95107147D01*
X125920566Y-95107147D01*
X126872947Y-95107147D02*
X126301519Y-95107147D01*
X126587233Y-95107147D02*
X126587233Y-94107147D01*
X126491995Y-94250005D01*
X126396757Y-94345243D01*
X126301519Y-94392862D01*
X123087008Y-104036842D02*
X123087008Y-103036842D01*
X123325104Y-103036842D01*
X123467961Y-103084462D01*
X123563199Y-103179700D01*
X123610818Y-103274938D01*
X123658437Y-103465414D01*
X123658437Y-103608271D01*
X123610818Y-103798747D01*
X123563199Y-103893985D01*
X123467961Y-103989223D01*
X123325104Y-104036842D01*
X123087008Y-104036842D01*
X124134627Y-104036842D02*
X124325104Y-104036842D01*
X124420342Y-103989223D01*
X124467961Y-103941604D01*
X124563199Y-103798747D01*
X124610818Y-103608271D01*
X124610818Y-103227319D01*
X124563199Y-103132081D01*
X124515580Y-103084462D01*
X124420342Y-103036842D01*
X124229865Y-103036842D01*
X124134627Y-103084462D01*
X124087008Y-103132081D01*
X124039389Y-103227319D01*
X124039389Y-103465414D01*
X124087008Y-103560652D01*
X124134627Y-103608271D01*
X124229865Y-103655890D01*
X124420342Y-103655890D01*
X124515580Y-103608271D01*
X124563199Y-103560652D01*
X124610818Y-103465414D01*
X135707704Y-92130582D02*
X135707704Y-91130582D01*
X135945799Y-91130582D01*
X136088656Y-91178202D01*
X136183894Y-91273440D01*
X136231513Y-91368678D01*
X136279132Y-91559154D01*
X136279132Y-91702011D01*
X136231513Y-91892487D01*
X136183894Y-91987725D01*
X136088656Y-92082963D01*
X135945799Y-92130582D01*
X135707704Y-92130582D01*
X136660085Y-91225821D02*
X136707704Y-91178202D01*
X136802942Y-91130582D01*
X137041037Y-91130582D01*
X137136275Y-91178202D01*
X137183894Y-91225821D01*
X137231513Y-91321059D01*
X137231513Y-91416297D01*
X137183894Y-91559154D01*
X136612466Y-92130582D01*
X137231513Y-92130582D01*
X137850561Y-91130582D02*
X137945799Y-91130582D01*
X138041037Y-91178202D01*
X138088656Y-91225821D01*
X138136275Y-91321059D01*
X138183894Y-91511535D01*
X138183894Y-91749630D01*
X138136275Y-91940106D01*
X138088656Y-92035344D01*
X138041037Y-92082963D01*
X137945799Y-92130582D01*
X137850561Y-92130582D01*
X137755323Y-92082963D01*
X137707704Y-92035344D01*
X137660085Y-91940106D01*
X137612466Y-91749630D01*
X137612466Y-91511535D01*
X137660085Y-91321059D01*
X137707704Y-91225821D01*
X137755323Y-91178202D01*
X137850561Y-91130582D01*
X124396757Y-89154017D02*
X124396757Y-88154017D01*
X124634852Y-88154017D01*
X124777709Y-88201637D01*
X124872947Y-88296875D01*
X124920566Y-88392113D01*
X124968185Y-88582589D01*
X124968185Y-88725446D01*
X124920566Y-88915922D01*
X124872947Y-89011160D01*
X124777709Y-89106398D01*
X124634852Y-89154017D01*
X124396757Y-89154017D01*
X125920566Y-89154017D02*
X125349138Y-89154017D01*
X125634852Y-89154017D02*
X125634852Y-88154017D01*
X125539614Y-88296875D01*
X125444376Y-88392113D01*
X125349138Y-88439732D01*
X126777709Y-88487351D02*
X126777709Y-89154017D01*
X126539614Y-88106398D02*
X126301519Y-88820684D01*
X126920566Y-88820684D01*
X135588581Y-86177452D02*
X135588581Y-85177452D01*
X135826677Y-85177452D01*
X135969534Y-85225072D01*
X136064772Y-85320310D01*
X136112391Y-85415548D01*
X136160010Y-85606024D01*
X136160010Y-85748881D01*
X136112391Y-85939357D01*
X136064772Y-86034595D01*
X135969534Y-86129833D01*
X135826677Y-86177452D01*
X135588581Y-86177452D01*
X136731438Y-85606024D02*
X136636200Y-85558405D01*
X136588581Y-85510786D01*
X136540962Y-85415548D01*
X136540962Y-85367929D01*
X136588581Y-85272691D01*
X136636200Y-85225072D01*
X136731438Y-85177452D01*
X136921915Y-85177452D01*
X137017153Y-85225072D01*
X137064772Y-85272691D01*
X137112391Y-85367929D01*
X137112391Y-85415548D01*
X137064772Y-85510786D01*
X137017153Y-85558405D01*
X136921915Y-85606024D01*
X136731438Y-85606024D01*
X136636200Y-85653643D01*
X136588581Y-85701262D01*
X136540962Y-85796500D01*
X136540962Y-85986976D01*
X136588581Y-86082214D01*
X136636200Y-86129833D01*
X136731438Y-86177452D01*
X136921915Y-86177452D01*
X137017153Y-86129833D01*
X137064772Y-86082214D01*
X137112391Y-85986976D01*
X137112391Y-85796500D01*
X137064772Y-85701262D01*
X137017153Y-85653643D01*
X136921915Y-85606024D01*
X177974927Y-77247757D02*
X177974927Y-76247757D01*
X178213022Y-76247757D01*
X178355879Y-76295377D01*
X178451117Y-76390615D01*
X178498736Y-76485853D01*
X178546355Y-76676329D01*
X178546355Y-76819186D01*
X178498736Y-77009662D01*
X178451117Y-77104900D01*
X178355879Y-77200138D01*
X178213022Y-77247757D01*
X177974927Y-77247757D01*
X178879689Y-76247757D02*
X179498736Y-76247757D01*
X179165403Y-76628710D01*
X179308260Y-76628710D01*
X179403498Y-76676329D01*
X179451117Y-76723948D01*
X179498736Y-76819186D01*
X179498736Y-77057281D01*
X179451117Y-77152519D01*
X179403498Y-77200138D01*
X179308260Y-77247757D01*
X179022546Y-77247757D01*
X178927308Y-77200138D01*
X178879689Y-77152519D01*
X180451117Y-77247757D02*
X179879689Y-77247757D01*
X180165403Y-77247757D02*
X180165403Y-76247757D01*
X180070165Y-76390615D01*
X179974927Y-76485853D01*
X179879689Y-76533472D01*
X135588581Y-74271192D02*
X135588581Y-73271192D01*
X135826677Y-73271192D01*
X135969534Y-73318812D01*
X136064772Y-73414050D01*
X136112391Y-73509288D01*
X136160010Y-73699764D01*
X136160010Y-73842621D01*
X136112391Y-74033097D01*
X136064772Y-74128335D01*
X135969534Y-74223573D01*
X135826677Y-74271192D01*
X135588581Y-74271192D01*
X136493343Y-73271192D02*
X137160010Y-73271192D01*
X136731438Y-74271192D01*
X166663980Y-74271192D02*
X166663980Y-73271192D01*
X166902075Y-73271192D01*
X167044932Y-73318812D01*
X167140170Y-73414050D01*
X167187789Y-73509288D01*
X167235408Y-73699764D01*
X167235408Y-73842621D01*
X167187789Y-74033097D01*
X167140170Y-74128335D01*
X167044932Y-74223573D01*
X166902075Y-74271192D01*
X166663980Y-74271192D01*
X167568742Y-73271192D02*
X168187789Y-73271192D01*
X167854456Y-73652145D01*
X167997313Y-73652145D01*
X168092551Y-73699764D01*
X168140170Y-73747383D01*
X168187789Y-73842621D01*
X168187789Y-74080716D01*
X168140170Y-74175954D01*
X168092551Y-74223573D01*
X167997313Y-74271192D01*
X167711599Y-74271192D01*
X167616361Y-74223573D01*
X167568742Y-74175954D01*
X168521123Y-73271192D02*
X169187789Y-73271192D01*
X168759218Y-74271192D01*
X135112391Y-68318062D02*
X135112391Y-67318062D01*
X135350486Y-67318062D01*
X135493343Y-67365682D01*
X135588581Y-67460920D01*
X135636200Y-67556158D01*
X135683819Y-67746634D01*
X135683819Y-67889491D01*
X135636200Y-68079967D01*
X135588581Y-68175205D01*
X135493343Y-68270443D01*
X135350486Y-68318062D01*
X135112391Y-68318062D01*
X136636200Y-68318062D02*
X136064772Y-68318062D01*
X136350486Y-68318062D02*
X136350486Y-67318062D01*
X136255248Y-67460920D01*
X136160010Y-67556158D01*
X136064772Y-67603777D01*
X137112391Y-68318062D02*
X137302867Y-68318062D01*
X137398105Y-68270443D01*
X137445724Y-68222824D01*
X137540962Y-68079967D01*
X137588581Y-67889491D01*
X137588581Y-67508539D01*
X137540962Y-67413301D01*
X137493343Y-67365682D01*
X137398105Y-67318062D01*
X137207629Y-67318062D01*
X137112391Y-67365682D01*
X137064772Y-67413301D01*
X137017153Y-67508539D01*
X137017153Y-67746634D01*
X137064772Y-67841872D01*
X137112391Y-67889491D01*
X137207629Y-67937110D01*
X137398105Y-67937110D01*
X137493343Y-67889491D01*
X137540962Y-67841872D01*
X137588581Y-67746634D01*
X163568142Y-135159710D02*
X162568142Y-135159710D01*
X162568142Y-134921615D01*
X162615762Y-134778758D01*
X162711000Y-134683520D01*
X162806238Y-134635901D01*
X162996714Y-134588282D01*
X163139571Y-134588282D01*
X163330047Y-134635901D01*
X163425285Y-134683520D01*
X163520523Y-134778758D01*
X163568142Y-134921615D01*
X163568142Y-135159710D01*
X162901476Y-133731139D02*
X163568142Y-133731139D01*
X162520523Y-133969234D02*
X163234809Y-134207329D01*
X163234809Y-133588282D01*
X162996714Y-133064472D02*
X162949095Y-133159710D01*
X162901476Y-133207329D01*
X162806238Y-133254948D01*
X162758619Y-133254948D01*
X162663381Y-133207329D01*
X162615762Y-133159710D01*
X162568142Y-133064472D01*
X162568142Y-132873996D01*
X162615762Y-132778758D01*
X162663381Y-132731139D01*
X162758619Y-132683520D01*
X162806238Y-132683520D01*
X162901476Y-132731139D01*
X162949095Y-132778758D01*
X162996714Y-132873996D01*
X162996714Y-133064472D01*
X163044333Y-133159710D01*
X163091952Y-133207329D01*
X163187190Y-133254948D01*
X163377666Y-133254948D01*
X163472904Y-133207329D01*
X163520523Y-133159710D01*
X163568142Y-133064472D01*
X163568142Y-132873996D01*
X163520523Y-132778758D01*
X163472904Y-132731139D01*
X163377666Y-132683520D01*
X163187190Y-132683520D01*
X163091952Y-132731139D01*
X163044333Y-132778758D01*
X162996714Y-132873996D01*
X144847619Y-76052380D02*
X144514285Y-75576190D01*
X144276190Y-76052380D02*
X144276190Y-75052380D01*
X144657142Y-75052380D01*
X144752380Y-75100000D01*
X144800000Y-75147619D01*
X144847619Y-75242857D01*
X144847619Y-75385714D01*
X144800000Y-75480952D01*
X144752380Y-75528571D01*
X144657142Y-75576190D01*
X144276190Y-75576190D01*
X145276190Y-75528571D02*
X145609523Y-75528571D01*
X145752380Y-76052380D02*
X145276190Y-76052380D01*
X145276190Y-75052380D01*
X145752380Y-75052380D01*
X146133333Y-76004761D02*
X146276190Y-76052380D01*
X146514285Y-76052380D01*
X146609523Y-76004761D01*
X146657142Y-75957142D01*
X146704761Y-75861904D01*
X146704761Y-75766666D01*
X146657142Y-75671428D01*
X146609523Y-75623809D01*
X146514285Y-75576190D01*
X146323809Y-75528571D01*
X146228571Y-75480952D01*
X146180952Y-75433333D01*
X146133333Y-75338095D01*
X146133333Y-75242857D01*
X146180952Y-75147619D01*
X146228571Y-75100000D01*
X146323809Y-75052380D01*
X146561904Y-75052380D01*
X146704761Y-75100000D01*
X147133333Y-75528571D02*
X147466666Y-75528571D01*
X147609523Y-76052380D02*
X147133333Y-76052380D01*
X147133333Y-75052380D01*
X147609523Y-75052380D01*
X147895238Y-75052380D02*
X148466666Y-75052380D01*
X148180952Y-76052380D02*
X148180952Y-75052380D01*
X164773333Y-82375890D02*
X164725714Y-82423509D01*
X164582857Y-82471128D01*
X164487619Y-82471128D01*
X164344761Y-82423509D01*
X164249523Y-82328271D01*
X164201904Y-82233033D01*
X164154285Y-82042557D01*
X164154285Y-81899700D01*
X164201904Y-81709224D01*
X164249523Y-81613986D01*
X164344761Y-81518748D01*
X164487619Y-81471128D01*
X164582857Y-81471128D01*
X164725714Y-81518748D01*
X164773333Y-81566367D01*
X165630476Y-81804462D02*
X165630476Y-82471128D01*
X165392380Y-81423509D02*
X165154285Y-82137795D01*
X165773333Y-82137795D01*
X165301904Y-87795238D02*
X165301904Y-88252380D01*
X165301904Y-88023809D02*
X164501904Y-88023809D01*
X164616190Y-88100000D01*
X164692380Y-88176190D01*
X164730476Y-88252380D01*
X164501904Y-87300000D02*
X164501904Y-87223809D01*
X164540000Y-87147619D01*
X164578095Y-87109523D01*
X164654285Y-87071428D01*
X164806666Y-87033333D01*
X164997142Y-87033333D01*
X165149523Y-87071428D01*
X165225714Y-87109523D01*
X165263809Y-87147619D01*
X165301904Y-87223809D01*
X165301904Y-87300000D01*
X165263809Y-87376190D01*
X165225714Y-87414285D01*
X165149523Y-87452380D01*
X164997142Y-87490476D01*
X164806666Y-87490476D01*
X164654285Y-87452380D01*
X164578095Y-87414285D01*
X164540000Y-87376190D01*
X164501904Y-87300000D01*
X164501904Y-86538095D02*
X164501904Y-86461904D01*
X164540000Y-86385714D01*
X164578095Y-86347619D01*
X164654285Y-86309523D01*
X164806666Y-86271428D01*
X164997142Y-86271428D01*
X165149523Y-86309523D01*
X165225714Y-86347619D01*
X165263809Y-86385714D01*
X165301904Y-86461904D01*
X165301904Y-86538095D01*
X165263809Y-86614285D01*
X165225714Y-86652380D01*
X165149523Y-86690476D01*
X164997142Y-86728571D01*
X164806666Y-86728571D01*
X164654285Y-86690476D01*
X164578095Y-86652380D01*
X164540000Y-86614285D01*
X164501904Y-86538095D01*
X164768571Y-85928571D02*
X165301904Y-85928571D01*
X164844761Y-85928571D02*
X164806666Y-85890476D01*
X164768571Y-85814285D01*
X164768571Y-85700000D01*
X164806666Y-85623809D01*
X164882857Y-85585714D01*
X165301904Y-85585714D01*
X136779057Y-135159710D02*
X135779057Y-135159710D01*
X135779057Y-134921615D01*
X135826677Y-134778758D01*
X135921915Y-134683520D01*
X136017153Y-134635901D01*
X136207629Y-134588282D01*
X136350486Y-134588282D01*
X136540962Y-134635901D01*
X136636200Y-134683520D01*
X136731438Y-134778758D01*
X136779057Y-134921615D01*
X136779057Y-135159710D01*
X135779057Y-134254948D02*
X135779057Y-133635901D01*
X136160010Y-133969234D01*
X136160010Y-133826377D01*
X136207629Y-133731139D01*
X136255248Y-133683520D01*
X136350486Y-133635901D01*
X136588581Y-133635901D01*
X136683819Y-133683520D01*
X136731438Y-133731139D01*
X136779057Y-133826377D01*
X136779057Y-134112091D01*
X136731438Y-134207329D01*
X136683819Y-134254948D01*
X135779057Y-133016853D02*
X135779057Y-132921615D01*
X135826677Y-132826377D01*
X135874296Y-132778758D01*
X135969534Y-132731139D01*
X136160010Y-132683520D01*
X136398105Y-132683520D01*
X136588581Y-132731139D01*
X136683819Y-132778758D01*
X136731438Y-132826377D01*
X136779057Y-132921615D01*
X136779057Y-133016853D01*
X136731438Y-133112091D01*
X136683819Y-133159710D01*
X136588581Y-133207329D01*
X136398105Y-133254948D01*
X136160010Y-133254948D01*
X135969534Y-133207329D01*
X135874296Y-133159710D01*
X135826677Y-133112091D01*
X135779057Y-133016853D01*
X166663980Y-115943102D02*
X166663980Y-114943102D01*
X166902075Y-114943102D01*
X167044932Y-114990722D01*
X167140170Y-115085960D01*
X167187789Y-115181198D01*
X167235408Y-115371674D01*
X167235408Y-115514531D01*
X167187789Y-115705007D01*
X167140170Y-115800245D01*
X167044932Y-115895483D01*
X166902075Y-115943102D01*
X166663980Y-115943102D01*
X168140170Y-114943102D02*
X167663980Y-114943102D01*
X167616361Y-115419293D01*
X167663980Y-115371674D01*
X167759218Y-115324055D01*
X167997313Y-115324055D01*
X168092551Y-115371674D01*
X168140170Y-115419293D01*
X168187789Y-115514531D01*
X168187789Y-115752626D01*
X168140170Y-115847864D01*
X168092551Y-115895483D01*
X167997313Y-115943102D01*
X167759218Y-115943102D01*
X167663980Y-115895483D01*
X167616361Y-115847864D01*
X168759218Y-115371674D02*
X168663980Y-115324055D01*
X168616361Y-115276436D01*
X168568742Y-115181198D01*
X168568742Y-115133579D01*
X168616361Y-115038341D01*
X168663980Y-114990722D01*
X168759218Y-114943102D01*
X168949694Y-114943102D01*
X169044932Y-114990722D01*
X169092551Y-115038341D01*
X169140170Y-115133579D01*
X169140170Y-115181198D01*
X169092551Y-115276436D01*
X169044932Y-115324055D01*
X168949694Y-115371674D01*
X168759218Y-115371674D01*
X168663980Y-115419293D01*
X168616361Y-115466912D01*
X168568742Y-115562150D01*
X168568742Y-115752626D01*
X168616361Y-115847864D01*
X168663980Y-115895483D01*
X168759218Y-115943102D01*
X168949694Y-115943102D01*
X169044932Y-115895483D01*
X169092551Y-115847864D01*
X169140170Y-115752626D01*
X169140170Y-115562150D01*
X169092551Y-115466912D01*
X169044932Y-115419293D01*
X168949694Y-115371674D01*
X168925959Y-135159710D02*
X167925959Y-135159710D01*
X167925959Y-134921615D01*
X167973579Y-134778758D01*
X168068817Y-134683520D01*
X168164055Y-134635901D01*
X168354531Y-134588282D01*
X168497388Y-134588282D01*
X168687864Y-134635901D01*
X168783102Y-134683520D01*
X168878340Y-134778758D01*
X168925959Y-134921615D01*
X168925959Y-135159710D01*
X167925959Y-133731139D02*
X167925959Y-133921615D01*
X167973579Y-134016853D01*
X168021198Y-134064472D01*
X168164055Y-134159710D01*
X168354531Y-134207329D01*
X168735483Y-134207329D01*
X168830721Y-134159710D01*
X168878340Y-134112091D01*
X168925959Y-134016853D01*
X168925959Y-133826377D01*
X168878340Y-133731139D01*
X168830721Y-133683520D01*
X168735483Y-133635901D01*
X168497388Y-133635901D01*
X168402150Y-133683520D01*
X168354531Y-133731139D01*
X168306912Y-133826377D01*
X168306912Y-134016853D01*
X168354531Y-134112091D01*
X168402150Y-134159710D01*
X168497388Y-134207329D01*
X167925959Y-133016853D02*
X167925959Y-132921615D01*
X167973579Y-132826377D01*
X168021198Y-132778758D01*
X168116436Y-132731139D01*
X168306912Y-132683520D01*
X168545007Y-132683520D01*
X168735483Y-132731139D01*
X168830721Y-132778758D01*
X168878340Y-132826377D01*
X168925959Y-132921615D01*
X168925959Y-133016853D01*
X168878340Y-133112091D01*
X168830721Y-133159710D01*
X168735483Y-133207329D01*
X168545007Y-133254948D01*
X168306912Y-133254948D01*
X168116436Y-133207329D01*
X168021198Y-133159710D01*
X167973579Y-133112091D01*
X167925959Y-133016853D01*
X166663980Y-80224322D02*
X166663980Y-79224322D01*
X166902075Y-79224322D01*
X167044932Y-79271942D01*
X167140170Y-79367180D01*
X167187789Y-79462418D01*
X167235408Y-79652894D01*
X167235408Y-79795751D01*
X167187789Y-79986227D01*
X167140170Y-80081465D01*
X167044932Y-80176703D01*
X166902075Y-80224322D01*
X166663980Y-80224322D01*
X168140170Y-79224322D02*
X167663980Y-79224322D01*
X167616361Y-79700513D01*
X167663980Y-79652894D01*
X167759218Y-79605275D01*
X167997313Y-79605275D01*
X168092551Y-79652894D01*
X168140170Y-79700513D01*
X168187789Y-79795751D01*
X168187789Y-80033846D01*
X168140170Y-80129084D01*
X168092551Y-80176703D01*
X167997313Y-80224322D01*
X167759218Y-80224322D01*
X167663980Y-80176703D01*
X167616361Y-80129084D01*
X169044932Y-79224322D02*
X168854456Y-79224322D01*
X168759218Y-79271942D01*
X168711599Y-79319561D01*
X168616361Y-79462418D01*
X168568742Y-79652894D01*
X168568742Y-80033846D01*
X168616361Y-80129084D01*
X168663980Y-80176703D01*
X168759218Y-80224322D01*
X168949694Y-80224322D01*
X169044932Y-80176703D01*
X169092551Y-80129084D01*
X169140170Y-80033846D01*
X169140170Y-79795751D01*
X169092551Y-79700513D01*
X169044932Y-79652894D01*
X168949694Y-79605275D01*
X168759218Y-79605275D01*
X168663980Y-79652894D01*
X168616361Y-79700513D01*
X168568742Y-79795751D01*
X177974927Y-65341497D02*
X177974927Y-64341497D01*
X178213022Y-64341497D01*
X178355879Y-64389117D01*
X178451117Y-64484355D01*
X178498736Y-64579593D01*
X178546355Y-64770069D01*
X178546355Y-64912926D01*
X178498736Y-65103402D01*
X178451117Y-65198640D01*
X178355879Y-65293878D01*
X178213022Y-65341497D01*
X177974927Y-65341497D01*
X179451117Y-64341497D02*
X178974927Y-64341497D01*
X178927308Y-64817688D01*
X178974927Y-64770069D01*
X179070165Y-64722450D01*
X179308260Y-64722450D01*
X179403498Y-64770069D01*
X179451117Y-64817688D01*
X179498736Y-64912926D01*
X179498736Y-65151021D01*
X179451117Y-65246259D01*
X179403498Y-65293878D01*
X179308260Y-65341497D01*
X179070165Y-65341497D01*
X178974927Y-65293878D01*
X178927308Y-65246259D01*
X180403498Y-64341497D02*
X179927308Y-64341497D01*
X179879689Y-64817688D01*
X179927308Y-64770069D01*
X180022546Y-64722450D01*
X180260641Y-64722450D01*
X180355879Y-64770069D01*
X180403498Y-64817688D01*
X180451117Y-64912926D01*
X180451117Y-65151021D01*
X180403498Y-65246259D01*
X180355879Y-65293878D01*
X180260641Y-65341497D01*
X180022546Y-65341497D01*
X179927308Y-65293878D01*
X179879689Y-65246259D01*
X166663980Y-68318062D02*
X166663980Y-67318062D01*
X166902075Y-67318062D01*
X167044932Y-67365682D01*
X167140170Y-67460920D01*
X167187789Y-67556158D01*
X167235408Y-67746634D01*
X167235408Y-67889491D01*
X167187789Y-68079967D01*
X167140170Y-68175205D01*
X167044932Y-68270443D01*
X166902075Y-68318062D01*
X166663980Y-68318062D01*
X168092551Y-67651396D02*
X168092551Y-68318062D01*
X167854456Y-67270443D02*
X167616361Y-67984729D01*
X168235408Y-67984729D01*
X168663980Y-68318062D02*
X168854456Y-68318062D01*
X168949694Y-68270443D01*
X168997313Y-68222824D01*
X169092551Y-68079967D01*
X169140170Y-67889491D01*
X169140170Y-67508539D01*
X169092551Y-67413301D01*
X169044932Y-67365682D01*
X168949694Y-67318062D01*
X168759218Y-67318062D01*
X168663980Y-67365682D01*
X168616361Y-67413301D01*
X168568742Y-67508539D01*
X168568742Y-67746634D01*
X168616361Y-67841872D01*
X168663980Y-67889491D01*
X168759218Y-67937110D01*
X168949694Y-67937110D01*
X169044932Y-67889491D01*
X169092551Y-67841872D01*
X169140170Y-67746634D01*
X177974927Y-83200887D02*
X177974927Y-82200887D01*
X178213022Y-82200887D01*
X178355879Y-82248507D01*
X178451117Y-82343745D01*
X178498736Y-82438983D01*
X178546355Y-82629459D01*
X178546355Y-82772316D01*
X178498736Y-82962792D01*
X178451117Y-83058030D01*
X178355879Y-83153268D01*
X178213022Y-83200887D01*
X177974927Y-83200887D01*
X178879689Y-82200887D02*
X179498736Y-82200887D01*
X179165403Y-82581840D01*
X179308260Y-82581840D01*
X179403498Y-82629459D01*
X179451117Y-82677078D01*
X179498736Y-82772316D01*
X179498736Y-83010411D01*
X179451117Y-83105649D01*
X179403498Y-83153268D01*
X179308260Y-83200887D01*
X179022546Y-83200887D01*
X178927308Y-83153268D01*
X178879689Y-83105649D01*
X179879689Y-82296126D02*
X179927308Y-82248507D01*
X180022546Y-82200887D01*
X180260641Y-82200887D01*
X180355879Y-82248507D01*
X180403498Y-82296126D01*
X180451117Y-82391364D01*
X180451117Y-82486602D01*
X180403498Y-82629459D01*
X179832070Y-83200887D01*
X180451117Y-83200887D01*
X166663980Y-98083712D02*
X166663980Y-97083712D01*
X166902075Y-97083712D01*
X167044932Y-97131332D01*
X167140170Y-97226570D01*
X167187789Y-97321808D01*
X167235408Y-97512284D01*
X167235408Y-97655141D01*
X167187789Y-97845617D01*
X167140170Y-97940855D01*
X167044932Y-98036093D01*
X166902075Y-98083712D01*
X166663980Y-98083712D01*
X168140170Y-97083712D02*
X167663980Y-97083712D01*
X167616361Y-97559903D01*
X167663980Y-97512284D01*
X167759218Y-97464665D01*
X167997313Y-97464665D01*
X168092551Y-97512284D01*
X168140170Y-97559903D01*
X168187789Y-97655141D01*
X168187789Y-97893236D01*
X168140170Y-97988474D01*
X168092551Y-98036093D01*
X167997313Y-98083712D01*
X167759218Y-98083712D01*
X167663980Y-98036093D01*
X167616361Y-97988474D01*
X168521123Y-97083712D02*
X169187789Y-97083712D01*
X168759218Y-98083712D01*
X166663980Y-92130582D02*
X166663980Y-91130582D01*
X166902075Y-91130582D01*
X167044932Y-91178202D01*
X167140170Y-91273440D01*
X167187789Y-91368678D01*
X167235408Y-91559154D01*
X167235408Y-91702011D01*
X167187789Y-91892487D01*
X167140170Y-91987725D01*
X167044932Y-92082963D01*
X166902075Y-92130582D01*
X166663980Y-92130582D01*
X168140170Y-91130582D02*
X167663980Y-91130582D01*
X167616361Y-91606773D01*
X167663980Y-91559154D01*
X167759218Y-91511535D01*
X167997313Y-91511535D01*
X168092551Y-91559154D01*
X168140170Y-91606773D01*
X168187789Y-91702011D01*
X168187789Y-91940106D01*
X168140170Y-92035344D01*
X168092551Y-92082963D01*
X167997313Y-92130582D01*
X167759218Y-92130582D01*
X167663980Y-92082963D01*
X167616361Y-92035344D01*
X168806837Y-91130582D02*
X168902075Y-91130582D01*
X168997313Y-91178202D01*
X169044932Y-91225821D01*
X169092551Y-91321059D01*
X169140170Y-91511535D01*
X169140170Y-91749630D01*
X169092551Y-91940106D01*
X169044932Y-92035344D01*
X168997313Y-92082963D01*
X168902075Y-92130582D01*
X168806837Y-92130582D01*
X168711599Y-92082963D01*
X168663980Y-92035344D01*
X168616361Y-91940106D01*
X168568742Y-91749630D01*
X168568742Y-91511535D01*
X168616361Y-91321059D01*
X168663980Y-91225821D01*
X168711599Y-91178202D01*
X168806837Y-91130582D01*
X177974927Y-95107147D02*
X177974927Y-94107147D01*
X178213022Y-94107147D01*
X178355879Y-94154767D01*
X178451117Y-94250005D01*
X178498736Y-94345243D01*
X178546355Y-94535719D01*
X178546355Y-94678576D01*
X178498736Y-94869052D01*
X178451117Y-94964290D01*
X178355879Y-95059528D01*
X178213022Y-95107147D01*
X177974927Y-95107147D01*
X179451117Y-94107147D02*
X178974927Y-94107147D01*
X178927308Y-94583338D01*
X178974927Y-94535719D01*
X179070165Y-94488100D01*
X179308260Y-94488100D01*
X179403498Y-94535719D01*
X179451117Y-94583338D01*
X179498736Y-94678576D01*
X179498736Y-94916671D01*
X179451117Y-95011909D01*
X179403498Y-95059528D01*
X179308260Y-95107147D01*
X179070165Y-95107147D01*
X178974927Y-95059528D01*
X178927308Y-95011909D01*
X180451117Y-95107147D02*
X179879689Y-95107147D01*
X180165403Y-95107147D02*
X180165403Y-94107147D01*
X180070165Y-94250005D01*
X179974927Y-94345243D01*
X179879689Y-94392862D01*
X177974927Y-107013407D02*
X177974927Y-106013407D01*
X178213022Y-106013407D01*
X178355879Y-106061027D01*
X178451117Y-106156265D01*
X178498736Y-106251503D01*
X178546355Y-106441979D01*
X178546355Y-106584836D01*
X178498736Y-106775312D01*
X178451117Y-106870550D01*
X178355879Y-106965788D01*
X178213022Y-107013407D01*
X177974927Y-107013407D01*
X179403498Y-106346741D02*
X179403498Y-107013407D01*
X179165403Y-105965788D02*
X178927308Y-106680074D01*
X179546355Y-106680074D01*
X180403498Y-106013407D02*
X179927308Y-106013407D01*
X179879689Y-106489598D01*
X179927308Y-106441979D01*
X180022546Y-106394360D01*
X180260641Y-106394360D01*
X180355879Y-106441979D01*
X180403498Y-106489598D01*
X180451117Y-106584836D01*
X180451117Y-106822931D01*
X180403498Y-106918169D01*
X180355879Y-106965788D01*
X180260641Y-107013407D01*
X180022546Y-107013407D01*
X179927308Y-106965788D01*
X179879689Y-106918169D01*
X166663980Y-104036842D02*
X166663980Y-103036842D01*
X166902075Y-103036842D01*
X167044932Y-103084462D01*
X167140170Y-103179700D01*
X167187789Y-103274938D01*
X167235408Y-103465414D01*
X167235408Y-103608271D01*
X167187789Y-103798747D01*
X167140170Y-103893985D01*
X167044932Y-103989223D01*
X166902075Y-104036842D01*
X166663980Y-104036842D01*
X167568742Y-103036842D02*
X168187789Y-103036842D01*
X167854456Y-103417795D01*
X167997313Y-103417795D01*
X168092551Y-103465414D01*
X168140170Y-103513033D01*
X168187789Y-103608271D01*
X168187789Y-103846366D01*
X168140170Y-103941604D01*
X168092551Y-103989223D01*
X167997313Y-104036842D01*
X167711599Y-104036842D01*
X167616361Y-103989223D01*
X167568742Y-103941604D01*
X168663980Y-104036842D02*
X168854456Y-104036842D01*
X168949694Y-103989223D01*
X168997313Y-103941604D01*
X169092551Y-103798747D01*
X169140170Y-103608271D01*
X169140170Y-103227319D01*
X169092551Y-103132081D01*
X169044932Y-103084462D01*
X168949694Y-103036842D01*
X168759218Y-103036842D01*
X168663980Y-103084462D01*
X168616361Y-103132081D01*
X168568742Y-103227319D01*
X168568742Y-103465414D01*
X168616361Y-103560652D01*
X168663980Y-103608271D01*
X168759218Y-103655890D01*
X168949694Y-103655890D01*
X169044932Y-103608271D01*
X169092551Y-103560652D01*
X169140170Y-103465414D01*
X177974927Y-101060277D02*
X177974927Y-100060277D01*
X178213022Y-100060277D01*
X178355879Y-100107897D01*
X178451117Y-100203135D01*
X178498736Y-100298373D01*
X178546355Y-100488849D01*
X178546355Y-100631706D01*
X178498736Y-100822182D01*
X178451117Y-100917420D01*
X178355879Y-101012658D01*
X178213022Y-101060277D01*
X177974927Y-101060277D01*
X178879689Y-100060277D02*
X179498736Y-100060277D01*
X179165403Y-100441230D01*
X179308260Y-100441230D01*
X179403498Y-100488849D01*
X179451117Y-100536468D01*
X179498736Y-100631706D01*
X179498736Y-100869801D01*
X179451117Y-100965039D01*
X179403498Y-101012658D01*
X179308260Y-101060277D01*
X179022546Y-101060277D01*
X178927308Y-101012658D01*
X178879689Y-100965039D01*
X179832070Y-100060277D02*
X180451117Y-100060277D01*
X180117784Y-100441230D01*
X180260641Y-100441230D01*
X180355879Y-100488849D01*
X180403498Y-100536468D01*
X180451117Y-100631706D01*
X180451117Y-100869801D01*
X180403498Y-100965039D01*
X180355879Y-101012658D01*
X180260641Y-101060277D01*
X179974927Y-101060277D01*
X179879689Y-101012658D01*
X179832070Y-100965039D01*
X166663980Y-86177452D02*
X166663980Y-85177452D01*
X166902075Y-85177452D01*
X167044932Y-85225072D01*
X167140170Y-85320310D01*
X167187789Y-85415548D01*
X167235408Y-85606024D01*
X167235408Y-85748881D01*
X167187789Y-85939357D01*
X167140170Y-86034595D01*
X167044932Y-86129833D01*
X166902075Y-86177452D01*
X166663980Y-86177452D01*
X167568742Y-85177452D02*
X168187789Y-85177452D01*
X167854456Y-85558405D01*
X167997313Y-85558405D01*
X168092551Y-85606024D01*
X168140170Y-85653643D01*
X168187789Y-85748881D01*
X168187789Y-85986976D01*
X168140170Y-86082214D01*
X168092551Y-86129833D01*
X167997313Y-86177452D01*
X167711599Y-86177452D01*
X167616361Y-86129833D01*
X167568742Y-86082214D01*
X168759218Y-85606024D02*
X168663980Y-85558405D01*
X168616361Y-85510786D01*
X168568742Y-85415548D01*
X168568742Y-85367929D01*
X168616361Y-85272691D01*
X168663980Y-85225072D01*
X168759218Y-85177452D01*
X168949694Y-85177452D01*
X169044932Y-85225072D01*
X169092551Y-85272691D01*
X169140170Y-85367929D01*
X169140170Y-85415548D01*
X169092551Y-85510786D01*
X169044932Y-85558405D01*
X168949694Y-85606024D01*
X168759218Y-85606024D01*
X168663980Y-85653643D01*
X168616361Y-85701262D01*
X168568742Y-85796500D01*
X168568742Y-85986976D01*
X168616361Y-86082214D01*
X168663980Y-86129833D01*
X168759218Y-86177452D01*
X168949694Y-86177452D01*
X169044932Y-86129833D01*
X169092551Y-86082214D01*
X169140170Y-85986976D01*
X169140170Y-85796500D01*
X169092551Y-85701262D01*
X169044932Y-85653643D01*
X168949694Y-85606024D01*
X177974927Y-112966537D02*
X177974927Y-111966537D01*
X178213022Y-111966537D01*
X178355879Y-112014157D01*
X178451117Y-112109395D01*
X178498736Y-112204633D01*
X178546355Y-112395109D01*
X178546355Y-112537966D01*
X178498736Y-112728442D01*
X178451117Y-112823680D01*
X178355879Y-112918918D01*
X178213022Y-112966537D01*
X177974927Y-112966537D01*
X179451117Y-111966537D02*
X178974927Y-111966537D01*
X178927308Y-112442728D01*
X178974927Y-112395109D01*
X179070165Y-112347490D01*
X179308260Y-112347490D01*
X179403498Y-112395109D01*
X179451117Y-112442728D01*
X179498736Y-112537966D01*
X179498736Y-112776061D01*
X179451117Y-112871299D01*
X179403498Y-112918918D01*
X179308260Y-112966537D01*
X179070165Y-112966537D01*
X178974927Y-112918918D01*
X178927308Y-112871299D01*
X179879689Y-112061776D02*
X179927308Y-112014157D01*
X180022546Y-111966537D01*
X180260641Y-111966537D01*
X180355879Y-112014157D01*
X180403498Y-112061776D01*
X180451117Y-112157014D01*
X180451117Y-112252252D01*
X180403498Y-112395109D01*
X179832070Y-112966537D01*
X180451117Y-112966537D01*
X166663980Y-109989972D02*
X166663980Y-108989972D01*
X166902075Y-108989972D01*
X167044932Y-109037592D01*
X167140170Y-109132830D01*
X167187789Y-109228068D01*
X167235408Y-109418544D01*
X167235408Y-109561401D01*
X167187789Y-109751877D01*
X167140170Y-109847115D01*
X167044932Y-109942353D01*
X166902075Y-109989972D01*
X166663980Y-109989972D01*
X168092551Y-109323306D02*
X168092551Y-109989972D01*
X167854456Y-108942353D02*
X167616361Y-109656639D01*
X168235408Y-109656639D01*
X169044932Y-108989972D02*
X168854456Y-108989972D01*
X168759218Y-109037592D01*
X168711599Y-109085211D01*
X168616361Y-109228068D01*
X168568742Y-109418544D01*
X168568742Y-109799496D01*
X168616361Y-109894734D01*
X168663980Y-109942353D01*
X168759218Y-109989972D01*
X168949694Y-109989972D01*
X169044932Y-109942353D01*
X169092551Y-109894734D01*
X169140170Y-109799496D01*
X169140170Y-109561401D01*
X169092551Y-109466163D01*
X169044932Y-109418544D01*
X168949694Y-109370925D01*
X168759218Y-109370925D01*
X168663980Y-109418544D01*
X168616361Y-109466163D01*
X168568742Y-109561401D01*
X177974927Y-118919667D02*
X177974927Y-117919667D01*
X178213022Y-117919667D01*
X178355879Y-117967287D01*
X178451117Y-118062525D01*
X178498736Y-118157763D01*
X178546355Y-118348239D01*
X178546355Y-118491096D01*
X178498736Y-118681572D01*
X178451117Y-118776810D01*
X178355879Y-118872048D01*
X178213022Y-118919667D01*
X177974927Y-118919667D01*
X178879689Y-117919667D02*
X179498736Y-117919667D01*
X179165403Y-118300620D01*
X179308260Y-118300620D01*
X179403498Y-118348239D01*
X179451117Y-118395858D01*
X179498736Y-118491096D01*
X179498736Y-118729191D01*
X179451117Y-118824429D01*
X179403498Y-118872048D01*
X179308260Y-118919667D01*
X179022546Y-118919667D01*
X178927308Y-118872048D01*
X178879689Y-118824429D01*
X180355879Y-118253001D02*
X180355879Y-118919667D01*
X180117784Y-117872048D02*
X179879689Y-118586334D01*
X180498736Y-118586334D01*
X177974927Y-89154017D02*
X177974927Y-88154017D01*
X178213022Y-88154017D01*
X178355879Y-88201637D01*
X178451117Y-88296875D01*
X178498736Y-88392113D01*
X178546355Y-88582589D01*
X178546355Y-88725446D01*
X178498736Y-88915922D01*
X178451117Y-89011160D01*
X178355879Y-89106398D01*
X178213022Y-89154017D01*
X177974927Y-89154017D01*
X179403498Y-88487351D02*
X179403498Y-89154017D01*
X179165403Y-88106398D02*
X178927308Y-88820684D01*
X179546355Y-88820684D01*
X180355879Y-88487351D02*
X180355879Y-89154017D01*
X180117784Y-88106398D02*
X179879689Y-88820684D01*
X180498736Y-88820684D01*
X177974927Y-71294627D02*
X177974927Y-70294627D01*
X178213022Y-70294627D01*
X178355879Y-70342247D01*
X178451117Y-70437485D01*
X178498736Y-70532723D01*
X178546355Y-70723199D01*
X178546355Y-70866056D01*
X178498736Y-71056532D01*
X178451117Y-71151770D01*
X178355879Y-71247008D01*
X178213022Y-71294627D01*
X177974927Y-71294627D01*
X179403498Y-70627961D02*
X179403498Y-71294627D01*
X179165403Y-70247008D02*
X178927308Y-70961294D01*
X179546355Y-70961294D01*
X179832070Y-70294627D02*
X180451117Y-70294627D01*
X180117784Y-70675580D01*
X180260641Y-70675580D01*
X180355879Y-70723199D01*
X180403498Y-70770818D01*
X180451117Y-70866056D01*
X180451117Y-71104151D01*
X180403498Y-71199389D01*
X180355879Y-71247008D01*
X180260641Y-71294627D01*
X179974927Y-71294627D01*
X179879689Y-71247008D01*
X179832070Y-71199389D01*
X173807736Y-136183744D02*
X173807736Y-135183744D01*
X174045831Y-135183744D01*
X174188688Y-135231364D01*
X174283926Y-135326602D01*
X174331545Y-135421840D01*
X174379164Y-135612316D01*
X174379164Y-135755173D01*
X174331545Y-135945649D01*
X174283926Y-136040887D01*
X174188688Y-136136125D01*
X174045831Y-136183744D01*
X173807736Y-136183744D01*
X175283926Y-135183744D02*
X174807736Y-135183744D01*
X174760117Y-135659935D01*
X174807736Y-135612316D01*
X174902974Y-135564697D01*
X175141069Y-135564697D01*
X175236307Y-135612316D01*
X175283926Y-135659935D01*
X175331545Y-135755173D01*
X175331545Y-135993268D01*
X175283926Y-136088506D01*
X175236307Y-136136125D01*
X175141069Y-136183744D01*
X174902974Y-136183744D01*
X174807736Y-136136125D01*
X174760117Y-136088506D01*
X175807736Y-136183744D02*
X175998212Y-136183744D01*
X176093450Y-136136125D01*
X176141069Y-136088506D01*
X176236307Y-135945649D01*
X176283926Y-135755173D01*
X176283926Y-135374221D01*
X176236307Y-135278983D01*
X176188688Y-135231364D01*
X176093450Y-135183744D01*
X175902974Y-135183744D01*
X175807736Y-135231364D01*
X175760117Y-135278983D01*
X175712498Y-135374221D01*
X175712498Y-135612316D01*
X175760117Y-135707554D01*
X175807736Y-135755173D01*
X175902974Y-135802792D01*
X176093450Y-135802792D01*
X176188688Y-135755173D01*
X176236307Y-135707554D01*
X176283926Y-135612316D01*
X177974927Y-125468110D02*
X177974927Y-124468110D01*
X178213022Y-124468110D01*
X178355879Y-124515730D01*
X178451117Y-124610968D01*
X178498736Y-124706206D01*
X178546355Y-124896682D01*
X178546355Y-125039539D01*
X178498736Y-125230015D01*
X178451117Y-125325253D01*
X178355879Y-125420491D01*
X178213022Y-125468110D01*
X177974927Y-125468110D01*
X179403498Y-124801444D02*
X179403498Y-125468110D01*
X179165403Y-124420491D02*
X178927308Y-125134777D01*
X179546355Y-125134777D01*
X180451117Y-125468110D02*
X179879689Y-125468110D01*
X180165403Y-125468110D02*
X180165403Y-124468110D01*
X180070165Y-124610968D01*
X179974927Y-124706206D01*
X179879689Y-124753825D01*
X154638447Y-146470657D02*
X153638447Y-146470657D01*
X153638447Y-146232562D01*
X153686067Y-146089705D01*
X153781305Y-145994467D01*
X153876543Y-145946848D01*
X154067019Y-145899229D01*
X154209876Y-145899229D01*
X154400352Y-145946848D01*
X154495590Y-145994467D01*
X154590828Y-146089705D01*
X154638447Y-146232562D01*
X154638447Y-146470657D01*
X153638447Y-145565895D02*
X153638447Y-144946848D01*
X154019400Y-145280181D01*
X154019400Y-145137324D01*
X154067019Y-145042086D01*
X154114638Y-144994467D01*
X154209876Y-144946848D01*
X154447971Y-144946848D01*
X154543209Y-144994467D01*
X154590828Y-145042086D01*
X154638447Y-145137324D01*
X154638447Y-145423038D01*
X154590828Y-145518276D01*
X154543209Y-145565895D01*
X153638447Y-144042086D02*
X153638447Y-144518276D01*
X154114638Y-144565895D01*
X154067019Y-144518276D01*
X154019400Y-144423038D01*
X154019400Y-144184943D01*
X154067019Y-144089705D01*
X154114638Y-144042086D01*
X154209876Y-143994467D01*
X154447971Y-143994467D01*
X154543209Y-144042086D01*
X154590828Y-144089705D01*
X154638447Y-144184943D01*
X154638447Y-144423038D01*
X154590828Y-144518276D01*
X154543209Y-144565895D01*
X166663980Y-121896232D02*
X166663980Y-120896232D01*
X166902075Y-120896232D01*
X167044932Y-120943852D01*
X167140170Y-121039090D01*
X167187789Y-121134328D01*
X167235408Y-121324804D01*
X167235408Y-121467661D01*
X167187789Y-121658137D01*
X167140170Y-121753375D01*
X167044932Y-121848613D01*
X166902075Y-121896232D01*
X166663980Y-121896232D01*
X168092551Y-121229566D02*
X168092551Y-121896232D01*
X167854456Y-120848613D02*
X167616361Y-121562899D01*
X168235408Y-121562899D01*
X168806837Y-120896232D02*
X168902075Y-120896232D01*
X168997313Y-120943852D01*
X169044932Y-120991471D01*
X169092551Y-121086709D01*
X169140170Y-121277185D01*
X169140170Y-121515280D01*
X169092551Y-121705756D01*
X169044932Y-121800994D01*
X168997313Y-121848613D01*
X168902075Y-121896232D01*
X168806837Y-121896232D01*
X168711599Y-121848613D01*
X168663980Y-121800994D01*
X168616361Y-121705756D01*
X168568742Y-121515280D01*
X168568742Y-121277185D01*
X168616361Y-121086709D01*
X168663980Y-120991471D01*
X168711599Y-120943852D01*
X168806837Y-120896232D01*
X166663980Y-127849362D02*
X166663980Y-126849362D01*
X166902075Y-126849362D01*
X167044932Y-126896982D01*
X167140170Y-126992220D01*
X167187789Y-127087458D01*
X167235408Y-127277934D01*
X167235408Y-127420791D01*
X167187789Y-127611267D01*
X167140170Y-127706505D01*
X167044932Y-127801743D01*
X166902075Y-127849362D01*
X166663980Y-127849362D01*
X168092551Y-127182696D02*
X168092551Y-127849362D01*
X167854456Y-126801743D02*
X167616361Y-127516029D01*
X168235408Y-127516029D01*
X168521123Y-126849362D02*
X169187789Y-126849362D01*
X168759218Y-127849362D01*
X177974927Y-130825927D02*
X177974927Y-129825927D01*
X178213022Y-129825927D01*
X178355879Y-129873547D01*
X178451117Y-129968785D01*
X178498736Y-130064023D01*
X178546355Y-130254499D01*
X178546355Y-130397356D01*
X178498736Y-130587832D01*
X178451117Y-130683070D01*
X178355879Y-130778308D01*
X178213022Y-130825927D01*
X177974927Y-130825927D01*
X179451117Y-129825927D02*
X178974927Y-129825927D01*
X178927308Y-130302118D01*
X178974927Y-130254499D01*
X179070165Y-130206880D01*
X179308260Y-130206880D01*
X179403498Y-130254499D01*
X179451117Y-130302118D01*
X179498736Y-130397356D01*
X179498736Y-130635451D01*
X179451117Y-130730689D01*
X179403498Y-130778308D01*
X179308260Y-130825927D01*
X179070165Y-130825927D01*
X178974927Y-130778308D01*
X178927308Y-130730689D01*
X179832070Y-129825927D02*
X180451117Y-129825927D01*
X180117784Y-130206880D01*
X180260641Y-130206880D01*
X180355879Y-130254499D01*
X180403498Y-130302118D01*
X180451117Y-130397356D01*
X180451117Y-130635451D01*
X180403498Y-130730689D01*
X180355879Y-130778308D01*
X180260641Y-130825927D01*
X179974927Y-130825927D01*
X179879689Y-130778308D01*
X179832070Y-130730689D01*
X157615012Y-135159710D02*
X156615012Y-135159710D01*
X156615012Y-134921615D01*
X156662632Y-134778758D01*
X156757870Y-134683520D01*
X156853108Y-134635901D01*
X157043584Y-134588282D01*
X157186441Y-134588282D01*
X157376917Y-134635901D01*
X157472155Y-134683520D01*
X157567393Y-134778758D01*
X157615012Y-134921615D01*
X157615012Y-135159710D01*
X156615012Y-134254948D02*
X156615012Y-133635901D01*
X156995965Y-133969234D01*
X156995965Y-133826377D01*
X157043584Y-133731139D01*
X157091203Y-133683520D01*
X157186441Y-133635901D01*
X157424536Y-133635901D01*
X157519774Y-133683520D01*
X157567393Y-133731139D01*
X157615012Y-133826377D01*
X157615012Y-134112091D01*
X157567393Y-134207329D01*
X157519774Y-134254948D01*
X156615012Y-132778758D02*
X156615012Y-132969234D01*
X156662632Y-133064472D01*
X156710251Y-133112091D01*
X156853108Y-133207329D01*
X157043584Y-133254948D01*
X157424536Y-133254948D01*
X157519774Y-133207329D01*
X157567393Y-133159710D01*
X157615012Y-133064472D01*
X157615012Y-132873996D01*
X157567393Y-132778758D01*
X157519774Y-132731139D01*
X157424536Y-132683520D01*
X157186441Y-132683520D01*
X157091203Y-132731139D01*
X157043584Y-132778758D01*
X156995965Y-132873996D01*
X156995965Y-133064472D01*
X157043584Y-133159710D01*
X157091203Y-133207329D01*
X157186441Y-133254948D01*
X152092587Y-75917142D02*
X152044968Y-75964761D01*
X151902111Y-76012380D01*
X151806873Y-76012380D01*
X151664015Y-75964761D01*
X151568777Y-75869523D01*
X151521158Y-75774285D01*
X151473539Y-75583809D01*
X151473539Y-75440952D01*
X151521158Y-75250476D01*
X151568777Y-75155238D01*
X151664015Y-75060000D01*
X151806873Y-75012380D01*
X151902111Y-75012380D01*
X152044968Y-75060000D01*
X152092587Y-75107619D01*
X152997349Y-75012380D02*
X152521158Y-75012380D01*
X152473539Y-75488571D01*
X152521158Y-75440952D01*
X152616396Y-75393333D01*
X152854492Y-75393333D01*
X152949730Y-75440952D01*
X152997349Y-75488571D01*
X153044968Y-75583809D01*
X153044968Y-75821904D01*
X152997349Y-75917142D01*
X152949730Y-75964761D01*
X152854492Y-76012380D01*
X152616396Y-76012380D01*
X152521158Y-75964761D01*
X152473539Y-75917142D01*
X152661904Y-81076490D02*
X152661904Y-81533632D01*
X152661904Y-81305061D02*
X151861904Y-81305061D01*
X151976190Y-81381252D01*
X152052380Y-81457442D01*
X152090476Y-81533632D01*
X151861904Y-80581252D02*
X151861904Y-80505061D01*
X151900000Y-80428871D01*
X151938095Y-80390775D01*
X152014285Y-80352680D01*
X152166666Y-80314585D01*
X152357142Y-80314585D01*
X152509523Y-80352680D01*
X152585714Y-80390775D01*
X152623809Y-80428871D01*
X152661904Y-80505061D01*
X152661904Y-80581252D01*
X152623809Y-80657442D01*
X152585714Y-80695537D01*
X152509523Y-80733632D01*
X152357142Y-80771728D01*
X152166666Y-80771728D01*
X152014285Y-80733632D01*
X151938095Y-80695537D01*
X151900000Y-80657442D01*
X151861904Y-80581252D01*
X151861904Y-79819347D02*
X151861904Y-79743156D01*
X151900000Y-79666966D01*
X151938095Y-79628871D01*
X152014285Y-79590775D01*
X152166666Y-79552680D01*
X152357142Y-79552680D01*
X152509523Y-79590775D01*
X152585714Y-79628871D01*
X152623809Y-79666966D01*
X152661904Y-79743156D01*
X152661904Y-79819347D01*
X152623809Y-79895537D01*
X152585714Y-79933632D01*
X152509523Y-79971728D01*
X152357142Y-80009823D01*
X152166666Y-80009823D01*
X152014285Y-79971728D01*
X151938095Y-79933632D01*
X151900000Y-79895537D01*
X151861904Y-79819347D01*
X152128571Y-79209823D02*
X152661904Y-79209823D01*
X152204761Y-79209823D02*
X152166666Y-79171728D01*
X152128571Y-79095537D01*
X152128571Y-78981252D01*
X152166666Y-78905061D01*
X152242857Y-78866966D01*
X152661904Y-78866966D01*
X160591577Y-146470657D02*
X159591577Y-146470657D01*
X159591577Y-146232562D01*
X159639197Y-146089705D01*
X159734435Y-145994467D01*
X159829673Y-145946848D01*
X160020149Y-145899229D01*
X160163006Y-145899229D01*
X160353482Y-145946848D01*
X160448720Y-145994467D01*
X160543958Y-146089705D01*
X160591577Y-146232562D01*
X160591577Y-146470657D01*
X159924911Y-145042086D02*
X160591577Y-145042086D01*
X159543958Y-145280181D02*
X160258244Y-145518276D01*
X160258244Y-144899229D01*
X159686816Y-144565895D02*
X159639197Y-144518276D01*
X159591577Y-144423038D01*
X159591577Y-144184943D01*
X159639197Y-144089705D01*
X159686816Y-144042086D01*
X159782054Y-143994467D01*
X159877292Y-143994467D01*
X160020149Y-144042086D01*
X160591577Y-144613514D01*
X160591577Y-143994467D01*
X128563948Y-136183744D02*
X128563948Y-135183744D01*
X128802043Y-135183744D01*
X128944900Y-135231364D01*
X129040138Y-135326602D01*
X129087757Y-135421840D01*
X129135376Y-135612316D01*
X129135376Y-135755173D01*
X129087757Y-135945649D01*
X129040138Y-136040887D01*
X128944900Y-136136125D01*
X128802043Y-136183744D01*
X128563948Y-136183744D01*
X129516329Y-135278983D02*
X129563948Y-135231364D01*
X129659186Y-135183744D01*
X129897281Y-135183744D01*
X129992519Y-135231364D01*
X130040138Y-135278983D01*
X130087757Y-135374221D01*
X130087757Y-135469459D01*
X130040138Y-135612316D01*
X129468710Y-136183744D01*
X130087757Y-136183744D01*
X130563948Y-136183744D02*
X130754424Y-136183744D01*
X130849662Y-136136125D01*
X130897281Y-136088506D01*
X130992519Y-135945649D01*
X131040138Y-135755173D01*
X131040138Y-135374221D01*
X130992519Y-135278983D01*
X130944900Y-135231364D01*
X130849662Y-135183744D01*
X130659186Y-135183744D01*
X130563948Y-135231364D01*
X130516329Y-135278983D01*
X130468710Y-135374221D01*
X130468710Y-135612316D01*
X130516329Y-135707554D01*
X130563948Y-135755173D01*
X130659186Y-135802792D01*
X130849662Y-135802792D01*
X130944900Y-135755173D01*
X130992519Y-135707554D01*
X131040138Y-135612316D01*
X124396757Y-107013407D02*
X124396757Y-106013407D01*
X124634852Y-106013407D01*
X124777709Y-106061027D01*
X124872947Y-106156265D01*
X124920566Y-106251503D01*
X124968185Y-106441979D01*
X124968185Y-106584836D01*
X124920566Y-106775312D01*
X124872947Y-106870550D01*
X124777709Y-106965788D01*
X124634852Y-107013407D01*
X124396757Y-107013407D01*
X125920566Y-107013407D02*
X125349138Y-107013407D01*
X125634852Y-107013407D02*
X125634852Y-106013407D01*
X125539614Y-106156265D01*
X125444376Y-106251503D01*
X125349138Y-106299122D01*
X126825328Y-106013407D02*
X126349138Y-106013407D01*
X126301519Y-106489598D01*
X126349138Y-106441979D01*
X126444376Y-106394360D01*
X126682471Y-106394360D01*
X126777709Y-106441979D01*
X126825328Y-106489598D01*
X126872947Y-106584836D01*
X126872947Y-106822931D01*
X126825328Y-106918169D01*
X126777709Y-106965788D01*
X126682471Y-107013407D01*
X126444376Y-107013407D01*
X126349138Y-106965788D01*
X126301519Y-106918169D01*
X123087008Y-101060277D02*
X123087008Y-100060277D01*
X123325104Y-100060277D01*
X123467961Y-100107897D01*
X123563199Y-100203135D01*
X123610818Y-100298373D01*
X123658437Y-100488849D01*
X123658437Y-100631706D01*
X123610818Y-100822182D01*
X123563199Y-100917420D01*
X123467961Y-101012658D01*
X123325104Y-101060277D01*
X123087008Y-101060277D01*
X123991770Y-100060277D02*
X124610818Y-100060277D01*
X124277484Y-100441230D01*
X124420342Y-100441230D01*
X124515580Y-100488849D01*
X124563199Y-100536468D01*
X124610818Y-100631706D01*
X124610818Y-100869801D01*
X124563199Y-100965039D01*
X124515580Y-101012658D01*
X124420342Y-101060277D01*
X124134627Y-101060277D01*
X124039389Y-101012658D01*
X123991770Y-100965039D01*
X135707704Y-80224322D02*
X135707704Y-79224322D01*
X135945799Y-79224322D01*
X136088656Y-79271942D01*
X136183894Y-79367180D01*
X136231513Y-79462418D01*
X136279132Y-79652894D01*
X136279132Y-79795751D01*
X136231513Y-79986227D01*
X136183894Y-80081465D01*
X136088656Y-80176703D01*
X135945799Y-80224322D01*
X135707704Y-80224322D01*
X136660085Y-79319561D02*
X136707704Y-79271942D01*
X136802942Y-79224322D01*
X137041037Y-79224322D01*
X137136275Y-79271942D01*
X137183894Y-79319561D01*
X137231513Y-79414799D01*
X137231513Y-79510037D01*
X137183894Y-79652894D01*
X136612466Y-80224322D01*
X137231513Y-80224322D01*
X138088656Y-79224322D02*
X137898180Y-79224322D01*
X137802942Y-79271942D01*
X137755323Y-79319561D01*
X137660085Y-79462418D01*
X137612466Y-79652894D01*
X137612466Y-80033846D01*
X137660085Y-80129084D01*
X137707704Y-80176703D01*
X137802942Y-80224322D01*
X137993418Y-80224322D01*
X138088656Y-80176703D01*
X138136275Y-80129084D01*
X138183894Y-80033846D01*
X138183894Y-79795751D01*
X138136275Y-79700513D01*
X138088656Y-79652894D01*
X137993418Y-79605275D01*
X137802942Y-79605275D01*
X137707704Y-79652894D01*
X137660085Y-79700513D01*
X137612466Y-79795751D01*
X139533333Y-81967388D02*
X139200000Y-81491198D01*
X138961904Y-81967388D02*
X138961904Y-80967388D01*
X139342857Y-80967388D01*
X139438095Y-81015008D01*
X139485714Y-81062627D01*
X139533333Y-81157865D01*
X139533333Y-81300722D01*
X139485714Y-81395960D01*
X139438095Y-81443579D01*
X139342857Y-81491198D01*
X138961904Y-81491198D01*
X140390476Y-81300722D02*
X140390476Y-81967388D01*
X140152380Y-80919769D02*
X139914285Y-81634055D01*
X140533333Y-81634055D01*
X140061904Y-76038068D02*
X140061904Y-76495211D01*
X140061904Y-76266639D02*
X139261904Y-76266639D01*
X139376190Y-76342830D01*
X139452380Y-76419020D01*
X139490476Y-76495211D01*
X139261904Y-75542830D02*
X139261904Y-75466639D01*
X139300000Y-75390449D01*
X139338095Y-75352354D01*
X139414285Y-75314258D01*
X139566666Y-75276163D01*
X139757142Y-75276163D01*
X139909523Y-75314258D01*
X139985714Y-75352354D01*
X140023809Y-75390449D01*
X140061904Y-75466639D01*
X140061904Y-75542830D01*
X140023809Y-75619020D01*
X139985714Y-75657116D01*
X139909523Y-75695211D01*
X139757142Y-75733306D01*
X139566666Y-75733306D01*
X139414285Y-75695211D01*
X139338095Y-75657116D01*
X139300000Y-75619020D01*
X139261904Y-75542830D01*
X140061904Y-74933306D02*
X139261904Y-74933306D01*
X139757142Y-74857116D02*
X140061904Y-74628544D01*
X139528571Y-74628544D02*
X139833333Y-74933306D01*
X145823809Y-91676190D02*
X145823809Y-92152380D01*
X145490476Y-91152380D02*
X145823809Y-91676190D01*
X146157142Y-91152380D01*
X147014285Y-92152380D02*
X146442857Y-92152380D01*
X146728571Y-92152380D02*
X146728571Y-91152380D01*
X146633333Y-91295238D01*
X146538095Y-91390476D01*
X146442857Y-91438095D01*
X135707704Y-127849362D02*
X135707704Y-126849362D01*
X135945799Y-126849362D01*
X136088656Y-126896982D01*
X136183894Y-126992220D01*
X136231513Y-127087458D01*
X136279132Y-127277934D01*
X136279132Y-127420791D01*
X136231513Y-127611267D01*
X136183894Y-127706505D01*
X136088656Y-127801743D01*
X135945799Y-127849362D01*
X135707704Y-127849362D01*
X137231513Y-127849362D02*
X136660085Y-127849362D01*
X136945799Y-127849362D02*
X136945799Y-126849362D01*
X136850561Y-126992220D01*
X136755323Y-127087458D01*
X136660085Y-127135077D01*
X137564847Y-126849362D02*
X138231513Y-126849362D01*
X137802942Y-127849362D01*
X164758768Y-110666666D02*
X164282578Y-111000000D01*
X164758768Y-111238095D02*
X163758768Y-111238095D01*
X163758768Y-110857142D01*
X163806388Y-110761904D01*
X163854007Y-110714285D01*
X163949245Y-110666666D01*
X164092102Y-110666666D01*
X164187340Y-110714285D01*
X164234959Y-110761904D01*
X164282578Y-110857142D01*
X164282578Y-111238095D01*
X164758768Y-109714285D02*
X164758768Y-110285714D01*
X164758768Y-110000000D02*
X163758768Y-110000000D01*
X163901626Y-110095238D01*
X163996864Y-110190476D01*
X164044483Y-110285714D01*
X157686591Y-110861904D02*
X157229448Y-110861904D01*
X157458019Y-110861904D02*
X157458019Y-110061904D01*
X157381829Y-110176190D01*
X157305638Y-110252380D01*
X157229448Y-110290476D01*
X158029448Y-110785714D02*
X158067543Y-110823809D01*
X158029448Y-110861904D01*
X157991353Y-110823809D01*
X158029448Y-110785714D01*
X158029448Y-110861904D01*
X158791353Y-110061904D02*
X158410400Y-110061904D01*
X158372305Y-110442857D01*
X158410400Y-110404761D01*
X158486591Y-110366666D01*
X158677067Y-110366666D01*
X158753258Y-110404761D01*
X158791353Y-110442857D01*
X158829448Y-110519047D01*
X158829448Y-110709523D01*
X158791353Y-110785714D01*
X158753258Y-110823809D01*
X158677067Y-110861904D01*
X158486591Y-110861904D01*
X158410400Y-110823809D01*
X158372305Y-110785714D01*
X159172305Y-110861904D02*
X159172305Y-110061904D01*
X159248496Y-110557142D02*
X159477067Y-110861904D01*
X159477067Y-110328571D02*
X159172305Y-110633333D01*
X146042209Y-60713054D02*
X145708876Y-60236864D01*
X145470780Y-60713054D02*
X145470780Y-59713054D01*
X145851733Y-59713054D01*
X145946971Y-59760674D01*
X145994590Y-59808293D01*
X146042209Y-59903531D01*
X146042209Y-60046388D01*
X145994590Y-60141626D01*
X145946971Y-60189245D01*
X145851733Y-60236864D01*
X145470780Y-60236864D01*
X146375542Y-59713054D02*
X147042209Y-59713054D01*
X146613637Y-60713054D01*
X158424713Y-60713054D02*
X158091380Y-60236864D01*
X157853284Y-60713054D02*
X157853284Y-59713054D01*
X158234237Y-59713054D01*
X158329475Y-59760674D01*
X158377094Y-59808293D01*
X158424713Y-59903531D01*
X158424713Y-60046388D01*
X158377094Y-60141626D01*
X158329475Y-60189245D01*
X158234237Y-60236864D01*
X157853284Y-60236864D01*
X158996141Y-60141626D02*
X158900903Y-60094007D01*
X158853284Y-60046388D01*
X158805665Y-59951150D01*
X158805665Y-59903531D01*
X158853284Y-59808293D01*
X158900903Y-59760674D01*
X158996141Y-59713054D01*
X159186618Y-59713054D01*
X159281856Y-59760674D01*
X159329475Y-59808293D01*
X159377094Y-59903531D01*
X159377094Y-59951150D01*
X159329475Y-60046388D01*
X159281856Y-60094007D01*
X159186618Y-60141626D01*
X158996141Y-60141626D01*
X158900903Y-60189245D01*
X158853284Y-60236864D01*
X158805665Y-60332102D01*
X158805665Y-60522578D01*
X158853284Y-60617816D01*
X158900903Y-60665435D01*
X158996141Y-60713054D01*
X159186618Y-60713054D01*
X159281856Y-60665435D01*
X159329475Y-60617816D01*
X159377094Y-60522578D01*
X159377094Y-60332102D01*
X159329475Y-60236864D01*
X159281856Y-60189245D01*
X159186618Y-60141626D01*
X164758768Y-108166666D02*
X164282578Y-108500000D01*
X164758768Y-108738095D02*
X163758768Y-108738095D01*
X163758768Y-108357142D01*
X163806388Y-108261904D01*
X163854007Y-108214285D01*
X163949245Y-108166666D01*
X164092102Y-108166666D01*
X164187340Y-108214285D01*
X164234959Y-108261904D01*
X164282578Y-108357142D01*
X164282578Y-108738095D01*
X163854007Y-107785714D02*
X163806388Y-107738095D01*
X163758768Y-107642857D01*
X163758768Y-107404761D01*
X163806388Y-107309523D01*
X163854007Y-107261904D01*
X163949245Y-107214285D01*
X164044483Y-107214285D01*
X164187340Y-107261904D01*
X164758768Y-107833333D01*
X164758768Y-107214285D01*
X157305638Y-107561904D02*
X157838972Y-107561904D01*
X157496115Y-108361904D01*
X158524686Y-107561904D02*
X158143734Y-107561904D01*
X158105638Y-107942857D01*
X158143734Y-107904761D01*
X158219924Y-107866666D01*
X158410400Y-107866666D01*
X158486591Y-107904761D01*
X158524686Y-107942857D01*
X158562781Y-108019047D01*
X158562781Y-108209523D01*
X158524686Y-108285714D01*
X158486591Y-108323809D01*
X158410400Y-108361904D01*
X158219924Y-108361904D01*
X158143734Y-108323809D01*
X158105638Y-108285714D01*
X159362781Y-108361904D02*
X159096115Y-107980952D01*
X158905638Y-108361904D02*
X158905638Y-107561904D01*
X159210400Y-107561904D01*
X159286591Y-107600000D01*
X159324686Y-107638095D01*
X159362781Y-107714285D01*
X159362781Y-107828571D01*
X159324686Y-107904761D01*
X159286591Y-107942857D01*
X159210400Y-107980952D01*
X158905638Y-107980952D01*
X163585714Y-131452380D02*
X163585714Y-130452380D01*
X163823809Y-130452380D01*
X163966666Y-130500000D01*
X164061904Y-130595238D01*
X164109523Y-130690476D01*
X164157142Y-130880952D01*
X164157142Y-131023809D01*
X164109523Y-131214285D01*
X164061904Y-131309523D01*
X163966666Y-131404761D01*
X163823809Y-131452380D01*
X163585714Y-131452380D01*
X165014285Y-130452380D02*
X164823809Y-130452380D01*
X164728571Y-130500000D01*
X164680952Y-130547619D01*
X164585714Y-130690476D01*
X164538095Y-130880952D01*
X164538095Y-131261904D01*
X164585714Y-131357142D01*
X164633333Y-131404761D01*
X164728571Y-131452380D01*
X164919047Y-131452380D01*
X165014285Y-131404761D01*
X165061904Y-131357142D01*
X165109523Y-131261904D01*
X165109523Y-131023809D01*
X165061904Y-130928571D01*
X165014285Y-130880952D01*
X164919047Y-130833333D01*
X164728571Y-130833333D01*
X164633333Y-130880952D01*
X164585714Y-130928571D01*
X164538095Y-131023809D01*
X166061904Y-131452380D02*
X165490476Y-131452380D01*
X165776190Y-131452380D02*
X165776190Y-130452380D01*
X165680952Y-130595238D01*
X165585714Y-130690476D01*
X165490476Y-130738095D01*
X157180238Y-130530904D02*
X157675476Y-130530904D01*
X157408810Y-130835666D01*
X157523095Y-130835666D01*
X157599286Y-130873761D01*
X157637381Y-130911857D01*
X157675476Y-130988047D01*
X157675476Y-131178523D01*
X157637381Y-131254714D01*
X157599286Y-131292809D01*
X157523095Y-131330904D01*
X157294524Y-131330904D01*
X157218333Y-131292809D01*
X157180238Y-131254714D01*
X158018333Y-131254714D02*
X158056429Y-131292809D01*
X158018333Y-131330904D01*
X157980238Y-131292809D01*
X158018333Y-131254714D01*
X158018333Y-131330904D01*
X158742143Y-130530904D02*
X158589762Y-130530904D01*
X158513571Y-130569000D01*
X158475476Y-130607095D01*
X158399286Y-130721380D01*
X158361191Y-130873761D01*
X158361191Y-131178523D01*
X158399286Y-131254714D01*
X158437381Y-131292809D01*
X158513571Y-131330904D01*
X158665952Y-131330904D01*
X158742143Y-131292809D01*
X158780238Y-131254714D01*
X158818333Y-131178523D01*
X158818333Y-130988047D01*
X158780238Y-130911857D01*
X158742143Y-130873761D01*
X158665952Y-130835666D01*
X158513571Y-130835666D01*
X158437381Y-130873761D01*
X158399286Y-130911857D01*
X158361191Y-130988047D01*
X159046905Y-130530904D02*
X159313571Y-131330904D01*
X159580238Y-130530904D01*
X138685714Y-131390380D02*
X138685714Y-130390380D01*
X138923809Y-130390380D01*
X139066666Y-130438000D01*
X139161904Y-130533238D01*
X139209523Y-130628476D01*
X139257142Y-130818952D01*
X139257142Y-130961809D01*
X139209523Y-131152285D01*
X139161904Y-131247523D01*
X139066666Y-131342761D01*
X138923809Y-131390380D01*
X138685714Y-131390380D01*
X140114285Y-130390380D02*
X139923809Y-130390380D01*
X139828571Y-130438000D01*
X139780952Y-130485619D01*
X139685714Y-130628476D01*
X139638095Y-130818952D01*
X139638095Y-131199904D01*
X139685714Y-131295142D01*
X139733333Y-131342761D01*
X139828571Y-131390380D01*
X140019047Y-131390380D01*
X140114285Y-131342761D01*
X140161904Y-131295142D01*
X140209523Y-131199904D01*
X140209523Y-130961809D01*
X140161904Y-130866571D01*
X140114285Y-130818952D01*
X140019047Y-130771333D01*
X139828571Y-130771333D01*
X139733333Y-130818952D01*
X139685714Y-130866571D01*
X139638095Y-130961809D01*
X140590476Y-130485619D02*
X140638095Y-130438000D01*
X140733333Y-130390380D01*
X140971428Y-130390380D01*
X141066666Y-130438000D01*
X141114285Y-130485619D01*
X141161904Y-130580857D01*
X141161904Y-130676095D01*
X141114285Y-130818952D01*
X140542857Y-131390380D01*
X141161904Y-131390380D01*
X145265856Y-130530904D02*
X145761094Y-130530904D01*
X145494428Y-130835666D01*
X145608713Y-130835666D01*
X145684904Y-130873761D01*
X145722999Y-130911857D01*
X145761094Y-130988047D01*
X145761094Y-131178523D01*
X145722999Y-131254714D01*
X145684904Y-131292809D01*
X145608713Y-131330904D01*
X145380142Y-131330904D01*
X145303951Y-131292809D01*
X145265856Y-131254714D01*
X146103951Y-131254714D02*
X146142047Y-131292809D01*
X146103951Y-131330904D01*
X146065856Y-131292809D01*
X146103951Y-131254714D01*
X146103951Y-131330904D01*
X146827761Y-130530904D02*
X146675380Y-130530904D01*
X146599189Y-130569000D01*
X146561094Y-130607095D01*
X146484904Y-130721380D01*
X146446809Y-130873761D01*
X146446809Y-131178523D01*
X146484904Y-131254714D01*
X146522999Y-131292809D01*
X146599189Y-131330904D01*
X146751570Y-131330904D01*
X146827761Y-131292809D01*
X146865856Y-131254714D01*
X146903951Y-131178523D01*
X146903951Y-130988047D01*
X146865856Y-130911857D01*
X146827761Y-130873761D01*
X146751570Y-130835666D01*
X146599189Y-130835666D01*
X146522999Y-130873761D01*
X146484904Y-130911857D01*
X146446809Y-130988047D01*
X147132523Y-130530904D02*
X147399189Y-131330904D01*
X147665856Y-130530904D01*
X12930219Y-74271192D02*
X12596886Y-73795002D01*
X12358790Y-74271192D02*
X12358790Y-73271192D01*
X12739743Y-73271192D01*
X12834981Y-73318812D01*
X12882600Y-73366431D01*
X12930219Y-73461669D01*
X12930219Y-73604526D01*
X12882600Y-73699764D01*
X12834981Y-73747383D01*
X12739743Y-73795002D01*
X12358790Y-73795002D01*
X13834981Y-73271192D02*
X13358790Y-73271192D01*
X13311171Y-73747383D01*
X13358790Y-73699764D01*
X13454028Y-73652145D01*
X13692124Y-73652145D01*
X13787362Y-73699764D01*
X13834981Y-73747383D01*
X13882600Y-73842621D01*
X13882600Y-74080716D01*
X13834981Y-74175954D01*
X13787362Y-74223573D01*
X13692124Y-74271192D01*
X13454028Y-74271192D01*
X13358790Y-74223573D01*
X13311171Y-74175954D01*
X18583376Y-73380716D02*
X18202423Y-73380716D01*
X18164328Y-73761669D01*
X18202423Y-73723573D01*
X18278614Y-73685478D01*
X18469090Y-73685478D01*
X18545280Y-73723573D01*
X18583376Y-73761669D01*
X18621471Y-73837859D01*
X18621471Y-74028335D01*
X18583376Y-74104526D01*
X18545280Y-74142621D01*
X18469090Y-74180716D01*
X18278614Y-74180716D01*
X18202423Y-74142621D01*
X18164328Y-74104526D01*
X18964328Y-74104526D02*
X19002423Y-74142621D01*
X18964328Y-74180716D01*
X18926233Y-74142621D01*
X18964328Y-74104526D01*
X18964328Y-74180716D01*
X19764328Y-74180716D02*
X19307185Y-74180716D01*
X19535757Y-74180716D02*
X19535757Y-73380716D01*
X19459566Y-73495002D01*
X19383376Y-73571192D01*
X19307185Y-73609288D01*
X20107185Y-74180716D02*
X20107185Y-73380716D01*
X20183376Y-73875954D02*
X20411947Y-74180716D01*
X20411947Y-73647383D02*
X20107185Y-73952145D01*
X43886495Y-74271192D02*
X43553162Y-73795002D01*
X43315066Y-74271192D02*
X43315066Y-73271192D01*
X43696019Y-73271192D01*
X43791257Y-73318812D01*
X43838876Y-73366431D01*
X43886495Y-73461669D01*
X43886495Y-73604526D01*
X43838876Y-73699764D01*
X43791257Y-73747383D01*
X43696019Y-73795002D01*
X43315066Y-73795002D01*
X44743638Y-73271192D02*
X44553162Y-73271192D01*
X44457923Y-73318812D01*
X44410304Y-73366431D01*
X44315066Y-73509288D01*
X44267447Y-73699764D01*
X44267447Y-74080716D01*
X44315066Y-74175954D01*
X44362685Y-74223573D01*
X44457923Y-74271192D01*
X44648400Y-74271192D01*
X44743638Y-74223573D01*
X44791257Y-74175954D01*
X44838876Y-74080716D01*
X44838876Y-73842621D01*
X44791257Y-73747383D01*
X44743638Y-73699764D01*
X44648400Y-73652145D01*
X44457923Y-73652145D01*
X44362685Y-73699764D01*
X44315066Y-73747383D01*
X44267447Y-73842621D01*
X37157148Y-73380716D02*
X36776195Y-73380716D01*
X36738100Y-73761669D01*
X36776195Y-73723573D01*
X36852386Y-73685478D01*
X37042862Y-73685478D01*
X37119052Y-73723573D01*
X37157148Y-73761669D01*
X37195243Y-73837859D01*
X37195243Y-74028335D01*
X37157148Y-74104526D01*
X37119052Y-74142621D01*
X37042862Y-74180716D01*
X36852386Y-74180716D01*
X36776195Y-74142621D01*
X36738100Y-74104526D01*
X37538100Y-74104526D02*
X37576195Y-74142621D01*
X37538100Y-74180716D01*
X37500005Y-74142621D01*
X37538100Y-74104526D01*
X37538100Y-74180716D01*
X38338100Y-74180716D02*
X37880957Y-74180716D01*
X38109529Y-74180716D02*
X38109529Y-73380716D01*
X38033338Y-73495002D01*
X37957148Y-73571192D01*
X37880957Y-73609288D01*
X38680957Y-74180716D02*
X38680957Y-73380716D01*
X38757148Y-73875954D02*
X38985719Y-74180716D01*
X38985719Y-73647383D02*
X38680957Y-73952145D01*
X164758768Y-105666666D02*
X164282578Y-106000000D01*
X164758768Y-106238095D02*
X163758768Y-106238095D01*
X163758768Y-105857142D01*
X163806388Y-105761904D01*
X163854007Y-105714285D01*
X163949245Y-105666666D01*
X164092102Y-105666666D01*
X164187340Y-105714285D01*
X164234959Y-105761904D01*
X164282578Y-105857142D01*
X164282578Y-106238095D01*
X163758768Y-105333333D02*
X163758768Y-104714285D01*
X164139721Y-105047619D01*
X164139721Y-104904761D01*
X164187340Y-104809523D01*
X164234959Y-104761904D01*
X164330197Y-104714285D01*
X164568292Y-104714285D01*
X164663530Y-104761904D01*
X164711149Y-104809523D01*
X164758768Y-104904761D01*
X164758768Y-105190476D01*
X164711149Y-105285714D01*
X164663530Y-105333333D01*
X157305638Y-105061904D02*
X157838972Y-105061904D01*
X157496115Y-105861904D01*
X158524686Y-105061904D02*
X158143734Y-105061904D01*
X158105638Y-105442857D01*
X158143734Y-105404761D01*
X158219924Y-105366666D01*
X158410400Y-105366666D01*
X158486591Y-105404761D01*
X158524686Y-105442857D01*
X158562781Y-105519047D01*
X158562781Y-105709523D01*
X158524686Y-105785714D01*
X158486591Y-105823809D01*
X158410400Y-105861904D01*
X158219924Y-105861904D01*
X158143734Y-105823809D01*
X158105638Y-105785714D01*
X159362781Y-105861904D02*
X159096115Y-105480952D01*
X158905638Y-105861904D02*
X158905638Y-105061904D01*
X159210400Y-105061904D01*
X159286591Y-105100000D01*
X159324686Y-105138095D01*
X159362781Y-105214285D01*
X159362781Y-105328571D01*
X159324686Y-105404761D01*
X159286591Y-105442857D01*
X159210400Y-105480952D01*
X158905638Y-105480952D01*
X124992070Y-65341497D02*
X124992070Y-64341497D01*
X125230165Y-64341497D01*
X125373022Y-64389117D01*
X125468260Y-64484355D01*
X125515879Y-64579593D01*
X125563498Y-64770069D01*
X125563498Y-64912926D01*
X125515879Y-65103402D01*
X125468260Y-65198640D01*
X125373022Y-65293878D01*
X125230165Y-65341497D01*
X124992070Y-65341497D01*
X125944451Y-64436736D02*
X125992070Y-64389117D01*
X126087308Y-64341497D01*
X126325403Y-64341497D01*
X126420641Y-64389117D01*
X126468260Y-64436736D01*
X126515879Y-64531974D01*
X126515879Y-64627212D01*
X126468260Y-64770069D01*
X125896832Y-65341497D01*
X126515879Y-65341497D01*
X127420641Y-64341497D02*
X126944451Y-64341497D01*
X126896832Y-64817688D01*
X126944451Y-64770069D01*
X127039689Y-64722450D01*
X127277784Y-64722450D01*
X127373022Y-64770069D01*
X127420641Y-64817688D01*
X127468260Y-64912926D01*
X127468260Y-65151021D01*
X127420641Y-65246259D01*
X127373022Y-65293878D01*
X127277784Y-65341497D01*
X127039689Y-65341497D01*
X126944451Y-65293878D01*
X126896832Y-65246259D01*
X124992070Y-71294627D02*
X124992070Y-70294627D01*
X125230165Y-70294627D01*
X125373022Y-70342247D01*
X125468260Y-70437485D01*
X125515879Y-70532723D01*
X125563498Y-70723199D01*
X125563498Y-70866056D01*
X125515879Y-71056532D01*
X125468260Y-71151770D01*
X125373022Y-71247008D01*
X125230165Y-71294627D01*
X124992070Y-71294627D01*
X126515879Y-71294627D02*
X125944451Y-71294627D01*
X126230165Y-71294627D02*
X126230165Y-70294627D01*
X126134927Y-70437485D01*
X126039689Y-70532723D01*
X125944451Y-70580342D01*
X126849213Y-70294627D02*
X127468260Y-70294627D01*
X127134927Y-70675580D01*
X127277784Y-70675580D01*
X127373022Y-70723199D01*
X127420641Y-70770818D01*
X127468260Y-70866056D01*
X127468260Y-71104151D01*
X127420641Y-71199389D01*
X127373022Y-71247008D01*
X127277784Y-71294627D01*
X126992070Y-71294627D01*
X126896832Y-71247008D01*
X126849213Y-71199389D01*
X142136874Y-135159710D02*
X141136874Y-135159710D01*
X141136874Y-134921615D01*
X141184494Y-134778758D01*
X141279732Y-134683520D01*
X141374970Y-134635901D01*
X141565446Y-134588282D01*
X141708303Y-134588282D01*
X141898779Y-134635901D01*
X141994017Y-134683520D01*
X142089255Y-134778758D01*
X142136874Y-134921615D01*
X142136874Y-135159710D01*
X142136874Y-133635901D02*
X142136874Y-134207329D01*
X142136874Y-133921615D02*
X141136874Y-133921615D01*
X141279732Y-134016853D01*
X141374970Y-134112091D01*
X141422589Y-134207329D01*
X141565446Y-133064472D02*
X141517827Y-133159710D01*
X141470208Y-133207329D01*
X141374970Y-133254948D01*
X141327351Y-133254948D01*
X141232113Y-133207329D01*
X141184494Y-133159710D01*
X141136874Y-133064472D01*
X141136874Y-132873996D01*
X141184494Y-132778758D01*
X141232113Y-132731139D01*
X141327351Y-132683520D01*
X141374970Y-132683520D01*
X141470208Y-132731139D01*
X141517827Y-132778758D01*
X141565446Y-132873996D01*
X141565446Y-133064472D01*
X141613065Y-133159710D01*
X141660684Y-133207329D01*
X141755922Y-133254948D01*
X141946398Y-133254948D01*
X142041636Y-133207329D01*
X142089255Y-133159710D01*
X142136874Y-133064472D01*
X142136874Y-132873996D01*
X142089255Y-132778758D01*
X142041636Y-132731139D01*
X141946398Y-132683520D01*
X141755922Y-132683520D01*
X141660684Y-132731139D01*
X141613065Y-132778758D01*
X141565446Y-132873996D01*
X17764301Y-86971200D02*
X17764301Y-85971200D01*
X18097635Y-86685486D01*
X18430968Y-85971200D01*
X18430968Y-86971200D01*
X18811920Y-85971200D02*
X19478587Y-86971200D01*
X19478587Y-85971200D02*
X18811920Y-86971200D01*
X19811920Y-86066439D02*
X19859539Y-86018820D01*
X19954777Y-85971200D01*
X20192873Y-85971200D01*
X20288111Y-86018820D01*
X20335730Y-86066439D01*
X20383349Y-86161677D01*
X20383349Y-86256915D01*
X20335730Y-86399772D01*
X19764301Y-86971200D01*
X20383349Y-86971200D01*
X17764301Y-106021216D02*
X17764301Y-105021216D01*
X18097635Y-105735502D01*
X18430968Y-105021216D01*
X18430968Y-106021216D01*
X18811920Y-105021216D02*
X19478587Y-106021216D01*
X19478587Y-105021216D02*
X18811920Y-106021216D01*
X19764301Y-105021216D02*
X20383349Y-105021216D01*
X20050016Y-105402169D01*
X20192873Y-105402169D01*
X20288111Y-105449788D01*
X20335730Y-105497407D01*
X20383349Y-105592645D01*
X20383349Y-105830740D01*
X20335730Y-105925978D01*
X20288111Y-105973597D01*
X20192873Y-106021216D01*
X19907158Y-106021216D01*
X19811920Y-105973597D01*
X19764301Y-105925978D01*
X17764301Y-125071232D02*
X17764301Y-124071232D01*
X18097635Y-124785518D01*
X18430968Y-124071232D01*
X18430968Y-125071232D01*
X18811920Y-124071232D02*
X19478587Y-125071232D01*
X19478587Y-124071232D02*
X18811920Y-125071232D01*
X20288111Y-124404566D02*
X20288111Y-125071232D01*
X20050016Y-124023613D02*
X19811920Y-124737899D01*
X20430968Y-124737899D01*
X17764301Y-144121248D02*
X17764301Y-143121248D01*
X18097635Y-143835534D01*
X18430968Y-143121248D01*
X18430968Y-144121248D01*
X18811920Y-143121248D02*
X19478587Y-144121248D01*
X19478587Y-143121248D02*
X18811920Y-144121248D01*
X20335730Y-143121248D02*
X19859539Y-143121248D01*
X19811920Y-143597439D01*
X19859539Y-143549820D01*
X19954777Y-143502201D01*
X20192873Y-143502201D01*
X20288111Y-143549820D01*
X20335730Y-143597439D01*
X20383349Y-143692677D01*
X20383349Y-143930772D01*
X20335730Y-144026010D01*
X20288111Y-144073629D01*
X20192873Y-144121248D01*
X19954777Y-144121248D01*
X19859539Y-144073629D01*
X19811920Y-144026010D01*
X36814317Y-144121248D02*
X36814317Y-143121248D01*
X37147651Y-143835534D01*
X37480984Y-143121248D01*
X37480984Y-144121248D01*
X37861936Y-143121248D02*
X38528603Y-144121248D01*
X38528603Y-143121248D02*
X37861936Y-144121248D01*
X39338127Y-143121248D02*
X39147651Y-143121248D01*
X39052412Y-143168868D01*
X39004793Y-143216487D01*
X38909555Y-143359344D01*
X38861936Y-143549820D01*
X38861936Y-143930772D01*
X38909555Y-144026010D01*
X38957174Y-144073629D01*
X39052412Y-144121248D01*
X39242889Y-144121248D01*
X39338127Y-144073629D01*
X39385746Y-144026010D01*
X39433365Y-143930772D01*
X39433365Y-143692677D01*
X39385746Y-143597439D01*
X39338127Y-143549820D01*
X39242889Y-143502201D01*
X39052412Y-143502201D01*
X38957174Y-143549820D01*
X38909555Y-143597439D01*
X38861936Y-143692677D01*
X36814317Y-67921184D02*
X36814317Y-66921184D01*
X37147651Y-67635470D01*
X37480984Y-66921184D01*
X37480984Y-67921184D01*
X37861936Y-66921184D02*
X38528603Y-67921184D01*
X38528603Y-66921184D02*
X37861936Y-67921184D01*
X38814317Y-66921184D02*
X39480984Y-66921184D01*
X39052412Y-67921184D01*
X36814317Y-86971200D02*
X36814317Y-85971200D01*
X37147651Y-86685486D01*
X37480984Y-85971200D01*
X37480984Y-86971200D01*
X37861936Y-85971200D02*
X38528603Y-86971200D01*
X38528603Y-85971200D02*
X37861936Y-86971200D01*
X39052412Y-86399772D02*
X38957174Y-86352153D01*
X38909555Y-86304534D01*
X38861936Y-86209296D01*
X38861936Y-86161677D01*
X38909555Y-86066439D01*
X38957174Y-86018820D01*
X39052412Y-85971200D01*
X39242889Y-85971200D01*
X39338127Y-86018820D01*
X39385746Y-86066439D01*
X39433365Y-86161677D01*
X39433365Y-86209296D01*
X39385746Y-86304534D01*
X39338127Y-86352153D01*
X39242889Y-86399772D01*
X39052412Y-86399772D01*
X38957174Y-86447391D01*
X38909555Y-86495010D01*
X38861936Y-86590248D01*
X38861936Y-86780724D01*
X38909555Y-86875962D01*
X38957174Y-86923581D01*
X39052412Y-86971200D01*
X39242889Y-86971200D01*
X39338127Y-86923581D01*
X39385746Y-86875962D01*
X39433365Y-86780724D01*
X39433365Y-86590248D01*
X39385746Y-86495010D01*
X39338127Y-86447391D01*
X39242889Y-86399772D01*
X36814317Y-106021216D02*
X36814317Y-105021216D01*
X37147651Y-105735502D01*
X37480984Y-105021216D01*
X37480984Y-106021216D01*
X37861936Y-105021216D02*
X38528603Y-106021216D01*
X38528603Y-105021216D02*
X37861936Y-106021216D01*
X38957174Y-106021216D02*
X39147651Y-106021216D01*
X39242889Y-105973597D01*
X39290508Y-105925978D01*
X39385746Y-105783121D01*
X39433365Y-105592645D01*
X39433365Y-105211693D01*
X39385746Y-105116455D01*
X39338127Y-105068836D01*
X39242889Y-105021216D01*
X39052412Y-105021216D01*
X38957174Y-105068836D01*
X38909555Y-105116455D01*
X38861936Y-105211693D01*
X38861936Y-105449788D01*
X38909555Y-105545026D01*
X38957174Y-105592645D01*
X39052412Y-105640264D01*
X39242889Y-105640264D01*
X39338127Y-105592645D01*
X39385746Y-105545026D01*
X39433365Y-105449788D01*
X36338127Y-125071232D02*
X36338127Y-124071232D01*
X36671460Y-124785518D01*
X37004793Y-124071232D01*
X37004793Y-125071232D01*
X37385746Y-124071232D02*
X38052412Y-125071232D01*
X38052412Y-124071232D02*
X37385746Y-125071232D01*
X38957174Y-125071232D02*
X38385746Y-125071232D01*
X38671460Y-125071232D02*
X38671460Y-124071232D01*
X38576222Y-124214090D01*
X38480984Y-124309328D01*
X38385746Y-124356947D01*
X39576222Y-124071232D02*
X39671460Y-124071232D01*
X39766698Y-124118852D01*
X39814317Y-124166471D01*
X39861936Y-124261709D01*
X39909555Y-124452185D01*
X39909555Y-124690280D01*
X39861936Y-124880756D01*
X39814317Y-124975994D01*
X39766698Y-125023613D01*
X39671460Y-125071232D01*
X39576222Y-125071232D01*
X39480984Y-125023613D01*
X39433365Y-124975994D01*
X39385746Y-124880756D01*
X39338127Y-124690280D01*
X39338127Y-124452185D01*
X39385746Y-124261709D01*
X39433365Y-124166471D01*
X39480984Y-124118852D01*
X39576222Y-124071232D01*
X55388143Y-125071232D02*
X55388143Y-124071232D01*
X55721476Y-124785518D01*
X56054809Y-124071232D01*
X56054809Y-125071232D01*
X56435762Y-124071232D02*
X57102428Y-125071232D01*
X57102428Y-124071232D02*
X56435762Y-125071232D01*
X58007190Y-125071232D02*
X57435762Y-125071232D01*
X57721476Y-125071232D02*
X57721476Y-124071232D01*
X57626238Y-124214090D01*
X57531000Y-124309328D01*
X57435762Y-124356947D01*
X58959571Y-125071232D02*
X58388143Y-125071232D01*
X58673857Y-125071232D02*
X58673857Y-124071232D01*
X58578619Y-124214090D01*
X58483381Y-124309328D01*
X58388143Y-124356947D01*
X55388143Y-144121248D02*
X55388143Y-143121248D01*
X55721476Y-143835534D01*
X56054809Y-143121248D01*
X56054809Y-144121248D01*
X56435762Y-143121248D02*
X57102428Y-144121248D01*
X57102428Y-143121248D02*
X56435762Y-144121248D01*
X58007190Y-144121248D02*
X57435762Y-144121248D01*
X57721476Y-144121248D02*
X57721476Y-143121248D01*
X57626238Y-143264106D01*
X57531000Y-143359344D01*
X57435762Y-143406963D01*
X58388143Y-143216487D02*
X58435762Y-143168868D01*
X58531000Y-143121248D01*
X58769095Y-143121248D01*
X58864333Y-143168868D01*
X58911952Y-143216487D01*
X58959571Y-143311725D01*
X58959571Y-143406963D01*
X58911952Y-143549820D01*
X58340524Y-144121248D01*
X58959571Y-144121248D01*
X55388143Y-106021216D02*
X55388143Y-105021216D01*
X55721476Y-105735502D01*
X56054809Y-105021216D01*
X56054809Y-106021216D01*
X56435762Y-105021216D02*
X57102428Y-106021216D01*
X57102428Y-105021216D02*
X56435762Y-106021216D01*
X58007190Y-106021216D02*
X57435762Y-106021216D01*
X57721476Y-106021216D02*
X57721476Y-105021216D01*
X57626238Y-105164074D01*
X57531000Y-105259312D01*
X57435762Y-105306931D01*
X58911952Y-105021216D02*
X58435762Y-105021216D01*
X58388143Y-105497407D01*
X58435762Y-105449788D01*
X58531000Y-105402169D01*
X58769095Y-105402169D01*
X58864333Y-105449788D01*
X58911952Y-105497407D01*
X58959571Y-105592645D01*
X58959571Y-105830740D01*
X58911952Y-105925978D01*
X58864333Y-105973597D01*
X58769095Y-106021216D01*
X58531000Y-106021216D01*
X58435762Y-105973597D01*
X58388143Y-105925978D01*
X74438159Y-106021216D02*
X74438159Y-105021216D01*
X74771492Y-105735502D01*
X75104825Y-105021216D01*
X75104825Y-106021216D01*
X75485778Y-105021216D02*
X76152444Y-106021216D01*
X76152444Y-105021216D02*
X75485778Y-106021216D01*
X77057206Y-106021216D02*
X76485778Y-106021216D01*
X76771492Y-106021216D02*
X76771492Y-105021216D01*
X76676254Y-105164074D01*
X76581016Y-105259312D01*
X76485778Y-105306931D01*
X77914349Y-105021216D02*
X77723873Y-105021216D01*
X77628635Y-105068836D01*
X77581016Y-105116455D01*
X77485778Y-105259312D01*
X77438159Y-105449788D01*
X77438159Y-105830740D01*
X77485778Y-105925978D01*
X77533397Y-105973597D01*
X77628635Y-106021216D01*
X77819111Y-106021216D01*
X77914349Y-105973597D01*
X77961968Y-105925978D01*
X78009587Y-105830740D01*
X78009587Y-105592645D01*
X77961968Y-105497407D01*
X77914349Y-105449788D01*
X77819111Y-105402169D01*
X77628635Y-105402169D01*
X77533397Y-105449788D01*
X77485778Y-105497407D01*
X77438159Y-105592645D01*
X74438159Y-125071232D02*
X74438159Y-124071232D01*
X74771492Y-124785518D01*
X75104825Y-124071232D01*
X75104825Y-125071232D01*
X75485778Y-124071232D02*
X76152444Y-125071232D01*
X76152444Y-124071232D02*
X75485778Y-125071232D01*
X77057206Y-125071232D02*
X76485778Y-125071232D01*
X76771492Y-125071232D02*
X76771492Y-124071232D01*
X76676254Y-124214090D01*
X76581016Y-124309328D01*
X76485778Y-124356947D01*
X77390540Y-124071232D02*
X78057206Y-124071232D01*
X77628635Y-125071232D01*
X74438159Y-144121248D02*
X74438159Y-143121248D01*
X74771492Y-143835534D01*
X75104825Y-143121248D01*
X75104825Y-144121248D01*
X75485778Y-143121248D02*
X76152444Y-144121248D01*
X76152444Y-143121248D02*
X75485778Y-144121248D01*
X77057206Y-144121248D02*
X76485778Y-144121248D01*
X76771492Y-144121248D02*
X76771492Y-143121248D01*
X76676254Y-143264106D01*
X76581016Y-143359344D01*
X76485778Y-143406963D01*
X77628635Y-143549820D02*
X77533397Y-143502201D01*
X77485778Y-143454582D01*
X77438159Y-143359344D01*
X77438159Y-143311725D01*
X77485778Y-143216487D01*
X77533397Y-143168868D01*
X77628635Y-143121248D01*
X77819111Y-143121248D01*
X77914349Y-143168868D01*
X77961968Y-143216487D01*
X78009587Y-143311725D01*
X78009587Y-143359344D01*
X77961968Y-143454582D01*
X77914349Y-143502201D01*
X77819111Y-143549820D01*
X77628635Y-143549820D01*
X77533397Y-143597439D01*
X77485778Y-143645058D01*
X77438159Y-143740296D01*
X77438159Y-143930772D01*
X77485778Y-144026010D01*
X77533397Y-144073629D01*
X77628635Y-144121248D01*
X77819111Y-144121248D01*
X77914349Y-144073629D01*
X77961968Y-144026010D01*
X78009587Y-143930772D01*
X78009587Y-143740296D01*
X77961968Y-143645058D01*
X77914349Y-143597439D01*
X77819111Y-143549820D01*
X74438159Y-67921184D02*
X74438159Y-66921184D01*
X74771492Y-67635470D01*
X75104825Y-66921184D01*
X75104825Y-67921184D01*
X75485778Y-66921184D02*
X76152444Y-67921184D01*
X76152444Y-66921184D02*
X75485778Y-67921184D01*
X77057206Y-67921184D02*
X76485778Y-67921184D01*
X76771492Y-67921184D02*
X76771492Y-66921184D01*
X76676254Y-67064042D01*
X76581016Y-67159280D01*
X76485778Y-67206899D01*
X77533397Y-67921184D02*
X77723873Y-67921184D01*
X77819111Y-67873565D01*
X77866730Y-67825946D01*
X77961968Y-67683089D01*
X78009587Y-67492613D01*
X78009587Y-67111661D01*
X77961968Y-67016423D01*
X77914349Y-66968804D01*
X77819111Y-66921184D01*
X77628635Y-66921184D01*
X77533397Y-66968804D01*
X77485778Y-67016423D01*
X77438159Y-67111661D01*
X77438159Y-67349756D01*
X77485778Y-67444994D01*
X77533397Y-67492613D01*
X77628635Y-67540232D01*
X77819111Y-67540232D01*
X77914349Y-67492613D01*
X77961968Y-67444994D01*
X78009587Y-67349756D01*
X74438159Y-86971200D02*
X74438159Y-85971200D01*
X74771492Y-86685486D01*
X75104825Y-85971200D01*
X75104825Y-86971200D01*
X75485778Y-85971200D02*
X76152444Y-86971200D01*
X76152444Y-85971200D02*
X75485778Y-86971200D01*
X76485778Y-86066439D02*
X76533397Y-86018820D01*
X76628635Y-85971200D01*
X76866730Y-85971200D01*
X76961968Y-86018820D01*
X77009587Y-86066439D01*
X77057206Y-86161677D01*
X77057206Y-86256915D01*
X77009587Y-86399772D01*
X76438159Y-86971200D01*
X77057206Y-86971200D01*
X77676254Y-85971200D02*
X77771492Y-85971200D01*
X77866730Y-86018820D01*
X77914349Y-86066439D01*
X77961968Y-86161677D01*
X78009587Y-86352153D01*
X78009587Y-86590248D01*
X77961968Y-86780724D01*
X77914349Y-86875962D01*
X77866730Y-86923581D01*
X77771492Y-86971200D01*
X77676254Y-86971200D01*
X77581016Y-86923581D01*
X77533397Y-86875962D01*
X77485778Y-86780724D01*
X77438159Y-86590248D01*
X77438159Y-86352153D01*
X77485778Y-86161677D01*
X77533397Y-86066439D01*
X77581016Y-86018820D01*
X77676254Y-85971200D01*
X93488175Y-86971200D02*
X93488175Y-85971200D01*
X93821508Y-86685486D01*
X94154841Y-85971200D01*
X94154841Y-86971200D01*
X94535794Y-85971200D02*
X95202460Y-86971200D01*
X95202460Y-85971200D02*
X94535794Y-86971200D01*
X95535794Y-86066439D02*
X95583413Y-86018820D01*
X95678651Y-85971200D01*
X95916746Y-85971200D01*
X96011984Y-86018820D01*
X96059603Y-86066439D01*
X96107222Y-86161677D01*
X96107222Y-86256915D01*
X96059603Y-86399772D01*
X95488175Y-86971200D01*
X96107222Y-86971200D01*
X97059603Y-86971200D02*
X96488175Y-86971200D01*
X96773889Y-86971200D02*
X96773889Y-85971200D01*
X96678651Y-86114058D01*
X96583413Y-86209296D01*
X96488175Y-86256915D01*
X93488175Y-106021216D02*
X93488175Y-105021216D01*
X93821508Y-105735502D01*
X94154841Y-105021216D01*
X94154841Y-106021216D01*
X94535794Y-105021216D02*
X95202460Y-106021216D01*
X95202460Y-105021216D02*
X94535794Y-106021216D01*
X95535794Y-105116455D02*
X95583413Y-105068836D01*
X95678651Y-105021216D01*
X95916746Y-105021216D01*
X96011984Y-105068836D01*
X96059603Y-105116455D01*
X96107222Y-105211693D01*
X96107222Y-105306931D01*
X96059603Y-105449788D01*
X95488175Y-106021216D01*
X96107222Y-106021216D01*
X96488175Y-105116455D02*
X96535794Y-105068836D01*
X96631032Y-105021216D01*
X96869127Y-105021216D01*
X96964365Y-105068836D01*
X97011984Y-105116455D01*
X97059603Y-105211693D01*
X97059603Y-105306931D01*
X97011984Y-105449788D01*
X96440556Y-106021216D01*
X97059603Y-106021216D01*
X93488175Y-125071232D02*
X93488175Y-124071232D01*
X93821508Y-124785518D01*
X94154841Y-124071232D01*
X94154841Y-125071232D01*
X94535794Y-124071232D02*
X95202460Y-125071232D01*
X95202460Y-124071232D02*
X94535794Y-125071232D01*
X95535794Y-124166471D02*
X95583413Y-124118852D01*
X95678651Y-124071232D01*
X95916746Y-124071232D01*
X96011984Y-124118852D01*
X96059603Y-124166471D01*
X96107222Y-124261709D01*
X96107222Y-124356947D01*
X96059603Y-124499804D01*
X95488175Y-125071232D01*
X96107222Y-125071232D01*
X96440556Y-124071232D02*
X97059603Y-124071232D01*
X96726270Y-124452185D01*
X96869127Y-124452185D01*
X96964365Y-124499804D01*
X97011984Y-124547423D01*
X97059603Y-124642661D01*
X97059603Y-124880756D01*
X97011984Y-124975994D01*
X96964365Y-125023613D01*
X96869127Y-125071232D01*
X96583413Y-125071232D01*
X96488175Y-125023613D01*
X96440556Y-124975994D01*
X93488175Y-144121248D02*
X93488175Y-143121248D01*
X93821508Y-143835534D01*
X94154841Y-143121248D01*
X94154841Y-144121248D01*
X94535794Y-143121248D02*
X95202460Y-144121248D01*
X95202460Y-143121248D02*
X94535794Y-144121248D01*
X95535794Y-143216487D02*
X95583413Y-143168868D01*
X95678651Y-143121248D01*
X95916746Y-143121248D01*
X96011984Y-143168868D01*
X96059603Y-143216487D01*
X96107222Y-143311725D01*
X96107222Y-143406963D01*
X96059603Y-143549820D01*
X95488175Y-144121248D01*
X96107222Y-144121248D01*
X96964365Y-143454582D02*
X96964365Y-144121248D01*
X96726270Y-143073629D02*
X96488175Y-143787915D01*
X97107222Y-143787915D01*
X93488175Y-67921184D02*
X93488175Y-66921184D01*
X93821508Y-67635470D01*
X94154841Y-66921184D01*
X94154841Y-67921184D01*
X94535794Y-66921184D02*
X95202460Y-67921184D01*
X95202460Y-66921184D02*
X94535794Y-67921184D01*
X95535794Y-67016423D02*
X95583413Y-66968804D01*
X95678651Y-66921184D01*
X95916746Y-66921184D01*
X96011984Y-66968804D01*
X96059603Y-67016423D01*
X96107222Y-67111661D01*
X96107222Y-67206899D01*
X96059603Y-67349756D01*
X95488175Y-67921184D01*
X96107222Y-67921184D01*
X97011984Y-66921184D02*
X96535794Y-66921184D01*
X96488175Y-67397375D01*
X96535794Y-67349756D01*
X96631032Y-67302137D01*
X96869127Y-67302137D01*
X96964365Y-67349756D01*
X97011984Y-67397375D01*
X97059603Y-67492613D01*
X97059603Y-67730708D01*
X97011984Y-67825946D01*
X96964365Y-67873565D01*
X96869127Y-67921184D01*
X96631032Y-67921184D01*
X96535794Y-67873565D01*
X96488175Y-67825946D01*
X112538191Y-67921184D02*
X112538191Y-66921184D01*
X112871524Y-67635470D01*
X113204857Y-66921184D01*
X113204857Y-67921184D01*
X113585810Y-66921184D02*
X114252476Y-67921184D01*
X114252476Y-66921184D02*
X113585810Y-67921184D01*
X114585810Y-67016423D02*
X114633429Y-66968804D01*
X114728667Y-66921184D01*
X114966762Y-66921184D01*
X115062000Y-66968804D01*
X115109619Y-67016423D01*
X115157238Y-67111661D01*
X115157238Y-67206899D01*
X115109619Y-67349756D01*
X114538191Y-67921184D01*
X115157238Y-67921184D01*
X116014381Y-66921184D02*
X115823905Y-66921184D01*
X115728667Y-66968804D01*
X115681048Y-67016423D01*
X115585810Y-67159280D01*
X115538191Y-67349756D01*
X115538191Y-67730708D01*
X115585810Y-67825946D01*
X115633429Y-67873565D01*
X115728667Y-67921184D01*
X115919143Y-67921184D01*
X116014381Y-67873565D01*
X116062000Y-67825946D01*
X116109619Y-67730708D01*
X116109619Y-67492613D01*
X116062000Y-67397375D01*
X116014381Y-67349756D01*
X115919143Y-67302137D01*
X115728667Y-67302137D01*
X115633429Y-67349756D01*
X115585810Y-67397375D01*
X115538191Y-67492613D01*
X112538191Y-86971200D02*
X112538191Y-85971200D01*
X112871524Y-86685486D01*
X113204857Y-85971200D01*
X113204857Y-86971200D01*
X113585810Y-85971200D02*
X114252476Y-86971200D01*
X114252476Y-85971200D02*
X113585810Y-86971200D01*
X114585810Y-86066439D02*
X114633429Y-86018820D01*
X114728667Y-85971200D01*
X114966762Y-85971200D01*
X115062000Y-86018820D01*
X115109619Y-86066439D01*
X115157238Y-86161677D01*
X115157238Y-86256915D01*
X115109619Y-86399772D01*
X114538191Y-86971200D01*
X115157238Y-86971200D01*
X115490572Y-85971200D02*
X116157238Y-85971200D01*
X115728667Y-86971200D01*
X112538191Y-106021216D02*
X112538191Y-105021216D01*
X112871524Y-105735502D01*
X113204857Y-105021216D01*
X113204857Y-106021216D01*
X113585810Y-105021216D02*
X114252476Y-106021216D01*
X114252476Y-105021216D02*
X113585810Y-106021216D01*
X114585810Y-105116455D02*
X114633429Y-105068836D01*
X114728667Y-105021216D01*
X114966762Y-105021216D01*
X115062000Y-105068836D01*
X115109619Y-105116455D01*
X115157238Y-105211693D01*
X115157238Y-105306931D01*
X115109619Y-105449788D01*
X114538191Y-106021216D01*
X115157238Y-106021216D01*
X115728667Y-105449788D02*
X115633429Y-105402169D01*
X115585810Y-105354550D01*
X115538191Y-105259312D01*
X115538191Y-105211693D01*
X115585810Y-105116455D01*
X115633429Y-105068836D01*
X115728667Y-105021216D01*
X115919143Y-105021216D01*
X116014381Y-105068836D01*
X116062000Y-105116455D01*
X116109619Y-105211693D01*
X116109619Y-105259312D01*
X116062000Y-105354550D01*
X116014381Y-105402169D01*
X115919143Y-105449788D01*
X115728667Y-105449788D01*
X115633429Y-105497407D01*
X115585810Y-105545026D01*
X115538191Y-105640264D01*
X115538191Y-105830740D01*
X115585810Y-105925978D01*
X115633429Y-105973597D01*
X115728667Y-106021216D01*
X115919143Y-106021216D01*
X116014381Y-105973597D01*
X116062000Y-105925978D01*
X116109619Y-105830740D01*
X116109619Y-105640264D01*
X116062000Y-105545026D01*
X116014381Y-105497407D01*
X115919143Y-105449788D01*
X112538191Y-125071232D02*
X112538191Y-124071232D01*
X112871524Y-124785518D01*
X113204857Y-124071232D01*
X113204857Y-125071232D01*
X113585810Y-124071232D02*
X114252476Y-125071232D01*
X114252476Y-124071232D02*
X113585810Y-125071232D01*
X114585810Y-124166471D02*
X114633429Y-124118852D01*
X114728667Y-124071232D01*
X114966762Y-124071232D01*
X115062000Y-124118852D01*
X115109619Y-124166471D01*
X115157238Y-124261709D01*
X115157238Y-124356947D01*
X115109619Y-124499804D01*
X114538191Y-125071232D01*
X115157238Y-125071232D01*
X115633429Y-125071232D02*
X115823905Y-125071232D01*
X115919143Y-125023613D01*
X115966762Y-124975994D01*
X116062000Y-124833137D01*
X116109619Y-124642661D01*
X116109619Y-124261709D01*
X116062000Y-124166471D01*
X116014381Y-124118852D01*
X115919143Y-124071232D01*
X115728667Y-124071232D01*
X115633429Y-124118852D01*
X115585810Y-124166471D01*
X115538191Y-124261709D01*
X115538191Y-124499804D01*
X115585810Y-124595042D01*
X115633429Y-124642661D01*
X115728667Y-124690280D01*
X115919143Y-124690280D01*
X116014381Y-124642661D01*
X116062000Y-124595042D01*
X116109619Y-124499804D01*
X112538191Y-144121248D02*
X112538191Y-143121248D01*
X112871524Y-143835534D01*
X113204857Y-143121248D01*
X113204857Y-144121248D01*
X113585810Y-143121248D02*
X114252476Y-144121248D01*
X114252476Y-143121248D02*
X113585810Y-144121248D01*
X114538191Y-143121248D02*
X115157238Y-143121248D01*
X114823905Y-143502201D01*
X114966762Y-143502201D01*
X115062000Y-143549820D01*
X115109619Y-143597439D01*
X115157238Y-143692677D01*
X115157238Y-143930772D01*
X115109619Y-144026010D01*
X115062000Y-144073629D01*
X114966762Y-144121248D01*
X114681048Y-144121248D01*
X114585810Y-144073629D01*
X114538191Y-144026010D01*
X115776286Y-143121248D02*
X115871524Y-143121248D01*
X115966762Y-143168868D01*
X116014381Y-143216487D01*
X116062000Y-143311725D01*
X116109619Y-143502201D01*
X116109619Y-143740296D01*
X116062000Y-143930772D01*
X116014381Y-144026010D01*
X115966762Y-144073629D01*
X115871524Y-144121248D01*
X115776286Y-144121248D01*
X115681048Y-144073629D01*
X115633429Y-144026010D01*
X115585810Y-143930772D01*
X115538191Y-143740296D01*
X115538191Y-143502201D01*
X115585810Y-143311725D01*
X115633429Y-143216487D01*
X115681048Y-143168868D01*
X115776286Y-143121248D01*
X283988335Y-67921184D02*
X283988335Y-66921184D01*
X284321668Y-67635470D01*
X284655001Y-66921184D01*
X284655001Y-67921184D01*
X285035954Y-66921184D02*
X285702620Y-67921184D01*
X285702620Y-66921184D02*
X285035954Y-67921184D01*
X285988335Y-66921184D02*
X286607382Y-66921184D01*
X286274049Y-67302137D01*
X286416906Y-67302137D01*
X286512144Y-67349756D01*
X286559763Y-67397375D01*
X286607382Y-67492613D01*
X286607382Y-67730708D01*
X286559763Y-67825946D01*
X286512144Y-67873565D01*
X286416906Y-67921184D01*
X286131192Y-67921184D01*
X286035954Y-67873565D01*
X285988335Y-67825946D01*
X287559763Y-67921184D02*
X286988335Y-67921184D01*
X287274049Y-67921184D02*
X287274049Y-66921184D01*
X287178811Y-67064042D01*
X287083573Y-67159280D01*
X286988335Y-67206899D01*
X283988335Y-86971200D02*
X283988335Y-85971200D01*
X284321668Y-86685486D01*
X284655001Y-85971200D01*
X284655001Y-86971200D01*
X285035954Y-85971200D02*
X285702620Y-86971200D01*
X285702620Y-85971200D02*
X285035954Y-86971200D01*
X285988335Y-85971200D02*
X286607382Y-85971200D01*
X286274049Y-86352153D01*
X286416906Y-86352153D01*
X286512144Y-86399772D01*
X286559763Y-86447391D01*
X286607382Y-86542629D01*
X286607382Y-86780724D01*
X286559763Y-86875962D01*
X286512144Y-86923581D01*
X286416906Y-86971200D01*
X286131192Y-86971200D01*
X286035954Y-86923581D01*
X285988335Y-86875962D01*
X286988335Y-86066439D02*
X287035954Y-86018820D01*
X287131192Y-85971200D01*
X287369287Y-85971200D01*
X287464525Y-86018820D01*
X287512144Y-86066439D01*
X287559763Y-86161677D01*
X287559763Y-86256915D01*
X287512144Y-86399772D01*
X286940716Y-86971200D01*
X287559763Y-86971200D01*
X283988335Y-106021216D02*
X283988335Y-105021216D01*
X284321668Y-105735502D01*
X284655001Y-105021216D01*
X284655001Y-106021216D01*
X285035954Y-105021216D02*
X285702620Y-106021216D01*
X285702620Y-105021216D02*
X285035954Y-106021216D01*
X285988335Y-105021216D02*
X286607382Y-105021216D01*
X286274049Y-105402169D01*
X286416906Y-105402169D01*
X286512144Y-105449788D01*
X286559763Y-105497407D01*
X286607382Y-105592645D01*
X286607382Y-105830740D01*
X286559763Y-105925978D01*
X286512144Y-105973597D01*
X286416906Y-106021216D01*
X286131192Y-106021216D01*
X286035954Y-105973597D01*
X285988335Y-105925978D01*
X286940716Y-105021216D02*
X287559763Y-105021216D01*
X287226430Y-105402169D01*
X287369287Y-105402169D01*
X287464525Y-105449788D01*
X287512144Y-105497407D01*
X287559763Y-105592645D01*
X287559763Y-105830740D01*
X287512144Y-105925978D01*
X287464525Y-105973597D01*
X287369287Y-106021216D01*
X287083573Y-106021216D01*
X286988335Y-105973597D01*
X286940716Y-105925978D01*
X283988335Y-125071232D02*
X283988335Y-124071232D01*
X284321668Y-124785518D01*
X284655001Y-124071232D01*
X284655001Y-125071232D01*
X285035954Y-124071232D02*
X285702620Y-125071232D01*
X285702620Y-124071232D02*
X285035954Y-125071232D01*
X285988335Y-124071232D02*
X286607382Y-124071232D01*
X286274049Y-124452185D01*
X286416906Y-124452185D01*
X286512144Y-124499804D01*
X286559763Y-124547423D01*
X286607382Y-124642661D01*
X286607382Y-124880756D01*
X286559763Y-124975994D01*
X286512144Y-125023613D01*
X286416906Y-125071232D01*
X286131192Y-125071232D01*
X286035954Y-125023613D01*
X285988335Y-124975994D01*
X287464525Y-124404566D02*
X287464525Y-125071232D01*
X287226430Y-124023613D02*
X286988335Y-124737899D01*
X287607382Y-124737899D01*
X283988335Y-144121248D02*
X283988335Y-143121248D01*
X284321668Y-143835534D01*
X284655001Y-143121248D01*
X284655001Y-144121248D01*
X285035954Y-143121248D02*
X285702620Y-144121248D01*
X285702620Y-143121248D02*
X285035954Y-144121248D01*
X285988335Y-143121248D02*
X286607382Y-143121248D01*
X286274049Y-143502201D01*
X286416906Y-143502201D01*
X286512144Y-143549820D01*
X286559763Y-143597439D01*
X286607382Y-143692677D01*
X286607382Y-143930772D01*
X286559763Y-144026010D01*
X286512144Y-144073629D01*
X286416906Y-144121248D01*
X286131192Y-144121248D01*
X286035954Y-144073629D01*
X285988335Y-144026010D01*
X287512144Y-143121248D02*
X287035954Y-143121248D01*
X286988335Y-143597439D01*
X287035954Y-143549820D01*
X287131192Y-143502201D01*
X287369287Y-143502201D01*
X287464525Y-143549820D01*
X287512144Y-143597439D01*
X287559763Y-143692677D01*
X287559763Y-143930772D01*
X287512144Y-144026010D01*
X287464525Y-144073629D01*
X287369287Y-144121248D01*
X287131192Y-144121248D01*
X287035954Y-144073629D01*
X286988335Y-144026010D01*
X264938319Y-144121248D02*
X264938319Y-143121248D01*
X265271652Y-143835534D01*
X265604985Y-143121248D01*
X265604985Y-144121248D01*
X265985938Y-143121248D02*
X266652604Y-144121248D01*
X266652604Y-143121248D02*
X265985938Y-144121248D01*
X266938319Y-143121248D02*
X267557366Y-143121248D01*
X267224033Y-143502201D01*
X267366890Y-143502201D01*
X267462128Y-143549820D01*
X267509747Y-143597439D01*
X267557366Y-143692677D01*
X267557366Y-143930772D01*
X267509747Y-144026010D01*
X267462128Y-144073629D01*
X267366890Y-144121248D01*
X267081176Y-144121248D01*
X266985938Y-144073629D01*
X266938319Y-144026010D01*
X268414509Y-143121248D02*
X268224033Y-143121248D01*
X268128795Y-143168868D01*
X268081176Y-143216487D01*
X267985938Y-143359344D01*
X267938319Y-143549820D01*
X267938319Y-143930772D01*
X267985938Y-144026010D01*
X268033557Y-144073629D01*
X268128795Y-144121248D01*
X268319271Y-144121248D01*
X268414509Y-144073629D01*
X268462128Y-144026010D01*
X268509747Y-143930772D01*
X268509747Y-143692677D01*
X268462128Y-143597439D01*
X268414509Y-143549820D01*
X268319271Y-143502201D01*
X268128795Y-143502201D01*
X268033557Y-143549820D01*
X267985938Y-143597439D01*
X267938319Y-143692677D01*
X264938319Y-67921184D02*
X264938319Y-66921184D01*
X265271652Y-67635470D01*
X265604985Y-66921184D01*
X265604985Y-67921184D01*
X265985938Y-66921184D02*
X266652604Y-67921184D01*
X266652604Y-66921184D02*
X265985938Y-67921184D01*
X266938319Y-66921184D02*
X267557366Y-66921184D01*
X267224033Y-67302137D01*
X267366890Y-67302137D01*
X267462128Y-67349756D01*
X267509747Y-67397375D01*
X267557366Y-67492613D01*
X267557366Y-67730708D01*
X267509747Y-67825946D01*
X267462128Y-67873565D01*
X267366890Y-67921184D01*
X267081176Y-67921184D01*
X266985938Y-67873565D01*
X266938319Y-67825946D01*
X267890700Y-66921184D02*
X268557366Y-66921184D01*
X268128795Y-67921184D01*
X264938319Y-86971200D02*
X264938319Y-85971200D01*
X265271652Y-86685486D01*
X265604985Y-85971200D01*
X265604985Y-86971200D01*
X265985938Y-85971200D02*
X266652604Y-86971200D01*
X266652604Y-85971200D02*
X265985938Y-86971200D01*
X266938319Y-85971200D02*
X267557366Y-85971200D01*
X267224033Y-86352153D01*
X267366890Y-86352153D01*
X267462128Y-86399772D01*
X267509747Y-86447391D01*
X267557366Y-86542629D01*
X267557366Y-86780724D01*
X267509747Y-86875962D01*
X267462128Y-86923581D01*
X267366890Y-86971200D01*
X267081176Y-86971200D01*
X266985938Y-86923581D01*
X266938319Y-86875962D01*
X268128795Y-86399772D02*
X268033557Y-86352153D01*
X267985938Y-86304534D01*
X267938319Y-86209296D01*
X267938319Y-86161677D01*
X267985938Y-86066439D01*
X268033557Y-86018820D01*
X268128795Y-85971200D01*
X268319271Y-85971200D01*
X268414509Y-86018820D01*
X268462128Y-86066439D01*
X268509747Y-86161677D01*
X268509747Y-86209296D01*
X268462128Y-86304534D01*
X268414509Y-86352153D01*
X268319271Y-86399772D01*
X268128795Y-86399772D01*
X268033557Y-86447391D01*
X267985938Y-86495010D01*
X267938319Y-86590248D01*
X267938319Y-86780724D01*
X267985938Y-86875962D01*
X268033557Y-86923581D01*
X268128795Y-86971200D01*
X268319271Y-86971200D01*
X268414509Y-86923581D01*
X268462128Y-86875962D01*
X268509747Y-86780724D01*
X268509747Y-86590248D01*
X268462128Y-86495010D01*
X268414509Y-86447391D01*
X268319271Y-86399772D01*
X264938319Y-106021216D02*
X264938319Y-105021216D01*
X265271652Y-105735502D01*
X265604985Y-105021216D01*
X265604985Y-106021216D01*
X265985938Y-105021216D02*
X266652604Y-106021216D01*
X266652604Y-105021216D02*
X265985938Y-106021216D01*
X266938319Y-105021216D02*
X267557366Y-105021216D01*
X267224033Y-105402169D01*
X267366890Y-105402169D01*
X267462128Y-105449788D01*
X267509747Y-105497407D01*
X267557366Y-105592645D01*
X267557366Y-105830740D01*
X267509747Y-105925978D01*
X267462128Y-105973597D01*
X267366890Y-106021216D01*
X267081176Y-106021216D01*
X266985938Y-105973597D01*
X266938319Y-105925978D01*
X268033557Y-106021216D02*
X268224033Y-106021216D01*
X268319271Y-105973597D01*
X268366890Y-105925978D01*
X268462128Y-105783121D01*
X268509747Y-105592645D01*
X268509747Y-105211693D01*
X268462128Y-105116455D01*
X268414509Y-105068836D01*
X268319271Y-105021216D01*
X268128795Y-105021216D01*
X268033557Y-105068836D01*
X267985938Y-105116455D01*
X267938319Y-105211693D01*
X267938319Y-105449788D01*
X267985938Y-105545026D01*
X268033557Y-105592645D01*
X268128795Y-105640264D01*
X268319271Y-105640264D01*
X268414509Y-105592645D01*
X268462128Y-105545026D01*
X268509747Y-105449788D01*
X264938319Y-125071232D02*
X264938319Y-124071232D01*
X265271652Y-124785518D01*
X265604985Y-124071232D01*
X265604985Y-125071232D01*
X265985938Y-124071232D02*
X266652604Y-125071232D01*
X266652604Y-124071232D02*
X265985938Y-125071232D01*
X267462128Y-124404566D02*
X267462128Y-125071232D01*
X267224033Y-124023613D02*
X266985938Y-124737899D01*
X267604985Y-124737899D01*
X268176414Y-124071232D02*
X268271652Y-124071232D01*
X268366890Y-124118852D01*
X268414509Y-124166471D01*
X268462128Y-124261709D01*
X268509747Y-124452185D01*
X268509747Y-124690280D01*
X268462128Y-124880756D01*
X268414509Y-124975994D01*
X268366890Y-125023613D01*
X268271652Y-125071232D01*
X268176414Y-125071232D01*
X268081176Y-125023613D01*
X268033557Y-124975994D01*
X267985938Y-124880756D01*
X267938319Y-124690280D01*
X267938319Y-124452185D01*
X267985938Y-124261709D01*
X268033557Y-124166471D01*
X268081176Y-124118852D01*
X268176414Y-124071232D01*
X245888303Y-125071232D02*
X245888303Y-124071232D01*
X246221636Y-124785518D01*
X246554969Y-124071232D01*
X246554969Y-125071232D01*
X246935922Y-124071232D02*
X247602588Y-125071232D01*
X247602588Y-124071232D02*
X246935922Y-125071232D01*
X248412112Y-124404566D02*
X248412112Y-125071232D01*
X248174017Y-124023613D02*
X247935922Y-124737899D01*
X248554969Y-124737899D01*
X249459731Y-125071232D02*
X248888303Y-125071232D01*
X249174017Y-125071232D02*
X249174017Y-124071232D01*
X249078779Y-124214090D01*
X248983541Y-124309328D01*
X248888303Y-124356947D01*
X245888303Y-144121248D02*
X245888303Y-143121248D01*
X246221636Y-143835534D01*
X246554969Y-143121248D01*
X246554969Y-144121248D01*
X246935922Y-143121248D02*
X247602588Y-144121248D01*
X247602588Y-143121248D02*
X246935922Y-144121248D01*
X248412112Y-143454582D02*
X248412112Y-144121248D01*
X248174017Y-143073629D02*
X247935922Y-143787915D01*
X248554969Y-143787915D01*
X248888303Y-143216487D02*
X248935922Y-143168868D01*
X249031160Y-143121248D01*
X249269255Y-143121248D01*
X249364493Y-143168868D01*
X249412112Y-143216487D01*
X249459731Y-143311725D01*
X249459731Y-143406963D01*
X249412112Y-143549820D01*
X248840684Y-144121248D01*
X249459731Y-144121248D01*
X245888303Y-67921184D02*
X245888303Y-66921184D01*
X246221636Y-67635470D01*
X246554969Y-66921184D01*
X246554969Y-67921184D01*
X246935922Y-66921184D02*
X247602588Y-67921184D01*
X247602588Y-66921184D02*
X246935922Y-67921184D01*
X248412112Y-67254518D02*
X248412112Y-67921184D01*
X248174017Y-66873565D02*
X247935922Y-67587851D01*
X248554969Y-67587851D01*
X248840684Y-66921184D02*
X249459731Y-66921184D01*
X249126398Y-67302137D01*
X249269255Y-67302137D01*
X249364493Y-67349756D01*
X249412112Y-67397375D01*
X249459731Y-67492613D01*
X249459731Y-67730708D01*
X249412112Y-67825946D01*
X249364493Y-67873565D01*
X249269255Y-67921184D01*
X248983541Y-67921184D01*
X248888303Y-67873565D01*
X248840684Y-67825946D01*
X245888303Y-86971200D02*
X245888303Y-85971200D01*
X246221636Y-86685486D01*
X246554969Y-85971200D01*
X246554969Y-86971200D01*
X246935922Y-85971200D02*
X247602588Y-86971200D01*
X247602588Y-85971200D02*
X246935922Y-86971200D01*
X248412112Y-86304534D02*
X248412112Y-86971200D01*
X248174017Y-85923581D02*
X247935922Y-86637867D01*
X248554969Y-86637867D01*
X249364493Y-86304534D02*
X249364493Y-86971200D01*
X249126398Y-85923581D02*
X248888303Y-86637867D01*
X249507350Y-86637867D01*
X245888303Y-106021216D02*
X245888303Y-105021216D01*
X246221636Y-105735502D01*
X246554969Y-105021216D01*
X246554969Y-106021216D01*
X246935922Y-105021216D02*
X247602588Y-106021216D01*
X247602588Y-105021216D02*
X246935922Y-106021216D01*
X248412112Y-105354550D02*
X248412112Y-106021216D01*
X248174017Y-104973597D02*
X247935922Y-105687883D01*
X248554969Y-105687883D01*
X249412112Y-105021216D02*
X248935922Y-105021216D01*
X248888303Y-105497407D01*
X248935922Y-105449788D01*
X249031160Y-105402169D01*
X249269255Y-105402169D01*
X249364493Y-105449788D01*
X249412112Y-105497407D01*
X249459731Y-105592645D01*
X249459731Y-105830740D01*
X249412112Y-105925978D01*
X249364493Y-105973597D01*
X249269255Y-106021216D01*
X249031160Y-106021216D01*
X248935922Y-105973597D01*
X248888303Y-105925978D01*
X226838287Y-106021216D02*
X226838287Y-105021216D01*
X227171620Y-105735502D01*
X227504953Y-105021216D01*
X227504953Y-106021216D01*
X227885906Y-105021216D02*
X228552572Y-106021216D01*
X228552572Y-105021216D02*
X227885906Y-106021216D01*
X229362096Y-105354550D02*
X229362096Y-106021216D01*
X229124001Y-104973597D02*
X228885906Y-105687883D01*
X229504953Y-105687883D01*
X230314477Y-105021216D02*
X230124001Y-105021216D01*
X230028763Y-105068836D01*
X229981144Y-105116455D01*
X229885906Y-105259312D01*
X229838287Y-105449788D01*
X229838287Y-105830740D01*
X229885906Y-105925978D01*
X229933525Y-105973597D01*
X230028763Y-106021216D01*
X230219239Y-106021216D01*
X230314477Y-105973597D01*
X230362096Y-105925978D01*
X230409715Y-105830740D01*
X230409715Y-105592645D01*
X230362096Y-105497407D01*
X230314477Y-105449788D01*
X230219239Y-105402169D01*
X230028763Y-105402169D01*
X229933525Y-105449788D01*
X229885906Y-105497407D01*
X229838287Y-105592645D01*
X226838287Y-125071232D02*
X226838287Y-124071232D01*
X227171620Y-124785518D01*
X227504953Y-124071232D01*
X227504953Y-125071232D01*
X227885906Y-124071232D02*
X228552572Y-125071232D01*
X228552572Y-124071232D02*
X227885906Y-125071232D01*
X229362096Y-124404566D02*
X229362096Y-125071232D01*
X229124001Y-124023613D02*
X228885906Y-124737899D01*
X229504953Y-124737899D01*
X229790668Y-124071232D02*
X230457334Y-124071232D01*
X230028763Y-125071232D01*
X226838287Y-144121248D02*
X226838287Y-143121248D01*
X227171620Y-143835534D01*
X227504953Y-143121248D01*
X227504953Y-144121248D01*
X227885906Y-143121248D02*
X228552572Y-144121248D01*
X228552572Y-143121248D02*
X227885906Y-144121248D01*
X229362096Y-143454582D02*
X229362096Y-144121248D01*
X229124001Y-143073629D02*
X228885906Y-143787915D01*
X229504953Y-143787915D01*
X230028763Y-143549820D02*
X229933525Y-143502201D01*
X229885906Y-143454582D01*
X229838287Y-143359344D01*
X229838287Y-143311725D01*
X229885906Y-143216487D01*
X229933525Y-143168868D01*
X230028763Y-143121248D01*
X230219239Y-143121248D01*
X230314477Y-143168868D01*
X230362096Y-143216487D01*
X230409715Y-143311725D01*
X230409715Y-143359344D01*
X230362096Y-143454582D01*
X230314477Y-143502201D01*
X230219239Y-143549820D01*
X230028763Y-143549820D01*
X229933525Y-143597439D01*
X229885906Y-143645058D01*
X229838287Y-143740296D01*
X229838287Y-143930772D01*
X229885906Y-144026010D01*
X229933525Y-144073629D01*
X230028763Y-144121248D01*
X230219239Y-144121248D01*
X230314477Y-144073629D01*
X230362096Y-144026010D01*
X230409715Y-143930772D01*
X230409715Y-143740296D01*
X230362096Y-143645058D01*
X230314477Y-143597439D01*
X230219239Y-143549820D01*
X226838287Y-67921184D02*
X226838287Y-66921184D01*
X227171620Y-67635470D01*
X227504953Y-66921184D01*
X227504953Y-67921184D01*
X227885906Y-66921184D02*
X228552572Y-67921184D01*
X228552572Y-66921184D02*
X227885906Y-67921184D01*
X229362096Y-67254518D02*
X229362096Y-67921184D01*
X229124001Y-66873565D02*
X228885906Y-67587851D01*
X229504953Y-67587851D01*
X229933525Y-67921184D02*
X230124001Y-67921184D01*
X230219239Y-67873565D01*
X230266858Y-67825946D01*
X230362096Y-67683089D01*
X230409715Y-67492613D01*
X230409715Y-67111661D01*
X230362096Y-67016423D01*
X230314477Y-66968804D01*
X230219239Y-66921184D01*
X230028763Y-66921184D01*
X229933525Y-66968804D01*
X229885906Y-67016423D01*
X229838287Y-67111661D01*
X229838287Y-67349756D01*
X229885906Y-67444994D01*
X229933525Y-67492613D01*
X230028763Y-67540232D01*
X230219239Y-67540232D01*
X230314477Y-67492613D01*
X230362096Y-67444994D01*
X230409715Y-67349756D01*
X226838287Y-86971200D02*
X226838287Y-85971200D01*
X227171620Y-86685486D01*
X227504953Y-85971200D01*
X227504953Y-86971200D01*
X227885906Y-85971200D02*
X228552572Y-86971200D01*
X228552572Y-85971200D02*
X227885906Y-86971200D01*
X229409715Y-85971200D02*
X228933525Y-85971200D01*
X228885906Y-86447391D01*
X228933525Y-86399772D01*
X229028763Y-86352153D01*
X229266858Y-86352153D01*
X229362096Y-86399772D01*
X229409715Y-86447391D01*
X229457334Y-86542629D01*
X229457334Y-86780724D01*
X229409715Y-86875962D01*
X229362096Y-86923581D01*
X229266858Y-86971200D01*
X229028763Y-86971200D01*
X228933525Y-86923581D01*
X228885906Y-86875962D01*
X230076382Y-85971200D02*
X230171620Y-85971200D01*
X230266858Y-86018820D01*
X230314477Y-86066439D01*
X230362096Y-86161677D01*
X230409715Y-86352153D01*
X230409715Y-86590248D01*
X230362096Y-86780724D01*
X230314477Y-86875962D01*
X230266858Y-86923581D01*
X230171620Y-86971200D01*
X230076382Y-86971200D01*
X229981144Y-86923581D01*
X229933525Y-86875962D01*
X229885906Y-86780724D01*
X229838287Y-86590248D01*
X229838287Y-86352153D01*
X229885906Y-86161677D01*
X229933525Y-86066439D01*
X229981144Y-86018820D01*
X230076382Y-85971200D01*
X207788271Y-86971200D02*
X207788271Y-85971200D01*
X208121604Y-86685486D01*
X208454937Y-85971200D01*
X208454937Y-86971200D01*
X208835890Y-85971200D02*
X209502556Y-86971200D01*
X209502556Y-85971200D02*
X208835890Y-86971200D01*
X210359699Y-85971200D02*
X209883509Y-85971200D01*
X209835890Y-86447391D01*
X209883509Y-86399772D01*
X209978747Y-86352153D01*
X210216842Y-86352153D01*
X210312080Y-86399772D01*
X210359699Y-86447391D01*
X210407318Y-86542629D01*
X210407318Y-86780724D01*
X210359699Y-86875962D01*
X210312080Y-86923581D01*
X210216842Y-86971200D01*
X209978747Y-86971200D01*
X209883509Y-86923581D01*
X209835890Y-86875962D01*
X211359699Y-86971200D02*
X210788271Y-86971200D01*
X211073985Y-86971200D02*
X211073985Y-85971200D01*
X210978747Y-86114058D01*
X210883509Y-86209296D01*
X210788271Y-86256915D01*
X207788271Y-106021216D02*
X207788271Y-105021216D01*
X208121604Y-105735502D01*
X208454937Y-105021216D01*
X208454937Y-106021216D01*
X208835890Y-105021216D02*
X209502556Y-106021216D01*
X209502556Y-105021216D02*
X208835890Y-106021216D01*
X210359699Y-105021216D02*
X209883509Y-105021216D01*
X209835890Y-105497407D01*
X209883509Y-105449788D01*
X209978747Y-105402169D01*
X210216842Y-105402169D01*
X210312080Y-105449788D01*
X210359699Y-105497407D01*
X210407318Y-105592645D01*
X210407318Y-105830740D01*
X210359699Y-105925978D01*
X210312080Y-105973597D01*
X210216842Y-106021216D01*
X209978747Y-106021216D01*
X209883509Y-105973597D01*
X209835890Y-105925978D01*
X210788271Y-105116455D02*
X210835890Y-105068836D01*
X210931128Y-105021216D01*
X211169223Y-105021216D01*
X211264461Y-105068836D01*
X211312080Y-105116455D01*
X211359699Y-105211693D01*
X211359699Y-105306931D01*
X211312080Y-105449788D01*
X210740652Y-106021216D01*
X211359699Y-106021216D01*
X207788271Y-125071232D02*
X207788271Y-124071232D01*
X208121604Y-124785518D01*
X208454937Y-124071232D01*
X208454937Y-125071232D01*
X208835890Y-124071232D02*
X209502556Y-125071232D01*
X209502556Y-124071232D02*
X208835890Y-125071232D01*
X210359699Y-124071232D02*
X209883509Y-124071232D01*
X209835890Y-124547423D01*
X209883509Y-124499804D01*
X209978747Y-124452185D01*
X210216842Y-124452185D01*
X210312080Y-124499804D01*
X210359699Y-124547423D01*
X210407318Y-124642661D01*
X210407318Y-124880756D01*
X210359699Y-124975994D01*
X210312080Y-125023613D01*
X210216842Y-125071232D01*
X209978747Y-125071232D01*
X209883509Y-125023613D01*
X209835890Y-124975994D01*
X210740652Y-124071232D02*
X211359699Y-124071232D01*
X211026366Y-124452185D01*
X211169223Y-124452185D01*
X211264461Y-124499804D01*
X211312080Y-124547423D01*
X211359699Y-124642661D01*
X211359699Y-124880756D01*
X211312080Y-124975994D01*
X211264461Y-125023613D01*
X211169223Y-125071232D01*
X210883509Y-125071232D01*
X210788271Y-125023613D01*
X210740652Y-124975994D01*
X207788271Y-144121248D02*
X207788271Y-143121248D01*
X208121604Y-143835534D01*
X208454937Y-143121248D01*
X208454937Y-144121248D01*
X208835890Y-143121248D02*
X209502556Y-144121248D01*
X209502556Y-143121248D02*
X208835890Y-144121248D01*
X210359699Y-143121248D02*
X209883509Y-143121248D01*
X209835890Y-143597439D01*
X209883509Y-143549820D01*
X209978747Y-143502201D01*
X210216842Y-143502201D01*
X210312080Y-143549820D01*
X210359699Y-143597439D01*
X210407318Y-143692677D01*
X210407318Y-143930772D01*
X210359699Y-144026010D01*
X210312080Y-144073629D01*
X210216842Y-144121248D01*
X209978747Y-144121248D01*
X209883509Y-144073629D01*
X209835890Y-144026010D01*
X211264461Y-143454582D02*
X211264461Y-144121248D01*
X211026366Y-143073629D02*
X210788271Y-143787915D01*
X211407318Y-143787915D01*
X207788271Y-67921184D02*
X207788271Y-66921184D01*
X208121604Y-67635470D01*
X208454937Y-66921184D01*
X208454937Y-67921184D01*
X208835890Y-66921184D02*
X209502556Y-67921184D01*
X209502556Y-66921184D02*
X208835890Y-67921184D01*
X210359699Y-66921184D02*
X209883509Y-66921184D01*
X209835890Y-67397375D01*
X209883509Y-67349756D01*
X209978747Y-67302137D01*
X210216842Y-67302137D01*
X210312080Y-67349756D01*
X210359699Y-67397375D01*
X210407318Y-67492613D01*
X210407318Y-67730708D01*
X210359699Y-67825946D01*
X210312080Y-67873565D01*
X210216842Y-67921184D01*
X209978747Y-67921184D01*
X209883509Y-67873565D01*
X209835890Y-67825946D01*
X211312080Y-66921184D02*
X210835890Y-66921184D01*
X210788271Y-67397375D01*
X210835890Y-67349756D01*
X210931128Y-67302137D01*
X211169223Y-67302137D01*
X211264461Y-67349756D01*
X211312080Y-67397375D01*
X211359699Y-67492613D01*
X211359699Y-67730708D01*
X211312080Y-67825946D01*
X211264461Y-67873565D01*
X211169223Y-67921184D01*
X210931128Y-67921184D01*
X210835890Y-67873565D01*
X210788271Y-67825946D01*
X188738255Y-67921184D02*
X188738255Y-66921184D01*
X189071588Y-67635470D01*
X189404921Y-66921184D01*
X189404921Y-67921184D01*
X189785874Y-66921184D02*
X190452540Y-67921184D01*
X190452540Y-66921184D02*
X189785874Y-67921184D01*
X191309683Y-66921184D02*
X190833493Y-66921184D01*
X190785874Y-67397375D01*
X190833493Y-67349756D01*
X190928731Y-67302137D01*
X191166826Y-67302137D01*
X191262064Y-67349756D01*
X191309683Y-67397375D01*
X191357302Y-67492613D01*
X191357302Y-67730708D01*
X191309683Y-67825946D01*
X191262064Y-67873565D01*
X191166826Y-67921184D01*
X190928731Y-67921184D01*
X190833493Y-67873565D01*
X190785874Y-67825946D01*
X192214445Y-66921184D02*
X192023969Y-66921184D01*
X191928731Y-66968804D01*
X191881112Y-67016423D01*
X191785874Y-67159280D01*
X191738255Y-67349756D01*
X191738255Y-67730708D01*
X191785874Y-67825946D01*
X191833493Y-67873565D01*
X191928731Y-67921184D01*
X192119207Y-67921184D01*
X192214445Y-67873565D01*
X192262064Y-67825946D01*
X192309683Y-67730708D01*
X192309683Y-67492613D01*
X192262064Y-67397375D01*
X192214445Y-67349756D01*
X192119207Y-67302137D01*
X191928731Y-67302137D01*
X191833493Y-67349756D01*
X191785874Y-67397375D01*
X191738255Y-67492613D01*
X188738255Y-86971200D02*
X188738255Y-85971200D01*
X189071588Y-86685486D01*
X189404921Y-85971200D01*
X189404921Y-86971200D01*
X189785874Y-85971200D02*
X190452540Y-86971200D01*
X190452540Y-85971200D02*
X189785874Y-86971200D01*
X191309683Y-85971200D02*
X190833493Y-85971200D01*
X190785874Y-86447391D01*
X190833493Y-86399772D01*
X190928731Y-86352153D01*
X191166826Y-86352153D01*
X191262064Y-86399772D01*
X191309683Y-86447391D01*
X191357302Y-86542629D01*
X191357302Y-86780724D01*
X191309683Y-86875962D01*
X191262064Y-86923581D01*
X191166826Y-86971200D01*
X190928731Y-86971200D01*
X190833493Y-86923581D01*
X190785874Y-86875962D01*
X191690636Y-85971200D02*
X192357302Y-85971200D01*
X191928731Y-86971200D01*
X188738255Y-106021216D02*
X188738255Y-105021216D01*
X189071588Y-105735502D01*
X189404921Y-105021216D01*
X189404921Y-106021216D01*
X189785874Y-105021216D02*
X190452540Y-106021216D01*
X190452540Y-105021216D02*
X189785874Y-106021216D01*
X191309683Y-105021216D02*
X190833493Y-105021216D01*
X190785874Y-105497407D01*
X190833493Y-105449788D01*
X190928731Y-105402169D01*
X191166826Y-105402169D01*
X191262064Y-105449788D01*
X191309683Y-105497407D01*
X191357302Y-105592645D01*
X191357302Y-105830740D01*
X191309683Y-105925978D01*
X191262064Y-105973597D01*
X191166826Y-106021216D01*
X190928731Y-106021216D01*
X190833493Y-105973597D01*
X190785874Y-105925978D01*
X191928731Y-105449788D02*
X191833493Y-105402169D01*
X191785874Y-105354550D01*
X191738255Y-105259312D01*
X191738255Y-105211693D01*
X191785874Y-105116455D01*
X191833493Y-105068836D01*
X191928731Y-105021216D01*
X192119207Y-105021216D01*
X192214445Y-105068836D01*
X192262064Y-105116455D01*
X192309683Y-105211693D01*
X192309683Y-105259312D01*
X192262064Y-105354550D01*
X192214445Y-105402169D01*
X192119207Y-105449788D01*
X191928731Y-105449788D01*
X191833493Y-105497407D01*
X191785874Y-105545026D01*
X191738255Y-105640264D01*
X191738255Y-105830740D01*
X191785874Y-105925978D01*
X191833493Y-105973597D01*
X191928731Y-106021216D01*
X192119207Y-106021216D01*
X192214445Y-105973597D01*
X192262064Y-105925978D01*
X192309683Y-105830740D01*
X192309683Y-105640264D01*
X192262064Y-105545026D01*
X192214445Y-105497407D01*
X192119207Y-105449788D01*
X188738255Y-125071232D02*
X188738255Y-124071232D01*
X189071588Y-124785518D01*
X189404921Y-124071232D01*
X189404921Y-125071232D01*
X189785874Y-124071232D02*
X190452540Y-125071232D01*
X190452540Y-124071232D02*
X189785874Y-125071232D01*
X191309683Y-124071232D02*
X190833493Y-124071232D01*
X190785874Y-124547423D01*
X190833493Y-124499804D01*
X190928731Y-124452185D01*
X191166826Y-124452185D01*
X191262064Y-124499804D01*
X191309683Y-124547423D01*
X191357302Y-124642661D01*
X191357302Y-124880756D01*
X191309683Y-124975994D01*
X191262064Y-125023613D01*
X191166826Y-125071232D01*
X190928731Y-125071232D01*
X190833493Y-125023613D01*
X190785874Y-124975994D01*
X191833493Y-125071232D02*
X192023969Y-125071232D01*
X192119207Y-125023613D01*
X192166826Y-124975994D01*
X192262064Y-124833137D01*
X192309683Y-124642661D01*
X192309683Y-124261709D01*
X192262064Y-124166471D01*
X192214445Y-124118852D01*
X192119207Y-124071232D01*
X191928731Y-124071232D01*
X191833493Y-124118852D01*
X191785874Y-124166471D01*
X191738255Y-124261709D01*
X191738255Y-124499804D01*
X191785874Y-124595042D01*
X191833493Y-124642661D01*
X191928731Y-124690280D01*
X192119207Y-124690280D01*
X192214445Y-124642661D01*
X192262064Y-124595042D01*
X192309683Y-124499804D01*
X188738255Y-144121248D02*
X188738255Y-143121248D01*
X189071588Y-143835534D01*
X189404921Y-143121248D01*
X189404921Y-144121248D01*
X189785874Y-143121248D02*
X190452540Y-144121248D01*
X190452540Y-143121248D02*
X189785874Y-144121248D01*
X191262064Y-143121248D02*
X191071588Y-143121248D01*
X190976350Y-143168868D01*
X190928731Y-143216487D01*
X190833493Y-143359344D01*
X190785874Y-143549820D01*
X190785874Y-143930772D01*
X190833493Y-144026010D01*
X190881112Y-144073629D01*
X190976350Y-144121248D01*
X191166826Y-144121248D01*
X191262064Y-144073629D01*
X191309683Y-144026010D01*
X191357302Y-143930772D01*
X191357302Y-143692677D01*
X191309683Y-143597439D01*
X191262064Y-143549820D01*
X191166826Y-143502201D01*
X190976350Y-143502201D01*
X190881112Y-143549820D01*
X190833493Y-143597439D01*
X190785874Y-143692677D01*
X191976350Y-143121248D02*
X192071588Y-143121248D01*
X192166826Y-143168868D01*
X192214445Y-143216487D01*
X192262064Y-143311725D01*
X192309683Y-143502201D01*
X192309683Y-143740296D01*
X192262064Y-143930772D01*
X192214445Y-144026010D01*
X192166826Y-144073629D01*
X192071588Y-144121248D01*
X191976350Y-144121248D01*
X191881112Y-144073629D01*
X191833493Y-144026010D01*
X191785874Y-143930772D01*
X191738255Y-143740296D01*
X191738255Y-143502201D01*
X191785874Y-143311725D01*
X191833493Y-143216487D01*
X191881112Y-143168868D01*
X191976350Y-143121248D01*
X55388143Y-67921184D02*
X55388143Y-66921184D01*
X55721476Y-67635470D01*
X56054809Y-66921184D01*
X56054809Y-67921184D01*
X56435762Y-66921184D02*
X57102428Y-67921184D01*
X57102428Y-66921184D02*
X56435762Y-67921184D01*
X58007190Y-67921184D02*
X57435762Y-67921184D01*
X57721476Y-67921184D02*
X57721476Y-66921184D01*
X57626238Y-67064042D01*
X57531000Y-67159280D01*
X57435762Y-67206899D01*
X58340524Y-66921184D02*
X58959571Y-66921184D01*
X58626238Y-67302137D01*
X58769095Y-67302137D01*
X58864333Y-67349756D01*
X58911952Y-67397375D01*
X58959571Y-67492613D01*
X58959571Y-67730708D01*
X58911952Y-67825946D01*
X58864333Y-67873565D01*
X58769095Y-67921184D01*
X58483381Y-67921184D01*
X58388143Y-67873565D01*
X58340524Y-67825946D01*
X55388143Y-86971200D02*
X55388143Y-85971200D01*
X55721476Y-86685486D01*
X56054809Y-85971200D01*
X56054809Y-86971200D01*
X56435762Y-85971200D02*
X57102428Y-86971200D01*
X57102428Y-85971200D02*
X56435762Y-86971200D01*
X58007190Y-86971200D02*
X57435762Y-86971200D01*
X57721476Y-86971200D02*
X57721476Y-85971200D01*
X57626238Y-86114058D01*
X57531000Y-86209296D01*
X57435762Y-86256915D01*
X58864333Y-86304534D02*
X58864333Y-86971200D01*
X58626238Y-85923581D02*
X58388143Y-86637867D01*
X59007190Y-86637867D01*
X17764253Y-67921130D02*
X17764253Y-66921130D01*
X18097587Y-67635416D01*
X18430920Y-66921130D01*
X18430920Y-67921130D01*
X18811872Y-66921130D02*
X19478539Y-67921130D01*
X19478539Y-66921130D02*
X18811872Y-67921130D01*
X20383301Y-67921130D02*
X19811872Y-67921130D01*
X20097587Y-67921130D02*
X20097587Y-66921130D01*
X20002348Y-67063988D01*
X19907110Y-67159226D01*
X19811872Y-67206845D01*
D11*
X150380000Y-95179000D02*
X150380000Y-93921000D01*
X152220000Y-95179000D02*
X152220000Y-93921000D01*
X152220000Y-88521000D02*
X152220000Y-89779000D01*
X150380000Y-88521000D02*
X150380000Y-89779000D01*
X159833884Y-62618491D02*
X159833884Y-62462491D01*
X159833884Y-64934491D02*
X159833884Y-64778491D01*
X159833884Y-62462975D02*
G75*
G03*
X156601549Y-62619883I-1560000J-1235516D01*
G01*
X159314845Y-62618491D02*
G75*
G03*
X157232754Y-62618654I-1040961J-1080000D01*
G01*
X157232754Y-64778328D02*
G75*
G03*
X159314845Y-64778491I1041130J1079837D01*
G01*
X156601549Y-64777099D02*
G75*
G03*
X159833884Y-64934007I1672335J1078608D01*
G01*
X157591380Y-67726308D02*
X155941380Y-67726308D01*
X161241380Y-103406308D02*
X161241380Y-67726308D01*
X155941380Y-103406308D02*
X161241380Y-103406308D01*
X155941380Y-67726308D02*
X155941380Y-103406308D01*
X161241380Y-67726308D02*
X159591380Y-67726308D01*
X157591380Y-67726308D02*
G75*
G03*
X159591380Y-67726308I1000000J0D01*
G01*
X151360000Y-110992000D02*
X151360000Y-114192000D01*
X141460000Y-110992000D02*
X141460000Y-114192000D01*
X141460000Y-110992000D02*
X151360000Y-110992000D01*
X141460000Y-114192000D02*
X151340000Y-114192000D01*
X133796677Y-83868507D02*
X133796677Y-81628507D01*
X134036677Y-83868507D02*
X134036677Y-81628507D01*
X134636677Y-81628507D02*
X130396677Y-81628507D01*
X129746677Y-82748507D02*
X130396677Y-82748507D01*
X135286677Y-82748507D02*
X134636677Y-82748507D01*
X133916677Y-83868507D02*
X133916677Y-81628507D01*
X130396677Y-83868507D02*
X134636677Y-83868507D01*
X130396677Y-81628507D02*
X130396677Y-83868507D01*
X134636677Y-83868507D02*
X134636677Y-81628507D01*
X130396677Y-119587287D02*
X134636677Y-119587287D01*
X129746677Y-118467287D02*
X130396677Y-118467287D01*
X134036677Y-119587287D02*
X134036677Y-117347287D01*
X133796677Y-119587287D02*
X133796677Y-117347287D01*
X134636677Y-119587287D02*
X134636677Y-117347287D01*
X135286677Y-118467287D02*
X134636677Y-118467287D01*
X134636677Y-117347287D02*
X130396677Y-117347287D01*
X130396677Y-117347287D02*
X130396677Y-119587287D01*
X133916677Y-119587287D02*
X133916677Y-117347287D01*
X151734189Y-137070738D02*
X149494189Y-137070738D01*
X149494189Y-136230738D02*
X149494189Y-140470738D01*
X150614189Y-135580738D02*
X150614189Y-136230738D01*
X151734189Y-140470738D02*
X151734189Y-136230738D01*
X150614189Y-141120738D02*
X150614189Y-140470738D01*
X151734189Y-136950738D02*
X149494189Y-136950738D01*
X151734189Y-136830738D02*
X149494189Y-136830738D01*
X149494189Y-140470738D02*
X151734189Y-140470738D01*
X151734189Y-136230738D02*
X149494189Y-136230738D01*
X148757624Y-139331990D02*
X146517624Y-139331990D01*
X148757624Y-139451990D02*
X146517624Y-139451990D01*
X148757624Y-142851990D02*
X148757624Y-138611990D01*
X148757624Y-139211990D02*
X146517624Y-139211990D01*
X148757624Y-138611990D02*
X146517624Y-138611990D01*
X147637624Y-143501990D02*
X147637624Y-142851990D01*
X146517624Y-142851990D02*
X148757624Y-142851990D01*
X147637624Y-137961990D02*
X147637624Y-138611990D01*
X146517624Y-138611990D02*
X146517624Y-142851990D01*
X145781059Y-140470738D02*
X145781059Y-136230738D01*
X144661059Y-135580738D02*
X144661059Y-136230738D01*
X145781059Y-136830738D02*
X143541059Y-136830738D01*
X145781059Y-136950738D02*
X143541059Y-136950738D01*
X143541059Y-136230738D02*
X143541059Y-140470738D01*
X145781059Y-136230738D02*
X143541059Y-136230738D01*
X145781059Y-137070738D02*
X143541059Y-137070738D01*
X143541059Y-140470738D02*
X145781059Y-140470738D01*
X144661059Y-141120738D02*
X144661059Y-140470738D01*
X139827929Y-137070738D02*
X137587929Y-137070738D01*
X139827929Y-140470738D02*
X139827929Y-136230738D01*
X138707929Y-135580738D02*
X138707929Y-136230738D01*
X139827929Y-136830738D02*
X137587929Y-136830738D01*
X139827929Y-136950738D02*
X137587929Y-136950738D01*
X139827929Y-136230738D02*
X137587929Y-136230738D01*
X138707929Y-141120738D02*
X138707929Y-140470738D01*
X137587929Y-136230738D02*
X137587929Y-140470738D01*
X137587929Y-140470738D02*
X139827929Y-140470738D01*
X140060000Y-92731000D02*
X139250000Y-92731000D01*
X142251000Y-93051000D02*
X139549000Y-93051000D01*
X142042000Y-93211000D02*
X139758000Y-93211000D01*
X140060000Y-92371000D02*
X139030000Y-92371000D01*
X140060000Y-91490000D02*
X138820000Y-91490000D01*
X142925000Y-91930000D02*
X141740000Y-91930000D01*
X140060000Y-92251000D02*
X138976000Y-92251000D01*
X140060000Y-91810000D02*
X138850000Y-91810000D01*
X141437000Y-93491000D02*
X140363000Y-93491000D01*
X142942000Y-91850000D02*
X141740000Y-91850000D01*
X141980000Y-93251000D02*
X139820000Y-93251000D01*
X142452000Y-92851000D02*
X141740000Y-92851000D01*
X140060000Y-92931000D02*
X139422000Y-92931000D01*
X140060000Y-91850000D02*
X138858000Y-91850000D01*
X140060000Y-92771000D02*
X139281000Y-92771000D01*
X140060000Y-92010000D02*
X138895000Y-92010000D01*
X142519000Y-92771000D02*
X141740000Y-92771000D01*
X142840000Y-92211000D02*
X141740000Y-92211000D01*
X140060000Y-92090000D02*
X138918000Y-92090000D01*
X142608000Y-92651000D02*
X141740000Y-92651000D01*
X140060000Y-91690000D02*
X138833000Y-91690000D01*
X142378000Y-92931000D02*
X141740000Y-92931000D01*
X140060000Y-91770000D02*
X138844000Y-91770000D01*
X142967000Y-91690000D02*
X141740000Y-91690000D01*
X142580000Y-92691000D02*
X141740000Y-92691000D01*
X142095000Y-89180199D02*
X142095000Y-89580199D01*
X142980000Y-91450000D02*
X141740000Y-91450000D01*
X141270000Y-93531000D02*
X140530000Y-93531000D01*
X140060000Y-92211000D02*
X138960000Y-92211000D01*
X140060000Y-92851000D02*
X139348000Y-92851000D01*
X142854000Y-92171000D02*
X141740000Y-92171000D01*
X140060000Y-92451000D02*
X139070000Y-92451000D01*
X142980000Y-91490000D02*
X141740000Y-91490000D01*
X140060000Y-93011000D02*
X139504000Y-93011000D01*
X142338000Y-92971000D02*
X141740000Y-92971000D01*
X142974000Y-91610000D02*
X141740000Y-91610000D01*
X142962000Y-91730000D02*
X141740000Y-91730000D01*
X140060000Y-91610000D02*
X138826000Y-91610000D01*
X140060000Y-92571000D02*
X139140000Y-92571000D01*
X140060000Y-92891000D02*
X139384000Y-92891000D01*
X140060000Y-91450000D02*
X138820000Y-91450000D01*
X142730000Y-92451000D02*
X141740000Y-92451000D01*
X142550000Y-92731000D02*
X141740000Y-92731000D01*
X142660000Y-92571000D02*
X141740000Y-92571000D01*
X140060000Y-92651000D02*
X139192000Y-92651000D01*
X141759000Y-93371000D02*
X140041000Y-93371000D01*
X140060000Y-92971000D02*
X139462000Y-92971000D01*
X140060000Y-92291000D02*
X138993000Y-92291000D01*
X140060000Y-92331000D02*
X139011000Y-92331000D01*
X142296000Y-93011000D02*
X141740000Y-93011000D01*
X142416000Y-92891000D02*
X141740000Y-92891000D01*
X142685000Y-92531000D02*
X141740000Y-92531000D01*
X142770000Y-92371000D02*
X141740000Y-92371000D01*
X141840000Y-93331000D02*
X139960000Y-93331000D01*
X140060000Y-92691000D02*
X139220000Y-92691000D01*
X142905000Y-92010000D02*
X141740000Y-92010000D01*
X142295000Y-89380199D02*
X141895000Y-89380199D01*
X140060000Y-91730000D02*
X138838000Y-91730000D01*
X142916000Y-91970000D02*
X141740000Y-91970000D01*
X142868000Y-92130000D02*
X141740000Y-92130000D01*
X142979000Y-91530000D02*
X141740000Y-91530000D01*
X141564000Y-93451000D02*
X140236000Y-93451000D01*
X142894000Y-92050000D02*
X141740000Y-92050000D01*
X140060000Y-91650000D02*
X138829000Y-91650000D01*
X142154000Y-93131000D02*
X139646000Y-93131000D01*
X142751000Y-92411000D02*
X141740000Y-92411000D01*
X142950000Y-91810000D02*
X141740000Y-91810000D01*
X142100000Y-93171000D02*
X139700000Y-93171000D01*
X140060000Y-91570000D02*
X138823000Y-91570000D01*
X140060000Y-92411000D02*
X139049000Y-92411000D01*
X140060000Y-92130000D02*
X138932000Y-92130000D01*
X142977000Y-91570000D02*
X141740000Y-91570000D01*
X140060000Y-91930000D02*
X138875000Y-91930000D01*
X140060000Y-91970000D02*
X138884000Y-91970000D01*
X142789000Y-92331000D02*
X141740000Y-92331000D01*
X142956000Y-91770000D02*
X141740000Y-91770000D01*
X140060000Y-91890000D02*
X138866000Y-91890000D01*
X141668000Y-93411000D02*
X140132000Y-93411000D01*
X140060000Y-92491000D02*
X139092000Y-92491000D01*
X142824000Y-92251000D02*
X141740000Y-92251000D01*
X141913000Y-93291000D02*
X139887000Y-93291000D01*
X142708000Y-92491000D02*
X141740000Y-92491000D01*
X142882000Y-92090000D02*
X141740000Y-92090000D01*
X140060000Y-92531000D02*
X139115000Y-92531000D01*
X142934000Y-91890000D02*
X141740000Y-91890000D01*
X142204000Y-93091000D02*
X139596000Y-93091000D01*
X140060000Y-91530000D02*
X138821000Y-91530000D01*
X142635000Y-92611000D02*
X141740000Y-92611000D01*
X142487000Y-92811000D02*
X141740000Y-92811000D01*
X140060000Y-92050000D02*
X138906000Y-92050000D01*
X140060000Y-92171000D02*
X138946000Y-92171000D01*
X142971000Y-91650000D02*
X141740000Y-91650000D01*
X142807000Y-92291000D02*
X141740000Y-92291000D01*
X140060000Y-92811000D02*
X139313000Y-92811000D01*
X140060000Y-92611000D02*
X139165000Y-92611000D01*
X143020000Y-91450000D02*
G75*
G03*
X143020000Y-91450000I-2120000J0D01*
G01*
X134636677Y-77915377D02*
X134636677Y-75675377D01*
X134636677Y-75675377D02*
X130396677Y-75675377D01*
X130396677Y-75675377D02*
X130396677Y-77915377D01*
X129746677Y-76795377D02*
X130396677Y-76795377D01*
X135286677Y-76795377D02*
X134636677Y-76795377D01*
X130396677Y-77915377D02*
X134636677Y-77915377D01*
X134036677Y-77915377D02*
X134036677Y-75675377D01*
X133796677Y-77915377D02*
X133796677Y-75675377D01*
X133916677Y-77915377D02*
X133916677Y-75675377D01*
X149815746Y-81000000D02*
X149815746Y-79500000D01*
X144065746Y-83500000D02*
X148565746Y-83500000D01*
X142815746Y-79500000D02*
X142815746Y-81000000D01*
X148565746Y-77000000D02*
X144065746Y-77000000D01*
X164972327Y-140470738D02*
X167212327Y-140470738D01*
X167212327Y-140470738D02*
X167212327Y-136230738D01*
X167212327Y-137070738D02*
X164972327Y-137070738D01*
X167212327Y-136830738D02*
X164972327Y-136830738D01*
X166092327Y-135580738D02*
X166092327Y-136230738D01*
X167212327Y-136230738D02*
X164972327Y-136230738D01*
X164972327Y-136230738D02*
X164972327Y-140470738D01*
X167212327Y-136950738D02*
X164972327Y-136950738D01*
X166092327Y-141120738D02*
X166092327Y-140470738D01*
X148086372Y-64934491D02*
X148086372Y-64778491D01*
X148086372Y-62618491D02*
X148086372Y-62462491D01*
X147567333Y-62618491D02*
G75*
G03*
X145485242Y-62618654I-1040961J-1080000D01*
G01*
X144854037Y-64777099D02*
G75*
G03*
X148086372Y-64934007I1672335J1078608D01*
G01*
X148086372Y-62462975D02*
G75*
G03*
X144854037Y-62619883I-1560000J-1235516D01*
G01*
X145485242Y-64778328D02*
G75*
G03*
X147567333Y-64778491I1041130J1079837D01*
G01*
X135286677Y-130373547D02*
X134636677Y-130373547D01*
X134636677Y-131493547D02*
X134636677Y-129253547D01*
X134036677Y-131493547D02*
X134036677Y-129253547D01*
X130396677Y-129253547D02*
X130396677Y-131493547D01*
X129746677Y-130373547D02*
X130396677Y-130373547D01*
X133796677Y-131493547D02*
X133796677Y-129253547D01*
X130396677Y-131493547D02*
X134636677Y-131493547D01*
X133916677Y-131493547D02*
X133916677Y-129253547D01*
X134636677Y-129253547D02*
X130396677Y-129253547D01*
X129746677Y-124420417D02*
X130396677Y-124420417D01*
X135286677Y-124420417D02*
X134636677Y-124420417D01*
X130396677Y-123300417D02*
X130396677Y-125540417D01*
X133916677Y-125540417D02*
X133916677Y-123300417D01*
X134636677Y-125540417D02*
X134636677Y-123300417D01*
X133796677Y-125540417D02*
X133796677Y-123300417D01*
X134636677Y-123300417D02*
X130396677Y-123300417D01*
X134036677Y-125540417D02*
X134036677Y-123300417D01*
X130396677Y-125540417D02*
X134636677Y-125540417D01*
X127365425Y-115490722D02*
X128015425Y-115490722D01*
X131535425Y-116610722D02*
X131535425Y-114370722D01*
X128015425Y-114370722D02*
X128015425Y-116610722D01*
X131415425Y-116610722D02*
X131415425Y-114370722D01*
X131655425Y-116610722D02*
X131655425Y-114370722D01*
X132255425Y-114370722D02*
X128015425Y-114370722D01*
X132905425Y-115490722D02*
X132255425Y-115490722D01*
X128015425Y-116610722D02*
X132255425Y-116610722D01*
X132255425Y-116610722D02*
X132255425Y-114370722D01*
X134636677Y-111394157D02*
X130396677Y-111394157D01*
X130396677Y-111394157D02*
X130396677Y-113634157D01*
X134636677Y-113634157D02*
X134636677Y-111394157D01*
X134036677Y-113634157D02*
X134036677Y-111394157D01*
X135286677Y-112514157D02*
X134636677Y-112514157D01*
X129746677Y-112514157D02*
X130396677Y-112514157D01*
X133796677Y-113634157D02*
X133796677Y-111394157D01*
X133916677Y-113634157D02*
X133916677Y-111394157D01*
X130396677Y-113634157D02*
X134636677Y-113634157D01*
X132255425Y-108417592D02*
X128015425Y-108417592D01*
X128015425Y-110657592D02*
X132255425Y-110657592D01*
X127365425Y-109537592D02*
X128015425Y-109537592D01*
X131415425Y-110657592D02*
X131415425Y-108417592D01*
X132905425Y-109537592D02*
X132255425Y-109537592D01*
X131655425Y-110657592D02*
X131655425Y-108417592D01*
X132255425Y-110657592D02*
X132255425Y-108417592D01*
X128015425Y-108417592D02*
X128015425Y-110657592D01*
X131535425Y-110657592D02*
X131535425Y-108417592D01*
X127365425Y-121443852D02*
X128015425Y-121443852D01*
X131655425Y-122563852D02*
X131655425Y-120323852D01*
X128015425Y-122563852D02*
X132255425Y-122563852D01*
X132905425Y-121443852D02*
X132255425Y-121443852D01*
X131535425Y-122563852D02*
X131535425Y-120323852D01*
X132255425Y-120323852D02*
X128015425Y-120323852D01*
X132255425Y-122563852D02*
X132255425Y-120323852D01*
X131415425Y-122563852D02*
X131415425Y-120323852D01*
X128015425Y-120323852D02*
X128015425Y-122563852D01*
X128015425Y-96511332D02*
X128015425Y-98751332D01*
X131415425Y-98751332D02*
X131415425Y-96511332D01*
X131535425Y-98751332D02*
X131535425Y-96511332D01*
X132255425Y-96511332D02*
X128015425Y-96511332D01*
X127365425Y-97631332D02*
X128015425Y-97631332D01*
X132255425Y-98751332D02*
X132255425Y-96511332D01*
X128015425Y-98751332D02*
X132255425Y-98751332D01*
X132905425Y-97631332D02*
X132255425Y-97631332D01*
X131655425Y-98751332D02*
X131655425Y-96511332D01*
X133916677Y-95774767D02*
X133916677Y-93534767D01*
X134636677Y-95774767D02*
X134636677Y-93534767D01*
X135286677Y-94654767D02*
X134636677Y-94654767D01*
X130396677Y-95774767D02*
X134636677Y-95774767D01*
X130396677Y-93534767D02*
X130396677Y-95774767D01*
X134036677Y-95774767D02*
X134036677Y-93534767D01*
X134636677Y-93534767D02*
X130396677Y-93534767D01*
X133796677Y-95774767D02*
X133796677Y-93534767D01*
X129746677Y-94654767D02*
X130396677Y-94654767D01*
X128015425Y-102464462D02*
X128015425Y-104704462D01*
X128015425Y-104704462D02*
X132255425Y-104704462D01*
X132255425Y-102464462D02*
X128015425Y-102464462D01*
X127365425Y-103584462D02*
X128015425Y-103584462D01*
X131535425Y-104704462D02*
X131535425Y-102464462D01*
X131655425Y-104704462D02*
X131655425Y-102464462D01*
X132255425Y-104704462D02*
X132255425Y-102464462D01*
X131415425Y-104704462D02*
X131415425Y-102464462D01*
X132905425Y-103584462D02*
X132255425Y-103584462D01*
X128015425Y-92798202D02*
X132255425Y-92798202D01*
X127365425Y-91678202D02*
X128015425Y-91678202D01*
X128015425Y-90558202D02*
X128015425Y-92798202D01*
X131655425Y-92798202D02*
X131655425Y-90558202D01*
X132255425Y-92798202D02*
X132255425Y-90558202D01*
X131415425Y-92798202D02*
X131415425Y-90558202D01*
X132255425Y-90558202D02*
X128015425Y-90558202D01*
X132905425Y-91678202D02*
X132255425Y-91678202D01*
X131535425Y-92798202D02*
X131535425Y-90558202D01*
X129746677Y-88701637D02*
X130396677Y-88701637D01*
X134636677Y-89821637D02*
X134636677Y-87581637D01*
X130396677Y-89821637D02*
X134636677Y-89821637D01*
X133796677Y-89821637D02*
X133796677Y-87581637D01*
X130396677Y-87581637D02*
X130396677Y-89821637D01*
X134636677Y-87581637D02*
X130396677Y-87581637D01*
X135286677Y-88701637D02*
X134636677Y-88701637D01*
X134036677Y-89821637D02*
X134036677Y-87581637D01*
X133916677Y-89821637D02*
X133916677Y-87581637D01*
X132255425Y-84605072D02*
X128015425Y-84605072D01*
X131535425Y-86845072D02*
X131535425Y-84605072D01*
X128015425Y-86845072D02*
X132255425Y-86845072D01*
X131415425Y-86845072D02*
X131415425Y-84605072D01*
X131655425Y-86845072D02*
X131655425Y-84605072D01*
X132905425Y-85725072D02*
X132255425Y-85725072D01*
X127365425Y-85725072D02*
X128015425Y-85725072D01*
X132255425Y-86845072D02*
X132255425Y-84605072D01*
X128015425Y-84605072D02*
X128015425Y-86845072D01*
X174403579Y-77915377D02*
X174403579Y-75675377D01*
X170883579Y-75675377D02*
X170883579Y-77915377D01*
X171003579Y-75675377D02*
X171003579Y-77915377D01*
X174403579Y-75675377D02*
X170163579Y-75675377D01*
X170163579Y-75675377D02*
X170163579Y-77915377D01*
X170163579Y-77915377D02*
X174403579Y-77915377D01*
X169513579Y-76795377D02*
X170163579Y-76795377D01*
X175053579Y-76795377D02*
X174403579Y-76795377D01*
X170763579Y-75675377D02*
X170763579Y-77915377D01*
X131655425Y-74938812D02*
X131655425Y-72698812D01*
X132255425Y-72698812D02*
X128015425Y-72698812D01*
X132255425Y-74938812D02*
X132255425Y-72698812D01*
X131415425Y-74938812D02*
X131415425Y-72698812D01*
X127365425Y-73818812D02*
X128015425Y-73818812D01*
X131535425Y-74938812D02*
X131535425Y-72698812D01*
X128015425Y-72698812D02*
X128015425Y-74938812D01*
X132905425Y-73818812D02*
X132255425Y-73818812D01*
X128015425Y-74938812D02*
X132255425Y-74938812D01*
X171894831Y-73818812D02*
X172544831Y-73818812D01*
X177434831Y-73818812D02*
X176784831Y-73818812D01*
X172544831Y-74938812D02*
X176784831Y-74938812D01*
X176784831Y-72698812D02*
X172544831Y-72698812D01*
X173144831Y-72698812D02*
X173144831Y-74938812D01*
X173264831Y-72698812D02*
X173264831Y-74938812D01*
X173384831Y-72698812D02*
X173384831Y-74938812D01*
X172544831Y-72698812D02*
X172544831Y-74938812D01*
X176784831Y-74938812D02*
X176784831Y-72698812D01*
X132255425Y-68985682D02*
X132255425Y-66745682D01*
X132905425Y-67865682D02*
X132255425Y-67865682D01*
X131535425Y-68985682D02*
X131535425Y-66745682D01*
X132255425Y-66745682D02*
X128015425Y-66745682D01*
X131415425Y-68985682D02*
X131415425Y-66745682D01*
X131655425Y-68985682D02*
X131655425Y-66745682D01*
X127365425Y-67865682D02*
X128015425Y-67865682D01*
X128015425Y-66745682D02*
X128015425Y-68985682D01*
X128015425Y-68985682D02*
X132255425Y-68985682D01*
X164235762Y-139331990D02*
X161995762Y-139331990D01*
X163115762Y-143501990D02*
X163115762Y-142851990D01*
X164235762Y-139451990D02*
X161995762Y-139451990D01*
X161995762Y-142851990D02*
X164235762Y-142851990D01*
X164235762Y-138611990D02*
X161995762Y-138611990D01*
X163115762Y-137961990D02*
X163115762Y-138611990D01*
X164235762Y-142851990D02*
X164235762Y-138611990D01*
X164235762Y-139211990D02*
X161995762Y-139211990D01*
X161995762Y-138611990D02*
X161995762Y-142851990D01*
X148565746Y-68056000D02*
X144065746Y-68056000D01*
X142815746Y-70556000D02*
X142815746Y-72056000D01*
X149815746Y-72056000D02*
X149815746Y-70556000D01*
X144065746Y-74556000D02*
X148565746Y-74556000D01*
X165995000Y-89170000D02*
X166010000Y-89170000D01*
X163870000Y-89170000D02*
X163870000Y-84630000D01*
X165995000Y-84630000D02*
X166010000Y-84630000D01*
X163870000Y-84630000D02*
X163885000Y-84630000D01*
X166010000Y-89170000D02*
X166010000Y-84630000D01*
X163870000Y-89170000D02*
X163885000Y-89170000D01*
X136851364Y-139451990D02*
X134611364Y-139451990D01*
X134611364Y-142851990D02*
X136851364Y-142851990D01*
X135731364Y-137961990D02*
X135731364Y-138611990D01*
X134611364Y-138611990D02*
X134611364Y-142851990D01*
X136851364Y-138611990D02*
X134611364Y-138611990D01*
X136851364Y-139331990D02*
X134611364Y-139331990D01*
X136851364Y-142851990D02*
X136851364Y-138611990D01*
X136851364Y-139211990D02*
X134611364Y-139211990D01*
X135731364Y-143501990D02*
X135731364Y-142851990D01*
X172544831Y-116610722D02*
X176784831Y-116610722D01*
X172544831Y-114370722D02*
X172544831Y-116610722D01*
X171894831Y-115490722D02*
X172544831Y-115490722D01*
X173384831Y-114370722D02*
X173384831Y-116610722D01*
X173144831Y-114370722D02*
X173144831Y-116610722D01*
X176784831Y-114370722D02*
X172544831Y-114370722D01*
X177434831Y-115490722D02*
X176784831Y-115490722D01*
X173264831Y-114370722D02*
X173264831Y-116610722D01*
X176784831Y-116610722D02*
X176784831Y-114370722D01*
X167948892Y-138611990D02*
X167948892Y-142851990D01*
X170188892Y-139331990D02*
X167948892Y-139331990D01*
X170188892Y-139451990D02*
X167948892Y-139451990D01*
X169068892Y-143501990D02*
X169068892Y-142851990D01*
X170188892Y-139211990D02*
X167948892Y-139211990D01*
X170188892Y-138611990D02*
X167948892Y-138611990D01*
X169068892Y-137961990D02*
X169068892Y-138611990D01*
X167948892Y-142851990D02*
X170188892Y-142851990D01*
X170188892Y-142851990D02*
X170188892Y-138611990D01*
X172544831Y-78651942D02*
X172544831Y-80891942D01*
X176784831Y-78651942D02*
X172544831Y-78651942D01*
X176784831Y-80891942D02*
X176784831Y-78651942D01*
X173264831Y-78651942D02*
X173264831Y-80891942D01*
X173384831Y-78651942D02*
X173384831Y-80891942D01*
X173144831Y-78651942D02*
X173144831Y-80891942D01*
X172544831Y-80891942D02*
X176784831Y-80891942D01*
X171894831Y-79771942D02*
X172544831Y-79771942D01*
X177434831Y-79771942D02*
X176784831Y-79771942D01*
X174403579Y-63769117D02*
X170163579Y-63769117D01*
X170163579Y-66009117D02*
X174403579Y-66009117D01*
X174403579Y-66009117D02*
X174403579Y-63769117D01*
X170163579Y-63769117D02*
X170163579Y-66009117D01*
X169513579Y-64889117D02*
X170163579Y-64889117D01*
X171003579Y-63769117D02*
X171003579Y-66009117D01*
X175053579Y-64889117D02*
X174403579Y-64889117D01*
X170883579Y-63769117D02*
X170883579Y-66009117D01*
X170763579Y-63769117D02*
X170763579Y-66009117D01*
X176784831Y-66745682D02*
X172544831Y-66745682D01*
X173264831Y-66745682D02*
X173264831Y-68985682D01*
X176784831Y-68985682D02*
X176784831Y-66745682D01*
X173384831Y-66745682D02*
X173384831Y-68985682D01*
X171894831Y-67865682D02*
X172544831Y-67865682D01*
X173144831Y-66745682D02*
X173144831Y-68985682D01*
X172544831Y-66745682D02*
X172544831Y-68985682D01*
X172544831Y-68985682D02*
X176784831Y-68985682D01*
X177434831Y-67865682D02*
X176784831Y-67865682D01*
X174403579Y-83868507D02*
X174403579Y-81628507D01*
X170883579Y-81628507D02*
X170883579Y-83868507D01*
X175053579Y-82748507D02*
X174403579Y-82748507D01*
X169513579Y-82748507D02*
X170163579Y-82748507D01*
X170163579Y-81628507D02*
X170163579Y-83868507D01*
X170763579Y-81628507D02*
X170763579Y-83868507D01*
X170163579Y-83868507D02*
X174403579Y-83868507D01*
X171003579Y-81628507D02*
X171003579Y-83868507D01*
X174403579Y-81628507D02*
X170163579Y-81628507D01*
X172544831Y-96511332D02*
X172544831Y-98751332D01*
X171894831Y-97631332D02*
X172544831Y-97631332D01*
X176784831Y-98751332D02*
X176784831Y-96511332D01*
X177434831Y-97631332D02*
X176784831Y-97631332D01*
X173264831Y-96511332D02*
X173264831Y-98751332D01*
X172544831Y-98751332D02*
X176784831Y-98751332D01*
X173384831Y-96511332D02*
X173384831Y-98751332D01*
X173144831Y-96511332D02*
X173144831Y-98751332D01*
X176784831Y-96511332D02*
X172544831Y-96511332D01*
X176784831Y-92798202D02*
X176784831Y-90558202D01*
X173384831Y-90558202D02*
X173384831Y-92798202D01*
X177434831Y-91678202D02*
X176784831Y-91678202D01*
X172544831Y-90558202D02*
X172544831Y-92798202D01*
X173264831Y-90558202D02*
X173264831Y-92798202D01*
X172544831Y-92798202D02*
X176784831Y-92798202D01*
X176784831Y-90558202D02*
X172544831Y-90558202D01*
X173144831Y-90558202D02*
X173144831Y-92798202D01*
X171894831Y-91678202D02*
X172544831Y-91678202D01*
X170163579Y-93534767D02*
X170163579Y-95774767D01*
X170883579Y-93534767D02*
X170883579Y-95774767D01*
X169513579Y-94654767D02*
X170163579Y-94654767D01*
X171003579Y-93534767D02*
X171003579Y-95774767D01*
X174403579Y-93534767D02*
X170163579Y-93534767D01*
X170163579Y-95774767D02*
X174403579Y-95774767D01*
X175053579Y-94654767D02*
X174403579Y-94654767D01*
X170763579Y-93534767D02*
X170763579Y-95774767D01*
X174403579Y-95774767D02*
X174403579Y-93534767D01*
X170883579Y-105441027D02*
X170883579Y-107681027D01*
X174403579Y-105441027D02*
X170163579Y-105441027D01*
X169513579Y-106561027D02*
X170163579Y-106561027D01*
X171003579Y-105441027D02*
X171003579Y-107681027D01*
X175053579Y-106561027D02*
X174403579Y-106561027D01*
X170163579Y-105441027D02*
X170163579Y-107681027D01*
X170163579Y-107681027D02*
X174403579Y-107681027D01*
X174403579Y-107681027D02*
X174403579Y-105441027D01*
X170763579Y-105441027D02*
X170763579Y-107681027D01*
X173384831Y-102464462D02*
X173384831Y-104704462D01*
X177434831Y-103584462D02*
X176784831Y-103584462D01*
X171894831Y-103584462D02*
X172544831Y-103584462D01*
X172544831Y-104704462D02*
X176784831Y-104704462D01*
X173264831Y-102464462D02*
X173264831Y-104704462D01*
X172544831Y-102464462D02*
X172544831Y-104704462D01*
X176784831Y-102464462D02*
X172544831Y-102464462D01*
X176784831Y-104704462D02*
X176784831Y-102464462D01*
X173144831Y-102464462D02*
X173144831Y-104704462D01*
X174403579Y-99487897D02*
X170163579Y-99487897D01*
X170763579Y-99487897D02*
X170763579Y-101727897D01*
X175053579Y-100607897D02*
X174403579Y-100607897D01*
X170163579Y-101727897D02*
X174403579Y-101727897D01*
X174403579Y-101727897D02*
X174403579Y-99487897D01*
X169513579Y-100607897D02*
X170163579Y-100607897D01*
X171003579Y-99487897D02*
X171003579Y-101727897D01*
X170163579Y-99487897D02*
X170163579Y-101727897D01*
X170883579Y-99487897D02*
X170883579Y-101727897D01*
X171894831Y-85725072D02*
X172544831Y-85725072D01*
X177434831Y-85725072D02*
X176784831Y-85725072D01*
X173264831Y-84605072D02*
X173264831Y-86845072D01*
X172544831Y-84605072D02*
X172544831Y-86845072D01*
X173144831Y-84605072D02*
X173144831Y-86845072D01*
X173384831Y-84605072D02*
X173384831Y-86845072D01*
X176784831Y-84605072D02*
X172544831Y-84605072D01*
X176784831Y-86845072D02*
X176784831Y-84605072D01*
X172544831Y-86845072D02*
X176784831Y-86845072D01*
X170163579Y-113634157D02*
X174403579Y-113634157D01*
X171003579Y-111394157D02*
X171003579Y-113634157D01*
X174403579Y-111394157D02*
X170163579Y-111394157D01*
X169513579Y-112514157D02*
X170163579Y-112514157D01*
X170163579Y-111394157D02*
X170163579Y-113634157D01*
X170883579Y-111394157D02*
X170883579Y-113634157D01*
X170763579Y-111394157D02*
X170763579Y-113634157D01*
X175053579Y-112514157D02*
X174403579Y-112514157D01*
X174403579Y-113634157D02*
X174403579Y-111394157D01*
X172544831Y-110657592D02*
X176784831Y-110657592D01*
X176784831Y-110657592D02*
X176784831Y-108417592D01*
X173144831Y-108417592D02*
X173144831Y-110657592D01*
X171894831Y-109537592D02*
X172544831Y-109537592D01*
X173384831Y-108417592D02*
X173384831Y-110657592D01*
X173264831Y-108417592D02*
X173264831Y-110657592D01*
X176784831Y-108417592D02*
X172544831Y-108417592D01*
X172544831Y-108417592D02*
X172544831Y-110657592D01*
X177434831Y-109537592D02*
X176784831Y-109537592D01*
X174403579Y-117347287D02*
X170163579Y-117347287D01*
X170883579Y-117347287D02*
X170883579Y-119587287D01*
X171003579Y-117347287D02*
X171003579Y-119587287D01*
X170163579Y-119587287D02*
X174403579Y-119587287D01*
X175053579Y-118467287D02*
X174403579Y-118467287D01*
X170163579Y-117347287D02*
X170163579Y-119587287D01*
X170763579Y-117347287D02*
X170763579Y-119587287D01*
X174403579Y-119587287D02*
X174403579Y-117347287D01*
X169513579Y-118467287D02*
X170163579Y-118467287D01*
X175053579Y-88701637D02*
X174403579Y-88701637D01*
X170763579Y-87581637D02*
X170763579Y-89821637D01*
X171003579Y-87581637D02*
X171003579Y-89821637D01*
X170163579Y-87581637D02*
X170163579Y-89821637D01*
X174403579Y-87581637D02*
X170163579Y-87581637D01*
X169513579Y-88701637D02*
X170163579Y-88701637D01*
X170883579Y-87581637D02*
X170883579Y-89821637D01*
X174403579Y-89821637D02*
X174403579Y-87581637D01*
X170163579Y-89821637D02*
X174403579Y-89821637D01*
X175053579Y-70842247D02*
X174403579Y-70842247D01*
X170883579Y-69722247D02*
X170883579Y-71962247D01*
X170163579Y-69722247D02*
X170163579Y-71962247D01*
X170163579Y-71962247D02*
X174403579Y-71962247D01*
X174403579Y-69722247D02*
X170163579Y-69722247D01*
X171003579Y-69722247D02*
X171003579Y-71962247D01*
X170763579Y-69722247D02*
X170763579Y-71962247D01*
X169513579Y-70842247D02*
X170163579Y-70842247D01*
X174403579Y-71962247D02*
X174403579Y-69722247D01*
X177434831Y-133350112D02*
X176784831Y-133350112D01*
X172544831Y-134470112D02*
X176784831Y-134470112D01*
X176784831Y-132230112D02*
X172544831Y-132230112D01*
X173144831Y-132230112D02*
X173144831Y-134470112D01*
X171894831Y-133350112D02*
X172544831Y-133350112D01*
X173384831Y-132230112D02*
X173384831Y-134470112D01*
X173264831Y-132230112D02*
X173264831Y-134470112D01*
X176784831Y-134470112D02*
X176784831Y-132230112D01*
X172544831Y-132230112D02*
X172544831Y-134470112D01*
X169513579Y-124420417D02*
X170163579Y-124420417D01*
X170763579Y-123300417D02*
X170763579Y-125540417D01*
X175053579Y-124420417D02*
X174403579Y-124420417D01*
X170883579Y-123300417D02*
X170883579Y-125540417D01*
X170163579Y-123300417D02*
X170163579Y-125540417D01*
X170163579Y-125540417D02*
X174403579Y-125540417D01*
X174403579Y-123300417D02*
X170163579Y-123300417D01*
X171003579Y-123300417D02*
X171003579Y-125540417D01*
X174403579Y-125540417D02*
X174403579Y-123300417D01*
X154186067Y-135580738D02*
X154186067Y-136230738D01*
X154186067Y-141120738D02*
X154186067Y-140470738D01*
X153066067Y-140470738D02*
X155306067Y-140470738D01*
X155306067Y-140470738D02*
X155306067Y-136230738D01*
X153066067Y-136230738D02*
X153066067Y-140470738D01*
X155306067Y-136950738D02*
X153066067Y-136950738D01*
X155306067Y-136230738D02*
X153066067Y-136230738D01*
X155306067Y-136830738D02*
X153066067Y-136830738D01*
X155306067Y-137070738D02*
X153066067Y-137070738D01*
X176784831Y-120323852D02*
X172544831Y-120323852D01*
X176784831Y-122563852D02*
X176784831Y-120323852D01*
X172544831Y-120323852D02*
X172544831Y-122563852D01*
X171894831Y-121443852D02*
X172544831Y-121443852D01*
X173384831Y-120323852D02*
X173384831Y-122563852D01*
X172544831Y-122563852D02*
X176784831Y-122563852D01*
X173144831Y-120323852D02*
X173144831Y-122563852D01*
X173264831Y-120323852D02*
X173264831Y-122563852D01*
X177434831Y-121443852D02*
X176784831Y-121443852D01*
X172544831Y-128516982D02*
X176784831Y-128516982D01*
X173384831Y-126276982D02*
X173384831Y-128516982D01*
X173144831Y-126276982D02*
X173144831Y-128516982D01*
X172544831Y-126276982D02*
X172544831Y-128516982D01*
X176784831Y-128516982D02*
X176784831Y-126276982D01*
X176784831Y-126276982D02*
X172544831Y-126276982D01*
X173264831Y-126276982D02*
X173264831Y-128516982D01*
X171894831Y-127396982D02*
X172544831Y-127396982D01*
X177434831Y-127396982D02*
X176784831Y-127396982D01*
X171003579Y-129253547D02*
X171003579Y-131493547D01*
X170763579Y-129253547D02*
X170763579Y-131493547D01*
X170883579Y-129253547D02*
X170883579Y-131493547D01*
X174403579Y-129253547D02*
X170163579Y-129253547D01*
X170163579Y-129253547D02*
X170163579Y-131493547D01*
X174403579Y-131493547D02*
X174403579Y-129253547D01*
X170163579Y-131493547D02*
X174403579Y-131493547D01*
X169513579Y-130373547D02*
X170163579Y-130373547D01*
X175053579Y-130373547D02*
X174403579Y-130373547D01*
X156042632Y-142851990D02*
X158282632Y-142851990D01*
X156042632Y-138611990D02*
X156042632Y-142851990D01*
X157162632Y-143501990D02*
X157162632Y-142851990D01*
X158282632Y-138611990D02*
X156042632Y-138611990D01*
X158282632Y-142851990D02*
X158282632Y-138611990D01*
X158282632Y-139211990D02*
X156042632Y-139211990D01*
X158282632Y-139451990D02*
X156042632Y-139451990D01*
X157162632Y-137961990D02*
X157162632Y-138611990D01*
X158282632Y-139331990D02*
X156042632Y-139331990D01*
X151230000Y-78030000D02*
X151245000Y-78030000D01*
X153355000Y-82570000D02*
X153370000Y-82570000D01*
X151230000Y-82570000D02*
X151230000Y-78030000D01*
X153370000Y-82570000D02*
X153370000Y-78030000D01*
X151230000Y-82570000D02*
X151245000Y-82570000D01*
X153355000Y-78030000D02*
X153370000Y-78030000D01*
X161259197Y-136230738D02*
X159019197Y-136230738D01*
X161259197Y-137070738D02*
X159019197Y-137070738D01*
X161259197Y-136950738D02*
X159019197Y-136950738D01*
X160139197Y-141120738D02*
X160139197Y-140470738D01*
X159019197Y-136230738D02*
X159019197Y-140470738D01*
X161259197Y-140470738D02*
X161259197Y-136230738D01*
X159019197Y-140470738D02*
X161259197Y-140470738D01*
X161259197Y-136830738D02*
X159019197Y-136830738D01*
X160139197Y-135580738D02*
X160139197Y-136230738D01*
X128015425Y-132230112D02*
X128015425Y-134470112D01*
X128015425Y-134470112D02*
X132255425Y-134470112D01*
X131535425Y-134470112D02*
X131535425Y-132230112D01*
X132905425Y-133350112D02*
X132255425Y-133350112D01*
X132255425Y-132230112D02*
X128015425Y-132230112D01*
X131655425Y-134470112D02*
X131655425Y-132230112D01*
X127365425Y-133350112D02*
X128015425Y-133350112D01*
X132255425Y-134470112D02*
X132255425Y-132230112D01*
X131415425Y-134470112D02*
X131415425Y-132230112D01*
X130396677Y-105441027D02*
X130396677Y-107681027D01*
X133796677Y-107681027D02*
X133796677Y-105441027D01*
X135286677Y-106561027D02*
X134636677Y-106561027D01*
X134036677Y-107681027D02*
X134036677Y-105441027D01*
X129746677Y-106561027D02*
X130396677Y-106561027D01*
X134636677Y-107681027D02*
X134636677Y-105441027D01*
X134636677Y-105441027D02*
X130396677Y-105441027D01*
X130396677Y-107681027D02*
X134636677Y-107681027D01*
X133916677Y-107681027D02*
X133916677Y-105441027D01*
X131415425Y-101727897D02*
X131415425Y-99487897D01*
X127365425Y-100607897D02*
X128015425Y-100607897D01*
X132255425Y-99487897D02*
X128015425Y-99487897D01*
X132255425Y-101727897D02*
X132255425Y-99487897D01*
X128015425Y-99487897D02*
X128015425Y-101727897D01*
X132905425Y-100607897D02*
X132255425Y-100607897D01*
X131655425Y-101727897D02*
X131655425Y-99487897D01*
X128015425Y-101727897D02*
X132255425Y-101727897D01*
X131535425Y-101727897D02*
X131535425Y-99487897D01*
X131535425Y-80891942D02*
X131535425Y-78651942D01*
X127365425Y-79771942D02*
X128015425Y-79771942D01*
X131415425Y-80891942D02*
X131415425Y-78651942D01*
X132255425Y-80891942D02*
X132255425Y-78651942D01*
X131655425Y-80891942D02*
X131655425Y-78651942D01*
X128015425Y-80891942D02*
X132255425Y-80891942D01*
X128015425Y-78651942D02*
X128015425Y-80891942D01*
X132905425Y-79771942D02*
X132255425Y-79771942D01*
X132255425Y-78651942D02*
X128015425Y-78651942D01*
X138780000Y-73880000D02*
X138780000Y-77720000D01*
X140620000Y-73880000D02*
X138780000Y-73880000D01*
X138780000Y-77720000D02*
X140620000Y-77720000D01*
X140620000Y-77720000D02*
X140620000Y-73880000D01*
X139700000Y-78670000D02*
X139700000Y-77720000D01*
X139700000Y-72930000D02*
X139700000Y-73880000D01*
X148825000Y-88490000D02*
X148825000Y-94890000D01*
X143775000Y-88490000D02*
X143775000Y-94890000D01*
X148825000Y-88490000D02*
G75*
G03*
X143775000Y-88490000I-2525000J0D01*
G01*
X143775000Y-94890000D02*
G75*
G03*
X148825000Y-94890000I2525000J0D01*
G01*
X132255425Y-128516982D02*
X132255425Y-126276982D01*
X128015425Y-128516982D02*
X132255425Y-128516982D01*
X131415425Y-128516982D02*
X131415425Y-126276982D01*
X127365425Y-127396982D02*
X128015425Y-127396982D01*
X132905425Y-127396982D02*
X132255425Y-127396982D01*
X131655425Y-128516982D02*
X131655425Y-126276982D01*
X132255425Y-126276982D02*
X128015425Y-126276982D01*
X128015425Y-126276982D02*
X128015425Y-128516982D01*
X131535425Y-128516982D02*
X131535425Y-126276982D01*
X155721380Y-110500000D02*
X156671380Y-110500000D01*
X160511380Y-111420000D02*
X160511380Y-109580000D01*
X156671380Y-111420000D02*
X160511380Y-111420000D01*
X156671380Y-109580000D02*
X156671380Y-111420000D01*
X161461380Y-110500000D02*
X160511380Y-110500000D01*
X160511380Y-109580000D02*
X156671380Y-109580000D01*
X144288876Y-57420674D02*
X144288876Y-59260674D01*
X149078876Y-58340674D02*
X148128876Y-58340674D01*
X148128876Y-57420674D02*
X144288876Y-57420674D01*
X148128876Y-59260674D02*
X148128876Y-57420674D01*
X144288876Y-59260674D02*
X148128876Y-59260674D01*
X143338876Y-58340674D02*
X144288876Y-58340674D01*
X161461380Y-58340674D02*
X160511380Y-58340674D01*
X156671380Y-59260674D02*
X160511380Y-59260674D01*
X160511380Y-57420674D02*
X156671380Y-57420674D01*
X156671380Y-57420674D02*
X156671380Y-59260674D01*
X155721380Y-58340674D02*
X156671380Y-58340674D01*
X160511380Y-59260674D02*
X160511380Y-57420674D01*
X156671380Y-108920000D02*
X160511380Y-108920000D01*
X155721380Y-108000000D02*
X156671380Y-108000000D01*
X161461380Y-108000000D02*
X160511380Y-108000000D01*
X160511380Y-107080000D02*
X156671380Y-107080000D01*
X156671380Y-107080000D02*
X156671380Y-108920000D01*
X160511380Y-108920000D02*
X160511380Y-107080000D01*
X155234000Y-130969000D02*
X155884000Y-130969000D01*
X160124000Y-132089000D02*
X160124000Y-129849000D01*
X155884000Y-129849000D02*
X155884000Y-132089000D01*
X160774000Y-130969000D02*
X160124000Y-130969000D01*
X155884000Y-132089000D02*
X160124000Y-132089000D01*
X156484000Y-129849000D02*
X156484000Y-132089000D01*
X160124000Y-129849000D02*
X155884000Y-129849000D01*
X156724000Y-129849000D02*
X156724000Y-132089000D01*
X156604000Y-129849000D02*
X156604000Y-132089000D01*
X144684000Y-132089000D02*
X148924000Y-132089000D01*
X148324000Y-132089000D02*
X148324000Y-129849000D01*
X148924000Y-132089000D02*
X148924000Y-129849000D01*
X148204000Y-132089000D02*
X148204000Y-129849000D01*
X144684000Y-129849000D02*
X144684000Y-132089000D01*
X148924000Y-129849000D02*
X144684000Y-129849000D01*
X144034000Y-130969000D02*
X144684000Y-130969000D01*
X148084000Y-132089000D02*
X148084000Y-129849000D01*
X149574000Y-130969000D02*
X148924000Y-130969000D01*
X17368138Y-74738812D02*
X21208138Y-74738812D01*
X21208138Y-74738812D02*
X21208138Y-72898812D01*
X21208138Y-72898812D02*
X17368138Y-72898812D01*
X16418138Y-73818812D02*
X17368138Y-73818812D01*
X17368138Y-72898812D02*
X17368138Y-74738812D01*
X22158138Y-73818812D02*
X21208138Y-73818812D01*
X40731910Y-73818812D02*
X39781910Y-73818812D01*
X39781910Y-72898812D02*
X35941910Y-72898812D01*
X35941910Y-74738812D02*
X39781910Y-74738812D01*
X34991910Y-73818812D02*
X35941910Y-73818812D01*
X35941910Y-72898812D02*
X35941910Y-74738812D01*
X39781910Y-74738812D02*
X39781910Y-72898812D01*
X160511380Y-104580000D02*
X156671380Y-104580000D01*
X160511380Y-106420000D02*
X160511380Y-104580000D01*
X156671380Y-104580000D02*
X156671380Y-106420000D01*
X155721380Y-105500000D02*
X156671380Y-105500000D01*
X161461380Y-105500000D02*
X160511380Y-105500000D01*
X156671380Y-106420000D02*
X160511380Y-106420000D01*
X134036677Y-66009117D02*
X134036677Y-63769117D01*
X130396677Y-66009117D02*
X134636677Y-66009117D01*
X133796677Y-66009117D02*
X133796677Y-63769117D01*
X134636677Y-63769117D02*
X130396677Y-63769117D01*
X129746677Y-64889117D02*
X130396677Y-64889117D01*
X133916677Y-66009117D02*
X133916677Y-63769117D01*
X134636677Y-66009117D02*
X134636677Y-63769117D01*
X130396677Y-63769117D02*
X130396677Y-66009117D01*
X135286677Y-64889117D02*
X134636677Y-64889117D01*
X133796677Y-71962247D02*
X133796677Y-69722247D01*
X130396677Y-71962247D02*
X134636677Y-71962247D01*
X129746677Y-70842247D02*
X130396677Y-70842247D01*
X135286677Y-70842247D02*
X134636677Y-70842247D01*
X134636677Y-69722247D02*
X130396677Y-69722247D01*
X130396677Y-69722247D02*
X130396677Y-71962247D01*
X133916677Y-71962247D02*
X133916677Y-69722247D01*
X134636677Y-71962247D02*
X134636677Y-69722247D01*
X134036677Y-71962247D02*
X134036677Y-69722247D01*
X142804494Y-139211990D02*
X140564494Y-139211990D01*
X141684494Y-137961990D02*
X141684494Y-138611990D01*
X140564494Y-142851990D02*
X142804494Y-142851990D01*
X142804494Y-139331990D02*
X140564494Y-139331990D01*
X141684494Y-143501990D02*
X141684494Y-142851990D01*
X140564494Y-138611990D02*
X140564494Y-142851990D01*
X142804494Y-139451990D02*
X140564494Y-139451990D01*
X142804494Y-138611990D02*
X140564494Y-138611990D01*
X142804494Y-142851990D02*
X142804494Y-138611990D01*
X154400096Y-127343852D02*
X158500096Y-127343852D01*
X150400096Y-127343852D02*
X146300096Y-127343852D01*
X159900096Y-125243852D02*
X160200096Y-125543852D01*
X160200096Y-125543852D02*
X159600096Y-125543852D01*
X146300096Y-117943852D02*
X146300096Y-115543852D01*
X152900096Y-121443852D02*
X151900096Y-121443852D01*
X154400096Y-115543852D02*
X158500096Y-115543852D01*
X146300096Y-122743852D02*
X146300096Y-120143852D01*
X159600096Y-125543852D02*
X159900096Y-125243852D01*
X158500096Y-127343852D02*
X158500096Y-115543852D01*
X152400096Y-121943852D02*
X152400096Y-120943852D01*
X146300096Y-127343852D02*
X146300096Y-124943852D01*
X146300096Y-115543852D02*
X150400096Y-115543852D01*
X155400096Y-121443852D02*
G75*
G03*
X155400096Y-121443852I-3000000J0D01*
G01*
X67056000Y-78334008D02*
G75*
G03*
X67056000Y-78334008I-381000J0D01*
G01*
M02*
