%FSLAX45Y45*%
G04 Gerber Fmt 4.5, Leading zero omitted, Abs format (unit mm)*
G04 Created by KiCad (PCBNEW 6.0.1-79c1e3a40b~116~ubuntu21.10.1) date 2022-01-31 22:58:53*
%MOMM*%
%LPD*%
G01*
G04 APERTURE LIST*
%TA.AperFunction,Profile*%
%ADD10C,0.200000*%
%TD*%
%ADD11C,0.200000*%
%ADD12C,0.170180*%
%ADD13C,0.220000*%
%ADD14C,0.304800*%
%ADD15C,0.398780*%
G04 APERTURE END LIST*
D10*
X23876439Y-14949375D02*
X6603561Y-14949375D01*
X29475000Y-14724375D02*
X29475000Y-5754375D01*
X27210189Y-5529375D02*
X26129811Y-5529375D01*
X29250000Y-14949375D02*
X24701061Y-14949375D01*
X16389443Y-5610020D02*
G75*
G03*
X16256439Y-5529375I-133003J-69355D01*
G01*
X16256439Y-5529375D02*
X14223561Y-5529375D01*
X13531943Y-5610020D02*
G75*
G03*
X13398939Y-5529375I-133003J-69355D01*
G01*
X5778939Y-14949375D02*
X1230000Y-14949375D01*
X13531943Y-5610020D02*
G75*
G03*
X14090557Y-5610020I279307J145645D01*
G01*
X1230000Y-5529375D02*
G75*
G03*
X1005000Y-5754375I0J-225000D01*
G01*
X13398939Y-5529375D02*
X5174811Y-5529375D01*
X14223561Y-5529375D02*
G75*
G03*
X14090557Y-5610020I0J-150000D01*
G01*
X25305189Y-5529375D02*
X17081061Y-5529375D01*
X16389443Y-5610020D02*
G75*
G03*
X16948057Y-5610020I279307J145645D01*
G01*
X25438193Y-5610020D02*
G75*
G03*
X25996807Y-5610020I279307J145645D01*
G01*
X25438193Y-5610020D02*
G75*
G03*
X25305189Y-5529375I-133003J-69355D01*
G01*
X17081061Y-5529375D02*
G75*
G03*
X16948057Y-5610020I0J-150000D01*
G01*
X1005000Y-14724375D02*
X1005000Y-5754375D01*
X29475000Y-5754375D02*
G75*
G03*
X29250000Y-5529375I-225000J0D01*
G01*
X6470557Y-14868730D02*
G75*
G03*
X6603561Y-14949375I133004J69355D01*
G01*
X23876439Y-14949375D02*
G75*
G03*
X24009443Y-14868730I0J150000D01*
G01*
X24568057Y-14868730D02*
G75*
G03*
X24701061Y-14949375I133004J69355D01*
G01*
X24568057Y-14868730D02*
G75*
G03*
X24009443Y-14868730I-279307J-145645D01*
G01*
X29250000Y-14949375D02*
G75*
G03*
X29475000Y-14724375I0J225000D01*
G01*
X26129811Y-5529375D02*
G75*
G03*
X25996807Y-5610020I0J-150000D01*
G01*
X5778939Y-14949375D02*
G75*
G03*
X5911943Y-14868730I0J150000D01*
G01*
X6470557Y-14868730D02*
G75*
G03*
X5911943Y-14868730I-279307J-145645D01*
G01*
X1005000Y-14724375D02*
G75*
G03*
X1230000Y-14949375I225000J0D01*
G01*
X5174811Y-5529375D02*
G75*
G03*
X5041807Y-5610020I0J-150000D01*
G01*
X4483193Y-5610020D02*
G75*
G03*
X5041807Y-5610020I279307J145645D01*
G01*
X4483193Y-5610020D02*
G75*
G03*
X4350189Y-5529375I-133003J-69355D01*
G01*
X29250000Y-5529375D02*
X28034810Y-5529375D01*
X28034810Y-5529375D02*
G75*
G03*
X27901807Y-5610020I0J-150000D01*
G01*
X27343193Y-5610020D02*
G75*
G03*
X27210189Y-5529375I-133003J-69355D01*
G01*
X27343193Y-5610020D02*
G75*
G03*
X27901807Y-5610020I279307J145645D01*
G01*
X3269811Y-5529375D02*
G75*
G03*
X3136807Y-5610020I0J-150000D01*
G01*
X2578193Y-5610020D02*
G75*
G03*
X2445190Y-5529375I-133004J-69355D01*
G01*
X3269811Y-5529375D02*
X4350189Y-5529375D01*
X1230000Y-5529375D02*
X2445190Y-5529375D01*
X2578193Y-5610020D02*
G75*
G03*
X3136807Y-5610020I279307J145645D01*
G01*
D11*
D12*
X1311907Y-6344285D02*
X1482087Y-6514465D01*
X1482087Y-6344285D02*
X1311907Y-6514465D01*
X1311912Y-8249292D02*
X1482092Y-8419472D01*
X1482092Y-8249292D02*
X1311912Y-8419472D01*
X1311912Y-10154294D02*
X1482092Y-10324474D01*
X1482092Y-10154294D02*
X1311912Y-10324474D01*
X1311912Y-12059295D02*
X1482092Y-12229475D01*
X1482092Y-12059295D02*
X1311912Y-12229475D01*
X1311912Y-13964297D02*
X1482092Y-14134477D01*
X1482092Y-13964297D02*
X1311912Y-14134477D01*
X2327907Y-6344285D02*
X2498087Y-6514465D01*
X2498087Y-6344285D02*
X2327907Y-6514465D01*
X2327912Y-8249292D02*
X2498092Y-8419472D01*
X2498092Y-8249292D02*
X2327912Y-8419472D01*
X2327912Y-10154294D02*
X2498092Y-10324474D01*
X2498092Y-10154294D02*
X2327912Y-10324474D01*
X2327912Y-12059295D02*
X2498092Y-12229475D01*
X2498092Y-12059295D02*
X2327912Y-12229475D01*
X2327912Y-13964297D02*
X2498092Y-14134477D01*
X2498092Y-13964297D02*
X2327912Y-14134477D01*
X3216913Y-6344290D02*
X3387093Y-6514470D01*
X3387093Y-6344290D02*
X3216913Y-6514470D01*
X3216913Y-8249292D02*
X3387093Y-8419472D01*
X3387093Y-8249292D02*
X3216913Y-8419472D01*
X3216913Y-10154294D02*
X3387093Y-10324474D01*
X3387093Y-10154294D02*
X3216913Y-10324474D01*
X3216913Y-12059295D02*
X3387093Y-12229475D01*
X3387093Y-12059295D02*
X3216913Y-12229475D01*
X3216913Y-13964297D02*
X3387093Y-14134477D01*
X3387093Y-13964297D02*
X3216913Y-14134477D01*
X4232913Y-6344290D02*
X4403093Y-6514470D01*
X4403093Y-6344290D02*
X4232913Y-6514470D01*
X4232913Y-8249292D02*
X4403093Y-8419472D01*
X4403093Y-8249292D02*
X4232913Y-8419472D01*
X4232913Y-10154294D02*
X4403093Y-10324474D01*
X4403093Y-10154294D02*
X4232913Y-10324474D01*
X4232913Y-12059295D02*
X4403093Y-12229475D01*
X4403093Y-12059295D02*
X4232913Y-12229475D01*
X4232913Y-13964297D02*
X4403093Y-14134477D01*
X4403093Y-13964297D02*
X4232913Y-14134477D01*
X5121915Y-6344290D02*
X5292095Y-6514470D01*
X5292095Y-6344290D02*
X5121915Y-6514470D01*
X5121915Y-8249292D02*
X5292095Y-8419472D01*
X5292095Y-8249292D02*
X5121915Y-8419472D01*
X5121915Y-10154294D02*
X5292095Y-10324474D01*
X5292095Y-10154294D02*
X5121915Y-10324474D01*
X5121915Y-12059295D02*
X5292095Y-12229475D01*
X5292095Y-12059295D02*
X5121915Y-12229475D01*
X5121915Y-13964297D02*
X5292095Y-14134477D01*
X5292095Y-13964297D02*
X5121915Y-14134477D01*
X6137915Y-6344290D02*
X6308095Y-6514470D01*
X6308095Y-6344290D02*
X6137915Y-6514470D01*
X6137915Y-8249292D02*
X6308095Y-8419472D01*
X6308095Y-8249292D02*
X6137915Y-8419472D01*
X6137915Y-10154294D02*
X6308095Y-10324474D01*
X6308095Y-10154294D02*
X6137915Y-10324474D01*
X6137915Y-12059295D02*
X6308095Y-12229475D01*
X6308095Y-12059295D02*
X6137915Y-12229475D01*
X6137915Y-13964297D02*
X6308095Y-14134477D01*
X6308095Y-13964297D02*
X6137915Y-14134477D01*
X7026916Y-6344290D02*
X7197096Y-6514470D01*
X7197096Y-6344290D02*
X7026916Y-6514470D01*
X7026916Y-8249292D02*
X7197096Y-8419472D01*
X7197096Y-8249292D02*
X7026916Y-8419472D01*
X7026916Y-10154294D02*
X7197096Y-10324474D01*
X7197096Y-10154294D02*
X7026916Y-10324474D01*
X7026916Y-12059295D02*
X7197096Y-12229475D01*
X7197096Y-12059295D02*
X7026916Y-12229475D01*
X7026916Y-13964297D02*
X7197096Y-14134477D01*
X7197096Y-13964297D02*
X7026916Y-14134477D01*
X8042916Y-6344290D02*
X8213096Y-6514470D01*
X8213096Y-6344290D02*
X8042916Y-6514470D01*
X8042916Y-8249292D02*
X8213096Y-8419472D01*
X8213096Y-8249292D02*
X8042916Y-8419472D01*
X8042916Y-10154294D02*
X8213096Y-10324474D01*
X8213096Y-10154294D02*
X8042916Y-10324474D01*
X8042916Y-12059295D02*
X8213096Y-12229475D01*
X8213096Y-12059295D02*
X8042916Y-12229475D01*
X8042916Y-13964297D02*
X8213096Y-14134477D01*
X8213096Y-13964297D02*
X8042916Y-14134477D01*
X8931918Y-6344290D02*
X9102098Y-6514470D01*
X9102098Y-6344290D02*
X8931918Y-6514470D01*
X8931918Y-8249292D02*
X9102098Y-8419472D01*
X9102098Y-8249292D02*
X8931918Y-8419472D01*
X8931918Y-10154294D02*
X9102098Y-10324474D01*
X9102098Y-10154294D02*
X8931918Y-10324474D01*
X8931918Y-12059295D02*
X9102098Y-12229475D01*
X9102098Y-12059295D02*
X8931918Y-12229475D01*
X8931918Y-13964297D02*
X9102098Y-14134477D01*
X9102098Y-13964297D02*
X8931918Y-14134477D01*
X9884419Y-13964297D02*
X10054599Y-14134477D01*
X10054599Y-13964297D02*
X9884419Y-14134477D01*
X9947918Y-6344290D02*
X10118098Y-6514470D01*
X10118098Y-6344290D02*
X9947918Y-6514470D01*
X9947918Y-8249292D02*
X10118098Y-8419472D01*
X10118098Y-8249292D02*
X9947918Y-8419472D01*
X9947918Y-10154294D02*
X10118098Y-10324474D01*
X10118098Y-10154294D02*
X9947918Y-10324474D01*
X9947918Y-12059295D02*
X10118098Y-12229475D01*
X10118098Y-12059295D02*
X9947918Y-12229475D01*
X9947918Y-13964297D02*
X10118098Y-14134477D01*
X10118098Y-13964297D02*
X9947918Y-14134477D01*
X10836920Y-6344290D02*
X11007100Y-6514470D01*
X11007100Y-6344290D02*
X10836920Y-6514470D01*
X10836920Y-8249292D02*
X11007100Y-8419472D01*
X11007100Y-8249292D02*
X10836920Y-8419472D01*
X10836920Y-10154294D02*
X11007100Y-10324474D01*
X11007100Y-10154294D02*
X10836920Y-10324474D01*
X10836920Y-12059295D02*
X11007100Y-12229475D01*
X11007100Y-12059295D02*
X10836920Y-12229475D01*
X10836920Y-13964297D02*
X11007100Y-14134477D01*
X11007100Y-13964297D02*
X10836920Y-14134477D01*
X10900419Y-13964297D02*
X11070599Y-14134477D01*
X11070599Y-13964297D02*
X10900419Y-14134477D01*
X11852920Y-6344290D02*
X12023100Y-6514470D01*
X12023100Y-6344290D02*
X11852920Y-6514470D01*
X11852920Y-8249292D02*
X12023100Y-8419472D01*
X12023100Y-8249292D02*
X11852920Y-8419472D01*
X11852920Y-10154294D02*
X12023100Y-10324474D01*
X12023100Y-10154294D02*
X11852920Y-10324474D01*
X11852920Y-12059295D02*
X12023100Y-12229475D01*
X12023100Y-12059295D02*
X11852920Y-12229475D01*
X11852920Y-13964297D02*
X12023100Y-14134477D01*
X12023100Y-13964297D02*
X11852920Y-14134477D01*
X18456926Y-6344290D02*
X18627106Y-6514470D01*
X18627106Y-6344290D02*
X18456926Y-6514470D01*
X18456926Y-8249292D02*
X18627106Y-8419472D01*
X18627106Y-8249292D02*
X18456926Y-8419472D01*
X18456926Y-10154294D02*
X18627106Y-10324474D01*
X18627106Y-10154294D02*
X18456926Y-10324474D01*
X18456926Y-12059295D02*
X18627106Y-12229475D01*
X18627106Y-12059295D02*
X18456926Y-12229475D01*
X18456926Y-13964297D02*
X18627106Y-14134477D01*
X18627106Y-13964297D02*
X18456926Y-14134477D01*
X19409427Y-13964297D02*
X19579607Y-14134477D01*
X19579607Y-13964297D02*
X19409427Y-14134477D01*
X19472926Y-6344290D02*
X19643106Y-6514470D01*
X19643106Y-6344290D02*
X19472926Y-6514470D01*
X19472926Y-8249292D02*
X19643106Y-8419472D01*
X19643106Y-8249292D02*
X19472926Y-8419472D01*
X19472926Y-10154294D02*
X19643106Y-10324474D01*
X19643106Y-10154294D02*
X19472926Y-10324474D01*
X19472926Y-12059295D02*
X19643106Y-12229475D01*
X19643106Y-12059295D02*
X19472926Y-12229475D01*
X19472926Y-13964297D02*
X19643106Y-14134477D01*
X19643106Y-13964297D02*
X19472926Y-14134477D01*
X20361928Y-6344290D02*
X20532108Y-6514470D01*
X20532108Y-6344290D02*
X20361928Y-6514470D01*
X20361928Y-8249292D02*
X20532108Y-8419472D01*
X20532108Y-8249292D02*
X20361928Y-8419472D01*
X20361928Y-10154294D02*
X20532108Y-10324474D01*
X20532108Y-10154294D02*
X20361928Y-10324474D01*
X20361928Y-12059295D02*
X20532108Y-12229475D01*
X20532108Y-12059295D02*
X20361928Y-12229475D01*
X20361928Y-13964297D02*
X20532108Y-14134477D01*
X20532108Y-13964297D02*
X20361928Y-14134477D01*
X20425427Y-13964297D02*
X20595607Y-14134477D01*
X20595607Y-13964297D02*
X20425427Y-14134477D01*
X21377928Y-6344290D02*
X21548108Y-6514470D01*
X21548108Y-6344290D02*
X21377928Y-6514470D01*
X21377928Y-8249292D02*
X21548108Y-8419472D01*
X21548108Y-8249292D02*
X21377928Y-8419472D01*
X21377928Y-10154294D02*
X21548108Y-10324474D01*
X21548108Y-10154294D02*
X21377928Y-10324474D01*
X21377928Y-12059295D02*
X21548108Y-12229475D01*
X21548108Y-12059295D02*
X21377928Y-12229475D01*
X21377928Y-13964297D02*
X21548108Y-14134477D01*
X21548108Y-13964297D02*
X21377928Y-14134477D01*
X22266929Y-6344290D02*
X22437109Y-6514470D01*
X22437109Y-6344290D02*
X22266929Y-6514470D01*
X22266929Y-8249292D02*
X22437109Y-8419472D01*
X22437109Y-8249292D02*
X22266929Y-8419472D01*
X22266929Y-10154294D02*
X22437109Y-10324474D01*
X22437109Y-10154294D02*
X22266929Y-10324474D01*
X22266929Y-12059295D02*
X22437109Y-12229475D01*
X22437109Y-12059295D02*
X22266929Y-12229475D01*
X22266929Y-13964297D02*
X22437109Y-14134477D01*
X22437109Y-13964297D02*
X22266929Y-14134477D01*
X23282929Y-6344290D02*
X23453109Y-6514470D01*
X23453109Y-6344290D02*
X23282929Y-6514470D01*
X23282929Y-8249292D02*
X23453109Y-8419472D01*
X23453109Y-8249292D02*
X23282929Y-8419472D01*
X23282929Y-10154294D02*
X23453109Y-10324474D01*
X23453109Y-10154294D02*
X23282929Y-10324474D01*
X23282929Y-12059295D02*
X23453109Y-12229475D01*
X23453109Y-12059295D02*
X23282929Y-12229475D01*
X23282929Y-13964297D02*
X23453109Y-14134477D01*
X23453109Y-13964297D02*
X23282929Y-14134477D01*
X24171931Y-6344290D02*
X24342111Y-6514470D01*
X24342111Y-6344290D02*
X24171931Y-6514470D01*
X24171931Y-8249292D02*
X24342111Y-8419472D01*
X24342111Y-8249292D02*
X24171931Y-8419472D01*
X24171931Y-10154294D02*
X24342111Y-10324474D01*
X24342111Y-10154294D02*
X24171931Y-10324474D01*
X24171931Y-12059295D02*
X24342111Y-12229475D01*
X24342111Y-12059295D02*
X24171931Y-12229475D01*
X24171931Y-13964297D02*
X24342111Y-14134477D01*
X24342111Y-13964297D02*
X24171931Y-14134477D01*
X25187931Y-6344290D02*
X25358111Y-6514470D01*
X25358111Y-6344290D02*
X25187931Y-6514470D01*
X25187931Y-8249292D02*
X25358111Y-8419472D01*
X25358111Y-8249292D02*
X25187931Y-8419472D01*
X25187931Y-10154294D02*
X25358111Y-10324474D01*
X25358111Y-10154294D02*
X25187931Y-10324474D01*
X25187931Y-12059295D02*
X25358111Y-12229475D01*
X25358111Y-12059295D02*
X25187931Y-12229475D01*
X25187931Y-13964297D02*
X25358111Y-14134477D01*
X25358111Y-13964297D02*
X25187931Y-14134477D01*
X26076932Y-6344290D02*
X26247112Y-6514470D01*
X26247112Y-6344290D02*
X26076932Y-6514470D01*
X26076932Y-8249292D02*
X26247112Y-8419472D01*
X26247112Y-8249292D02*
X26076932Y-8419472D01*
X26076932Y-10154294D02*
X26247112Y-10324474D01*
X26247112Y-10154294D02*
X26076932Y-10324474D01*
X26076932Y-12059295D02*
X26247112Y-12229475D01*
X26247112Y-12059295D02*
X26076932Y-12229475D01*
X26076932Y-13964297D02*
X26247112Y-14134477D01*
X26247112Y-13964297D02*
X26076932Y-14134477D01*
X27092932Y-6344290D02*
X27263112Y-6514470D01*
X27263112Y-6344290D02*
X27092932Y-6514470D01*
X27092932Y-8249292D02*
X27263112Y-8419472D01*
X27263112Y-8249292D02*
X27092932Y-8419472D01*
X27092932Y-10154294D02*
X27263112Y-10324474D01*
X27263112Y-10154294D02*
X27092932Y-10324474D01*
X27092932Y-12059295D02*
X27263112Y-12229475D01*
X27263112Y-12059295D02*
X27092932Y-12229475D01*
X27092932Y-13964297D02*
X27263112Y-14134477D01*
X27263112Y-13964297D02*
X27092932Y-14134477D01*
X27981934Y-6344290D02*
X28152114Y-6514470D01*
X28152114Y-6344290D02*
X27981934Y-6514470D01*
X27981934Y-8249292D02*
X28152114Y-8419472D01*
X28152114Y-8249292D02*
X27981934Y-8419472D01*
X27981934Y-10154294D02*
X28152114Y-10324474D01*
X28152114Y-10154294D02*
X27981934Y-10324474D01*
X27981934Y-12059295D02*
X28152114Y-12229475D01*
X28152114Y-12059295D02*
X27981934Y-12229475D01*
X27981934Y-13964297D02*
X28152114Y-14134477D01*
X28152114Y-13964297D02*
X27981934Y-14134477D01*
X28997934Y-6344290D02*
X29168114Y-6514470D01*
X29168114Y-6344290D02*
X28997934Y-6514470D01*
X28997934Y-8249292D02*
X29168114Y-8419472D01*
X29168114Y-8249292D02*
X28997934Y-8419472D01*
X28997934Y-10154294D02*
X29168114Y-10324474D01*
X29168114Y-10154294D02*
X28997934Y-10324474D01*
X28997934Y-12059295D02*
X29168114Y-12229475D01*
X29168114Y-12059295D02*
X28997934Y-12229475D01*
X28997934Y-13964297D02*
X29168114Y-14134477D01*
X29168114Y-13964297D02*
X28997934Y-14134477D01*
D13*
X1419689Y-11132353D02*
G75*
G03*
X1419689Y-11132353I-110000J0D01*
G01*
D11*
X979689Y-11232353D02*
X1639689Y-11232353D01*
X979689Y-11032353D02*
X1639689Y-11032353D01*
X1639689Y-11232353D02*
G75*
G03*
X1639689Y-11032353I0J100000D01*
G01*
X979689Y-11032353D02*
G75*
G03*
X979689Y-11232353I0J-100000D01*
G01*
D13*
X2967497Y-7381875D02*
G75*
G03*
X2967497Y-7381875I-110000J0D01*
G01*
X2967502Y-13096885D02*
G75*
G03*
X2967502Y-13096885I-110000J0D01*
G01*
X12968761Y-5953130D02*
G75*
G03*
X12968761Y-5953130I-110000J0D01*
G01*
X12968761Y-14466106D02*
G75*
G03*
X12968761Y-14466106I-110000J0D01*
G01*
X13921262Y-10239384D02*
G75*
G03*
X13921262Y-10239384I-110000J0D01*
G01*
D11*
X13911262Y-10339384D02*
X13911262Y-10139384D01*
X13711262Y-10339384D02*
X13711262Y-10139384D01*
X13911262Y-10139384D02*
G75*
G03*
X13711262Y-10139384I-100000J0D01*
G01*
X13711262Y-10339384D02*
G75*
G03*
X13911262Y-10339384I100000J0D01*
G01*
D13*
X17731265Y-5953130D02*
G75*
G03*
X17731265Y-5953130I-110000J0D01*
G01*
X17731265Y-14466106D02*
G75*
G03*
X17731265Y-14466106I-110000J0D01*
G01*
X27732522Y-7381880D02*
G75*
G03*
X27732522Y-7381880I-110000J0D01*
G01*
X27732522Y-13096885D02*
G75*
G03*
X27732522Y-13096885I-110000J0D01*
G01*
X29280337Y-11132353D02*
G75*
G03*
X29280337Y-11132353I-110000J0D01*
G01*
D11*
X28840337Y-11232353D02*
X29500337Y-11232353D01*
X28840337Y-11032353D02*
X29500337Y-11032353D01*
X29500337Y-11232353D02*
G75*
G03*
X29500337Y-11032353I0J100000D01*
G01*
X28840337Y-11032353D02*
G75*
G03*
X28840337Y-11232353I0J-100000D01*
G01*
D14*
X9283709Y-14595487D02*
X9283709Y-14900287D01*
X9131309Y-14747887D02*
X9436109Y-14747887D01*
X11671309Y-14595487D02*
X11671309Y-14900287D01*
X11518909Y-14747887D02*
X11823709Y-14747887D01*
X18808717Y-14595487D02*
X18808717Y-14900287D01*
X18656317Y-14747887D02*
X18961117Y-14747887D01*
X21196317Y-14595487D02*
X21196317Y-14900287D01*
X21043917Y-14747887D02*
X21348717Y-14747887D01*
D15*
X2045988Y-6570366D02*
X2045988Y-6288384D01*
X1764005Y-6288384D01*
X1764005Y-6570366D01*
X2045988Y-6570366D01*
X2045993Y-8475373D02*
X2045993Y-8193391D01*
X1764010Y-8193391D01*
X1764010Y-8475373D01*
X2045993Y-8475373D01*
X2045993Y-10380375D02*
X2045993Y-10098392D01*
X1764010Y-10098392D01*
X1764010Y-10380375D01*
X2045993Y-10380375D01*
X2045993Y-12285377D02*
X2045993Y-12003394D01*
X1764010Y-12003394D01*
X1764010Y-12285377D01*
X2045993Y-12285377D01*
X2045993Y-14190378D02*
X2045993Y-13908395D01*
X1764010Y-13908395D01*
X1764010Y-14190378D01*
X2045993Y-14190378D01*
X3950995Y-6570372D02*
X3950995Y-6288389D01*
X3669012Y-6288389D01*
X3669012Y-6570372D01*
X3950995Y-6570372D01*
X3950995Y-8475373D02*
X3950995Y-8193391D01*
X3669012Y-8193391D01*
X3669012Y-8475373D01*
X3950995Y-8475373D01*
X3950995Y-10380375D02*
X3950995Y-10098392D01*
X3669012Y-10098392D01*
X3669012Y-10380375D01*
X3950995Y-10380375D01*
X3950995Y-12285377D02*
X3950995Y-12003394D01*
X3669012Y-12003394D01*
X3669012Y-12285377D01*
X3950995Y-12285377D01*
X3950995Y-14190378D02*
X3950995Y-13908395D01*
X3669012Y-13908395D01*
X3669012Y-14190378D01*
X3950995Y-14190378D01*
X5855996Y-6570372D02*
X5855996Y-6288389D01*
X5574013Y-6288389D01*
X5574013Y-6570372D01*
X5855996Y-6570372D01*
X5855996Y-8475373D02*
X5855996Y-8193391D01*
X5574013Y-8193391D01*
X5574013Y-8475373D01*
X5855996Y-8475373D01*
X5855996Y-10380375D02*
X5855996Y-10098392D01*
X5574013Y-10098392D01*
X5574013Y-10380375D01*
X5855996Y-10380375D01*
X5855996Y-12285377D02*
X5855996Y-12003394D01*
X5574013Y-12003394D01*
X5574013Y-12285377D01*
X5855996Y-12285377D01*
X5855996Y-14190378D02*
X5855996Y-13908395D01*
X5574013Y-13908395D01*
X5574013Y-14190378D01*
X5855996Y-14190378D01*
X7760998Y-6570372D02*
X7760998Y-6288389D01*
X7479015Y-6288389D01*
X7479015Y-6570372D01*
X7760998Y-6570372D01*
X7760998Y-8475373D02*
X7760998Y-8193391D01*
X7479015Y-8193391D01*
X7479015Y-8475373D01*
X7760998Y-8475373D01*
X7760998Y-10380375D02*
X7760998Y-10098392D01*
X7479015Y-10098392D01*
X7479015Y-10380375D01*
X7760998Y-10380375D01*
X7760998Y-12285377D02*
X7760998Y-12003394D01*
X7479015Y-12003394D01*
X7479015Y-12285377D01*
X7760998Y-12285377D01*
X7760998Y-14190378D02*
X7760998Y-13908395D01*
X7479015Y-13908395D01*
X7479015Y-14190378D01*
X7760998Y-14190378D01*
X9424700Y-13364878D02*
X9424700Y-13082895D01*
X9142717Y-13082895D01*
X9142717Y-13364878D01*
X9424700Y-13364878D01*
X9665999Y-6570372D02*
X9665999Y-6288389D01*
X9384017Y-6288389D01*
X9384017Y-6570372D01*
X9665999Y-6570372D01*
X9665999Y-8475373D02*
X9665999Y-8193391D01*
X9384017Y-8193391D01*
X9384017Y-8475373D01*
X9665999Y-8475373D01*
X9665999Y-10380375D02*
X9665999Y-10098392D01*
X9384017Y-10098392D01*
X9384017Y-10380375D01*
X9665999Y-10380375D01*
X9665999Y-12285377D02*
X9665999Y-12003394D01*
X9384017Y-12003394D01*
X9384017Y-12285377D01*
X9665999Y-12285377D01*
X9665999Y-14190378D02*
X9665999Y-13908395D01*
X9384017Y-13908395D01*
X9384017Y-14190378D01*
X9665999Y-14190378D01*
X10618500Y-14190378D02*
X10618500Y-13908395D01*
X10336517Y-13908395D01*
X10336517Y-14190378D01*
X10618500Y-14190378D01*
X11571001Y-6570372D02*
X11571001Y-6288389D01*
X11289018Y-6288389D01*
X11289018Y-6570372D01*
X11571001Y-6570372D01*
X11571001Y-8475373D02*
X11571001Y-8193391D01*
X11289018Y-8193391D01*
X11289018Y-8475373D01*
X11571001Y-8475373D01*
X11571001Y-10380375D02*
X11571001Y-10098392D01*
X11289018Y-10098392D01*
X11289018Y-10380375D01*
X11571001Y-10380375D01*
X11571001Y-12285377D02*
X11571001Y-12003394D01*
X11289018Y-12003394D01*
X11289018Y-12285377D01*
X11571001Y-12285377D01*
X11571001Y-14190378D02*
X11571001Y-13908395D01*
X11289018Y-13908395D01*
X11289018Y-14190378D01*
X11571001Y-14190378D01*
X11812300Y-13364878D02*
X11812300Y-13082895D01*
X11530317Y-13082895D01*
X11530317Y-13364878D01*
X11812300Y-13364878D01*
X18949708Y-13364878D02*
X18949708Y-13082895D01*
X18667725Y-13082895D01*
X18667725Y-13364878D01*
X18949708Y-13364878D01*
X19191007Y-6570372D02*
X19191007Y-6288389D01*
X18909025Y-6288389D01*
X18909025Y-6570372D01*
X19191007Y-6570372D01*
X19191007Y-8475373D02*
X19191007Y-8193391D01*
X18909025Y-8193391D01*
X18909025Y-8475373D01*
X19191007Y-8475373D01*
X19191007Y-10380375D02*
X19191007Y-10098392D01*
X18909025Y-10098392D01*
X18909025Y-10380375D01*
X19191007Y-10380375D01*
X19191007Y-12285377D02*
X19191007Y-12003394D01*
X18909025Y-12003394D01*
X18909025Y-12285377D01*
X19191007Y-12285377D01*
X19191007Y-14190378D02*
X19191007Y-13908395D01*
X18909025Y-13908395D01*
X18909025Y-14190378D01*
X19191007Y-14190378D01*
X20143508Y-14190378D02*
X20143508Y-13908395D01*
X19861525Y-13908395D01*
X19861525Y-14190378D01*
X20143508Y-14190378D01*
X21096009Y-6570372D02*
X21096009Y-6288389D01*
X20814026Y-6288389D01*
X20814026Y-6570372D01*
X21096009Y-6570372D01*
X21096009Y-8475373D02*
X21096009Y-8193391D01*
X20814026Y-8193391D01*
X20814026Y-8475373D01*
X21096009Y-8475373D01*
X21096009Y-10380375D02*
X21096009Y-10098392D01*
X20814026Y-10098392D01*
X20814026Y-10380375D01*
X21096009Y-10380375D01*
X21096009Y-12285377D02*
X21096009Y-12003394D01*
X20814026Y-12003394D01*
X20814026Y-12285377D01*
X21096009Y-12285377D01*
X21096009Y-14190378D02*
X21096009Y-13908395D01*
X20814026Y-13908395D01*
X20814026Y-14190378D01*
X21096009Y-14190378D01*
X21337308Y-13364878D02*
X21337308Y-13082895D01*
X21055325Y-13082895D01*
X21055325Y-13364878D01*
X21337308Y-13364878D01*
X23001011Y-6570372D02*
X23001011Y-6288389D01*
X22719028Y-6288389D01*
X22719028Y-6570372D01*
X23001011Y-6570372D01*
X23001011Y-8475373D02*
X23001011Y-8193391D01*
X22719028Y-8193391D01*
X22719028Y-8475373D01*
X23001011Y-8475373D01*
X23001011Y-10380375D02*
X23001011Y-10098392D01*
X22719028Y-10098392D01*
X22719028Y-10380375D01*
X23001011Y-10380375D01*
X23001011Y-12285377D02*
X23001011Y-12003394D01*
X22719028Y-12003394D01*
X22719028Y-12285377D01*
X23001011Y-12285377D01*
X23001011Y-14190378D02*
X23001011Y-13908395D01*
X22719028Y-13908395D01*
X22719028Y-14190378D01*
X23001011Y-14190378D01*
X24906012Y-6570372D02*
X24906012Y-6288389D01*
X24624029Y-6288389D01*
X24624029Y-6570372D01*
X24906012Y-6570372D01*
X24906012Y-8475373D02*
X24906012Y-8193391D01*
X24624029Y-8193391D01*
X24624029Y-8475373D01*
X24906012Y-8475373D01*
X24906012Y-10380375D02*
X24906012Y-10098392D01*
X24624029Y-10098392D01*
X24624029Y-10380375D01*
X24906012Y-10380375D01*
X24906012Y-12285377D02*
X24906012Y-12003394D01*
X24624029Y-12003394D01*
X24624029Y-12285377D01*
X24906012Y-12285377D01*
X24906012Y-14190378D02*
X24906012Y-13908395D01*
X24624029Y-13908395D01*
X24624029Y-14190378D01*
X24906012Y-14190378D01*
X26811014Y-6570372D02*
X26811014Y-6288389D01*
X26529031Y-6288389D01*
X26529031Y-6570372D01*
X26811014Y-6570372D01*
X26811014Y-8475373D02*
X26811014Y-8193391D01*
X26529031Y-8193391D01*
X26529031Y-8475373D01*
X26811014Y-8475373D01*
X26811014Y-10380375D02*
X26811014Y-10098392D01*
X26529031Y-10098392D01*
X26529031Y-10380375D01*
X26811014Y-10380375D01*
X26811014Y-12285377D02*
X26811014Y-12003394D01*
X26529031Y-12003394D01*
X26529031Y-12285377D01*
X26811014Y-12285377D01*
X26811014Y-14190378D02*
X26811014Y-13908395D01*
X26529031Y-13908395D01*
X26529031Y-14190378D01*
X26811014Y-14190378D01*
X28716015Y-6570372D02*
X28716015Y-6288389D01*
X28434033Y-6288389D01*
X28434033Y-6570372D01*
X28716015Y-6570372D01*
X28716015Y-8475373D02*
X28716015Y-8193391D01*
X28434033Y-8193391D01*
X28434033Y-8475373D01*
X28716015Y-8475373D01*
X28716015Y-10380375D02*
X28716015Y-10098392D01*
X28434033Y-10098392D01*
X28434033Y-10380375D01*
X28716015Y-10380375D01*
X28716015Y-12285377D02*
X28716015Y-12003394D01*
X28434033Y-12003394D01*
X28434033Y-12285377D01*
X28716015Y-12285377D01*
X28716015Y-14190378D02*
X28716015Y-13908395D01*
X28434033Y-13908395D01*
X28434033Y-14190378D01*
X28716015Y-14190378D01*
D11*
X1252619Y-15269851D02*
X1252619Y-15069851D01*
X1300238Y-15069851D01*
X1328810Y-15079375D01*
X1347857Y-15098423D01*
X1357381Y-15117470D01*
X1366905Y-15155565D01*
X1366905Y-15184137D01*
X1357381Y-15222232D01*
X1347857Y-15241280D01*
X1328810Y-15260327D01*
X1300238Y-15269851D01*
X1252619Y-15269851D01*
X1452619Y-15269851D02*
X1452619Y-15136518D01*
X1452619Y-15174613D02*
X1462143Y-15155565D01*
X1471667Y-15146042D01*
X1490714Y-15136518D01*
X1509762Y-15136518D01*
X1576428Y-15269851D02*
X1576428Y-15136518D01*
X1576428Y-15069851D02*
X1566905Y-15079375D01*
X1576428Y-15088899D01*
X1585952Y-15079375D01*
X1576428Y-15069851D01*
X1576428Y-15088899D01*
X1700238Y-15269851D02*
X1681190Y-15260327D01*
X1671667Y-15241280D01*
X1671667Y-15069851D01*
X1805000Y-15269851D02*
X1785952Y-15260327D01*
X1776428Y-15241280D01*
X1776428Y-15069851D01*
X2033571Y-15269851D02*
X2033571Y-15069851D01*
X2100238Y-15212708D01*
X2166905Y-15069851D01*
X2166905Y-15269851D01*
X2347857Y-15269851D02*
X2347857Y-15165089D01*
X2338333Y-15146042D01*
X2319286Y-15136518D01*
X2281190Y-15136518D01*
X2262143Y-15146042D01*
X2347857Y-15260327D02*
X2328810Y-15269851D01*
X2281190Y-15269851D01*
X2262143Y-15260327D01*
X2252619Y-15241280D01*
X2252619Y-15222232D01*
X2262143Y-15203184D01*
X2281190Y-15193661D01*
X2328810Y-15193661D01*
X2347857Y-15184137D01*
X2443095Y-15136518D02*
X2443095Y-15336518D01*
X2443095Y-15146042D02*
X2462143Y-15136518D01*
X2500238Y-15136518D01*
X2519286Y-15146042D01*
X2528810Y-15155565D01*
X2538333Y-15174613D01*
X2538333Y-15231756D01*
X2528810Y-15250803D01*
X2519286Y-15260327D01*
X2500238Y-15269851D01*
X2462143Y-15269851D01*
X2443095Y-15260327D01*
X2624048Y-15250803D02*
X2633571Y-15260327D01*
X2624048Y-15269851D01*
X2614524Y-15260327D01*
X2624048Y-15250803D01*
X2624048Y-15269851D01*
X2624048Y-15146042D02*
X2633571Y-15155565D01*
X2624048Y-15165089D01*
X2614524Y-15155565D01*
X2624048Y-15146042D01*
X2624048Y-15165089D01*
D12*
X824820Y-15514285D02*
X995000Y-15684465D01*
X995000Y-15514285D02*
X824820Y-15684465D01*
D11*
X1357381Y-15689851D02*
X1243095Y-15689851D01*
X1300238Y-15689851D02*
X1300238Y-15489851D01*
X1281190Y-15518423D01*
X1262143Y-15537470D01*
X1243095Y-15546994D01*
X1443095Y-15670803D02*
X1452619Y-15680327D01*
X1443095Y-15689851D01*
X1433571Y-15680327D01*
X1443095Y-15670803D01*
X1443095Y-15689851D01*
X1519286Y-15489851D02*
X1652619Y-15489851D01*
X1566905Y-15689851D01*
X1766905Y-15489851D02*
X1785952Y-15489851D01*
X1805000Y-15499375D01*
X1814524Y-15508899D01*
X1824048Y-15527946D01*
X1833571Y-15566042D01*
X1833571Y-15613661D01*
X1824048Y-15651756D01*
X1814524Y-15670803D01*
X1805000Y-15680327D01*
X1785952Y-15689851D01*
X1766905Y-15689851D01*
X1747857Y-15680327D01*
X1738333Y-15670803D01*
X1728809Y-15651756D01*
X1719286Y-15613661D01*
X1719286Y-15566042D01*
X1728809Y-15527946D01*
X1738333Y-15508899D01*
X1747857Y-15499375D01*
X1766905Y-15489851D01*
X1909762Y-15508899D02*
X1919286Y-15499375D01*
X1938333Y-15489851D01*
X1985952Y-15489851D01*
X2005000Y-15499375D01*
X2014524Y-15508899D01*
X2024048Y-15527946D01*
X2024048Y-15546994D01*
X2014524Y-15575565D01*
X1900238Y-15689851D01*
X2024048Y-15689851D01*
X2109762Y-15689851D02*
X2109762Y-15556518D01*
X2109762Y-15575565D02*
X2119286Y-15566042D01*
X2138333Y-15556518D01*
X2166905Y-15556518D01*
X2185952Y-15566042D01*
X2195476Y-15585089D01*
X2195476Y-15689851D01*
X2195476Y-15585089D02*
X2205000Y-15566042D01*
X2224048Y-15556518D01*
X2252619Y-15556518D01*
X2271667Y-15566042D01*
X2281190Y-15585089D01*
X2281190Y-15689851D01*
X2376429Y-15689851D02*
X2376429Y-15556518D01*
X2376429Y-15575565D02*
X2385952Y-15566042D01*
X2405000Y-15556518D01*
X2433571Y-15556518D01*
X2452619Y-15566042D01*
X2462143Y-15585089D01*
X2462143Y-15689851D01*
X2462143Y-15585089D02*
X2471667Y-15566042D01*
X2490714Y-15556518D01*
X2519286Y-15556518D01*
X2538333Y-15566042D01*
X2547857Y-15585089D01*
X2547857Y-15689851D01*
X2938333Y-15480327D02*
X2766905Y-15737470D01*
X3195476Y-15489851D02*
X3214524Y-15489851D01*
X3233571Y-15499375D01*
X3243095Y-15508899D01*
X3252619Y-15527946D01*
X3262143Y-15566042D01*
X3262143Y-15613661D01*
X3252619Y-15651756D01*
X3243095Y-15670803D01*
X3233571Y-15680327D01*
X3214524Y-15689851D01*
X3195476Y-15689851D01*
X3176428Y-15680327D01*
X3166905Y-15670803D01*
X3157381Y-15651756D01*
X3147857Y-15613661D01*
X3147857Y-15566042D01*
X3157381Y-15527946D01*
X3166905Y-15508899D01*
X3176428Y-15499375D01*
X3195476Y-15489851D01*
X3347857Y-15670803D02*
X3357381Y-15680327D01*
X3347857Y-15689851D01*
X3338333Y-15680327D01*
X3347857Y-15670803D01*
X3347857Y-15689851D01*
X3481190Y-15489851D02*
X3500238Y-15489851D01*
X3519286Y-15499375D01*
X3528809Y-15508899D01*
X3538333Y-15527946D01*
X3547857Y-15566042D01*
X3547857Y-15613661D01*
X3538333Y-15651756D01*
X3528809Y-15670803D01*
X3519286Y-15680327D01*
X3500238Y-15689851D01*
X3481190Y-15689851D01*
X3462143Y-15680327D01*
X3452619Y-15670803D01*
X3443095Y-15651756D01*
X3433571Y-15613661D01*
X3433571Y-15566042D01*
X3443095Y-15527946D01*
X3452619Y-15508899D01*
X3462143Y-15499375D01*
X3481190Y-15489851D01*
X3719286Y-15489851D02*
X3681190Y-15489851D01*
X3662143Y-15499375D01*
X3652619Y-15508899D01*
X3633571Y-15537470D01*
X3624048Y-15575565D01*
X3624048Y-15651756D01*
X3633571Y-15670803D01*
X3643095Y-15680327D01*
X3662143Y-15689851D01*
X3700238Y-15689851D01*
X3719286Y-15680327D01*
X3728809Y-15670803D01*
X3738333Y-15651756D01*
X3738333Y-15604137D01*
X3728809Y-15585089D01*
X3719286Y-15575565D01*
X3700238Y-15566042D01*
X3662143Y-15566042D01*
X3643095Y-15575565D01*
X3633571Y-15585089D01*
X3624048Y-15604137D01*
X3805000Y-15489851D02*
X3938333Y-15489851D01*
X3852619Y-15689851D01*
X4052619Y-15489851D02*
X4071667Y-15489851D01*
X4090714Y-15499375D01*
X4100238Y-15508899D01*
X4109762Y-15527946D01*
X4119286Y-15566042D01*
X4119286Y-15613661D01*
X4109762Y-15651756D01*
X4100238Y-15670803D01*
X4090714Y-15680327D01*
X4071667Y-15689851D01*
X4052619Y-15689851D01*
X4033571Y-15680327D01*
X4024048Y-15670803D01*
X4014524Y-15651756D01*
X4005000Y-15613661D01*
X4005000Y-15566042D01*
X4014524Y-15527946D01*
X4024048Y-15508899D01*
X4033571Y-15499375D01*
X4052619Y-15489851D01*
X4195476Y-15489851D02*
X4195476Y-15527946D01*
X4271667Y-15489851D02*
X4271667Y-15527946D01*
X4566905Y-15766042D02*
X4557381Y-15756518D01*
X4538333Y-15727946D01*
X4528810Y-15708899D01*
X4519286Y-15680327D01*
X4509762Y-15632708D01*
X4509762Y-15594613D01*
X4519286Y-15546994D01*
X4528810Y-15518423D01*
X4538333Y-15499375D01*
X4557381Y-15470803D01*
X4566905Y-15461280D01*
X4747857Y-15689851D02*
X4633571Y-15689851D01*
X4690714Y-15689851D02*
X4690714Y-15489851D01*
X4671667Y-15518423D01*
X4652619Y-15537470D01*
X4633571Y-15546994D01*
X4824048Y-15508899D02*
X4833571Y-15499375D01*
X4852619Y-15489851D01*
X4900238Y-15489851D01*
X4919286Y-15499375D01*
X4928810Y-15508899D01*
X4938333Y-15527946D01*
X4938333Y-15546994D01*
X4928810Y-15575565D01*
X4814524Y-15689851D01*
X4938333Y-15689851D01*
X5109762Y-15556518D02*
X5109762Y-15689851D01*
X5062143Y-15480327D02*
X5014524Y-15623184D01*
X5138333Y-15623184D01*
X5366905Y-15689851D02*
X5366905Y-15489851D01*
X5452619Y-15689851D02*
X5452619Y-15585089D01*
X5443095Y-15566042D01*
X5424048Y-15556518D01*
X5395476Y-15556518D01*
X5376429Y-15566042D01*
X5366905Y-15575565D01*
X5576429Y-15689851D02*
X5557381Y-15680327D01*
X5547857Y-15670803D01*
X5538333Y-15651756D01*
X5538333Y-15594613D01*
X5547857Y-15575565D01*
X5557381Y-15566042D01*
X5576429Y-15556518D01*
X5605000Y-15556518D01*
X5624048Y-15566042D01*
X5633571Y-15575565D01*
X5643095Y-15594613D01*
X5643095Y-15651756D01*
X5633571Y-15670803D01*
X5624048Y-15680327D01*
X5605000Y-15689851D01*
X5576429Y-15689851D01*
X5757381Y-15689851D02*
X5738333Y-15680327D01*
X5728809Y-15661280D01*
X5728809Y-15489851D01*
X5909762Y-15680327D02*
X5890714Y-15689851D01*
X5852619Y-15689851D01*
X5833571Y-15680327D01*
X5824048Y-15661280D01*
X5824048Y-15585089D01*
X5833571Y-15566042D01*
X5852619Y-15556518D01*
X5890714Y-15556518D01*
X5909762Y-15566042D01*
X5919286Y-15585089D01*
X5919286Y-15604137D01*
X5824048Y-15623184D01*
X5995476Y-15680327D02*
X6014524Y-15689851D01*
X6052619Y-15689851D01*
X6071667Y-15680327D01*
X6081190Y-15661280D01*
X6081190Y-15651756D01*
X6071667Y-15632708D01*
X6052619Y-15623184D01*
X6024048Y-15623184D01*
X6005000Y-15613661D01*
X5995476Y-15594613D01*
X5995476Y-15585089D01*
X6005000Y-15566042D01*
X6024048Y-15556518D01*
X6052619Y-15556518D01*
X6071667Y-15566042D01*
X6147857Y-15766042D02*
X6157381Y-15756518D01*
X6176428Y-15727946D01*
X6185952Y-15708899D01*
X6195476Y-15680327D01*
X6205000Y-15632708D01*
X6205000Y-15594613D01*
X6195476Y-15546994D01*
X6185952Y-15518423D01*
X6176428Y-15499375D01*
X6157381Y-15470803D01*
X6147857Y-15461280D01*
X6509762Y-15766042D02*
X6500238Y-15756518D01*
X6481190Y-15727946D01*
X6471667Y-15708899D01*
X6462143Y-15680327D01*
X6452619Y-15632708D01*
X6452619Y-15594613D01*
X6462143Y-15546994D01*
X6471667Y-15518423D01*
X6481190Y-15499375D01*
X6500238Y-15470803D01*
X6509762Y-15461280D01*
X6585952Y-15556518D02*
X6585952Y-15689851D01*
X6585952Y-15575565D02*
X6595476Y-15566042D01*
X6614524Y-15556518D01*
X6643095Y-15556518D01*
X6662143Y-15566042D01*
X6671667Y-15585089D01*
X6671667Y-15689851D01*
X6795476Y-15689851D02*
X6776428Y-15680327D01*
X6766905Y-15670803D01*
X6757381Y-15651756D01*
X6757381Y-15594613D01*
X6766905Y-15575565D01*
X6776428Y-15566042D01*
X6795476Y-15556518D01*
X6824048Y-15556518D01*
X6843095Y-15566042D01*
X6852619Y-15575565D01*
X6862143Y-15594613D01*
X6862143Y-15651756D01*
X6852619Y-15670803D01*
X6843095Y-15680327D01*
X6824048Y-15689851D01*
X6795476Y-15689851D01*
X6919286Y-15556518D02*
X6995476Y-15556518D01*
X6947857Y-15489851D02*
X6947857Y-15661280D01*
X6957381Y-15680327D01*
X6976428Y-15689851D01*
X6995476Y-15689851D01*
X7214524Y-15556518D02*
X7214524Y-15756518D01*
X7214524Y-15566042D02*
X7233571Y-15556518D01*
X7271667Y-15556518D01*
X7290714Y-15566042D01*
X7300238Y-15575565D01*
X7309762Y-15594613D01*
X7309762Y-15651756D01*
X7300238Y-15670803D01*
X7290714Y-15680327D01*
X7271667Y-15689851D01*
X7233571Y-15689851D01*
X7214524Y-15680327D01*
X7424048Y-15689851D02*
X7405000Y-15680327D01*
X7395476Y-15661280D01*
X7395476Y-15489851D01*
X7585952Y-15689851D02*
X7585952Y-15585089D01*
X7576428Y-15566042D01*
X7557381Y-15556518D01*
X7519286Y-15556518D01*
X7500238Y-15566042D01*
X7585952Y-15680327D02*
X7566905Y-15689851D01*
X7519286Y-15689851D01*
X7500238Y-15680327D01*
X7490714Y-15661280D01*
X7490714Y-15642232D01*
X7500238Y-15623184D01*
X7519286Y-15613661D01*
X7566905Y-15613661D01*
X7585952Y-15604137D01*
X7652619Y-15556518D02*
X7728809Y-15556518D01*
X7681190Y-15489851D02*
X7681190Y-15661280D01*
X7690714Y-15680327D01*
X7709762Y-15689851D01*
X7728809Y-15689851D01*
X7871667Y-15680327D02*
X7852619Y-15689851D01*
X7814524Y-15689851D01*
X7795476Y-15680327D01*
X7785952Y-15661280D01*
X7785952Y-15585089D01*
X7795476Y-15566042D01*
X7814524Y-15556518D01*
X7852619Y-15556518D01*
X7871667Y-15566042D01*
X7881190Y-15585089D01*
X7881190Y-15604137D01*
X7785952Y-15623184D01*
X8052619Y-15689851D02*
X8052619Y-15489851D01*
X8052619Y-15680327D02*
X8033571Y-15689851D01*
X7995476Y-15689851D01*
X7976428Y-15680327D01*
X7966905Y-15670803D01*
X7957381Y-15651756D01*
X7957381Y-15594613D01*
X7966905Y-15575565D01*
X7976428Y-15566042D01*
X7995476Y-15556518D01*
X8033571Y-15556518D01*
X8052619Y-15566042D01*
X8128809Y-15766042D02*
X8138333Y-15756518D01*
X8157381Y-15727946D01*
X8166905Y-15708899D01*
X8176428Y-15680327D01*
X8185952Y-15632708D01*
X8185952Y-15594613D01*
X8176428Y-15546994D01*
X8166905Y-15518423D01*
X8157381Y-15499375D01*
X8138333Y-15470803D01*
X8128809Y-15461280D01*
X995000Y-15889555D02*
G75*
G03*
X995000Y-15889555I-100000J0D01*
G01*
X1243095Y-15799079D02*
X1252619Y-15789555D01*
X1271667Y-15780031D01*
X1319286Y-15780031D01*
X1338333Y-15789555D01*
X1347857Y-15799079D01*
X1357381Y-15818126D01*
X1357381Y-15837174D01*
X1347857Y-15865745D01*
X1233571Y-15980031D01*
X1357381Y-15980031D01*
X1443095Y-15960983D02*
X1452619Y-15970507D01*
X1443095Y-15980031D01*
X1433571Y-15970507D01*
X1443095Y-15960983D01*
X1443095Y-15980031D01*
X1528809Y-15799079D02*
X1538333Y-15789555D01*
X1557381Y-15780031D01*
X1605000Y-15780031D01*
X1624048Y-15789555D01*
X1633571Y-15799079D01*
X1643095Y-15818126D01*
X1643095Y-15837174D01*
X1633571Y-15865745D01*
X1519286Y-15980031D01*
X1643095Y-15980031D01*
X1766905Y-15780031D02*
X1785952Y-15780031D01*
X1805000Y-15789555D01*
X1814524Y-15799079D01*
X1824048Y-15818126D01*
X1833571Y-15856222D01*
X1833571Y-15903841D01*
X1824048Y-15941936D01*
X1814524Y-15960983D01*
X1805000Y-15970507D01*
X1785952Y-15980031D01*
X1766905Y-15980031D01*
X1747857Y-15970507D01*
X1738333Y-15960983D01*
X1728809Y-15941936D01*
X1719286Y-15903841D01*
X1719286Y-15856222D01*
X1728809Y-15818126D01*
X1738333Y-15799079D01*
X1747857Y-15789555D01*
X1766905Y-15780031D01*
X1957381Y-15780031D02*
X1976428Y-15780031D01*
X1995476Y-15789555D01*
X2005000Y-15799079D01*
X2014524Y-15818126D01*
X2024048Y-15856222D01*
X2024048Y-15903841D01*
X2014524Y-15941936D01*
X2005000Y-15960983D01*
X1995476Y-15970507D01*
X1976428Y-15980031D01*
X1957381Y-15980031D01*
X1938333Y-15970507D01*
X1928809Y-15960983D01*
X1919286Y-15941936D01*
X1909762Y-15903841D01*
X1909762Y-15856222D01*
X1919286Y-15818126D01*
X1928809Y-15799079D01*
X1938333Y-15789555D01*
X1957381Y-15780031D01*
X2109762Y-15980031D02*
X2109762Y-15846698D01*
X2109762Y-15865745D02*
X2119286Y-15856222D01*
X2138333Y-15846698D01*
X2166905Y-15846698D01*
X2185952Y-15856222D01*
X2195476Y-15875269D01*
X2195476Y-15980031D01*
X2195476Y-15875269D02*
X2205000Y-15856222D01*
X2224048Y-15846698D01*
X2252619Y-15846698D01*
X2271667Y-15856222D01*
X2281190Y-15875269D01*
X2281190Y-15980031D01*
X2376429Y-15980031D02*
X2376429Y-15846698D01*
X2376429Y-15865745D02*
X2385952Y-15856222D01*
X2405000Y-15846698D01*
X2433571Y-15846698D01*
X2452619Y-15856222D01*
X2462143Y-15875269D01*
X2462143Y-15980031D01*
X2462143Y-15875269D02*
X2471667Y-15856222D01*
X2490714Y-15846698D01*
X2519286Y-15846698D01*
X2538333Y-15856222D01*
X2547857Y-15875269D01*
X2547857Y-15980031D01*
X2938333Y-15770507D02*
X2766905Y-16027650D01*
X3195476Y-15780031D02*
X3214524Y-15780031D01*
X3233571Y-15789555D01*
X3243095Y-15799079D01*
X3252619Y-15818126D01*
X3262143Y-15856222D01*
X3262143Y-15903841D01*
X3252619Y-15941936D01*
X3243095Y-15960983D01*
X3233571Y-15970507D01*
X3214524Y-15980031D01*
X3195476Y-15980031D01*
X3176428Y-15970507D01*
X3166905Y-15960983D01*
X3157381Y-15941936D01*
X3147857Y-15903841D01*
X3147857Y-15856222D01*
X3157381Y-15818126D01*
X3166905Y-15799079D01*
X3176428Y-15789555D01*
X3195476Y-15780031D01*
X3347857Y-15960983D02*
X3357381Y-15970507D01*
X3347857Y-15980031D01*
X3338333Y-15970507D01*
X3347857Y-15960983D01*
X3347857Y-15980031D01*
X3481190Y-15780031D02*
X3500238Y-15780031D01*
X3519286Y-15789555D01*
X3528809Y-15799079D01*
X3538333Y-15818126D01*
X3547857Y-15856222D01*
X3547857Y-15903841D01*
X3538333Y-15941936D01*
X3528809Y-15960983D01*
X3519286Y-15970507D01*
X3500238Y-15980031D01*
X3481190Y-15980031D01*
X3462143Y-15970507D01*
X3452619Y-15960983D01*
X3443095Y-15941936D01*
X3433571Y-15903841D01*
X3433571Y-15856222D01*
X3443095Y-15818126D01*
X3452619Y-15799079D01*
X3462143Y-15789555D01*
X3481190Y-15780031D01*
X3662143Y-15865745D02*
X3643095Y-15856222D01*
X3633571Y-15846698D01*
X3624048Y-15827650D01*
X3624048Y-15818126D01*
X3633571Y-15799079D01*
X3643095Y-15789555D01*
X3662143Y-15780031D01*
X3700238Y-15780031D01*
X3719286Y-15789555D01*
X3728809Y-15799079D01*
X3738333Y-15818126D01*
X3738333Y-15827650D01*
X3728809Y-15846698D01*
X3719286Y-15856222D01*
X3700238Y-15865745D01*
X3662143Y-15865745D01*
X3643095Y-15875269D01*
X3633571Y-15884793D01*
X3624048Y-15903841D01*
X3624048Y-15941936D01*
X3633571Y-15960983D01*
X3643095Y-15970507D01*
X3662143Y-15980031D01*
X3700238Y-15980031D01*
X3719286Y-15970507D01*
X3728809Y-15960983D01*
X3738333Y-15941936D01*
X3738333Y-15903841D01*
X3728809Y-15884793D01*
X3719286Y-15875269D01*
X3700238Y-15865745D01*
X3909762Y-15780031D02*
X3871667Y-15780031D01*
X3852619Y-15789555D01*
X3843095Y-15799079D01*
X3824048Y-15827650D01*
X3814524Y-15865745D01*
X3814524Y-15941936D01*
X3824048Y-15960983D01*
X3833571Y-15970507D01*
X3852619Y-15980031D01*
X3890714Y-15980031D01*
X3909762Y-15970507D01*
X3919286Y-15960983D01*
X3928809Y-15941936D01*
X3928809Y-15894317D01*
X3919286Y-15875269D01*
X3909762Y-15865745D01*
X3890714Y-15856222D01*
X3852619Y-15856222D01*
X3833571Y-15865745D01*
X3824048Y-15875269D01*
X3814524Y-15894317D01*
X4100238Y-15780031D02*
X4062143Y-15780031D01*
X4043095Y-15789555D01*
X4033571Y-15799079D01*
X4014524Y-15827650D01*
X4005000Y-15865745D01*
X4005000Y-15941936D01*
X4014524Y-15960983D01*
X4024048Y-15970507D01*
X4043095Y-15980031D01*
X4081190Y-15980031D01*
X4100238Y-15970507D01*
X4109762Y-15960983D01*
X4119286Y-15941936D01*
X4119286Y-15894317D01*
X4109762Y-15875269D01*
X4100238Y-15865745D01*
X4081190Y-15856222D01*
X4043095Y-15856222D01*
X4024048Y-15865745D01*
X4014524Y-15875269D01*
X4005000Y-15894317D01*
X4195476Y-15780031D02*
X4195476Y-15818126D01*
X4271667Y-15780031D02*
X4271667Y-15818126D01*
X4566905Y-16056222D02*
X4557381Y-16046698D01*
X4538333Y-16018126D01*
X4528810Y-15999079D01*
X4519286Y-15970507D01*
X4509762Y-15922888D01*
X4509762Y-15884793D01*
X4519286Y-15837174D01*
X4528810Y-15808603D01*
X4538333Y-15789555D01*
X4557381Y-15760983D01*
X4566905Y-15751460D01*
X4671667Y-15865745D02*
X4652619Y-15856222D01*
X4643095Y-15846698D01*
X4633571Y-15827650D01*
X4633571Y-15818126D01*
X4643095Y-15799079D01*
X4652619Y-15789555D01*
X4671667Y-15780031D01*
X4709762Y-15780031D01*
X4728810Y-15789555D01*
X4738333Y-15799079D01*
X4747857Y-15818126D01*
X4747857Y-15827650D01*
X4738333Y-15846698D01*
X4728810Y-15856222D01*
X4709762Y-15865745D01*
X4671667Y-15865745D01*
X4652619Y-15875269D01*
X4643095Y-15884793D01*
X4633571Y-15903841D01*
X4633571Y-15941936D01*
X4643095Y-15960983D01*
X4652619Y-15970507D01*
X4671667Y-15980031D01*
X4709762Y-15980031D01*
X4728810Y-15970507D01*
X4738333Y-15960983D01*
X4747857Y-15941936D01*
X4747857Y-15903841D01*
X4738333Y-15884793D01*
X4728810Y-15875269D01*
X4709762Y-15865745D01*
X4985952Y-15980031D02*
X4985952Y-15780031D01*
X5071667Y-15980031D02*
X5071667Y-15875269D01*
X5062143Y-15856222D01*
X5043095Y-15846698D01*
X5014524Y-15846698D01*
X4995476Y-15856222D01*
X4985952Y-15865745D01*
X5195476Y-15980031D02*
X5176429Y-15970507D01*
X5166905Y-15960983D01*
X5157381Y-15941936D01*
X5157381Y-15884793D01*
X5166905Y-15865745D01*
X5176429Y-15856222D01*
X5195476Y-15846698D01*
X5224048Y-15846698D01*
X5243095Y-15856222D01*
X5252619Y-15865745D01*
X5262143Y-15884793D01*
X5262143Y-15941936D01*
X5252619Y-15960983D01*
X5243095Y-15970507D01*
X5224048Y-15980031D01*
X5195476Y-15980031D01*
X5376429Y-15980031D02*
X5357381Y-15970507D01*
X5347857Y-15951460D01*
X5347857Y-15780031D01*
X5528810Y-15970507D02*
X5509762Y-15980031D01*
X5471667Y-15980031D01*
X5452619Y-15970507D01*
X5443095Y-15951460D01*
X5443095Y-15875269D01*
X5452619Y-15856222D01*
X5471667Y-15846698D01*
X5509762Y-15846698D01*
X5528810Y-15856222D01*
X5538333Y-15875269D01*
X5538333Y-15894317D01*
X5443095Y-15913364D01*
X5614524Y-15970507D02*
X5633571Y-15980031D01*
X5671667Y-15980031D01*
X5690714Y-15970507D01*
X5700238Y-15951460D01*
X5700238Y-15941936D01*
X5690714Y-15922888D01*
X5671667Y-15913364D01*
X5643095Y-15913364D01*
X5624048Y-15903841D01*
X5614524Y-15884793D01*
X5614524Y-15875269D01*
X5624048Y-15856222D01*
X5643095Y-15846698D01*
X5671667Y-15846698D01*
X5690714Y-15856222D01*
X5938333Y-15903841D02*
X6090714Y-15903841D01*
X6014524Y-15980031D02*
X6014524Y-15827650D01*
X6319286Y-15780031D02*
X6443095Y-15780031D01*
X6376428Y-15856222D01*
X6405000Y-15856222D01*
X6424048Y-15865745D01*
X6433571Y-15875269D01*
X6443095Y-15894317D01*
X6443095Y-15941936D01*
X6433571Y-15960983D01*
X6424048Y-15970507D01*
X6405000Y-15980031D01*
X6347857Y-15980031D01*
X6328809Y-15970507D01*
X6319286Y-15960983D01*
X6671667Y-15970507D02*
X6690714Y-15980031D01*
X6728809Y-15980031D01*
X6747857Y-15970507D01*
X6757381Y-15951460D01*
X6757381Y-15941936D01*
X6747857Y-15922888D01*
X6728809Y-15913364D01*
X6700238Y-15913364D01*
X6681190Y-15903841D01*
X6671667Y-15884793D01*
X6671667Y-15875269D01*
X6681190Y-15856222D01*
X6700238Y-15846698D01*
X6728809Y-15846698D01*
X6747857Y-15856222D01*
X6871667Y-15980031D02*
X6852619Y-15970507D01*
X6843095Y-15951460D01*
X6843095Y-15780031D01*
X6976428Y-15980031D02*
X6957381Y-15970507D01*
X6947857Y-15960983D01*
X6938333Y-15941936D01*
X6938333Y-15884793D01*
X6947857Y-15865745D01*
X6957381Y-15856222D01*
X6976428Y-15846698D01*
X7005000Y-15846698D01*
X7024048Y-15856222D01*
X7033571Y-15865745D01*
X7043095Y-15884793D01*
X7043095Y-15941936D01*
X7033571Y-15960983D01*
X7024048Y-15970507D01*
X7005000Y-15980031D01*
X6976428Y-15980031D01*
X7100238Y-15846698D02*
X7176428Y-15846698D01*
X7128809Y-15780031D02*
X7128809Y-15951460D01*
X7138333Y-15970507D01*
X7157381Y-15980031D01*
X7176428Y-15980031D01*
X7233571Y-15970507D02*
X7252619Y-15980031D01*
X7290714Y-15980031D01*
X7309762Y-15970507D01*
X7319286Y-15951460D01*
X7319286Y-15941936D01*
X7309762Y-15922888D01*
X7290714Y-15913364D01*
X7262143Y-15913364D01*
X7243095Y-15903841D01*
X7233571Y-15884793D01*
X7233571Y-15875269D01*
X7243095Y-15856222D01*
X7262143Y-15846698D01*
X7290714Y-15846698D01*
X7309762Y-15856222D01*
X7385952Y-16056222D02*
X7395476Y-16046698D01*
X7414524Y-16018126D01*
X7424048Y-15999079D01*
X7433571Y-15970507D01*
X7443095Y-15922888D01*
X7443095Y-15884793D01*
X7433571Y-15837174D01*
X7424048Y-15808603D01*
X7414524Y-15789555D01*
X7395476Y-15760983D01*
X7385952Y-15751460D01*
X7747857Y-16056222D02*
X7738333Y-16046698D01*
X7719286Y-16018126D01*
X7709762Y-15999079D01*
X7700238Y-15970507D01*
X7690714Y-15922888D01*
X7690714Y-15884793D01*
X7700238Y-15837174D01*
X7709762Y-15808603D01*
X7719286Y-15789555D01*
X7738333Y-15760983D01*
X7747857Y-15751460D01*
X7824048Y-15846698D02*
X7824048Y-15980031D01*
X7824048Y-15865745D02*
X7833571Y-15856222D01*
X7852619Y-15846698D01*
X7881190Y-15846698D01*
X7900238Y-15856222D01*
X7909762Y-15875269D01*
X7909762Y-15980031D01*
X8033571Y-15980031D02*
X8014524Y-15970507D01*
X8005000Y-15960983D01*
X7995476Y-15941936D01*
X7995476Y-15884793D01*
X8005000Y-15865745D01*
X8014524Y-15856222D01*
X8033571Y-15846698D01*
X8062143Y-15846698D01*
X8081190Y-15856222D01*
X8090714Y-15865745D01*
X8100238Y-15884793D01*
X8100238Y-15941936D01*
X8090714Y-15960983D01*
X8081190Y-15970507D01*
X8062143Y-15980031D01*
X8033571Y-15980031D01*
X8157381Y-15846698D02*
X8233571Y-15846698D01*
X8185952Y-15780031D02*
X8185952Y-15951460D01*
X8195476Y-15970507D01*
X8214524Y-15980031D01*
X8233571Y-15980031D01*
X8452619Y-15846698D02*
X8452619Y-16046698D01*
X8452619Y-15856222D02*
X8471667Y-15846698D01*
X8509762Y-15846698D01*
X8528810Y-15856222D01*
X8538333Y-15865745D01*
X8547857Y-15884793D01*
X8547857Y-15941936D01*
X8538333Y-15960983D01*
X8528810Y-15970507D01*
X8509762Y-15980031D01*
X8471667Y-15980031D01*
X8452619Y-15970507D01*
X8662143Y-15980031D02*
X8643095Y-15970507D01*
X8633571Y-15951460D01*
X8633571Y-15780031D01*
X8824048Y-15980031D02*
X8824048Y-15875269D01*
X8814524Y-15856222D01*
X8795476Y-15846698D01*
X8757381Y-15846698D01*
X8738333Y-15856222D01*
X8824048Y-15970507D02*
X8805000Y-15980031D01*
X8757381Y-15980031D01*
X8738333Y-15970507D01*
X8728810Y-15951460D01*
X8728810Y-15932412D01*
X8738333Y-15913364D01*
X8757381Y-15903841D01*
X8805000Y-15903841D01*
X8824048Y-15894317D01*
X8890714Y-15846698D02*
X8966905Y-15846698D01*
X8919286Y-15780031D02*
X8919286Y-15951460D01*
X8928810Y-15970507D01*
X8947857Y-15980031D01*
X8966905Y-15980031D01*
X9109762Y-15970507D02*
X9090714Y-15980031D01*
X9052619Y-15980031D01*
X9033571Y-15970507D01*
X9024048Y-15951460D01*
X9024048Y-15875269D01*
X9033571Y-15856222D01*
X9052619Y-15846698D01*
X9090714Y-15846698D01*
X9109762Y-15856222D01*
X9119286Y-15875269D01*
X9119286Y-15894317D01*
X9024048Y-15913364D01*
X9290714Y-15980031D02*
X9290714Y-15780031D01*
X9290714Y-15970507D02*
X9271667Y-15980031D01*
X9233571Y-15980031D01*
X9214524Y-15970507D01*
X9205000Y-15960983D01*
X9195476Y-15941936D01*
X9195476Y-15884793D01*
X9205000Y-15865745D01*
X9214524Y-15856222D01*
X9233571Y-15846698D01*
X9271667Y-15846698D01*
X9290714Y-15856222D01*
X9366905Y-16056222D02*
X9376429Y-16046698D01*
X9395476Y-16018126D01*
X9405000Y-15999079D01*
X9414524Y-15970507D01*
X9424048Y-15922888D01*
X9424048Y-15884793D01*
X9414524Y-15837174D01*
X9405000Y-15808603D01*
X9395476Y-15789555D01*
X9376429Y-15760983D01*
X9366905Y-15751460D01*
X895000Y-16109555D02*
X895000Y-16309555D01*
X795000Y-16209555D02*
X995000Y-16209555D01*
X1233571Y-16100031D02*
X1357381Y-16100031D01*
X1290714Y-16176222D01*
X1319286Y-16176222D01*
X1338333Y-16185745D01*
X1347857Y-16195269D01*
X1357381Y-16214317D01*
X1357381Y-16261936D01*
X1347857Y-16280983D01*
X1338333Y-16290507D01*
X1319286Y-16300031D01*
X1262143Y-16300031D01*
X1243095Y-16290507D01*
X1233571Y-16280983D01*
X1443095Y-16280983D02*
X1452619Y-16290507D01*
X1443095Y-16300031D01*
X1433571Y-16290507D01*
X1443095Y-16280983D01*
X1443095Y-16300031D01*
X1576428Y-16100031D02*
X1595476Y-16100031D01*
X1614524Y-16109555D01*
X1624048Y-16119079D01*
X1633571Y-16138126D01*
X1643095Y-16176222D01*
X1643095Y-16223841D01*
X1633571Y-16261936D01*
X1624048Y-16280983D01*
X1614524Y-16290507D01*
X1595476Y-16300031D01*
X1576428Y-16300031D01*
X1557381Y-16290507D01*
X1547857Y-16280983D01*
X1538333Y-16261936D01*
X1528809Y-16223841D01*
X1528809Y-16176222D01*
X1538333Y-16138126D01*
X1547857Y-16119079D01*
X1557381Y-16109555D01*
X1576428Y-16100031D01*
X1814524Y-16166698D02*
X1814524Y-16300031D01*
X1766905Y-16090507D02*
X1719286Y-16233364D01*
X1843095Y-16233364D01*
X1947857Y-16185745D02*
X1928809Y-16176222D01*
X1919286Y-16166698D01*
X1909762Y-16147650D01*
X1909762Y-16138126D01*
X1919286Y-16119079D01*
X1928809Y-16109555D01*
X1947857Y-16100031D01*
X1985952Y-16100031D01*
X2005000Y-16109555D01*
X2014524Y-16119079D01*
X2024048Y-16138126D01*
X2024048Y-16147650D01*
X2014524Y-16166698D01*
X2005000Y-16176222D01*
X1985952Y-16185745D01*
X1947857Y-16185745D01*
X1928809Y-16195269D01*
X1919286Y-16204793D01*
X1909762Y-16223841D01*
X1909762Y-16261936D01*
X1919286Y-16280983D01*
X1928809Y-16290507D01*
X1947857Y-16300031D01*
X1985952Y-16300031D01*
X2005000Y-16290507D01*
X2014524Y-16280983D01*
X2024048Y-16261936D01*
X2024048Y-16223841D01*
X2014524Y-16204793D01*
X2005000Y-16195269D01*
X1985952Y-16185745D01*
X2109762Y-16300031D02*
X2109762Y-16166698D01*
X2109762Y-16185745D02*
X2119286Y-16176222D01*
X2138333Y-16166698D01*
X2166905Y-16166698D01*
X2185952Y-16176222D01*
X2195476Y-16195269D01*
X2195476Y-16300031D01*
X2195476Y-16195269D02*
X2205000Y-16176222D01*
X2224048Y-16166698D01*
X2252619Y-16166698D01*
X2271667Y-16176222D01*
X2281190Y-16195269D01*
X2281190Y-16300031D01*
X2376429Y-16300031D02*
X2376429Y-16166698D01*
X2376429Y-16185745D02*
X2385952Y-16176222D01*
X2405000Y-16166698D01*
X2433571Y-16166698D01*
X2452619Y-16176222D01*
X2462143Y-16195269D01*
X2462143Y-16300031D01*
X2462143Y-16195269D02*
X2471667Y-16176222D01*
X2490714Y-16166698D01*
X2519286Y-16166698D01*
X2538333Y-16176222D01*
X2547857Y-16195269D01*
X2547857Y-16300031D01*
X2938333Y-16090507D02*
X2766905Y-16347650D01*
X3195476Y-16100031D02*
X3214524Y-16100031D01*
X3233571Y-16109555D01*
X3243095Y-16119079D01*
X3252619Y-16138126D01*
X3262143Y-16176222D01*
X3262143Y-16223841D01*
X3252619Y-16261936D01*
X3243095Y-16280983D01*
X3233571Y-16290507D01*
X3214524Y-16300031D01*
X3195476Y-16300031D01*
X3176428Y-16290507D01*
X3166905Y-16280983D01*
X3157381Y-16261936D01*
X3147857Y-16223841D01*
X3147857Y-16176222D01*
X3157381Y-16138126D01*
X3166905Y-16119079D01*
X3176428Y-16109555D01*
X3195476Y-16100031D01*
X3347857Y-16280983D02*
X3357381Y-16290507D01*
X3347857Y-16300031D01*
X3338333Y-16290507D01*
X3347857Y-16280983D01*
X3347857Y-16300031D01*
X3547857Y-16300031D02*
X3433571Y-16300031D01*
X3490714Y-16300031D02*
X3490714Y-16100031D01*
X3471667Y-16128603D01*
X3452619Y-16147650D01*
X3433571Y-16157174D01*
X3624048Y-16119079D02*
X3633571Y-16109555D01*
X3652619Y-16100031D01*
X3700238Y-16100031D01*
X3719286Y-16109555D01*
X3728809Y-16119079D01*
X3738333Y-16138126D01*
X3738333Y-16157174D01*
X3728809Y-16185745D01*
X3614524Y-16300031D01*
X3738333Y-16300031D01*
X3862143Y-16100031D02*
X3881190Y-16100031D01*
X3900238Y-16109555D01*
X3909762Y-16119079D01*
X3919286Y-16138126D01*
X3928809Y-16176222D01*
X3928809Y-16223841D01*
X3919286Y-16261936D01*
X3909762Y-16280983D01*
X3900238Y-16290507D01*
X3881190Y-16300031D01*
X3862143Y-16300031D01*
X3843095Y-16290507D01*
X3833571Y-16280983D01*
X3824048Y-16261936D01*
X3814524Y-16223841D01*
X3814524Y-16176222D01*
X3824048Y-16138126D01*
X3833571Y-16119079D01*
X3843095Y-16109555D01*
X3862143Y-16100031D01*
X4052619Y-16100031D02*
X4071667Y-16100031D01*
X4090714Y-16109555D01*
X4100238Y-16119079D01*
X4109762Y-16138126D01*
X4119286Y-16176222D01*
X4119286Y-16223841D01*
X4109762Y-16261936D01*
X4100238Y-16280983D01*
X4090714Y-16290507D01*
X4071667Y-16300031D01*
X4052619Y-16300031D01*
X4033571Y-16290507D01*
X4024048Y-16280983D01*
X4014524Y-16261936D01*
X4005000Y-16223841D01*
X4005000Y-16176222D01*
X4014524Y-16138126D01*
X4024048Y-16119079D01*
X4033571Y-16109555D01*
X4052619Y-16100031D01*
X4195476Y-16100031D02*
X4195476Y-16138126D01*
X4271667Y-16100031D02*
X4271667Y-16138126D01*
X4566905Y-16376222D02*
X4557381Y-16366698D01*
X4538333Y-16338126D01*
X4528810Y-16319079D01*
X4519286Y-16290507D01*
X4509762Y-16242888D01*
X4509762Y-16204793D01*
X4519286Y-16157174D01*
X4528810Y-16128603D01*
X4538333Y-16109555D01*
X4557381Y-16080983D01*
X4566905Y-16071460D01*
X4728810Y-16166698D02*
X4728810Y-16300031D01*
X4681190Y-16090507D02*
X4633571Y-16233364D01*
X4757381Y-16233364D01*
X4985952Y-16300031D02*
X4985952Y-16100031D01*
X5071667Y-16300031D02*
X5071667Y-16195269D01*
X5062143Y-16176222D01*
X5043095Y-16166698D01*
X5014524Y-16166698D01*
X4995476Y-16176222D01*
X4985952Y-16185745D01*
X5195476Y-16300031D02*
X5176429Y-16290507D01*
X5166905Y-16280983D01*
X5157381Y-16261936D01*
X5157381Y-16204793D01*
X5166905Y-16185745D01*
X5176429Y-16176222D01*
X5195476Y-16166698D01*
X5224048Y-16166698D01*
X5243095Y-16176222D01*
X5252619Y-16185745D01*
X5262143Y-16204793D01*
X5262143Y-16261936D01*
X5252619Y-16280983D01*
X5243095Y-16290507D01*
X5224048Y-16300031D01*
X5195476Y-16300031D01*
X5376429Y-16300031D02*
X5357381Y-16290507D01*
X5347857Y-16271460D01*
X5347857Y-16100031D01*
X5528810Y-16290507D02*
X5509762Y-16300031D01*
X5471667Y-16300031D01*
X5452619Y-16290507D01*
X5443095Y-16271460D01*
X5443095Y-16195269D01*
X5452619Y-16176222D01*
X5471667Y-16166698D01*
X5509762Y-16166698D01*
X5528810Y-16176222D01*
X5538333Y-16195269D01*
X5538333Y-16214317D01*
X5443095Y-16233364D01*
X5614524Y-16290507D02*
X5633571Y-16300031D01*
X5671667Y-16300031D01*
X5690714Y-16290507D01*
X5700238Y-16271460D01*
X5700238Y-16261936D01*
X5690714Y-16242888D01*
X5671667Y-16233364D01*
X5643095Y-16233364D01*
X5624048Y-16223841D01*
X5614524Y-16204793D01*
X5614524Y-16195269D01*
X5624048Y-16176222D01*
X5643095Y-16166698D01*
X5671667Y-16166698D01*
X5690714Y-16176222D01*
X5766905Y-16376222D02*
X5776428Y-16366698D01*
X5795476Y-16338126D01*
X5805000Y-16319079D01*
X5814524Y-16290507D01*
X5824048Y-16242888D01*
X5824048Y-16204793D01*
X5814524Y-16157174D01*
X5805000Y-16128603D01*
X5795476Y-16109555D01*
X5776428Y-16080983D01*
X5766905Y-16071460D01*
X6128809Y-16376222D02*
X6119286Y-16366698D01*
X6100238Y-16338126D01*
X6090714Y-16319079D01*
X6081190Y-16290507D01*
X6071667Y-16242888D01*
X6071667Y-16204793D01*
X6081190Y-16157174D01*
X6090714Y-16128603D01*
X6100238Y-16109555D01*
X6119286Y-16080983D01*
X6128809Y-16071460D01*
X6205000Y-16166698D02*
X6205000Y-16300031D01*
X6205000Y-16185745D02*
X6214524Y-16176222D01*
X6233571Y-16166698D01*
X6262143Y-16166698D01*
X6281190Y-16176222D01*
X6290714Y-16195269D01*
X6290714Y-16300031D01*
X6414524Y-16300031D02*
X6395476Y-16290507D01*
X6385952Y-16280983D01*
X6376428Y-16261936D01*
X6376428Y-16204793D01*
X6385952Y-16185745D01*
X6395476Y-16176222D01*
X6414524Y-16166698D01*
X6443095Y-16166698D01*
X6462143Y-16176222D01*
X6471667Y-16185745D01*
X6481190Y-16204793D01*
X6481190Y-16261936D01*
X6471667Y-16280983D01*
X6462143Y-16290507D01*
X6443095Y-16300031D01*
X6414524Y-16300031D01*
X6538333Y-16166698D02*
X6614524Y-16166698D01*
X6566905Y-16100031D02*
X6566905Y-16271460D01*
X6576428Y-16290507D01*
X6595476Y-16300031D01*
X6614524Y-16300031D01*
X6833571Y-16166698D02*
X6833571Y-16366698D01*
X6833571Y-16176222D02*
X6852619Y-16166698D01*
X6890714Y-16166698D01*
X6909762Y-16176222D01*
X6919286Y-16185745D01*
X6928809Y-16204793D01*
X6928809Y-16261936D01*
X6919286Y-16280983D01*
X6909762Y-16290507D01*
X6890714Y-16300031D01*
X6852619Y-16300031D01*
X6833571Y-16290507D01*
X7043095Y-16300031D02*
X7024048Y-16290507D01*
X7014524Y-16271460D01*
X7014524Y-16100031D01*
X7205000Y-16300031D02*
X7205000Y-16195269D01*
X7195476Y-16176222D01*
X7176428Y-16166698D01*
X7138333Y-16166698D01*
X7119286Y-16176222D01*
X7205000Y-16290507D02*
X7185952Y-16300031D01*
X7138333Y-16300031D01*
X7119286Y-16290507D01*
X7109762Y-16271460D01*
X7109762Y-16252412D01*
X7119286Y-16233364D01*
X7138333Y-16223841D01*
X7185952Y-16223841D01*
X7205000Y-16214317D01*
X7271667Y-16166698D02*
X7347857Y-16166698D01*
X7300238Y-16100031D02*
X7300238Y-16271460D01*
X7309762Y-16290507D01*
X7328809Y-16300031D01*
X7347857Y-16300031D01*
X7490714Y-16290507D02*
X7471667Y-16300031D01*
X7433571Y-16300031D01*
X7414524Y-16290507D01*
X7405000Y-16271460D01*
X7405000Y-16195269D01*
X7414524Y-16176222D01*
X7433571Y-16166698D01*
X7471667Y-16166698D01*
X7490714Y-16176222D01*
X7500238Y-16195269D01*
X7500238Y-16214317D01*
X7405000Y-16233364D01*
X7671667Y-16300031D02*
X7671667Y-16100031D01*
X7671667Y-16290507D02*
X7652619Y-16300031D01*
X7614524Y-16300031D01*
X7595476Y-16290507D01*
X7585952Y-16280983D01*
X7576428Y-16261936D01*
X7576428Y-16204793D01*
X7585952Y-16185745D01*
X7595476Y-16176222D01*
X7614524Y-16166698D01*
X7652619Y-16166698D01*
X7671667Y-16176222D01*
X7747857Y-16376222D02*
X7757381Y-16366698D01*
X7776428Y-16338126D01*
X7785952Y-16319079D01*
X7795476Y-16290507D01*
X7805000Y-16242888D01*
X7805000Y-16204793D01*
X7795476Y-16157174D01*
X7785952Y-16128603D01*
X7776428Y-16109555D01*
X7757381Y-16080983D01*
X7747857Y-16071460D01*
X965711Y-16600266D02*
X965711Y-16458844D01*
X824289Y-16458844D01*
X824289Y-16600266D01*
X965711Y-16600266D01*
X1233571Y-16420031D02*
X1357381Y-16420031D01*
X1290714Y-16496222D01*
X1319286Y-16496222D01*
X1338333Y-16505745D01*
X1347857Y-16515269D01*
X1357381Y-16534317D01*
X1357381Y-16581936D01*
X1347857Y-16600983D01*
X1338333Y-16610507D01*
X1319286Y-16620031D01*
X1262143Y-16620031D01*
X1243095Y-16610507D01*
X1233571Y-16600983D01*
X1443095Y-16600983D02*
X1452619Y-16610507D01*
X1443095Y-16620031D01*
X1433571Y-16610507D01*
X1443095Y-16600983D01*
X1443095Y-16620031D01*
X1547857Y-16620031D02*
X1585952Y-16620031D01*
X1605000Y-16610507D01*
X1614524Y-16600983D01*
X1633571Y-16572412D01*
X1643095Y-16534317D01*
X1643095Y-16458126D01*
X1633571Y-16439079D01*
X1624048Y-16429555D01*
X1605000Y-16420031D01*
X1566905Y-16420031D01*
X1547857Y-16429555D01*
X1538333Y-16439079D01*
X1528809Y-16458126D01*
X1528809Y-16505745D01*
X1538333Y-16524793D01*
X1547857Y-16534317D01*
X1566905Y-16543841D01*
X1605000Y-16543841D01*
X1624048Y-16534317D01*
X1633571Y-16524793D01*
X1643095Y-16505745D01*
X1757381Y-16505745D02*
X1738333Y-16496222D01*
X1728809Y-16486698D01*
X1719286Y-16467650D01*
X1719286Y-16458126D01*
X1728809Y-16439079D01*
X1738333Y-16429555D01*
X1757381Y-16420031D01*
X1795476Y-16420031D01*
X1814524Y-16429555D01*
X1824048Y-16439079D01*
X1833571Y-16458126D01*
X1833571Y-16467650D01*
X1824048Y-16486698D01*
X1814524Y-16496222D01*
X1795476Y-16505745D01*
X1757381Y-16505745D01*
X1738333Y-16515269D01*
X1728809Y-16524793D01*
X1719286Y-16543841D01*
X1719286Y-16581936D01*
X1728809Y-16600983D01*
X1738333Y-16610507D01*
X1757381Y-16620031D01*
X1795476Y-16620031D01*
X1814524Y-16610507D01*
X1824048Y-16600983D01*
X1833571Y-16581936D01*
X1833571Y-16543841D01*
X1824048Y-16524793D01*
X1814524Y-16515269D01*
X1795476Y-16505745D01*
X1947857Y-16505745D02*
X1928809Y-16496222D01*
X1919286Y-16486698D01*
X1909762Y-16467650D01*
X1909762Y-16458126D01*
X1919286Y-16439079D01*
X1928809Y-16429555D01*
X1947857Y-16420031D01*
X1985952Y-16420031D01*
X2005000Y-16429555D01*
X2014524Y-16439079D01*
X2024048Y-16458126D01*
X2024048Y-16467650D01*
X2014524Y-16486698D01*
X2005000Y-16496222D01*
X1985952Y-16505745D01*
X1947857Y-16505745D01*
X1928809Y-16515269D01*
X1919286Y-16524793D01*
X1909762Y-16543841D01*
X1909762Y-16581936D01*
X1919286Y-16600983D01*
X1928809Y-16610507D01*
X1947857Y-16620031D01*
X1985952Y-16620031D01*
X2005000Y-16610507D01*
X2014524Y-16600983D01*
X2024048Y-16581936D01*
X2024048Y-16543841D01*
X2014524Y-16524793D01*
X2005000Y-16515269D01*
X1985952Y-16505745D01*
X2109762Y-16620031D02*
X2109762Y-16486698D01*
X2109762Y-16505745D02*
X2119286Y-16496222D01*
X2138333Y-16486698D01*
X2166905Y-16486698D01*
X2185952Y-16496222D01*
X2195476Y-16515269D01*
X2195476Y-16620031D01*
X2195476Y-16515269D02*
X2205000Y-16496222D01*
X2224048Y-16486698D01*
X2252619Y-16486698D01*
X2271667Y-16496222D01*
X2281190Y-16515269D01*
X2281190Y-16620031D01*
X2376429Y-16620031D02*
X2376429Y-16486698D01*
X2376429Y-16505745D02*
X2385952Y-16496222D01*
X2405000Y-16486698D01*
X2433571Y-16486698D01*
X2452619Y-16496222D01*
X2462143Y-16515269D01*
X2462143Y-16620031D01*
X2462143Y-16515269D02*
X2471667Y-16496222D01*
X2490714Y-16486698D01*
X2519286Y-16486698D01*
X2538333Y-16496222D01*
X2547857Y-16515269D01*
X2547857Y-16620031D01*
X2938333Y-16410507D02*
X2766905Y-16667650D01*
X3195476Y-16420031D02*
X3214524Y-16420031D01*
X3233571Y-16429555D01*
X3243095Y-16439079D01*
X3252619Y-16458126D01*
X3262143Y-16496222D01*
X3262143Y-16543841D01*
X3252619Y-16581936D01*
X3243095Y-16600983D01*
X3233571Y-16610507D01*
X3214524Y-16620031D01*
X3195476Y-16620031D01*
X3176428Y-16610507D01*
X3166905Y-16600983D01*
X3157381Y-16581936D01*
X3147857Y-16543841D01*
X3147857Y-16496222D01*
X3157381Y-16458126D01*
X3166905Y-16439079D01*
X3176428Y-16429555D01*
X3195476Y-16420031D01*
X3347857Y-16600983D02*
X3357381Y-16610507D01*
X3347857Y-16620031D01*
X3338333Y-16610507D01*
X3347857Y-16600983D01*
X3347857Y-16620031D01*
X3547857Y-16620031D02*
X3433571Y-16620031D01*
X3490714Y-16620031D02*
X3490714Y-16420031D01*
X3471667Y-16448603D01*
X3452619Y-16467650D01*
X3433571Y-16477174D01*
X3728809Y-16420031D02*
X3633571Y-16420031D01*
X3624048Y-16515269D01*
X3633571Y-16505745D01*
X3652619Y-16496222D01*
X3700238Y-16496222D01*
X3719286Y-16505745D01*
X3728809Y-16515269D01*
X3738333Y-16534317D01*
X3738333Y-16581936D01*
X3728809Y-16600983D01*
X3719286Y-16610507D01*
X3700238Y-16620031D01*
X3652619Y-16620031D01*
X3633571Y-16610507D01*
X3624048Y-16600983D01*
X3805000Y-16420031D02*
X3938333Y-16420031D01*
X3852619Y-16620031D01*
X4052619Y-16420031D02*
X4071667Y-16420031D01*
X4090714Y-16429555D01*
X4100238Y-16439079D01*
X4109762Y-16458126D01*
X4119286Y-16496222D01*
X4119286Y-16543841D01*
X4109762Y-16581936D01*
X4100238Y-16600983D01*
X4090714Y-16610507D01*
X4071667Y-16620031D01*
X4052619Y-16620031D01*
X4033571Y-16610507D01*
X4024048Y-16600983D01*
X4014524Y-16581936D01*
X4005000Y-16543841D01*
X4005000Y-16496222D01*
X4014524Y-16458126D01*
X4024048Y-16439079D01*
X4033571Y-16429555D01*
X4052619Y-16420031D01*
X4195476Y-16420031D02*
X4195476Y-16458126D01*
X4271667Y-16420031D02*
X4271667Y-16458126D01*
X4566905Y-16696222D02*
X4557381Y-16686698D01*
X4538333Y-16658126D01*
X4528810Y-16639079D01*
X4519286Y-16610507D01*
X4509762Y-16562888D01*
X4509762Y-16524793D01*
X4519286Y-16477174D01*
X4528810Y-16448603D01*
X4538333Y-16429555D01*
X4557381Y-16400983D01*
X4566905Y-16391460D01*
X4728810Y-16420031D02*
X4690714Y-16420031D01*
X4671667Y-16429555D01*
X4662143Y-16439079D01*
X4643095Y-16467650D01*
X4633571Y-16505745D01*
X4633571Y-16581936D01*
X4643095Y-16600983D01*
X4652619Y-16610507D01*
X4671667Y-16620031D01*
X4709762Y-16620031D01*
X4728810Y-16610507D01*
X4738333Y-16600983D01*
X4747857Y-16581936D01*
X4747857Y-16534317D01*
X4738333Y-16515269D01*
X4728810Y-16505745D01*
X4709762Y-16496222D01*
X4671667Y-16496222D01*
X4652619Y-16505745D01*
X4643095Y-16515269D01*
X4633571Y-16534317D01*
X4919286Y-16420031D02*
X4881190Y-16420031D01*
X4862143Y-16429555D01*
X4852619Y-16439079D01*
X4833571Y-16467650D01*
X4824048Y-16505745D01*
X4824048Y-16581936D01*
X4833571Y-16600983D01*
X4843095Y-16610507D01*
X4862143Y-16620031D01*
X4900238Y-16620031D01*
X4919286Y-16610507D01*
X4928810Y-16600983D01*
X4938333Y-16581936D01*
X4938333Y-16534317D01*
X4928810Y-16515269D01*
X4919286Y-16505745D01*
X4900238Y-16496222D01*
X4862143Y-16496222D01*
X4843095Y-16505745D01*
X4833571Y-16515269D01*
X4824048Y-16534317D01*
X5176429Y-16620031D02*
X5176429Y-16420031D01*
X5262143Y-16620031D02*
X5262143Y-16515269D01*
X5252619Y-16496222D01*
X5233571Y-16486698D01*
X5205000Y-16486698D01*
X5185952Y-16496222D01*
X5176429Y-16505745D01*
X5385952Y-16620031D02*
X5366905Y-16610507D01*
X5357381Y-16600983D01*
X5347857Y-16581936D01*
X5347857Y-16524793D01*
X5357381Y-16505745D01*
X5366905Y-16496222D01*
X5385952Y-16486698D01*
X5414524Y-16486698D01*
X5433571Y-16496222D01*
X5443095Y-16505745D01*
X5452619Y-16524793D01*
X5452619Y-16581936D01*
X5443095Y-16600983D01*
X5433571Y-16610507D01*
X5414524Y-16620031D01*
X5385952Y-16620031D01*
X5566905Y-16620031D02*
X5547857Y-16610507D01*
X5538333Y-16591460D01*
X5538333Y-16420031D01*
X5719286Y-16610507D02*
X5700238Y-16620031D01*
X5662143Y-16620031D01*
X5643095Y-16610507D01*
X5633571Y-16591460D01*
X5633571Y-16515269D01*
X5643095Y-16496222D01*
X5662143Y-16486698D01*
X5700238Y-16486698D01*
X5719286Y-16496222D01*
X5728809Y-16515269D01*
X5728809Y-16534317D01*
X5633571Y-16553364D01*
X5805000Y-16610507D02*
X5824048Y-16620031D01*
X5862143Y-16620031D01*
X5881190Y-16610507D01*
X5890714Y-16591460D01*
X5890714Y-16581936D01*
X5881190Y-16562888D01*
X5862143Y-16553364D01*
X5833571Y-16553364D01*
X5814524Y-16543841D01*
X5805000Y-16524793D01*
X5805000Y-16515269D01*
X5814524Y-16496222D01*
X5833571Y-16486698D01*
X5862143Y-16486698D01*
X5881190Y-16496222D01*
X5957381Y-16696222D02*
X5966905Y-16686698D01*
X5985952Y-16658126D01*
X5995476Y-16639079D01*
X6005000Y-16610507D01*
X6014524Y-16562888D01*
X6014524Y-16524793D01*
X6005000Y-16477174D01*
X5995476Y-16448603D01*
X5985952Y-16429555D01*
X5966905Y-16400983D01*
X5957381Y-16391460D01*
X6319286Y-16696222D02*
X6309762Y-16686698D01*
X6290714Y-16658126D01*
X6281190Y-16639079D01*
X6271667Y-16610507D01*
X6262143Y-16562888D01*
X6262143Y-16524793D01*
X6271667Y-16477174D01*
X6281190Y-16448603D01*
X6290714Y-16429555D01*
X6309762Y-16400983D01*
X6319286Y-16391460D01*
X6395476Y-16486698D02*
X6395476Y-16620031D01*
X6395476Y-16505745D02*
X6405000Y-16496222D01*
X6424048Y-16486698D01*
X6452619Y-16486698D01*
X6471667Y-16496222D01*
X6481190Y-16515269D01*
X6481190Y-16620031D01*
X6605000Y-16620031D02*
X6585952Y-16610507D01*
X6576428Y-16600983D01*
X6566905Y-16581936D01*
X6566905Y-16524793D01*
X6576428Y-16505745D01*
X6585952Y-16496222D01*
X6605000Y-16486698D01*
X6633571Y-16486698D01*
X6652619Y-16496222D01*
X6662143Y-16505745D01*
X6671667Y-16524793D01*
X6671667Y-16581936D01*
X6662143Y-16600983D01*
X6652619Y-16610507D01*
X6633571Y-16620031D01*
X6605000Y-16620031D01*
X6728809Y-16486698D02*
X6805000Y-16486698D01*
X6757381Y-16420031D02*
X6757381Y-16591460D01*
X6766905Y-16610507D01*
X6785952Y-16620031D01*
X6805000Y-16620031D01*
X7024048Y-16486698D02*
X7024048Y-16686698D01*
X7024048Y-16496222D02*
X7043095Y-16486698D01*
X7081190Y-16486698D01*
X7100238Y-16496222D01*
X7109762Y-16505745D01*
X7119286Y-16524793D01*
X7119286Y-16581936D01*
X7109762Y-16600983D01*
X7100238Y-16610507D01*
X7081190Y-16620031D01*
X7043095Y-16620031D01*
X7024048Y-16610507D01*
X7233571Y-16620031D02*
X7214524Y-16610507D01*
X7205000Y-16591460D01*
X7205000Y-16420031D01*
X7395476Y-16620031D02*
X7395476Y-16515269D01*
X7385952Y-16496222D01*
X7366905Y-16486698D01*
X7328809Y-16486698D01*
X7309762Y-16496222D01*
X7395476Y-16610507D02*
X7376428Y-16620031D01*
X7328809Y-16620031D01*
X7309762Y-16610507D01*
X7300238Y-16591460D01*
X7300238Y-16572412D01*
X7309762Y-16553364D01*
X7328809Y-16543841D01*
X7376428Y-16543841D01*
X7395476Y-16534317D01*
X7462143Y-16486698D02*
X7538333Y-16486698D01*
X7490714Y-16420031D02*
X7490714Y-16591460D01*
X7500238Y-16610507D01*
X7519286Y-16620031D01*
X7538333Y-16620031D01*
X7681190Y-16610507D02*
X7662143Y-16620031D01*
X7624048Y-16620031D01*
X7605000Y-16610507D01*
X7595476Y-16591460D01*
X7595476Y-16515269D01*
X7605000Y-16496222D01*
X7624048Y-16486698D01*
X7662143Y-16486698D01*
X7681190Y-16496222D01*
X7690714Y-16515269D01*
X7690714Y-16534317D01*
X7595476Y-16553364D01*
X7862143Y-16620031D02*
X7862143Y-16420031D01*
X7862143Y-16610507D02*
X7843095Y-16620031D01*
X7805000Y-16620031D01*
X7785952Y-16610507D01*
X7776428Y-16600983D01*
X7766905Y-16581936D01*
X7766905Y-16524793D01*
X7776428Y-16505745D01*
X7785952Y-16496222D01*
X7805000Y-16486698D01*
X7843095Y-16486698D01*
X7862143Y-16496222D01*
X7938333Y-16696222D02*
X7947857Y-16686698D01*
X7966905Y-16658126D01*
X7976428Y-16639079D01*
X7985952Y-16610507D01*
X7995476Y-16562888D01*
X7995476Y-16524793D01*
X7985952Y-16477174D01*
X7976428Y-16448603D01*
X7966905Y-16429555D01*
X7947857Y-16400983D01*
X7938333Y-16391460D01*
M02*
