M48
; DRILL file {KiCad 6.0.1-79c1e3a40b~116~ubuntu21.10.1} date Mon 31 Jan 2022 22:58:53 CET
; FORMAT={-:-/ absolute / metric / decimal}
; #@! TF.CreationDate,2022-01-31T22:58:53+01:00
; #@! TF.GenerationSoftware,Kicad,Pcbnew,6.0.1-79c1e3a40b~116~ubuntu21.10.1
; #@! TF.FileFunction,Plated,1,2,PTH
FMAT,2
METRIC
; #@! TA.AperFunction,Plated,PTH,ViaDrill
T1C0.400
; #@! TA.AperFunction,Plated,PTH,ComponentDrill
T2C0.400
; #@! TA.AperFunction,Plated,PTH,ComponentDrill
T3C0.600
; #@! TA.AperFunction,Plated,PTH,ComponentDrill
T4C0.700
; #@! TA.AperFunction,Plated,PTH,ComponentDrill
T5C0.710
; #@! TA.AperFunction,Plated,PTH,ComponentDrill
T6C0.737
; #@! TA.AperFunction,Plated,PTH,ComponentDrill
T7C0.800
; #@! TA.AperFunction,Plated,PTH,ComponentDrill
T8C1.000
; #@! TA.AperFunction,Plated,PTH,ComponentDrill
T9C1.100
; #@! TA.AperFunction,Plated,PTH,ComponentDrill
T10C1.499
; #@! TA.AperFunction,Plated,PTH,ComponentDrill
T11C1.500
%
G90
G05
T1
X21.431Y-56.674
X27.62Y-71.3
X28.631Y-71.925
X29.019Y-80.086
X31.039Y-77.546
X31.572Y-105.359
X40.719Y-67.627
X47.625Y-83.344
X60.579Y-69.025
X66.437Y-88.106
X66.675Y-103.108
X119.659Y-133.972
X120.879Y-88.913
X121.958Y-63.856
X130.124Y-109.512
X130.797Y-105.397
X136.373Y-127.317
X138.684Y-137.173
X139.471Y-106.261
X141.656Y-134.328
X143.002Y-138.678
X150.851Y-99.53
X151.333Y-74.257
X152.343Y-70.478
X154.099Y-67.49
X157.226Y-134.353
X158.775Y-96.152
X158.852Y-80.302
X159.055Y-73.228
X163.22Y-134.252
X165.443Y-82.677
X166.726Y-97.295
X167.475Y-79.692
X168.275Y-104.61
X168.453Y-127.241
X172.695Y-82.588
X173.33Y-79.731
X182.761Y-144.066
T2
X25.13Y-60.071
X25.13Y-61.396
X25.98Y-61.396
X25.985Y-60.071
X26.83Y-61.396
X26.835Y-60.071
X27.68Y-61.396
X27.685Y-60.071
X28.53Y-61.396
X28.535Y-60.071
X29.38Y-61.396
X29.385Y-60.071
X30.23Y-61.396
X30.235Y-60.071
X31.08Y-61.396
X31.085Y-60.071
T3
X145.542Y-127.992
X147.042Y-127.992
T4
X24.74Y-91.686
X24.74Y-94.067
X32.36Y-91.686
X32.36Y-94.067
X154.781Y-106.561
X154.781Y-108.944
X154.781Y-111.324
X154.781Y-113.705
X162.401Y-106.561
X162.401Y-108.944
X162.401Y-111.324
X162.401Y-113.705
T5
X140.494Y-113.546
X140.494Y-118.626
T6
X66.675Y-69.557
X66.675Y-71.057
X66.675Y-72.557
X66.675Y-74.057
T7
X126.325Y-67.866
X126.325Y-73.819
X126.325Y-79.772
X126.325Y-85.725
X126.325Y-91.678
X126.325Y-97.631
X126.325Y-100.608
X126.325Y-103.584
X126.325Y-109.538
X126.325Y-115.491
X126.325Y-121.444
X126.325Y-127.397
X126.325Y-133.35
X128.707Y-64.889
X128.707Y-70.842
X128.707Y-76.795
X128.707Y-82.749
X128.707Y-88.702
X128.707Y-94.655
X128.707Y-106.561
X128.707Y-112.514
X128.707Y-118.467
X128.707Y-124.42
X128.707Y-130.374
X133.945Y-67.866
X133.945Y-73.819
X133.945Y-79.772
X133.945Y-85.725
X133.945Y-91.678
X133.945Y-97.631
X133.945Y-100.608
X133.945Y-103.584
X133.945Y-109.538
X133.945Y-115.491
X133.945Y-121.444
X133.945Y-127.397
X133.945Y-133.35
X135.731Y-136.922
X135.731Y-144.542
X136.327Y-64.889
X136.327Y-70.842
X136.327Y-76.795
X136.327Y-82.749
X136.327Y-88.702
X136.327Y-94.655
X136.327Y-106.561
X136.327Y-112.514
X136.327Y-118.467
X136.327Y-124.42
X136.327Y-130.374
X138.708Y-134.541
X138.708Y-142.161
X141.684Y-136.922
X141.684Y-144.542
X142.288Y-88.702
X142.288Y-91.202
X142.288Y-94.059
X142.288Y-96.559
X144.661Y-134.541
X144.661Y-142.161
X147.05Y-89.892
X147.05Y-94.772
X147.638Y-136.922
X147.638Y-144.542
X150.614Y-134.541
X150.614Y-142.161
X154.186Y-134.541
X154.186Y-142.161
X154.781Y-69.056
X154.781Y-71.596
X154.781Y-74.136
X154.781Y-76.676
X154.781Y-79.216
X154.781Y-81.756
X154.781Y-84.296
X154.781Y-86.836
X154.781Y-89.376
X154.781Y-91.916
X154.781Y-94.456
X154.781Y-96.996
X154.781Y-99.536
X154.781Y-102.076
X154.9Y-118.444
X154.9Y-121.444
X155.735Y-126.802
X155.735Y-129.778
X157.163Y-136.922
X157.163Y-144.542
X160.139Y-134.541
X160.139Y-142.161
X160.735Y-126.802
X160.735Y-129.778
X162.401Y-69.056
X162.401Y-71.596
X162.401Y-74.136
X162.401Y-76.676
X162.401Y-79.216
X162.401Y-81.756
X162.401Y-84.296
X162.401Y-86.836
X162.401Y-89.376
X162.401Y-91.916
X162.401Y-94.456
X162.401Y-96.996
X162.401Y-99.536
X162.401Y-102.076
X162.52Y-118.444
X162.52Y-121.444
X163.116Y-136.922
X163.116Y-144.542
X166.092Y-134.541
X166.092Y-142.161
X168.474Y-64.889
X168.474Y-70.842
X168.474Y-76.795
X168.474Y-82.749
X168.474Y-88.702
X168.474Y-94.655
X168.474Y-100.608
X168.474Y-106.561
X168.474Y-112.514
X168.474Y-118.467
X168.474Y-124.42
X168.474Y-130.374
X169.069Y-136.922
X169.069Y-144.542
X170.855Y-67.866
X170.855Y-73.819
X170.855Y-79.772
X170.855Y-85.725
X170.855Y-91.678
X170.855Y-97.631
X170.855Y-103.584
X170.855Y-109.538
X170.855Y-115.491
X170.855Y-121.444
X170.855Y-127.397
X170.855Y-133.35
X176.094Y-64.889
X176.094Y-70.842
X176.094Y-76.795
X176.094Y-82.749
X176.094Y-88.702
X176.094Y-94.655
X176.094Y-100.608
X176.094Y-106.561
X176.094Y-112.514
X176.094Y-118.467
X176.094Y-124.42
X176.094Y-130.374
X178.475Y-67.866
X178.475Y-73.819
X178.475Y-79.772
X178.475Y-85.725
X178.475Y-91.678
X178.475Y-97.631
X178.475Y-103.584
X178.475Y-109.538
X178.475Y-115.491
X178.475Y-121.444
X178.475Y-127.397
X178.475Y-133.35
T8
X16.548Y-133.468
X16.548Y-147.968
X19.048Y-147.968
X21.548Y-133.468
X21.548Y-147.968
X144.137Y-74.152
X144.137Y-76.692
X144.137Y-79.232
X146.677Y-74.152
X146.677Y-76.692
X146.677Y-79.232
T9
X143.588Y-58.781
X143.588Y-63.281
X150.088Y-58.781
X150.088Y-63.281
X154.713Y-58.781
X154.713Y-63.281
X161.213Y-58.781
X161.213Y-63.281
T10
X15.24Y-61.754
X15.24Y-80.804
X15.24Y-99.854
X15.24Y-118.904
X15.24Y-137.954
X21.59Y-59.214
X21.59Y-78.264
X21.59Y-97.314
X21.59Y-116.364
X21.59Y-135.414
X34.29Y-61.754
X34.29Y-80.804
X34.29Y-99.854
X34.29Y-118.904
X34.29Y-137.954
X35.56Y-88.424
X40.64Y-59.214
X40.64Y-78.264
X40.64Y-97.314
X40.64Y-116.364
X40.64Y-135.414
X41.91Y-85.884
X53.34Y-61.754
X53.34Y-80.804
X53.34Y-99.854
X53.34Y-118.904
X53.34Y-137.954
X59.69Y-59.214
X59.69Y-78.264
X59.69Y-97.314
X59.69Y-116.364
X59.69Y-135.414
X72.39Y-61.754
X72.39Y-80.804
X72.39Y-99.854
X72.39Y-118.904
X72.39Y-137.954
X78.74Y-59.214
X78.74Y-78.264
X78.74Y-97.314
X78.74Y-116.364
X78.74Y-135.414
X91.44Y-61.754
X91.44Y-80.804
X91.44Y-99.854
X91.44Y-118.904
X91.44Y-137.954
X97.79Y-59.214
X97.79Y-78.264
X97.79Y-97.314
X97.79Y-116.364
X97.79Y-135.414
X100.965Y-137.954
X107.315Y-135.414
X110.49Y-61.754
X110.49Y-80.804
X110.49Y-99.854
X110.49Y-118.904
X110.49Y-137.954
X116.84Y-59.214
X116.84Y-78.264
X116.84Y-97.314
X116.84Y-116.364
X116.84Y-135.414
X186.69Y-61.754
X186.69Y-80.804
X186.69Y-99.854
X186.69Y-118.904
X186.69Y-137.954
X193.04Y-59.214
X193.04Y-78.264
X193.04Y-97.314
X193.04Y-116.364
X193.04Y-135.414
X196.215Y-137.954
X202.565Y-135.414
X205.74Y-61.754
X205.74Y-80.804
X205.74Y-99.854
X205.74Y-118.904
X205.74Y-137.954
X212.09Y-59.214
X212.09Y-78.264
X212.09Y-97.314
X212.09Y-116.364
X212.09Y-135.414
X224.79Y-61.754
X224.79Y-80.804
X224.79Y-99.854
X224.79Y-118.904
X224.79Y-137.954
X231.14Y-59.214
X231.14Y-78.264
X231.14Y-97.314
X231.14Y-116.364
X231.14Y-135.414
X243.84Y-61.754
X243.84Y-80.804
X243.84Y-99.854
X243.84Y-118.904
X243.84Y-137.954
X250.19Y-59.214
X250.19Y-78.264
X250.19Y-97.314
X250.19Y-116.364
X250.19Y-135.414
X262.89Y-61.754
X262.89Y-80.804
X262.89Y-99.854
X262.89Y-118.904
X262.89Y-137.954
X269.24Y-59.214
X269.24Y-78.264
X269.24Y-97.314
X269.24Y-116.364
X269.24Y-135.414
X281.94Y-61.754
X281.94Y-80.804
X281.94Y-99.854
X281.94Y-118.904
X281.94Y-137.954
X288.29Y-59.214
X288.29Y-78.264
X288.29Y-97.314
X288.29Y-116.364
X288.29Y-135.414
T3
X23.78Y-56.636G85X23.78Y-57.436
G05
X23.78Y-59.666G85X23.78Y-61.166
G05
X32.43Y-56.636G85X32.43Y-57.436
G05
X32.43Y-59.666G85X32.43Y-61.166
G05
T11
X13.448Y-141.118G85X13.448Y-139.818
G05
X24.648Y-141.118G85X24.648Y-139.818
G05
T0
M30
