G04 #@! TF.GenerationSoftware,KiCad,Pcbnew,6.0.4-6f826c9f35~116~ubuntu22.04.1*
G04 #@! TF.CreationDate,2022-03-31T08:40:12+02:00*
G04 #@! TF.ProjectId,lumberjack-split,6c756d62-6572-46a6-9163-6b2d73706c69,rev?*
G04 #@! TF.SameCoordinates,Original*
G04 #@! TF.FileFunction,Copper,L2,Bot*
G04 #@! TF.FilePolarity,Positive*
%FSLAX46Y46*%
G04 Gerber Fmt 4.6, Leading zero omitted, Abs format (unit mm)*
G04 Created by KiCad (PCBNEW 6.0.4-6f826c9f35~116~ubuntu22.04.1) date 2022-03-31 08:40:12*
%MOMM*%
%LPD*%
G01*
G04 APERTURE LIST*
G04 #@! TA.AperFunction,ViaPad*
%ADD10C,0.600000*%
G04 #@! TD*
G04 APERTURE END LIST*
D10*
X121500000Y-69100000D03*
G04 #@! TA.AperFunction,NonConductor*
G36*
X214890202Y-50358343D02*
G01*
X214898200Y-50359610D01*
X214898202Y-50359610D01*
X214907994Y-50361161D01*
X214917790Y-50359609D01*
X214927704Y-50359609D01*
X214927704Y-50359946D01*
X214941287Y-50359412D01*
X215072123Y-50369709D01*
X215122661Y-50373686D01*
X215142187Y-50376779D01*
X215341930Y-50424733D01*
X215360724Y-50430839D01*
X215550508Y-50509451D01*
X215568119Y-50518425D01*
X215743262Y-50625754D01*
X215759258Y-50637375D01*
X215915456Y-50770782D01*
X215929431Y-50784757D01*
X216062845Y-50940968D01*
X216074458Y-50956953D01*
X216181784Y-51132097D01*
X216190760Y-51149714D01*
X216269365Y-51339489D01*
X216275475Y-51358294D01*
X216323424Y-51558029D01*
X216326517Y-51577558D01*
X216340796Y-51759034D01*
X216340267Y-51772514D01*
X216340615Y-51772514D01*
X216340615Y-51782430D01*
X216339063Y-51792225D01*
X216340614Y-51802018D01*
X216340614Y-51802020D01*
X216341881Y-51810019D01*
X216343432Y-51829728D01*
X216343432Y-105430126D01*
X216323430Y-105498247D01*
X216269774Y-105544740D01*
X216217442Y-105556126D01*
X211731489Y-105556496D01*
X211711771Y-105554945D01*
X211709661Y-105554611D01*
X211709659Y-105554611D01*
X211694000Y-105552131D01*
X211694000Y-105552012D01*
X211599313Y-105559108D01*
X211459494Y-105569585D01*
X211459489Y-105569586D01*
X211454789Y-105569938D01*
X211450190Y-105570988D01*
X211450188Y-105570988D01*
X211225521Y-105622267D01*
X211220921Y-105623317D01*
X210997622Y-105710956D01*
X210899033Y-105767877D01*
X210793958Y-105828541D01*
X210793954Y-105828544D01*
X210789878Y-105830897D01*
X210786201Y-105833829D01*
X210786197Y-105833832D01*
X210729961Y-105878679D01*
X210602331Y-105980461D01*
X210599128Y-105983914D01*
X210599127Y-105983914D01*
X210512035Y-106077777D01*
X210439170Y-106156306D01*
X210436514Y-106160202D01*
X210436509Y-106160208D01*
X210358393Y-106274784D01*
X210304040Y-106354506D01*
X210199959Y-106570632D01*
X210129252Y-106799857D01*
X210128551Y-106804507D01*
X210128550Y-106804512D01*
X210113294Y-106905730D01*
X210093500Y-107037059D01*
X210093500Y-107276941D01*
X210094203Y-107281602D01*
X210127305Y-107501224D01*
X210129252Y-107514143D01*
X210199959Y-107743368D01*
X210304040Y-107959494D01*
X210306695Y-107963388D01*
X210306696Y-107963390D01*
X210436509Y-108153792D01*
X210436514Y-108153798D01*
X210439170Y-108157694D01*
X210442380Y-108161154D01*
X210442382Y-108161156D01*
X210467566Y-108188298D01*
X210602331Y-108333539D01*
X210606009Y-108336472D01*
X210606011Y-108336474D01*
X210786197Y-108480168D01*
X210786201Y-108480171D01*
X210789878Y-108483103D01*
X210793954Y-108485456D01*
X210793958Y-108485459D01*
X210899033Y-108546123D01*
X210997622Y-108603044D01*
X211220921Y-108690683D01*
X211225520Y-108691733D01*
X211225521Y-108691733D01*
X211450188Y-108743012D01*
X211450190Y-108743012D01*
X211454789Y-108744062D01*
X211459489Y-108744414D01*
X211459494Y-108744415D01*
X211581988Y-108753594D01*
X211694000Y-108761988D01*
X211694000Y-108761869D01*
X211711840Y-108759043D01*
X211731519Y-108757493D01*
X214519432Y-108756987D01*
X216217409Y-108756679D01*
X216285534Y-108776669D01*
X216332036Y-108830316D01*
X216343432Y-108882679D01*
X216343432Y-143432930D01*
X216341880Y-143452641D01*
X216339063Y-143470426D01*
X216340614Y-143480223D01*
X216340614Y-143490135D01*
X216340278Y-143490135D01*
X216340811Y-143503720D01*
X216326534Y-143685088D01*
X216323441Y-143704616D01*
X216275485Y-143904351D01*
X216269375Y-143923155D01*
X216190766Y-144112926D01*
X216181790Y-144130542D01*
X216074458Y-144305687D01*
X216062836Y-144321683D01*
X215929430Y-144477877D01*
X215915455Y-144491852D01*
X215759246Y-144625265D01*
X215743264Y-144636875D01*
X215568117Y-144744204D01*
X215550500Y-144753180D01*
X215360728Y-144831784D01*
X215341924Y-144837894D01*
X215142184Y-144885847D01*
X215122659Y-144888939D01*
X214993929Y-144899069D01*
X214941120Y-144903225D01*
X214927705Y-144902698D01*
X214927705Y-144903054D01*
X214917786Y-144903054D01*
X214907994Y-144901503D01*
X214898202Y-144903054D01*
X214898201Y-144903054D01*
X214890202Y-144904321D01*
X214870491Y-144905872D01*
X102870336Y-144905872D01*
X102802215Y-144885870D01*
X102755722Y-144832214D01*
X102744336Y-144779872D01*
X102744336Y-141731000D01*
X104551131Y-141731000D01*
X104551515Y-141733422D01*
X104552371Y-141744302D01*
X104552371Y-141744303D01*
X104562698Y-141875527D01*
X104568002Y-141942918D01*
X104617627Y-142149618D01*
X104619517Y-142154181D01*
X104619519Y-142154187D01*
X104697080Y-142341436D01*
X104698975Y-142346010D01*
X104810044Y-142527259D01*
X104948099Y-142688901D01*
X105109741Y-142826956D01*
X105290990Y-142938025D01*
X105295560Y-142939918D01*
X105295564Y-142939920D01*
X105482813Y-143017481D01*
X105482819Y-143017483D01*
X105487382Y-143019373D01*
X105492182Y-143020525D01*
X105492187Y-143020527D01*
X105689274Y-143067844D01*
X105689278Y-143067845D01*
X105694082Y-143068998D01*
X105761588Y-143074310D01*
X105842578Y-143080684D01*
X105844758Y-143081003D01*
X105844906Y-143081055D01*
X105846399Y-143081184D01*
X105847337Y-143081266D01*
X105847347Y-143081266D01*
X105850044Y-143081500D01*
X105852225Y-143081500D01*
X105855362Y-143081691D01*
X105885856Y-143084090D01*
X105903578Y-143085485D01*
X105906000Y-143085869D01*
X105923791Y-143083051D01*
X105943503Y-143081500D01*
X136918497Y-143081500D01*
X136938209Y-143083051D01*
X136956000Y-143085869D01*
X136958422Y-143085485D01*
X136969302Y-143084629D01*
X136969303Y-143084629D01*
X137131408Y-143071871D01*
X137167918Y-143068998D01*
X137172722Y-143067845D01*
X137172726Y-143067844D01*
X137369813Y-143020527D01*
X137369818Y-143020525D01*
X137374618Y-143019373D01*
X137379181Y-143017483D01*
X137379187Y-143017481D01*
X137566436Y-142939920D01*
X137566440Y-142939918D01*
X137571010Y-142938025D01*
X137752259Y-142826956D01*
X137913901Y-142688901D01*
X138051956Y-142527259D01*
X138163025Y-142346010D01*
X138164920Y-142341436D01*
X138242481Y-142154187D01*
X138242483Y-142154181D01*
X138244373Y-142149618D01*
X138293998Y-141942918D01*
X138305684Y-141794422D01*
X138306003Y-141792242D01*
X138306055Y-141792094D01*
X138306500Y-141786956D01*
X138306500Y-141784775D01*
X138306691Y-141781638D01*
X138309590Y-141744793D01*
X138310485Y-141733422D01*
X138310869Y-141731000D01*
X142663631Y-141731000D01*
X142664015Y-141733422D01*
X142664871Y-141744302D01*
X142664871Y-141744303D01*
X142675198Y-141875527D01*
X142680502Y-141942918D01*
X142730127Y-142149618D01*
X142732017Y-142154181D01*
X142732019Y-142154187D01*
X142809580Y-142341436D01*
X142811475Y-142346010D01*
X142922544Y-142527259D01*
X143060599Y-142688901D01*
X143222241Y-142826956D01*
X143403490Y-142938025D01*
X143408060Y-142939918D01*
X143408064Y-142939920D01*
X143595313Y-143017481D01*
X143595319Y-143017483D01*
X143599882Y-143019373D01*
X143604682Y-143020525D01*
X143604687Y-143020527D01*
X143801774Y-143067844D01*
X143801778Y-143067845D01*
X143806582Y-143068998D01*
X143874088Y-143074310D01*
X143955078Y-143080684D01*
X143957258Y-143081003D01*
X143957406Y-143081055D01*
X143958899Y-143081184D01*
X143959837Y-143081266D01*
X143959847Y-143081266D01*
X143962544Y-143081500D01*
X143964725Y-143081500D01*
X143967862Y-143081691D01*
X143998356Y-143084090D01*
X144016078Y-143085485D01*
X144018500Y-143085869D01*
X144036291Y-143083051D01*
X144056003Y-143081500D01*
X155980997Y-143081500D01*
X156000709Y-143083051D01*
X156018500Y-143085869D01*
X156020922Y-143085485D01*
X156031802Y-143084629D01*
X156031803Y-143084629D01*
X156193908Y-143071871D01*
X156230418Y-143068998D01*
X156235222Y-143067845D01*
X156235226Y-143067844D01*
X156432313Y-143020527D01*
X156432318Y-143020525D01*
X156437118Y-143019373D01*
X156441681Y-143017483D01*
X156441687Y-143017481D01*
X156628936Y-142939920D01*
X156628940Y-142939918D01*
X156633510Y-142938025D01*
X156814759Y-142826956D01*
X156976401Y-142688901D01*
X157114456Y-142527259D01*
X157225525Y-142346010D01*
X157227420Y-142341436D01*
X157304981Y-142154187D01*
X157304983Y-142154181D01*
X157306873Y-142149618D01*
X157356498Y-141942918D01*
X157368184Y-141794422D01*
X157368503Y-141792242D01*
X157368555Y-141792094D01*
X157369000Y-141786956D01*
X157369000Y-141784775D01*
X157369191Y-141781638D01*
X157372090Y-141744793D01*
X157372985Y-141733422D01*
X157373369Y-141731000D01*
X161713631Y-141731000D01*
X161714015Y-141733422D01*
X161714871Y-141744302D01*
X161714871Y-141744303D01*
X161725198Y-141875527D01*
X161730502Y-141942918D01*
X161780127Y-142149618D01*
X161782017Y-142154181D01*
X161782019Y-142154187D01*
X161859580Y-142341436D01*
X161861475Y-142346010D01*
X161972544Y-142527259D01*
X162110599Y-142688901D01*
X162272241Y-142826956D01*
X162453490Y-142938025D01*
X162458060Y-142939918D01*
X162458064Y-142939920D01*
X162645313Y-143017481D01*
X162645319Y-143017483D01*
X162649882Y-143019373D01*
X162654682Y-143020525D01*
X162654687Y-143020527D01*
X162851774Y-143067844D01*
X162851778Y-143067845D01*
X162856582Y-143068998D01*
X162924088Y-143074310D01*
X163005078Y-143080684D01*
X163007258Y-143081003D01*
X163007406Y-143081055D01*
X163008899Y-143081184D01*
X163009837Y-143081266D01*
X163009847Y-143081266D01*
X163012544Y-143081500D01*
X163014725Y-143081500D01*
X163017862Y-143081691D01*
X163048356Y-143084090D01*
X163066078Y-143085485D01*
X163068500Y-143085869D01*
X163086291Y-143083051D01*
X163106003Y-143081500D01*
X175030997Y-143081500D01*
X175050709Y-143083051D01*
X175068500Y-143085869D01*
X175070922Y-143085485D01*
X175081802Y-143084629D01*
X175081803Y-143084629D01*
X175243908Y-143071871D01*
X175280418Y-143068998D01*
X175285222Y-143067845D01*
X175285226Y-143067844D01*
X175482313Y-143020527D01*
X175482318Y-143020525D01*
X175487118Y-143019373D01*
X175491681Y-143017483D01*
X175491687Y-143017481D01*
X175678936Y-142939920D01*
X175678940Y-142939918D01*
X175683510Y-142938025D01*
X175864759Y-142826956D01*
X176026401Y-142688901D01*
X176164456Y-142527259D01*
X176275525Y-142346010D01*
X176277420Y-142341436D01*
X176354981Y-142154187D01*
X176354983Y-142154181D01*
X176356873Y-142149618D01*
X176406498Y-141942918D01*
X176418184Y-141794422D01*
X176418503Y-141792242D01*
X176418555Y-141792094D01*
X176419000Y-141786956D01*
X176419000Y-141784775D01*
X176419191Y-141781638D01*
X176422090Y-141744793D01*
X176422985Y-141733422D01*
X176423369Y-141731000D01*
X180763631Y-141731000D01*
X180764015Y-141733422D01*
X180764871Y-141744302D01*
X180764871Y-141744303D01*
X180775198Y-141875527D01*
X180780502Y-141942918D01*
X180830127Y-142149618D01*
X180832017Y-142154181D01*
X180832019Y-142154187D01*
X180909580Y-142341436D01*
X180911475Y-142346010D01*
X181022544Y-142527259D01*
X181160599Y-142688901D01*
X181322241Y-142826956D01*
X181503490Y-142938025D01*
X181508060Y-142939918D01*
X181508064Y-142939920D01*
X181695313Y-143017481D01*
X181695319Y-143017483D01*
X181699882Y-143019373D01*
X181704682Y-143020525D01*
X181704687Y-143020527D01*
X181901774Y-143067844D01*
X181901778Y-143067845D01*
X181906582Y-143068998D01*
X181974088Y-143074310D01*
X182055078Y-143080684D01*
X182057258Y-143081003D01*
X182057406Y-143081055D01*
X182058899Y-143081184D01*
X182059837Y-143081266D01*
X182059847Y-143081266D01*
X182062544Y-143081500D01*
X182064725Y-143081500D01*
X182067862Y-143081691D01*
X182098356Y-143084090D01*
X182116078Y-143085485D01*
X182118500Y-143085869D01*
X182136291Y-143083051D01*
X182156003Y-143081500D01*
X194080997Y-143081500D01*
X194100709Y-143083051D01*
X194118500Y-143085869D01*
X194120922Y-143085485D01*
X194131802Y-143084629D01*
X194131803Y-143084629D01*
X194293908Y-143071871D01*
X194330418Y-143068998D01*
X194335222Y-143067845D01*
X194335226Y-143067844D01*
X194532313Y-143020527D01*
X194532318Y-143020525D01*
X194537118Y-143019373D01*
X194541681Y-143017483D01*
X194541687Y-143017481D01*
X194728936Y-142939920D01*
X194728940Y-142939918D01*
X194733510Y-142938025D01*
X194914759Y-142826956D01*
X195076401Y-142688901D01*
X195214456Y-142527259D01*
X195325525Y-142346010D01*
X195327420Y-142341436D01*
X195404981Y-142154187D01*
X195404983Y-142154181D01*
X195406873Y-142149618D01*
X195456498Y-141942918D01*
X195468184Y-141794422D01*
X195468503Y-141792242D01*
X195468555Y-141792094D01*
X195469000Y-141786956D01*
X195469000Y-141784775D01*
X195469191Y-141781638D01*
X195472090Y-141744793D01*
X195472985Y-141733422D01*
X195473369Y-141731000D01*
X199813631Y-141731000D01*
X199814015Y-141733422D01*
X199814871Y-141744302D01*
X199814871Y-141744303D01*
X199825198Y-141875527D01*
X199830502Y-141942918D01*
X199880127Y-142149618D01*
X199882017Y-142154181D01*
X199882019Y-142154187D01*
X199959580Y-142341436D01*
X199961475Y-142346010D01*
X200072544Y-142527259D01*
X200210599Y-142688901D01*
X200372241Y-142826956D01*
X200553490Y-142938025D01*
X200558060Y-142939918D01*
X200558064Y-142939920D01*
X200745313Y-143017481D01*
X200745319Y-143017483D01*
X200749882Y-143019373D01*
X200754682Y-143020525D01*
X200754687Y-143020527D01*
X200951774Y-143067844D01*
X200951778Y-143067845D01*
X200956582Y-143068998D01*
X201024088Y-143074310D01*
X201105078Y-143080684D01*
X201107258Y-143081003D01*
X201107406Y-143081055D01*
X201108899Y-143081184D01*
X201109837Y-143081266D01*
X201109847Y-143081266D01*
X201112544Y-143081500D01*
X201114725Y-143081500D01*
X201117862Y-143081691D01*
X201148356Y-143084090D01*
X201166078Y-143085485D01*
X201168500Y-143085869D01*
X201186291Y-143083051D01*
X201206003Y-143081500D01*
X213130997Y-143081500D01*
X213150709Y-143083051D01*
X213168500Y-143085869D01*
X213170922Y-143085485D01*
X213181802Y-143084629D01*
X213181803Y-143084629D01*
X213343908Y-143071871D01*
X213380418Y-143068998D01*
X213385222Y-143067845D01*
X213385226Y-143067844D01*
X213582313Y-143020527D01*
X213582318Y-143020525D01*
X213587118Y-143019373D01*
X213591681Y-143017483D01*
X213591687Y-143017481D01*
X213778936Y-142939920D01*
X213778940Y-142939918D01*
X213783510Y-142938025D01*
X213964759Y-142826956D01*
X214126401Y-142688901D01*
X214264456Y-142527259D01*
X214375525Y-142346010D01*
X214377420Y-142341436D01*
X214454981Y-142154187D01*
X214454983Y-142154181D01*
X214456873Y-142149618D01*
X214506498Y-141942918D01*
X214518184Y-141794422D01*
X214518503Y-141792242D01*
X214518555Y-141792094D01*
X214519000Y-141786956D01*
X214519000Y-141784775D01*
X214519191Y-141781638D01*
X214522090Y-141744793D01*
X214522985Y-141733422D01*
X214523369Y-141731000D01*
X214520551Y-141713208D01*
X214519000Y-141693497D01*
X214519000Y-129768503D01*
X214520551Y-129748792D01*
X214521817Y-129740796D01*
X214523369Y-129731000D01*
X214522985Y-129728578D01*
X214521896Y-129714732D01*
X214506886Y-129524013D01*
X214506498Y-129519082D01*
X214462012Y-129333786D01*
X214458027Y-129317187D01*
X214458025Y-129317182D01*
X214456873Y-129312382D01*
X214454983Y-129307819D01*
X214454981Y-129307813D01*
X214377420Y-129120564D01*
X214377418Y-129120560D01*
X214375525Y-129115990D01*
X214264456Y-128934741D01*
X214126401Y-128773099D01*
X213964759Y-128635044D01*
X213783510Y-128523975D01*
X213778940Y-128522082D01*
X213778936Y-128522080D01*
X213591687Y-128444519D01*
X213591681Y-128444517D01*
X213587118Y-128442627D01*
X213582318Y-128441475D01*
X213582313Y-128441473D01*
X213385226Y-128394156D01*
X213385222Y-128394155D01*
X213380418Y-128393002D01*
X213312912Y-128387690D01*
X213231922Y-128381316D01*
X213229742Y-128380997D01*
X213229594Y-128380945D01*
X213228101Y-128380816D01*
X213227163Y-128380734D01*
X213227153Y-128380734D01*
X213224456Y-128380500D01*
X213222275Y-128380500D01*
X213219138Y-128380309D01*
X213188644Y-128377910D01*
X213170922Y-128376515D01*
X213168500Y-128376131D01*
X213151640Y-128378801D01*
X213150708Y-128378949D01*
X213130997Y-128380500D01*
X201206003Y-128380500D01*
X201186292Y-128378949D01*
X201185360Y-128378801D01*
X201168500Y-128376131D01*
X201166078Y-128376515D01*
X201155198Y-128377371D01*
X201155197Y-128377371D01*
X200993092Y-128390129D01*
X200956582Y-128393002D01*
X200951778Y-128394155D01*
X200951774Y-128394156D01*
X200754687Y-128441473D01*
X200754682Y-128441475D01*
X200749882Y-128442627D01*
X200745319Y-128444517D01*
X200745313Y-128444519D01*
X200558064Y-128522080D01*
X200558060Y-128522082D01*
X200553490Y-128523975D01*
X200372241Y-128635044D01*
X200210599Y-128773099D01*
X200072544Y-128934741D01*
X199961475Y-129115990D01*
X199959582Y-129120560D01*
X199959580Y-129120564D01*
X199882019Y-129307813D01*
X199882017Y-129307819D01*
X199880127Y-129312382D01*
X199878975Y-129317182D01*
X199878973Y-129317187D01*
X199874988Y-129333786D01*
X199830502Y-129519082D01*
X199830114Y-129524013D01*
X199818816Y-129667578D01*
X199818497Y-129669758D01*
X199818445Y-129669906D01*
X199818000Y-129675044D01*
X199818000Y-129677225D01*
X199817809Y-129680362D01*
X199815410Y-129710856D01*
X199814015Y-129728578D01*
X199813631Y-129731000D01*
X199815183Y-129740796D01*
X199816449Y-129748792D01*
X199818000Y-129768503D01*
X199818000Y-141693497D01*
X199816449Y-141713208D01*
X199813631Y-141731000D01*
X195473369Y-141731000D01*
X195470551Y-141713208D01*
X195469000Y-141693497D01*
X195469000Y-129768503D01*
X195470551Y-129748792D01*
X195471817Y-129740796D01*
X195473369Y-129731000D01*
X195472985Y-129728578D01*
X195471896Y-129714732D01*
X195456886Y-129524013D01*
X195456498Y-129519082D01*
X195412012Y-129333786D01*
X195408027Y-129317187D01*
X195408025Y-129317182D01*
X195406873Y-129312382D01*
X195404983Y-129307819D01*
X195404981Y-129307813D01*
X195327420Y-129120564D01*
X195327418Y-129120560D01*
X195325525Y-129115990D01*
X195214456Y-128934741D01*
X195076401Y-128773099D01*
X194914759Y-128635044D01*
X194733510Y-128523975D01*
X194728940Y-128522082D01*
X194728936Y-128522080D01*
X194541687Y-128444519D01*
X194541681Y-128444517D01*
X194537118Y-128442627D01*
X194532318Y-128441475D01*
X194532313Y-128441473D01*
X194335226Y-128394156D01*
X194335222Y-128394155D01*
X194330418Y-128393002D01*
X194262912Y-128387690D01*
X194181922Y-128381316D01*
X194179742Y-128380997D01*
X194179594Y-128380945D01*
X194178101Y-128380816D01*
X194177163Y-128380734D01*
X194177153Y-128380734D01*
X194174456Y-128380500D01*
X194172275Y-128380500D01*
X194169138Y-128380309D01*
X194138644Y-128377910D01*
X194120922Y-128376515D01*
X194118500Y-128376131D01*
X194101640Y-128378801D01*
X194100708Y-128378949D01*
X194080997Y-128380500D01*
X182156003Y-128380500D01*
X182136292Y-128378949D01*
X182135360Y-128378801D01*
X182118500Y-128376131D01*
X182116078Y-128376515D01*
X182105198Y-128377371D01*
X182105197Y-128377371D01*
X181943092Y-128390129D01*
X181906582Y-128393002D01*
X181901778Y-128394155D01*
X181901774Y-128394156D01*
X181704687Y-128441473D01*
X181704682Y-128441475D01*
X181699882Y-128442627D01*
X181695319Y-128444517D01*
X181695313Y-128444519D01*
X181508064Y-128522080D01*
X181508060Y-128522082D01*
X181503490Y-128523975D01*
X181322241Y-128635044D01*
X181160599Y-128773099D01*
X181022544Y-128934741D01*
X180911475Y-129115990D01*
X180909582Y-129120560D01*
X180909580Y-129120564D01*
X180832019Y-129307813D01*
X180832017Y-129307819D01*
X180830127Y-129312382D01*
X180828975Y-129317182D01*
X180828973Y-129317187D01*
X180824988Y-129333786D01*
X180780502Y-129519082D01*
X180780114Y-129524013D01*
X180768816Y-129667578D01*
X180768497Y-129669758D01*
X180768445Y-129669906D01*
X180768000Y-129675044D01*
X180768000Y-129677225D01*
X180767809Y-129680362D01*
X180765410Y-129710856D01*
X180764015Y-129728578D01*
X180763631Y-129731000D01*
X180765183Y-129740796D01*
X180766449Y-129748792D01*
X180768000Y-129768503D01*
X180768000Y-141693497D01*
X180766449Y-141713208D01*
X180763631Y-141731000D01*
X176423369Y-141731000D01*
X176420551Y-141713208D01*
X176419000Y-141693497D01*
X176419000Y-129768503D01*
X176420551Y-129748792D01*
X176421817Y-129740796D01*
X176423369Y-129731000D01*
X176422985Y-129728578D01*
X176421896Y-129714732D01*
X176406886Y-129524013D01*
X176406498Y-129519082D01*
X176362012Y-129333786D01*
X176358027Y-129317187D01*
X176358025Y-129317182D01*
X176356873Y-129312382D01*
X176354983Y-129307819D01*
X176354981Y-129307813D01*
X176277420Y-129120564D01*
X176277418Y-129120560D01*
X176275525Y-129115990D01*
X176164456Y-128934741D01*
X176026401Y-128773099D01*
X175864759Y-128635044D01*
X175683510Y-128523975D01*
X175678940Y-128522082D01*
X175678936Y-128522080D01*
X175491687Y-128444519D01*
X175491681Y-128444517D01*
X175487118Y-128442627D01*
X175482318Y-128441475D01*
X175482313Y-128441473D01*
X175285226Y-128394156D01*
X175285222Y-128394155D01*
X175280418Y-128393002D01*
X175212912Y-128387690D01*
X175131922Y-128381316D01*
X175129742Y-128380997D01*
X175129594Y-128380945D01*
X175128101Y-128380816D01*
X175127163Y-128380734D01*
X175127153Y-128380734D01*
X175124456Y-128380500D01*
X175122275Y-128380500D01*
X175119138Y-128380309D01*
X175088644Y-128377910D01*
X175070922Y-128376515D01*
X175068500Y-128376131D01*
X175051640Y-128378801D01*
X175050708Y-128378949D01*
X175030997Y-128380500D01*
X163106003Y-128380500D01*
X163086292Y-128378949D01*
X163085360Y-128378801D01*
X163068500Y-128376131D01*
X163066078Y-128376515D01*
X163055198Y-128377371D01*
X163055197Y-128377371D01*
X162893092Y-128390129D01*
X162856582Y-128393002D01*
X162851778Y-128394155D01*
X162851774Y-128394156D01*
X162654687Y-128441473D01*
X162654682Y-128441475D01*
X162649882Y-128442627D01*
X162645319Y-128444517D01*
X162645313Y-128444519D01*
X162458064Y-128522080D01*
X162458060Y-128522082D01*
X162453490Y-128523975D01*
X162272241Y-128635044D01*
X162110599Y-128773099D01*
X161972544Y-128934741D01*
X161861475Y-129115990D01*
X161859582Y-129120560D01*
X161859580Y-129120564D01*
X161782019Y-129307813D01*
X161782017Y-129307819D01*
X161780127Y-129312382D01*
X161778975Y-129317182D01*
X161778973Y-129317187D01*
X161774988Y-129333786D01*
X161730502Y-129519082D01*
X161730114Y-129524013D01*
X161718816Y-129667578D01*
X161718497Y-129669758D01*
X161718445Y-129669906D01*
X161718000Y-129675044D01*
X161718000Y-129677225D01*
X161717809Y-129680362D01*
X161715410Y-129710856D01*
X161714015Y-129728578D01*
X161713631Y-129731000D01*
X161715183Y-129740796D01*
X161716449Y-129748792D01*
X161718000Y-129768503D01*
X161718000Y-141693497D01*
X161716449Y-141713208D01*
X161713631Y-141731000D01*
X157373369Y-141731000D01*
X157370551Y-141713208D01*
X157369000Y-141693497D01*
X157369000Y-129768503D01*
X157370551Y-129748792D01*
X157371817Y-129740796D01*
X157373369Y-129731000D01*
X157372985Y-129728578D01*
X157371896Y-129714732D01*
X157356886Y-129524013D01*
X157356498Y-129519082D01*
X157312012Y-129333786D01*
X157308027Y-129317187D01*
X157308025Y-129317182D01*
X157306873Y-129312382D01*
X157304983Y-129307819D01*
X157304981Y-129307813D01*
X157227420Y-129120564D01*
X157227418Y-129120560D01*
X157225525Y-129115990D01*
X157114456Y-128934741D01*
X156976401Y-128773099D01*
X156814759Y-128635044D01*
X156633510Y-128523975D01*
X156628940Y-128522082D01*
X156628936Y-128522080D01*
X156441687Y-128444519D01*
X156441681Y-128444517D01*
X156437118Y-128442627D01*
X156432318Y-128441475D01*
X156432313Y-128441473D01*
X156235226Y-128394156D01*
X156235222Y-128394155D01*
X156230418Y-128393002D01*
X156162912Y-128387690D01*
X156081922Y-128381316D01*
X156079742Y-128380997D01*
X156079594Y-128380945D01*
X156078101Y-128380816D01*
X156077163Y-128380734D01*
X156077153Y-128380734D01*
X156074456Y-128380500D01*
X156072275Y-128380500D01*
X156069138Y-128380309D01*
X156038644Y-128377910D01*
X156020922Y-128376515D01*
X156018500Y-128376131D01*
X156001640Y-128378801D01*
X156000708Y-128378949D01*
X155980997Y-128380500D01*
X144056003Y-128380500D01*
X144036292Y-128378949D01*
X144035360Y-128378801D01*
X144018500Y-128376131D01*
X144016078Y-128376515D01*
X144005198Y-128377371D01*
X144005197Y-128377371D01*
X143843092Y-128390129D01*
X143806582Y-128393002D01*
X143801778Y-128394155D01*
X143801774Y-128394156D01*
X143604687Y-128441473D01*
X143604682Y-128441475D01*
X143599882Y-128442627D01*
X143595319Y-128444517D01*
X143595313Y-128444519D01*
X143408064Y-128522080D01*
X143408060Y-128522082D01*
X143403490Y-128523975D01*
X143222241Y-128635044D01*
X143060599Y-128773099D01*
X142922544Y-128934741D01*
X142811475Y-129115990D01*
X142809582Y-129120560D01*
X142809580Y-129120564D01*
X142732019Y-129307813D01*
X142732017Y-129307819D01*
X142730127Y-129312382D01*
X142728975Y-129317182D01*
X142728973Y-129317187D01*
X142724988Y-129333786D01*
X142680502Y-129519082D01*
X142680114Y-129524013D01*
X142668816Y-129667578D01*
X142668497Y-129669758D01*
X142668445Y-129669906D01*
X142668000Y-129675044D01*
X142668000Y-129677225D01*
X142667809Y-129680362D01*
X142665410Y-129710856D01*
X142664015Y-129728578D01*
X142663631Y-129731000D01*
X142665183Y-129740796D01*
X142666449Y-129748792D01*
X142668000Y-129768503D01*
X142668000Y-141693497D01*
X142666449Y-141713208D01*
X142663631Y-141731000D01*
X138310869Y-141731000D01*
X138308051Y-141713208D01*
X138306500Y-141693497D01*
X138306500Y-129768503D01*
X138308051Y-129748792D01*
X138309317Y-129740798D01*
X138309317Y-129740796D01*
X138310869Y-129731000D01*
X138310484Y-129728572D01*
X138294082Y-129519621D01*
X138292933Y-129514822D01*
X138292932Y-129514816D01*
X138245861Y-129318231D01*
X138245861Y-129318230D01*
X138244709Y-129313420D01*
X138207445Y-129223200D01*
X138165651Y-129122012D01*
X138165649Y-129122009D01*
X138163766Y-129117449D01*
X138151754Y-129097784D01*
X138055811Y-128940724D01*
X138053236Y-128936508D01*
X137960013Y-128826956D01*
X137919023Y-128778786D01*
X137919018Y-128778781D01*
X137915827Y-128775031D01*
X137815433Y-128688901D01*
X137758652Y-128640187D01*
X137758648Y-128640184D01*
X137754904Y-128636972D01*
X137576522Y-128527017D01*
X137574518Y-128525552D01*
X137574507Y-128525548D01*
X137574498Y-128525542D01*
X137567577Y-128523272D01*
X137563575Y-128521137D01*
X137562297Y-128520895D01*
X137559482Y-128519526D01*
X137545140Y-128511348D01*
X137465461Y-128458714D01*
X137444250Y-128441085D01*
X137364772Y-128358742D01*
X137347909Y-128336924D01*
X137288254Y-128239264D01*
X137276540Y-128214298D01*
X137239558Y-128105991D01*
X137233556Y-128079072D01*
X137223077Y-127983939D01*
X137222319Y-127970150D01*
X137222319Y-127961328D01*
X137223869Y-127951535D01*
X137221053Y-127933762D01*
X137219501Y-127914044D01*
X137219501Y-127768503D01*
X137221052Y-127748792D01*
X137221490Y-127746028D01*
X137223870Y-127731000D01*
X137223484Y-127728566D01*
X137206998Y-127519082D01*
X137157374Y-127312382D01*
X137155482Y-127307813D01*
X137120433Y-127223200D01*
X137076025Y-127115990D01*
X136964956Y-126934742D01*
X136826901Y-126773100D01*
X136665259Y-126635045D01*
X136484011Y-126523975D01*
X136479441Y-126522082D01*
X136479439Y-126522081D01*
X136292192Y-126444521D01*
X136292190Y-126444520D01*
X136287619Y-126442627D01*
X136216022Y-126425438D01*
X136085732Y-126394158D01*
X136085726Y-126394157D01*
X136080919Y-126393003D01*
X135932419Y-126381316D01*
X135930239Y-126380996D01*
X135930094Y-126380945D01*
X135929598Y-126380902D01*
X135929591Y-126380901D01*
X135927661Y-126380734D01*
X135927655Y-126380734D01*
X135924956Y-126380500D01*
X135922773Y-126380500D01*
X135919632Y-126380309D01*
X135897018Y-126378529D01*
X135871423Y-126376515D01*
X135869001Y-126376131D01*
X135852141Y-126378801D01*
X135851209Y-126378949D01*
X135831498Y-126380500D01*
X130906503Y-126380500D01*
X130886792Y-126378949D01*
X130885860Y-126378801D01*
X130869000Y-126376131D01*
X130866578Y-126376515D01*
X130855698Y-126377371D01*
X130855697Y-126377371D01*
X130693592Y-126390129D01*
X130657082Y-126393002D01*
X130652278Y-126394155D01*
X130652274Y-126394156D01*
X130455187Y-126441473D01*
X130455182Y-126441475D01*
X130450382Y-126442627D01*
X130445819Y-126444517D01*
X130445813Y-126444519D01*
X130258564Y-126522080D01*
X130258560Y-126522082D01*
X130253990Y-126523975D01*
X130072741Y-126635044D01*
X129911099Y-126773099D01*
X129773044Y-126934741D01*
X129661975Y-127115990D01*
X129660084Y-127120556D01*
X129660080Y-127120564D01*
X129582519Y-127307813D01*
X129582517Y-127307819D01*
X129580627Y-127312382D01*
X129531002Y-127519082D01*
X129514515Y-127728578D01*
X129514131Y-127731000D01*
X129515684Y-127740799D01*
X129515683Y-127748932D01*
X129514891Y-127763032D01*
X129503805Y-127861421D01*
X129497526Y-127888928D01*
X129458868Y-127999407D01*
X129446631Y-128024820D01*
X129384349Y-128123943D01*
X129366759Y-128145998D01*
X129283998Y-128228759D01*
X129261943Y-128246349D01*
X129162820Y-128308631D01*
X129137407Y-128320868D01*
X129026928Y-128359526D01*
X128999421Y-128365805D01*
X128916611Y-128375136D01*
X128901040Y-128376890D01*
X128886933Y-128377682D01*
X128878792Y-128377682D01*
X128869000Y-128376131D01*
X128859208Y-128377682D01*
X128859207Y-128377682D01*
X128851208Y-128378949D01*
X128831497Y-128380500D01*
X114030503Y-128380500D01*
X114010792Y-128378949D01*
X114002793Y-128377682D01*
X114002792Y-128377682D01*
X113993000Y-128376131D01*
X113983208Y-128377682D01*
X113975067Y-128377682D01*
X113960960Y-128376890D01*
X113945389Y-128375136D01*
X113862579Y-128365805D01*
X113835072Y-128359526D01*
X113724593Y-128320868D01*
X113699180Y-128308631D01*
X113600057Y-128246349D01*
X113578002Y-128228759D01*
X113495241Y-128145998D01*
X113477651Y-128123943D01*
X113415369Y-128024820D01*
X113403132Y-127999407D01*
X113364474Y-127888928D01*
X113358195Y-127861421D01*
X113347110Y-127763040D01*
X113346318Y-127748940D01*
X113346317Y-127740798D01*
X113347869Y-127731000D01*
X113347485Y-127728578D01*
X113346629Y-127717691D01*
X113331386Y-127524013D01*
X113330998Y-127519082D01*
X113281373Y-127312382D01*
X113279483Y-127307819D01*
X113279481Y-127307813D01*
X113201920Y-127120564D01*
X113201916Y-127120556D01*
X113200025Y-127115990D01*
X113088956Y-126934741D01*
X112950901Y-126773099D01*
X112789259Y-126635044D01*
X112608010Y-126523975D01*
X112603440Y-126522082D01*
X112603436Y-126522080D01*
X112416187Y-126444519D01*
X112416181Y-126444517D01*
X112411618Y-126442627D01*
X112406818Y-126441475D01*
X112406813Y-126441473D01*
X112209726Y-126394156D01*
X112209722Y-126394155D01*
X112204918Y-126393002D01*
X112137412Y-126387690D01*
X112056422Y-126381316D01*
X112054242Y-126380997D01*
X112054094Y-126380945D01*
X112052601Y-126380816D01*
X112051663Y-126380734D01*
X112051653Y-126380734D01*
X112048956Y-126380500D01*
X112046775Y-126380500D01*
X112043638Y-126380309D01*
X112013144Y-126377910D01*
X111995422Y-126376515D01*
X111993000Y-126376131D01*
X111976140Y-126378801D01*
X111975208Y-126378949D01*
X111955497Y-126380500D01*
X107030502Y-126380500D01*
X107010791Y-126378949D01*
X107009859Y-126378801D01*
X106992999Y-126376131D01*
X106990589Y-126376513D01*
X106781081Y-126393002D01*
X106776274Y-126394156D01*
X106776268Y-126394157D01*
X106645978Y-126425437D01*
X106574381Y-126442626D01*
X106569810Y-126444519D01*
X106569808Y-126444520D01*
X106382563Y-126522079D01*
X106382559Y-126522081D01*
X106377989Y-126523974D01*
X106196740Y-126635044D01*
X106035098Y-126773099D01*
X105897043Y-126934741D01*
X105785974Y-127115990D01*
X105784083Y-127120556D01*
X105784079Y-127120564D01*
X105706518Y-127307813D01*
X105706516Y-127307819D01*
X105704626Y-127312382D01*
X105655001Y-127519082D01*
X105654613Y-127524013D01*
X105643315Y-127667578D01*
X105642996Y-127669758D01*
X105642944Y-127669906D01*
X105642499Y-127675044D01*
X105642499Y-127677225D01*
X105642308Y-127680362D01*
X105639909Y-127710856D01*
X105638514Y-127728578D01*
X105638130Y-127731000D01*
X105640683Y-127747118D01*
X105640948Y-127748792D01*
X105642499Y-127768503D01*
X105642499Y-127914068D01*
X105640949Y-127933772D01*
X105638131Y-127951570D01*
X105639683Y-127961363D01*
X105639683Y-127970244D01*
X105638926Y-127984037D01*
X105628465Y-128079072D01*
X105628462Y-128079095D01*
X105622460Y-128106020D01*
X105585488Y-128214307D01*
X105573772Y-128239279D01*
X105543948Y-128288102D01*
X105514121Y-128336928D01*
X105497260Y-128358741D01*
X105417779Y-128441078D01*
X105396568Y-128458703D01*
X105316512Y-128511574D01*
X105306262Y-128517668D01*
X105297849Y-128522144D01*
X105287524Y-128525531D01*
X105287515Y-128525538D01*
X105287502Y-128525542D01*
X105285534Y-128526980D01*
X105275341Y-128533263D01*
X105111302Y-128634378D01*
X105111299Y-128634380D01*
X105107096Y-128636971D01*
X105103352Y-128640183D01*
X105103348Y-128640186D01*
X105103347Y-128640187D01*
X104946173Y-128775030D01*
X104942982Y-128778780D01*
X104942977Y-128778785D01*
X104901986Y-128826956D01*
X104808763Y-128936508D01*
X104806188Y-128940724D01*
X104710246Y-129097784D01*
X104698233Y-129117449D01*
X104696350Y-129122009D01*
X104696348Y-129122012D01*
X104654554Y-129223200D01*
X104617290Y-129313420D01*
X104616138Y-129318230D01*
X104616138Y-129318231D01*
X104612414Y-129333785D01*
X104567917Y-129519621D01*
X104567531Y-129524542D01*
X104567531Y-129524544D01*
X104556297Y-129667648D01*
X104555983Y-129669798D01*
X104555945Y-129669906D01*
X104555500Y-129675044D01*
X104555500Y-129677145D01*
X104555324Y-129680044D01*
X104551514Y-129728584D01*
X104551131Y-129731000D01*
X104552683Y-129740796D01*
X104553949Y-129748792D01*
X104555500Y-129768503D01*
X104555500Y-141693497D01*
X104553949Y-141713208D01*
X104551131Y-141731000D01*
X102744336Y-141731000D01*
X102744336Y-122681000D01*
X104563631Y-122681000D01*
X104564015Y-122683422D01*
X104564871Y-122694302D01*
X104564871Y-122694303D01*
X104575198Y-122825527D01*
X104580502Y-122892918D01*
X104630127Y-123099618D01*
X104632017Y-123104181D01*
X104632019Y-123104187D01*
X104709580Y-123291436D01*
X104711475Y-123296010D01*
X104822544Y-123477259D01*
X104960599Y-123638901D01*
X105122241Y-123776956D01*
X105303490Y-123888025D01*
X105308060Y-123889918D01*
X105308064Y-123889920D01*
X105495313Y-123967481D01*
X105495319Y-123967483D01*
X105499882Y-123969373D01*
X105504682Y-123970525D01*
X105504687Y-123970527D01*
X105701774Y-124017844D01*
X105701778Y-124017845D01*
X105706582Y-124018998D01*
X105774088Y-124024310D01*
X105855078Y-124030684D01*
X105857258Y-124031003D01*
X105857406Y-124031055D01*
X105858899Y-124031184D01*
X105859837Y-124031266D01*
X105859847Y-124031266D01*
X105862544Y-124031500D01*
X105864725Y-124031500D01*
X105867862Y-124031691D01*
X105898356Y-124034090D01*
X105916078Y-124035485D01*
X105918500Y-124035869D01*
X105936291Y-124033051D01*
X105956003Y-124031500D01*
X117880997Y-124031500D01*
X117900709Y-124033051D01*
X117918500Y-124035869D01*
X117920922Y-124035485D01*
X117931802Y-124034629D01*
X117931803Y-124034629D01*
X118093908Y-124021871D01*
X118130418Y-124018998D01*
X118135222Y-124017845D01*
X118135226Y-124017844D01*
X118332313Y-123970527D01*
X118332318Y-123970525D01*
X118337118Y-123969373D01*
X118341681Y-123967483D01*
X118341687Y-123967481D01*
X118528936Y-123889920D01*
X118528940Y-123889918D01*
X118533510Y-123888025D01*
X118714759Y-123776956D01*
X118876401Y-123638901D01*
X119014456Y-123477259D01*
X119125525Y-123296010D01*
X119127420Y-123291436D01*
X119204981Y-123104187D01*
X119204983Y-123104181D01*
X119206873Y-123099618D01*
X119256498Y-122892918D01*
X119268184Y-122744422D01*
X119268503Y-122742242D01*
X119268555Y-122742094D01*
X119269000Y-122736956D01*
X119269000Y-122734775D01*
X119269191Y-122731638D01*
X119272090Y-122694793D01*
X119272985Y-122683422D01*
X119273369Y-122681000D01*
X123613631Y-122681000D01*
X123614015Y-122683422D01*
X123614871Y-122694302D01*
X123614871Y-122694303D01*
X123625198Y-122825527D01*
X123630502Y-122892918D01*
X123680127Y-123099618D01*
X123682017Y-123104181D01*
X123682019Y-123104187D01*
X123759580Y-123291436D01*
X123761475Y-123296010D01*
X123872544Y-123477259D01*
X124010599Y-123638901D01*
X124172241Y-123776956D01*
X124353490Y-123888025D01*
X124358060Y-123889918D01*
X124358064Y-123889920D01*
X124545313Y-123967481D01*
X124545319Y-123967483D01*
X124549882Y-123969373D01*
X124554682Y-123970525D01*
X124554687Y-123970527D01*
X124751774Y-124017844D01*
X124751778Y-124017845D01*
X124756582Y-124018998D01*
X124824088Y-124024310D01*
X124905078Y-124030684D01*
X124907258Y-124031003D01*
X124907406Y-124031055D01*
X124908899Y-124031184D01*
X124909837Y-124031266D01*
X124909847Y-124031266D01*
X124912544Y-124031500D01*
X124914725Y-124031500D01*
X124917862Y-124031691D01*
X124948356Y-124034090D01*
X124966078Y-124035485D01*
X124968500Y-124035869D01*
X124986291Y-124033051D01*
X125006003Y-124031500D01*
X136930997Y-124031500D01*
X136950709Y-124033051D01*
X136968500Y-124035869D01*
X136970922Y-124035485D01*
X136981802Y-124034629D01*
X136981803Y-124034629D01*
X137143908Y-124021871D01*
X137180418Y-124018998D01*
X137185222Y-124017845D01*
X137185226Y-124017844D01*
X137382313Y-123970527D01*
X137382318Y-123970525D01*
X137387118Y-123969373D01*
X137391681Y-123967483D01*
X137391687Y-123967481D01*
X137578936Y-123889920D01*
X137578940Y-123889918D01*
X137583510Y-123888025D01*
X137764759Y-123776956D01*
X137926401Y-123638901D01*
X138064456Y-123477259D01*
X138175525Y-123296010D01*
X138177420Y-123291436D01*
X138254981Y-123104187D01*
X138254983Y-123104181D01*
X138256873Y-123099618D01*
X138306498Y-122892918D01*
X138318184Y-122744422D01*
X138318503Y-122742242D01*
X138318555Y-122742094D01*
X138319000Y-122736956D01*
X138319000Y-122734775D01*
X138319191Y-122731638D01*
X138322090Y-122694793D01*
X138322985Y-122683422D01*
X138323369Y-122681000D01*
X142663631Y-122681000D01*
X142664015Y-122683422D01*
X142664871Y-122694302D01*
X142664871Y-122694303D01*
X142675198Y-122825527D01*
X142680502Y-122892918D01*
X142730127Y-123099618D01*
X142732017Y-123104181D01*
X142732019Y-123104187D01*
X142809580Y-123291436D01*
X142811475Y-123296010D01*
X142922544Y-123477259D01*
X143060599Y-123638901D01*
X143222241Y-123776956D01*
X143403490Y-123888025D01*
X143408060Y-123889918D01*
X143408064Y-123889920D01*
X143595313Y-123967481D01*
X143595319Y-123967483D01*
X143599882Y-123969373D01*
X143604682Y-123970525D01*
X143604687Y-123970527D01*
X143801774Y-124017844D01*
X143801778Y-124017845D01*
X143806582Y-124018998D01*
X143874088Y-124024310D01*
X143955078Y-124030684D01*
X143957258Y-124031003D01*
X143957406Y-124031055D01*
X143958899Y-124031184D01*
X143959837Y-124031266D01*
X143959847Y-124031266D01*
X143962544Y-124031500D01*
X143964725Y-124031500D01*
X143967862Y-124031691D01*
X143998356Y-124034090D01*
X144016078Y-124035485D01*
X144018500Y-124035869D01*
X144036291Y-124033051D01*
X144056003Y-124031500D01*
X155980997Y-124031500D01*
X156000709Y-124033051D01*
X156018500Y-124035869D01*
X156020922Y-124035485D01*
X156031802Y-124034629D01*
X156031803Y-124034629D01*
X156193908Y-124021871D01*
X156230418Y-124018998D01*
X156235222Y-124017845D01*
X156235226Y-124017844D01*
X156432313Y-123970527D01*
X156432318Y-123970525D01*
X156437118Y-123969373D01*
X156441681Y-123967483D01*
X156441687Y-123967481D01*
X156628936Y-123889920D01*
X156628940Y-123889918D01*
X156633510Y-123888025D01*
X156814759Y-123776956D01*
X156976401Y-123638901D01*
X157114456Y-123477259D01*
X157225525Y-123296010D01*
X157227420Y-123291436D01*
X157304981Y-123104187D01*
X157304983Y-123104181D01*
X157306873Y-123099618D01*
X157356498Y-122892918D01*
X157368184Y-122744422D01*
X157368503Y-122742242D01*
X157368555Y-122742094D01*
X157369000Y-122736956D01*
X157369000Y-122734775D01*
X157369191Y-122731638D01*
X157372090Y-122694793D01*
X157372985Y-122683422D01*
X157373369Y-122681000D01*
X161713631Y-122681000D01*
X161714015Y-122683422D01*
X161714871Y-122694302D01*
X161714871Y-122694303D01*
X161725198Y-122825527D01*
X161730502Y-122892918D01*
X161780127Y-123099618D01*
X161782017Y-123104181D01*
X161782019Y-123104187D01*
X161859580Y-123291436D01*
X161861475Y-123296010D01*
X161972544Y-123477259D01*
X162110599Y-123638901D01*
X162272241Y-123776956D01*
X162453490Y-123888025D01*
X162458060Y-123889918D01*
X162458064Y-123889920D01*
X162645313Y-123967481D01*
X162645319Y-123967483D01*
X162649882Y-123969373D01*
X162654682Y-123970525D01*
X162654687Y-123970527D01*
X162851774Y-124017844D01*
X162851778Y-124017845D01*
X162856582Y-124018998D01*
X162924088Y-124024310D01*
X163005078Y-124030684D01*
X163007258Y-124031003D01*
X163007406Y-124031055D01*
X163008899Y-124031184D01*
X163009837Y-124031266D01*
X163009847Y-124031266D01*
X163012544Y-124031500D01*
X163014725Y-124031500D01*
X163017862Y-124031691D01*
X163048356Y-124034090D01*
X163066078Y-124035485D01*
X163068500Y-124035869D01*
X163086291Y-124033051D01*
X163106003Y-124031500D01*
X175030997Y-124031500D01*
X175050709Y-124033051D01*
X175068500Y-124035869D01*
X175070922Y-124035485D01*
X175081802Y-124034629D01*
X175081803Y-124034629D01*
X175243908Y-124021871D01*
X175280418Y-124018998D01*
X175285222Y-124017845D01*
X175285226Y-124017844D01*
X175482313Y-123970527D01*
X175482318Y-123970525D01*
X175487118Y-123969373D01*
X175491681Y-123967483D01*
X175491687Y-123967481D01*
X175678936Y-123889920D01*
X175678940Y-123889918D01*
X175683510Y-123888025D01*
X175864759Y-123776956D01*
X176026401Y-123638901D01*
X176164456Y-123477259D01*
X176275525Y-123296010D01*
X176277420Y-123291436D01*
X176354981Y-123104187D01*
X176354983Y-123104181D01*
X176356873Y-123099618D01*
X176406498Y-122892918D01*
X176418184Y-122744422D01*
X176418503Y-122742242D01*
X176418555Y-122742094D01*
X176419000Y-122736956D01*
X176419000Y-122734775D01*
X176419191Y-122731638D01*
X176422090Y-122694793D01*
X176422985Y-122683422D01*
X176423369Y-122681000D01*
X180763631Y-122681000D01*
X180764015Y-122683422D01*
X180764871Y-122694302D01*
X180764871Y-122694303D01*
X180775198Y-122825527D01*
X180780502Y-122892918D01*
X180830127Y-123099618D01*
X180832017Y-123104181D01*
X180832019Y-123104187D01*
X180909580Y-123291436D01*
X180911475Y-123296010D01*
X181022544Y-123477259D01*
X181160599Y-123638901D01*
X181322241Y-123776956D01*
X181503490Y-123888025D01*
X181508060Y-123889918D01*
X181508064Y-123889920D01*
X181695313Y-123967481D01*
X181695319Y-123967483D01*
X181699882Y-123969373D01*
X181704682Y-123970525D01*
X181704687Y-123970527D01*
X181901774Y-124017844D01*
X181901778Y-124017845D01*
X181906582Y-124018998D01*
X181974088Y-124024310D01*
X182055078Y-124030684D01*
X182057258Y-124031003D01*
X182057406Y-124031055D01*
X182058899Y-124031184D01*
X182059837Y-124031266D01*
X182059847Y-124031266D01*
X182062544Y-124031500D01*
X182064725Y-124031500D01*
X182067862Y-124031691D01*
X182098356Y-124034090D01*
X182116078Y-124035485D01*
X182118500Y-124035869D01*
X182136291Y-124033051D01*
X182156003Y-124031500D01*
X194080997Y-124031500D01*
X194100709Y-124033051D01*
X194118500Y-124035869D01*
X194120922Y-124035485D01*
X194131802Y-124034629D01*
X194131803Y-124034629D01*
X194293908Y-124021871D01*
X194330418Y-124018998D01*
X194335222Y-124017845D01*
X194335226Y-124017844D01*
X194532313Y-123970527D01*
X194532318Y-123970525D01*
X194537118Y-123969373D01*
X194541681Y-123967483D01*
X194541687Y-123967481D01*
X194728936Y-123889920D01*
X194728940Y-123889918D01*
X194733510Y-123888025D01*
X194914759Y-123776956D01*
X195076401Y-123638901D01*
X195214456Y-123477259D01*
X195325525Y-123296010D01*
X195327420Y-123291436D01*
X195404981Y-123104187D01*
X195404983Y-123104181D01*
X195406873Y-123099618D01*
X195456498Y-122892918D01*
X195468184Y-122744422D01*
X195468503Y-122742242D01*
X195468555Y-122742094D01*
X195469000Y-122736956D01*
X195469000Y-122734775D01*
X195469191Y-122731638D01*
X195472090Y-122694793D01*
X195472985Y-122683422D01*
X195473369Y-122681000D01*
X199813631Y-122681000D01*
X199814015Y-122683422D01*
X199814871Y-122694302D01*
X199814871Y-122694303D01*
X199825198Y-122825527D01*
X199830502Y-122892918D01*
X199880127Y-123099618D01*
X199882017Y-123104181D01*
X199882019Y-123104187D01*
X199959580Y-123291436D01*
X199961475Y-123296010D01*
X200072544Y-123477259D01*
X200210599Y-123638901D01*
X200372241Y-123776956D01*
X200553490Y-123888025D01*
X200558060Y-123889918D01*
X200558064Y-123889920D01*
X200745313Y-123967481D01*
X200745319Y-123967483D01*
X200749882Y-123969373D01*
X200754682Y-123970525D01*
X200754687Y-123970527D01*
X200951774Y-124017844D01*
X200951778Y-124017845D01*
X200956582Y-124018998D01*
X201024088Y-124024310D01*
X201105078Y-124030684D01*
X201107258Y-124031003D01*
X201107406Y-124031055D01*
X201108899Y-124031184D01*
X201109837Y-124031266D01*
X201109847Y-124031266D01*
X201112544Y-124031500D01*
X201114725Y-124031500D01*
X201117862Y-124031691D01*
X201148356Y-124034090D01*
X201166078Y-124035485D01*
X201168500Y-124035869D01*
X201186291Y-124033051D01*
X201206003Y-124031500D01*
X213130997Y-124031500D01*
X213150709Y-124033051D01*
X213168500Y-124035869D01*
X213170922Y-124035485D01*
X213181802Y-124034629D01*
X213181803Y-124034629D01*
X213343908Y-124021871D01*
X213380418Y-124018998D01*
X213385222Y-124017845D01*
X213385226Y-124017844D01*
X213582313Y-123970527D01*
X213582318Y-123970525D01*
X213587118Y-123969373D01*
X213591681Y-123967483D01*
X213591687Y-123967481D01*
X213778936Y-123889920D01*
X213778940Y-123889918D01*
X213783510Y-123888025D01*
X213964759Y-123776956D01*
X214126401Y-123638901D01*
X214264456Y-123477259D01*
X214375525Y-123296010D01*
X214377420Y-123291436D01*
X214454981Y-123104187D01*
X214454983Y-123104181D01*
X214456873Y-123099618D01*
X214506498Y-122892918D01*
X214518184Y-122744422D01*
X214518503Y-122742242D01*
X214518555Y-122742094D01*
X214519000Y-122736956D01*
X214519000Y-122734775D01*
X214519191Y-122731638D01*
X214522090Y-122694793D01*
X214522985Y-122683422D01*
X214523369Y-122681000D01*
X214520551Y-122663208D01*
X214519000Y-122643497D01*
X214519000Y-110718503D01*
X214520551Y-110698792D01*
X214521817Y-110690796D01*
X214523369Y-110681000D01*
X214522985Y-110678578D01*
X214519191Y-110630362D01*
X214506886Y-110474013D01*
X214506498Y-110469082D01*
X214456873Y-110262382D01*
X214454983Y-110257819D01*
X214454981Y-110257813D01*
X214377420Y-110070564D01*
X214377418Y-110070560D01*
X214375525Y-110065990D01*
X214264456Y-109884741D01*
X214126401Y-109723099D01*
X213964759Y-109585044D01*
X213783510Y-109473975D01*
X213778940Y-109472082D01*
X213778936Y-109472080D01*
X213591687Y-109394519D01*
X213591681Y-109394517D01*
X213587118Y-109392627D01*
X213582318Y-109391475D01*
X213582313Y-109391473D01*
X213385226Y-109344156D01*
X213385222Y-109344155D01*
X213380418Y-109343002D01*
X213312911Y-109337690D01*
X213231922Y-109331316D01*
X213229742Y-109330997D01*
X213229594Y-109330945D01*
X213228101Y-109330816D01*
X213227163Y-109330734D01*
X213227153Y-109330734D01*
X213224456Y-109330500D01*
X213222275Y-109330500D01*
X213219138Y-109330309D01*
X213188644Y-109327910D01*
X213170922Y-109326515D01*
X213168500Y-109326131D01*
X213151640Y-109328801D01*
X213150708Y-109328949D01*
X213130997Y-109330500D01*
X201206003Y-109330500D01*
X201186292Y-109328949D01*
X201185360Y-109328801D01*
X201168500Y-109326131D01*
X201166078Y-109326515D01*
X201155198Y-109327371D01*
X201155197Y-109327371D01*
X200993092Y-109340129D01*
X200956582Y-109343002D01*
X200951778Y-109344155D01*
X200951774Y-109344156D01*
X200754687Y-109391473D01*
X200754682Y-109391475D01*
X200749882Y-109392627D01*
X200745319Y-109394517D01*
X200745313Y-109394519D01*
X200558064Y-109472080D01*
X200558060Y-109472082D01*
X200553490Y-109473975D01*
X200372241Y-109585044D01*
X200210599Y-109723099D01*
X200072544Y-109884741D01*
X199961475Y-110065990D01*
X199959582Y-110070560D01*
X199959580Y-110070564D01*
X199882019Y-110257813D01*
X199882017Y-110257819D01*
X199880127Y-110262382D01*
X199830502Y-110469082D01*
X199830114Y-110474013D01*
X199818816Y-110617578D01*
X199818497Y-110619758D01*
X199818445Y-110619906D01*
X199818000Y-110625044D01*
X199818000Y-110627225D01*
X199817809Y-110630362D01*
X199815410Y-110660856D01*
X199814015Y-110678578D01*
X199813631Y-110681000D01*
X199815183Y-110690796D01*
X199816449Y-110698792D01*
X199818000Y-110718503D01*
X199818000Y-122643497D01*
X199816449Y-122663208D01*
X199813631Y-122681000D01*
X195473369Y-122681000D01*
X195470551Y-122663208D01*
X195469000Y-122643497D01*
X195469000Y-110718503D01*
X195470551Y-110698792D01*
X195471817Y-110690796D01*
X195473369Y-110681000D01*
X195472985Y-110678578D01*
X195469191Y-110630362D01*
X195456886Y-110474013D01*
X195456498Y-110469082D01*
X195406873Y-110262382D01*
X195404983Y-110257819D01*
X195404981Y-110257813D01*
X195327420Y-110070564D01*
X195327418Y-110070560D01*
X195325525Y-110065990D01*
X195214456Y-109884741D01*
X195076401Y-109723099D01*
X194914759Y-109585044D01*
X194733510Y-109473975D01*
X194728940Y-109472082D01*
X194728936Y-109472080D01*
X194541687Y-109394519D01*
X194541681Y-109394517D01*
X194537118Y-109392627D01*
X194532318Y-109391475D01*
X194532313Y-109391473D01*
X194335226Y-109344156D01*
X194335222Y-109344155D01*
X194330418Y-109343002D01*
X194262911Y-109337690D01*
X194181922Y-109331316D01*
X194179742Y-109330997D01*
X194179594Y-109330945D01*
X194178101Y-109330816D01*
X194177163Y-109330734D01*
X194177153Y-109330734D01*
X194174456Y-109330500D01*
X194172275Y-109330500D01*
X194169138Y-109330309D01*
X194138644Y-109327910D01*
X194120922Y-109326515D01*
X194118500Y-109326131D01*
X194101640Y-109328801D01*
X194100708Y-109328949D01*
X194080997Y-109330500D01*
X182156003Y-109330500D01*
X182136292Y-109328949D01*
X182135360Y-109328801D01*
X182118500Y-109326131D01*
X182116078Y-109326515D01*
X182105198Y-109327371D01*
X182105197Y-109327371D01*
X181943092Y-109340129D01*
X181906582Y-109343002D01*
X181901778Y-109344155D01*
X181901774Y-109344156D01*
X181704687Y-109391473D01*
X181704682Y-109391475D01*
X181699882Y-109392627D01*
X181695319Y-109394517D01*
X181695313Y-109394519D01*
X181508064Y-109472080D01*
X181508060Y-109472082D01*
X181503490Y-109473975D01*
X181322241Y-109585044D01*
X181160599Y-109723099D01*
X181022544Y-109884741D01*
X180911475Y-110065990D01*
X180909582Y-110070560D01*
X180909580Y-110070564D01*
X180832019Y-110257813D01*
X180832017Y-110257819D01*
X180830127Y-110262382D01*
X180780502Y-110469082D01*
X180780114Y-110474013D01*
X180768816Y-110617578D01*
X180768497Y-110619758D01*
X180768445Y-110619906D01*
X180768000Y-110625044D01*
X180768000Y-110627225D01*
X180767809Y-110630362D01*
X180765410Y-110660856D01*
X180764015Y-110678578D01*
X180763631Y-110681000D01*
X180765183Y-110690796D01*
X180766449Y-110698792D01*
X180768000Y-110718503D01*
X180768000Y-122643497D01*
X180766449Y-122663208D01*
X180763631Y-122681000D01*
X176423369Y-122681000D01*
X176420551Y-122663208D01*
X176419000Y-122643497D01*
X176419000Y-110718503D01*
X176420551Y-110698792D01*
X176421817Y-110690796D01*
X176423369Y-110681000D01*
X176422985Y-110678578D01*
X176419191Y-110630362D01*
X176406886Y-110474013D01*
X176406498Y-110469082D01*
X176356873Y-110262382D01*
X176354983Y-110257819D01*
X176354981Y-110257813D01*
X176277420Y-110070564D01*
X176277418Y-110070560D01*
X176275525Y-110065990D01*
X176164456Y-109884741D01*
X176026401Y-109723099D01*
X175864759Y-109585044D01*
X175683510Y-109473975D01*
X175678940Y-109472082D01*
X175678936Y-109472080D01*
X175491687Y-109394519D01*
X175491681Y-109394517D01*
X175487118Y-109392627D01*
X175482318Y-109391475D01*
X175482313Y-109391473D01*
X175285226Y-109344156D01*
X175285222Y-109344155D01*
X175280418Y-109343002D01*
X175212911Y-109337690D01*
X175131922Y-109331316D01*
X175129742Y-109330997D01*
X175129594Y-109330945D01*
X175128101Y-109330816D01*
X175127163Y-109330734D01*
X175127153Y-109330734D01*
X175124456Y-109330500D01*
X175122275Y-109330500D01*
X175119138Y-109330309D01*
X175088644Y-109327910D01*
X175070922Y-109326515D01*
X175068500Y-109326131D01*
X175051640Y-109328801D01*
X175050708Y-109328949D01*
X175030997Y-109330500D01*
X163106003Y-109330500D01*
X163086292Y-109328949D01*
X163085360Y-109328801D01*
X163068500Y-109326131D01*
X163066078Y-109326515D01*
X163055198Y-109327371D01*
X163055197Y-109327371D01*
X162893092Y-109340129D01*
X162856582Y-109343002D01*
X162851778Y-109344155D01*
X162851774Y-109344156D01*
X162654687Y-109391473D01*
X162654682Y-109391475D01*
X162649882Y-109392627D01*
X162645319Y-109394517D01*
X162645313Y-109394519D01*
X162458064Y-109472080D01*
X162458060Y-109472082D01*
X162453490Y-109473975D01*
X162272241Y-109585044D01*
X162110599Y-109723099D01*
X161972544Y-109884741D01*
X161861475Y-110065990D01*
X161859582Y-110070560D01*
X161859580Y-110070564D01*
X161782019Y-110257813D01*
X161782017Y-110257819D01*
X161780127Y-110262382D01*
X161730502Y-110469082D01*
X161730114Y-110474013D01*
X161718816Y-110617578D01*
X161718497Y-110619758D01*
X161718445Y-110619906D01*
X161718000Y-110625044D01*
X161718000Y-110627225D01*
X161717809Y-110630362D01*
X161715410Y-110660856D01*
X161714015Y-110678578D01*
X161713631Y-110681000D01*
X161715183Y-110690796D01*
X161716449Y-110698792D01*
X161718000Y-110718503D01*
X161718000Y-122643497D01*
X161716449Y-122663208D01*
X161713631Y-122681000D01*
X157373369Y-122681000D01*
X157370551Y-122663208D01*
X157369000Y-122643497D01*
X157369000Y-110718503D01*
X157370551Y-110698792D01*
X157371817Y-110690796D01*
X157373369Y-110681000D01*
X157372985Y-110678578D01*
X157369191Y-110630362D01*
X157356886Y-110474013D01*
X157356498Y-110469082D01*
X157306873Y-110262382D01*
X157304983Y-110257819D01*
X157304981Y-110257813D01*
X157227420Y-110070564D01*
X157227418Y-110070560D01*
X157225525Y-110065990D01*
X157114456Y-109884741D01*
X156976401Y-109723099D01*
X156814759Y-109585044D01*
X156633510Y-109473975D01*
X156628940Y-109472082D01*
X156628936Y-109472080D01*
X156441687Y-109394519D01*
X156441681Y-109394517D01*
X156437118Y-109392627D01*
X156432318Y-109391475D01*
X156432313Y-109391473D01*
X156235226Y-109344156D01*
X156235222Y-109344155D01*
X156230418Y-109343002D01*
X156162911Y-109337690D01*
X156081922Y-109331316D01*
X156079742Y-109330997D01*
X156079594Y-109330945D01*
X156078101Y-109330816D01*
X156077163Y-109330734D01*
X156077153Y-109330734D01*
X156074456Y-109330500D01*
X156072275Y-109330500D01*
X156069138Y-109330309D01*
X156038644Y-109327910D01*
X156020922Y-109326515D01*
X156018500Y-109326131D01*
X156001640Y-109328801D01*
X156000708Y-109328949D01*
X155980997Y-109330500D01*
X144056003Y-109330500D01*
X144036292Y-109328949D01*
X144035360Y-109328801D01*
X144018500Y-109326131D01*
X144016078Y-109326515D01*
X144005198Y-109327371D01*
X144005197Y-109327371D01*
X143843092Y-109340129D01*
X143806582Y-109343002D01*
X143801778Y-109344155D01*
X143801774Y-109344156D01*
X143604687Y-109391473D01*
X143604682Y-109391475D01*
X143599882Y-109392627D01*
X143595319Y-109394517D01*
X143595313Y-109394519D01*
X143408064Y-109472080D01*
X143408060Y-109472082D01*
X143403490Y-109473975D01*
X143222241Y-109585044D01*
X143060599Y-109723099D01*
X142922544Y-109884741D01*
X142811475Y-110065990D01*
X142809582Y-110070560D01*
X142809580Y-110070564D01*
X142732019Y-110257813D01*
X142732017Y-110257819D01*
X142730127Y-110262382D01*
X142680502Y-110469082D01*
X142680114Y-110474013D01*
X142668816Y-110617578D01*
X142668497Y-110619758D01*
X142668445Y-110619906D01*
X142668000Y-110625044D01*
X142668000Y-110627225D01*
X142667809Y-110630362D01*
X142665410Y-110660856D01*
X142664015Y-110678578D01*
X142663631Y-110681000D01*
X142665183Y-110690796D01*
X142666449Y-110698792D01*
X142668000Y-110718503D01*
X142668000Y-122643497D01*
X142666449Y-122663208D01*
X142663631Y-122681000D01*
X138323369Y-122681000D01*
X138320551Y-122663208D01*
X138319000Y-122643497D01*
X138319000Y-110718503D01*
X138320551Y-110698792D01*
X138321817Y-110690796D01*
X138323369Y-110681000D01*
X138322985Y-110678578D01*
X138319191Y-110630362D01*
X138306886Y-110474013D01*
X138306498Y-110469082D01*
X138256873Y-110262382D01*
X138254983Y-110257819D01*
X138254981Y-110257813D01*
X138177420Y-110070564D01*
X138177418Y-110070560D01*
X138175525Y-110065990D01*
X138064456Y-109884741D01*
X137926401Y-109723099D01*
X137764759Y-109585044D01*
X137583510Y-109473975D01*
X137578940Y-109472082D01*
X137578936Y-109472080D01*
X137391687Y-109394519D01*
X137391681Y-109394517D01*
X137387118Y-109392627D01*
X137382318Y-109391475D01*
X137382313Y-109391473D01*
X137185226Y-109344156D01*
X137185222Y-109344155D01*
X137180418Y-109343002D01*
X137112911Y-109337690D01*
X137031922Y-109331316D01*
X137029742Y-109330997D01*
X137029594Y-109330945D01*
X137028101Y-109330816D01*
X137027163Y-109330734D01*
X137027153Y-109330734D01*
X137024456Y-109330500D01*
X137022275Y-109330500D01*
X137019138Y-109330309D01*
X136988644Y-109327910D01*
X136970922Y-109326515D01*
X136968500Y-109326131D01*
X136951640Y-109328801D01*
X136950708Y-109328949D01*
X136930997Y-109330500D01*
X125006003Y-109330500D01*
X124986292Y-109328949D01*
X124985360Y-109328801D01*
X124968500Y-109326131D01*
X124966078Y-109326515D01*
X124955198Y-109327371D01*
X124955197Y-109327371D01*
X124793092Y-109340129D01*
X124756582Y-109343002D01*
X124751778Y-109344155D01*
X124751774Y-109344156D01*
X124554687Y-109391473D01*
X124554682Y-109391475D01*
X124549882Y-109392627D01*
X124545319Y-109394517D01*
X124545313Y-109394519D01*
X124358064Y-109472080D01*
X124358060Y-109472082D01*
X124353490Y-109473975D01*
X124172241Y-109585044D01*
X124010599Y-109723099D01*
X123872544Y-109884741D01*
X123761475Y-110065990D01*
X123759582Y-110070560D01*
X123759580Y-110070564D01*
X123682019Y-110257813D01*
X123682017Y-110257819D01*
X123680127Y-110262382D01*
X123630502Y-110469082D01*
X123630114Y-110474013D01*
X123618816Y-110617578D01*
X123618497Y-110619758D01*
X123618445Y-110619906D01*
X123618000Y-110625044D01*
X123618000Y-110627225D01*
X123617809Y-110630362D01*
X123615410Y-110660856D01*
X123614015Y-110678578D01*
X123613631Y-110681000D01*
X123615183Y-110690796D01*
X123616449Y-110698792D01*
X123618000Y-110718503D01*
X123618000Y-122643497D01*
X123616449Y-122663208D01*
X123613631Y-122681000D01*
X119273369Y-122681000D01*
X119270551Y-122663208D01*
X119269000Y-122643497D01*
X119269000Y-110718503D01*
X119270551Y-110698792D01*
X119271817Y-110690796D01*
X119273369Y-110681000D01*
X119272985Y-110678578D01*
X119269191Y-110630362D01*
X119256886Y-110474013D01*
X119256498Y-110469082D01*
X119206873Y-110262382D01*
X119204983Y-110257819D01*
X119204981Y-110257813D01*
X119127420Y-110070564D01*
X119127418Y-110070560D01*
X119125525Y-110065990D01*
X119014456Y-109884741D01*
X118876401Y-109723099D01*
X118714759Y-109585044D01*
X118533510Y-109473975D01*
X118528940Y-109472082D01*
X118528936Y-109472080D01*
X118341687Y-109394519D01*
X118341681Y-109394517D01*
X118337118Y-109392627D01*
X118332318Y-109391475D01*
X118332313Y-109391473D01*
X118135226Y-109344156D01*
X118135222Y-109344155D01*
X118130418Y-109343002D01*
X118062911Y-109337690D01*
X117981922Y-109331316D01*
X117979742Y-109330997D01*
X117979594Y-109330945D01*
X117978101Y-109330816D01*
X117977163Y-109330734D01*
X117977153Y-109330734D01*
X117974456Y-109330500D01*
X117972275Y-109330500D01*
X117969138Y-109330309D01*
X117938644Y-109327910D01*
X117920922Y-109326515D01*
X117918500Y-109326131D01*
X117901640Y-109328801D01*
X117900708Y-109328949D01*
X117880997Y-109330500D01*
X105956003Y-109330500D01*
X105936292Y-109328949D01*
X105935360Y-109328801D01*
X105918500Y-109326131D01*
X105916078Y-109326515D01*
X105905198Y-109327371D01*
X105905197Y-109327371D01*
X105743092Y-109340129D01*
X105706582Y-109343002D01*
X105701778Y-109344155D01*
X105701774Y-109344156D01*
X105504687Y-109391473D01*
X105504682Y-109391475D01*
X105499882Y-109392627D01*
X105495319Y-109394517D01*
X105495313Y-109394519D01*
X105308064Y-109472080D01*
X105308060Y-109472082D01*
X105303490Y-109473975D01*
X105122241Y-109585044D01*
X104960599Y-109723099D01*
X104822544Y-109884741D01*
X104711475Y-110065990D01*
X104709582Y-110070560D01*
X104709580Y-110070564D01*
X104632019Y-110257813D01*
X104632017Y-110257819D01*
X104630127Y-110262382D01*
X104580502Y-110469082D01*
X104580114Y-110474013D01*
X104568816Y-110617578D01*
X104568497Y-110619758D01*
X104568445Y-110619906D01*
X104568000Y-110625044D01*
X104568000Y-110627225D01*
X104567809Y-110630362D01*
X104565410Y-110660856D01*
X104564015Y-110678578D01*
X104563631Y-110681000D01*
X104565183Y-110690796D01*
X104566449Y-110698792D01*
X104568000Y-110718503D01*
X104568000Y-122643497D01*
X104566449Y-122663208D01*
X104563631Y-122681000D01*
X102744336Y-122681000D01*
X102744336Y-103631000D01*
X104563631Y-103631000D01*
X104564015Y-103633422D01*
X104564871Y-103644302D01*
X104564871Y-103644303D01*
X104575198Y-103775527D01*
X104580502Y-103842918D01*
X104630127Y-104049618D01*
X104632017Y-104054181D01*
X104632019Y-104054187D01*
X104709580Y-104241436D01*
X104711475Y-104246010D01*
X104822544Y-104427259D01*
X104960599Y-104588901D01*
X105122241Y-104726956D01*
X105303490Y-104838025D01*
X105308060Y-104839918D01*
X105308064Y-104839920D01*
X105495313Y-104917481D01*
X105495319Y-104917483D01*
X105499882Y-104919373D01*
X105504682Y-104920525D01*
X105504687Y-104920527D01*
X105701774Y-104967844D01*
X105701778Y-104967845D01*
X105706582Y-104968998D01*
X105774088Y-104974310D01*
X105855078Y-104980684D01*
X105857258Y-104981003D01*
X105857406Y-104981055D01*
X105858899Y-104981184D01*
X105859837Y-104981266D01*
X105859847Y-104981266D01*
X105862544Y-104981500D01*
X105864725Y-104981500D01*
X105867862Y-104981691D01*
X105898356Y-104984090D01*
X105916078Y-104985485D01*
X105918500Y-104985869D01*
X105936291Y-104983051D01*
X105956003Y-104981500D01*
X117880997Y-104981500D01*
X117900709Y-104983051D01*
X117918500Y-104985869D01*
X117920922Y-104985485D01*
X117931802Y-104984629D01*
X117931803Y-104984629D01*
X118093908Y-104971871D01*
X118130418Y-104968998D01*
X118135222Y-104967845D01*
X118135226Y-104967844D01*
X118332313Y-104920527D01*
X118332318Y-104920525D01*
X118337118Y-104919373D01*
X118341681Y-104917483D01*
X118341687Y-104917481D01*
X118528936Y-104839920D01*
X118528940Y-104839918D01*
X118533510Y-104838025D01*
X118714759Y-104726956D01*
X118876401Y-104588901D01*
X119014456Y-104427259D01*
X119125525Y-104246010D01*
X119127420Y-104241436D01*
X119204981Y-104054187D01*
X119204983Y-104054181D01*
X119206873Y-104049618D01*
X119256498Y-103842918D01*
X119268184Y-103694422D01*
X119268503Y-103692242D01*
X119268555Y-103692094D01*
X119269000Y-103686956D01*
X119269000Y-103684775D01*
X119269191Y-103681638D01*
X119272090Y-103644793D01*
X119272985Y-103633422D01*
X119273369Y-103631000D01*
X123613631Y-103631000D01*
X123614015Y-103633422D01*
X123614871Y-103644302D01*
X123614871Y-103644303D01*
X123625198Y-103775527D01*
X123630502Y-103842918D01*
X123680127Y-104049618D01*
X123682017Y-104054181D01*
X123682019Y-104054187D01*
X123759580Y-104241436D01*
X123761475Y-104246010D01*
X123872544Y-104427259D01*
X124010599Y-104588901D01*
X124172241Y-104726956D01*
X124353490Y-104838025D01*
X124358060Y-104839918D01*
X124358064Y-104839920D01*
X124545313Y-104917481D01*
X124545319Y-104917483D01*
X124549882Y-104919373D01*
X124554682Y-104920525D01*
X124554687Y-104920527D01*
X124751774Y-104967844D01*
X124751778Y-104967845D01*
X124756582Y-104968998D01*
X124824088Y-104974310D01*
X124905078Y-104980684D01*
X124907258Y-104981003D01*
X124907406Y-104981055D01*
X124908899Y-104981184D01*
X124909837Y-104981266D01*
X124909847Y-104981266D01*
X124912544Y-104981500D01*
X124914725Y-104981500D01*
X124917862Y-104981691D01*
X124948356Y-104984090D01*
X124966078Y-104985485D01*
X124968500Y-104985869D01*
X124986291Y-104983051D01*
X125006003Y-104981500D01*
X136930997Y-104981500D01*
X136950709Y-104983051D01*
X136968500Y-104985869D01*
X136970922Y-104985485D01*
X136981802Y-104984629D01*
X136981803Y-104984629D01*
X137143908Y-104971871D01*
X137180418Y-104968998D01*
X137185222Y-104967845D01*
X137185226Y-104967844D01*
X137382313Y-104920527D01*
X137382318Y-104920525D01*
X137387118Y-104919373D01*
X137391681Y-104917483D01*
X137391687Y-104917481D01*
X137578936Y-104839920D01*
X137578940Y-104839918D01*
X137583510Y-104838025D01*
X137764759Y-104726956D01*
X137926401Y-104588901D01*
X138064456Y-104427259D01*
X138175525Y-104246010D01*
X138177420Y-104241436D01*
X138254981Y-104054187D01*
X138254983Y-104054181D01*
X138256873Y-104049618D01*
X138306498Y-103842918D01*
X138318184Y-103694422D01*
X138318503Y-103692242D01*
X138318555Y-103692094D01*
X138319000Y-103686956D01*
X138319000Y-103684775D01*
X138319191Y-103681638D01*
X138322090Y-103644793D01*
X138322985Y-103633422D01*
X138323369Y-103631000D01*
X142663631Y-103631000D01*
X142664015Y-103633422D01*
X142664871Y-103644302D01*
X142664871Y-103644303D01*
X142675198Y-103775527D01*
X142680502Y-103842918D01*
X142730127Y-104049618D01*
X142732017Y-104054181D01*
X142732019Y-104054187D01*
X142809580Y-104241436D01*
X142811475Y-104246010D01*
X142922544Y-104427259D01*
X143060599Y-104588901D01*
X143222241Y-104726956D01*
X143403490Y-104838025D01*
X143408060Y-104839918D01*
X143408064Y-104839920D01*
X143595313Y-104917481D01*
X143595319Y-104917483D01*
X143599882Y-104919373D01*
X143604682Y-104920525D01*
X143604687Y-104920527D01*
X143801774Y-104967844D01*
X143801778Y-104967845D01*
X143806582Y-104968998D01*
X143874088Y-104974310D01*
X143955078Y-104980684D01*
X143957258Y-104981003D01*
X143957406Y-104981055D01*
X143958899Y-104981184D01*
X143959837Y-104981266D01*
X143959847Y-104981266D01*
X143962544Y-104981500D01*
X143964725Y-104981500D01*
X143967862Y-104981691D01*
X143998356Y-104984090D01*
X144016078Y-104985485D01*
X144018500Y-104985869D01*
X144036291Y-104983051D01*
X144056003Y-104981500D01*
X155980997Y-104981500D01*
X156000709Y-104983051D01*
X156018500Y-104985869D01*
X156020922Y-104985485D01*
X156031802Y-104984629D01*
X156031803Y-104984629D01*
X156193908Y-104971871D01*
X156230418Y-104968998D01*
X156235222Y-104967845D01*
X156235226Y-104967844D01*
X156432313Y-104920527D01*
X156432318Y-104920525D01*
X156437118Y-104919373D01*
X156441681Y-104917483D01*
X156441687Y-104917481D01*
X156628936Y-104839920D01*
X156628940Y-104839918D01*
X156633510Y-104838025D01*
X156814759Y-104726956D01*
X156976401Y-104588901D01*
X157114456Y-104427259D01*
X157225525Y-104246010D01*
X157227420Y-104241436D01*
X157304981Y-104054187D01*
X157304983Y-104054181D01*
X157306873Y-104049618D01*
X157356498Y-103842918D01*
X157368184Y-103694422D01*
X157368503Y-103692242D01*
X157368555Y-103692094D01*
X157369000Y-103686956D01*
X157369000Y-103684775D01*
X157369191Y-103681638D01*
X157372090Y-103644793D01*
X157372985Y-103633422D01*
X157373369Y-103631000D01*
X161713631Y-103631000D01*
X161714015Y-103633422D01*
X161714871Y-103644302D01*
X161714871Y-103644303D01*
X161725198Y-103775527D01*
X161730502Y-103842918D01*
X161780127Y-104049618D01*
X161782017Y-104054181D01*
X161782019Y-104054187D01*
X161859580Y-104241436D01*
X161861475Y-104246010D01*
X161972544Y-104427259D01*
X162110599Y-104588901D01*
X162272241Y-104726956D01*
X162453490Y-104838025D01*
X162458060Y-104839918D01*
X162458064Y-104839920D01*
X162645313Y-104917481D01*
X162645319Y-104917483D01*
X162649882Y-104919373D01*
X162654682Y-104920525D01*
X162654687Y-104920527D01*
X162851774Y-104967844D01*
X162851778Y-104967845D01*
X162856582Y-104968998D01*
X162924088Y-104974310D01*
X163005078Y-104980684D01*
X163007258Y-104981003D01*
X163007406Y-104981055D01*
X163008899Y-104981184D01*
X163009837Y-104981266D01*
X163009847Y-104981266D01*
X163012544Y-104981500D01*
X163014725Y-104981500D01*
X163017862Y-104981691D01*
X163048356Y-104984090D01*
X163066078Y-104985485D01*
X163068500Y-104985869D01*
X163086291Y-104983051D01*
X163106003Y-104981500D01*
X175030997Y-104981500D01*
X175050709Y-104983051D01*
X175068500Y-104985869D01*
X175070922Y-104985485D01*
X175081802Y-104984629D01*
X175081803Y-104984629D01*
X175243908Y-104971871D01*
X175280418Y-104968998D01*
X175285222Y-104967845D01*
X175285226Y-104967844D01*
X175482313Y-104920527D01*
X175482318Y-104920525D01*
X175487118Y-104919373D01*
X175491681Y-104917483D01*
X175491687Y-104917481D01*
X175678936Y-104839920D01*
X175678940Y-104839918D01*
X175683510Y-104838025D01*
X175864759Y-104726956D01*
X176026401Y-104588901D01*
X176164456Y-104427259D01*
X176275525Y-104246010D01*
X176277420Y-104241436D01*
X176354981Y-104054187D01*
X176354983Y-104054181D01*
X176356873Y-104049618D01*
X176406498Y-103842918D01*
X176418184Y-103694422D01*
X176418503Y-103692242D01*
X176418555Y-103692094D01*
X176419000Y-103686956D01*
X176419000Y-103684775D01*
X176419191Y-103681638D01*
X176422090Y-103644793D01*
X176422985Y-103633422D01*
X176423369Y-103631000D01*
X180763631Y-103631000D01*
X180764015Y-103633422D01*
X180764871Y-103644302D01*
X180764871Y-103644303D01*
X180775198Y-103775527D01*
X180780502Y-103842918D01*
X180830127Y-104049618D01*
X180832017Y-104054181D01*
X180832019Y-104054187D01*
X180909580Y-104241436D01*
X180911475Y-104246010D01*
X181022544Y-104427259D01*
X181160599Y-104588901D01*
X181322241Y-104726956D01*
X181503490Y-104838025D01*
X181508060Y-104839918D01*
X181508064Y-104839920D01*
X181695313Y-104917481D01*
X181695319Y-104917483D01*
X181699882Y-104919373D01*
X181704682Y-104920525D01*
X181704687Y-104920527D01*
X181901774Y-104967844D01*
X181901778Y-104967845D01*
X181906582Y-104968998D01*
X181974088Y-104974310D01*
X182055078Y-104980684D01*
X182057258Y-104981003D01*
X182057406Y-104981055D01*
X182058899Y-104981184D01*
X182059837Y-104981266D01*
X182059847Y-104981266D01*
X182062544Y-104981500D01*
X182064725Y-104981500D01*
X182067862Y-104981691D01*
X182098356Y-104984090D01*
X182116078Y-104985485D01*
X182118500Y-104985869D01*
X182136291Y-104983051D01*
X182156003Y-104981500D01*
X194080997Y-104981500D01*
X194100709Y-104983051D01*
X194118500Y-104985869D01*
X194120922Y-104985485D01*
X194131802Y-104984629D01*
X194131803Y-104984629D01*
X194293908Y-104971871D01*
X194330418Y-104968998D01*
X194335222Y-104967845D01*
X194335226Y-104967844D01*
X194532313Y-104920527D01*
X194532318Y-104920525D01*
X194537118Y-104919373D01*
X194541681Y-104917483D01*
X194541687Y-104917481D01*
X194728936Y-104839920D01*
X194728940Y-104839918D01*
X194733510Y-104838025D01*
X194914759Y-104726956D01*
X195076401Y-104588901D01*
X195214456Y-104427259D01*
X195325525Y-104246010D01*
X195327420Y-104241436D01*
X195404981Y-104054187D01*
X195404983Y-104054181D01*
X195406873Y-104049618D01*
X195456498Y-103842918D01*
X195468184Y-103694422D01*
X195468503Y-103692242D01*
X195468555Y-103692094D01*
X195469000Y-103686956D01*
X195469000Y-103684775D01*
X195469191Y-103681638D01*
X195472090Y-103644793D01*
X195472985Y-103633422D01*
X195473369Y-103631000D01*
X199813631Y-103631000D01*
X199814015Y-103633422D01*
X199814871Y-103644302D01*
X199814871Y-103644303D01*
X199825198Y-103775527D01*
X199830502Y-103842918D01*
X199880127Y-104049618D01*
X199882017Y-104054181D01*
X199882019Y-104054187D01*
X199959580Y-104241436D01*
X199961475Y-104246010D01*
X200072544Y-104427259D01*
X200210599Y-104588901D01*
X200372241Y-104726956D01*
X200553490Y-104838025D01*
X200558060Y-104839918D01*
X200558064Y-104839920D01*
X200745313Y-104917481D01*
X200745319Y-104917483D01*
X200749882Y-104919373D01*
X200754682Y-104920525D01*
X200754687Y-104920527D01*
X200951774Y-104967844D01*
X200951778Y-104967845D01*
X200956582Y-104968998D01*
X201024088Y-104974310D01*
X201105078Y-104980684D01*
X201107258Y-104981003D01*
X201107406Y-104981055D01*
X201108899Y-104981184D01*
X201109837Y-104981266D01*
X201109847Y-104981266D01*
X201112544Y-104981500D01*
X201114725Y-104981500D01*
X201117862Y-104981691D01*
X201148356Y-104984090D01*
X201166078Y-104985485D01*
X201168500Y-104985869D01*
X201186291Y-104983051D01*
X201206003Y-104981500D01*
X213130997Y-104981500D01*
X213150709Y-104983051D01*
X213168500Y-104985869D01*
X213170922Y-104985485D01*
X213181802Y-104984629D01*
X213181803Y-104984629D01*
X213343908Y-104971871D01*
X213380418Y-104968998D01*
X213385222Y-104967845D01*
X213385226Y-104967844D01*
X213582313Y-104920527D01*
X213582318Y-104920525D01*
X213587118Y-104919373D01*
X213591681Y-104917483D01*
X213591687Y-104917481D01*
X213778936Y-104839920D01*
X213778940Y-104839918D01*
X213783510Y-104838025D01*
X213964759Y-104726956D01*
X214126401Y-104588901D01*
X214264456Y-104427259D01*
X214375525Y-104246010D01*
X214377420Y-104241436D01*
X214454981Y-104054187D01*
X214454983Y-104054181D01*
X214456873Y-104049618D01*
X214506498Y-103842918D01*
X214518184Y-103694422D01*
X214518503Y-103692242D01*
X214518555Y-103692094D01*
X214519000Y-103686956D01*
X214519000Y-103684775D01*
X214519191Y-103681638D01*
X214522090Y-103644793D01*
X214522985Y-103633422D01*
X214523369Y-103631000D01*
X214520551Y-103613208D01*
X214519000Y-103593497D01*
X214519000Y-91668503D01*
X214520551Y-91648792D01*
X214521817Y-91640796D01*
X214523369Y-91631000D01*
X214522985Y-91628578D01*
X214519191Y-91580362D01*
X214506886Y-91424013D01*
X214506498Y-91419082D01*
X214456873Y-91212382D01*
X214454983Y-91207819D01*
X214454981Y-91207813D01*
X214377420Y-91020564D01*
X214377418Y-91020560D01*
X214375525Y-91015990D01*
X214264456Y-90834741D01*
X214126401Y-90673099D01*
X213964759Y-90535044D01*
X213783510Y-90423975D01*
X213778940Y-90422082D01*
X213778936Y-90422080D01*
X213591687Y-90344519D01*
X213591681Y-90344517D01*
X213587118Y-90342627D01*
X213582318Y-90341475D01*
X213582313Y-90341473D01*
X213385226Y-90294156D01*
X213385222Y-90294155D01*
X213380418Y-90293002D01*
X213312912Y-90287690D01*
X213231922Y-90281316D01*
X213229742Y-90280997D01*
X213229594Y-90280945D01*
X213228101Y-90280816D01*
X213227163Y-90280734D01*
X213227153Y-90280734D01*
X213224456Y-90280500D01*
X213222275Y-90280500D01*
X213219138Y-90280309D01*
X213188644Y-90277910D01*
X213170922Y-90276515D01*
X213168500Y-90276131D01*
X213151640Y-90278801D01*
X213150708Y-90278949D01*
X213130997Y-90280500D01*
X201206003Y-90280500D01*
X201186292Y-90278949D01*
X201185360Y-90278801D01*
X201168500Y-90276131D01*
X201166078Y-90276515D01*
X201155198Y-90277371D01*
X201155197Y-90277371D01*
X200993092Y-90290129D01*
X200956582Y-90293002D01*
X200951778Y-90294155D01*
X200951774Y-90294156D01*
X200754687Y-90341473D01*
X200754682Y-90341475D01*
X200749882Y-90342627D01*
X200745319Y-90344517D01*
X200745313Y-90344519D01*
X200558064Y-90422080D01*
X200558060Y-90422082D01*
X200553490Y-90423975D01*
X200372241Y-90535044D01*
X200210599Y-90673099D01*
X200072544Y-90834741D01*
X199961475Y-91015990D01*
X199959582Y-91020560D01*
X199959580Y-91020564D01*
X199882019Y-91207813D01*
X199882017Y-91207819D01*
X199880127Y-91212382D01*
X199830502Y-91419082D01*
X199830114Y-91424013D01*
X199818816Y-91567578D01*
X199818497Y-91569758D01*
X199818445Y-91569906D01*
X199818000Y-91575044D01*
X199818000Y-91577225D01*
X199817809Y-91580362D01*
X199815410Y-91610856D01*
X199814015Y-91628578D01*
X199813631Y-91631000D01*
X199815183Y-91640796D01*
X199816449Y-91648792D01*
X199818000Y-91668503D01*
X199818000Y-103593497D01*
X199816449Y-103613208D01*
X199813631Y-103631000D01*
X195473369Y-103631000D01*
X195470551Y-103613208D01*
X195469000Y-103593497D01*
X195469000Y-91668503D01*
X195470551Y-91648792D01*
X195471817Y-91640796D01*
X195473369Y-91631000D01*
X195472985Y-91628578D01*
X195469191Y-91580362D01*
X195456886Y-91424013D01*
X195456498Y-91419082D01*
X195406873Y-91212382D01*
X195404983Y-91207819D01*
X195404981Y-91207813D01*
X195327420Y-91020564D01*
X195327418Y-91020560D01*
X195325525Y-91015990D01*
X195214456Y-90834741D01*
X195076401Y-90673099D01*
X194914759Y-90535044D01*
X194733510Y-90423975D01*
X194728940Y-90422082D01*
X194728936Y-90422080D01*
X194541687Y-90344519D01*
X194541681Y-90344517D01*
X194537118Y-90342627D01*
X194532318Y-90341475D01*
X194532313Y-90341473D01*
X194335226Y-90294156D01*
X194335222Y-90294155D01*
X194330418Y-90293002D01*
X194262912Y-90287690D01*
X194181922Y-90281316D01*
X194179742Y-90280997D01*
X194179594Y-90280945D01*
X194178101Y-90280816D01*
X194177163Y-90280734D01*
X194177153Y-90280734D01*
X194174456Y-90280500D01*
X194172275Y-90280500D01*
X194169138Y-90280309D01*
X194138644Y-90277910D01*
X194120922Y-90276515D01*
X194118500Y-90276131D01*
X194101640Y-90278801D01*
X194100708Y-90278949D01*
X194080997Y-90280500D01*
X182156003Y-90280500D01*
X182136292Y-90278949D01*
X182135360Y-90278801D01*
X182118500Y-90276131D01*
X182116078Y-90276515D01*
X182105198Y-90277371D01*
X182105197Y-90277371D01*
X181943092Y-90290129D01*
X181906582Y-90293002D01*
X181901778Y-90294155D01*
X181901774Y-90294156D01*
X181704687Y-90341473D01*
X181704682Y-90341475D01*
X181699882Y-90342627D01*
X181695319Y-90344517D01*
X181695313Y-90344519D01*
X181508064Y-90422080D01*
X181508060Y-90422082D01*
X181503490Y-90423975D01*
X181322241Y-90535044D01*
X181160599Y-90673099D01*
X181022544Y-90834741D01*
X180911475Y-91015990D01*
X180909582Y-91020560D01*
X180909580Y-91020564D01*
X180832019Y-91207813D01*
X180832017Y-91207819D01*
X180830127Y-91212382D01*
X180780502Y-91419082D01*
X180780114Y-91424013D01*
X180768816Y-91567578D01*
X180768497Y-91569758D01*
X180768445Y-91569906D01*
X180768000Y-91575044D01*
X180768000Y-91577225D01*
X180767809Y-91580362D01*
X180765410Y-91610856D01*
X180764015Y-91628578D01*
X180763631Y-91631000D01*
X180765183Y-91640796D01*
X180766449Y-91648792D01*
X180768000Y-91668503D01*
X180768000Y-103593497D01*
X180766449Y-103613208D01*
X180763631Y-103631000D01*
X176423369Y-103631000D01*
X176420551Y-103613208D01*
X176419000Y-103593497D01*
X176419000Y-91668503D01*
X176420551Y-91648792D01*
X176421817Y-91640796D01*
X176423369Y-91631000D01*
X176422985Y-91628578D01*
X176419191Y-91580362D01*
X176406886Y-91424013D01*
X176406498Y-91419082D01*
X176356873Y-91212382D01*
X176354983Y-91207819D01*
X176354981Y-91207813D01*
X176277420Y-91020564D01*
X176277418Y-91020560D01*
X176275525Y-91015990D01*
X176164456Y-90834741D01*
X176026401Y-90673099D01*
X175864759Y-90535044D01*
X175683510Y-90423975D01*
X175678940Y-90422082D01*
X175678936Y-90422080D01*
X175491687Y-90344519D01*
X175491681Y-90344517D01*
X175487118Y-90342627D01*
X175482318Y-90341475D01*
X175482313Y-90341473D01*
X175285226Y-90294156D01*
X175285222Y-90294155D01*
X175280418Y-90293002D01*
X175212912Y-90287690D01*
X175131922Y-90281316D01*
X175129742Y-90280997D01*
X175129594Y-90280945D01*
X175128101Y-90280816D01*
X175127163Y-90280734D01*
X175127153Y-90280734D01*
X175124456Y-90280500D01*
X175122275Y-90280500D01*
X175119138Y-90280309D01*
X175088644Y-90277910D01*
X175070922Y-90276515D01*
X175068500Y-90276131D01*
X175051640Y-90278801D01*
X175050708Y-90278949D01*
X175030997Y-90280500D01*
X163106003Y-90280500D01*
X163086292Y-90278949D01*
X163085360Y-90278801D01*
X163068500Y-90276131D01*
X163066078Y-90276515D01*
X163055198Y-90277371D01*
X163055197Y-90277371D01*
X162893092Y-90290129D01*
X162856582Y-90293002D01*
X162851778Y-90294155D01*
X162851774Y-90294156D01*
X162654687Y-90341473D01*
X162654682Y-90341475D01*
X162649882Y-90342627D01*
X162645319Y-90344517D01*
X162645313Y-90344519D01*
X162458064Y-90422080D01*
X162458060Y-90422082D01*
X162453490Y-90423975D01*
X162272241Y-90535044D01*
X162110599Y-90673099D01*
X161972544Y-90834741D01*
X161861475Y-91015990D01*
X161859582Y-91020560D01*
X161859580Y-91020564D01*
X161782019Y-91207813D01*
X161782017Y-91207819D01*
X161780127Y-91212382D01*
X161730502Y-91419082D01*
X161730114Y-91424013D01*
X161718816Y-91567578D01*
X161718497Y-91569758D01*
X161718445Y-91569906D01*
X161718000Y-91575044D01*
X161718000Y-91577225D01*
X161717809Y-91580362D01*
X161715410Y-91610856D01*
X161714015Y-91628578D01*
X161713631Y-91631000D01*
X161715183Y-91640796D01*
X161716449Y-91648792D01*
X161718000Y-91668503D01*
X161718000Y-103593497D01*
X161716449Y-103613208D01*
X161713631Y-103631000D01*
X157373369Y-103631000D01*
X157370551Y-103613208D01*
X157369000Y-103593497D01*
X157369000Y-91668503D01*
X157370551Y-91648792D01*
X157371817Y-91640796D01*
X157373369Y-91631000D01*
X157372985Y-91628578D01*
X157369191Y-91580362D01*
X157356886Y-91424013D01*
X157356498Y-91419082D01*
X157306873Y-91212382D01*
X157304983Y-91207819D01*
X157304981Y-91207813D01*
X157227420Y-91020564D01*
X157227418Y-91020560D01*
X157225525Y-91015990D01*
X157114456Y-90834741D01*
X156976401Y-90673099D01*
X156814759Y-90535044D01*
X156633510Y-90423975D01*
X156628940Y-90422082D01*
X156628936Y-90422080D01*
X156441687Y-90344519D01*
X156441681Y-90344517D01*
X156437118Y-90342627D01*
X156432318Y-90341475D01*
X156432313Y-90341473D01*
X156235226Y-90294156D01*
X156235222Y-90294155D01*
X156230418Y-90293002D01*
X156162912Y-90287690D01*
X156081922Y-90281316D01*
X156079742Y-90280997D01*
X156079594Y-90280945D01*
X156078101Y-90280816D01*
X156077163Y-90280734D01*
X156077153Y-90280734D01*
X156074456Y-90280500D01*
X156072275Y-90280500D01*
X156069138Y-90280309D01*
X156038644Y-90277910D01*
X156020922Y-90276515D01*
X156018500Y-90276131D01*
X156001640Y-90278801D01*
X156000708Y-90278949D01*
X155980997Y-90280500D01*
X144056003Y-90280500D01*
X144036292Y-90278949D01*
X144035360Y-90278801D01*
X144018500Y-90276131D01*
X144016078Y-90276515D01*
X144005198Y-90277371D01*
X144005197Y-90277371D01*
X143843092Y-90290129D01*
X143806582Y-90293002D01*
X143801778Y-90294155D01*
X143801774Y-90294156D01*
X143604687Y-90341473D01*
X143604682Y-90341475D01*
X143599882Y-90342627D01*
X143595319Y-90344517D01*
X143595313Y-90344519D01*
X143408064Y-90422080D01*
X143408060Y-90422082D01*
X143403490Y-90423975D01*
X143222241Y-90535044D01*
X143060599Y-90673099D01*
X142922544Y-90834741D01*
X142811475Y-91015990D01*
X142809582Y-91020560D01*
X142809580Y-91020564D01*
X142732019Y-91207813D01*
X142732017Y-91207819D01*
X142730127Y-91212382D01*
X142680502Y-91419082D01*
X142680114Y-91424013D01*
X142668816Y-91567578D01*
X142668497Y-91569758D01*
X142668445Y-91569906D01*
X142668000Y-91575044D01*
X142668000Y-91577225D01*
X142667809Y-91580362D01*
X142665410Y-91610856D01*
X142664015Y-91628578D01*
X142663631Y-91631000D01*
X142665183Y-91640796D01*
X142666449Y-91648792D01*
X142668000Y-91668503D01*
X142668000Y-103593497D01*
X142666449Y-103613208D01*
X142663631Y-103631000D01*
X138323369Y-103631000D01*
X138320551Y-103613208D01*
X138319000Y-103593497D01*
X138319000Y-91668503D01*
X138320551Y-91648792D01*
X138321817Y-91640796D01*
X138323369Y-91631000D01*
X138322985Y-91628578D01*
X138319191Y-91580362D01*
X138306886Y-91424013D01*
X138306498Y-91419082D01*
X138256873Y-91212382D01*
X138254983Y-91207819D01*
X138254981Y-91207813D01*
X138177420Y-91020564D01*
X138177418Y-91020560D01*
X138175525Y-91015990D01*
X138064456Y-90834741D01*
X137926401Y-90673099D01*
X137764759Y-90535044D01*
X137583510Y-90423975D01*
X137578940Y-90422082D01*
X137578936Y-90422080D01*
X137391687Y-90344519D01*
X137391681Y-90344517D01*
X137387118Y-90342627D01*
X137382318Y-90341475D01*
X137382313Y-90341473D01*
X137185226Y-90294156D01*
X137185222Y-90294155D01*
X137180418Y-90293002D01*
X137112912Y-90287690D01*
X137031922Y-90281316D01*
X137029742Y-90280997D01*
X137029594Y-90280945D01*
X137028101Y-90280816D01*
X137027163Y-90280734D01*
X137027153Y-90280734D01*
X137024456Y-90280500D01*
X137022275Y-90280500D01*
X137019138Y-90280309D01*
X136988644Y-90277910D01*
X136970922Y-90276515D01*
X136968500Y-90276131D01*
X136951640Y-90278801D01*
X136950708Y-90278949D01*
X136930997Y-90280500D01*
X125006003Y-90280500D01*
X124986292Y-90278949D01*
X124985360Y-90278801D01*
X124968500Y-90276131D01*
X124966078Y-90276515D01*
X124955198Y-90277371D01*
X124955197Y-90277371D01*
X124793092Y-90290129D01*
X124756582Y-90293002D01*
X124751778Y-90294155D01*
X124751774Y-90294156D01*
X124554687Y-90341473D01*
X124554682Y-90341475D01*
X124549882Y-90342627D01*
X124545319Y-90344517D01*
X124545313Y-90344519D01*
X124358064Y-90422080D01*
X124358060Y-90422082D01*
X124353490Y-90423975D01*
X124172241Y-90535044D01*
X124010599Y-90673099D01*
X123872544Y-90834741D01*
X123761475Y-91015990D01*
X123759582Y-91020560D01*
X123759580Y-91020564D01*
X123682019Y-91207813D01*
X123682017Y-91207819D01*
X123680127Y-91212382D01*
X123630502Y-91419082D01*
X123630114Y-91424013D01*
X123618816Y-91567578D01*
X123618497Y-91569758D01*
X123618445Y-91569906D01*
X123618000Y-91575044D01*
X123618000Y-91577225D01*
X123617809Y-91580362D01*
X123615410Y-91610856D01*
X123614015Y-91628578D01*
X123613631Y-91631000D01*
X123615183Y-91640796D01*
X123616449Y-91648792D01*
X123618000Y-91668503D01*
X123618000Y-103593497D01*
X123616449Y-103613208D01*
X123613631Y-103631000D01*
X119273369Y-103631000D01*
X119270551Y-103613208D01*
X119269000Y-103593497D01*
X119269000Y-91668503D01*
X119270551Y-91648792D01*
X119271817Y-91640796D01*
X119273369Y-91631000D01*
X119272985Y-91628578D01*
X119269191Y-91580362D01*
X119256886Y-91424013D01*
X119256498Y-91419082D01*
X119206873Y-91212382D01*
X119204983Y-91207819D01*
X119204981Y-91207813D01*
X119127420Y-91020564D01*
X119127418Y-91020560D01*
X119125525Y-91015990D01*
X119014456Y-90834741D01*
X118876401Y-90673099D01*
X118714759Y-90535044D01*
X118533510Y-90423975D01*
X118528940Y-90422082D01*
X118528936Y-90422080D01*
X118341687Y-90344519D01*
X118341681Y-90344517D01*
X118337118Y-90342627D01*
X118332318Y-90341475D01*
X118332313Y-90341473D01*
X118135226Y-90294156D01*
X118135222Y-90294155D01*
X118130418Y-90293002D01*
X118062912Y-90287690D01*
X117981922Y-90281316D01*
X117979742Y-90280997D01*
X117979594Y-90280945D01*
X117978101Y-90280816D01*
X117977163Y-90280734D01*
X117977153Y-90280734D01*
X117974456Y-90280500D01*
X117972275Y-90280500D01*
X117969138Y-90280309D01*
X117938644Y-90277910D01*
X117920922Y-90276515D01*
X117918500Y-90276131D01*
X117901640Y-90278801D01*
X117900708Y-90278949D01*
X117880997Y-90280500D01*
X105956003Y-90280500D01*
X105936292Y-90278949D01*
X105935360Y-90278801D01*
X105918500Y-90276131D01*
X105916078Y-90276515D01*
X105905198Y-90277371D01*
X105905197Y-90277371D01*
X105743092Y-90290129D01*
X105706582Y-90293002D01*
X105701778Y-90294155D01*
X105701774Y-90294156D01*
X105504687Y-90341473D01*
X105504682Y-90341475D01*
X105499882Y-90342627D01*
X105495319Y-90344517D01*
X105495313Y-90344519D01*
X105308064Y-90422080D01*
X105308060Y-90422082D01*
X105303490Y-90423975D01*
X105122241Y-90535044D01*
X104960599Y-90673099D01*
X104822544Y-90834741D01*
X104711475Y-91015990D01*
X104709582Y-91020560D01*
X104709580Y-91020564D01*
X104632019Y-91207813D01*
X104632017Y-91207819D01*
X104630127Y-91212382D01*
X104580502Y-91419082D01*
X104580114Y-91424013D01*
X104568816Y-91567578D01*
X104568497Y-91569758D01*
X104568445Y-91569906D01*
X104568000Y-91575044D01*
X104568000Y-91577225D01*
X104567809Y-91580362D01*
X104565410Y-91610856D01*
X104564015Y-91628578D01*
X104563631Y-91631000D01*
X104565183Y-91640796D01*
X104566449Y-91648792D01*
X104568000Y-91668503D01*
X104568000Y-103593497D01*
X104566449Y-103613208D01*
X104563631Y-103631000D01*
X102744336Y-103631000D01*
X102744336Y-84581000D01*
X104563631Y-84581000D01*
X104564015Y-84583422D01*
X104564871Y-84594302D01*
X104564871Y-84594303D01*
X104575198Y-84725527D01*
X104580502Y-84792918D01*
X104630127Y-84999618D01*
X104632017Y-85004181D01*
X104632019Y-85004187D01*
X104709580Y-85191436D01*
X104711475Y-85196010D01*
X104822544Y-85377259D01*
X104960599Y-85538901D01*
X105122241Y-85676956D01*
X105303490Y-85788025D01*
X105308060Y-85789918D01*
X105308064Y-85789920D01*
X105495313Y-85867481D01*
X105495319Y-85867483D01*
X105499882Y-85869373D01*
X105504682Y-85870525D01*
X105504687Y-85870527D01*
X105701774Y-85917844D01*
X105701778Y-85917845D01*
X105706582Y-85918998D01*
X105774088Y-85924310D01*
X105855078Y-85930684D01*
X105857258Y-85931003D01*
X105857406Y-85931055D01*
X105858899Y-85931184D01*
X105859837Y-85931266D01*
X105859847Y-85931266D01*
X105862544Y-85931500D01*
X105864725Y-85931500D01*
X105867862Y-85931691D01*
X105898356Y-85934090D01*
X105916078Y-85935485D01*
X105918500Y-85935869D01*
X105936291Y-85933051D01*
X105956003Y-85931500D01*
X117880997Y-85931500D01*
X117900709Y-85933051D01*
X117918500Y-85935869D01*
X117920922Y-85935485D01*
X117931802Y-85934629D01*
X117931803Y-85934629D01*
X118093908Y-85921871D01*
X118130418Y-85918998D01*
X118135222Y-85917845D01*
X118135226Y-85917844D01*
X118332313Y-85870527D01*
X118332318Y-85870525D01*
X118337118Y-85869373D01*
X118341681Y-85867483D01*
X118341687Y-85867481D01*
X118528936Y-85789920D01*
X118528940Y-85789918D01*
X118533510Y-85788025D01*
X118714759Y-85676956D01*
X118876401Y-85538901D01*
X119014456Y-85377259D01*
X119125525Y-85196010D01*
X119127420Y-85191436D01*
X119204981Y-85004187D01*
X119204983Y-85004181D01*
X119206873Y-84999618D01*
X119256498Y-84792918D01*
X119268184Y-84644422D01*
X119268503Y-84642242D01*
X119268555Y-84642094D01*
X119269000Y-84636956D01*
X119269000Y-84634775D01*
X119269191Y-84631638D01*
X119272090Y-84594793D01*
X119272985Y-84583422D01*
X119273369Y-84581000D01*
X123613631Y-84581000D01*
X123614015Y-84583422D01*
X123614871Y-84594302D01*
X123614871Y-84594303D01*
X123625198Y-84725527D01*
X123630502Y-84792918D01*
X123680127Y-84999618D01*
X123682017Y-85004181D01*
X123682019Y-85004187D01*
X123759580Y-85191436D01*
X123761475Y-85196010D01*
X123872544Y-85377259D01*
X124010599Y-85538901D01*
X124172241Y-85676956D01*
X124353490Y-85788025D01*
X124358060Y-85789918D01*
X124358064Y-85789920D01*
X124545313Y-85867481D01*
X124545319Y-85867483D01*
X124549882Y-85869373D01*
X124554682Y-85870525D01*
X124554687Y-85870527D01*
X124751774Y-85917844D01*
X124751778Y-85917845D01*
X124756582Y-85918998D01*
X124824088Y-85924310D01*
X124905078Y-85930684D01*
X124907258Y-85931003D01*
X124907406Y-85931055D01*
X124908899Y-85931184D01*
X124909837Y-85931266D01*
X124909847Y-85931266D01*
X124912544Y-85931500D01*
X124914725Y-85931500D01*
X124917862Y-85931691D01*
X124948356Y-85934090D01*
X124966078Y-85935485D01*
X124968500Y-85935869D01*
X124986291Y-85933051D01*
X125006003Y-85931500D01*
X136930997Y-85931500D01*
X136950709Y-85933051D01*
X136968500Y-85935869D01*
X136970922Y-85935485D01*
X136981802Y-85934629D01*
X136981803Y-85934629D01*
X137143908Y-85921871D01*
X137180418Y-85918998D01*
X137185222Y-85917845D01*
X137185226Y-85917844D01*
X137382313Y-85870527D01*
X137382318Y-85870525D01*
X137387118Y-85869373D01*
X137391681Y-85867483D01*
X137391687Y-85867481D01*
X137578936Y-85789920D01*
X137578940Y-85789918D01*
X137583510Y-85788025D01*
X137764759Y-85676956D01*
X137926401Y-85538901D01*
X138064456Y-85377259D01*
X138175525Y-85196010D01*
X138177420Y-85191436D01*
X138254981Y-85004187D01*
X138254983Y-85004181D01*
X138256873Y-84999618D01*
X138306498Y-84792918D01*
X138318184Y-84644422D01*
X138318503Y-84642242D01*
X138318555Y-84642094D01*
X138319000Y-84636956D01*
X138319000Y-84634775D01*
X138319191Y-84631638D01*
X138322090Y-84594793D01*
X138322985Y-84583422D01*
X138323369Y-84581000D01*
X142663631Y-84581000D01*
X142664015Y-84583422D01*
X142664871Y-84594302D01*
X142664871Y-84594303D01*
X142675198Y-84725527D01*
X142680502Y-84792918D01*
X142730127Y-84999618D01*
X142732017Y-85004181D01*
X142732019Y-85004187D01*
X142809580Y-85191436D01*
X142811475Y-85196010D01*
X142922544Y-85377259D01*
X143060599Y-85538901D01*
X143222241Y-85676956D01*
X143403490Y-85788025D01*
X143408060Y-85789918D01*
X143408064Y-85789920D01*
X143595313Y-85867481D01*
X143595319Y-85867483D01*
X143599882Y-85869373D01*
X143604682Y-85870525D01*
X143604687Y-85870527D01*
X143801774Y-85917844D01*
X143801778Y-85917845D01*
X143806582Y-85918998D01*
X143874088Y-85924310D01*
X143955078Y-85930684D01*
X143957258Y-85931003D01*
X143957406Y-85931055D01*
X143958899Y-85931184D01*
X143959837Y-85931266D01*
X143959847Y-85931266D01*
X143962544Y-85931500D01*
X143964725Y-85931500D01*
X143967862Y-85931691D01*
X143998356Y-85934090D01*
X144016078Y-85935485D01*
X144018500Y-85935869D01*
X144036291Y-85933051D01*
X144056003Y-85931500D01*
X155980997Y-85931500D01*
X156000709Y-85933051D01*
X156018500Y-85935869D01*
X156020922Y-85935485D01*
X156031802Y-85934629D01*
X156031803Y-85934629D01*
X156193908Y-85921871D01*
X156230418Y-85918998D01*
X156235222Y-85917845D01*
X156235226Y-85917844D01*
X156432313Y-85870527D01*
X156432318Y-85870525D01*
X156437118Y-85869373D01*
X156441681Y-85867483D01*
X156441687Y-85867481D01*
X156628936Y-85789920D01*
X156628940Y-85789918D01*
X156633510Y-85788025D01*
X156814759Y-85676956D01*
X156976401Y-85538901D01*
X157114456Y-85377259D01*
X157225525Y-85196010D01*
X157227420Y-85191436D01*
X157304981Y-85004187D01*
X157304983Y-85004181D01*
X157306873Y-84999618D01*
X157356498Y-84792918D01*
X157368184Y-84644422D01*
X157368503Y-84642242D01*
X157368555Y-84642094D01*
X157369000Y-84636956D01*
X157369000Y-84634775D01*
X157369191Y-84631638D01*
X157372090Y-84594793D01*
X157372985Y-84583422D01*
X157373369Y-84581000D01*
X161713631Y-84581000D01*
X161714015Y-84583422D01*
X161714871Y-84594302D01*
X161714871Y-84594303D01*
X161725198Y-84725527D01*
X161730502Y-84792918D01*
X161780127Y-84999618D01*
X161782017Y-85004181D01*
X161782019Y-85004187D01*
X161859580Y-85191436D01*
X161861475Y-85196010D01*
X161972544Y-85377259D01*
X162110599Y-85538901D01*
X162272241Y-85676956D01*
X162453490Y-85788025D01*
X162458060Y-85789918D01*
X162458064Y-85789920D01*
X162645313Y-85867481D01*
X162645319Y-85867483D01*
X162649882Y-85869373D01*
X162654682Y-85870525D01*
X162654687Y-85870527D01*
X162851774Y-85917844D01*
X162851778Y-85917845D01*
X162856582Y-85918998D01*
X162924088Y-85924310D01*
X163005078Y-85930684D01*
X163007258Y-85931003D01*
X163007406Y-85931055D01*
X163008899Y-85931184D01*
X163009837Y-85931266D01*
X163009847Y-85931266D01*
X163012544Y-85931500D01*
X163014725Y-85931500D01*
X163017862Y-85931691D01*
X163048356Y-85934090D01*
X163066078Y-85935485D01*
X163068500Y-85935869D01*
X163086291Y-85933051D01*
X163106003Y-85931500D01*
X175030997Y-85931500D01*
X175050709Y-85933051D01*
X175068500Y-85935869D01*
X175070922Y-85935485D01*
X175081802Y-85934629D01*
X175081803Y-85934629D01*
X175243908Y-85921871D01*
X175280418Y-85918998D01*
X175285222Y-85917845D01*
X175285226Y-85917844D01*
X175482313Y-85870527D01*
X175482318Y-85870525D01*
X175487118Y-85869373D01*
X175491681Y-85867483D01*
X175491687Y-85867481D01*
X175678936Y-85789920D01*
X175678940Y-85789918D01*
X175683510Y-85788025D01*
X175864759Y-85676956D01*
X176026401Y-85538901D01*
X176164456Y-85377259D01*
X176275525Y-85196010D01*
X176277420Y-85191436D01*
X176354981Y-85004187D01*
X176354983Y-85004181D01*
X176356873Y-84999618D01*
X176406498Y-84792918D01*
X176418184Y-84644422D01*
X176418503Y-84642242D01*
X176418555Y-84642094D01*
X176419000Y-84636956D01*
X176419000Y-84634775D01*
X176419191Y-84631638D01*
X176422090Y-84594793D01*
X176422985Y-84583422D01*
X176423369Y-84581000D01*
X180763631Y-84581000D01*
X180764015Y-84583422D01*
X180764871Y-84594302D01*
X180764871Y-84594303D01*
X180775198Y-84725527D01*
X180780502Y-84792918D01*
X180830127Y-84999618D01*
X180832017Y-85004181D01*
X180832019Y-85004187D01*
X180909580Y-85191436D01*
X180911475Y-85196010D01*
X181022544Y-85377259D01*
X181160599Y-85538901D01*
X181322241Y-85676956D01*
X181503490Y-85788025D01*
X181508060Y-85789918D01*
X181508064Y-85789920D01*
X181695313Y-85867481D01*
X181695319Y-85867483D01*
X181699882Y-85869373D01*
X181704682Y-85870525D01*
X181704687Y-85870527D01*
X181901774Y-85917844D01*
X181901778Y-85917845D01*
X181906582Y-85918998D01*
X181974088Y-85924310D01*
X182055078Y-85930684D01*
X182057258Y-85931003D01*
X182057406Y-85931055D01*
X182058899Y-85931184D01*
X182059837Y-85931266D01*
X182059847Y-85931266D01*
X182062544Y-85931500D01*
X182064725Y-85931500D01*
X182067862Y-85931691D01*
X182098356Y-85934090D01*
X182116078Y-85935485D01*
X182118500Y-85935869D01*
X182136291Y-85933051D01*
X182156003Y-85931500D01*
X194080997Y-85931500D01*
X194100709Y-85933051D01*
X194118500Y-85935869D01*
X194120922Y-85935485D01*
X194131802Y-85934629D01*
X194131803Y-85934629D01*
X194293908Y-85921871D01*
X194330418Y-85918998D01*
X194335222Y-85917845D01*
X194335226Y-85917844D01*
X194532313Y-85870527D01*
X194532318Y-85870525D01*
X194537118Y-85869373D01*
X194541681Y-85867483D01*
X194541687Y-85867481D01*
X194728936Y-85789920D01*
X194728940Y-85789918D01*
X194733510Y-85788025D01*
X194914759Y-85676956D01*
X195076401Y-85538901D01*
X195214456Y-85377259D01*
X195325525Y-85196010D01*
X195327420Y-85191436D01*
X195404981Y-85004187D01*
X195404983Y-85004181D01*
X195406873Y-84999618D01*
X195456498Y-84792918D01*
X195468184Y-84644422D01*
X195468503Y-84642242D01*
X195468555Y-84642094D01*
X195469000Y-84636956D01*
X195469000Y-84634775D01*
X195469191Y-84631638D01*
X195472090Y-84594793D01*
X195472985Y-84583422D01*
X195473369Y-84581000D01*
X199813631Y-84581000D01*
X199814015Y-84583422D01*
X199814871Y-84594302D01*
X199814871Y-84594303D01*
X199825198Y-84725527D01*
X199830502Y-84792918D01*
X199880127Y-84999618D01*
X199882017Y-85004181D01*
X199882019Y-85004187D01*
X199959580Y-85191436D01*
X199961475Y-85196010D01*
X200072544Y-85377259D01*
X200210599Y-85538901D01*
X200372241Y-85676956D01*
X200553490Y-85788025D01*
X200558060Y-85789918D01*
X200558064Y-85789920D01*
X200745313Y-85867481D01*
X200745319Y-85867483D01*
X200749882Y-85869373D01*
X200754682Y-85870525D01*
X200754687Y-85870527D01*
X200951774Y-85917844D01*
X200951778Y-85917845D01*
X200956582Y-85918998D01*
X201024088Y-85924310D01*
X201105078Y-85930684D01*
X201107258Y-85931003D01*
X201107406Y-85931055D01*
X201108899Y-85931184D01*
X201109837Y-85931266D01*
X201109847Y-85931266D01*
X201112544Y-85931500D01*
X201114725Y-85931500D01*
X201117862Y-85931691D01*
X201148356Y-85934090D01*
X201166078Y-85935485D01*
X201168500Y-85935869D01*
X201186291Y-85933051D01*
X201206003Y-85931500D01*
X213130997Y-85931500D01*
X213150709Y-85933051D01*
X213168500Y-85935869D01*
X213170922Y-85935485D01*
X213181802Y-85934629D01*
X213181803Y-85934629D01*
X213343908Y-85921871D01*
X213380418Y-85918998D01*
X213385222Y-85917845D01*
X213385226Y-85917844D01*
X213582313Y-85870527D01*
X213582318Y-85870525D01*
X213587118Y-85869373D01*
X213591681Y-85867483D01*
X213591687Y-85867481D01*
X213778936Y-85789920D01*
X213778940Y-85789918D01*
X213783510Y-85788025D01*
X213964759Y-85676956D01*
X214126401Y-85538901D01*
X214264456Y-85377259D01*
X214375525Y-85196010D01*
X214377420Y-85191436D01*
X214454981Y-85004187D01*
X214454983Y-85004181D01*
X214456873Y-84999618D01*
X214506498Y-84792918D01*
X214518184Y-84644422D01*
X214518503Y-84642242D01*
X214518555Y-84642094D01*
X214519000Y-84636956D01*
X214519000Y-84634775D01*
X214519191Y-84631638D01*
X214522090Y-84594793D01*
X214522985Y-84583422D01*
X214523369Y-84581000D01*
X214520551Y-84563208D01*
X214519000Y-84543497D01*
X214519000Y-72618503D01*
X214520551Y-72598792D01*
X214521817Y-72590796D01*
X214523369Y-72581000D01*
X214522985Y-72578578D01*
X214519191Y-72530362D01*
X214506886Y-72374013D01*
X214506498Y-72369082D01*
X214456873Y-72162382D01*
X214454983Y-72157819D01*
X214454981Y-72157813D01*
X214377420Y-71970564D01*
X214377418Y-71970560D01*
X214375525Y-71965990D01*
X214264456Y-71784741D01*
X214126401Y-71623099D01*
X213964759Y-71485044D01*
X213783510Y-71373975D01*
X213778940Y-71372082D01*
X213778936Y-71372080D01*
X213591687Y-71294519D01*
X213591681Y-71294517D01*
X213587118Y-71292627D01*
X213582318Y-71291475D01*
X213582313Y-71291473D01*
X213385226Y-71244156D01*
X213385222Y-71244155D01*
X213380418Y-71243002D01*
X213312912Y-71237690D01*
X213231922Y-71231316D01*
X213229742Y-71230997D01*
X213229594Y-71230945D01*
X213228101Y-71230816D01*
X213227163Y-71230734D01*
X213227153Y-71230734D01*
X213224456Y-71230500D01*
X213222275Y-71230500D01*
X213219138Y-71230309D01*
X213188644Y-71227910D01*
X213170922Y-71226515D01*
X213168500Y-71226131D01*
X213151640Y-71228801D01*
X213150708Y-71228949D01*
X213130997Y-71230500D01*
X201206003Y-71230500D01*
X201186292Y-71228949D01*
X201185360Y-71228801D01*
X201168500Y-71226131D01*
X201166078Y-71226515D01*
X201155198Y-71227371D01*
X201155197Y-71227371D01*
X200993092Y-71240129D01*
X200956582Y-71243002D01*
X200951778Y-71244155D01*
X200951774Y-71244156D01*
X200754687Y-71291473D01*
X200754682Y-71291475D01*
X200749882Y-71292627D01*
X200745319Y-71294517D01*
X200745313Y-71294519D01*
X200558064Y-71372080D01*
X200558060Y-71372082D01*
X200553490Y-71373975D01*
X200372241Y-71485044D01*
X200210599Y-71623099D01*
X200072544Y-71784741D01*
X199961475Y-71965990D01*
X199959582Y-71970560D01*
X199959580Y-71970564D01*
X199882019Y-72157813D01*
X199882017Y-72157819D01*
X199880127Y-72162382D01*
X199830502Y-72369082D01*
X199830114Y-72374013D01*
X199818816Y-72517578D01*
X199818497Y-72519758D01*
X199818445Y-72519906D01*
X199818000Y-72525044D01*
X199818000Y-72527225D01*
X199817809Y-72530362D01*
X199815410Y-72560856D01*
X199814015Y-72578578D01*
X199813631Y-72581000D01*
X199815183Y-72590796D01*
X199816449Y-72598792D01*
X199818000Y-72618503D01*
X199818000Y-84543497D01*
X199816449Y-84563208D01*
X199813631Y-84581000D01*
X195473369Y-84581000D01*
X195470551Y-84563208D01*
X195469000Y-84543497D01*
X195469000Y-72618503D01*
X195470551Y-72598792D01*
X195471817Y-72590796D01*
X195473369Y-72581000D01*
X195472985Y-72578578D01*
X195469191Y-72530362D01*
X195456886Y-72374013D01*
X195456498Y-72369082D01*
X195406873Y-72162382D01*
X195404983Y-72157819D01*
X195404981Y-72157813D01*
X195327420Y-71970564D01*
X195327418Y-71970560D01*
X195325525Y-71965990D01*
X195214456Y-71784741D01*
X195076401Y-71623099D01*
X194914759Y-71485044D01*
X194733510Y-71373975D01*
X194728940Y-71372082D01*
X194728936Y-71372080D01*
X194541687Y-71294519D01*
X194541681Y-71294517D01*
X194537118Y-71292627D01*
X194532318Y-71291475D01*
X194532313Y-71291473D01*
X194335226Y-71244156D01*
X194335222Y-71244155D01*
X194330418Y-71243002D01*
X194262912Y-71237690D01*
X194181922Y-71231316D01*
X194179742Y-71230997D01*
X194179594Y-71230945D01*
X194178101Y-71230816D01*
X194177163Y-71230734D01*
X194177153Y-71230734D01*
X194174456Y-71230500D01*
X194172275Y-71230500D01*
X194169138Y-71230309D01*
X194138644Y-71227910D01*
X194120922Y-71226515D01*
X194118500Y-71226131D01*
X194101640Y-71228801D01*
X194100708Y-71228949D01*
X194080997Y-71230500D01*
X182156003Y-71230500D01*
X182136292Y-71228949D01*
X182135360Y-71228801D01*
X182118500Y-71226131D01*
X182116078Y-71226515D01*
X182105198Y-71227371D01*
X182105197Y-71227371D01*
X181943092Y-71240129D01*
X181906582Y-71243002D01*
X181901778Y-71244155D01*
X181901774Y-71244156D01*
X181704687Y-71291473D01*
X181704682Y-71291475D01*
X181699882Y-71292627D01*
X181695319Y-71294517D01*
X181695313Y-71294519D01*
X181508064Y-71372080D01*
X181508060Y-71372082D01*
X181503490Y-71373975D01*
X181322241Y-71485044D01*
X181160599Y-71623099D01*
X181022544Y-71784741D01*
X180911475Y-71965990D01*
X180909582Y-71970560D01*
X180909580Y-71970564D01*
X180832019Y-72157813D01*
X180832017Y-72157819D01*
X180830127Y-72162382D01*
X180780502Y-72369082D01*
X180780114Y-72374013D01*
X180768816Y-72517578D01*
X180768497Y-72519758D01*
X180768445Y-72519906D01*
X180768000Y-72525044D01*
X180768000Y-72527225D01*
X180767809Y-72530362D01*
X180765410Y-72560856D01*
X180764015Y-72578578D01*
X180763631Y-72581000D01*
X180765183Y-72590796D01*
X180766449Y-72598792D01*
X180768000Y-72618503D01*
X180768000Y-84543497D01*
X180766449Y-84563208D01*
X180763631Y-84581000D01*
X176423369Y-84581000D01*
X176420551Y-84563208D01*
X176419000Y-84543497D01*
X176419000Y-72618503D01*
X176420551Y-72598792D01*
X176421817Y-72590796D01*
X176423369Y-72581000D01*
X176422985Y-72578578D01*
X176419191Y-72530362D01*
X176406886Y-72374013D01*
X176406498Y-72369082D01*
X176356873Y-72162382D01*
X176354983Y-72157819D01*
X176354981Y-72157813D01*
X176277420Y-71970564D01*
X176277418Y-71970560D01*
X176275525Y-71965990D01*
X176164456Y-71784741D01*
X176026401Y-71623099D01*
X175864759Y-71485044D01*
X175683510Y-71373975D01*
X175678940Y-71372082D01*
X175678936Y-71372080D01*
X175491687Y-71294519D01*
X175491681Y-71294517D01*
X175487118Y-71292627D01*
X175482318Y-71291475D01*
X175482313Y-71291473D01*
X175285226Y-71244156D01*
X175285222Y-71244155D01*
X175280418Y-71243002D01*
X175212912Y-71237690D01*
X175131922Y-71231316D01*
X175129742Y-71230997D01*
X175129594Y-71230945D01*
X175128101Y-71230816D01*
X175127163Y-71230734D01*
X175127153Y-71230734D01*
X175124456Y-71230500D01*
X175122275Y-71230500D01*
X175119138Y-71230309D01*
X175088644Y-71227910D01*
X175070922Y-71226515D01*
X175068500Y-71226131D01*
X175051640Y-71228801D01*
X175050708Y-71228949D01*
X175030997Y-71230500D01*
X163106003Y-71230500D01*
X163086292Y-71228949D01*
X163085360Y-71228801D01*
X163068500Y-71226131D01*
X163066078Y-71226515D01*
X163055198Y-71227371D01*
X163055197Y-71227371D01*
X162893092Y-71240129D01*
X162856582Y-71243002D01*
X162851778Y-71244155D01*
X162851774Y-71244156D01*
X162654687Y-71291473D01*
X162654682Y-71291475D01*
X162649882Y-71292627D01*
X162645319Y-71294517D01*
X162645313Y-71294519D01*
X162458064Y-71372080D01*
X162458060Y-71372082D01*
X162453490Y-71373975D01*
X162272241Y-71485044D01*
X162110599Y-71623099D01*
X161972544Y-71784741D01*
X161861475Y-71965990D01*
X161859582Y-71970560D01*
X161859580Y-71970564D01*
X161782019Y-72157813D01*
X161782017Y-72157819D01*
X161780127Y-72162382D01*
X161730502Y-72369082D01*
X161730114Y-72374013D01*
X161718816Y-72517578D01*
X161718497Y-72519758D01*
X161718445Y-72519906D01*
X161718000Y-72525044D01*
X161718000Y-72527225D01*
X161717809Y-72530362D01*
X161715410Y-72560856D01*
X161714015Y-72578578D01*
X161713631Y-72581000D01*
X161715183Y-72590796D01*
X161716449Y-72598792D01*
X161718000Y-72618503D01*
X161718000Y-84543497D01*
X161716449Y-84563208D01*
X161713631Y-84581000D01*
X157373369Y-84581000D01*
X157370551Y-84563208D01*
X157369000Y-84543497D01*
X157369000Y-72618503D01*
X157370551Y-72598792D01*
X157371817Y-72590796D01*
X157373369Y-72581000D01*
X157372985Y-72578578D01*
X157369191Y-72530362D01*
X157356886Y-72374013D01*
X157356498Y-72369082D01*
X157306873Y-72162382D01*
X157304983Y-72157819D01*
X157304981Y-72157813D01*
X157227420Y-71970564D01*
X157227418Y-71970560D01*
X157225525Y-71965990D01*
X157114456Y-71784741D01*
X156976401Y-71623099D01*
X156814759Y-71485044D01*
X156633510Y-71373975D01*
X156628940Y-71372082D01*
X156628936Y-71372080D01*
X156441687Y-71294519D01*
X156441681Y-71294517D01*
X156437118Y-71292627D01*
X156432318Y-71291475D01*
X156432313Y-71291473D01*
X156235226Y-71244156D01*
X156235222Y-71244155D01*
X156230418Y-71243002D01*
X156162912Y-71237690D01*
X156081922Y-71231316D01*
X156079742Y-71230997D01*
X156079594Y-71230945D01*
X156078101Y-71230816D01*
X156077163Y-71230734D01*
X156077153Y-71230734D01*
X156074456Y-71230500D01*
X156072275Y-71230500D01*
X156069138Y-71230309D01*
X156038644Y-71227910D01*
X156020922Y-71226515D01*
X156018500Y-71226131D01*
X156001640Y-71228801D01*
X156000708Y-71228949D01*
X155980997Y-71230500D01*
X144056003Y-71230500D01*
X144036292Y-71228949D01*
X144035360Y-71228801D01*
X144018500Y-71226131D01*
X144016078Y-71226515D01*
X144005198Y-71227371D01*
X144005197Y-71227371D01*
X143843092Y-71240129D01*
X143806582Y-71243002D01*
X143801778Y-71244155D01*
X143801774Y-71244156D01*
X143604687Y-71291473D01*
X143604682Y-71291475D01*
X143599882Y-71292627D01*
X143595319Y-71294517D01*
X143595313Y-71294519D01*
X143408064Y-71372080D01*
X143408060Y-71372082D01*
X143403490Y-71373975D01*
X143222241Y-71485044D01*
X143060599Y-71623099D01*
X142922544Y-71784741D01*
X142811475Y-71965990D01*
X142809582Y-71970560D01*
X142809580Y-71970564D01*
X142732019Y-72157813D01*
X142732017Y-72157819D01*
X142730127Y-72162382D01*
X142680502Y-72369082D01*
X142680114Y-72374013D01*
X142668816Y-72517578D01*
X142668497Y-72519758D01*
X142668445Y-72519906D01*
X142668000Y-72525044D01*
X142668000Y-72527225D01*
X142667809Y-72530362D01*
X142665410Y-72560856D01*
X142664015Y-72578578D01*
X142663631Y-72581000D01*
X142665183Y-72590796D01*
X142666449Y-72598792D01*
X142668000Y-72618503D01*
X142668000Y-84543497D01*
X142666449Y-84563208D01*
X142663631Y-84581000D01*
X138323369Y-84581000D01*
X138320551Y-84563208D01*
X138319000Y-84543497D01*
X138319000Y-72618503D01*
X138320551Y-72598792D01*
X138321817Y-72590796D01*
X138323369Y-72581000D01*
X138322985Y-72578578D01*
X138319191Y-72530362D01*
X138306886Y-72374013D01*
X138306498Y-72369082D01*
X138256873Y-72162382D01*
X138254983Y-72157819D01*
X138254981Y-72157813D01*
X138177420Y-71970564D01*
X138177418Y-71970560D01*
X138175525Y-71965990D01*
X138064456Y-71784741D01*
X137926401Y-71623099D01*
X137764759Y-71485044D01*
X137583510Y-71373975D01*
X137578940Y-71372082D01*
X137578936Y-71372080D01*
X137391687Y-71294519D01*
X137391681Y-71294517D01*
X137387118Y-71292627D01*
X137382318Y-71291475D01*
X137382313Y-71291473D01*
X137185226Y-71244156D01*
X137185222Y-71244155D01*
X137180418Y-71243002D01*
X137112912Y-71237690D01*
X137031922Y-71231316D01*
X137029742Y-71230997D01*
X137029594Y-71230945D01*
X137028101Y-71230816D01*
X137027163Y-71230734D01*
X137027153Y-71230734D01*
X137024456Y-71230500D01*
X137022275Y-71230500D01*
X137019138Y-71230309D01*
X136988644Y-71227910D01*
X136970922Y-71226515D01*
X136968500Y-71226131D01*
X136951640Y-71228801D01*
X136950708Y-71228949D01*
X136930997Y-71230500D01*
X125006003Y-71230500D01*
X124986292Y-71228949D01*
X124985360Y-71228801D01*
X124968500Y-71226131D01*
X124966078Y-71226515D01*
X124955198Y-71227371D01*
X124955197Y-71227371D01*
X124793092Y-71240129D01*
X124756582Y-71243002D01*
X124751778Y-71244155D01*
X124751774Y-71244156D01*
X124554687Y-71291473D01*
X124554682Y-71291475D01*
X124549882Y-71292627D01*
X124545319Y-71294517D01*
X124545313Y-71294519D01*
X124358064Y-71372080D01*
X124358060Y-71372082D01*
X124353490Y-71373975D01*
X124172241Y-71485044D01*
X124010599Y-71623099D01*
X123872544Y-71784741D01*
X123761475Y-71965990D01*
X123759582Y-71970560D01*
X123759580Y-71970564D01*
X123682019Y-72157813D01*
X123682017Y-72157819D01*
X123680127Y-72162382D01*
X123630502Y-72369082D01*
X123630114Y-72374013D01*
X123618816Y-72517578D01*
X123618497Y-72519758D01*
X123618445Y-72519906D01*
X123618000Y-72525044D01*
X123618000Y-72527225D01*
X123617809Y-72530362D01*
X123615410Y-72560856D01*
X123614015Y-72578578D01*
X123613631Y-72581000D01*
X123615183Y-72590796D01*
X123616449Y-72598792D01*
X123618000Y-72618503D01*
X123618000Y-84543497D01*
X123616449Y-84563208D01*
X123613631Y-84581000D01*
X119273369Y-84581000D01*
X119270551Y-84563208D01*
X119269000Y-84543497D01*
X119269000Y-72618503D01*
X119270551Y-72598792D01*
X119271817Y-72590796D01*
X119273369Y-72581000D01*
X119272985Y-72578578D01*
X119269191Y-72530362D01*
X119256886Y-72374013D01*
X119256498Y-72369082D01*
X119206873Y-72162382D01*
X119204983Y-72157819D01*
X119204981Y-72157813D01*
X119127420Y-71970564D01*
X119127418Y-71970560D01*
X119125525Y-71965990D01*
X119014456Y-71784741D01*
X118876401Y-71623099D01*
X118714759Y-71485044D01*
X118533510Y-71373975D01*
X118528940Y-71372082D01*
X118528936Y-71372080D01*
X118341687Y-71294519D01*
X118341681Y-71294517D01*
X118337118Y-71292627D01*
X118332318Y-71291475D01*
X118332313Y-71291473D01*
X118135226Y-71244156D01*
X118135222Y-71244155D01*
X118130418Y-71243002D01*
X118062912Y-71237690D01*
X117981922Y-71231316D01*
X117979742Y-71230997D01*
X117979594Y-71230945D01*
X117978101Y-71230816D01*
X117977163Y-71230734D01*
X117977153Y-71230734D01*
X117974456Y-71230500D01*
X117972275Y-71230500D01*
X117969138Y-71230309D01*
X117938644Y-71227910D01*
X117920922Y-71226515D01*
X117918500Y-71226131D01*
X117901640Y-71228801D01*
X117900708Y-71228949D01*
X117880997Y-71230500D01*
X105956003Y-71230500D01*
X105936292Y-71228949D01*
X105935360Y-71228801D01*
X105918500Y-71226131D01*
X105916078Y-71226515D01*
X105905198Y-71227371D01*
X105905197Y-71227371D01*
X105743092Y-71240129D01*
X105706582Y-71243002D01*
X105701778Y-71244155D01*
X105701774Y-71244156D01*
X105504687Y-71291473D01*
X105504682Y-71291475D01*
X105499882Y-71292627D01*
X105495319Y-71294517D01*
X105495313Y-71294519D01*
X105308064Y-71372080D01*
X105308060Y-71372082D01*
X105303490Y-71373975D01*
X105122241Y-71485044D01*
X104960599Y-71623099D01*
X104822544Y-71784741D01*
X104711475Y-71965990D01*
X104709582Y-71970560D01*
X104709580Y-71970564D01*
X104632019Y-72157813D01*
X104632017Y-72157819D01*
X104630127Y-72162382D01*
X104580502Y-72369082D01*
X104580114Y-72374013D01*
X104568816Y-72517578D01*
X104568497Y-72519758D01*
X104568445Y-72519906D01*
X104568000Y-72525044D01*
X104568000Y-72527225D01*
X104567809Y-72530362D01*
X104565410Y-72560856D01*
X104564015Y-72578578D01*
X104563631Y-72581000D01*
X104565183Y-72590796D01*
X104566449Y-72598792D01*
X104568000Y-72618503D01*
X104568000Y-84543497D01*
X104566449Y-84563208D01*
X104563631Y-84581000D01*
X102744336Y-84581000D01*
X102744336Y-69093138D01*
X120844758Y-69093138D01*
X120862035Y-69249633D01*
X120916143Y-69397490D01*
X120920380Y-69403796D01*
X120920382Y-69403799D01*
X120960709Y-69463811D01*
X121003958Y-69528172D01*
X121120410Y-69634135D01*
X121127085Y-69637759D01*
X121252099Y-69705637D01*
X121252101Y-69705638D01*
X121258776Y-69709262D01*
X121266125Y-69711190D01*
X121403719Y-69747287D01*
X121403721Y-69747287D01*
X121411069Y-69749215D01*
X121494380Y-69750524D01*
X121560898Y-69751569D01*
X121560901Y-69751569D01*
X121568495Y-69751688D01*
X121721968Y-69716538D01*
X121862625Y-69645795D01*
X121888869Y-69623381D01*
X121976574Y-69548474D01*
X121976576Y-69548471D01*
X121982348Y-69543542D01*
X122074224Y-69415683D01*
X122132950Y-69269598D01*
X122155134Y-69113723D01*
X122155278Y-69100000D01*
X122136363Y-68943694D01*
X122080710Y-68796412D01*
X121991531Y-68666657D01*
X121944971Y-68625174D01*
X121879648Y-68566972D01*
X121879645Y-68566970D01*
X121873976Y-68561919D01*
X121734831Y-68488245D01*
X121718122Y-68484048D01*
X121589498Y-68451740D01*
X121589496Y-68451740D01*
X121582128Y-68449889D01*
X121574530Y-68449849D01*
X121574528Y-68449849D01*
X121507319Y-68449497D01*
X121424684Y-68449065D01*
X121417305Y-68450837D01*
X121417301Y-68450837D01*
X121278967Y-68484048D01*
X121278963Y-68484049D01*
X121271588Y-68485820D01*
X121131679Y-68558032D01*
X121125957Y-68563024D01*
X121125955Y-68563025D01*
X121018759Y-68656538D01*
X121018756Y-68656541D01*
X121013034Y-68661533D01*
X120922501Y-68790348D01*
X120865309Y-68937039D01*
X120844758Y-69093138D01*
X102744336Y-69093138D01*
X102744336Y-65531000D01*
X104563631Y-65531000D01*
X104564015Y-65533422D01*
X104564871Y-65544302D01*
X104564871Y-65544303D01*
X104575198Y-65675527D01*
X104580502Y-65742918D01*
X104630127Y-65949618D01*
X104632017Y-65954181D01*
X104632019Y-65954187D01*
X104709580Y-66141436D01*
X104711475Y-66146010D01*
X104822544Y-66327259D01*
X104960599Y-66488901D01*
X105122241Y-66626956D01*
X105303490Y-66738025D01*
X105308060Y-66739918D01*
X105308064Y-66739920D01*
X105495313Y-66817481D01*
X105495319Y-66817483D01*
X105499882Y-66819373D01*
X105504682Y-66820525D01*
X105504687Y-66820527D01*
X105701774Y-66867844D01*
X105701778Y-66867845D01*
X105706582Y-66868998D01*
X105774088Y-66874310D01*
X105855078Y-66880684D01*
X105857258Y-66881003D01*
X105857406Y-66881055D01*
X105858899Y-66881184D01*
X105859837Y-66881266D01*
X105859847Y-66881266D01*
X105862544Y-66881500D01*
X105864725Y-66881500D01*
X105867862Y-66881691D01*
X105898356Y-66884090D01*
X105916078Y-66885485D01*
X105918500Y-66885869D01*
X105936291Y-66883051D01*
X105956003Y-66881500D01*
X117880997Y-66881500D01*
X117900709Y-66883051D01*
X117918500Y-66885869D01*
X117920922Y-66885485D01*
X117931802Y-66884629D01*
X117931803Y-66884629D01*
X118093908Y-66871871D01*
X118130418Y-66868998D01*
X118135222Y-66867845D01*
X118135226Y-66867844D01*
X118332313Y-66820527D01*
X118332318Y-66820525D01*
X118337118Y-66819373D01*
X118341681Y-66817483D01*
X118341687Y-66817481D01*
X118528936Y-66739920D01*
X118528940Y-66739918D01*
X118533510Y-66738025D01*
X118714759Y-66626956D01*
X118876401Y-66488901D01*
X119014456Y-66327259D01*
X119125525Y-66146010D01*
X119127420Y-66141436D01*
X119204981Y-65954187D01*
X119204983Y-65954181D01*
X119206873Y-65949618D01*
X119256498Y-65742918D01*
X119268184Y-65594422D01*
X119268503Y-65592242D01*
X119268555Y-65592094D01*
X119269000Y-65586956D01*
X119269000Y-65584775D01*
X119269191Y-65581638D01*
X119272090Y-65544793D01*
X119272985Y-65533422D01*
X119273369Y-65531000D01*
X123613631Y-65531000D01*
X123614015Y-65533422D01*
X123614871Y-65544302D01*
X123614871Y-65544303D01*
X123625198Y-65675527D01*
X123630502Y-65742918D01*
X123680127Y-65949618D01*
X123682017Y-65954181D01*
X123682019Y-65954187D01*
X123759580Y-66141436D01*
X123761475Y-66146010D01*
X123872544Y-66327259D01*
X124010599Y-66488901D01*
X124172241Y-66626956D01*
X124353490Y-66738025D01*
X124358060Y-66739918D01*
X124358064Y-66739920D01*
X124545313Y-66817481D01*
X124545319Y-66817483D01*
X124549882Y-66819373D01*
X124554682Y-66820525D01*
X124554687Y-66820527D01*
X124751774Y-66867844D01*
X124751778Y-66867845D01*
X124756582Y-66868998D01*
X124824088Y-66874310D01*
X124905078Y-66880684D01*
X124907258Y-66881003D01*
X124907406Y-66881055D01*
X124908899Y-66881184D01*
X124909837Y-66881266D01*
X124909847Y-66881266D01*
X124912544Y-66881500D01*
X124914725Y-66881500D01*
X124917862Y-66881691D01*
X124948356Y-66884090D01*
X124966078Y-66885485D01*
X124968500Y-66885869D01*
X124986291Y-66883051D01*
X125006003Y-66881500D01*
X136930997Y-66881500D01*
X136950709Y-66883051D01*
X136968500Y-66885869D01*
X136970922Y-66885485D01*
X136981802Y-66884629D01*
X136981803Y-66884629D01*
X137143908Y-66871871D01*
X137180418Y-66868998D01*
X137185222Y-66867845D01*
X137185226Y-66867844D01*
X137382313Y-66820527D01*
X137382318Y-66820525D01*
X137387118Y-66819373D01*
X137391681Y-66817483D01*
X137391687Y-66817481D01*
X137578936Y-66739920D01*
X137578940Y-66739918D01*
X137583510Y-66738025D01*
X137764759Y-66626956D01*
X137926401Y-66488901D01*
X138064456Y-66327259D01*
X138175525Y-66146010D01*
X138177420Y-66141436D01*
X138254981Y-65954187D01*
X138254983Y-65954181D01*
X138256873Y-65949618D01*
X138306498Y-65742918D01*
X138318184Y-65594422D01*
X138318503Y-65592242D01*
X138318555Y-65592094D01*
X138319000Y-65586956D01*
X138319000Y-65584775D01*
X138319191Y-65581638D01*
X138322090Y-65544793D01*
X138322985Y-65533422D01*
X138323369Y-65531000D01*
X142663631Y-65531000D01*
X142664015Y-65533422D01*
X142664871Y-65544302D01*
X142664871Y-65544303D01*
X142675198Y-65675527D01*
X142680502Y-65742918D01*
X142730127Y-65949618D01*
X142732017Y-65954181D01*
X142732019Y-65954187D01*
X142809580Y-66141436D01*
X142811475Y-66146010D01*
X142922544Y-66327259D01*
X143060599Y-66488901D01*
X143222241Y-66626956D01*
X143403490Y-66738025D01*
X143408060Y-66739918D01*
X143408064Y-66739920D01*
X143595313Y-66817481D01*
X143595319Y-66817483D01*
X143599882Y-66819373D01*
X143604682Y-66820525D01*
X143604687Y-66820527D01*
X143801774Y-66867844D01*
X143801778Y-66867845D01*
X143806582Y-66868998D01*
X143874088Y-66874310D01*
X143955078Y-66880684D01*
X143957258Y-66881003D01*
X143957406Y-66881055D01*
X143958899Y-66881184D01*
X143959837Y-66881266D01*
X143959847Y-66881266D01*
X143962544Y-66881500D01*
X143964725Y-66881500D01*
X143967862Y-66881691D01*
X143998356Y-66884090D01*
X144016078Y-66885485D01*
X144018500Y-66885869D01*
X144036291Y-66883051D01*
X144056003Y-66881500D01*
X155980997Y-66881500D01*
X156000709Y-66883051D01*
X156018500Y-66885869D01*
X156020922Y-66885485D01*
X156031802Y-66884629D01*
X156031803Y-66884629D01*
X156193908Y-66871871D01*
X156230418Y-66868998D01*
X156235222Y-66867845D01*
X156235226Y-66867844D01*
X156432313Y-66820527D01*
X156432318Y-66820525D01*
X156437118Y-66819373D01*
X156441681Y-66817483D01*
X156441687Y-66817481D01*
X156628936Y-66739920D01*
X156628940Y-66739918D01*
X156633510Y-66738025D01*
X156814759Y-66626956D01*
X156976401Y-66488901D01*
X157114456Y-66327259D01*
X157225525Y-66146010D01*
X157227420Y-66141436D01*
X157304981Y-65954187D01*
X157304983Y-65954181D01*
X157306873Y-65949618D01*
X157356498Y-65742918D01*
X157368184Y-65594422D01*
X157368503Y-65592242D01*
X157368555Y-65592094D01*
X157369000Y-65586956D01*
X157369000Y-65584775D01*
X157369191Y-65581638D01*
X157372090Y-65544793D01*
X157372985Y-65533422D01*
X157373369Y-65531000D01*
X161713631Y-65531000D01*
X161714015Y-65533422D01*
X161714871Y-65544302D01*
X161714871Y-65544303D01*
X161725198Y-65675527D01*
X161730502Y-65742918D01*
X161780127Y-65949618D01*
X161782017Y-65954181D01*
X161782019Y-65954187D01*
X161859580Y-66141436D01*
X161861475Y-66146010D01*
X161972544Y-66327259D01*
X162110599Y-66488901D01*
X162272241Y-66626956D01*
X162453490Y-66738025D01*
X162458060Y-66739918D01*
X162458064Y-66739920D01*
X162645313Y-66817481D01*
X162645319Y-66817483D01*
X162649882Y-66819373D01*
X162654682Y-66820525D01*
X162654687Y-66820527D01*
X162851774Y-66867844D01*
X162851778Y-66867845D01*
X162856582Y-66868998D01*
X162924088Y-66874310D01*
X163005078Y-66880684D01*
X163007258Y-66881003D01*
X163007406Y-66881055D01*
X163008899Y-66881184D01*
X163009837Y-66881266D01*
X163009847Y-66881266D01*
X163012544Y-66881500D01*
X163014725Y-66881500D01*
X163017862Y-66881691D01*
X163048356Y-66884090D01*
X163066078Y-66885485D01*
X163068500Y-66885869D01*
X163086291Y-66883051D01*
X163106003Y-66881500D01*
X175030997Y-66881500D01*
X175050709Y-66883051D01*
X175068500Y-66885869D01*
X175070922Y-66885485D01*
X175081802Y-66884629D01*
X175081803Y-66884629D01*
X175243908Y-66871871D01*
X175280418Y-66868998D01*
X175285222Y-66867845D01*
X175285226Y-66867844D01*
X175482313Y-66820527D01*
X175482318Y-66820525D01*
X175487118Y-66819373D01*
X175491681Y-66817483D01*
X175491687Y-66817481D01*
X175678936Y-66739920D01*
X175678940Y-66739918D01*
X175683510Y-66738025D01*
X175864759Y-66626956D01*
X176026401Y-66488901D01*
X176164456Y-66327259D01*
X176275525Y-66146010D01*
X176277420Y-66141436D01*
X176354981Y-65954187D01*
X176354983Y-65954181D01*
X176356873Y-65949618D01*
X176406498Y-65742918D01*
X176418184Y-65594422D01*
X176418503Y-65592242D01*
X176418555Y-65592094D01*
X176419000Y-65586956D01*
X176419000Y-65584775D01*
X176419191Y-65581638D01*
X176422090Y-65544793D01*
X176422985Y-65533422D01*
X176423369Y-65531000D01*
X180763631Y-65531000D01*
X180764015Y-65533422D01*
X180764871Y-65544302D01*
X180764871Y-65544303D01*
X180775198Y-65675527D01*
X180780502Y-65742918D01*
X180830127Y-65949618D01*
X180832017Y-65954181D01*
X180832019Y-65954187D01*
X180909580Y-66141436D01*
X180911475Y-66146010D01*
X181022544Y-66327259D01*
X181160599Y-66488901D01*
X181322241Y-66626956D01*
X181503490Y-66738025D01*
X181508060Y-66739918D01*
X181508064Y-66739920D01*
X181695313Y-66817481D01*
X181695319Y-66817483D01*
X181699882Y-66819373D01*
X181704682Y-66820525D01*
X181704687Y-66820527D01*
X181901774Y-66867844D01*
X181901778Y-66867845D01*
X181906582Y-66868998D01*
X181974088Y-66874310D01*
X182055078Y-66880684D01*
X182057258Y-66881003D01*
X182057406Y-66881055D01*
X182058899Y-66881184D01*
X182059837Y-66881266D01*
X182059847Y-66881266D01*
X182062544Y-66881500D01*
X182064725Y-66881500D01*
X182067862Y-66881691D01*
X182098356Y-66884090D01*
X182116078Y-66885485D01*
X182118500Y-66885869D01*
X182136291Y-66883051D01*
X182156003Y-66881500D01*
X194080997Y-66881500D01*
X194100709Y-66883051D01*
X194118500Y-66885869D01*
X194120922Y-66885485D01*
X194131802Y-66884629D01*
X194131803Y-66884629D01*
X194293908Y-66871871D01*
X194330418Y-66868998D01*
X194335222Y-66867845D01*
X194335226Y-66867844D01*
X194532313Y-66820527D01*
X194532318Y-66820525D01*
X194537118Y-66819373D01*
X194541681Y-66817483D01*
X194541687Y-66817481D01*
X194728936Y-66739920D01*
X194728940Y-66739918D01*
X194733510Y-66738025D01*
X194914759Y-66626956D01*
X195076401Y-66488901D01*
X195214456Y-66327259D01*
X195325525Y-66146010D01*
X195327420Y-66141436D01*
X195404981Y-65954187D01*
X195404983Y-65954181D01*
X195406873Y-65949618D01*
X195456498Y-65742918D01*
X195468184Y-65594422D01*
X195468503Y-65592242D01*
X195468555Y-65592094D01*
X195469000Y-65586956D01*
X195469000Y-65584775D01*
X195469191Y-65581638D01*
X195472090Y-65544793D01*
X195472985Y-65533422D01*
X195473369Y-65531000D01*
X199813631Y-65531000D01*
X199814015Y-65533422D01*
X199814871Y-65544302D01*
X199814871Y-65544303D01*
X199825198Y-65675527D01*
X199830502Y-65742918D01*
X199880127Y-65949618D01*
X199882017Y-65954181D01*
X199882019Y-65954187D01*
X199959580Y-66141436D01*
X199961475Y-66146010D01*
X200072544Y-66327259D01*
X200210599Y-66488901D01*
X200372241Y-66626956D01*
X200553490Y-66738025D01*
X200558060Y-66739918D01*
X200558064Y-66739920D01*
X200745313Y-66817481D01*
X200745319Y-66817483D01*
X200749882Y-66819373D01*
X200754682Y-66820525D01*
X200754687Y-66820527D01*
X200951774Y-66867844D01*
X200951778Y-66867845D01*
X200956582Y-66868998D01*
X201024088Y-66874310D01*
X201105078Y-66880684D01*
X201107258Y-66881003D01*
X201107406Y-66881055D01*
X201108899Y-66881184D01*
X201109837Y-66881266D01*
X201109847Y-66881266D01*
X201112544Y-66881500D01*
X201114725Y-66881500D01*
X201117862Y-66881691D01*
X201148356Y-66884090D01*
X201166078Y-66885485D01*
X201168500Y-66885869D01*
X201186291Y-66883051D01*
X201206003Y-66881500D01*
X213130997Y-66881500D01*
X213150709Y-66883051D01*
X213168500Y-66885869D01*
X213170922Y-66885485D01*
X213181802Y-66884629D01*
X213181803Y-66884629D01*
X213343908Y-66871871D01*
X213380418Y-66868998D01*
X213385222Y-66867845D01*
X213385226Y-66867844D01*
X213582313Y-66820527D01*
X213582318Y-66820525D01*
X213587118Y-66819373D01*
X213591681Y-66817483D01*
X213591687Y-66817481D01*
X213778936Y-66739920D01*
X213778940Y-66739918D01*
X213783510Y-66738025D01*
X213964759Y-66626956D01*
X214126401Y-66488901D01*
X214264456Y-66327259D01*
X214375525Y-66146010D01*
X214377420Y-66141436D01*
X214454981Y-65954187D01*
X214454983Y-65954181D01*
X214456873Y-65949618D01*
X214506498Y-65742918D01*
X214518184Y-65594422D01*
X214518503Y-65592242D01*
X214518555Y-65592094D01*
X214519000Y-65586956D01*
X214519000Y-65584775D01*
X214519191Y-65581638D01*
X214522090Y-65544793D01*
X214522985Y-65533422D01*
X214523369Y-65531000D01*
X214520551Y-65513208D01*
X214519000Y-65493497D01*
X214519000Y-53568503D01*
X214520551Y-53548792D01*
X214521817Y-53540796D01*
X214523369Y-53531000D01*
X214522985Y-53528578D01*
X214519191Y-53480362D01*
X214506886Y-53324013D01*
X214506498Y-53319082D01*
X214456873Y-53112382D01*
X214454983Y-53107819D01*
X214454981Y-53107813D01*
X214377420Y-52920564D01*
X214377418Y-52920560D01*
X214375525Y-52915990D01*
X214264456Y-52734741D01*
X214126401Y-52573099D01*
X213964759Y-52435044D01*
X213783510Y-52323975D01*
X213778940Y-52322082D01*
X213778936Y-52322080D01*
X213591687Y-52244519D01*
X213591681Y-52244517D01*
X213587118Y-52242627D01*
X213582318Y-52241475D01*
X213582313Y-52241473D01*
X213385226Y-52194156D01*
X213385222Y-52194155D01*
X213380418Y-52193002D01*
X213312912Y-52187690D01*
X213231922Y-52181316D01*
X213229742Y-52180997D01*
X213229594Y-52180945D01*
X213228101Y-52180816D01*
X213227163Y-52180734D01*
X213227153Y-52180734D01*
X213224456Y-52180500D01*
X213222275Y-52180500D01*
X213219138Y-52180309D01*
X213188644Y-52177910D01*
X213170922Y-52176515D01*
X213168500Y-52176131D01*
X213151640Y-52178801D01*
X213150708Y-52178949D01*
X213130997Y-52180500D01*
X201206003Y-52180500D01*
X201186292Y-52178949D01*
X201185360Y-52178801D01*
X201168500Y-52176131D01*
X201166078Y-52176515D01*
X201155198Y-52177371D01*
X201155197Y-52177371D01*
X200993092Y-52190129D01*
X200956582Y-52193002D01*
X200951778Y-52194155D01*
X200951774Y-52194156D01*
X200754687Y-52241473D01*
X200754682Y-52241475D01*
X200749882Y-52242627D01*
X200745319Y-52244517D01*
X200745313Y-52244519D01*
X200558064Y-52322080D01*
X200558060Y-52322082D01*
X200553490Y-52323975D01*
X200372241Y-52435044D01*
X200210599Y-52573099D01*
X200072544Y-52734741D01*
X199961475Y-52915990D01*
X199959582Y-52920560D01*
X199959580Y-52920564D01*
X199882019Y-53107813D01*
X199882017Y-53107819D01*
X199880127Y-53112382D01*
X199830502Y-53319082D01*
X199830114Y-53324013D01*
X199818816Y-53467578D01*
X199818497Y-53469758D01*
X199818445Y-53469906D01*
X199818000Y-53475044D01*
X199818000Y-53477225D01*
X199817809Y-53480362D01*
X199815410Y-53510856D01*
X199814015Y-53528578D01*
X199813631Y-53531000D01*
X199815183Y-53540796D01*
X199816449Y-53548792D01*
X199818000Y-53568503D01*
X199818000Y-65493497D01*
X199816449Y-65513208D01*
X199813631Y-65531000D01*
X195473369Y-65531000D01*
X195470551Y-65513208D01*
X195469000Y-65493497D01*
X195469000Y-53568503D01*
X195470551Y-53548792D01*
X195471817Y-53540796D01*
X195473369Y-53531000D01*
X195472985Y-53528578D01*
X195469191Y-53480362D01*
X195456886Y-53324013D01*
X195456498Y-53319082D01*
X195406873Y-53112382D01*
X195404983Y-53107819D01*
X195404981Y-53107813D01*
X195327420Y-52920564D01*
X195327418Y-52920560D01*
X195325525Y-52915990D01*
X195214456Y-52734741D01*
X195076401Y-52573099D01*
X194914759Y-52435044D01*
X194733510Y-52323975D01*
X194728940Y-52322082D01*
X194728936Y-52322080D01*
X194541687Y-52244519D01*
X194541681Y-52244517D01*
X194537118Y-52242627D01*
X194532318Y-52241475D01*
X194532313Y-52241473D01*
X194335226Y-52194156D01*
X194335222Y-52194155D01*
X194330418Y-52193002D01*
X194262912Y-52187690D01*
X194181922Y-52181316D01*
X194179742Y-52180997D01*
X194179594Y-52180945D01*
X194178101Y-52180816D01*
X194177163Y-52180734D01*
X194177153Y-52180734D01*
X194174456Y-52180500D01*
X194172275Y-52180500D01*
X194169138Y-52180309D01*
X194138644Y-52177910D01*
X194120922Y-52176515D01*
X194118500Y-52176131D01*
X194101640Y-52178801D01*
X194100708Y-52178949D01*
X194080997Y-52180500D01*
X182156003Y-52180500D01*
X182136292Y-52178949D01*
X182135360Y-52178801D01*
X182118500Y-52176131D01*
X182116078Y-52176515D01*
X182105198Y-52177371D01*
X182105197Y-52177371D01*
X181943092Y-52190129D01*
X181906582Y-52193002D01*
X181901778Y-52194155D01*
X181901774Y-52194156D01*
X181704687Y-52241473D01*
X181704682Y-52241475D01*
X181699882Y-52242627D01*
X181695319Y-52244517D01*
X181695313Y-52244519D01*
X181508064Y-52322080D01*
X181508060Y-52322082D01*
X181503490Y-52323975D01*
X181322241Y-52435044D01*
X181160599Y-52573099D01*
X181022544Y-52734741D01*
X180911475Y-52915990D01*
X180909582Y-52920560D01*
X180909580Y-52920564D01*
X180832019Y-53107813D01*
X180832017Y-53107819D01*
X180830127Y-53112382D01*
X180780502Y-53319082D01*
X180780114Y-53324013D01*
X180768816Y-53467578D01*
X180768497Y-53469758D01*
X180768445Y-53469906D01*
X180768000Y-53475044D01*
X180768000Y-53477225D01*
X180767809Y-53480362D01*
X180765410Y-53510856D01*
X180764015Y-53528578D01*
X180763631Y-53531000D01*
X180765183Y-53540796D01*
X180766449Y-53548792D01*
X180768000Y-53568503D01*
X180768000Y-65493497D01*
X180766449Y-65513208D01*
X180763631Y-65531000D01*
X176423369Y-65531000D01*
X176420551Y-65513208D01*
X176419000Y-65493497D01*
X176419000Y-53568503D01*
X176420551Y-53548792D01*
X176421817Y-53540796D01*
X176423369Y-53531000D01*
X176422985Y-53528578D01*
X176419191Y-53480362D01*
X176406886Y-53324013D01*
X176406498Y-53319082D01*
X176356873Y-53112382D01*
X176354983Y-53107819D01*
X176354981Y-53107813D01*
X176277420Y-52920564D01*
X176277418Y-52920560D01*
X176275525Y-52915990D01*
X176164456Y-52734741D01*
X176026401Y-52573099D01*
X175864759Y-52435044D01*
X175683510Y-52323975D01*
X175678940Y-52322082D01*
X175678936Y-52322080D01*
X175491687Y-52244519D01*
X175491681Y-52244517D01*
X175487118Y-52242627D01*
X175482318Y-52241475D01*
X175482313Y-52241473D01*
X175285226Y-52194156D01*
X175285222Y-52194155D01*
X175280418Y-52193002D01*
X175212912Y-52187690D01*
X175131922Y-52181316D01*
X175129742Y-52180997D01*
X175129594Y-52180945D01*
X175128101Y-52180816D01*
X175127163Y-52180734D01*
X175127153Y-52180734D01*
X175124456Y-52180500D01*
X175122275Y-52180500D01*
X175119138Y-52180309D01*
X175088644Y-52177910D01*
X175070922Y-52176515D01*
X175068500Y-52176131D01*
X175051640Y-52178801D01*
X175050708Y-52178949D01*
X175030997Y-52180500D01*
X163106003Y-52180500D01*
X163086292Y-52178949D01*
X163085360Y-52178801D01*
X163068500Y-52176131D01*
X163066078Y-52176515D01*
X163055198Y-52177371D01*
X163055197Y-52177371D01*
X162893092Y-52190129D01*
X162856582Y-52193002D01*
X162851778Y-52194155D01*
X162851774Y-52194156D01*
X162654687Y-52241473D01*
X162654682Y-52241475D01*
X162649882Y-52242627D01*
X162645319Y-52244517D01*
X162645313Y-52244519D01*
X162458064Y-52322080D01*
X162458060Y-52322082D01*
X162453490Y-52323975D01*
X162272241Y-52435044D01*
X162110599Y-52573099D01*
X161972544Y-52734741D01*
X161861475Y-52915990D01*
X161859582Y-52920560D01*
X161859580Y-52920564D01*
X161782019Y-53107813D01*
X161782017Y-53107819D01*
X161780127Y-53112382D01*
X161730502Y-53319082D01*
X161730114Y-53324013D01*
X161718816Y-53467578D01*
X161718497Y-53469758D01*
X161718445Y-53469906D01*
X161718000Y-53475044D01*
X161718000Y-53477225D01*
X161717809Y-53480362D01*
X161715410Y-53510856D01*
X161714015Y-53528578D01*
X161713631Y-53531000D01*
X161715183Y-53540796D01*
X161716449Y-53548792D01*
X161718000Y-53568503D01*
X161718000Y-65493497D01*
X161716449Y-65513208D01*
X161713631Y-65531000D01*
X157373369Y-65531000D01*
X157370551Y-65513208D01*
X157369000Y-65493497D01*
X157369000Y-53568503D01*
X157370551Y-53548792D01*
X157371817Y-53540796D01*
X157373369Y-53531000D01*
X157372985Y-53528578D01*
X157369191Y-53480362D01*
X157356886Y-53324013D01*
X157356498Y-53319082D01*
X157306873Y-53112382D01*
X157304983Y-53107819D01*
X157304981Y-53107813D01*
X157227420Y-52920564D01*
X157227418Y-52920560D01*
X157225525Y-52915990D01*
X157114456Y-52734741D01*
X156976401Y-52573099D01*
X156814759Y-52435044D01*
X156633510Y-52323975D01*
X156628940Y-52322082D01*
X156628936Y-52322080D01*
X156441687Y-52244519D01*
X156441681Y-52244517D01*
X156437118Y-52242627D01*
X156432318Y-52241475D01*
X156432313Y-52241473D01*
X156235226Y-52194156D01*
X156235222Y-52194155D01*
X156230418Y-52193002D01*
X156162912Y-52187690D01*
X156081922Y-52181316D01*
X156079742Y-52180997D01*
X156079594Y-52180945D01*
X156078101Y-52180816D01*
X156077163Y-52180734D01*
X156077153Y-52180734D01*
X156074456Y-52180500D01*
X156072275Y-52180500D01*
X156069138Y-52180309D01*
X156038644Y-52177910D01*
X156020922Y-52176515D01*
X156018500Y-52176131D01*
X156001640Y-52178801D01*
X156000708Y-52178949D01*
X155980997Y-52180500D01*
X144056003Y-52180500D01*
X144036292Y-52178949D01*
X144035360Y-52178801D01*
X144018500Y-52176131D01*
X144016078Y-52176515D01*
X144005198Y-52177371D01*
X144005197Y-52177371D01*
X143843092Y-52190129D01*
X143806582Y-52193002D01*
X143801778Y-52194155D01*
X143801774Y-52194156D01*
X143604687Y-52241473D01*
X143604682Y-52241475D01*
X143599882Y-52242627D01*
X143595319Y-52244517D01*
X143595313Y-52244519D01*
X143408064Y-52322080D01*
X143408060Y-52322082D01*
X143403490Y-52323975D01*
X143222241Y-52435044D01*
X143060599Y-52573099D01*
X142922544Y-52734741D01*
X142811475Y-52915990D01*
X142809582Y-52920560D01*
X142809580Y-52920564D01*
X142732019Y-53107813D01*
X142732017Y-53107819D01*
X142730127Y-53112382D01*
X142680502Y-53319082D01*
X142680114Y-53324013D01*
X142668816Y-53467578D01*
X142668497Y-53469758D01*
X142668445Y-53469906D01*
X142668000Y-53475044D01*
X142668000Y-53477225D01*
X142667809Y-53480362D01*
X142665410Y-53510856D01*
X142664015Y-53528578D01*
X142663631Y-53531000D01*
X142665183Y-53540796D01*
X142666449Y-53548792D01*
X142668000Y-53568503D01*
X142668000Y-65493497D01*
X142666449Y-65513208D01*
X142663631Y-65531000D01*
X138323369Y-65531000D01*
X138320551Y-65513208D01*
X138319000Y-65493497D01*
X138319000Y-53568503D01*
X138320551Y-53548792D01*
X138321817Y-53540796D01*
X138323369Y-53531000D01*
X138322985Y-53528578D01*
X138319191Y-53480362D01*
X138306886Y-53324013D01*
X138306498Y-53319082D01*
X138256873Y-53112382D01*
X138254983Y-53107819D01*
X138254981Y-53107813D01*
X138177420Y-52920564D01*
X138177418Y-52920560D01*
X138175525Y-52915990D01*
X138064456Y-52734741D01*
X137926401Y-52573099D01*
X137764759Y-52435044D01*
X137583510Y-52323975D01*
X137578940Y-52322082D01*
X137578936Y-52322080D01*
X137391687Y-52244519D01*
X137391681Y-52244517D01*
X137387118Y-52242627D01*
X137382318Y-52241475D01*
X137382313Y-52241473D01*
X137185226Y-52194156D01*
X137185222Y-52194155D01*
X137180418Y-52193002D01*
X137112912Y-52187690D01*
X137031922Y-52181316D01*
X137029742Y-52180997D01*
X137029594Y-52180945D01*
X137028101Y-52180816D01*
X137027163Y-52180734D01*
X137027153Y-52180734D01*
X137024456Y-52180500D01*
X137022275Y-52180500D01*
X137019138Y-52180309D01*
X136988644Y-52177910D01*
X136970922Y-52176515D01*
X136968500Y-52176131D01*
X136951640Y-52178801D01*
X136950708Y-52178949D01*
X136930997Y-52180500D01*
X125006003Y-52180500D01*
X124986292Y-52178949D01*
X124985360Y-52178801D01*
X124968500Y-52176131D01*
X124966078Y-52176515D01*
X124955198Y-52177371D01*
X124955197Y-52177371D01*
X124793092Y-52190129D01*
X124756582Y-52193002D01*
X124751778Y-52194155D01*
X124751774Y-52194156D01*
X124554687Y-52241473D01*
X124554682Y-52241475D01*
X124549882Y-52242627D01*
X124545319Y-52244517D01*
X124545313Y-52244519D01*
X124358064Y-52322080D01*
X124358060Y-52322082D01*
X124353490Y-52323975D01*
X124172241Y-52435044D01*
X124010599Y-52573099D01*
X123872544Y-52734741D01*
X123761475Y-52915990D01*
X123759582Y-52920560D01*
X123759580Y-52920564D01*
X123682019Y-53107813D01*
X123682017Y-53107819D01*
X123680127Y-53112382D01*
X123630502Y-53319082D01*
X123630114Y-53324013D01*
X123618816Y-53467578D01*
X123618497Y-53469758D01*
X123618445Y-53469906D01*
X123618000Y-53475044D01*
X123618000Y-53477225D01*
X123617809Y-53480362D01*
X123615410Y-53510856D01*
X123614015Y-53528578D01*
X123613631Y-53531000D01*
X123615183Y-53540796D01*
X123616449Y-53548792D01*
X123618000Y-53568503D01*
X123618000Y-65493497D01*
X123616449Y-65513208D01*
X123613631Y-65531000D01*
X119273369Y-65531000D01*
X119270551Y-65513208D01*
X119269000Y-65493497D01*
X119269000Y-53568503D01*
X119270551Y-53548792D01*
X119271817Y-53540796D01*
X119273369Y-53531000D01*
X119272985Y-53528578D01*
X119269191Y-53480362D01*
X119256886Y-53324013D01*
X119256498Y-53319082D01*
X119206873Y-53112382D01*
X119204983Y-53107819D01*
X119204981Y-53107813D01*
X119127420Y-52920564D01*
X119127418Y-52920560D01*
X119125525Y-52915990D01*
X119014456Y-52734741D01*
X118876401Y-52573099D01*
X118714759Y-52435044D01*
X118533510Y-52323975D01*
X118528940Y-52322082D01*
X118528936Y-52322080D01*
X118341687Y-52244519D01*
X118341681Y-52244517D01*
X118337118Y-52242627D01*
X118332318Y-52241475D01*
X118332313Y-52241473D01*
X118135226Y-52194156D01*
X118135222Y-52194155D01*
X118130418Y-52193002D01*
X118062912Y-52187690D01*
X117981922Y-52181316D01*
X117979742Y-52180997D01*
X117979594Y-52180945D01*
X117978101Y-52180816D01*
X117977163Y-52180734D01*
X117977153Y-52180734D01*
X117974456Y-52180500D01*
X117972275Y-52180500D01*
X117969138Y-52180309D01*
X117938644Y-52177910D01*
X117920922Y-52176515D01*
X117918500Y-52176131D01*
X117901640Y-52178801D01*
X117900708Y-52178949D01*
X117880997Y-52180500D01*
X105956003Y-52180500D01*
X105936292Y-52178949D01*
X105935360Y-52178801D01*
X105918500Y-52176131D01*
X105916078Y-52176515D01*
X105905198Y-52177371D01*
X105905197Y-52177371D01*
X105743092Y-52190129D01*
X105706582Y-52193002D01*
X105701778Y-52194155D01*
X105701774Y-52194156D01*
X105504687Y-52241473D01*
X105504682Y-52241475D01*
X105499882Y-52242627D01*
X105495319Y-52244517D01*
X105495313Y-52244519D01*
X105308064Y-52322080D01*
X105308060Y-52322082D01*
X105303490Y-52323975D01*
X105122241Y-52435044D01*
X104960599Y-52573099D01*
X104822544Y-52734741D01*
X104711475Y-52915990D01*
X104709582Y-52920560D01*
X104709580Y-52920564D01*
X104632019Y-53107813D01*
X104632017Y-53107819D01*
X104630127Y-53112382D01*
X104580502Y-53319082D01*
X104580114Y-53324013D01*
X104568816Y-53467578D01*
X104568497Y-53469758D01*
X104568445Y-53469906D01*
X104568000Y-53475044D01*
X104568000Y-53477225D01*
X104567809Y-53480362D01*
X104565410Y-53510856D01*
X104564015Y-53528578D01*
X104563631Y-53531000D01*
X104565183Y-53540796D01*
X104566449Y-53548792D01*
X104568000Y-53568503D01*
X104568000Y-65493497D01*
X104566449Y-65513208D01*
X104563631Y-65531000D01*
X102744336Y-65531000D01*
X102744336Y-50482792D01*
X102764338Y-50414671D01*
X102817994Y-50368178D01*
X102870336Y-50356792D01*
X214870491Y-50356792D01*
X214890202Y-50358343D01*
G37*
G04 #@! TD.AperFunction*
M02*
