G04 #@! TF.GenerationSoftware,KiCad,Pcbnew,6.0.4-6f826c9f35~116~ubuntu22.04.1*
G04 #@! TF.CreationDate,2022-03-31T08:40:12+02:00*
G04 #@! TF.ProjectId,lumberjack-split,6c756d62-6572-46a6-9163-6b2d73706c69,rev?*
G04 #@! TF.SameCoordinates,Original*
G04 #@! TF.FileFunction,Profile,NP*
%FSLAX46Y46*%
G04 Gerber Fmt 4.6, Leading zero omitted, Abs format (unit mm)*
G04 Created by KiCad (PCBNEW 6.0.4-6f826c9f35~116~ubuntu22.04.1) date 2022-03-31 08:40:12*
%MOMM*%
%LPD*%
G01*
G04 APERTURE LIST*
G04 #@! TA.AperFunction,Profile*
%ADD10C,0.200000*%
G04 #@! TD*
G04 #@! TA.AperFunction,Profile*
%ADD11C,0.100000*%
G04 #@! TD*
G04 APERTURE END LIST*
D10*
X123968500Y-72581000D02*
X123968500Y-84581000D01*
X123968500Y-84581000D02*
G75*
G03*
X124968500Y-85581000I999999J-1D01*
G01*
X136968500Y-85581000D02*
X124968500Y-85581000D01*
X137968500Y-72581000D02*
G75*
G03*
X136968500Y-71581000I-1000000J0D01*
G01*
X137968500Y-84581000D02*
X137968500Y-72581000D01*
X124968500Y-71581000D02*
G75*
G03*
X123968500Y-72581000I-1J-999999D01*
G01*
X136968500Y-85581000D02*
G75*
G03*
X137968500Y-84581000I0J1000000D01*
G01*
X124968500Y-71581000D02*
X136968500Y-71581000D01*
X143018500Y-72581000D02*
X143018500Y-84581000D01*
X143018500Y-84581000D02*
G75*
G03*
X144018500Y-85581000I999999J-1D01*
G01*
X156018500Y-85581000D02*
X144018500Y-85581000D01*
X157018500Y-72581000D02*
G75*
G03*
X156018500Y-71581000I-1000000J0D01*
G01*
X157018500Y-84581000D02*
X157018500Y-72581000D01*
X144018500Y-71581000D02*
G75*
G03*
X143018500Y-72581000I-1J-999999D01*
G01*
X156018500Y-85581000D02*
G75*
G03*
X157018500Y-84581000I0J1000000D01*
G01*
X144018500Y-71581000D02*
X156018500Y-71581000D01*
X162068500Y-72581000D02*
X162068500Y-84581000D01*
X162068500Y-84581000D02*
G75*
G03*
X163068500Y-85581000I999999J-1D01*
G01*
X175068500Y-85581000D02*
X163068500Y-85581000D01*
X176068500Y-72581000D02*
G75*
G03*
X175068500Y-71581000I-1000000J0D01*
G01*
X176068500Y-84581000D02*
X176068500Y-72581000D01*
X163068500Y-71581000D02*
G75*
G03*
X162068500Y-72581000I-1J-999999D01*
G01*
D11*
X211694000Y-108407000D02*
X216693932Y-108406092D01*
D10*
X130869000Y-126731000D02*
G75*
G03*
X129869000Y-127731000I7J-1000007D01*
G01*
D11*
X211694000Y-105907000D02*
G75*
G03*
X211694000Y-108407000I0J-1250000D01*
G01*
D10*
X136956000Y-142731000D02*
X105906000Y-142731000D01*
X104906000Y-141731000D02*
X104906000Y-129731000D01*
X136869000Y-127951554D02*
G75*
G03*
X137412500Y-128841277I1000100J61D01*
G01*
X106993000Y-126731000D02*
X111993000Y-126731000D01*
D11*
X102393836Y-145256372D02*
X214907993Y-145256372D01*
X102393836Y-50006292D02*
X102393836Y-145256372D01*
X214907993Y-50006292D02*
X102393836Y-50006292D01*
X216693932Y-108406092D02*
X216693932Y-143470433D01*
X216693932Y-51792231D02*
X216693932Y-105906588D01*
X214907993Y-145256372D02*
G75*
G03*
X216693932Y-143470433I0J1785939D01*
G01*
X216693932Y-51792231D02*
G75*
G03*
X214907993Y-50006292I-1785939J0D01*
G01*
D10*
X105918500Y-52531000D02*
X117918500Y-52531000D01*
D11*
X211694000Y-105907000D02*
X216693932Y-105906588D01*
D10*
X137956004Y-129731000D02*
G75*
G03*
X137412500Y-128841277I-1000007J-7D01*
G01*
X137968500Y-53531000D02*
G75*
G03*
X136968500Y-52531000I-1000000J0D01*
G01*
X162068500Y-122681000D02*
G75*
G03*
X163068500Y-123681000I999999J-1D01*
G01*
X162068500Y-110681000D02*
X162068500Y-122681000D01*
X113993000Y-128731000D02*
X128869000Y-128731000D01*
X105449495Y-128841268D02*
G75*
G03*
X105993000Y-127951554I-456388J889661D01*
G01*
X136956000Y-142731000D02*
G75*
G03*
X137956000Y-141731000I1J999999D01*
G01*
X105918500Y-52531000D02*
G75*
G03*
X104918500Y-53531000I-1J-999999D01*
G01*
X136968500Y-66531000D02*
G75*
G03*
X137968500Y-65531000I0J1000000D01*
G01*
X124968500Y-52531000D02*
X136968500Y-52531000D01*
X176068500Y-110681000D02*
G75*
G03*
X175068500Y-109681000I-1000000J0D01*
G01*
X182118500Y-109681000D02*
X194118500Y-109681000D01*
X194118500Y-123681000D02*
G75*
G03*
X195118500Y-122681000I0J1000000D01*
G01*
X182118500Y-109681000D02*
G75*
G03*
X181118500Y-110681000I-1J-999999D01*
G01*
X195118500Y-122681000D02*
X195118500Y-110681000D01*
X195118500Y-110681000D02*
G75*
G03*
X194118500Y-109681000I-1000000J0D01*
G01*
X194118500Y-123681000D02*
X182118500Y-123681000D01*
X181118500Y-122681000D02*
G75*
G03*
X182118500Y-123681000I999999J-1D01*
G01*
X175068500Y-85581000D02*
G75*
G03*
X176068500Y-84581000I0J1000000D01*
G01*
X163068500Y-71581000D02*
X175068500Y-71581000D01*
X181118500Y-72581000D02*
X181118500Y-84581000D01*
X181118500Y-84581000D02*
G75*
G03*
X182118500Y-85581000I999999J-1D01*
G01*
X194118500Y-85581000D02*
X182118500Y-85581000D01*
X195118500Y-72581000D02*
G75*
G03*
X194118500Y-71581000I-1000000J0D01*
G01*
X195118500Y-84581000D02*
X195118500Y-72581000D01*
X182118500Y-71581000D02*
G75*
G03*
X181118500Y-72581000I-1J-999999D01*
G01*
X194118500Y-85581000D02*
G75*
G03*
X195118500Y-84581000I0J1000000D01*
G01*
X182118500Y-71581000D02*
X194118500Y-71581000D01*
X143018500Y-110681000D02*
X143018500Y-122681000D01*
X143018500Y-122681000D02*
G75*
G03*
X144018500Y-123681000I999999J-1D01*
G01*
X156018500Y-123681000D02*
X144018500Y-123681000D01*
X157018500Y-110681000D02*
G75*
G03*
X156018500Y-109681000I-1000000J0D01*
G01*
X157018500Y-122681000D02*
X157018500Y-110681000D01*
X144018500Y-109681000D02*
G75*
G03*
X143018500Y-110681000I-1J-999999D01*
G01*
X156018500Y-123681000D02*
G75*
G03*
X157018500Y-122681000I0J1000000D01*
G01*
X144018500Y-109681000D02*
X156018500Y-109681000D01*
X201168500Y-71581000D02*
X213168500Y-71581000D01*
X104918500Y-91631000D02*
X104918500Y-103631000D01*
X104918500Y-103631000D02*
G75*
G03*
X105918500Y-104631000I999999J-1D01*
G01*
X117918500Y-104631000D02*
X105918500Y-104631000D01*
X118918500Y-91631000D02*
G75*
G03*
X117918500Y-90631000I-1000000J0D01*
G01*
X118918500Y-103631000D02*
X118918500Y-91631000D01*
X105918500Y-90631000D02*
G75*
G03*
X104918500Y-91631000I-1J-999999D01*
G01*
X117918500Y-104631000D02*
G75*
G03*
X118918500Y-103631000I0J1000000D01*
G01*
X105918500Y-90631000D02*
X117918500Y-90631000D01*
X123968500Y-91631000D02*
X123968500Y-103631000D01*
X123968500Y-103631000D02*
G75*
G03*
X124968500Y-104631000I999999J-1D01*
G01*
X136968500Y-104631000D02*
X124968500Y-104631000D01*
X137968500Y-91631000D02*
G75*
G03*
X136968500Y-90631000I-1000000J0D01*
G01*
X137968500Y-103631000D02*
X137968500Y-91631000D01*
X124968500Y-90631000D02*
G75*
G03*
X123968500Y-91631000I-1J-999999D01*
G01*
X136968500Y-104631000D02*
G75*
G03*
X137968500Y-103631000I0J1000000D01*
G01*
X124968500Y-90631000D02*
X136968500Y-90631000D01*
X176068500Y-122681000D02*
X176068500Y-110681000D01*
X136968500Y-66531000D02*
X124968500Y-66531000D01*
X112993014Y-127731000D02*
G75*
G03*
X113993000Y-128731000I999993J-7D01*
G01*
X123968500Y-65531000D02*
G75*
G03*
X124968500Y-66531000I999999J-1D01*
G01*
X137968500Y-65531000D02*
X137968500Y-53531000D01*
X124968500Y-52531000D02*
G75*
G03*
X123968500Y-53531000I-1J-999999D01*
G01*
X128869000Y-128731000D02*
G75*
G03*
X129869000Y-127731000I7J999993D01*
G01*
X136869004Y-127731000D02*
G75*
G03*
X135869001Y-126731000I-1000007J-7D01*
G01*
X118918500Y-65531000D02*
X118918500Y-53531000D01*
X163068500Y-109681000D02*
X175068500Y-109681000D01*
X143018500Y-53531000D02*
X143018500Y-65531000D01*
X143018500Y-65531000D02*
G75*
G03*
X144018500Y-66531000I999999J-1D01*
G01*
X156018500Y-66531000D02*
X144018500Y-66531000D01*
X157018500Y-53531000D02*
G75*
G03*
X156018500Y-52531000I-1000000J0D01*
G01*
X157018500Y-65531000D02*
X157018500Y-53531000D01*
X144018500Y-52531000D02*
G75*
G03*
X143018500Y-53531000I-1J-999999D01*
G01*
X156018500Y-66531000D02*
G75*
G03*
X157018500Y-65531000I0J1000000D01*
G01*
X144018500Y-52531000D02*
X156018500Y-52531000D01*
X104906014Y-141731000D02*
G75*
G03*
X105906000Y-142731000I999993J-7D01*
G01*
X123968500Y-53531000D02*
X123968500Y-65531000D01*
X123968500Y-110681000D02*
X123968500Y-122681000D01*
X123968500Y-122681000D02*
G75*
G03*
X124968500Y-123681000I999999J-1D01*
G01*
X136968500Y-123681000D02*
X124968500Y-123681000D01*
X137968500Y-110681000D02*
G75*
G03*
X136968500Y-109681000I-1000000J0D01*
G01*
X137968500Y-122681000D02*
X137968500Y-110681000D01*
X124968500Y-109681000D02*
G75*
G03*
X123968500Y-110681000I-1J-999999D01*
G01*
X136968500Y-123681000D02*
G75*
G03*
X137968500Y-122681000I0J1000000D01*
G01*
X124968500Y-109681000D02*
X136968500Y-109681000D01*
X136869001Y-127731000D02*
X136869001Y-127951554D01*
X118918500Y-53531000D02*
G75*
G03*
X117918500Y-52531000I-1000000J0D01*
G01*
X181118500Y-110681000D02*
X181118500Y-122681000D01*
X144018500Y-128731000D02*
X156018500Y-128731000D01*
X156018500Y-142731000D02*
G75*
G03*
X157018500Y-141731000I0J1000000D01*
G01*
X144018500Y-128731000D02*
G75*
G03*
X143018500Y-129731000I-1J-999999D01*
G01*
X201168500Y-109681000D02*
X213168500Y-109681000D01*
X213168500Y-123681000D02*
G75*
G03*
X214168500Y-122681000I0J1000000D01*
G01*
X201168500Y-109681000D02*
G75*
G03*
X200168500Y-110681000I-1J-999999D01*
G01*
X214168500Y-122681000D02*
X214168500Y-110681000D01*
X214168500Y-110681000D02*
G75*
G03*
X213168500Y-109681000I-1000000J0D01*
G01*
X213168500Y-123681000D02*
X201168500Y-123681000D01*
X200168500Y-122681000D02*
G75*
G03*
X201168500Y-123681000I999999J-1D01*
G01*
X200168500Y-110681000D02*
X200168500Y-122681000D01*
X182118500Y-128731000D02*
X194118500Y-128731000D01*
X194118500Y-142731000D02*
G75*
G03*
X195118500Y-141731000I0J1000000D01*
G01*
X182118500Y-128731000D02*
G75*
G03*
X181118500Y-129731000I-1J-999999D01*
G01*
X195118500Y-141731000D02*
X195118500Y-129731000D01*
X195118500Y-129731000D02*
G75*
G03*
X194118500Y-128731000I-1000000J0D01*
G01*
X194118500Y-142731000D02*
X182118500Y-142731000D01*
X181118500Y-141731000D02*
G75*
G03*
X182118500Y-142731000I999999J-1D01*
G01*
X157018500Y-141731000D02*
X157018500Y-129731000D01*
X157018500Y-129731000D02*
G75*
G03*
X156018500Y-128731000I-1000000J0D01*
G01*
X156018500Y-142731000D02*
X144018500Y-142731000D01*
X143018500Y-141731000D02*
G75*
G03*
X144018500Y-142731000I999999J-1D01*
G01*
X143018500Y-129731000D02*
X143018500Y-141731000D01*
X143018500Y-91631000D02*
X143018500Y-103631000D01*
X143018500Y-103631000D02*
G75*
G03*
X144018500Y-104631000I999999J-1D01*
G01*
X156018500Y-104631000D02*
X144018500Y-104631000D01*
X157018500Y-91631000D02*
G75*
G03*
X156018500Y-90631000I-1000000J0D01*
G01*
X157018500Y-103631000D02*
X157018500Y-91631000D01*
X144018500Y-90631000D02*
G75*
G03*
X143018500Y-91631000I-1J-999999D01*
G01*
X156018500Y-104631000D02*
G75*
G03*
X157018500Y-103631000I0J1000000D01*
G01*
X144018500Y-90631000D02*
X156018500Y-90631000D01*
X162068500Y-91631000D02*
X162068500Y-103631000D01*
X162068500Y-103631000D02*
G75*
G03*
X163068500Y-104631000I999999J-1D01*
G01*
X175068500Y-104631000D02*
X163068500Y-104631000D01*
X176068500Y-91631000D02*
G75*
G03*
X175068500Y-90631000I-1000000J0D01*
G01*
X176068500Y-103631000D02*
X176068500Y-91631000D01*
X163068500Y-90631000D02*
G75*
G03*
X162068500Y-91631000I-1J-999999D01*
G01*
X175068500Y-104631000D02*
G75*
G03*
X176068500Y-103631000I0J1000000D01*
G01*
X163068500Y-90631000D02*
X175068500Y-90631000D01*
X117918500Y-66531000D02*
X105918500Y-66531000D01*
X104918500Y-65531000D02*
G75*
G03*
X105918500Y-66531000I999999J-1D01*
G01*
X214168500Y-129731000D02*
G75*
G03*
X213168500Y-128731000I-1000000J0D01*
G01*
X213168500Y-142731000D02*
X201168500Y-142731000D01*
X200168500Y-141731000D02*
G75*
G03*
X201168500Y-142731000I999999J-1D01*
G01*
X200168500Y-129731000D02*
X200168500Y-141731000D01*
X181118500Y-91631000D02*
X181118500Y-103631000D01*
X181118500Y-103631000D02*
G75*
G03*
X182118500Y-104631000I999999J-1D01*
G01*
X194118500Y-104631000D02*
X182118500Y-104631000D01*
X195118500Y-91631000D02*
G75*
G03*
X194118500Y-90631000I-1000000J0D01*
G01*
X195118500Y-103631000D02*
X195118500Y-91631000D01*
X182118500Y-90631000D02*
G75*
G03*
X181118500Y-91631000I-1J-999999D01*
G01*
X194118500Y-104631000D02*
G75*
G03*
X195118500Y-103631000I0J1000000D01*
G01*
X182118500Y-90631000D02*
X194118500Y-90631000D01*
X200168500Y-91631000D02*
X200168500Y-103631000D01*
X200168500Y-103631000D02*
G75*
G03*
X201168500Y-104631000I999999J-1D01*
G01*
X213168500Y-104631000D02*
X201168500Y-104631000D01*
X214168500Y-91631000D02*
G75*
G03*
X213168500Y-90631000I-1000000J0D01*
G01*
X214168500Y-103631000D02*
X214168500Y-91631000D01*
X201168500Y-90631000D02*
G75*
G03*
X200168500Y-91631000I-1J-999999D01*
G01*
X213168500Y-104631000D02*
G75*
G03*
X214168500Y-103631000I0J1000000D01*
G01*
X201168500Y-90631000D02*
X213168500Y-90631000D01*
X104918500Y-110681000D02*
X104918500Y-122681000D01*
X104918500Y-122681000D02*
G75*
G03*
X105918500Y-123681000I999999J-1D01*
G01*
X117918500Y-123681000D02*
X105918500Y-123681000D01*
X118918500Y-110681000D02*
G75*
G03*
X117918500Y-109681000I-1000000J0D01*
G01*
X118918500Y-122681000D02*
X118918500Y-110681000D01*
X105918500Y-109681000D02*
G75*
G03*
X104918500Y-110681000I-1J-999999D01*
G01*
X117918500Y-123681000D02*
G75*
G03*
X118918500Y-122681000I0J1000000D01*
G01*
X105918500Y-109681000D02*
X117918500Y-109681000D01*
X162068500Y-53531000D02*
X162068500Y-65531000D01*
X162068500Y-65531000D02*
G75*
G03*
X163068500Y-66531000I999999J-1D01*
G01*
X175068500Y-66531000D02*
X163068500Y-66531000D01*
X176068500Y-53531000D02*
G75*
G03*
X175068500Y-52531000I-1000000J0D01*
G01*
X176068500Y-65531000D02*
X176068500Y-53531000D01*
X163068500Y-52531000D02*
G75*
G03*
X162068500Y-53531000I-1J-999999D01*
G01*
X175068500Y-66531000D02*
G75*
G03*
X176068500Y-65531000I0J1000000D01*
G01*
X163068500Y-52531000D02*
X175068500Y-52531000D01*
X181118500Y-53531000D02*
X181118500Y-65531000D01*
X181118500Y-65531000D02*
G75*
G03*
X182118500Y-66531000I999999J-1D01*
G01*
X194118500Y-66531000D02*
X182118500Y-66531000D01*
X195118500Y-53531000D02*
G75*
G03*
X194118500Y-52531000I-1000000J0D01*
G01*
X195118500Y-65531000D02*
X195118500Y-53531000D01*
X182118500Y-52531000D02*
G75*
G03*
X181118500Y-53531000I-1J-999999D01*
G01*
X194118500Y-66531000D02*
G75*
G03*
X195118500Y-65531000I0J1000000D01*
G01*
X182118500Y-52531000D02*
X194118500Y-52531000D01*
X163068500Y-128731000D02*
X175068500Y-128731000D01*
X175068500Y-142731000D02*
G75*
G03*
X176068500Y-141731000I0J1000000D01*
G01*
X163068500Y-128731000D02*
G75*
G03*
X162068500Y-129731000I-1J-999999D01*
G01*
X176068500Y-141731000D02*
X176068500Y-129731000D01*
X176068500Y-129731000D02*
G75*
G03*
X175068500Y-128731000I-1000000J0D01*
G01*
X175068500Y-142731000D02*
X163068500Y-142731000D01*
X162068500Y-141731000D02*
G75*
G03*
X163068500Y-142731000I999999J-1D01*
G01*
X162068500Y-129731000D02*
X162068500Y-141731000D01*
X181118500Y-129731000D02*
X181118500Y-141731000D01*
X201168500Y-128731000D02*
X213168500Y-128731000D01*
X213168500Y-142731000D02*
G75*
G03*
X214168500Y-141731000I0J1000000D01*
G01*
X201168500Y-128731000D02*
G75*
G03*
X200168500Y-129731000I-1J-999999D01*
G01*
X214168500Y-141731000D02*
X214168500Y-129731000D01*
X104918500Y-53531000D02*
X104918500Y-65531000D01*
X175068500Y-123681000D02*
G75*
G03*
X176068500Y-122681000I0J1000000D01*
G01*
X105449501Y-128841279D02*
G75*
G03*
X104906000Y-129731000I456506J-889728D01*
G01*
X200168500Y-53531000D02*
X200168500Y-65531000D01*
X200168500Y-65531000D02*
G75*
G03*
X201168500Y-66531000I999999J-1D01*
G01*
X213168500Y-66531000D02*
X201168500Y-66531000D01*
X214168500Y-53531000D02*
G75*
G03*
X213168500Y-52531000I-1000000J0D01*
G01*
X214168500Y-65531000D02*
X214168500Y-53531000D01*
X201168500Y-52531000D02*
G75*
G03*
X200168500Y-53531000I-1J-999999D01*
G01*
X213168500Y-66531000D02*
G75*
G03*
X214168500Y-65531000I0J1000000D01*
G01*
X201168500Y-52531000D02*
X213168500Y-52531000D01*
X200168500Y-72581000D02*
X200168500Y-84581000D01*
X200168500Y-84581000D02*
G75*
G03*
X201168500Y-85581000I999999J-1D01*
G01*
X213168500Y-85581000D02*
X201168500Y-85581000D01*
X214168500Y-72581000D02*
G75*
G03*
X213168500Y-71581000I-1000000J0D01*
G01*
X214168500Y-84581000D02*
X214168500Y-72581000D01*
X201168500Y-71581000D02*
G75*
G03*
X200168500Y-72581000I-1J-999999D01*
G01*
X213168500Y-85581000D02*
G75*
G03*
X214168500Y-84581000I0J1000000D01*
G01*
X104918500Y-72581000D02*
X104918500Y-84581000D01*
X104918500Y-84581000D02*
G75*
G03*
X105918500Y-85581000I999999J-1D01*
G01*
X117918500Y-85581000D02*
X105918500Y-85581000D01*
X118918500Y-72581000D02*
G75*
G03*
X117918500Y-71581000I-1000000J0D01*
G01*
X118918500Y-84581000D02*
X118918500Y-72581000D01*
X105918500Y-71581000D02*
G75*
G03*
X104918500Y-72581000I-1J-999999D01*
G01*
X117918500Y-85581000D02*
G75*
G03*
X118918500Y-84581000I0J1000000D01*
G01*
X105918500Y-71581000D02*
X117918500Y-71581000D01*
X175068500Y-123681000D02*
X163068500Y-123681000D01*
X106992999Y-126730999D02*
G75*
G03*
X105992999Y-127731000I8J-1000008D01*
G01*
X105992999Y-127951554D02*
X105992999Y-127731000D01*
X112993014Y-127731000D02*
G75*
G03*
X111993000Y-126731000I-1000007J-7D01*
G01*
X163068500Y-109681000D02*
G75*
G03*
X162068500Y-110681000I-1J-999999D01*
G01*
X117918500Y-66531000D02*
G75*
G03*
X118918500Y-65531000I0J1000000D01*
G01*
X137956000Y-129731000D02*
X137956000Y-141731000D01*
X130869000Y-126731000D02*
X135869000Y-126731000D01*
M02*
