G04 #@! TF.GenerationSoftware,KiCad,Pcbnew,6.0.4-6f826c9f35~116~ubuntu22.04.1*
G04 #@! TF.CreationDate,2022-03-31T08:40:12+02:00*
G04 #@! TF.ProjectId,lumberjack-split,6c756d62-6572-46a6-9163-6b2d73706c69,rev?*
G04 #@! TF.SameCoordinates,Original*
G04 #@! TF.FileFunction,Soldermask,Top*
G04 #@! TF.FilePolarity,Negative*
%FSLAX46Y46*%
G04 Gerber Fmt 4.6, Leading zero omitted, Abs format (unit mm)*
G04 Created by KiCad (PCBNEW 6.0.4-6f826c9f35~116~ubuntu22.04.1) date 2022-03-31 08:40:12*
%MOMM*%
%LPD*%
G01*
G04 APERTURE LIST*
%ADD10C,1.000000*%
G04 APERTURE END LIST*
D10*
X105493000Y-127731000D02*
X105493000Y-127951554D01*
X105232225Y-128397455D02*
G75*
G03*
X105493000Y-127951554I-251154J446086D01*
G01*
X105232225Y-128397456D02*
G75*
G03*
X104419000Y-129731000I685735J-1332910D01*
G01*
X104419000Y-141731000D02*
X104419000Y-129731000D01*
X106993000Y-126231000D02*
X111993000Y-126231000D01*
X113493000Y-127731000D02*
G75*
G03*
X113993000Y-128231000I500001J1D01*
G01*
X113993000Y-128231000D02*
X128869000Y-128231000D01*
X128869000Y-128231000D02*
G75*
G03*
X129369000Y-127731000I0J500000D01*
G01*
X130869000Y-126231000D02*
G75*
G03*
X129369000Y-127731000I1J-1500001D01*
G01*
X137369000Y-127731000D02*
X137369000Y-127951554D01*
X137369000Y-127951554D02*
G75*
G03*
X137654647Y-128397297I490482J-80D01*
G01*
X117918500Y-67031000D02*
G75*
G03*
X119418500Y-65531000I-1J1500001D01*
G01*
X157518500Y-72581000D02*
G75*
G03*
X156018500Y-71081000I-1500000J0D01*
G01*
X144018500Y-71081000D02*
G75*
G03*
X142518500Y-72581000I0J-1500000D01*
G01*
X156018500Y-86081000D02*
X144018500Y-86081000D01*
X142518500Y-72581000D02*
X142518500Y-84581000D01*
X157518500Y-84581000D02*
X157518500Y-72581000D01*
X144018500Y-71081000D02*
X156018500Y-71081000D01*
X142518500Y-84581000D02*
G75*
G03*
X144018500Y-86081000I1500001J1D01*
G01*
X156018500Y-86081000D02*
G75*
G03*
X157518500Y-84581000I-1J1500001D01*
G01*
X176568500Y-72581000D02*
G75*
G03*
X175068500Y-71081000I-1500000J0D01*
G01*
X163068500Y-71081000D02*
G75*
G03*
X161568500Y-72581000I0J-1500000D01*
G01*
X175068500Y-86081000D02*
X163068500Y-86081000D01*
X161568500Y-72581000D02*
X161568500Y-84581000D01*
X176568500Y-84581000D02*
X176568500Y-72581000D01*
X163068500Y-71081000D02*
X175068500Y-71081000D01*
X161568500Y-84581000D02*
G75*
G03*
X163068500Y-86081000I1500001J1D01*
G01*
X175068500Y-86081000D02*
G75*
G03*
X176568500Y-84581000I-1J1500001D01*
G01*
X104418500Y-65531000D02*
G75*
G03*
X105918500Y-67031000I1500001J1D01*
G01*
X105918500Y-52031000D02*
X117918500Y-52031000D01*
X144018500Y-52031000D02*
X156018500Y-52031000D01*
X142518500Y-65531000D02*
G75*
G03*
X144018500Y-67031000I1500001J1D01*
G01*
X106993000Y-126231000D02*
G75*
G03*
X105493000Y-127731000I0J-1500000D01*
G01*
X119418500Y-65531000D02*
X119418500Y-53531000D01*
X117918500Y-67031000D02*
X105918500Y-67031000D01*
X124968500Y-52031000D02*
X136968500Y-52031000D01*
X130869000Y-126231000D02*
X135869000Y-126231000D01*
X136969000Y-143231000D02*
X105919000Y-143231000D01*
X161568500Y-110681000D02*
X161568500Y-122681000D01*
X175068500Y-124181000D02*
X163068500Y-124181000D01*
X163068500Y-109181000D02*
G75*
G03*
X161568500Y-110681000I0J-1500000D01*
G01*
X176568500Y-110681000D02*
G75*
G03*
X175068500Y-109181000I-1500000J0D01*
G01*
X124968500Y-52031000D02*
G75*
G03*
X123468500Y-53531000I0J-1500000D01*
G01*
X195618500Y-72581000D02*
G75*
G03*
X194118500Y-71081000I-1500000J0D01*
G01*
X182118500Y-71081000D02*
G75*
G03*
X180618500Y-72581000I0J-1500000D01*
G01*
X194118500Y-86081000D02*
X182118500Y-86081000D01*
X180618500Y-72581000D02*
X180618500Y-84581000D01*
X195618500Y-84581000D02*
X195618500Y-72581000D01*
X182118500Y-71081000D02*
X194118500Y-71081000D01*
X180618500Y-84581000D02*
G75*
G03*
X182118500Y-86081000I1500001J1D01*
G01*
X194118500Y-86081000D02*
G75*
G03*
X195618500Y-84581000I-1J1500001D01*
G01*
X214668500Y-72581000D02*
G75*
G03*
X213168500Y-71081000I-1500000J0D01*
G01*
X201168500Y-71081000D02*
G75*
G03*
X199668500Y-72581000I0J-1500000D01*
G01*
X213168500Y-86081000D02*
X201168500Y-86081000D01*
X199668500Y-72581000D02*
X199668500Y-84581000D01*
X214668500Y-84581000D02*
X214668500Y-72581000D01*
X201168500Y-71081000D02*
X213168500Y-71081000D01*
X199668500Y-84581000D02*
G75*
G03*
X201168500Y-86081000I1500001J1D01*
G01*
X213168500Y-86081000D02*
G75*
G03*
X214668500Y-84581000I-1J1500001D01*
G01*
X137369000Y-127731000D02*
G75*
G03*
X135869000Y-126231000I-1500001J-1D01*
G01*
X119418500Y-91631000D02*
G75*
G03*
X117918500Y-90131000I-1500000J0D01*
G01*
X105918500Y-90131000D02*
G75*
G03*
X104418500Y-91631000I0J-1500000D01*
G01*
X117918500Y-105131000D02*
X105918500Y-105131000D01*
X104418500Y-91631000D02*
X104418500Y-103631000D01*
X119418500Y-103631000D02*
X119418500Y-91631000D01*
X105918500Y-90131000D02*
X117918500Y-90131000D01*
X104418500Y-103631000D02*
G75*
G03*
X105918500Y-105131000I1500001J1D01*
G01*
X117918500Y-105131000D02*
G75*
G03*
X119418500Y-103631000I-1J1500001D01*
G01*
X138468500Y-91631000D02*
G75*
G03*
X136968500Y-90131000I-1500000J0D01*
G01*
X124968500Y-90131000D02*
G75*
G03*
X123468500Y-91631000I0J-1500000D01*
G01*
X136968500Y-105131000D02*
X124968500Y-105131000D01*
X123468500Y-91631000D02*
X123468500Y-103631000D01*
X138468500Y-103631000D02*
X138468500Y-91631000D01*
X124968500Y-90131000D02*
X136968500Y-90131000D01*
X123468500Y-103631000D02*
G75*
G03*
X124968500Y-105131000I1500001J1D01*
G01*
X136968500Y-105131000D02*
G75*
G03*
X138468500Y-103631000I-1J1500001D01*
G01*
X157518500Y-91631000D02*
G75*
G03*
X156018500Y-90131000I-1500000J0D01*
G01*
X144018500Y-90131000D02*
G75*
G03*
X142518500Y-91631000I0J-1500000D01*
G01*
X156018500Y-105131000D02*
X144018500Y-105131000D01*
X142518500Y-91631000D02*
X142518500Y-103631000D01*
X157518500Y-103631000D02*
X157518500Y-91631000D01*
X144018500Y-90131000D02*
X156018500Y-90131000D01*
X136969000Y-143231000D02*
G75*
G03*
X138469000Y-141731000I0J1500000D01*
G01*
X113493000Y-127731000D02*
G75*
G03*
X111993000Y-126231000I-1500000J0D01*
G01*
X157518500Y-53531000D02*
G75*
G03*
X156018500Y-52031000I-1500000J0D01*
G01*
X104418500Y-53531000D02*
X104418500Y-65531000D01*
X104419000Y-141731000D02*
G75*
G03*
X105919000Y-143231000I1500000J0D01*
G01*
X105918500Y-52031000D02*
G75*
G03*
X104418500Y-53531000I0J-1500000D01*
G01*
X138469000Y-129731000D02*
X138469000Y-141731000D01*
X138469000Y-129731000D02*
G75*
G03*
X137654647Y-128397297I-1499655J-211D01*
G01*
X157518500Y-110681000D02*
G75*
G03*
X156018500Y-109181000I-1500000J0D01*
G01*
X144018500Y-109181000D02*
G75*
G03*
X142518500Y-110681000I0J-1500000D01*
G01*
X156018500Y-124181000D02*
X144018500Y-124181000D01*
X142518500Y-110681000D02*
X142518500Y-122681000D01*
X157518500Y-122681000D02*
X157518500Y-110681000D01*
X144018500Y-109181000D02*
X156018500Y-109181000D01*
X142518500Y-122681000D02*
G75*
G03*
X144018500Y-124181000I1500001J1D01*
G01*
X156018500Y-124181000D02*
G75*
G03*
X157518500Y-122681000I-1J1500001D01*
G01*
X138468500Y-53531000D02*
G75*
G03*
X136968500Y-52031000I-1500000J0D01*
G01*
X123468500Y-53531000D02*
X123468500Y-65531000D01*
X175068500Y-124181000D02*
G75*
G03*
X176568500Y-122681000I-1J1500001D01*
G01*
X161568500Y-122681000D02*
G75*
G03*
X163068500Y-124181000I1500001J1D01*
G01*
X156018500Y-67031000D02*
G75*
G03*
X157518500Y-65531000I-1J1500001D01*
G01*
X144018500Y-52031000D02*
G75*
G03*
X142518500Y-53531000I0J-1500000D01*
G01*
X156018500Y-67031000D02*
X144018500Y-67031000D01*
X136968500Y-67031000D02*
G75*
G03*
X138468500Y-65531000I-1J1500001D01*
G01*
X136968500Y-67031000D02*
X124968500Y-67031000D01*
X138468500Y-110681000D02*
G75*
G03*
X136968500Y-109181000I-1500000J0D01*
G01*
X124968500Y-109181000D02*
G75*
G03*
X123468500Y-110681000I0J-1500000D01*
G01*
X136968500Y-124181000D02*
X124968500Y-124181000D01*
X123468500Y-110681000D02*
X123468500Y-122681000D01*
X138468500Y-122681000D02*
X138468500Y-110681000D01*
X124968500Y-109181000D02*
X136968500Y-109181000D01*
X123468500Y-122681000D02*
G75*
G03*
X124968500Y-124181000I1500001J1D01*
G01*
X136968500Y-124181000D02*
G75*
G03*
X138468500Y-122681000I-1J1500001D01*
G01*
X163068500Y-109181000D02*
X175068500Y-109181000D01*
X176568500Y-122681000D02*
X176568500Y-110681000D01*
X142518500Y-53531000D02*
X142518500Y-65531000D01*
X157518500Y-65531000D02*
X157518500Y-53531000D01*
X194118500Y-124181000D02*
G75*
G03*
X195618500Y-122681000I-1J1500001D01*
G01*
X180618500Y-122681000D02*
G75*
G03*
X182118500Y-124181000I1500001J1D01*
G01*
X182118500Y-109181000D02*
X194118500Y-109181000D01*
X195618500Y-122681000D02*
X195618500Y-110681000D01*
X180618500Y-110681000D02*
X180618500Y-122681000D01*
X194118500Y-124181000D02*
X182118500Y-124181000D01*
X182118500Y-109181000D02*
G75*
G03*
X180618500Y-110681000I0J-1500000D01*
G01*
X195618500Y-110681000D02*
G75*
G03*
X194118500Y-109181000I-1500000J0D01*
G01*
X213168500Y-124181000D02*
G75*
G03*
X214668500Y-122681000I-1J1500001D01*
G01*
X199668500Y-122681000D02*
G75*
G03*
X201168500Y-124181000I1500001J1D01*
G01*
X201168500Y-109181000D02*
X213168500Y-109181000D01*
X214668500Y-122681000D02*
X214668500Y-110681000D01*
X199668500Y-110681000D02*
X199668500Y-122681000D01*
X213168500Y-124181000D02*
X201168500Y-124181000D01*
X201168500Y-109181000D02*
G75*
G03*
X199668500Y-110681000I0J-1500000D01*
G01*
X214668500Y-110681000D02*
G75*
G03*
X213168500Y-109181000I-1500000J0D01*
G01*
X156018500Y-143231000D02*
G75*
G03*
X157518500Y-141731000I-1J1500001D01*
G01*
X142518500Y-141731000D02*
G75*
G03*
X144018500Y-143231000I1500001J1D01*
G01*
X144018500Y-128231000D02*
X156018500Y-128231000D01*
X157518500Y-141731000D02*
X157518500Y-129731000D01*
X142518500Y-129731000D02*
X142518500Y-141731000D01*
X156018500Y-143231000D02*
X144018500Y-143231000D01*
X142518500Y-103631000D02*
G75*
G03*
X144018500Y-105131000I1500001J1D01*
G01*
X156018500Y-105131000D02*
G75*
G03*
X157518500Y-103631000I-1J1500001D01*
G01*
X176568500Y-91631000D02*
G75*
G03*
X175068500Y-90131000I-1500000J0D01*
G01*
X163068500Y-90131000D02*
G75*
G03*
X161568500Y-91631000I0J-1500000D01*
G01*
X175068500Y-105131000D02*
X163068500Y-105131000D01*
X161568500Y-91631000D02*
X161568500Y-103631000D01*
X176568500Y-103631000D02*
X176568500Y-91631000D01*
X163068500Y-90131000D02*
X175068500Y-90131000D01*
X161568500Y-103631000D02*
G75*
G03*
X163068500Y-105131000I1500001J1D01*
G01*
X175068500Y-105131000D02*
G75*
G03*
X176568500Y-103631000I-1J1500001D01*
G01*
X195618500Y-91631000D02*
G75*
G03*
X194118500Y-90131000I-1500000J0D01*
G01*
X182118500Y-90131000D02*
G75*
G03*
X180618500Y-91631000I0J-1500000D01*
G01*
X194118500Y-105131000D02*
X182118500Y-105131000D01*
X180618500Y-91631000D02*
X180618500Y-103631000D01*
X195618500Y-103631000D02*
X195618500Y-91631000D01*
X182118500Y-90131000D02*
X194118500Y-90131000D01*
X180618500Y-103631000D02*
G75*
G03*
X182118500Y-105131000I1500001J1D01*
G01*
X194118500Y-105131000D02*
G75*
G03*
X195618500Y-103631000I-1J1500001D01*
G01*
X213168500Y-143231000D02*
G75*
G03*
X214668500Y-141731000I-1J1500001D01*
G01*
X199668500Y-141731000D02*
G75*
G03*
X201168500Y-143231000I1500001J1D01*
G01*
X201168500Y-128231000D02*
X213168500Y-128231000D01*
X214668500Y-141731000D02*
X214668500Y-129731000D01*
X199668500Y-129731000D02*
X199668500Y-141731000D01*
X213168500Y-143231000D02*
X201168500Y-143231000D01*
X201168500Y-128231000D02*
G75*
G03*
X199668500Y-129731000I0J-1500000D01*
G01*
X214668500Y-129731000D02*
G75*
G03*
X213168500Y-128231000I-1500000J0D01*
G01*
X214668500Y-91631000D02*
G75*
G03*
X213168500Y-90131000I-1500000J0D01*
G01*
X201168500Y-90131000D02*
G75*
G03*
X199668500Y-91631000I0J-1500000D01*
G01*
X213168500Y-105131000D02*
X201168500Y-105131000D01*
X199668500Y-91631000D02*
X199668500Y-103631000D01*
X214668500Y-103631000D02*
X214668500Y-91631000D01*
X201168500Y-90131000D02*
X213168500Y-90131000D01*
X199668500Y-103631000D02*
G75*
G03*
X201168500Y-105131000I1500001J1D01*
G01*
X213168500Y-105131000D02*
G75*
G03*
X214668500Y-103631000I-1J1500001D01*
G01*
X119418500Y-110681000D02*
G75*
G03*
X117918500Y-109181000I-1500000J0D01*
G01*
X105918500Y-109181000D02*
G75*
G03*
X104418500Y-110681000I0J-1500000D01*
G01*
X117918500Y-124181000D02*
X105918500Y-124181000D01*
X104418500Y-110681000D02*
X104418500Y-122681000D01*
X119418500Y-122681000D02*
X119418500Y-110681000D01*
X105918500Y-109181000D02*
X117918500Y-109181000D01*
X104418500Y-122681000D02*
G75*
G03*
X105918500Y-124181000I1500001J1D01*
G01*
X117918500Y-124181000D02*
G75*
G03*
X119418500Y-122681000I-1J1500001D01*
G01*
X195618500Y-53531000D02*
G75*
G03*
X194118500Y-52031000I-1500000J0D01*
G01*
X182118500Y-52031000D02*
G75*
G03*
X180618500Y-53531000I0J-1500000D01*
G01*
X194118500Y-67031000D02*
X182118500Y-67031000D01*
X176568500Y-53531000D02*
G75*
G03*
X175068500Y-52031000I-1500000J0D01*
G01*
X163068500Y-52031000D02*
G75*
G03*
X161568500Y-53531000I0J-1500000D01*
G01*
X175068500Y-67031000D02*
X163068500Y-67031000D01*
X161568500Y-53531000D02*
X161568500Y-65531000D01*
X176568500Y-65531000D02*
X176568500Y-53531000D01*
X163068500Y-52031000D02*
X175068500Y-52031000D01*
X161568500Y-65531000D02*
G75*
G03*
X163068500Y-67031000I1500001J1D01*
G01*
X175068500Y-67031000D02*
G75*
G03*
X176568500Y-65531000I-1J1500001D01*
G01*
X119418500Y-72581000D02*
G75*
G03*
X117918500Y-71081000I-1500000J0D01*
G01*
X105918500Y-71081000D02*
G75*
G03*
X104418500Y-72581000I0J-1500000D01*
G01*
X117918500Y-86081000D02*
X105918500Y-86081000D01*
X104418500Y-72581000D02*
X104418500Y-84581000D01*
X119418500Y-84581000D02*
X119418500Y-72581000D01*
X105918500Y-71081000D02*
X117918500Y-71081000D01*
X104418500Y-84581000D02*
G75*
G03*
X105918500Y-86081000I1500001J1D01*
G01*
X180618500Y-53531000D02*
X180618500Y-65531000D01*
X195618500Y-65531000D02*
X195618500Y-53531000D01*
X182118500Y-52031000D02*
X194118500Y-52031000D01*
X180618500Y-65531000D02*
G75*
G03*
X182118500Y-67031000I1500001J1D01*
G01*
X194118500Y-67031000D02*
G75*
G03*
X195618500Y-65531000I-1J1500001D01*
G01*
X214668500Y-53531000D02*
G75*
G03*
X213168500Y-52031000I-1500000J0D01*
G01*
X201168500Y-52031000D02*
G75*
G03*
X199668500Y-53531000I0J-1500000D01*
G01*
X213168500Y-67031000D02*
X201168500Y-67031000D01*
X199668500Y-53531000D02*
X199668500Y-65531000D01*
X214668500Y-65531000D02*
X214668500Y-53531000D01*
X201168500Y-52031000D02*
X213168500Y-52031000D01*
X199668500Y-65531000D02*
G75*
G03*
X201168500Y-67031000I1500001J1D01*
G01*
X119418500Y-53531000D02*
G75*
G03*
X117918500Y-52031000I-1500000J0D01*
G01*
X123468500Y-65531000D02*
G75*
G03*
X124968500Y-67031000I1500001J1D01*
G01*
X144018500Y-128231000D02*
G75*
G03*
X142518500Y-129731000I0J-1500000D01*
G01*
X157518500Y-129731000D02*
G75*
G03*
X156018500Y-128231000I-1500000J0D01*
G01*
X175068500Y-143231000D02*
G75*
G03*
X176568500Y-141731000I-1J1500001D01*
G01*
X161568500Y-141731000D02*
G75*
G03*
X163068500Y-143231000I1500001J1D01*
G01*
X163068500Y-128231000D02*
X175068500Y-128231000D01*
X176568500Y-141731000D02*
X176568500Y-129731000D01*
X161568500Y-129731000D02*
X161568500Y-141731000D01*
X175068500Y-143231000D02*
X163068500Y-143231000D01*
X163068500Y-128231000D02*
G75*
G03*
X161568500Y-129731000I0J-1500000D01*
G01*
X176568500Y-129731000D02*
G75*
G03*
X175068500Y-128231000I-1500000J0D01*
G01*
X194118500Y-143231000D02*
G75*
G03*
X195618500Y-141731000I-1J1500001D01*
G01*
X180618500Y-141731000D02*
G75*
G03*
X182118500Y-143231000I1500001J1D01*
G01*
X182118500Y-128231000D02*
X194118500Y-128231000D01*
X195618500Y-141731000D02*
X195618500Y-129731000D01*
X180618500Y-129731000D02*
X180618500Y-141731000D01*
X194118500Y-143231000D02*
X182118500Y-143231000D01*
X182118500Y-128231000D02*
G75*
G03*
X180618500Y-129731000I0J-1500000D01*
G01*
X195618500Y-129731000D02*
G75*
G03*
X194118500Y-128231000I-1500000J0D01*
G01*
X138468500Y-65531000D02*
X138468500Y-53531000D01*
X213168500Y-67031000D02*
G75*
G03*
X214668500Y-65531000I-1J1500001D01*
G01*
X117918500Y-86081000D02*
G75*
G03*
X119418500Y-84581000I-1J1500001D01*
G01*
X138468500Y-72581000D02*
G75*
G03*
X136968500Y-71081000I-1500000J0D01*
G01*
X124968500Y-71081000D02*
G75*
G03*
X123468500Y-72581000I0J-1500000D01*
G01*
X136968500Y-86081000D02*
X124968500Y-86081000D01*
X123468500Y-72581000D02*
X123468500Y-84581000D01*
X138468500Y-84581000D02*
X138468500Y-72581000D01*
X124968500Y-71081000D02*
X136968500Y-71081000D01*
X123468500Y-84581000D02*
G75*
G03*
X124968500Y-86081000I1500001J1D01*
G01*
X136968500Y-86081000D02*
G75*
G03*
X138468500Y-84581000I-1J1500001D01*
G01*
M02*
