<?xml version="1.0" standalone="no"?>
 <!DOCTYPE svg PUBLIC "-//W3C//DTD SVG 1.1//EN" 
 "http://www.w3.org/Graphics/SVG/1.1/DTD/svg11.dtd"> 
<svg
  xmlns:svg="http://www.w3.org/2000/svg"
  xmlns="http://www.w3.org/2000/svg"
  xmlns:xlink="http://www.w3.org/1999/xlink"
  version="1.1"
  width="11.437620cm" height="9.532620cm" viewBox="0 0 114376200 95326200">
<title>SVG Picture created as lumberjack-split-brd.svg date 2022/05/17 20:10:34 </title>
  <desc>Picture generated by PCBNEW </desc>
<g style="fill:#000000; fill-opacity:1.000000;stroke:#000000; stroke-opacity:1.000000;
stroke-linecap:round; stroke-linejoin:round;"
 transform="translate(0 0) scale(1 1)">
</g>
<g style="fill:#000000; fill-opacity:0.0; 
stroke:#000000; stroke-width:0.000000; stroke-opacity:1; 
stroke-linecap:round; stroke-linejoin:round;">
</g>
<g style="fill:#D0D2CD; fill-opacity:0.0; 
stroke:#D0D2CD; stroke-width:0.000000; stroke-opacity:1; 
stroke-linecap:round; stroke-linejoin:round;">
</g>
<g style="fill:#D0D2CD; fill-opacity:0.0; 
stroke:#D0D2CD; stroke-width:100000.000000; stroke-opacity:1; 
stroke-linecap:round; stroke-linejoin:round;">
<path d="M114350096 58449800
L114350096 93514141
" />
<path d="M50000 95300080
L112564157 95300080
" />
</g>
<g style="fill:#D0D2CD; fill-opacity:0.0; 
stroke:#D0D2CD; stroke-width:200000.000000; stroke-opacity:1; 
stroke-linecap:round; stroke-linejoin:round;">
<path d="M3574664 59724708
L15574664 59724708
" />
<path d="M2574664 22624708
L2574664 34624708
" />
<path d="M78774664.000000 53674708.000000 A1000000.000000 1000000.000000 0.0 0 0 79774664.000000 54674708.000000" />
<path d="M60724664 40674708
L72724664 40674708
" />
<path d="M2574664 3574708
L2574664 15574708
" />
</g>
<g style="fill:#D0D2CD; fill-opacity:0.0; 
stroke:#D0D2CD; stroke-width:100000.000000; stroke-opacity:1; 
stroke-linecap:round; stroke-linejoin:round;">
<path d="M109350164.000000 55950708.000000 A1250000.000000 1250000.000000 0.0 0 0 109350164.000000 58450708.000000" />
</g>
<g style="fill:#D0D2CD; fill-opacity:0.0; 
stroke:#D0D2CD; stroke-width:200000.000000; stroke-opacity:1; 
stroke-linecap:round; stroke-linejoin:round;">
<path d="M78774664 22624708
L78774664 34624708
" />
<path d="M73724664.000000 60724708.000000 A1000000.000000 1000000.000000 0.0 0 0 72724664.000000 59724708.000000" />
<path d="M78774664 3574708
L78774664 15574708
" />
<path d="M78774664.000000 91774708.000000 A1000000.000000 1000000.000000 0.0 0 0 79774664.000000 92774708.000000" />
<path d="M73724664.000000 3574708.000000 A1000000.000000 1000000.000000 0.0 0 0 72724664.000000 2574708.000000" />
<path d="M34624664.000000 73724708.000000 A1000000.000000 1000000.000000 0.0 0 0 35624664.000000 72724708.000000" />
<path d="M72724664.000000 92774708.000000 A1000000.000000 1000000.000000 0.0 0 0 73724664.000000 91774708.000000" />
<path d="M35624664 15574708
L35624664 3574708
" />
<path d="M110824664.000000 73724708.000000 A1000000.000000 1000000.000000 0.0 0 0 111824664.000000 72724708.000000" />
<path d="M59724664 22624708
L59724664 34624708
" />
<path d="M72724664.000000 73724708.000000 A1000000.000000 1000000.000000 0.0 0 0 73724664.000000 72724708.000000" />
<path d="M79774664 40674708
L91774664 40674708
" />
<path d="M41674664.000000 40674708.000000 A1000000.000000 1000000.000000 0.0 0 0 40674664.000000 41674708.000000" />
<path d="M92774664 53674708
L92774664 41674708
" />
<path d="M22624664.000000 21624708.000000 A1000000.000000 1000000.000000 0.0 0 0 21624664.000000 22624708.000000" />
<path d="M92774664 91774708
L92774664 79774708
" />
<path d="M54674664.000000 22624708.000000 A1000000.000000 1000000.000000 0.0 0 0 53674664.000000 21624708.000000" />
<path d="M21624664.000000 72724708.000000 A1000000.000000 1000000.000000 0.0 0 0 22624664.000000 73724708.000000" />
<path d="M91774664.000000 92774708.000000 A1000000.000000 1000000.000000 0.0 0 0 92774664.000000 91774708.000000" />
<path d="M60724664.000000 40674708.000000 A1000000.000000 1000000.000000 0.0 0 0 59724664.000000 41674708.000000" />
<path d="M34525164.000000 77774708.000000 A1000000.000000 1000000.000000 0.0 0 0 33525165.000000 76774708.000001" />
<path d="M78774664 60724708
L78774664 72724708
" />
<path d="M91774664.000000 16574708.000000 A1000000.000000 1000000.000000 0.0 0 0 92774664.000000 15574708.000000" />
<path d="M41674664.000000 21624708.000000 A1000000.000000 1000000.000000 0.0 0 0 40674664.000000 22624708.000000" />
<path d="M73724664 91774708
L73724664 79774708
" />
<path d="M15574664.000000 54674708.000000 A1000000.000000 1000000.000000 0.0 0 0 16574664.000000 53674708.000000" />
<path d="M35624664.000000 22624708.000000 A1000000.000000 1000000.000000 0.0 0 0 34624664.000000 21624708.000000" />
<path d="M110824664 16574708
L98824664 16574708
" />
<path d="M91774664 35624708
L79774664 35624708
" />
<path d="M40674664.000000 72724708.000000 A1000000.000000 1000000.000000 0.0 0 0 41674664.000000 73724708.000000" />
<path d="M16574664.000000 3574708.000000 A1000000.000000 1000000.000000 0.0 0 0 15574664.000000 2574708.000000" />
<path d="M35624664.000000 60724708.000000 A1000000.000000 1000000.000000 0.0 0 0 34624664.000000 59724708.000000" />
<path d="M73724664.000000 41674708.000000 A1000000.000000 1000000.000000 0.0 0 0 72724664.000000 40674708.000000" />
<path d="M15574664.000000 16574708.000000 A1000000.000000 1000000.000000 0.0 0 0 16574664.000000 15574708.000000" />
<path d="M60724664.000000 21624708.000000 A1000000.000000 1000000.000000 0.0 0 0 59724664.000000 22624708.000000" />
<path d="M34624664.000000 54674708.000000 A1000000.000000 1000000.000000 0.0 0 0 35624664.000000 53674708.000000" />
<path d="M21624664 41674708
L21624664 53674708
" />
<path d="M40674664 79774708
L40674664 91774708
" />
<path d="M54674664.000000 79774708.000000 A1000000.000000 1000000.000000 0.0 0 0 53674664.000000 78774708.000000" />
<path d="M111824664.000000 60724708.000000 A1000000.000000 1000000.000000 0.0 0 0 110824664.000000 59724708.000000" />
<path d="M15574664 73724708
L3574664 73724708
" />
<path d="M41674664.000000 2574708.000000 A1000000.000000 1000000.000000 0.0 0 0 40674664.000000 3574708.000000" />
<path d="M78774664.000000 72724708.000000 A1000000.000000 1000000.000000 0.0 0 0 79774664.000000 73724708.000000" />
<path d="M54674664.000000 3574708.000000 A1000000.000000 1000000.000000 0.0 0 0 53674664.000000 2574708.000000" />
<path d="M34624664 73724708
L22624664 73724708
" />
</g>
<g style="fill:#D0D2CD; fill-opacity:0.0; 
stroke:#D0D2CD; stroke-width:100000.000000; stroke-opacity:1; 
stroke-linecap:round; stroke-linejoin:round;">
<path d="M112564157.000157 95300039.999986 A1785932.000000 1785932.000000 0.0 0 0 114350095.999695 93514141.000000" />
</g>
<g style="fill:#D0D2CD; fill-opacity:0.0; 
stroke:#D0D2CD; stroke-width:200000.000000; stroke-opacity:1; 
stroke-linecap:round; stroke-linejoin:round;">
<path d="M97824664 60724708
L97824664 72724708
" />
<path d="M2574664.000000 53674708.000000 A1000000.000000 1000000.000000 0.0 0 0 3574664.000000 54674708.000000" />
<path d="M54674664 15574708
L54674664 3574708
" />
<path d="M34525171.001458 77995261.999622 A1000093.000000 1000093.000000 0.0 0 0 35068664.150896 78884984.705948" />
<path d="M92774664.000000 60724708.000000 A1000000.000000 1000000.000000 0.0 0 0 91774664.000000 59724708.000000" />
<path d="M91774664 92774708
L79774664 92774708
" />
<path d="M22624664.000000 40674708.000000 A1000000.000000 1000000.000000 0.0 0 0 21624664.000000 41674708.000000" />
<path d="M60724664 21624708
L72724664 21624708
" />
<path d="M92774664.000000 3574708.000000 A1000000.000000 1000000.000000 0.0 0 0 91774664.000000 2574708.000000" />
<path d="M22624664 59724708
L34624664 59724708
" />
<path d="M35612164.000000 79774708.000000 A1000000.000000 1000000.000000 0.0 0 0 35068664.167369 78884984.673796" />
<path d="M21624664.000000 53674708.000000 A1000000.000000 1000000.000000 0.0 0 0 22624664.000000 54674708.000000" />
<path d="M73724664 15574708
L73724664 3574708
" />
<path d="M79774664.000000 59724708.000000 A1000000.000000 1000000.000000 0.0 0 0 78774664.000000 60724708.000000" />
<path d="M97824664 3574708
L97824664 15574708
" />
<path d="M3574664 2574708
L15574664 2574708
" />
<path d="M98824664.000000 21624708.000000 A1000000.000000 1000000.000000 0.0 0 0 97824664.000000 22624708.000000" />
<path d="M97824664 41674708
L97824664 53674708
" />
<path d="M111824664.000000 79774708.000000 A1000000.000000 1000000.000000 0.0 0 0 110824664.000000 78774708.000000" />
<path d="M2574664.000000 15574708.000000 A1000000.000000 1000000.000000 0.0 0 0 3574664.000000 16574708.000000" />
<path d="M34624664 35624708
L22624664 35624708
" />
<path d="M35624664 72724708
L35624664 60724708
" />
<path d="M10649164.000000 77774708.000000 A1000000.000000 1000000.000000 0.0 0 0 11649164.000000 78774708.000000" />
<path d="M59724664 41674708
L59724664 53674708
" />
<path d="M79774664.000000 2574708.000000 A1000000.000000 1000000.000000 0.0 0 0 78774664.000000 3574708.000000" />
<path d="M79774664 78774708
L91774664 78774708
" />
<path d="M15574664 16574708
L3574664 16574708
" />
<path d="M40674664.000000 34624708.000000 A1000000.000000 1000000.000000 0.0 0 0 41674664.000000 35624708.000000" />
<path d="M111824664 72724708
L111824664 60724708
" />
<path d="M10649164.000000 77774708.000000 A1000000.000000 1000000.000000 0.0 0 0 9649164.000000 76774708.000000" />
<path d="M98824664 2574708
L110824664 2574708
" />
<path d="M34624664 16574708
L22624664 16574708
" />
<path d="M59724664.000000 91774708.000000 A1000000.000000 1000000.000000 0.0 0 0 60724664.000000 92774708.000000" />
<path d="M72724664 35624708
L60724664 35624708
" />
</g>
<g style="fill:#D0D2CD; fill-opacity:0.0; 
stroke:#D0D2CD; stroke-width:100000.000000; stroke-opacity:1; 
stroke-linecap:round; stroke-linejoin:round;">
<path d="M114350096 1835939
L114350096 55950296
" />
</g>
<g style="fill:#D0D2CD; fill-opacity:0.0; 
stroke:#D0D2CD; stroke-width:200000.000000; stroke-opacity:1; 
stroke-linecap:round; stroke-linejoin:round;">
<path d="M53674664.000000 54674708.000000 A1000000.000000 1000000.000000 0.0 0 0 54674664.000000 53674708.000000" />
<path d="M41674664 59724708
L53674664 59724708
" />
<path d="M59724664 60724708
L59724664 72724708
" />
<path d="M92774664 72724708
L92774664 60724708
" />
<path d="M91774664 73724708
L79774664 73724708
" />
<path d="M16574664 72724708
L16574664 60724708
" />
<path d="M3574664.000000 59724708.000000 A1000000.000000 1000000.000000 0.0 0 0 2574664.000000 60724708.000000" />
<path d="M98824664.000000 40674708.000000 A1000000.000000 1000000.000000 0.0 0 0 97824664.000000 41674708.000000" />
<path d="M22624664 40674708
L34624664 40674708
" />
<path d="M16574664 34624708
L16574664 22624708
" />
<path d="M22624664 2574708
L34624664 2574708
" />
<path d="M41674664 78774708
L53674664 78774708
" />
<path d="M4649164 76774708
L9649164 76774708
" />
<path d="M40674664 22624708
L40674664 34624708
" />
<path d="M54674664 72724708
L54674664 60724708
" />
<path d="M40674664 3574708
L40674664 15574708
" />
<path d="M59724664.000000 72724708.000000 A1000000.000000 1000000.000000 0.0 0 0 60724664.000000 73724708.000000" />
<path d="M92774664 34624708
L92774664 22624708
" />
</g>
<g style="fill:#D0D2CD; fill-opacity:0.0; 
stroke:#D0D2CD; stroke-width:100000.000000; stroke-opacity:1; 
stroke-linecap:round; stroke-linejoin:round;">
<path d="M50000 50000
L50000 95300080
" />
</g>
<g style="fill:#D0D2CD; fill-opacity:0.0; 
stroke:#D0D2CD; stroke-width:200000.000000; stroke-opacity:1; 
stroke-linecap:round; stroke-linejoin:round;">
<path d="M54674664 34624708
L54674664 22624708
" />
<path d="M40674664.000000 91774708.000000 A1000000.000000 1000000.000000 0.0 0 0 41674664.000000 92774708.000000" />
<path d="M34624664.000000 16574708.000000 A1000000.000000 1000000.000000 0.0 0 0 35624664.000000 15574708.000000" />
<path d="M53674664 54674708
L41674664 54674708
" />
<path d="M110824664.000000 35624708.000000 A1000000.000000 1000000.000000 0.0 0 0 111824664.000000 34624708.000000" />
</g>
<g style="fill:#D0D2CD; fill-opacity:0.0; 
stroke:#D0D2CD; stroke-width:100000.000000; stroke-opacity:1; 
stroke-linecap:round; stroke-linejoin:round;">
<path d="M112564157 50000
L50000 50000
" />
</g>
<g style="fill:#D0D2CD; fill-opacity:0.0; 
stroke:#D0D2CD; stroke-width:200000.000000; stroke-opacity:1; 
stroke-linecap:round; stroke-linejoin:round;">
<path d="M72724664 16574708
L60724664 16574708
" />
<path d="M34612164 92774708
L3562164 92774708
" />
<path d="M111824664 53674708
L111824664 41674708
" />
<path d="M35624664.000000 3574708.000000 A1000000.000000 1000000.000000 0.0 0 0 34624664.000000 2574708.000000" />
<path d="M16574664.000000 41674708.000000 A1000000.000000 1000000.000000 0.0 0 0 15574664.000000 40674708.000000" />
<path d="M60724664.000000 78774708.000000 A1000000.000000 1000000.000000 0.0 0 0 59724664.000000 79774708.000000" />
<path d="M2574664 41674708
L2574664 53674708
" />
<path d="M41674664.000000 78774708.000000 A1000000.000000 1000000.000000 0.0 0 0 40674664.000000 79774708.000000" />
<path d="M110824664.000000 92774708.000000 A1000000.000000 1000000.000000 0.0 0 0 111824664.000000 91774708.000000" />
<path d="M91774664.000000 73724708.000000 A1000000.000000 1000000.000000 0.0 0 0 92774664.000000 72724708.000000" />
<path d="M72724664 92774708
L60724664 92774708
" />
<path d="M53674664 16574708
L41674664 16574708
" />
<path d="M40674664.000000 53674708.000000 A1000000.000000 1000000.000000 0.0 0 0 41674664.000000 54674708.000000" />
<path d="M59724664.000000 15574708.000000 A1000000.000000 1000000.000000 0.0 0 0 60724664.000000 16574708.000000" />
<path d="M54674664.000000 60724708.000000 A1000000.000000 1000000.000000 0.0 0 0 53674664.000000 59724708.000000" />
<path d="M72724664.000000 16574708.000000 A1000000.000000 1000000.000000 0.0 0 0 73724664.000000 15574708.000000" />
<path d="M21624664 60724708
L21624664 72724708
" />
<path d="M72724664.000000 54674708.000000 A1000000.000000 1000000.000000 0.0 0 0 73724664.000000 53674708.000000" />
<path d="M3105663.832631 78884984.673796 A1000000.000000 1000000.000000 0.0 0 0 2562164.000000 79774708.000000" />
<path d="M54674664 91774708
L54674664 79774708
" />
<path d="M41674664 40674708
L53674664 40674708
" />
<path d="M21624664.000000 34624708.000000 A1000000.000000 1000000.000000 0.0 0 0 22624664.000000 35624708.000000" />
<path d="M73724664.000000 22624708.000000 A1000000.000000 1000000.000000 0.0 0 0 72724664.000000 21624708.000000" />
<path d="M15574664.000000 73724708.000000 A1000000.000000 1000000.000000 0.0 0 0 16574664.000000 72724708.000000" />
<path d="M22624664.000000 59724708.000000 A1000000.000000 1000000.000000 0.0 0 0 21624664.000000 60724708.000000" />
<path d="M16574664 53674708
L16574664 41674708
" />
<path d="M22624664 21624708
L34624664 21624708
" />
<path d="M79774664 59724708
L91774664 59724708
" />
<path d="M110824664 54674708
L98824664 54674708
" />
<path d="M92774664.000000 41674708.000000 A1000000.000000 1000000.000000 0.0 0 0 91774664.000000 40674708.000000" />
<path d="M26525164.000000 78774708.000000 A1000000.000000 1000000.000000 0.0 0 0 27525164.000000 77774708.000000" />
<path d="M110824664 35624708
L98824664 35624708
" />
<path d="M111824664 91774708
L111824664 79774708
" />
<path d="M40674664 41674708
L40674664 53674708
" />
<path d="M3105658.039635 78884973.381245 A999900.000000 999900.000000 0.0 0 0 3649163.998942 77995262.000000" />
<path d="M60724664 2574708
L72724664 2574708
" />
<path d="M78774664 41674708
L78774664 53674708
" />
<path d="M110824664.000000 16574708.000000 A1000000.000000 1000000.000000 0.0 0 0 111824664.000000 15574708.000000" />
<path d="M98824664 78774708
L110824664 78774708
" />
<path d="M79774664.000000 40674708.000000 A1000000.000000 1000000.000000 0.0 0 0 78774664.000000 41674708.000000" />
<path d="M97824664.000000 72724708.000000 A1000000.000000 1000000.000000 0.0 0 0 98824664.000000 73724708.000000" />
<path d="M97824664.000000 91774708.000000 A1000000.000000 1000000.000000 0.0 0 0 98824664.000000 92774708.000000" />
<path d="M92774664 15574708
L92774664 3574708
" />
<path d="M79774664 21624708
L91774664 21624708
" />
<path d="M98824664 59724708
L110824664 59724708
" />
<path d="M34612164.000000 92774708.000000 A1000000.000000 1000000.000000 0.0 0 0 35612164.000000 91774708.000000" />
<path d="M73724664.000000 79774708.000000 A1000000.000000 1000000.000000 0.0 0 0 72724664.000000 78774708.000000" />
<path d="M2574664 60724708
L2574664 72724708
" />
<path d="M78774664 79774708
L78774664 91774708
" />
<path d="M53674664 73724708
L41674664 73724708
" />
<path d="M15574664 35624708
L3574664 35624708
" />
<path d="M21624664.000000 15574708.000000 A1000000.000000 1000000.000000 0.0 0 0 22624664.000000 16574708.000000" />
<path d="M92774664.000000 79774708.000000 A1000000.000000 1000000.000000 0.0 0 0 91774664.000000 78774708.000000" />
<path d="M91774664 54674708
L79774664 54674708
" />
<path d="M97824664 79774708
L97824664 91774708
" />
<path d="M40674664 60724708
L40674664 72724708
" />
<path d="M59724664 3574708
L59724664 15574708
" />
<path d="M73724664 34624708
L73724664 22624708
" />
</g>
<g style="fill:#D0D2CD; fill-opacity:0.0; 
stroke:#D0D2CD; stroke-width:100000.000000; stroke-opacity:1; 
stroke-linecap:round; stroke-linejoin:round;">
<path d="M109350164 58450708
L114350096 58449800
" />
</g>
<g style="fill:#D0D2CD; fill-opacity:0.0; 
stroke:#D0D2CD; stroke-width:200000.000000; stroke-opacity:1; 
stroke-linecap:round; stroke-linejoin:round;">
<path d="M111824664 15574708
L111824664 3574708
" />
<path d="M15574664 54674708
L3574664 54674708
" />
<path d="M98824664.000000 2574708.000000 A1000000.000000 1000000.000000 0.0 0 0 97824664.000000 3574708.000000" />
<path d="M110824664 92774708
L98824664 92774708
" />
<path d="M3574664.000000 2574708.000000 A1000000.000000 1000000.000000 0.0 0 0 2574664.000000 3574708.000000" />
<path d="M41674664.000000 59724708.000000 A1000000.000000 1000000.000000 0.0 0 0 40674664.000000 60724708.000000" />
<path d="M4649162.999999 76774707.000001 A1000001.000000 1000001.000000 0.0 0 0 3649163.000000 77774708.000000" />
<path d="M35624664.000000 41674708.000000 A1000000.000000 1000000.000000 0.0 0 0 34624664.000000 40674708.000000" />
<path d="M92774664.000000 22624708.000000 A1000000.000000 1000000.000000 0.0 0 0 91774664.000000 21624708.000000" />
<path d="M111824664 34624708
L111824664 22624708
" />
<path d="M79774664.000000 21624708.000000 A1000000.000000 1000000.000000 0.0 0 0 78774664.000000 22624708.000000" />
<path d="M21624664 22624708
L21624664 34624708
" />
<path d="M40674664.000000 15574708.000000 A1000000.000000 1000000.000000 0.0 0 0 41674664.000000 16574708.000000" />
<path d="M79774664 2574708
L91774664 2574708
" />
</g>
<g style="fill:#D0D2CD; fill-opacity:0.0; 
stroke:#D0D2CD; stroke-width:100000.000000; stroke-opacity:1; 
stroke-linecap:round; stroke-linejoin:round;">
<path d="M114350071.999731 1835938.999583 A1785908.000000 1785908.000000 0.0 0 0 112564157.000000 50000.000014" />
</g>
<g style="fill:#D0D2CD; fill-opacity:0.0; 
stroke:#D0D2CD; stroke-width:200000.000000; stroke-opacity:1; 
stroke-linecap:round; stroke-linejoin:round;">
<path d="M53674664 92774708
L41674664 92774708
" />
<path d="M34624664 54674708
L22624664 54674708
" />
<path d="M98824664 40674708
L110824664 40674708
" />
<path d="M110824664.000000 54674708.000000 A1000000.000000 1000000.000000 0.0 0 0 111824664.000000 53674708.000000" />
<path d="M16574664 15574708
L16574664 3574708
" />
<path d="M16574664.000000 22624708.000000 A1000000.000000 1000000.000000 0.0 0 0 15574664.000000 21624708.000000" />
<path d="M35624664 34624708
L35624664 22624708
" />
<path d="M60724664.000000 59724708.000000 A1000000.000000 1000000.000000 0.0 0 0 59724664.000000 60724708.000000" />
<path d="M2562164 91774708
L2562164 79774708
" />
<path d="M60724664 78774708
L72724664 78774708
" />
<path d="M53674664 35624708
L41674664 35624708
" />
<path d="M91774664.000000 35624708.000000 A1000000.000000 1000000.000000 0.0 0 0 92774664.000000 34624708.000000" />
<path d="M97824664.000000 53674708.000000 A1000000.000000 1000000.000000 0.0 0 0 98824664.000000 54674708.000000" />
<path d="M111824664.000000 41674708.000000 A1000000.000000 1000000.000000 0.0 0 0 110824664.000000 40674708.000000" />
<path d="M59724664 79774708
L59724664 91774708
" />
<path d="M16574664.000000 60724708.000000 A1000000.000000 1000000.000000 0.0 0 0 15574664.000000 59724708.000000" />
<path d="M72724664 73724708
L60724664 73724708
" />
<path d="M3574664.000000 21624708.000000 A1000000.000000 1000000.000000 0.0 0 0 2574664.000000 22624708.000000" />
<path d="M2574664.000000 34624708.000000 A1000000.000000 1000000.000000 0.0 0 0 3574664.000000 35624708.000000" />
<path d="M72724664.000000 35624708.000000 A1000000.000000 1000000.000000 0.0 0 0 73724664.000000 34624708.000000" />
<path d="M98824664.000000 78774708.000000 A1000000.000000 1000000.000000 0.0 0 0 97824664.000000 79774708.000000" />
<path d="M91774664.000000 54674708.000000 A1000000.000000 1000000.000000 0.0 0 0 92774664.000000 53674708.000000" />
<path d="M60724664.000000 2574708.000000 A1000000.000000 1000000.000000 0.0 0 0 59724664.000000 3574708.000000" />
<path d="M97824664.000000 34624708.000000 A1000000.000000 1000000.000000 0.0 0 0 98824664.000000 35624708.000000" />
<path d="M2562164.000000 91774708.000000 A1000000.000000 1000000.000000 0.0 0 0 3562164.000000 92774708.000000" />
<path d="M59724664.000000 34624708.000000 A1000000.000000 1000000.000000 0.0 0 0 60724664.000000 35624708.000000" />
<path d="M53674664.000000 16574708.000000 A1000000.000000 1000000.000000 0.0 0 0 54674664.000000 15574708.000000" />
<path d="M54674664.000000 41674708.000000 A1000000.000000 1000000.000000 0.0 0 0 53674664.000000 40674708.000000" />
<path d="M2574664.000000 72724708.000000 A1000000.000000 1000000.000000 0.0 0 0 3574664.000000 73724708.000000" />
<path d="M79774664.000000 78774708.000000 A1000000.000000 1000000.000000 0.0 0 0 78774664.000000 79774708.000000" />
<path d="M97824664.000000 15574708.000000 A1000000.000000 1000000.000000 0.0 0 0 98824664.000000 16574708.000000" />
<path d="M98824664.000000 59724708.000000 A1000000.000000 1000000.000000 0.0 0 0 97824664.000000 60724708.000000" />
<path d="M53674664.000000 73724708.000000 A1000000.000000 1000000.000000 0.0 0 0 54674664.000000 72724708.000000" />
<path d="M41674664 21624708
L53674664 21624708
" />
<path d="M3574664.000000 40674708.000000 A1000000.000000 1000000.000000 0.0 0 0 2574664.000000 41674708.000000" />
<path d="M22624664.000000 2574708.000000 A1000000.000000 1000000.000000 0.0 0 0 21624664.000000 3574708.000000" />
<path d="M3574664 40674708
L15574664 40674708
" />
<path d="M53674664.000000 35624708.000000 A1000000.000000 1000000.000000 0.0 0 0 54674664.000000 34624708.000000" />
<path d="M54674664 53674708
L54674664 41674708
" />
<path d="M11649164 78774708
L26525164 78774708
" />
<path d="M21624664 3574708
L21624664 15574708
" />
<path d="M28525164.000000 76774708.000000 A1000000.000000 1000000.000000 0.0 0 0 27525164.000000 77774708.000000" />
<path d="M91774664 16574708
L79774664 16574708
" />
<path d="M3649163 77995262
L3649163 77774708
" />
<path d="M111824664.000000 3574708.000000 A1000000.000000 1000000.000000 0.0 0 0 110824664.000000 2574708.000000" />
<path d="M53674664.000000 92774708.000000 A1000000.000000 1000000.000000 0.0 0 0 54674664.000000 91774708.000000" />
<path d="M35624664 53674708
L35624664 41674708
" />
<path d="M3574664 21624708
L15574664 21624708
" />
<path d="M73724664 53674708
L73724664 41674708
" />
<path d="M59724664.000000 53674708.000000 A1000000.000000 1000000.000000 0.0 0 0 60724664.000000 54674708.000000" />
<path d="M35612164 79774708
L35612164 91774708
" />
<path d="M34525165 77774708
L34525165 77995262
" />
<path d="M78774664.000000 34624708.000000 A1000000.000000 1000000.000000 0.0 0 0 79774664.000000 35624708.000000" />
<path d="M15574664.000000 35624708.000000 A1000000.000000 1000000.000000 0.0 0 0 16574664.000000 34624708.000000" />
<path d="M72724664 54674708
L60724664 54674708
" />
<path d="M98824664 21624708
L110824664 21624708
" />
<path d="M78774664.000000 15574708.000000 A1000000.000000 1000000.000000 0.0 0 0 79774664.000000 16574708.000000" />
<path d="M34624664.000000 35624708.000000 A1000000.000000 1000000.000000 0.0 0 0 35624664.000000 34624708.000000" />
</g>
<g style="fill:#D0D2CD; fill-opacity:0.0; 
stroke:#D0D2CD; stroke-width:100000.000000; stroke-opacity:1; 
stroke-linecap:round; stroke-linejoin:round;">
<path d="M109350164 55950708
L114350096 55950296
" />
</g>
<g style="fill:#D0D2CD; fill-opacity:0.0; 
stroke:#D0D2CD; stroke-width:200000.000000; stroke-opacity:1; 
stroke-linecap:round; stroke-linejoin:round;">
<path d="M110824664 73724708
L98824664 73724708
" />
<path d="M73724664 72724708
L73724664 60724708
" />
<path d="M60724664 59724708
L72724664 59724708
" />
<path d="M28525164 76774708
L33525164 76774708
" />
<path d="M97824664 22624708
L97824664 34624708
" />
<path d="M41674664 2574708
L53674664 2574708
" />
<path d="M111824664.000000 22624708.000000 A1000000.000000 1000000.000000 0.0 0 0 110824664.000000 21624708.000000" />
<g >
</g>
<g >
</g>
<g >
</g>
</g> 
</svg>
