G04 #@! TF.GenerationSoftware,KiCad,Pcbnew,6.0.1-79c1e3a40b~116~ubuntu21.10.1*
G04 #@! TF.CreationDate,2022-02-01T10:26:28+01:00*
G04 #@! TF.ProjectId,lumberjack-bottom,6c756d62-6572-46a6-9163-6b2d626f7474,1.5*
G04 #@! TF.SameCoordinates,Original*
G04 #@! TF.FileFunction,Soldermask,Bot*
G04 #@! TF.FilePolarity,Negative*
%FSLAX46Y46*%
G04 Gerber Fmt 4.6, Leading zero omitted, Abs format (unit mm)*
G04 Created by KiCad (PCBNEW 6.0.1-79c1e3a40b~116~ubuntu21.10.1) date 2022-02-01 10:26:28*
%MOMM*%
%LPD*%
G01*
G04 APERTURE LIST*
%ADD10C,0.300000*%
%ADD11C,0.250000*%
%ADD12C,0.150000*%
%ADD13C,0.120000*%
%ADD14C,0.500000*%
%ADD15C,0.160000*%
%ADD16C,0.100000*%
%ADD17C,0.010000*%
%ADD18C,2.200000*%
G04 APERTURE END LIST*
D10*
X291698996Y-147720882D02*
X292365662Y-147720882D01*
X292365662Y-146220882D01*
X290632329Y-146720882D02*
X290632329Y-147720882D01*
X291232329Y-146720882D02*
X291232329Y-147506596D01*
X291165662Y-147649453D01*
X291032329Y-147720882D01*
X290832329Y-147720882D01*
X290698996Y-147649453D01*
X290632329Y-147578025D01*
X289965662Y-147720882D02*
X289965662Y-146720882D01*
X289965662Y-146863739D02*
X289898996Y-146792311D01*
X289765662Y-146720882D01*
X289565662Y-146720882D01*
X289432329Y-146792311D01*
X289365662Y-146935168D01*
X289365662Y-147720882D01*
X289365662Y-146935168D02*
X289298996Y-146792311D01*
X289165662Y-146720882D01*
X288965662Y-146720882D01*
X288832329Y-146792311D01*
X288765662Y-146935168D01*
X288765662Y-147720882D01*
X288098996Y-147720882D02*
X288098996Y-146220882D01*
X288098996Y-146792311D02*
X287965662Y-146720882D01*
X287698996Y-146720882D01*
X287565662Y-146792311D01*
X287498996Y-146863739D01*
X287432329Y-147006596D01*
X287432329Y-147435168D01*
X287498996Y-147578025D01*
X287565662Y-147649453D01*
X287698996Y-147720882D01*
X287965662Y-147720882D01*
X288098996Y-147649453D01*
X286298996Y-147649453D02*
X286432329Y-147720882D01*
X286698996Y-147720882D01*
X286832329Y-147649453D01*
X286898996Y-147506596D01*
X286898996Y-146935168D01*
X286832329Y-146792311D01*
X286698996Y-146720882D01*
X286432329Y-146720882D01*
X286298996Y-146792311D01*
X286232329Y-146935168D01*
X286232329Y-147078025D01*
X286898996Y-147220882D01*
X285632329Y-147720882D02*
X285632329Y-146720882D01*
X285632329Y-147006596D02*
X285565662Y-146863739D01*
X285498996Y-146792311D01*
X285365662Y-146720882D01*
X285232329Y-146720882D01*
X284765662Y-146720882D02*
X284765662Y-148006596D01*
X284832329Y-148149453D01*
X284965662Y-148220882D01*
X285032329Y-148220882D01*
X284765662Y-146220882D02*
X284832329Y-146292311D01*
X284765662Y-146363739D01*
X284698996Y-146292311D01*
X284765662Y-146220882D01*
X284765662Y-146363739D01*
X283498996Y-147720882D02*
X283498996Y-146935168D01*
X283565662Y-146792311D01*
X283698996Y-146720882D01*
X283965662Y-146720882D01*
X284098996Y-146792311D01*
X283498996Y-147649453D02*
X283632329Y-147720882D01*
X283965662Y-147720882D01*
X284098996Y-147649453D01*
X284165662Y-147506596D01*
X284165662Y-147363739D01*
X284098996Y-147220882D01*
X283965662Y-147149453D01*
X283632329Y-147149453D01*
X283498996Y-147078025D01*
X282232329Y-147649453D02*
X282365662Y-147720882D01*
X282632329Y-147720882D01*
X282765662Y-147649453D01*
X282832329Y-147578025D01*
X282898996Y-147435168D01*
X282898996Y-147006596D01*
X282832329Y-146863739D01*
X282765662Y-146792311D01*
X282632329Y-146720882D01*
X282365662Y-146720882D01*
X282232329Y-146792311D01*
X281632329Y-147720882D02*
X281632329Y-146220882D01*
X281498996Y-147149453D02*
X281098996Y-147720882D01*
X281098996Y-146720882D02*
X281632329Y-147292311D01*
X280498996Y-147149453D02*
X279432329Y-147149453D01*
X277965662Y-147578025D02*
X278032329Y-147649453D01*
X278232329Y-147720882D01*
X278365662Y-147720882D01*
X278565662Y-147649453D01*
X278698996Y-147506596D01*
X278765662Y-147363739D01*
X278832329Y-147078025D01*
X278832329Y-146863739D01*
X278765662Y-146578025D01*
X278698996Y-146435168D01*
X278565662Y-146292311D01*
X278365662Y-146220882D01*
X278232329Y-146220882D01*
X278032329Y-146292311D01*
X277965662Y-146363739D01*
X276298996Y-147720882D02*
X276298996Y-146720882D01*
X276298996Y-147006596D02*
X276232329Y-146863739D01*
X276165662Y-146792311D01*
X276032329Y-146720882D01*
X275898996Y-146720882D01*
X274898996Y-147649453D02*
X275032329Y-147720882D01*
X275298996Y-147720882D01*
X275432329Y-147649453D01*
X275498996Y-147506596D01*
X275498996Y-146935168D01*
X275432329Y-146792311D01*
X275298996Y-146720882D01*
X275032329Y-146720882D01*
X274898996Y-146792311D01*
X274832329Y-146935168D01*
X274832329Y-147078025D01*
X275498996Y-147220882D01*
X274365662Y-146720882D02*
X274032329Y-147720882D01*
X273698996Y-146720882D01*
X272698996Y-146935168D02*
X272498996Y-147006596D01*
X272432329Y-147078025D01*
X272365662Y-147220882D01*
X272365662Y-147435168D01*
X272432329Y-147578025D01*
X272498996Y-147649453D01*
X272632329Y-147720882D01*
X273165662Y-147720882D01*
X273165662Y-146220882D01*
X272698996Y-146220882D01*
X272565662Y-146292311D01*
X272498996Y-146363739D01*
X272432329Y-146506596D01*
X272432329Y-146649453D01*
X272498996Y-146792311D01*
X272565662Y-146863739D01*
X272698996Y-146935168D01*
X273165662Y-146935168D01*
X270098996Y-146720882D02*
X270098996Y-147720882D01*
X270698996Y-146720882D02*
X270698996Y-147506596D01*
X270632329Y-147649453D01*
X270498996Y-147720882D01*
X270298996Y-147720882D01*
X270165662Y-147649453D01*
X270098996Y-147578025D01*
X268432329Y-146149453D02*
X269632329Y-148078025D01*
X267965662Y-146720882D02*
X267965662Y-148220882D01*
X267965662Y-146792311D02*
X267832329Y-146720882D01*
X267565662Y-146720882D01*
X267432329Y-146792311D01*
X267365662Y-146863739D01*
X267298996Y-147006596D01*
X267298996Y-147435168D01*
X267365662Y-147578025D01*
X267432329Y-147649453D01*
X267565662Y-147720882D01*
X267832329Y-147720882D01*
X267965662Y-147649453D01*
X266165662Y-147649453D02*
X266298996Y-147720882D01*
X266565662Y-147720882D01*
X266698996Y-147649453D01*
X266765662Y-147506596D01*
X266765662Y-146935168D01*
X266698996Y-146792311D01*
X266565662Y-146720882D01*
X266298996Y-146720882D01*
X266165662Y-146792311D01*
X266098996Y-146935168D01*
X266098996Y-147078025D01*
X266765662Y-147220882D01*
X264965662Y-147649453D02*
X265098996Y-147720882D01*
X265365662Y-147720882D01*
X265498996Y-147649453D01*
X265565662Y-147506596D01*
X265565662Y-146935168D01*
X265498996Y-146792311D01*
X265365662Y-146720882D01*
X265098996Y-146720882D01*
X264965662Y-146792311D01*
X264898996Y-146935168D01*
X264898996Y-147078025D01*
X265565662Y-147220882D01*
X264298996Y-146720882D02*
X264298996Y-148006596D01*
X264365662Y-148149453D01*
X264498996Y-148220882D01*
X264565662Y-148220882D01*
X264298996Y-146220882D02*
X264365662Y-146292311D01*
X264298996Y-146363739D01*
X264232329Y-146292311D01*
X264298996Y-146220882D01*
X264298996Y-146363739D01*
X263098996Y-147649453D02*
X263232329Y-147720882D01*
X263498996Y-147720882D01*
X263632329Y-147649453D01*
X263698996Y-147506596D01*
X263698996Y-146935168D01*
X263632329Y-146792311D01*
X263498996Y-146720882D01*
X263232329Y-146720882D01*
X263098996Y-146792311D01*
X263032329Y-146935168D01*
X263032329Y-147078025D01*
X263698996Y-147220882D01*
X262432329Y-147720882D02*
X262432329Y-146220882D01*
X261832329Y-147720882D02*
X261832329Y-146935168D01*
X261898996Y-146792311D01*
X262032329Y-146720882D01*
X262232329Y-146720882D01*
X262365662Y-146792311D01*
X262432329Y-146863739D01*
X260232329Y-147720882D02*
X259498996Y-146720882D01*
X260232329Y-146720882D02*
X259498996Y-147720882D01*
X257298996Y-146720882D02*
X257298996Y-147720882D01*
X257898996Y-146720882D02*
X257898996Y-147506596D01*
X257832329Y-147649453D01*
X257698996Y-147720882D01*
X257498996Y-147720882D01*
X257365662Y-147649453D01*
X257298996Y-147578025D01*
X255632329Y-146149453D02*
X256832329Y-148078025D01*
X255165662Y-146720882D02*
X255165662Y-148220882D01*
X255165662Y-146792311D02*
X255032329Y-146720882D01*
X254765662Y-146720882D01*
X254632329Y-146792311D01*
X254565662Y-146863739D01*
X254498996Y-147006596D01*
X254498996Y-147435168D01*
X254565662Y-147578025D01*
X254632329Y-147649453D01*
X254765662Y-147720882D01*
X255032329Y-147720882D01*
X255165662Y-147649453D01*
X253898996Y-147720882D02*
X253898996Y-146720882D01*
X253898996Y-146220882D02*
X253965662Y-146292311D01*
X253898996Y-146363739D01*
X253832329Y-146292311D01*
X253898996Y-146220882D01*
X253898996Y-146363739D01*
X253232329Y-147720882D02*
X253232329Y-146720882D01*
X253232329Y-146220882D02*
X253298996Y-146292311D01*
X253232329Y-146363739D01*
X253165662Y-146292311D01*
X253232329Y-146220882D01*
X253232329Y-146363739D01*
X252765662Y-146720882D02*
X252232329Y-146720882D01*
X252565662Y-146220882D02*
X252565662Y-147506596D01*
X252498996Y-147649453D01*
X252365662Y-147720882D01*
X252232329Y-147720882D01*
X251898996Y-146220882D02*
X250965662Y-146220882D01*
X251565662Y-147720882D01*
X250365662Y-147720882D02*
X250098996Y-147720882D01*
X249965662Y-147649453D01*
X249898996Y-147578025D01*
X249765662Y-147363739D01*
X249698996Y-147078025D01*
X249698996Y-146506596D01*
X249765662Y-146363739D01*
X249832329Y-146292311D01*
X249965662Y-146220882D01*
X250232329Y-146220882D01*
X250365662Y-146292311D01*
X250432329Y-146363739D01*
X250498996Y-146506596D01*
X250498996Y-146863739D01*
X250432329Y-147006596D01*
X250365662Y-147078025D01*
X250232329Y-147149453D01*
X249965662Y-147149453D01*
X249832329Y-147078025D01*
X249765662Y-147006596D01*
X249698996Y-146863739D01*
X234119136Y-147708809D02*
X234119136Y-146108809D01*
X233204851Y-147708809D01*
X233204851Y-146108809D01*
X231681041Y-147708809D02*
X232442946Y-147708809D01*
X232442946Y-146108809D01*
D11*
X244277328Y-100314111D02*
X244277328Y-101742683D01*
X244372566Y-102028397D01*
X244563042Y-102218873D01*
X244848757Y-102314111D01*
X245039233Y-102314111D01*
X243420185Y-101742683D02*
X242467804Y-101742683D01*
X243610661Y-102314111D02*
X242943995Y-100314111D01*
X242277328Y-102314111D01*
X240467804Y-102123635D02*
X240563042Y-102218873D01*
X240848757Y-102314111D01*
X241039233Y-102314111D01*
X241324947Y-102218873D01*
X241515423Y-102028397D01*
X241610661Y-101837921D01*
X241705900Y-101456969D01*
X241705900Y-101171254D01*
X241610661Y-100790302D01*
X241515423Y-100599826D01*
X241324947Y-100409350D01*
X241039233Y-100314111D01*
X240848757Y-100314111D01*
X240563042Y-100409350D01*
X240467804Y-100504588D01*
X239610661Y-102314111D02*
X239610661Y-100314111D01*
X238467804Y-102314111D02*
X239324947Y-101171254D01*
X238467804Y-100314111D02*
X239610661Y-101456969D01*
D12*
X243853995Y-100061730D02*
X244330185Y-100061730D01*
X244330185Y-99061730D01*
X243520661Y-99061730D02*
X243520661Y-99871254D01*
X243473042Y-99966492D01*
X243425423Y-100014111D01*
X243330185Y-100061730D01*
X243139709Y-100061730D01*
X243044471Y-100014111D01*
X242996852Y-99966492D01*
X242949233Y-99871254D01*
X242949233Y-99061730D01*
X242473042Y-100061730D02*
X242473042Y-99061730D01*
X242139709Y-99776016D01*
X241806376Y-99061730D01*
X241806376Y-100061730D01*
X240996852Y-99537921D02*
X240853995Y-99585540D01*
X240806376Y-99633159D01*
X240758757Y-99728397D01*
X240758757Y-99871254D01*
X240806376Y-99966492D01*
X240853995Y-100014111D01*
X240949233Y-100061730D01*
X241330185Y-100061730D01*
X241330185Y-99061730D01*
X240996852Y-99061730D01*
X240901614Y-99109350D01*
X240853995Y-99156969D01*
X240806376Y-99252207D01*
X240806376Y-99347445D01*
X240853995Y-99442683D01*
X240901614Y-99490302D01*
X240996852Y-99537921D01*
X241330185Y-99537921D01*
X240330185Y-99537921D02*
X239996852Y-99537921D01*
X239853995Y-100061730D02*
X240330185Y-100061730D01*
X240330185Y-99061730D01*
X239853995Y-99061730D01*
X238853995Y-100061730D02*
X239187328Y-99585540D01*
X239425423Y-100061730D02*
X239425423Y-99061730D01*
X239044471Y-99061730D01*
X238949233Y-99109350D01*
X238901614Y-99156969D01*
X238853995Y-99252207D01*
X238853995Y-99395064D01*
X238901614Y-99490302D01*
X238949233Y-99537921D01*
X239044471Y-99585540D01*
X239425423Y-99585540D01*
D13*
X225314375Y-147685000D02*
X225114375Y-147685000D01*
X225114375Y-147685000D02*
X224714375Y-147485000D01*
X224714375Y-147485000D02*
X224514375Y-147085000D01*
X224514375Y-147085000D02*
X224514375Y-146685000D01*
X224514375Y-146685000D02*
X224714375Y-146285000D01*
X224714375Y-146285000D02*
X225014375Y-146085000D01*
X225014375Y-146085000D02*
X225314375Y-146085000D01*
X225314375Y-146085000D02*
X225314375Y-145985000D01*
X225314375Y-145985000D02*
X223814375Y-145985000D01*
X223814375Y-145985000D02*
X223814375Y-147785000D01*
X223814375Y-147785000D02*
X225314375Y-147785000D01*
X225314375Y-147785000D02*
X225314375Y-147685000D01*
G36*
X225314375Y-146085000D02*
G01*
X225014375Y-146085000D01*
X224714375Y-146285000D01*
X224514375Y-146685000D01*
X224514375Y-147085000D01*
X224714375Y-147485000D01*
X225114375Y-147685000D01*
X225314375Y-147685000D01*
X225314375Y-147785000D01*
X223814375Y-147785000D01*
X223814375Y-145985000D01*
X225314375Y-145985000D01*
X225314375Y-146085000D01*
G37*
X225314375Y-146085000D02*
X225014375Y-146085000D01*
X224714375Y-146285000D01*
X224514375Y-146685000D01*
X224514375Y-147085000D01*
X224714375Y-147485000D01*
X225114375Y-147685000D01*
X225314375Y-147685000D01*
X225314375Y-147785000D01*
X223814375Y-147785000D01*
X223814375Y-145985000D01*
X225314375Y-145985000D01*
X225314375Y-146085000D01*
X225314375Y-146085000D02*
X225514375Y-146085000D01*
X225514375Y-146085000D02*
X225914375Y-146285000D01*
X225914375Y-146285000D02*
X226114375Y-146685000D01*
X226114375Y-146685000D02*
X226114375Y-147085000D01*
X226114375Y-147085000D02*
X225914375Y-147485000D01*
X225914375Y-147485000D02*
X225614375Y-147685000D01*
X225614375Y-147685000D02*
X225314375Y-147685000D01*
X225314375Y-147685000D02*
X225314375Y-147785000D01*
X225314375Y-147785000D02*
X226814375Y-147785000D01*
X226814375Y-147785000D02*
X226814375Y-145985000D01*
X226814375Y-145985000D02*
X225314375Y-145985000D01*
X225314375Y-145985000D02*
X225314375Y-146085000D01*
G36*
X226814375Y-147785000D02*
G01*
X225314375Y-147785000D01*
X225314375Y-147685000D01*
X225614375Y-147685000D01*
X225914375Y-147485000D01*
X226114375Y-147085000D01*
X226114375Y-146685000D01*
X225914375Y-146285000D01*
X225514375Y-146085000D01*
X225314375Y-146085000D01*
X225314375Y-145985000D01*
X226814375Y-145985000D01*
X226814375Y-147785000D01*
G37*
X226814375Y-147785000D02*
X225314375Y-147785000D01*
X225314375Y-147685000D01*
X225614375Y-147685000D01*
X225914375Y-147485000D01*
X226114375Y-147085000D01*
X226114375Y-146685000D01*
X225914375Y-146285000D01*
X225514375Y-146085000D01*
X225314375Y-146085000D01*
X225314375Y-145985000D01*
X226814375Y-145985000D01*
X226814375Y-147785000D01*
D14*
X225537982Y-146885000D02*
G75*
G03*
X225537982Y-146885000I-223607J0D01*
G01*
D15*
X226075952Y-146885000D02*
G75*
G03*
X226075952Y-146885000I-761577J0D01*
G01*
D16*
X235414375Y-147385000D02*
X235414375Y-147785000D01*
X235414375Y-147785000D02*
X236214375Y-147785000D01*
X236214375Y-147785000D02*
X236214375Y-147385000D01*
X236214375Y-147385000D02*
X235914375Y-146485000D01*
X235914375Y-146485000D02*
X235714375Y-146485000D01*
X235714375Y-146485000D02*
X235414375Y-147385000D01*
G36*
X236214375Y-147385000D02*
G01*
X236214375Y-147785000D01*
X235414375Y-147785000D01*
X235414375Y-147385000D01*
X235714375Y-146485000D01*
X235914375Y-146485000D01*
X236214375Y-147385000D01*
G37*
X236214375Y-147385000D02*
X236214375Y-147785000D01*
X235414375Y-147785000D01*
X235414375Y-147385000D01*
X235714375Y-146485000D01*
X235914375Y-146485000D01*
X236214375Y-147385000D01*
D13*
X230714375Y-145985000D02*
X227714375Y-145985000D01*
X227714375Y-145985000D02*
X227714375Y-147785000D01*
X227714375Y-147785000D02*
X230714375Y-147785000D01*
X230714375Y-147785000D02*
X230714375Y-145985000D01*
D16*
X227714375Y-147785000D02*
X230714375Y-147785000D01*
X230714375Y-147785000D02*
X230714375Y-147285000D01*
X230714375Y-147285000D02*
X227714375Y-147285000D01*
X227714375Y-147285000D02*
X227714375Y-147785000D01*
G36*
X230714375Y-147785000D02*
G01*
X227714375Y-147785000D01*
X227714375Y-147285000D01*
X230714375Y-147285000D01*
X230714375Y-147785000D01*
G37*
X230714375Y-147785000D02*
X227714375Y-147785000D01*
X227714375Y-147285000D01*
X230714375Y-147285000D01*
X230714375Y-147785000D01*
D13*
X225455796Y-146285000D02*
G75*
G03*
X225455796Y-146285000I-141421J0D01*
G01*
X225455796Y-147485000D02*
G75*
G03*
X225455796Y-147485000I-141421J0D01*
G01*
X224855796Y-146885000D02*
G75*
G03*
X224855796Y-146885000I-141421J0D01*
G01*
X226055796Y-146885000D02*
G75*
G03*
X226055796Y-146885000I-141421J0D01*
G01*
X225955796Y-146585000D02*
G75*
G03*
X225955796Y-146585000I-141421J0D01*
G01*
X225755796Y-146385000D02*
G75*
G03*
X225755796Y-146385000I-141421J0D01*
G01*
X225155796Y-146385000D02*
G75*
G03*
X225155796Y-146385000I-141421J0D01*
G01*
X224955796Y-146585000D02*
G75*
G03*
X224955796Y-146585000I-141421J0D01*
G01*
X224955796Y-147185000D02*
G75*
G03*
X224955796Y-147185000I-141421J0D01*
G01*
X225155796Y-147385000D02*
G75*
G03*
X225155796Y-147385000I-141421J0D01*
G01*
X225755796Y-147385000D02*
G75*
G03*
X225755796Y-147385000I-141421J0D01*
G01*
X225955796Y-147185000D02*
G75*
G03*
X225955796Y-147185000I-141421J0D01*
G01*
D11*
X245015900Y-100219350D02*
X238315900Y-100209350D01*
D17*
X263102540Y-102161818D02*
X263067308Y-102179224D01*
X263067308Y-102179224D02*
X263023860Y-102209556D01*
X263023860Y-102209556D02*
X262992194Y-102242633D01*
X262992194Y-102242633D02*
X262970506Y-102284167D01*
X262970506Y-102284167D02*
X262956997Y-102339872D01*
X262956997Y-102339872D02*
X262949862Y-102415461D01*
X262949862Y-102415461D02*
X262947300Y-102516646D01*
X262947300Y-102516646D02*
X262947150Y-102560147D01*
X262947150Y-102560147D02*
X262947588Y-102655485D01*
X262947588Y-102655485D02*
X262949404Y-102723621D01*
X262949404Y-102723621D02*
X262953355Y-102770768D01*
X262953355Y-102770768D02*
X262960198Y-102803140D01*
X262960198Y-102803140D02*
X262970689Y-102826950D01*
X262970689Y-102826950D02*
X262981604Y-102843193D01*
X262981604Y-102843193D02*
X263051281Y-102912302D01*
X263051281Y-102912302D02*
X263133334Y-102953871D01*
X263133334Y-102953871D02*
X263221850Y-102966373D01*
X263221850Y-102966373D02*
X263310919Y-102948284D01*
X263310919Y-102948284D02*
X263339137Y-102935492D01*
X263339137Y-102935492D02*
X263406690Y-102900281D01*
X263406690Y-102900281D02*
X263406690Y-103452050D01*
X263406690Y-103452050D02*
X263357388Y-103426555D01*
X263357388Y-103426555D02*
X263292427Y-103406830D01*
X263292427Y-103406830D02*
X263212580Y-103401777D01*
X263212580Y-103401777D02*
X263132848Y-103411106D01*
X263132848Y-103411106D02*
X263072635Y-103432064D01*
X263072635Y-103432064D02*
X263022692Y-103471977D01*
X263022692Y-103471977D02*
X262980019Y-103529091D01*
X262980019Y-103529091D02*
X262976810Y-103534955D01*
X262976810Y-103534955D02*
X262963278Y-103562577D01*
X262963278Y-103562577D02*
X262953395Y-103590418D01*
X262953395Y-103590418D02*
X262946591Y-103624144D01*
X262946591Y-103624144D02*
X262942299Y-103669421D01*
X262942299Y-103669421D02*
X262939949Y-103731912D01*
X262939949Y-103731912D02*
X262938972Y-103817285D01*
X262938972Y-103817285D02*
X262938795Y-103913360D01*
X262938795Y-103913360D02*
X262938795Y-104219876D01*
X262938795Y-104219876D02*
X263122611Y-104219876D01*
X263122611Y-104219876D02*
X263122611Y-103654689D01*
X263122611Y-103654689D02*
X263174025Y-103611427D01*
X263174025Y-103611427D02*
X263227434Y-103576822D01*
X263227434Y-103576822D02*
X263278012Y-103570530D01*
X263278012Y-103570530D02*
X263328870Y-103586722D01*
X263328870Y-103586722D02*
X263355975Y-103602577D01*
X263355975Y-103602577D02*
X263376149Y-103625160D01*
X263376149Y-103625160D02*
X263390497Y-103659290D01*
X263390497Y-103659290D02*
X263400124Y-103709784D01*
X263400124Y-103709784D02*
X263406137Y-103781461D01*
X263406137Y-103781461D02*
X263409640Y-103879138D01*
X263409640Y-103879138D02*
X263410874Y-103944152D01*
X263410874Y-103944152D02*
X263415045Y-104211521D01*
X263415045Y-104211521D02*
X263502775Y-104216572D01*
X263502775Y-104216572D02*
X263590506Y-104221623D01*
X263590506Y-104221623D02*
X263590506Y-102562451D01*
X263590506Y-102562451D02*
X263406690Y-102562451D01*
X263406690Y-102562451D02*
X263402004Y-102654950D01*
X263402004Y-102654950D02*
X263386212Y-102719159D01*
X263386212Y-102719159D02*
X263356717Y-102759109D01*
X263356717Y-102759109D02*
X263310920Y-102778830D01*
X263310920Y-102778830D02*
X263264650Y-102782771D01*
X263264650Y-102782771D02*
X263212272Y-102778242D01*
X263212272Y-102778242D02*
X263177510Y-102760419D01*
X263177510Y-102760419D02*
X263155772Y-102736869D01*
X263155772Y-102736869D02*
X263138660Y-102711539D01*
X263138660Y-102711539D02*
X263128473Y-102683319D01*
X263128473Y-102683319D02*
X263123940Y-102643781D01*
X263123940Y-102643781D02*
X263123791Y-102584492D01*
X263123791Y-102584492D02*
X263125316Y-102534848D01*
X263125316Y-102534848D02*
X263128819Y-102460060D01*
X263128819Y-102460060D02*
X263134033Y-102410961D01*
X263134033Y-102410961D02*
X263142813Y-102379817D01*
X263142813Y-102379817D02*
X263157014Y-102358895D01*
X263157014Y-102358895D02*
X263170416Y-102346802D01*
X263170416Y-102346802D02*
X263226413Y-102320431D01*
X263226413Y-102320431D02*
X263292689Y-102316172D01*
X263292689Y-102316172D02*
X263330744Y-102325256D01*
X263330744Y-102325256D02*
X263368423Y-102357546D01*
X263368423Y-102357546D02*
X263393381Y-102420356D01*
X263393381Y-102420356D02*
X263405478Y-102513244D01*
X263405478Y-102513244D02*
X263406690Y-102562451D01*
X263406690Y-102562451D02*
X263590506Y-102562451D01*
X263590506Y-102562451D02*
X263590506Y-102147771D01*
X263590506Y-102147771D02*
X263498598Y-102147771D01*
X263498598Y-102147771D02*
X263443417Y-102149953D01*
X263443417Y-102149953D02*
X263414948Y-102157701D01*
X263414948Y-102157701D02*
X263406694Y-102172818D01*
X263406694Y-102172818D02*
X263406690Y-102173266D01*
X263406690Y-102173266D02*
X263402860Y-102188070D01*
X263402860Y-102188070D02*
X263385967Y-102186389D01*
X263385967Y-102186389D02*
X263352381Y-102170122D01*
X263352381Y-102170122D02*
X263274122Y-102145237D01*
X263274122Y-102145237D02*
X263186073Y-102142621D01*
X263186073Y-102142621D02*
X263102540Y-102161818D01*
X263102540Y-102161818D02*
X263102540Y-102161818D01*
G36*
X263502775Y-104216572D02*
G01*
X263415045Y-104211521D01*
X263410874Y-103944152D01*
X263409640Y-103879138D01*
X263406137Y-103781461D01*
X263400124Y-103709784D01*
X263390497Y-103659290D01*
X263376149Y-103625160D01*
X263355975Y-103602577D01*
X263328870Y-103586722D01*
X263278012Y-103570530D01*
X263227434Y-103576822D01*
X263174025Y-103611427D01*
X263122611Y-103654689D01*
X263122611Y-104219876D01*
X262938795Y-104219876D01*
X262938795Y-103913360D01*
X262938972Y-103817285D01*
X262939949Y-103731912D01*
X262942299Y-103669421D01*
X262946591Y-103624144D01*
X262953395Y-103590418D01*
X262963278Y-103562577D01*
X262976810Y-103534955D01*
X262980019Y-103529091D01*
X263022692Y-103471977D01*
X263072635Y-103432064D01*
X263132848Y-103411106D01*
X263212580Y-103401777D01*
X263292427Y-103406830D01*
X263357388Y-103426555D01*
X263406690Y-103452050D01*
X263406690Y-102900281D01*
X263339137Y-102935492D01*
X263310919Y-102948284D01*
X263221850Y-102966373D01*
X263133334Y-102953871D01*
X263051281Y-102912302D01*
X262981604Y-102843193D01*
X262970689Y-102826950D01*
X262960198Y-102803140D01*
X262953355Y-102770768D01*
X262949404Y-102723621D01*
X262947588Y-102655485D01*
X262947262Y-102584492D01*
X263123791Y-102584492D01*
X263123940Y-102643781D01*
X263128473Y-102683319D01*
X263138660Y-102711539D01*
X263155772Y-102736869D01*
X263177510Y-102760419D01*
X263212272Y-102778242D01*
X263264650Y-102782771D01*
X263310920Y-102778830D01*
X263356717Y-102759109D01*
X263386212Y-102719159D01*
X263402004Y-102654950D01*
X263406690Y-102562451D01*
X263405478Y-102513244D01*
X263393381Y-102420356D01*
X263368423Y-102357546D01*
X263330744Y-102325256D01*
X263292689Y-102316172D01*
X263226413Y-102320431D01*
X263170416Y-102346802D01*
X263157014Y-102358895D01*
X263142813Y-102379817D01*
X263134033Y-102410961D01*
X263128819Y-102460060D01*
X263125316Y-102534848D01*
X263123791Y-102584492D01*
X262947262Y-102584492D01*
X262947150Y-102560147D01*
X262947300Y-102516646D01*
X262949862Y-102415461D01*
X262956997Y-102339872D01*
X262970506Y-102284167D01*
X262992194Y-102242633D01*
X263023860Y-102209556D01*
X263067308Y-102179224D01*
X263102540Y-102161818D01*
X263186073Y-102142621D01*
X263274122Y-102145237D01*
X263352381Y-102170122D01*
X263385967Y-102186389D01*
X263402860Y-102188070D01*
X263406690Y-102173266D01*
X263406694Y-102172818D01*
X263414948Y-102157701D01*
X263443417Y-102149953D01*
X263498598Y-102147771D01*
X263590506Y-102147771D01*
X263590506Y-104221623D01*
X263502775Y-104216572D01*
G37*
X263502775Y-104216572D02*
X263415045Y-104211521D01*
X263410874Y-103944152D01*
X263409640Y-103879138D01*
X263406137Y-103781461D01*
X263400124Y-103709784D01*
X263390497Y-103659290D01*
X263376149Y-103625160D01*
X263355975Y-103602577D01*
X263328870Y-103586722D01*
X263278012Y-103570530D01*
X263227434Y-103576822D01*
X263174025Y-103611427D01*
X263122611Y-103654689D01*
X263122611Y-104219876D01*
X262938795Y-104219876D01*
X262938795Y-103913360D01*
X262938972Y-103817285D01*
X262939949Y-103731912D01*
X262942299Y-103669421D01*
X262946591Y-103624144D01*
X262953395Y-103590418D01*
X262963278Y-103562577D01*
X262976810Y-103534955D01*
X262980019Y-103529091D01*
X263022692Y-103471977D01*
X263072635Y-103432064D01*
X263132848Y-103411106D01*
X263212580Y-103401777D01*
X263292427Y-103406830D01*
X263357388Y-103426555D01*
X263406690Y-103452050D01*
X263406690Y-102900281D01*
X263339137Y-102935492D01*
X263310919Y-102948284D01*
X263221850Y-102966373D01*
X263133334Y-102953871D01*
X263051281Y-102912302D01*
X262981604Y-102843193D01*
X262970689Y-102826950D01*
X262960198Y-102803140D01*
X262953355Y-102770768D01*
X262949404Y-102723621D01*
X262947588Y-102655485D01*
X262947262Y-102584492D01*
X263123791Y-102584492D01*
X263123940Y-102643781D01*
X263128473Y-102683319D01*
X263138660Y-102711539D01*
X263155772Y-102736869D01*
X263177510Y-102760419D01*
X263212272Y-102778242D01*
X263264650Y-102782771D01*
X263310920Y-102778830D01*
X263356717Y-102759109D01*
X263386212Y-102719159D01*
X263402004Y-102654950D01*
X263406690Y-102562451D01*
X263405478Y-102513244D01*
X263393381Y-102420356D01*
X263368423Y-102357546D01*
X263330744Y-102325256D01*
X263292689Y-102316172D01*
X263226413Y-102320431D01*
X263170416Y-102346802D01*
X263157014Y-102358895D01*
X263142813Y-102379817D01*
X263134033Y-102410961D01*
X263128819Y-102460060D01*
X263125316Y-102534848D01*
X263123791Y-102584492D01*
X262947262Y-102584492D01*
X262947150Y-102560147D01*
X262947300Y-102516646D01*
X262949862Y-102415461D01*
X262956997Y-102339872D01*
X262970506Y-102284167D01*
X262992194Y-102242633D01*
X263023860Y-102209556D01*
X263067308Y-102179224D01*
X263102540Y-102161818D01*
X263186073Y-102142621D01*
X263274122Y-102145237D01*
X263352381Y-102170122D01*
X263385967Y-102186389D01*
X263402860Y-102188070D01*
X263406690Y-102173266D01*
X263406694Y-102172818D01*
X263414948Y-102157701D01*
X263443417Y-102149953D01*
X263498598Y-102147771D01*
X263590506Y-102147771D01*
X263590506Y-104221623D01*
X263502775Y-104216572D01*
X262405443Y-103407534D02*
X262326830Y-103428510D01*
X262326830Y-103428510D02*
X262266984Y-103466530D01*
X262266984Y-103466530D02*
X262224753Y-103516328D01*
X262224753Y-103516328D02*
X262211625Y-103537580D01*
X262211625Y-103537580D02*
X262201932Y-103559842D01*
X262201932Y-103559842D02*
X262195156Y-103588320D01*
X262195156Y-103588320D02*
X262190777Y-103628221D01*
X262190777Y-103628221D02*
X262188276Y-103684751D01*
X262188276Y-103684751D02*
X262187132Y-103763117D01*
X262187132Y-103763117D02*
X262186828Y-103868526D01*
X262186828Y-103868526D02*
X262186822Y-103896492D01*
X262186822Y-103896492D02*
X262186822Y-104219876D01*
X262186822Y-104219876D02*
X262267032Y-104219876D01*
X262267032Y-104219876D02*
X262318194Y-104216293D01*
X262318194Y-104216293D02*
X262356023Y-104207216D01*
X262356023Y-104207216D02*
X262365501Y-104201618D01*
X262365501Y-104201618D02*
X262391412Y-104191956D01*
X262391412Y-104191956D02*
X262417876Y-104201618D01*
X262417876Y-104201618D02*
X262461448Y-104213680D01*
X262461448Y-104213680D02*
X262524740Y-104218535D01*
X262524740Y-104218535D02*
X262594890Y-104216428D01*
X262594890Y-104216428D02*
X262659040Y-104207606D01*
X262659040Y-104207606D02*
X262696493Y-104196287D01*
X262696493Y-104196287D02*
X262768967Y-104149762D01*
X262768967Y-104149762D02*
X262814260Y-104085196D01*
X262814260Y-104085196D02*
X262834622Y-103999350D01*
X262834622Y-103999350D02*
X262834812Y-103997146D01*
X262834812Y-103997146D02*
X262833025Y-103959063D01*
X262833025Y-103959063D02*
X262671427Y-103959063D01*
X262671427Y-103959063D02*
X262657299Y-104002380D01*
X262657299Y-104002380D02*
X262634288Y-104026758D01*
X262634288Y-104026758D02*
X262588096Y-104045195D01*
X262588096Y-104045195D02*
X262527125Y-104052555D01*
X262527125Y-104052555D02*
X262464951Y-104048933D01*
X262464951Y-104048933D02*
X262415149Y-104034424D01*
X262415149Y-104034424D02*
X262401197Y-104025115D01*
X262401197Y-104025115D02*
X262376815Y-103982103D01*
X262376815Y-103982103D02*
X262370637Y-103933207D01*
X262370637Y-103933207D02*
X262370637Y-103868955D01*
X262370637Y-103868955D02*
X262463082Y-103868955D01*
X262463082Y-103868955D02*
X262550905Y-103875716D01*
X262550905Y-103875716D02*
X262617482Y-103894870D01*
X262617482Y-103894870D02*
X262658898Y-103924726D01*
X262658898Y-103924726D02*
X262671427Y-103959063D01*
X262671427Y-103959063D02*
X262833025Y-103959063D01*
X262833025Y-103959063D02*
X262830410Y-103903354D01*
X262830410Y-103903354D02*
X262799476Y-103829197D01*
X262799476Y-103829197D02*
X262741319Y-103773117D01*
X262741319Y-103773117D02*
X262733280Y-103768015D01*
X262733280Y-103768015D02*
X262698737Y-103751405D01*
X262698737Y-103751405D02*
X262655982Y-103741346D01*
X262655982Y-103741346D02*
X262596214Y-103736457D01*
X262596214Y-103736457D02*
X262525210Y-103735333D01*
X262525210Y-103735333D02*
X262370637Y-103735271D01*
X262370637Y-103735271D02*
X262370637Y-103670475D01*
X262370637Y-103670475D02*
X262377194Y-103620200D01*
X262377194Y-103620200D02*
X262393925Y-103586519D01*
X262393925Y-103586519D02*
X262395884Y-103584726D01*
X262395884Y-103584726D02*
X262433117Y-103569992D01*
X262433117Y-103569992D02*
X262489320Y-103564281D01*
X262489320Y-103564281D02*
X262551433Y-103567087D01*
X262551433Y-103567087D02*
X262606390Y-103577906D01*
X262606390Y-103577906D02*
X262639001Y-103594132D01*
X262639001Y-103594132D02*
X262656672Y-103607130D01*
X262656672Y-103607130D02*
X262675331Y-103609612D01*
X262675331Y-103609612D02*
X262701081Y-103598963D01*
X262701081Y-103598963D02*
X262740027Y-103572568D01*
X262740027Y-103572568D02*
X262798270Y-103527815D01*
X262798270Y-103527815D02*
X262803616Y-103523623D01*
X262803616Y-103523623D02*
X262800877Y-103508110D01*
X262800877Y-103508110D02*
X262778024Y-103482310D01*
X262778024Y-103482310D02*
X262743291Y-103453639D01*
X262743291Y-103453639D02*
X262704910Y-103429516D01*
X262704910Y-103429516D02*
X262692852Y-103423820D01*
X262692852Y-103423820D02*
X262648866Y-103412453D01*
X262648866Y-103412453D02*
X262584413Y-103404345D01*
X262584413Y-103404345D02*
X262512403Y-103401093D01*
X262512403Y-103401093D02*
X262509036Y-103401086D01*
X262509036Y-103401086D02*
X262405443Y-103407534D01*
X262405443Y-103407534D02*
X262405443Y-103407534D01*
G36*
X262834622Y-103999350D02*
G01*
X262814260Y-104085196D01*
X262768967Y-104149762D01*
X262696493Y-104196287D01*
X262659040Y-104207606D01*
X262594890Y-104216428D01*
X262524740Y-104218535D01*
X262461448Y-104213680D01*
X262417876Y-104201618D01*
X262391412Y-104191956D01*
X262365501Y-104201618D01*
X262356023Y-104207216D01*
X262318194Y-104216293D01*
X262267032Y-104219876D01*
X262186822Y-104219876D01*
X262186822Y-103933207D01*
X262370637Y-103933207D01*
X262376815Y-103982103D01*
X262401197Y-104025115D01*
X262415149Y-104034424D01*
X262464951Y-104048933D01*
X262527125Y-104052555D01*
X262588096Y-104045195D01*
X262634288Y-104026758D01*
X262657299Y-104002380D01*
X262671427Y-103959063D01*
X262658898Y-103924726D01*
X262617482Y-103894870D01*
X262550905Y-103875716D01*
X262463082Y-103868955D01*
X262370637Y-103868955D01*
X262370637Y-103933207D01*
X262186822Y-103933207D01*
X262186822Y-103896492D01*
X262186828Y-103868526D01*
X262187132Y-103763117D01*
X262188276Y-103684751D01*
X262190777Y-103628221D01*
X262195156Y-103588320D01*
X262201932Y-103559842D01*
X262211625Y-103537580D01*
X262224753Y-103516328D01*
X262266984Y-103466530D01*
X262326830Y-103428510D01*
X262405443Y-103407534D01*
X262509036Y-103401086D01*
X262512403Y-103401093D01*
X262584413Y-103404345D01*
X262648866Y-103412453D01*
X262692852Y-103423820D01*
X262704910Y-103429516D01*
X262743291Y-103453639D01*
X262778024Y-103482310D01*
X262800877Y-103508110D01*
X262803616Y-103523623D01*
X262798270Y-103527815D01*
X262740027Y-103572568D01*
X262701081Y-103598963D01*
X262675331Y-103609612D01*
X262656672Y-103607130D01*
X262639001Y-103594132D01*
X262606390Y-103577906D01*
X262551433Y-103567087D01*
X262489320Y-103564281D01*
X262433117Y-103569992D01*
X262395884Y-103584726D01*
X262393925Y-103586519D01*
X262377194Y-103620200D01*
X262370637Y-103670475D01*
X262370637Y-103735271D01*
X262525210Y-103735333D01*
X262596214Y-103736457D01*
X262655982Y-103741346D01*
X262698737Y-103751405D01*
X262733280Y-103768015D01*
X262741319Y-103773117D01*
X262799476Y-103829197D01*
X262830410Y-103903354D01*
X262833025Y-103959063D01*
X262834812Y-103997146D01*
X262834622Y-103999350D01*
G37*
X262834622Y-103999350D02*
X262814260Y-104085196D01*
X262768967Y-104149762D01*
X262696493Y-104196287D01*
X262659040Y-104207606D01*
X262594890Y-104216428D01*
X262524740Y-104218535D01*
X262461448Y-104213680D01*
X262417876Y-104201618D01*
X262391412Y-104191956D01*
X262365501Y-104201618D01*
X262356023Y-104207216D01*
X262318194Y-104216293D01*
X262267032Y-104219876D01*
X262186822Y-104219876D01*
X262186822Y-103933207D01*
X262370637Y-103933207D01*
X262376815Y-103982103D01*
X262401197Y-104025115D01*
X262415149Y-104034424D01*
X262464951Y-104048933D01*
X262527125Y-104052555D01*
X262588096Y-104045195D01*
X262634288Y-104026758D01*
X262657299Y-104002380D01*
X262671427Y-103959063D01*
X262658898Y-103924726D01*
X262617482Y-103894870D01*
X262550905Y-103875716D01*
X262463082Y-103868955D01*
X262370637Y-103868955D01*
X262370637Y-103933207D01*
X262186822Y-103933207D01*
X262186822Y-103896492D01*
X262186828Y-103868526D01*
X262187132Y-103763117D01*
X262188276Y-103684751D01*
X262190777Y-103628221D01*
X262195156Y-103588320D01*
X262201932Y-103559842D01*
X262211625Y-103537580D01*
X262224753Y-103516328D01*
X262266984Y-103466530D01*
X262326830Y-103428510D01*
X262405443Y-103407534D01*
X262509036Y-103401086D01*
X262512403Y-103401093D01*
X262584413Y-103404345D01*
X262648866Y-103412453D01*
X262692852Y-103423820D01*
X262704910Y-103429516D01*
X262743291Y-103453639D01*
X262778024Y-103482310D01*
X262800877Y-103508110D01*
X262803616Y-103523623D01*
X262798270Y-103527815D01*
X262740027Y-103572568D01*
X262701081Y-103598963D01*
X262675331Y-103609612D01*
X262656672Y-103607130D01*
X262639001Y-103594132D01*
X262606390Y-103577906D01*
X262551433Y-103567087D01*
X262489320Y-103564281D01*
X262433117Y-103569992D01*
X262395884Y-103584726D01*
X262393925Y-103586519D01*
X262377194Y-103620200D01*
X262370637Y-103670475D01*
X262370637Y-103735271D01*
X262525210Y-103735333D01*
X262596214Y-103736457D01*
X262655982Y-103741346D01*
X262698737Y-103751405D01*
X262733280Y-103768015D01*
X262741319Y-103773117D01*
X262799476Y-103829197D01*
X262830410Y-103903354D01*
X262833025Y-103959063D01*
X262834812Y-103997146D01*
X262834622Y-103999350D01*
X261886019Y-103402836D02*
X261861012Y-103410332D01*
X261861012Y-103410332D02*
X261852950Y-103426801D01*
X261852950Y-103426801D02*
X261852611Y-103434236D01*
X261852611Y-103434236D02*
X261851164Y-103454944D01*
X261851164Y-103454944D02*
X261841202Y-103458195D01*
X261841202Y-103458195D02*
X261814288Y-103443998D01*
X261814288Y-103443998D02*
X261798302Y-103434298D01*
X261798302Y-103434298D02*
X261747867Y-103413525D01*
X261747867Y-103413525D02*
X261687628Y-103403254D01*
X261687628Y-103403254D02*
X261624466Y-103402464D01*
X261624466Y-103402464D02*
X261565263Y-103410136D01*
X261565263Y-103410136D02*
X261516898Y-103425248D01*
X261516898Y-103425248D02*
X261486254Y-103446782D01*
X261486254Y-103446782D02*
X261480211Y-103473716D01*
X261480211Y-103473716D02*
X261483261Y-103481010D01*
X261483261Y-103481010D02*
X261505494Y-103511287D01*
X261505494Y-103511287D02*
X261539970Y-103548525D01*
X261539970Y-103548525D02*
X261546206Y-103554545D01*
X261546206Y-103554545D02*
X261579067Y-103582225D01*
X261579067Y-103582225D02*
X261607420Y-103591168D01*
X261607420Y-103591168D02*
X261647073Y-103584926D01*
X261647073Y-103584926D02*
X261662958Y-103580779D01*
X261662958Y-103580779D02*
X261712391Y-103570817D01*
X261712391Y-103570817D02*
X261747148Y-103575297D01*
X261747148Y-103575297D02*
X261776500Y-103591096D01*
X261776500Y-103591096D02*
X261803387Y-103612299D01*
X261803387Y-103612299D02*
X261823190Y-103638964D01*
X261823190Y-103638964D02*
X261836952Y-103676177D01*
X261836952Y-103676177D02*
X261845716Y-103729023D01*
X261845716Y-103729023D02*
X261850526Y-103802587D01*
X261850526Y-103802587D02*
X261852426Y-103901955D01*
X261852426Y-103901955D02*
X261852611Y-103961951D01*
X261852611Y-103961951D02*
X261852611Y-104219876D01*
X261852611Y-104219876D02*
X262019716Y-104219876D01*
X262019716Y-104219876D02*
X262019716Y-103401060D01*
X262019716Y-103401060D02*
X261936164Y-103401060D01*
X261936164Y-103401060D02*
X261886019Y-103402836D01*
X261886019Y-103402836D02*
X261886019Y-103402836D01*
G36*
X262019716Y-104219876D02*
G01*
X261852611Y-104219876D01*
X261852611Y-103961951D01*
X261852426Y-103901955D01*
X261850526Y-103802587D01*
X261845716Y-103729023D01*
X261836952Y-103676177D01*
X261823190Y-103638964D01*
X261803387Y-103612299D01*
X261776500Y-103591096D01*
X261747148Y-103575297D01*
X261712391Y-103570817D01*
X261662958Y-103580779D01*
X261647073Y-103584926D01*
X261607420Y-103591168D01*
X261579067Y-103582225D01*
X261546206Y-103554545D01*
X261539970Y-103548525D01*
X261505494Y-103511287D01*
X261483261Y-103481010D01*
X261480211Y-103473716D01*
X261486254Y-103446782D01*
X261516898Y-103425248D01*
X261565263Y-103410136D01*
X261624466Y-103402464D01*
X261687628Y-103403254D01*
X261747867Y-103413525D01*
X261798302Y-103434298D01*
X261814288Y-103443998D01*
X261841202Y-103458195D01*
X261851164Y-103454944D01*
X261852611Y-103434236D01*
X261852950Y-103426801D01*
X261861012Y-103410332D01*
X261886019Y-103402836D01*
X261936164Y-103401060D01*
X262019716Y-103401060D01*
X262019716Y-104219876D01*
G37*
X262019716Y-104219876D02*
X261852611Y-104219876D01*
X261852611Y-103961951D01*
X261852426Y-103901955D01*
X261850526Y-103802587D01*
X261845716Y-103729023D01*
X261836952Y-103676177D01*
X261823190Y-103638964D01*
X261803387Y-103612299D01*
X261776500Y-103591096D01*
X261747148Y-103575297D01*
X261712391Y-103570817D01*
X261662958Y-103580779D01*
X261647073Y-103584926D01*
X261607420Y-103591168D01*
X261579067Y-103582225D01*
X261546206Y-103554545D01*
X261539970Y-103548525D01*
X261505494Y-103511287D01*
X261483261Y-103481010D01*
X261480211Y-103473716D01*
X261486254Y-103446782D01*
X261516898Y-103425248D01*
X261565263Y-103410136D01*
X261624466Y-103402464D01*
X261687628Y-103403254D01*
X261747867Y-103413525D01*
X261798302Y-103434298D01*
X261814288Y-103443998D01*
X261841202Y-103458195D01*
X261851164Y-103454944D01*
X261852611Y-103434236D01*
X261852950Y-103426801D01*
X261861012Y-103410332D01*
X261886019Y-103402836D01*
X261936164Y-103401060D01*
X262019716Y-103401060D01*
X262019716Y-104219876D01*
X260833269Y-104219876D02*
X260925177Y-104219876D01*
X260925177Y-104219876D02*
X260978523Y-104218312D01*
X260978523Y-104218312D02*
X261006307Y-104211835D01*
X261006307Y-104211835D02*
X261016310Y-104197768D01*
X261016310Y-104197768D02*
X261017085Y-104188256D01*
X261017085Y-104188256D02*
X261018772Y-104169182D01*
X261018772Y-104169182D02*
X261029410Y-104165524D01*
X261029410Y-104165524D02*
X261057365Y-104177282D01*
X261057365Y-104177282D02*
X261079105Y-104188256D01*
X261079105Y-104188256D02*
X261162568Y-104214261D01*
X261162568Y-104214261D02*
X261253296Y-104215766D01*
X261253296Y-104215766D02*
X261327058Y-104196371D01*
X261327058Y-104196371D02*
X261395746Y-104149515D01*
X261395746Y-104149515D02*
X261448106Y-104080354D01*
X261448106Y-104080354D02*
X261476778Y-103998777D01*
X261476778Y-103998777D02*
X261477508Y-103994216D01*
X261477508Y-103994216D02*
X261481768Y-103944451D01*
X261481768Y-103944451D02*
X261483886Y-103873009D01*
X261483886Y-103873009D02*
X261483716Y-103818976D01*
X261483716Y-103818976D02*
X261301180Y-103818976D01*
X261301180Y-103818976D02*
X261296951Y-103890791D01*
X261296951Y-103890791D02*
X261287332Y-103949984D01*
X261287332Y-103949984D02*
X261274310Y-103983410D01*
X261274310Y-103983410D02*
X261225044Y-104029090D01*
X261225044Y-104029090D02*
X261166550Y-104045465D01*
X261166550Y-104045465D02*
X261106229Y-104032223D01*
X261106229Y-104032223D02*
X261054683Y-103992723D01*
X261054683Y-103992723D02*
X261035162Y-103966157D01*
X261035162Y-103966157D02*
X261023748Y-103934456D01*
X261023748Y-103934456D02*
X261018402Y-103888182D01*
X261018402Y-103888182D02*
X261017085Y-103818678D01*
X261017085Y-103818678D02*
X261019442Y-103749849D01*
X261019442Y-103749849D02*
X261025667Y-103689376D01*
X261025667Y-103689376D02*
X261034492Y-103648906D01*
X261034492Y-103648906D02*
X261035963Y-103645279D01*
X261035963Y-103645279D02*
X261071553Y-103602152D01*
X261071553Y-103602152D02*
X261123500Y-103578474D01*
X261123500Y-103578474D02*
X261181622Y-103574651D01*
X261181622Y-103574651D02*
X261235740Y-103591088D01*
X261235740Y-103591088D02*
X261275674Y-103628190D01*
X261275674Y-103628190D02*
X261279817Y-103635572D01*
X261279817Y-103635572D02*
X261292784Y-103680589D01*
X261292784Y-103680589D02*
X261299848Y-103745317D01*
X261299848Y-103745317D02*
X261301180Y-103818976D01*
X261301180Y-103818976D02*
X261483716Y-103818976D01*
X261483716Y-103818976D02*
X261483629Y-103791580D01*
X261483629Y-103791580D02*
X261482428Y-103747755D01*
X261482428Y-103747755D02*
X261474255Y-103639338D01*
X261474255Y-103639338D02*
X261457270Y-103557938D01*
X261457270Y-103557938D02*
X261429013Y-103497762D01*
X261429013Y-103497762D02*
X261387028Y-103453016D01*
X261387028Y-103453016D02*
X261346268Y-103426750D01*
X261346268Y-103426750D02*
X261289319Y-103408285D01*
X261289319Y-103408285D02*
X261218489Y-103401952D01*
X261218489Y-103401952D02*
X261145959Y-103407110D01*
X261145959Y-103407110D02*
X261083914Y-103423119D01*
X261083914Y-103423119D02*
X261051132Y-103442270D01*
X261051132Y-103442270D02*
X261017085Y-103473082D01*
X261017085Y-103473082D02*
X261017085Y-103083560D01*
X261017085Y-103083560D02*
X260833269Y-103083560D01*
X260833269Y-103083560D02*
X260833269Y-104219876D01*
X260833269Y-104219876D02*
X260833269Y-104219876D01*
G36*
X261481768Y-103944451D02*
G01*
X261477508Y-103994216D01*
X261476778Y-103998777D01*
X261448106Y-104080354D01*
X261395746Y-104149515D01*
X261327058Y-104196371D01*
X261253296Y-104215766D01*
X261162568Y-104214261D01*
X261079105Y-104188256D01*
X261057365Y-104177282D01*
X261029410Y-104165524D01*
X261018772Y-104169182D01*
X261017085Y-104188256D01*
X261016310Y-104197768D01*
X261006307Y-104211835D01*
X260978523Y-104218312D01*
X260925177Y-104219876D01*
X260833269Y-104219876D01*
X260833269Y-103818678D01*
X261017085Y-103818678D01*
X261018402Y-103888182D01*
X261023748Y-103934456D01*
X261035162Y-103966157D01*
X261054683Y-103992723D01*
X261106229Y-104032223D01*
X261166550Y-104045465D01*
X261225044Y-104029090D01*
X261274310Y-103983410D01*
X261287332Y-103949984D01*
X261296951Y-103890791D01*
X261301180Y-103818976D01*
X261299848Y-103745317D01*
X261292784Y-103680589D01*
X261279817Y-103635572D01*
X261275674Y-103628190D01*
X261235740Y-103591088D01*
X261181622Y-103574651D01*
X261123500Y-103578474D01*
X261071553Y-103602152D01*
X261035963Y-103645279D01*
X261034492Y-103648906D01*
X261025667Y-103689376D01*
X261019442Y-103749849D01*
X261017085Y-103818678D01*
X260833269Y-103818678D01*
X260833269Y-103083560D01*
X261017085Y-103083560D01*
X261017085Y-103473082D01*
X261051132Y-103442270D01*
X261083914Y-103423119D01*
X261145959Y-103407110D01*
X261218489Y-103401952D01*
X261289319Y-103408285D01*
X261346268Y-103426750D01*
X261387028Y-103453016D01*
X261429013Y-103497762D01*
X261457270Y-103557938D01*
X261474255Y-103639338D01*
X261482428Y-103747755D01*
X261483629Y-103791580D01*
X261483716Y-103818976D01*
X261483886Y-103873009D01*
X261481768Y-103944451D01*
G37*
X261481768Y-103944451D02*
X261477508Y-103994216D01*
X261476778Y-103998777D01*
X261448106Y-104080354D01*
X261395746Y-104149515D01*
X261327058Y-104196371D01*
X261253296Y-104215766D01*
X261162568Y-104214261D01*
X261079105Y-104188256D01*
X261057365Y-104177282D01*
X261029410Y-104165524D01*
X261018772Y-104169182D01*
X261017085Y-104188256D01*
X261016310Y-104197768D01*
X261006307Y-104211835D01*
X260978523Y-104218312D01*
X260925177Y-104219876D01*
X260833269Y-104219876D01*
X260833269Y-103818678D01*
X261017085Y-103818678D01*
X261018402Y-103888182D01*
X261023748Y-103934456D01*
X261035162Y-103966157D01*
X261054683Y-103992723D01*
X261106229Y-104032223D01*
X261166550Y-104045465D01*
X261225044Y-104029090D01*
X261274310Y-103983410D01*
X261287332Y-103949984D01*
X261296951Y-103890791D01*
X261301180Y-103818976D01*
X261299848Y-103745317D01*
X261292784Y-103680589D01*
X261279817Y-103635572D01*
X261275674Y-103628190D01*
X261235740Y-103591088D01*
X261181622Y-103574651D01*
X261123500Y-103578474D01*
X261071553Y-103602152D01*
X261035963Y-103645279D01*
X261034492Y-103648906D01*
X261025667Y-103689376D01*
X261019442Y-103749849D01*
X261017085Y-103818678D01*
X260833269Y-103818678D01*
X260833269Y-103083560D01*
X261017085Y-103083560D01*
X261017085Y-103473082D01*
X261051132Y-103442270D01*
X261083914Y-103423119D01*
X261145959Y-103407110D01*
X261218489Y-103401952D01*
X261289319Y-103408285D01*
X261346268Y-103426750D01*
X261387028Y-103453016D01*
X261429013Y-103497762D01*
X261457270Y-103557938D01*
X261474255Y-103639338D01*
X261482428Y-103747755D01*
X261483629Y-103791580D01*
X261483716Y-103818976D01*
X261483886Y-103873009D01*
X261481768Y-103944451D01*
X260191770Y-103404454D02*
X260125680Y-103409416D01*
X260125680Y-103409416D02*
X260039274Y-103668429D01*
X260039274Y-103668429D02*
X259952869Y-103927442D01*
X259952869Y-103927442D02*
X259925776Y-103835534D01*
X259925776Y-103835534D02*
X259909472Y-103778734D01*
X259909472Y-103778734D02*
X259888025Y-103701975D01*
X259888025Y-103701975D02*
X259864865Y-103617601D01*
X259864865Y-103617601D02*
X259852620Y-103572343D01*
X259852620Y-103572343D02*
X259806556Y-103401060D01*
X259806556Y-103401060D02*
X259616513Y-103401060D01*
X259616513Y-103401060D02*
X259673318Y-103580699D01*
X259673318Y-103580699D02*
X259701293Y-103669054D01*
X259701293Y-103669054D02*
X259735087Y-103775631D01*
X259735087Y-103775631D02*
X259770380Y-103886804D01*
X259770380Y-103886804D02*
X259801887Y-103985929D01*
X259801887Y-103985929D02*
X259873650Y-104211521D01*
X259873650Y-104211521D02*
X260028614Y-104221603D01*
X260028614Y-104221603D02*
X260070630Y-104082878D01*
X260070630Y-104082878D02*
X260096541Y-103996701D01*
X260096541Y-103996701D02*
X260124817Y-103901697D01*
X260124817Y-103901697D02*
X260149531Y-103817791D01*
X260149531Y-103817791D02*
X260150506Y-103814452D01*
X260150506Y-103814452D02*
X260168965Y-103757598D01*
X260168965Y-103757598D02*
X260185251Y-103718806D01*
X260185251Y-103718806D02*
X260196658Y-103704137D01*
X260196658Y-103704137D02*
X260199002Y-103705833D01*
X260199002Y-103705833D02*
X260207229Y-103728575D01*
X260207229Y-103728575D02*
X260222862Y-103777290D01*
X260222862Y-103777290D02*
X260243996Y-103845852D01*
X260243996Y-103845852D02*
X260268730Y-103928135D01*
X260268730Y-103928135D02*
X260282113Y-103973396D01*
X260282113Y-103973396D02*
X260354589Y-104219876D01*
X260354589Y-104219876D02*
X260508405Y-104219876D01*
X260508405Y-104219876D02*
X260631369Y-103831356D01*
X260631369Y-103831356D02*
X260665912Y-103722372D01*
X260665912Y-103722372D02*
X260697379Y-103623398D01*
X260697379Y-103623398D02*
X260724284Y-103539086D01*
X260724284Y-103539086D02*
X260745141Y-103474084D01*
X260745141Y-103474084D02*
X260758462Y-103433042D01*
X260758462Y-103433042D02*
X260762512Y-103421051D01*
X260762512Y-103421051D02*
X260759306Y-103408773D01*
X260759306Y-103408773D02*
X260734135Y-103403396D01*
X260734135Y-103403396D02*
X260681754Y-103403934D01*
X260681754Y-103403934D02*
X260673555Y-103404340D01*
X260673555Y-103404340D02*
X260576418Y-103409416D01*
X260576418Y-103409416D02*
X260512800Y-103643363D01*
X260512800Y-103643363D02*
X260489416Y-103728683D01*
X260489416Y-103728683D02*
X260468519Y-103803685D01*
X260468519Y-103803685D02*
X260451949Y-103861857D01*
X260451949Y-103861857D02*
X260441546Y-103896687D01*
X260441546Y-103896687D02*
X260439624Y-103902366D01*
X260439624Y-103902366D02*
X260431659Y-103895836D01*
X260431659Y-103895836D02*
X260415596Y-103862004D01*
X260415596Y-103862004D02*
X260393279Y-103805477D01*
X260393279Y-103805477D02*
X260366555Y-103730860D01*
X260366555Y-103730860D02*
X260343963Y-103663457D01*
X260343963Y-103663457D02*
X260257859Y-103399493D01*
X260257859Y-103399493D02*
X260191770Y-103404454D01*
X260191770Y-103404454D02*
X260191770Y-103404454D01*
G36*
X260343963Y-103663457D02*
G01*
X260366555Y-103730860D01*
X260393279Y-103805477D01*
X260415596Y-103862004D01*
X260431659Y-103895836D01*
X260439624Y-103902366D01*
X260441546Y-103896687D01*
X260451949Y-103861857D01*
X260468519Y-103803685D01*
X260489416Y-103728683D01*
X260512800Y-103643363D01*
X260576418Y-103409416D01*
X260673555Y-103404340D01*
X260681754Y-103403934D01*
X260734135Y-103403396D01*
X260759306Y-103408773D01*
X260762512Y-103421051D01*
X260758462Y-103433042D01*
X260745141Y-103474084D01*
X260724284Y-103539086D01*
X260697379Y-103623398D01*
X260665912Y-103722372D01*
X260631369Y-103831356D01*
X260508405Y-104219876D01*
X260354589Y-104219876D01*
X260282113Y-103973396D01*
X260268730Y-103928135D01*
X260243996Y-103845852D01*
X260222862Y-103777290D01*
X260207229Y-103728575D01*
X260199002Y-103705833D01*
X260196658Y-103704137D01*
X260185251Y-103718806D01*
X260168965Y-103757598D01*
X260150506Y-103814452D01*
X260149531Y-103817791D01*
X260124817Y-103901697D01*
X260096541Y-103996701D01*
X260070630Y-104082878D01*
X260028614Y-104221603D01*
X259873650Y-104211521D01*
X259801887Y-103985929D01*
X259770380Y-103886804D01*
X259735087Y-103775631D01*
X259701293Y-103669054D01*
X259673318Y-103580699D01*
X259616513Y-103401060D01*
X259806556Y-103401060D01*
X259852620Y-103572343D01*
X259864865Y-103617601D01*
X259888025Y-103701975D01*
X259909472Y-103778734D01*
X259925776Y-103835534D01*
X259952869Y-103927442D01*
X260039274Y-103668429D01*
X260125680Y-103409416D01*
X260191770Y-103404454D01*
X260257859Y-103399493D01*
X260343963Y-103663457D01*
G37*
X260343963Y-103663457D02*
X260366555Y-103730860D01*
X260393279Y-103805477D01*
X260415596Y-103862004D01*
X260431659Y-103895836D01*
X260439624Y-103902366D01*
X260441546Y-103896687D01*
X260451949Y-103861857D01*
X260468519Y-103803685D01*
X260489416Y-103728683D01*
X260512800Y-103643363D01*
X260576418Y-103409416D01*
X260673555Y-103404340D01*
X260681754Y-103403934D01*
X260734135Y-103403396D01*
X260759306Y-103408773D01*
X260762512Y-103421051D01*
X260758462Y-103433042D01*
X260745141Y-103474084D01*
X260724284Y-103539086D01*
X260697379Y-103623398D01*
X260665912Y-103722372D01*
X260631369Y-103831356D01*
X260508405Y-104219876D01*
X260354589Y-104219876D01*
X260282113Y-103973396D01*
X260268730Y-103928135D01*
X260243996Y-103845852D01*
X260222862Y-103777290D01*
X260207229Y-103728575D01*
X260199002Y-103705833D01*
X260196658Y-103704137D01*
X260185251Y-103718806D01*
X260168965Y-103757598D01*
X260150506Y-103814452D01*
X260149531Y-103817791D01*
X260124817Y-103901697D01*
X260096541Y-103996701D01*
X260070630Y-104082878D01*
X260028614Y-104221603D01*
X259873650Y-104211521D01*
X259801887Y-103985929D01*
X259770380Y-103886804D01*
X259735087Y-103775631D01*
X259701293Y-103669054D01*
X259673318Y-103580699D01*
X259616513Y-103401060D01*
X259806556Y-103401060D01*
X259852620Y-103572343D01*
X259864865Y-103617601D01*
X259888025Y-103701975D01*
X259909472Y-103778734D01*
X259925776Y-103835534D01*
X259952869Y-103927442D01*
X260039274Y-103668429D01*
X260125680Y-103409416D01*
X260191770Y-103404454D01*
X260257859Y-103399493D01*
X260343963Y-103663457D01*
X259185908Y-103406023D02*
X259115473Y-103423130D01*
X259115473Y-103423130D02*
X259095113Y-103432194D01*
X259095113Y-103432194D02*
X259055647Y-103455933D01*
X259055647Y-103455933D02*
X259025359Y-103482671D01*
X259025359Y-103482671D02*
X259002948Y-103517049D01*
X259002948Y-103517049D02*
X258987114Y-103563710D01*
X258987114Y-103563710D02*
X258976557Y-103627296D01*
X258976557Y-103627296D02*
X258969976Y-103712449D01*
X258969976Y-103712449D02*
X258966072Y-103823812D01*
X258966072Y-103823812D02*
X258964590Y-103898199D01*
X258964590Y-103898199D02*
X258959135Y-104219876D01*
X258959135Y-104219876D02*
X259052320Y-104219876D01*
X259052320Y-104219876D02*
X259108853Y-104217506D01*
X259108853Y-104217506D02*
X259137978Y-104209405D01*
X259137978Y-104209405D02*
X259145506Y-104195801D01*
X259145506Y-104195801D02*
X259149480Y-104181091D01*
X259149480Y-104181091D02*
X259167248Y-104183904D01*
X259167248Y-104183904D02*
X259191460Y-104195698D01*
X259191460Y-104195698D02*
X259252072Y-104213777D01*
X259252072Y-104213777D02*
X259329971Y-104218649D01*
X259329971Y-104218649D02*
X259411905Y-104210680D01*
X259411905Y-104210680D02*
X259484619Y-104190239D01*
X259484619Y-104190239D02*
X259491141Y-104187401D01*
X259491141Y-104187401D02*
X259557598Y-104140715D01*
X259557598Y-104140715D02*
X259601409Y-104075814D01*
X259601409Y-104075814D02*
X259621568Y-103999950D01*
X259621568Y-103999950D02*
X259620028Y-103972694D01*
X259620028Y-103972694D02*
X259455555Y-103972694D01*
X259455555Y-103972694D02*
X259441063Y-104009374D01*
X259441063Y-104009374D02*
X259398095Y-104035659D01*
X259398095Y-104035659D02*
X259328771Y-104049767D01*
X259328771Y-104049767D02*
X259291723Y-104051640D01*
X259291723Y-104051640D02*
X259229981Y-104046844D01*
X259229981Y-104046844D02*
X259188940Y-104028208D01*
X259188940Y-104028208D02*
X259178927Y-104019350D01*
X259178927Y-104019350D02*
X259151800Y-103971156D01*
X259151800Y-103971156D02*
X259145506Y-103927442D01*
X259145506Y-103927442D02*
X259145506Y-103868955D01*
X259145506Y-103868955D02*
X259226970Y-103868955D01*
X259226970Y-103868955D02*
X259321666Y-103873782D01*
X259321666Y-103873782D02*
X259388087Y-103888963D01*
X259388087Y-103888963D02*
X259430054Y-103915550D01*
X259430054Y-103915550D02*
X259439451Y-103927402D01*
X259439451Y-103927402D02*
X259455555Y-103972694D01*
X259455555Y-103972694D02*
X259620028Y-103972694D01*
X259620028Y-103972694D02*
X259617071Y-103920376D01*
X259617071Y-103920376D02*
X259586915Y-103844345D01*
X259586915Y-103844345D02*
X259545769Y-103792962D01*
X259545769Y-103792962D02*
X259520848Y-103770747D01*
X259520848Y-103770747D02*
X259496452Y-103756148D01*
X259496452Y-103756148D02*
X259464709Y-103747247D01*
X259464709Y-103747247D02*
X259417748Y-103742125D01*
X259417748Y-103742125D02*
X259347696Y-103738865D01*
X259347696Y-103738865D02*
X259319910Y-103737927D01*
X259319910Y-103737927D02*
X259145506Y-103732229D01*
X259145506Y-103732229D02*
X259145762Y-103679441D01*
X259145762Y-103679441D02*
X259152516Y-103623953D01*
X259152516Y-103623953D02*
X259176936Y-103590402D01*
X259176936Y-103590402D02*
X259226270Y-103568968D01*
X259226270Y-103568968D02*
X259227594Y-103568586D01*
X259227594Y-103568586D02*
X259297540Y-103560158D01*
X259297540Y-103560158D02*
X259365986Y-103571166D01*
X259365986Y-103571166D02*
X259416853Y-103597935D01*
X259416853Y-103597935D02*
X259437263Y-103611153D01*
X259437263Y-103611153D02*
X259459246Y-103609324D01*
X259459246Y-103609324D02*
X259493074Y-103590174D01*
X259493074Y-103590174D02*
X259512939Y-103576658D01*
X259512939Y-103576658D02*
X259551794Y-103547782D01*
X259551794Y-103547782D02*
X259575862Y-103526136D01*
X259575862Y-103526136D02*
X259579724Y-103519939D01*
X259579724Y-103519939D02*
X259563821Y-103487869D01*
X259563821Y-103487869D02*
X259516835Y-103449569D01*
X259516835Y-103449569D02*
X259496427Y-103436647D01*
X259496427Y-103436647D02*
X259437757Y-103414391D01*
X259437757Y-103414391D02*
X259358688Y-103401782D01*
X259358688Y-103401782D02*
X259270859Y-103398950D01*
X259270859Y-103398950D02*
X259185908Y-103406023D01*
X259185908Y-103406023D02*
X259185908Y-103406023D01*
G36*
X259601409Y-104075814D02*
G01*
X259557598Y-104140715D01*
X259491141Y-104187401D01*
X259484619Y-104190239D01*
X259411905Y-104210680D01*
X259329971Y-104218649D01*
X259252072Y-104213777D01*
X259191460Y-104195698D01*
X259167248Y-104183904D01*
X259149480Y-104181091D01*
X259145506Y-104195801D01*
X259137978Y-104209405D01*
X259108853Y-104217506D01*
X259052320Y-104219876D01*
X258959135Y-104219876D01*
X258964094Y-103927442D01*
X259145506Y-103927442D01*
X259151800Y-103971156D01*
X259178927Y-104019350D01*
X259188940Y-104028208D01*
X259229981Y-104046844D01*
X259291723Y-104051640D01*
X259328771Y-104049767D01*
X259398095Y-104035659D01*
X259441063Y-104009374D01*
X259455555Y-103972694D01*
X259439451Y-103927402D01*
X259430054Y-103915550D01*
X259388087Y-103888963D01*
X259321666Y-103873782D01*
X259226970Y-103868955D01*
X259145506Y-103868955D01*
X259145506Y-103927442D01*
X258964094Y-103927442D01*
X258964590Y-103898199D01*
X258966072Y-103823812D01*
X258969976Y-103712449D01*
X258976557Y-103627296D01*
X258987114Y-103563710D01*
X259002948Y-103517049D01*
X259025359Y-103482671D01*
X259055647Y-103455933D01*
X259095113Y-103432194D01*
X259115473Y-103423130D01*
X259185908Y-103406023D01*
X259270859Y-103398950D01*
X259358688Y-103401782D01*
X259437757Y-103414391D01*
X259496427Y-103436647D01*
X259516835Y-103449569D01*
X259563821Y-103487869D01*
X259579724Y-103519939D01*
X259575862Y-103526136D01*
X259551794Y-103547782D01*
X259512939Y-103576658D01*
X259493074Y-103590174D01*
X259459246Y-103609324D01*
X259437263Y-103611153D01*
X259416853Y-103597935D01*
X259365986Y-103571166D01*
X259297540Y-103560158D01*
X259227594Y-103568586D01*
X259226270Y-103568968D01*
X259176936Y-103590402D01*
X259152516Y-103623953D01*
X259145762Y-103679441D01*
X259145506Y-103732229D01*
X259319910Y-103737927D01*
X259347696Y-103738865D01*
X259417748Y-103742125D01*
X259464709Y-103747247D01*
X259496452Y-103756148D01*
X259520848Y-103770747D01*
X259545769Y-103792962D01*
X259586915Y-103844345D01*
X259617071Y-103920376D01*
X259620028Y-103972694D01*
X259621568Y-103999950D01*
X259601409Y-104075814D01*
G37*
X259601409Y-104075814D02*
X259557598Y-104140715D01*
X259491141Y-104187401D01*
X259484619Y-104190239D01*
X259411905Y-104210680D01*
X259329971Y-104218649D01*
X259252072Y-104213777D01*
X259191460Y-104195698D01*
X259167248Y-104183904D01*
X259149480Y-104181091D01*
X259145506Y-104195801D01*
X259137978Y-104209405D01*
X259108853Y-104217506D01*
X259052320Y-104219876D01*
X258959135Y-104219876D01*
X258964094Y-103927442D01*
X259145506Y-103927442D01*
X259151800Y-103971156D01*
X259178927Y-104019350D01*
X259188940Y-104028208D01*
X259229981Y-104046844D01*
X259291723Y-104051640D01*
X259328771Y-104049767D01*
X259398095Y-104035659D01*
X259441063Y-104009374D01*
X259455555Y-103972694D01*
X259439451Y-103927402D01*
X259430054Y-103915550D01*
X259388087Y-103888963D01*
X259321666Y-103873782D01*
X259226970Y-103868955D01*
X259145506Y-103868955D01*
X259145506Y-103927442D01*
X258964094Y-103927442D01*
X258964590Y-103898199D01*
X258966072Y-103823812D01*
X258969976Y-103712449D01*
X258976557Y-103627296D01*
X258987114Y-103563710D01*
X259002948Y-103517049D01*
X259025359Y-103482671D01*
X259055647Y-103455933D01*
X259095113Y-103432194D01*
X259115473Y-103423130D01*
X259185908Y-103406023D01*
X259270859Y-103398950D01*
X259358688Y-103401782D01*
X259437757Y-103414391D01*
X259496427Y-103436647D01*
X259516835Y-103449569D01*
X259563821Y-103487869D01*
X259579724Y-103519939D01*
X259575862Y-103526136D01*
X259551794Y-103547782D01*
X259512939Y-103576658D01*
X259493074Y-103590174D01*
X259459246Y-103609324D01*
X259437263Y-103611153D01*
X259416853Y-103597935D01*
X259365986Y-103571166D01*
X259297540Y-103560158D01*
X259227594Y-103568586D01*
X259226270Y-103568968D01*
X259176936Y-103590402D01*
X259152516Y-103623953D01*
X259145762Y-103679441D01*
X259145506Y-103732229D01*
X259319910Y-103737927D01*
X259347696Y-103738865D01*
X259417748Y-103742125D01*
X259464709Y-103747247D01*
X259496452Y-103756148D01*
X259520848Y-103770747D01*
X259545769Y-103792962D01*
X259586915Y-103844345D01*
X259617071Y-103920376D01*
X259620028Y-103972694D01*
X259621568Y-103999950D01*
X259601409Y-104075814D01*
X258392733Y-103400797D02*
X258328492Y-103413462D01*
X258328492Y-103413462D02*
X258291920Y-103432214D01*
X258291920Y-103432214D02*
X258253447Y-103463367D01*
X258253447Y-103463367D02*
X258308183Y-103532477D01*
X258308183Y-103532477D02*
X258341931Y-103574329D01*
X258341931Y-103574329D02*
X258364847Y-103594748D01*
X258364847Y-103594748D02*
X258387621Y-103597867D01*
X258387621Y-103597867D02*
X258420944Y-103587822D01*
X258420944Y-103587822D02*
X258436586Y-103582139D01*
X258436586Y-103582139D02*
X258500358Y-103573754D01*
X258500358Y-103573754D02*
X258558760Y-103591728D01*
X258558760Y-103591728D02*
X258601636Y-103632332D01*
X258601636Y-103632332D02*
X258608601Y-103645279D01*
X258608601Y-103645279D02*
X258616187Y-103679574D01*
X258616187Y-103679574D02*
X258622041Y-103742777D01*
X258622041Y-103742777D02*
X258625889Y-103830410D01*
X258625889Y-103830410D02*
X258627457Y-103937990D01*
X258627457Y-103937990D02*
X258627479Y-103953294D01*
X258627479Y-103953294D02*
X258627479Y-104219876D01*
X258627479Y-104219876D02*
X258811295Y-104219876D01*
X258811295Y-104219876D02*
X258811295Y-103401060D01*
X258811295Y-103401060D02*
X258719387Y-103401060D01*
X258719387Y-103401060D02*
X258666393Y-103402444D01*
X258666393Y-103402444D02*
X258638785Y-103408602D01*
X258638785Y-103408602D02*
X258628576Y-103422544D01*
X258628576Y-103422544D02*
X258627479Y-103435694D01*
X258627479Y-103435694D02*
X258627479Y-103470328D01*
X258627479Y-103470328D02*
X258583450Y-103435694D01*
X258583450Y-103435694D02*
X258532963Y-103412066D01*
X258532963Y-103412066D02*
X258465140Y-103400383D01*
X258465140Y-103400383D02*
X258392733Y-103400797D01*
X258392733Y-103400797D02*
X258392733Y-103400797D01*
G36*
X258532963Y-103412066D02*
G01*
X258583450Y-103435694D01*
X258627479Y-103470328D01*
X258627479Y-103435694D01*
X258628576Y-103422544D01*
X258638785Y-103408602D01*
X258666393Y-103402444D01*
X258719387Y-103401060D01*
X258811295Y-103401060D01*
X258811295Y-104219876D01*
X258627479Y-104219876D01*
X258627479Y-103953294D01*
X258627457Y-103937990D01*
X258625889Y-103830410D01*
X258622041Y-103742777D01*
X258616187Y-103679574D01*
X258608601Y-103645279D01*
X258601636Y-103632332D01*
X258558760Y-103591728D01*
X258500358Y-103573754D01*
X258436586Y-103582139D01*
X258420944Y-103587822D01*
X258387621Y-103597867D01*
X258364847Y-103594748D01*
X258341931Y-103574329D01*
X258308183Y-103532477D01*
X258253447Y-103463367D01*
X258291920Y-103432214D01*
X258328492Y-103413462D01*
X258392733Y-103400797D01*
X258465140Y-103400383D01*
X258532963Y-103412066D01*
G37*
X258532963Y-103412066D02*
X258583450Y-103435694D01*
X258627479Y-103470328D01*
X258627479Y-103435694D01*
X258628576Y-103422544D01*
X258638785Y-103408602D01*
X258666393Y-103402444D01*
X258719387Y-103401060D01*
X258811295Y-103401060D01*
X258811295Y-104219876D01*
X258627479Y-104219876D01*
X258627479Y-103953294D01*
X258627457Y-103937990D01*
X258625889Y-103830410D01*
X258622041Y-103742777D01*
X258616187Y-103679574D01*
X258608601Y-103645279D01*
X258601636Y-103632332D01*
X258558760Y-103591728D01*
X258500358Y-103573754D01*
X258436586Y-103582139D01*
X258420944Y-103587822D01*
X258387621Y-103597867D01*
X258364847Y-103594748D01*
X258341931Y-103574329D01*
X258308183Y-103532477D01*
X258253447Y-103463367D01*
X258291920Y-103432214D01*
X258328492Y-103413462D01*
X258392733Y-103400797D01*
X258465140Y-103400383D01*
X258532963Y-103412066D01*
X257864707Y-103405428D02*
X257784832Y-103426195D01*
X257784832Y-103426195D02*
X257717938Y-103469055D01*
X257717938Y-103469055D02*
X257685549Y-103501073D01*
X257685549Y-103501073D02*
X257632455Y-103576763D01*
X257632455Y-103576763D02*
X257602027Y-103664566D01*
X257602027Y-103664566D02*
X257591573Y-103772500D01*
X257591573Y-103772500D02*
X257591520Y-103781225D01*
X257591520Y-103781225D02*
X257591427Y-103868955D01*
X257591427Y-103868955D02*
X258096366Y-103868955D01*
X258096366Y-103868955D02*
X258085602Y-103914909D01*
X258085602Y-103914909D02*
X258066168Y-103956528D01*
X258066168Y-103956528D02*
X258032155Y-103999894D01*
X258032155Y-103999894D02*
X258025040Y-104006817D01*
X258025040Y-104006817D02*
X257963897Y-104044285D01*
X257963897Y-104044285D02*
X257894171Y-104050639D01*
X257894171Y-104050639D02*
X257813913Y-104025988D01*
X257813913Y-104025988D02*
X257800308Y-104019350D01*
X257800308Y-104019350D02*
X257758581Y-103999169D01*
X257758581Y-103999169D02*
X257730632Y-103987671D01*
X257730632Y-103987671D02*
X257725755Y-103986608D01*
X257725755Y-103986608D02*
X257708732Y-103996933D01*
X257708732Y-103996933D02*
X257676267Y-104022195D01*
X257676267Y-104022195D02*
X257659786Y-104036000D01*
X257659786Y-104036000D02*
X257625636Y-104067711D01*
X257625636Y-104067711D02*
X257614422Y-104088649D01*
X257614422Y-104088649D02*
X257622205Y-104107910D01*
X257622205Y-104107910D02*
X257626365Y-104113177D01*
X257626365Y-104113177D02*
X257654543Y-104136228D01*
X257654543Y-104136228D02*
X257701038Y-104164242D01*
X257701038Y-104164242D02*
X257733466Y-104180596D01*
X257733466Y-104180596D02*
X257825515Y-104209409D01*
X257825515Y-104209409D02*
X257927424Y-104218745D01*
X257927424Y-104218745D02*
X258023937Y-104207682D01*
X258023937Y-104207682D02*
X258050966Y-104199762D01*
X258050966Y-104199762D02*
X258134624Y-104154931D01*
X258134624Y-104154931D02*
X258196634Y-104085948D01*
X258196634Y-104085948D02*
X258237355Y-103992144D01*
X258237355Y-103992144D02*
X258257145Y-103872848D01*
X258257145Y-103872848D02*
X258259318Y-103810468D01*
X258259318Y-103810468D02*
X258252974Y-103719648D01*
X258252974Y-103719648D02*
X258092743Y-103719648D01*
X258092743Y-103719648D02*
X258077245Y-103726362D01*
X258077245Y-103726362D02*
X258035588Y-103731630D01*
X258035588Y-103731630D02*
X257975024Y-103734739D01*
X257975024Y-103734739D02*
X257933993Y-103735271D01*
X257933993Y-103735271D02*
X257860189Y-103734758D01*
X257860189Y-103734758D02*
X257813607Y-103732356D01*
X257813607Y-103732356D02*
X257788052Y-103726772D01*
X257788052Y-103726772D02*
X257777331Y-103716711D01*
X257777331Y-103716711D02*
X257775243Y-103702113D01*
X257775243Y-103702113D02*
X257789569Y-103657146D01*
X257789569Y-103657146D02*
X257825638Y-103612703D01*
X257825638Y-103612703D02*
X257873085Y-103578592D01*
X257873085Y-103578592D02*
X257920551Y-103564638D01*
X257920551Y-103564638D02*
X257985021Y-103577016D01*
X257985021Y-103577016D02*
X258040830Y-103612802D01*
X258040830Y-103612802D02*
X258079526Y-103664383D01*
X258079526Y-103664383D02*
X258092743Y-103719648D01*
X258092743Y-103719648D02*
X258252974Y-103719648D01*
X258252974Y-103719648D02*
X258250079Y-103678216D01*
X258250079Y-103678216D02*
X258221564Y-103572848D01*
X258221564Y-103572848D02*
X258173171Y-103493528D01*
X258173171Y-103493528D02*
X258104296Y-103439421D01*
X258104296Y-103439421D02*
X258014335Y-103409693D01*
X258014335Y-103409693D02*
X257965600Y-103403968D01*
X257965600Y-103403968D02*
X257864707Y-103405428D01*
X257864707Y-103405428D02*
X257864707Y-103405428D01*
G36*
X258257145Y-103872848D02*
G01*
X258237355Y-103992144D01*
X258196634Y-104085948D01*
X258134624Y-104154931D01*
X258050966Y-104199762D01*
X258023937Y-104207682D01*
X257927424Y-104218745D01*
X257825515Y-104209409D01*
X257733466Y-104180596D01*
X257701038Y-104164242D01*
X257654543Y-104136228D01*
X257626365Y-104113177D01*
X257622205Y-104107910D01*
X257614422Y-104088649D01*
X257625636Y-104067711D01*
X257659786Y-104036000D01*
X257676267Y-104022195D01*
X257708732Y-103996933D01*
X257725755Y-103986608D01*
X257730632Y-103987671D01*
X257758581Y-103999169D01*
X257800308Y-104019350D01*
X257813913Y-104025988D01*
X257894171Y-104050639D01*
X257963897Y-104044285D01*
X258025040Y-104006817D01*
X258032155Y-103999894D01*
X258066168Y-103956528D01*
X258085602Y-103914909D01*
X258096366Y-103868955D01*
X257591427Y-103868955D01*
X257591520Y-103781225D01*
X257591573Y-103772500D01*
X257598390Y-103702113D01*
X257775243Y-103702113D01*
X257777331Y-103716711D01*
X257788052Y-103726772D01*
X257813607Y-103732356D01*
X257860189Y-103734758D01*
X257933993Y-103735271D01*
X257975024Y-103734739D01*
X258035588Y-103731630D01*
X258077245Y-103726362D01*
X258092743Y-103719648D01*
X258079526Y-103664383D01*
X258040830Y-103612802D01*
X257985021Y-103577016D01*
X257920551Y-103564638D01*
X257873085Y-103578592D01*
X257825638Y-103612703D01*
X257789569Y-103657146D01*
X257775243Y-103702113D01*
X257598390Y-103702113D01*
X257602027Y-103664566D01*
X257632455Y-103576763D01*
X257685549Y-103501073D01*
X257717938Y-103469055D01*
X257784832Y-103426195D01*
X257864707Y-103405428D01*
X257965600Y-103403968D01*
X258014335Y-103409693D01*
X258104296Y-103439421D01*
X258173171Y-103493528D01*
X258221564Y-103572848D01*
X258250079Y-103678216D01*
X258252974Y-103719648D01*
X258259318Y-103810468D01*
X258257145Y-103872848D01*
G37*
X258257145Y-103872848D02*
X258237355Y-103992144D01*
X258196634Y-104085948D01*
X258134624Y-104154931D01*
X258050966Y-104199762D01*
X258023937Y-104207682D01*
X257927424Y-104218745D01*
X257825515Y-104209409D01*
X257733466Y-104180596D01*
X257701038Y-104164242D01*
X257654543Y-104136228D01*
X257626365Y-104113177D01*
X257622205Y-104107910D01*
X257614422Y-104088649D01*
X257625636Y-104067711D01*
X257659786Y-104036000D01*
X257676267Y-104022195D01*
X257708732Y-103996933D01*
X257725755Y-103986608D01*
X257730632Y-103987671D01*
X257758581Y-103999169D01*
X257800308Y-104019350D01*
X257813913Y-104025988D01*
X257894171Y-104050639D01*
X257963897Y-104044285D01*
X258025040Y-104006817D01*
X258032155Y-103999894D01*
X258066168Y-103956528D01*
X258085602Y-103914909D01*
X258096366Y-103868955D01*
X257591427Y-103868955D01*
X257591520Y-103781225D01*
X257591573Y-103772500D01*
X257598390Y-103702113D01*
X257775243Y-103702113D01*
X257777331Y-103716711D01*
X257788052Y-103726772D01*
X257813607Y-103732356D01*
X257860189Y-103734758D01*
X257933993Y-103735271D01*
X257975024Y-103734739D01*
X258035588Y-103731630D01*
X258077245Y-103726362D01*
X258092743Y-103719648D01*
X258079526Y-103664383D01*
X258040830Y-103612802D01*
X257985021Y-103577016D01*
X257920551Y-103564638D01*
X257873085Y-103578592D01*
X257825638Y-103612703D01*
X257789569Y-103657146D01*
X257775243Y-103702113D01*
X257598390Y-103702113D01*
X257602027Y-103664566D01*
X257632455Y-103576763D01*
X257685549Y-103501073D01*
X257717938Y-103469055D01*
X257784832Y-103426195D01*
X257864707Y-103405428D01*
X257965600Y-103403968D01*
X258014335Y-103409693D01*
X258104296Y-103439421D01*
X258173171Y-103493528D01*
X258221564Y-103572848D01*
X258250079Y-103678216D01*
X258252974Y-103719648D01*
X258259318Y-103810468D01*
X258257145Y-103872848D01*
X263939116Y-102156454D02*
X263851695Y-102195104D01*
X263851695Y-102195104D02*
X263785330Y-102259640D01*
X263785330Y-102259640D02*
X263739924Y-102350162D01*
X263739924Y-102350162D02*
X263715382Y-102466768D01*
X263715382Y-102466768D02*
X263713623Y-102484974D01*
X263713623Y-102484974D02*
X263712244Y-102613334D01*
X263712244Y-102613334D02*
X263730116Y-102725846D01*
X263730116Y-102725846D02*
X263766150Y-102817038D01*
X263766150Y-102817038D02*
X263785445Y-102846372D01*
X263785445Y-102846372D02*
X263852655Y-102908456D01*
X263852655Y-102908456D02*
X263938250Y-102948666D01*
X263938250Y-102948666D02*
X264034010Y-102965353D01*
X264034010Y-102965353D02*
X264131713Y-102956867D01*
X264131713Y-102956867D02*
X264205983Y-102930730D01*
X264205983Y-102930730D02*
X264269853Y-102886685D01*
X264269853Y-102886685D02*
X264322054Y-102828937D01*
X264322054Y-102828937D02*
X264322957Y-102827586D01*
X264322957Y-102827586D02*
X264344156Y-102791943D01*
X264344156Y-102791943D02*
X264357933Y-102756102D01*
X264357933Y-102756102D02*
X264366276Y-102710869D01*
X264366276Y-102710869D02*
X264371173Y-102647051D01*
X264371173Y-102647051D02*
X264373331Y-102594718D01*
X264373331Y-102594718D02*
X264374229Y-102547260D01*
X264374229Y-102547260D02*
X264207157Y-102547260D01*
X264207157Y-102547260D02*
X264205524Y-102594504D01*
X264205524Y-102594504D02*
X264199596Y-102657396D01*
X264199596Y-102657396D02*
X264189139Y-102697757D01*
X264189139Y-102697757D02*
X264170281Y-102726472D01*
X264170281Y-102726472D02*
X264152619Y-102743246D01*
X264152619Y-102743246D02*
X264090006Y-102778366D01*
X264090006Y-102778366D02*
X264024492Y-102783060D01*
X264024492Y-102783060D02*
X263963479Y-102757790D01*
X263963479Y-102757790D02*
X263932972Y-102729474D01*
X263932972Y-102729474D02*
X263910989Y-102700939D01*
X263910989Y-102700939D02*
X263898131Y-102673634D01*
X263898131Y-102673634D02*
X263892488Y-102638100D01*
X263892488Y-102638100D02*
X263892149Y-102584874D01*
X263892149Y-102584874D02*
X263893888Y-102535856D01*
X263893888Y-102535856D02*
X263897629Y-102465832D01*
X263897629Y-102465832D02*
X263903559Y-102420414D01*
X263903559Y-102420414D02*
X263914247Y-102390790D01*
X263914247Y-102390790D02*
X263932261Y-102368147D01*
X263932261Y-102368147D02*
X263946537Y-102355205D01*
X263946537Y-102355205D02*
X264006249Y-102321210D01*
X264006249Y-102321210D02*
X264070666Y-102319515D01*
X264070666Y-102319515D02*
X264124681Y-102339651D01*
X264124681Y-102339651D02*
X264170760Y-102381702D01*
X264170760Y-102381702D02*
X264198211Y-102450778D01*
X264198211Y-102450778D02*
X264207157Y-102547260D01*
X264207157Y-102547260D02*
X264374229Y-102547260D01*
X264374229Y-102547260D02*
X264375301Y-102490649D01*
X264375301Y-102490649D02*
X264371936Y-102412818D01*
X264371936Y-102412818D02*
X264361855Y-102354280D01*
X264361855Y-102354280D02*
X264343674Y-102308087D01*
X264343674Y-102308087D02*
X264316010Y-102267292D01*
X264316010Y-102267292D02*
X264305754Y-102255178D01*
X264305754Y-102255178D02*
X264241622Y-102194824D01*
X264241622Y-102194824D02*
X264172834Y-102159570D01*
X264172834Y-102159570D02*
X264088711Y-102144800D01*
X264088711Y-102144800D02*
X264047691Y-102143593D01*
X264047691Y-102143593D02*
X263939116Y-102156454D01*
X263939116Y-102156454D02*
X263939116Y-102156454D01*
G36*
X264371173Y-102647051D02*
G01*
X264366276Y-102710869D01*
X264357933Y-102756102D01*
X264344156Y-102791943D01*
X264322957Y-102827586D01*
X264322054Y-102828937D01*
X264269853Y-102886685D01*
X264205983Y-102930730D01*
X264131713Y-102956867D01*
X264034010Y-102965353D01*
X263938250Y-102948666D01*
X263852655Y-102908456D01*
X263785445Y-102846372D01*
X263766150Y-102817038D01*
X263730116Y-102725846D01*
X263712244Y-102613334D01*
X263712550Y-102584874D01*
X263892149Y-102584874D01*
X263892488Y-102638100D01*
X263898131Y-102673634D01*
X263910989Y-102700939D01*
X263932972Y-102729474D01*
X263963479Y-102757790D01*
X264024492Y-102783060D01*
X264090006Y-102778366D01*
X264152619Y-102743246D01*
X264170281Y-102726472D01*
X264189139Y-102697757D01*
X264199596Y-102657396D01*
X264205524Y-102594504D01*
X264207157Y-102547260D01*
X264198211Y-102450778D01*
X264170760Y-102381702D01*
X264124681Y-102339651D01*
X264070666Y-102319515D01*
X264006249Y-102321210D01*
X263946537Y-102355205D01*
X263932261Y-102368147D01*
X263914247Y-102390790D01*
X263903559Y-102420414D01*
X263897629Y-102465832D01*
X263893888Y-102535856D01*
X263892149Y-102584874D01*
X263712550Y-102584874D01*
X263713623Y-102484974D01*
X263715382Y-102466768D01*
X263739924Y-102350162D01*
X263785330Y-102259640D01*
X263851695Y-102195104D01*
X263939116Y-102156454D01*
X264047691Y-102143593D01*
X264088711Y-102144800D01*
X264172834Y-102159570D01*
X264241622Y-102194824D01*
X264305754Y-102255178D01*
X264316010Y-102267292D01*
X264343674Y-102308087D01*
X264361855Y-102354280D01*
X264371936Y-102412818D01*
X264375301Y-102490649D01*
X264374229Y-102547260D01*
X264373331Y-102594718D01*
X264371173Y-102647051D01*
G37*
X264371173Y-102647051D02*
X264366276Y-102710869D01*
X264357933Y-102756102D01*
X264344156Y-102791943D01*
X264322957Y-102827586D01*
X264322054Y-102828937D01*
X264269853Y-102886685D01*
X264205983Y-102930730D01*
X264131713Y-102956867D01*
X264034010Y-102965353D01*
X263938250Y-102948666D01*
X263852655Y-102908456D01*
X263785445Y-102846372D01*
X263766150Y-102817038D01*
X263730116Y-102725846D01*
X263712244Y-102613334D01*
X263712550Y-102584874D01*
X263892149Y-102584874D01*
X263892488Y-102638100D01*
X263898131Y-102673634D01*
X263910989Y-102700939D01*
X263932972Y-102729474D01*
X263963479Y-102757790D01*
X264024492Y-102783060D01*
X264090006Y-102778366D01*
X264152619Y-102743246D01*
X264170281Y-102726472D01*
X264189139Y-102697757D01*
X264199596Y-102657396D01*
X264205524Y-102594504D01*
X264207157Y-102547260D01*
X264198211Y-102450778D01*
X264170760Y-102381702D01*
X264124681Y-102339651D01*
X264070666Y-102319515D01*
X264006249Y-102321210D01*
X263946537Y-102355205D01*
X263932261Y-102368147D01*
X263914247Y-102390790D01*
X263903559Y-102420414D01*
X263897629Y-102465832D01*
X263893888Y-102535856D01*
X263892149Y-102584874D01*
X263712550Y-102584874D01*
X263713623Y-102484974D01*
X263715382Y-102466768D01*
X263739924Y-102350162D01*
X263785330Y-102259640D01*
X263851695Y-102195104D01*
X263939116Y-102156454D01*
X264047691Y-102143593D01*
X264088711Y-102144800D01*
X264172834Y-102159570D01*
X264241622Y-102194824D01*
X264305754Y-102255178D01*
X264316010Y-102267292D01*
X264343674Y-102308087D01*
X264361855Y-102354280D01*
X264371936Y-102412818D01*
X264375301Y-102490649D01*
X264374229Y-102547260D01*
X264373331Y-102594718D01*
X264371173Y-102647051D01*
X262368882Y-102166377D02*
X262352230Y-102174216D01*
X262352230Y-102174216D02*
X262294595Y-102216436D01*
X262294595Y-102216436D02*
X262240095Y-102278050D01*
X262240095Y-102278050D02*
X262199401Y-102345893D01*
X262199401Y-102345893D02*
X262187826Y-102377084D01*
X262187826Y-102377084D02*
X262177266Y-102432799D01*
X262177266Y-102432799D02*
X262170969Y-102500131D01*
X262170969Y-102500131D02*
X262170204Y-102527935D01*
X262170204Y-102527935D02*
X262170111Y-102615666D01*
X262170111Y-102615666D02*
X262675050Y-102615666D01*
X262675050Y-102615666D02*
X262664287Y-102661620D01*
X262664287Y-102661620D02*
X262637867Y-102715970D01*
X262637867Y-102715970D02*
X262591678Y-102762941D01*
X262591678Y-102762941D02*
X262536728Y-102793198D01*
X262536728Y-102793198D02*
X262501711Y-102799481D01*
X262501711Y-102799481D02*
X262454223Y-102791856D01*
X262454223Y-102791856D02*
X262397565Y-102772733D01*
X262397565Y-102772733D02*
X262378318Y-102763934D01*
X262378318Y-102763934D02*
X262307141Y-102728386D01*
X262307141Y-102728386D02*
X262246398Y-102774717D01*
X262246398Y-102774717D02*
X262211348Y-102806053D01*
X262211348Y-102806053D02*
X262192698Y-102831917D01*
X262192698Y-102831917D02*
X262191753Y-102839508D01*
X262191753Y-102839508D02*
X262208415Y-102857906D01*
X262208415Y-102857906D02*
X262244930Y-102885865D01*
X262244930Y-102885865D02*
X262278072Y-102907677D01*
X262278072Y-102907677D02*
X262367507Y-102946887D01*
X262367507Y-102946887D02*
X262467771Y-102964635D01*
X262467771Y-102964635D02*
X262567146Y-102960020D01*
X262567146Y-102960020D02*
X262646361Y-102935901D01*
X262646361Y-102935901D02*
X262728020Y-102884234D01*
X262728020Y-102884234D02*
X262786051Y-102816206D01*
X262786051Y-102816206D02*
X262822354Y-102728193D01*
X262822354Y-102728193D02*
X262838828Y-102616566D01*
X262838828Y-102616566D02*
X262840289Y-102565488D01*
X262840289Y-102565488D02*
X262834443Y-102448441D01*
X262834443Y-102448441D02*
X262833725Y-102445036D01*
X262833725Y-102445036D02*
X262666411Y-102445036D01*
X262666411Y-102445036D02*
X262661803Y-102456012D01*
X262661803Y-102456012D02*
X262642864Y-102462065D01*
X262642864Y-102462065D02*
X262603802Y-102464660D01*
X262603802Y-102464660D02*
X262538823Y-102465260D01*
X262538823Y-102465260D02*
X262513803Y-102465271D01*
X262513803Y-102465271D02*
X262437679Y-102464364D01*
X262437679Y-102464364D02*
X262389404Y-102461070D01*
X262389404Y-102461070D02*
X262363440Y-102454531D01*
X262363440Y-102454531D02*
X262354252Y-102443887D01*
X262354252Y-102443887D02*
X262353927Y-102440469D01*
X262353927Y-102440469D02*
X262364413Y-102413306D01*
X262364413Y-102413306D02*
X262390658Y-102375253D01*
X262390658Y-102375253D02*
X262401941Y-102361929D01*
X262401941Y-102361929D02*
X262443828Y-102324246D01*
X262443828Y-102324246D02*
X262487491Y-102309430D01*
X262487491Y-102309430D02*
X262511015Y-102308192D01*
X262511015Y-102308192D02*
X262574657Y-102323679D01*
X262574657Y-102323679D02*
X262628027Y-102365280D01*
X262628027Y-102365280D02*
X262661881Y-102425703D01*
X262661881Y-102425703D02*
X262662481Y-102427672D01*
X262662481Y-102427672D02*
X262666411Y-102445036D01*
X262666411Y-102445036D02*
X262833725Y-102445036D01*
X262833725Y-102445036D02*
X262815001Y-102356278D01*
X262815001Y-102356278D02*
X262779978Y-102282540D01*
X262779978Y-102282540D02*
X262737144Y-102230198D01*
X262737144Y-102230198D02*
X262657952Y-102173442D01*
X262657952Y-102173442D02*
X262564860Y-102143112D01*
X262564860Y-102143112D02*
X262465845Y-102140371D01*
X262465845Y-102140371D02*
X262368882Y-102166377D01*
X262368882Y-102166377D02*
X262368882Y-102166377D01*
G36*
X262840289Y-102565488D02*
G01*
X262838828Y-102616566D01*
X262822354Y-102728193D01*
X262786051Y-102816206D01*
X262728020Y-102884234D01*
X262646361Y-102935901D01*
X262567146Y-102960020D01*
X262467771Y-102964635D01*
X262367507Y-102946887D01*
X262278072Y-102907677D01*
X262244930Y-102885865D01*
X262208415Y-102857906D01*
X262191753Y-102839508D01*
X262192698Y-102831917D01*
X262211348Y-102806053D01*
X262246398Y-102774717D01*
X262307141Y-102728386D01*
X262378318Y-102763934D01*
X262397565Y-102772733D01*
X262454223Y-102791856D01*
X262501711Y-102799481D01*
X262536728Y-102793198D01*
X262591678Y-102762941D01*
X262637867Y-102715970D01*
X262664287Y-102661620D01*
X262675050Y-102615666D01*
X262170111Y-102615666D01*
X262170204Y-102527935D01*
X262170969Y-102500131D01*
X262176549Y-102440469D01*
X262353927Y-102440469D01*
X262354252Y-102443887D01*
X262363440Y-102454531D01*
X262389404Y-102461070D01*
X262437679Y-102464364D01*
X262513803Y-102465271D01*
X262538823Y-102465260D01*
X262603802Y-102464660D01*
X262642864Y-102462065D01*
X262661803Y-102456012D01*
X262666411Y-102445036D01*
X262662481Y-102427672D01*
X262661881Y-102425703D01*
X262628027Y-102365280D01*
X262574657Y-102323679D01*
X262511015Y-102308192D01*
X262487491Y-102309430D01*
X262443828Y-102324246D01*
X262401941Y-102361929D01*
X262390658Y-102375253D01*
X262364413Y-102413306D01*
X262353927Y-102440469D01*
X262176549Y-102440469D01*
X262177266Y-102432799D01*
X262187826Y-102377084D01*
X262199401Y-102345893D01*
X262240095Y-102278050D01*
X262294595Y-102216436D01*
X262352230Y-102174216D01*
X262368882Y-102166377D01*
X262465845Y-102140371D01*
X262564860Y-102143112D01*
X262657952Y-102173442D01*
X262737144Y-102230198D01*
X262779978Y-102282540D01*
X262815001Y-102356278D01*
X262833725Y-102445036D01*
X262834443Y-102448441D01*
X262840289Y-102565488D01*
G37*
X262840289Y-102565488D02*
X262838828Y-102616566D01*
X262822354Y-102728193D01*
X262786051Y-102816206D01*
X262728020Y-102884234D01*
X262646361Y-102935901D01*
X262567146Y-102960020D01*
X262467771Y-102964635D01*
X262367507Y-102946887D01*
X262278072Y-102907677D01*
X262244930Y-102885865D01*
X262208415Y-102857906D01*
X262191753Y-102839508D01*
X262192698Y-102831917D01*
X262211348Y-102806053D01*
X262246398Y-102774717D01*
X262307141Y-102728386D01*
X262378318Y-102763934D01*
X262397565Y-102772733D01*
X262454223Y-102791856D01*
X262501711Y-102799481D01*
X262536728Y-102793198D01*
X262591678Y-102762941D01*
X262637867Y-102715970D01*
X262664287Y-102661620D01*
X262675050Y-102615666D01*
X262170111Y-102615666D01*
X262170204Y-102527935D01*
X262170969Y-102500131D01*
X262176549Y-102440469D01*
X262353927Y-102440469D01*
X262354252Y-102443887D01*
X262363440Y-102454531D01*
X262389404Y-102461070D01*
X262437679Y-102464364D01*
X262513803Y-102465271D01*
X262538823Y-102465260D01*
X262603802Y-102464660D01*
X262642864Y-102462065D01*
X262661803Y-102456012D01*
X262666411Y-102445036D01*
X262662481Y-102427672D01*
X262661881Y-102425703D01*
X262628027Y-102365280D01*
X262574657Y-102323679D01*
X262511015Y-102308192D01*
X262487491Y-102309430D01*
X262443828Y-102324246D01*
X262401941Y-102361929D01*
X262390658Y-102375253D01*
X262364413Y-102413306D01*
X262353927Y-102440469D01*
X262176549Y-102440469D01*
X262177266Y-102432799D01*
X262187826Y-102377084D01*
X262199401Y-102345893D01*
X262240095Y-102278050D01*
X262294595Y-102216436D01*
X262352230Y-102174216D01*
X262368882Y-102166377D01*
X262465845Y-102140371D01*
X262564860Y-102143112D01*
X262657952Y-102173442D01*
X262737144Y-102230198D01*
X262779978Y-102282540D01*
X262815001Y-102356278D01*
X262833725Y-102445036D01*
X262834443Y-102448441D01*
X262840289Y-102565488D01*
X260547272Y-102144897D02*
X260483992Y-102156898D01*
X260483992Y-102156898D02*
X260418343Y-102181998D01*
X260418343Y-102181998D02*
X260411328Y-102185198D01*
X260411328Y-102185198D02*
X260361544Y-102211376D01*
X260361544Y-102211376D02*
X260327066Y-102235703D01*
X260327066Y-102235703D02*
X260315922Y-102251287D01*
X260315922Y-102251287D02*
X260326534Y-102276703D01*
X260326534Y-102276703D02*
X260352312Y-102314203D01*
X260352312Y-102314203D02*
X260363754Y-102328202D01*
X260363754Y-102328202D02*
X260410908Y-102383304D01*
X260410908Y-102383304D02*
X260471699Y-102347436D01*
X260471699Y-102347436D02*
X260529553Y-102323542D01*
X260529553Y-102323542D02*
X260596400Y-102310770D01*
X260596400Y-102310770D02*
X260660506Y-102309963D01*
X260660506Y-102309963D02*
X260710136Y-102321965D01*
X260710136Y-102321965D02*
X260722046Y-102329455D01*
X260722046Y-102329455D02*
X260744728Y-102363800D01*
X260744728Y-102363800D02*
X260747484Y-102403363D01*
X260747484Y-102403363D02*
X260730512Y-102434270D01*
X260730512Y-102434270D02*
X260720473Y-102440263D01*
X260720473Y-102440263D02*
X260690390Y-102447707D01*
X260690390Y-102447707D02*
X260637511Y-102456456D01*
X260637511Y-102456456D02*
X260572325Y-102464817D01*
X260572325Y-102464817D02*
X260560300Y-102466128D01*
X260560300Y-102466128D02*
X260455603Y-102484238D01*
X260455603Y-102484238D02*
X260379668Y-102515001D01*
X260379668Y-102515001D02*
X260329308Y-102561257D01*
X260329308Y-102561257D02*
X260301336Y-102625847D01*
X260301336Y-102625847D02*
X260292622Y-102704737D01*
X260292622Y-102704737D02*
X260304660Y-102794415D01*
X260304660Y-102794415D02*
X260343749Y-102864836D01*
X260343749Y-102864836D02*
X260410045Y-102916127D01*
X260410045Y-102916127D02*
X260503706Y-102948417D01*
X260503706Y-102948417D02*
X260607677Y-102961157D01*
X260607677Y-102961157D02*
X260692462Y-102961004D01*
X260692462Y-102961004D02*
X260761235Y-102949433D01*
X260761235Y-102949433D02*
X260808203Y-102933459D01*
X260808203Y-102933459D02*
X260867550Y-102905625D01*
X260867550Y-102905625D02*
X260922394Y-102873323D01*
X260922394Y-102873323D02*
X260941887Y-102859105D01*
X260941887Y-102859105D02*
X260992019Y-102818185D01*
X260992019Y-102818185D02*
X260871097Y-102695827D01*
X260871097Y-102695827D02*
X260802357Y-102741317D01*
X260802357Y-102741317D02*
X260733412Y-102775483D01*
X260733412Y-102775483D02*
X260659789Y-102793354D01*
X260659789Y-102793354D02*
X260589017Y-102795239D01*
X260589017Y-102795239D02*
X260528626Y-102781451D01*
X260528626Y-102781451D02*
X260486143Y-102752299D01*
X260486143Y-102752299D02*
X260472426Y-102727702D01*
X260472426Y-102727702D02*
X260474483Y-102688254D01*
X260474483Y-102688254D02*
X260508570Y-102658087D01*
X260508570Y-102658087D02*
X260574592Y-102637256D01*
X260574592Y-102637256D02*
X260646926Y-102627629D01*
X260646926Y-102627629D02*
X260758248Y-102609260D01*
X260758248Y-102609260D02*
X260840948Y-102574604D01*
X260840948Y-102574604D02*
X260896135Y-102522647D01*
X260896135Y-102522647D02*
X260924912Y-102452373D01*
X260924912Y-102452373D02*
X260928899Y-102369057D01*
X260928899Y-102369057D02*
X260909207Y-102282031D01*
X260909207Y-102282031D02*
X260864311Y-102216252D01*
X260864311Y-102216252D02*
X260793809Y-102171418D01*
X260793809Y-102171418D02*
X260697299Y-102147229D01*
X260697299Y-102147229D02*
X260625800Y-102142487D01*
X260625800Y-102142487D02*
X260547272Y-102144897D01*
X260547272Y-102144897D02*
X260547272Y-102144897D01*
G36*
X260697299Y-102147229D02*
G01*
X260793809Y-102171418D01*
X260864311Y-102216252D01*
X260909207Y-102282031D01*
X260928899Y-102369057D01*
X260924912Y-102452373D01*
X260896135Y-102522647D01*
X260840948Y-102574604D01*
X260758248Y-102609260D01*
X260646926Y-102627629D01*
X260574592Y-102637256D01*
X260508570Y-102658087D01*
X260474483Y-102688254D01*
X260472426Y-102727702D01*
X260486143Y-102752299D01*
X260528626Y-102781451D01*
X260589017Y-102795239D01*
X260659789Y-102793354D01*
X260733412Y-102775483D01*
X260802357Y-102741317D01*
X260871097Y-102695827D01*
X260992019Y-102818185D01*
X260941887Y-102859105D01*
X260922394Y-102873323D01*
X260867550Y-102905625D01*
X260808203Y-102933459D01*
X260761235Y-102949433D01*
X260692462Y-102961004D01*
X260607677Y-102961157D01*
X260503706Y-102948417D01*
X260410045Y-102916127D01*
X260343749Y-102864836D01*
X260304660Y-102794415D01*
X260292622Y-102704737D01*
X260301336Y-102625847D01*
X260329308Y-102561257D01*
X260379668Y-102515001D01*
X260455603Y-102484238D01*
X260560300Y-102466128D01*
X260572325Y-102464817D01*
X260637511Y-102456456D01*
X260690390Y-102447707D01*
X260720473Y-102440263D01*
X260730512Y-102434270D01*
X260747484Y-102403363D01*
X260744728Y-102363800D01*
X260722046Y-102329455D01*
X260710136Y-102321965D01*
X260660506Y-102309963D01*
X260596400Y-102310770D01*
X260529553Y-102323542D01*
X260471699Y-102347436D01*
X260410908Y-102383304D01*
X260363754Y-102328202D01*
X260352312Y-102314203D01*
X260326534Y-102276703D01*
X260315922Y-102251287D01*
X260327066Y-102235703D01*
X260361544Y-102211376D01*
X260411328Y-102185198D01*
X260418343Y-102181998D01*
X260483992Y-102156898D01*
X260547272Y-102144897D01*
X260625800Y-102142487D01*
X260697299Y-102147229D01*
G37*
X260697299Y-102147229D02*
X260793809Y-102171418D01*
X260864311Y-102216252D01*
X260909207Y-102282031D01*
X260928899Y-102369057D01*
X260924912Y-102452373D01*
X260896135Y-102522647D01*
X260840948Y-102574604D01*
X260758248Y-102609260D01*
X260646926Y-102627629D01*
X260574592Y-102637256D01*
X260508570Y-102658087D01*
X260474483Y-102688254D01*
X260472426Y-102727702D01*
X260486143Y-102752299D01*
X260528626Y-102781451D01*
X260589017Y-102795239D01*
X260659789Y-102793354D01*
X260733412Y-102775483D01*
X260802357Y-102741317D01*
X260871097Y-102695827D01*
X260992019Y-102818185D01*
X260941887Y-102859105D01*
X260922394Y-102873323D01*
X260867550Y-102905625D01*
X260808203Y-102933459D01*
X260761235Y-102949433D01*
X260692462Y-102961004D01*
X260607677Y-102961157D01*
X260503706Y-102948417D01*
X260410045Y-102916127D01*
X260343749Y-102864836D01*
X260304660Y-102794415D01*
X260292622Y-102704737D01*
X260301336Y-102625847D01*
X260329308Y-102561257D01*
X260379668Y-102515001D01*
X260455603Y-102484238D01*
X260560300Y-102466128D01*
X260572325Y-102464817D01*
X260637511Y-102456456D01*
X260690390Y-102447707D01*
X260720473Y-102440263D01*
X260730512Y-102434270D01*
X260747484Y-102403363D01*
X260744728Y-102363800D01*
X260722046Y-102329455D01*
X260710136Y-102321965D01*
X260660506Y-102309963D01*
X260596400Y-102310770D01*
X260529553Y-102323542D01*
X260471699Y-102347436D01*
X260410908Y-102383304D01*
X260363754Y-102328202D01*
X260352312Y-102314203D01*
X260326534Y-102276703D01*
X260315922Y-102251287D01*
X260327066Y-102235703D01*
X260361544Y-102211376D01*
X260411328Y-102185198D01*
X260418343Y-102181998D01*
X260483992Y-102156898D01*
X260547272Y-102144897D01*
X260625800Y-102142487D01*
X260697299Y-102147229D01*
X259754231Y-102157660D02*
X259669708Y-102203690D01*
X259669708Y-102203690D02*
X259603579Y-102276356D01*
X259603579Y-102276356D02*
X259572422Y-102335456D01*
X259572422Y-102335456D02*
X259559045Y-102387655D01*
X259559045Y-102387655D02*
X259550378Y-102462069D01*
X259550378Y-102462069D02*
X259546663Y-102547792D01*
X259546663Y-102547792D02*
X259548146Y-102633919D01*
X259548146Y-102633919D02*
X259555069Y-102709543D01*
X259555069Y-102709543D02*
X259563155Y-102749934D01*
X259563155Y-102749934D02*
X259590435Y-102805190D01*
X259590435Y-102805190D02*
X259637680Y-102863880D01*
X259637680Y-102863880D02*
X259694618Y-102915202D01*
X259694618Y-102915202D02*
X259750976Y-102948355D01*
X259750976Y-102948355D02*
X259752350Y-102948881D01*
X259752350Y-102948881D02*
X259822284Y-102963368D01*
X259822284Y-102963368D02*
X259905163Y-102963727D01*
X259905163Y-102963727D02*
X259983923Y-102950538D01*
X259983923Y-102950538D02*
X260014334Y-102939967D01*
X260014334Y-102939967D02*
X260092661Y-102895551D01*
X260092661Y-102895551D02*
X260148757Y-102837357D01*
X260148757Y-102837357D02*
X260185614Y-102760315D01*
X260185614Y-102760315D02*
X260206220Y-102659351D01*
X260206220Y-102659351D02*
X260210882Y-102606466D01*
X260210882Y-102606466D02*
X260210287Y-102540013D01*
X260210287Y-102540013D02*
X260031164Y-102540013D01*
X260031164Y-102540013D02*
X260025130Y-102636980D01*
X260025130Y-102636980D02*
X260007762Y-102710873D01*
X260007762Y-102710873D02*
X259980160Y-102758086D01*
X259980160Y-102758086D02*
X259960496Y-102771587D01*
X259960496Y-102771587D02*
X259910113Y-102781001D01*
X259910113Y-102781001D02*
X259850227Y-102778214D01*
X259850227Y-102778214D02*
X259798451Y-102764666D01*
X259798451Y-102764666D02*
X259784873Y-102757212D01*
X259784873Y-102757212D02*
X259749051Y-102713801D01*
X259749051Y-102713801D02*
X259725407Y-102647364D01*
X259725407Y-102647364D02*
X259715342Y-102566511D01*
X259715342Y-102566511D02*
X259720258Y-102479852D01*
X259720258Y-102479852D02*
X259731245Y-102427699D01*
X259731245Y-102427699D02*
X259762791Y-102367301D01*
X259762791Y-102367301D02*
X259812589Y-102329547D01*
X259812589Y-102329547D02*
X259872563Y-102316493D01*
X259872563Y-102316493D02*
X259934636Y-102330199D01*
X259934636Y-102330199D02*
X259982318Y-102363722D01*
X259982318Y-102363722D02*
X260007375Y-102391381D01*
X260007375Y-102391381D02*
X260022000Y-102418644D01*
X260022000Y-102418644D02*
X260028971Y-102455540D01*
X260028971Y-102455540D02*
X260031067Y-102512100D01*
X260031067Y-102512100D02*
X260031164Y-102540013D01*
X260031164Y-102540013D02*
X260210287Y-102540013D01*
X260210287Y-102540013D02*
X260209618Y-102465344D01*
X260209618Y-102465344D02*
X260186635Y-102349621D01*
X260186635Y-102349621D02*
X260141928Y-102259291D01*
X260141928Y-102259291D02*
X260075495Y-102194350D01*
X260075495Y-102194350D02*
X259987335Y-102154795D01*
X259987335Y-102154795D02*
X259968405Y-102150208D01*
X259968405Y-102150208D02*
X259854634Y-102139440D01*
X259854634Y-102139440D02*
X259754231Y-102157660D01*
X259754231Y-102157660D02*
X259754231Y-102157660D01*
G36*
X260206220Y-102659351D02*
G01*
X260185614Y-102760315D01*
X260148757Y-102837357D01*
X260092661Y-102895551D01*
X260014334Y-102939967D01*
X259983923Y-102950538D01*
X259905163Y-102963727D01*
X259822284Y-102963368D01*
X259752350Y-102948881D01*
X259750976Y-102948355D01*
X259694618Y-102915202D01*
X259637680Y-102863880D01*
X259590435Y-102805190D01*
X259563155Y-102749934D01*
X259555069Y-102709543D01*
X259548146Y-102633919D01*
X259546985Y-102566511D01*
X259715342Y-102566511D01*
X259725407Y-102647364D01*
X259749051Y-102713801D01*
X259784873Y-102757212D01*
X259798451Y-102764666D01*
X259850227Y-102778214D01*
X259910113Y-102781001D01*
X259960496Y-102771587D01*
X259980160Y-102758086D01*
X260007762Y-102710873D01*
X260025130Y-102636980D01*
X260031164Y-102540013D01*
X260031067Y-102512100D01*
X260028971Y-102455540D01*
X260022000Y-102418644D01*
X260007375Y-102391381D01*
X259982318Y-102363722D01*
X259934636Y-102330199D01*
X259872563Y-102316493D01*
X259812589Y-102329547D01*
X259762791Y-102367301D01*
X259731245Y-102427699D01*
X259720258Y-102479852D01*
X259715342Y-102566511D01*
X259546985Y-102566511D01*
X259546663Y-102547792D01*
X259550378Y-102462069D01*
X259559045Y-102387655D01*
X259572422Y-102335456D01*
X259603579Y-102276356D01*
X259669708Y-102203690D01*
X259754231Y-102157660D01*
X259854634Y-102139440D01*
X259968405Y-102150208D01*
X259987335Y-102154795D01*
X260075495Y-102194350D01*
X260141928Y-102259291D01*
X260186635Y-102349621D01*
X260209618Y-102465344D01*
X260210287Y-102540013D01*
X260210882Y-102606466D01*
X260206220Y-102659351D01*
G37*
X260206220Y-102659351D02*
X260185614Y-102760315D01*
X260148757Y-102837357D01*
X260092661Y-102895551D01*
X260014334Y-102939967D01*
X259983923Y-102950538D01*
X259905163Y-102963727D01*
X259822284Y-102963368D01*
X259752350Y-102948881D01*
X259750976Y-102948355D01*
X259694618Y-102915202D01*
X259637680Y-102863880D01*
X259590435Y-102805190D01*
X259563155Y-102749934D01*
X259555069Y-102709543D01*
X259548146Y-102633919D01*
X259546985Y-102566511D01*
X259715342Y-102566511D01*
X259725407Y-102647364D01*
X259749051Y-102713801D01*
X259784873Y-102757212D01*
X259798451Y-102764666D01*
X259850227Y-102778214D01*
X259910113Y-102781001D01*
X259960496Y-102771587D01*
X259980160Y-102758086D01*
X260007762Y-102710873D01*
X260025130Y-102636980D01*
X260031164Y-102540013D01*
X260031067Y-102512100D01*
X260028971Y-102455540D01*
X260022000Y-102418644D01*
X260007375Y-102391381D01*
X259982318Y-102363722D01*
X259934636Y-102330199D01*
X259872563Y-102316493D01*
X259812589Y-102329547D01*
X259762791Y-102367301D01*
X259731245Y-102427699D01*
X259720258Y-102479852D01*
X259715342Y-102566511D01*
X259546985Y-102566511D01*
X259546663Y-102547792D01*
X259550378Y-102462069D01*
X259559045Y-102387655D01*
X259572422Y-102335456D01*
X259603579Y-102276356D01*
X259669708Y-102203690D01*
X259754231Y-102157660D01*
X259854634Y-102139440D01*
X259968405Y-102150208D01*
X259987335Y-102154795D01*
X260075495Y-102194350D01*
X260141928Y-102259291D01*
X260186635Y-102349621D01*
X260209618Y-102465344D01*
X260210287Y-102540013D01*
X260210882Y-102606466D01*
X260206220Y-102659351D01*
X259245769Y-102407883D02*
X259244190Y-102530439D01*
X259244190Y-102530439D02*
X259238419Y-102623529D01*
X259238419Y-102623529D02*
X259226909Y-102691001D01*
X259226909Y-102691001D02*
X259208110Y-102736705D01*
X259208110Y-102736705D02*
X259180474Y-102764489D01*
X259180474Y-102764489D02*
X259142452Y-102778204D01*
X259142452Y-102778204D02*
X259095374Y-102781708D01*
X259095374Y-102781708D02*
X259046068Y-102777782D01*
X259046068Y-102777782D02*
X259008617Y-102763439D01*
X259008617Y-102763439D02*
X258981472Y-102734828D01*
X258981472Y-102734828D02*
X258963085Y-102688101D01*
X258963085Y-102688101D02*
X258951907Y-102619408D01*
X258951907Y-102619408D02*
X258946389Y-102524900D01*
X258946389Y-102524900D02*
X258944979Y-102407883D01*
X258944979Y-102407883D02*
X258944979Y-102147771D01*
X258944979Y-102147771D02*
X258761164Y-102147771D01*
X258761164Y-102147771D02*
X258761164Y-102949876D01*
X258761164Y-102949876D02*
X258853072Y-102949876D01*
X258853072Y-102949876D02*
X258908478Y-102947631D01*
X258908478Y-102947631D02*
X258937009Y-102939746D01*
X258937009Y-102939746D02*
X258944979Y-102924778D01*
X258944979Y-102924778D02*
X258949780Y-102911447D01*
X258949780Y-102911447D02*
X258968886Y-102914267D01*
X258968886Y-102914267D02*
X259007396Y-102933133D01*
X259007396Y-102933133D02*
X259095661Y-102962237D01*
X259095661Y-102962237D02*
X259189277Y-102960175D01*
X259189277Y-102960175D02*
X259278979Y-102928571D01*
X259278979Y-102928571D02*
X259321696Y-102903607D01*
X259321696Y-102903607D02*
X259354279Y-102876576D01*
X259354279Y-102876576D02*
X259378083Y-102842755D01*
X259378083Y-102842755D02*
X259394461Y-102797418D01*
X259394461Y-102797418D02*
X259404769Y-102735839D01*
X259404769Y-102735839D02*
X259410359Y-102653293D01*
X259410359Y-102653293D02*
X259412588Y-102545055D01*
X259412588Y-102545055D02*
X259412874Y-102461354D01*
X259412874Y-102461354D02*
X259412874Y-102147771D01*
X259412874Y-102147771D02*
X259245769Y-102147771D01*
X259245769Y-102147771D02*
X259245769Y-102407883D01*
X259245769Y-102407883D02*
X259245769Y-102407883D01*
G36*
X258944979Y-102407883D02*
G01*
X258946389Y-102524900D01*
X258951907Y-102619408D01*
X258963085Y-102688101D01*
X258981472Y-102734828D01*
X259008617Y-102763439D01*
X259046068Y-102777782D01*
X259095374Y-102781708D01*
X259142452Y-102778204D01*
X259180474Y-102764489D01*
X259208110Y-102736705D01*
X259226909Y-102691001D01*
X259238419Y-102623529D01*
X259244190Y-102530439D01*
X259245769Y-102407883D01*
X259245769Y-102147771D01*
X259412874Y-102147771D01*
X259412874Y-102461354D01*
X259412588Y-102545055D01*
X259410359Y-102653293D01*
X259404769Y-102735839D01*
X259394461Y-102797418D01*
X259378083Y-102842755D01*
X259354279Y-102876576D01*
X259321696Y-102903607D01*
X259278979Y-102928571D01*
X259189277Y-102960175D01*
X259095661Y-102962237D01*
X259007396Y-102933133D01*
X258968886Y-102914267D01*
X258949780Y-102911447D01*
X258944979Y-102924778D01*
X258937009Y-102939746D01*
X258908478Y-102947631D01*
X258853072Y-102949876D01*
X258761164Y-102949876D01*
X258761164Y-102147771D01*
X258944979Y-102147771D01*
X258944979Y-102407883D01*
G37*
X258944979Y-102407883D02*
X258946389Y-102524900D01*
X258951907Y-102619408D01*
X258963085Y-102688101D01*
X258981472Y-102734828D01*
X259008617Y-102763439D01*
X259046068Y-102777782D01*
X259095374Y-102781708D01*
X259142452Y-102778204D01*
X259180474Y-102764489D01*
X259208110Y-102736705D01*
X259226909Y-102691001D01*
X259238419Y-102623529D01*
X259244190Y-102530439D01*
X259245769Y-102407883D01*
X259245769Y-102147771D01*
X259412874Y-102147771D01*
X259412874Y-102461354D01*
X259412588Y-102545055D01*
X259410359Y-102653293D01*
X259404769Y-102735839D01*
X259394461Y-102797418D01*
X259378083Y-102842755D01*
X259354279Y-102876576D01*
X259321696Y-102903607D01*
X259278979Y-102928571D01*
X259189277Y-102960175D01*
X259095661Y-102962237D01*
X259007396Y-102933133D01*
X258968886Y-102914267D01*
X258949780Y-102911447D01*
X258944979Y-102924778D01*
X258937009Y-102939746D01*
X258908478Y-102947631D01*
X258853072Y-102949876D01*
X258761164Y-102949876D01*
X258761164Y-102147771D01*
X258944979Y-102147771D01*
X258944979Y-102407883D01*
X257619324Y-102154769D02*
X257522505Y-102195899D01*
X257522505Y-102195899D02*
X257492010Y-102215921D01*
X257492010Y-102215921D02*
X257453035Y-102246690D01*
X257453035Y-102246690D02*
X257428569Y-102270883D01*
X257428569Y-102270883D02*
X257424322Y-102278763D01*
X257424322Y-102278763D02*
X257436316Y-102296249D01*
X257436316Y-102296249D02*
X257467013Y-102325920D01*
X257467013Y-102325920D02*
X257491588Y-102346629D01*
X257491588Y-102346629D02*
X257558854Y-102400686D01*
X257558854Y-102400686D02*
X257611970Y-102355992D01*
X257611970Y-102355992D02*
X257653016Y-102327139D01*
X257653016Y-102327139D02*
X257693037Y-102317179D01*
X257693037Y-102317179D02*
X257738841Y-102319611D01*
X257738841Y-102319611D02*
X257811576Y-102337695D01*
X257811576Y-102337695D02*
X257861644Y-102375231D01*
X257861644Y-102375231D02*
X257892071Y-102435912D01*
X257892071Y-102435912D02*
X257905883Y-102523431D01*
X257905883Y-102523431D02*
X257905887Y-102523486D01*
X257905887Y-102523486D02*
X257904692Y-102621308D01*
X257904692Y-102621308D02*
X257886128Y-102693080D01*
X257886128Y-102693080D02*
X257849096Y-102741945D01*
X257849096Y-102741945D02*
X257823850Y-102758493D01*
X257823850Y-102758493D02*
X257756803Y-102779099D01*
X257756803Y-102779099D02*
X257685191Y-102779112D01*
X257685191Y-102779112D02*
X257622885Y-102759118D01*
X257622885Y-102759118D02*
X257608137Y-102749350D01*
X257608137Y-102749350D02*
X257571150Y-102724397D01*
X257571150Y-102724397D02*
X257542232Y-102720308D01*
X257542232Y-102720308D02*
X257511044Y-102738880D01*
X257511044Y-102738880D02*
X257476564Y-102772237D01*
X257476564Y-102772237D02*
X257421988Y-102828546D01*
X257421988Y-102828546D02*
X257482582Y-102878492D01*
X257482582Y-102878492D02*
X257576202Y-102934863D01*
X257576202Y-102934863D02*
X257681775Y-102962643D01*
X257681775Y-102962643D02*
X257792102Y-102960632D01*
X257792102Y-102960632D02*
X257864557Y-102942212D01*
X257864557Y-102942212D02*
X257949244Y-102896660D01*
X257949244Y-102896660D02*
X258016973Y-102825000D01*
X258016973Y-102825000D02*
X258047743Y-102774416D01*
X258047743Y-102774416D02*
X258072664Y-102701838D01*
X258072664Y-102701838D02*
X258085134Y-102609919D01*
X258085134Y-102609919D02*
X258085230Y-102510298D01*
X258085230Y-102510298D02*
X258073030Y-102414617D01*
X258073030Y-102414617D02*
X258048610Y-102334519D01*
X258048610Y-102334519D02*
X258044764Y-102326306D01*
X258044764Y-102326306D02*
X257987807Y-102245763D01*
X257987807Y-102245763D02*
X257910691Y-102187121D01*
X257910691Y-102187121D02*
X257819510Y-102151597D01*
X257819510Y-102151597D02*
X257720357Y-102140407D01*
X257720357Y-102140407D02*
X257619324Y-102154769D01*
X257619324Y-102154769D02*
X257619324Y-102154769D01*
G36*
X257819510Y-102151597D02*
G01*
X257910691Y-102187121D01*
X257987807Y-102245763D01*
X258044764Y-102326306D01*
X258048610Y-102334519D01*
X258073030Y-102414617D01*
X258085230Y-102510298D01*
X258085134Y-102609919D01*
X258072664Y-102701838D01*
X258047743Y-102774416D01*
X258016973Y-102825000D01*
X257949244Y-102896660D01*
X257864557Y-102942212D01*
X257792102Y-102960632D01*
X257681775Y-102962643D01*
X257576202Y-102934863D01*
X257482582Y-102878492D01*
X257421988Y-102828546D01*
X257476564Y-102772237D01*
X257511044Y-102738880D01*
X257542232Y-102720308D01*
X257571150Y-102724397D01*
X257608137Y-102749350D01*
X257622885Y-102759118D01*
X257685191Y-102779112D01*
X257756803Y-102779099D01*
X257823850Y-102758493D01*
X257849096Y-102741945D01*
X257886128Y-102693080D01*
X257904692Y-102621308D01*
X257905887Y-102523486D01*
X257905883Y-102523431D01*
X257892071Y-102435912D01*
X257861644Y-102375231D01*
X257811576Y-102337695D01*
X257738841Y-102319611D01*
X257693037Y-102317179D01*
X257653016Y-102327139D01*
X257611970Y-102355992D01*
X257558854Y-102400686D01*
X257491588Y-102346629D01*
X257467013Y-102325920D01*
X257436316Y-102296249D01*
X257424322Y-102278763D01*
X257428569Y-102270883D01*
X257453035Y-102246690D01*
X257492010Y-102215921D01*
X257522505Y-102195899D01*
X257619324Y-102154769D01*
X257720357Y-102140407D01*
X257819510Y-102151597D01*
G37*
X257819510Y-102151597D02*
X257910691Y-102187121D01*
X257987807Y-102245763D01*
X258044764Y-102326306D01*
X258048610Y-102334519D01*
X258073030Y-102414617D01*
X258085230Y-102510298D01*
X258085134Y-102609919D01*
X258072664Y-102701838D01*
X258047743Y-102774416D01*
X258016973Y-102825000D01*
X257949244Y-102896660D01*
X257864557Y-102942212D01*
X257792102Y-102960632D01*
X257681775Y-102962643D01*
X257576202Y-102934863D01*
X257482582Y-102878492D01*
X257421988Y-102828546D01*
X257476564Y-102772237D01*
X257511044Y-102738880D01*
X257542232Y-102720308D01*
X257571150Y-102724397D01*
X257608137Y-102749350D01*
X257622885Y-102759118D01*
X257685191Y-102779112D01*
X257756803Y-102779099D01*
X257823850Y-102758493D01*
X257849096Y-102741945D01*
X257886128Y-102693080D01*
X257904692Y-102621308D01*
X257905887Y-102523486D01*
X257905883Y-102523431D01*
X257892071Y-102435912D01*
X257861644Y-102375231D01*
X257811576Y-102337695D01*
X257738841Y-102319611D01*
X257693037Y-102317179D01*
X257653016Y-102327139D01*
X257611970Y-102355992D01*
X257558854Y-102400686D01*
X257491588Y-102346629D01*
X257467013Y-102325920D01*
X257436316Y-102296249D01*
X257424322Y-102278763D01*
X257428569Y-102270883D01*
X257453035Y-102246690D01*
X257492010Y-102215921D01*
X257522505Y-102195899D01*
X257619324Y-102154769D01*
X257720357Y-102140407D01*
X257819510Y-102151597D01*
X257007116Y-102144904D02*
X256964326Y-102155299D01*
X256964326Y-102155299D02*
X256882291Y-102193363D01*
X256882291Y-102193363D02*
X256812143Y-102251499D01*
X256812143Y-102251499D02*
X256763595Y-102321202D01*
X256763595Y-102321202D02*
X256756925Y-102336852D01*
X256756925Y-102336852D02*
X256747776Y-102377846D01*
X256747776Y-102377846D02*
X256741371Y-102438488D01*
X256741371Y-102438488D02*
X256739190Y-102499780D01*
X256739190Y-102499780D02*
X256739190Y-102615666D01*
X256739190Y-102615666D02*
X256981493Y-102615666D01*
X256981493Y-102615666D02*
X257081429Y-102616043D01*
X257081429Y-102616043D02*
X257151831Y-102618337D01*
X257151831Y-102618337D02*
X257196587Y-102624288D01*
X257196587Y-102624288D02*
X257219585Y-102635635D01*
X257219585Y-102635635D02*
X257224711Y-102654121D01*
X257224711Y-102654121D02*
X257215852Y-102681486D01*
X257215852Y-102681486D02*
X257199983Y-102713505D01*
X257199983Y-102713505D02*
X257155716Y-102766942D01*
X257155716Y-102766942D02*
X257094201Y-102793565D01*
X257094201Y-102793565D02*
X257019015Y-102792697D01*
X257019015Y-102792697D02*
X256933847Y-102763721D01*
X256933847Y-102763721D02*
X256860241Y-102727961D01*
X256860241Y-102727961D02*
X256799166Y-102776254D01*
X256799166Y-102776254D02*
X256738090Y-102824547D01*
X256738090Y-102824547D02*
X256795549Y-102877635D01*
X256795549Y-102877635D02*
X256872259Y-102927795D01*
X256872259Y-102927795D02*
X256966598Y-102958038D01*
X256966598Y-102958038D02*
X257068073Y-102966501D01*
X257068073Y-102966501D02*
X257166189Y-102951324D01*
X257166189Y-102951324D02*
X257182019Y-102946174D01*
X257182019Y-102946174D02*
X257268253Y-102901141D01*
X257268253Y-102901141D02*
X257332399Y-102834002D01*
X257332399Y-102834002D02*
X257375809Y-102742755D01*
X257375809Y-102742755D02*
X257399836Y-102625394D01*
X257399836Y-102625394D02*
X257400116Y-102622879D01*
X257400116Y-102622879D02*
X257402267Y-102494977D01*
X257402267Y-102494977D02*
X257393571Y-102449347D01*
X257393571Y-102449347D02*
X257223795Y-102449347D01*
X257223795Y-102449347D02*
X257208203Y-102456363D01*
X257208203Y-102456363D02*
X257165871Y-102461738D01*
X257165871Y-102461738D02*
X257103466Y-102464807D01*
X257103466Y-102464807D02*
X257063919Y-102465271D01*
X257063919Y-102465271D02*
X256990172Y-102464980D01*
X256990172Y-102464980D02*
X256944060Y-102463133D01*
X256944060Y-102463133D02*
X256919800Y-102458262D01*
X256919800Y-102458262D02*
X256911606Y-102448905D01*
X256911606Y-102448905D02*
X256913694Y-102433595D01*
X256913694Y-102433595D02*
X256915445Y-102427672D01*
X256915445Y-102427672D02*
X256945340Y-102372018D01*
X256945340Y-102372018D02*
X256992358Y-102327165D01*
X256992358Y-102327165D02*
X257033851Y-102307455D01*
X257033851Y-102307455D02*
X257088974Y-102308645D01*
X257088974Y-102308645D02*
X257144832Y-102333225D01*
X257144832Y-102333225D02*
X257191688Y-102373920D01*
X257191688Y-102373920D02*
X257219806Y-102423458D01*
X257219806Y-102423458D02*
X257223795Y-102449347D01*
X257223795Y-102449347D02*
X257393571Y-102449347D01*
X257393571Y-102449347D02*
X257380826Y-102382483D01*
X257380826Y-102382483D02*
X257338289Y-102288077D01*
X257338289Y-102288077D02*
X257277153Y-102214438D01*
X257277153Y-102214438D02*
X257199915Y-102164243D01*
X257199915Y-102164243D02*
X257109070Y-102140172D01*
X257109070Y-102140172D02*
X257007116Y-102144904D01*
X257007116Y-102144904D02*
X257007116Y-102144904D01*
G36*
X257400116Y-102622879D02*
G01*
X257399836Y-102625394D01*
X257375809Y-102742755D01*
X257332399Y-102834002D01*
X257268253Y-102901141D01*
X257182019Y-102946174D01*
X257166189Y-102951324D01*
X257068073Y-102966501D01*
X256966598Y-102958038D01*
X256872259Y-102927795D01*
X256795549Y-102877635D01*
X256738090Y-102824547D01*
X256799166Y-102776254D01*
X256860241Y-102727961D01*
X256933847Y-102763721D01*
X257019015Y-102792697D01*
X257094201Y-102793565D01*
X257155716Y-102766942D01*
X257199983Y-102713505D01*
X257215852Y-102681486D01*
X257224711Y-102654121D01*
X257219585Y-102635635D01*
X257196587Y-102624288D01*
X257151831Y-102618337D01*
X257081429Y-102616043D01*
X256981493Y-102615666D01*
X256739190Y-102615666D01*
X256739190Y-102499780D01*
X256741000Y-102448905D01*
X256911606Y-102448905D01*
X256919800Y-102458262D01*
X256944060Y-102463133D01*
X256990172Y-102464980D01*
X257063919Y-102465271D01*
X257103466Y-102464807D01*
X257165871Y-102461738D01*
X257208203Y-102456363D01*
X257223795Y-102449347D01*
X257219806Y-102423458D01*
X257191688Y-102373920D01*
X257144832Y-102333225D01*
X257088974Y-102308645D01*
X257033851Y-102307455D01*
X256992358Y-102327165D01*
X256945340Y-102372018D01*
X256915445Y-102427672D01*
X256913694Y-102433595D01*
X256911606Y-102448905D01*
X256741000Y-102448905D01*
X256741371Y-102438488D01*
X256747776Y-102377846D01*
X256756925Y-102336852D01*
X256763595Y-102321202D01*
X256812143Y-102251499D01*
X256882291Y-102193363D01*
X256964326Y-102155299D01*
X257007116Y-102144904D01*
X257109070Y-102140172D01*
X257199915Y-102164243D01*
X257277153Y-102214438D01*
X257338289Y-102288077D01*
X257380826Y-102382483D01*
X257393571Y-102449347D01*
X257402267Y-102494977D01*
X257400116Y-102622879D01*
G37*
X257400116Y-102622879D02*
X257399836Y-102625394D01*
X257375809Y-102742755D01*
X257332399Y-102834002D01*
X257268253Y-102901141D01*
X257182019Y-102946174D01*
X257166189Y-102951324D01*
X257068073Y-102966501D01*
X256966598Y-102958038D01*
X256872259Y-102927795D01*
X256795549Y-102877635D01*
X256738090Y-102824547D01*
X256799166Y-102776254D01*
X256860241Y-102727961D01*
X256933847Y-102763721D01*
X257019015Y-102792697D01*
X257094201Y-102793565D01*
X257155716Y-102766942D01*
X257199983Y-102713505D01*
X257215852Y-102681486D01*
X257224711Y-102654121D01*
X257219585Y-102635635D01*
X257196587Y-102624288D01*
X257151831Y-102618337D01*
X257081429Y-102616043D01*
X256981493Y-102615666D01*
X256739190Y-102615666D01*
X256739190Y-102499780D01*
X256741000Y-102448905D01*
X256911606Y-102448905D01*
X256919800Y-102458262D01*
X256944060Y-102463133D01*
X256990172Y-102464980D01*
X257063919Y-102465271D01*
X257103466Y-102464807D01*
X257165871Y-102461738D01*
X257208203Y-102456363D01*
X257223795Y-102449347D01*
X257219806Y-102423458D01*
X257191688Y-102373920D01*
X257144832Y-102333225D01*
X257088974Y-102308645D01*
X257033851Y-102307455D01*
X256992358Y-102327165D01*
X256945340Y-102372018D01*
X256915445Y-102427672D01*
X256913694Y-102433595D01*
X256911606Y-102448905D01*
X256741000Y-102448905D01*
X256741371Y-102438488D01*
X256747776Y-102377846D01*
X256756925Y-102336852D01*
X256763595Y-102321202D01*
X256812143Y-102251499D01*
X256882291Y-102193363D01*
X256964326Y-102155299D01*
X257007116Y-102144904D01*
X257109070Y-102140172D01*
X257199915Y-102164243D01*
X257277153Y-102214438D01*
X257338289Y-102288077D01*
X257380826Y-102382483D01*
X257393571Y-102449347D01*
X257402267Y-102494977D01*
X257400116Y-102622879D01*
X261567943Y-102161576D02*
X261526354Y-102181440D01*
X261526354Y-102181440D02*
X261486075Y-102210134D01*
X261486075Y-102210134D02*
X261455390Y-102243159D01*
X261455390Y-102243159D02*
X261433039Y-102285281D01*
X261433039Y-102285281D02*
X261417764Y-102341265D01*
X261417764Y-102341265D02*
X261408308Y-102415878D01*
X261408308Y-102415878D02*
X261403413Y-102513885D01*
X261403413Y-102513885D02*
X261401819Y-102640052D01*
X261401819Y-102640052D02*
X261401794Y-102653264D01*
X261401794Y-102653264D02*
X261401427Y-102949876D01*
X261401427Y-102949876D02*
X261585243Y-102949876D01*
X261585243Y-102949876D02*
X261585243Y-102676431D01*
X261585243Y-102676431D02*
X261585373Y-102575127D01*
X261585373Y-102575127D02*
X261586279Y-102501703D01*
X261586279Y-102501703D02*
X261588727Y-102450621D01*
X261588727Y-102450621D02*
X261593486Y-102416340D01*
X261593486Y-102416340D02*
X261601326Y-102393321D01*
X261601326Y-102393321D02*
X261613015Y-102376023D01*
X261613015Y-102376023D02*
X261629298Y-102358931D01*
X261629298Y-102358931D02*
X261686266Y-102322207D01*
X261686266Y-102322207D02*
X261748455Y-102315392D01*
X261748455Y-102315392D02*
X261807701Y-102338611D01*
X261807701Y-102338611D02*
X261828305Y-102355893D01*
X261828305Y-102355893D02*
X261843430Y-102372141D01*
X261843430Y-102372141D02*
X261854290Y-102389541D01*
X261854290Y-102389541D02*
X261861590Y-102413562D01*
X261861590Y-102413562D02*
X261866037Y-102449672D01*
X261866037Y-102449672D02*
X261868336Y-102503338D01*
X261868336Y-102503338D02*
X261869196Y-102580030D01*
X261869196Y-102580030D02*
X261869322Y-102673393D01*
X261869322Y-102673393D02*
X261869322Y-102949876D01*
X261869322Y-102949876D02*
X262053137Y-102949876D01*
X262053137Y-102949876D02*
X262053137Y-102147771D01*
X262053137Y-102147771D02*
X261961229Y-102147771D01*
X261961229Y-102147771D02*
X261906049Y-102149953D01*
X261906049Y-102149953D02*
X261877580Y-102157701D01*
X261877580Y-102157701D02*
X261869325Y-102172818D01*
X261869325Y-102172818D02*
X261869322Y-102173266D01*
X261869322Y-102173266D02*
X261865492Y-102188070D01*
X261865492Y-102188070D02*
X261848599Y-102186390D01*
X261848599Y-102186390D02*
X261815012Y-102170123D01*
X261815012Y-102170123D02*
X261738837Y-102146190D01*
X261738837Y-102146190D02*
X261651700Y-102143528D01*
X261651700Y-102143528D02*
X261567943Y-102161576D01*
X261567943Y-102161576D02*
X261567943Y-102161576D01*
G36*
X261738837Y-102146190D02*
G01*
X261815012Y-102170123D01*
X261848599Y-102186390D01*
X261865492Y-102188070D01*
X261869322Y-102173266D01*
X261869325Y-102172818D01*
X261877580Y-102157701D01*
X261906049Y-102149953D01*
X261961229Y-102147771D01*
X262053137Y-102147771D01*
X262053137Y-102949876D01*
X261869322Y-102949876D01*
X261869322Y-102673393D01*
X261869196Y-102580030D01*
X261868336Y-102503338D01*
X261866037Y-102449672D01*
X261861590Y-102413562D01*
X261854290Y-102389541D01*
X261843430Y-102372141D01*
X261828305Y-102355893D01*
X261807701Y-102338611D01*
X261748455Y-102315392D01*
X261686266Y-102322207D01*
X261629298Y-102358931D01*
X261613015Y-102376023D01*
X261601326Y-102393321D01*
X261593486Y-102416340D01*
X261588727Y-102450621D01*
X261586279Y-102501703D01*
X261585373Y-102575127D01*
X261585243Y-102676431D01*
X261585243Y-102949876D01*
X261401427Y-102949876D01*
X261401794Y-102653264D01*
X261401819Y-102640052D01*
X261403413Y-102513885D01*
X261408308Y-102415878D01*
X261417764Y-102341265D01*
X261433039Y-102285281D01*
X261455390Y-102243159D01*
X261486075Y-102210134D01*
X261526354Y-102181440D01*
X261567943Y-102161576D01*
X261651700Y-102143528D01*
X261738837Y-102146190D01*
G37*
X261738837Y-102146190D02*
X261815012Y-102170123D01*
X261848599Y-102186390D01*
X261865492Y-102188070D01*
X261869322Y-102173266D01*
X261869325Y-102172818D01*
X261877580Y-102157701D01*
X261906049Y-102149953D01*
X261961229Y-102147771D01*
X262053137Y-102147771D01*
X262053137Y-102949876D01*
X261869322Y-102949876D01*
X261869322Y-102673393D01*
X261869196Y-102580030D01*
X261868336Y-102503338D01*
X261866037Y-102449672D01*
X261861590Y-102413562D01*
X261854290Y-102389541D01*
X261843430Y-102372141D01*
X261828305Y-102355893D01*
X261807701Y-102338611D01*
X261748455Y-102315392D01*
X261686266Y-102322207D01*
X261629298Y-102358931D01*
X261613015Y-102376023D01*
X261601326Y-102393321D01*
X261593486Y-102416340D01*
X261588727Y-102450621D01*
X261586279Y-102501703D01*
X261585373Y-102575127D01*
X261585243Y-102676431D01*
X261585243Y-102949876D01*
X261401427Y-102949876D01*
X261401794Y-102653264D01*
X261401819Y-102640052D01*
X261403413Y-102513885D01*
X261408308Y-102415878D01*
X261417764Y-102341265D01*
X261433039Y-102285281D01*
X261455390Y-102243159D01*
X261486075Y-102210134D01*
X261526354Y-102181440D01*
X261567943Y-102161576D01*
X261651700Y-102143528D01*
X261738837Y-102146190D01*
X258174512Y-102146995D02*
X258117035Y-102164556D01*
X258117035Y-102164556D02*
X258080028Y-102186745D01*
X258080028Y-102186745D02*
X258067973Y-102204292D01*
X258067973Y-102204292D02*
X258071291Y-102225092D01*
X258071291Y-102225092D02*
X258092821Y-102257769D01*
X258092821Y-102257769D02*
X258111026Y-102280912D01*
X258111026Y-102280912D02*
X258148556Y-102322752D01*
X258148556Y-102322752D02*
X258176752Y-102340355D01*
X258176752Y-102340355D02*
X258200789Y-102339206D01*
X258200789Y-102339206D02*
X258272092Y-102321060D01*
X258272092Y-102321060D02*
X258324458Y-102321884D01*
X258324458Y-102321884D02*
X258366982Y-102342448D01*
X258366982Y-102342448D02*
X258381258Y-102354484D01*
X258381258Y-102354484D02*
X258426953Y-102396833D01*
X258426953Y-102396833D02*
X258426953Y-102949876D01*
X258426953Y-102949876D02*
X258610769Y-102949876D01*
X258610769Y-102949876D02*
X258610769Y-102147771D01*
X258610769Y-102147771D02*
X258518861Y-102147771D01*
X258518861Y-102147771D02*
X258463681Y-102149953D01*
X258463681Y-102149953D02*
X258435212Y-102157701D01*
X258435212Y-102157701D02*
X258426957Y-102172818D01*
X258426957Y-102172818D02*
X258426953Y-102173266D01*
X258426953Y-102173266D02*
X258423055Y-102189099D01*
X258423055Y-102189099D02*
X258405426Y-102187034D01*
X258405426Y-102187034D02*
X258380999Y-102175611D01*
X258380999Y-102175611D02*
X258330550Y-102154355D01*
X258330550Y-102154355D02*
X258289584Y-102141566D01*
X258289584Y-102141566D02*
X258236872Y-102138288D01*
X258236872Y-102138288D02*
X258174512Y-102146995D01*
X258174512Y-102146995D02*
X258174512Y-102146995D01*
G36*
X258289584Y-102141566D02*
G01*
X258330550Y-102154355D01*
X258380999Y-102175611D01*
X258405426Y-102187034D01*
X258423055Y-102189099D01*
X258426953Y-102173266D01*
X258426957Y-102172818D01*
X258435212Y-102157701D01*
X258463681Y-102149953D01*
X258518861Y-102147771D01*
X258610769Y-102147771D01*
X258610769Y-102949876D01*
X258426953Y-102949876D01*
X258426953Y-102396833D01*
X258381258Y-102354484D01*
X258366982Y-102342448D01*
X258324458Y-102321884D01*
X258272092Y-102321060D01*
X258200789Y-102339206D01*
X258176752Y-102340355D01*
X258148556Y-102322752D01*
X258111026Y-102280912D01*
X258092821Y-102257769D01*
X258071291Y-102225092D01*
X258067973Y-102204292D01*
X258080028Y-102186745D01*
X258117035Y-102164556D01*
X258174512Y-102146995D01*
X258236872Y-102138288D01*
X258289584Y-102141566D01*
G37*
X258289584Y-102141566D02*
X258330550Y-102154355D01*
X258380999Y-102175611D01*
X258405426Y-102187034D01*
X258423055Y-102189099D01*
X258426953Y-102173266D01*
X258426957Y-102172818D01*
X258435212Y-102157701D01*
X258463681Y-102149953D01*
X258518861Y-102147771D01*
X258610769Y-102147771D01*
X258610769Y-102949876D01*
X258426953Y-102949876D01*
X258426953Y-102396833D01*
X258381258Y-102354484D01*
X258366982Y-102342448D01*
X258324458Y-102321884D01*
X258272092Y-102321060D01*
X258200789Y-102339206D01*
X258176752Y-102340355D01*
X258148556Y-102322752D01*
X258111026Y-102280912D01*
X258092821Y-102257769D01*
X258071291Y-102225092D01*
X258067973Y-102204292D01*
X258080028Y-102186745D01*
X258117035Y-102164556D01*
X258174512Y-102146995D01*
X258236872Y-102138288D01*
X258289584Y-102141566D01*
X260064936Y-96607926D02*
X259989387Y-97008672D01*
X259989387Y-97008672D02*
X259431859Y-97238504D01*
X259431859Y-97238504D02*
X259097435Y-97011098D01*
X259097435Y-97011098D02*
X259003778Y-96947781D01*
X259003778Y-96947781D02*
X258919118Y-96891246D01*
X258919118Y-96891246D02*
X258847405Y-96844077D01*
X258847405Y-96844077D02*
X258792589Y-96808852D01*
X258792589Y-96808852D02*
X258758620Y-96788155D01*
X258758620Y-96788155D02*
X258749370Y-96783692D01*
X258749370Y-96783692D02*
X258732705Y-96795170D01*
X258732705Y-96795170D02*
X258697094Y-96826901D01*
X258697094Y-96826901D02*
X258646529Y-96874833D01*
X258646529Y-96874833D02*
X258585000Y-96934912D01*
X258585000Y-96934912D02*
X258516501Y-97003083D01*
X258516501Y-97003083D02*
X258445021Y-97075295D01*
X258445021Y-97075295D02*
X258374553Y-97147492D01*
X258374553Y-97147492D02*
X258309089Y-97215623D01*
X258309089Y-97215623D02*
X258252620Y-97275633D01*
X258252620Y-97275633D02*
X258209137Y-97323469D01*
X258209137Y-97323469D02*
X258182632Y-97355077D01*
X258182632Y-97355077D02*
X258176295Y-97365655D01*
X258176295Y-97365655D02*
X258185414Y-97385156D01*
X258185414Y-97385156D02*
X258210980Y-97427881D01*
X258210980Y-97427881D02*
X258250303Y-97489648D01*
X258250303Y-97489648D02*
X258300697Y-97566281D01*
X258300697Y-97566281D02*
X258359473Y-97653598D01*
X258359473Y-97653598D02*
X258393532Y-97703402D01*
X258393532Y-97703402D02*
X258455611Y-97794343D01*
X258455611Y-97794343D02*
X258510774Y-97876409D01*
X258510774Y-97876409D02*
X258556346Y-97945513D01*
X258556346Y-97945513D02*
X258589650Y-97997572D01*
X258589650Y-97997572D02*
X258608010Y-98028500D01*
X258608010Y-98028500D02*
X258610769Y-98035000D01*
X258610769Y-98035000D02*
X258604515Y-98053471D01*
X258604515Y-98053471D02*
X258587466Y-98096522D01*
X258587466Y-98096522D02*
X258562197Y-98158099D01*
X258562197Y-98158099D02*
X258531278Y-98232149D01*
X258531278Y-98232149D02*
X258497282Y-98312620D01*
X258497282Y-98312620D02*
X258462782Y-98393457D01*
X258462782Y-98393457D02*
X258430349Y-98468608D01*
X258430349Y-98468608D02*
X258402557Y-98532021D01*
X258402557Y-98532021D02*
X258381977Y-98577643D01*
X258381977Y-98577643D02*
X258371181Y-98599419D01*
X258371181Y-98599419D02*
X258370544Y-98600276D01*
X258370544Y-98600276D02*
X258353593Y-98604434D01*
X258353593Y-98604434D02*
X258308449Y-98613711D01*
X258308449Y-98613711D02*
X258239790Y-98627194D01*
X258239790Y-98627194D02*
X258152298Y-98643971D01*
X258152298Y-98643971D02*
X258050650Y-98663131D01*
X258050650Y-98663131D02*
X257991344Y-98674180D01*
X257991344Y-98674180D02*
X257882728Y-98694860D01*
X257882728Y-98694860D02*
X257784623Y-98714539D01*
X257784623Y-98714539D02*
X257701991Y-98732139D01*
X257701991Y-98732139D02*
X257639796Y-98746583D01*
X257639796Y-98746583D02*
X257603001Y-98756796D01*
X257603001Y-98756796D02*
X257595604Y-98760036D01*
X257595604Y-98760036D02*
X257588360Y-98781967D01*
X257588360Y-98781967D02*
X257582515Y-98831497D01*
X257582515Y-98831497D02*
X257578065Y-98902835D01*
X257578065Y-98902835D02*
X257575007Y-98990189D01*
X257575007Y-98990189D02*
X257573335Y-99087767D01*
X257573335Y-99087767D02*
X257573047Y-99189776D01*
X257573047Y-99189776D02*
X257574139Y-99290425D01*
X257574139Y-99290425D02*
X257576606Y-99383922D01*
X257576606Y-99383922D02*
X257580444Y-99464475D01*
X257580444Y-99464475D02*
X257585650Y-99526292D01*
X257585650Y-99526292D02*
X257592219Y-99563580D01*
X257592219Y-99563580D02*
X257596159Y-99571343D01*
X257596159Y-99571343D02*
X257619712Y-99580648D01*
X257619712Y-99580648D02*
X257669618Y-99593950D01*
X257669618Y-99593950D02*
X257739277Y-99609687D01*
X257739277Y-99609687D02*
X257822087Y-99626296D01*
X257822087Y-99626296D02*
X257850995Y-99631669D01*
X257850995Y-99631669D02*
X257990369Y-99657198D01*
X257990369Y-99657198D02*
X258100464Y-99677758D01*
X258100464Y-99677758D02*
X258184918Y-99694165D01*
X258184918Y-99694165D02*
X258247370Y-99707237D01*
X258247370Y-99707237D02*
X258291456Y-99717791D01*
X258291456Y-99717791D02*
X258320815Y-99726644D01*
X258320815Y-99726644D02*
X258339085Y-99734613D01*
X258339085Y-99734613D02*
X258349902Y-99742515D01*
X258349902Y-99742515D02*
X258351415Y-99744077D01*
X258351415Y-99744077D02*
X258366523Y-99769236D01*
X258366523Y-99769236D02*
X258389571Y-99818200D01*
X258389571Y-99818200D02*
X258418256Y-99884971D01*
X258418256Y-99884971D02*
X258450278Y-99963555D01*
X258450278Y-99963555D02*
X258483335Y-100047957D01*
X258483335Y-100047957D02*
X258515127Y-100132180D01*
X258515127Y-100132180D02*
X258543351Y-100210229D01*
X258543351Y-100210229D02*
X258565707Y-100276109D01*
X258565707Y-100276109D02*
X258579893Y-100323823D01*
X258579893Y-100323823D02*
X258583607Y-100347377D01*
X258583607Y-100347377D02*
X258583298Y-100348202D01*
X258583298Y-100348202D02*
X258570711Y-100367454D01*
X258570711Y-100367454D02*
X258542156Y-100409813D01*
X258542156Y-100409813D02*
X258500633Y-100470871D01*
X258500633Y-100470871D02*
X258449144Y-100546218D01*
X258449144Y-100546218D02*
X258390689Y-100631446D01*
X258390689Y-100631446D02*
X258374042Y-100655665D01*
X258374042Y-100655665D02*
X258314685Y-100743473D01*
X258314685Y-100743473D02*
X258262453Y-100823588D01*
X258262453Y-100823588D02*
X258220192Y-100891412D01*
X258220192Y-100891412D02*
X258190747Y-100942343D01*
X258190747Y-100942343D02*
X258176963Y-100971781D01*
X258176963Y-100971781D02*
X258176295Y-100975398D01*
X258176295Y-100975398D02*
X258187876Y-100994407D01*
X258187876Y-100994407D02*
X258219876Y-101032064D01*
X258219876Y-101032064D02*
X258268182Y-101084323D01*
X258268182Y-101084323D02*
X258328680Y-101147136D01*
X258328680Y-101147136D02*
X258397256Y-101216456D01*
X258397256Y-101216456D02*
X258469796Y-101288235D01*
X258469796Y-101288235D02*
X258542188Y-101358427D01*
X258542188Y-101358427D02*
X258610316Y-101422985D01*
X258610316Y-101422985D02*
X258670068Y-101477860D01*
X258670068Y-101477860D02*
X258717329Y-101519006D01*
X258717329Y-101519006D02*
X258747987Y-101542376D01*
X258747987Y-101542376D02*
X258756468Y-101546192D01*
X258756468Y-101546192D02*
X258776209Y-101537205D01*
X258776209Y-101537205D02*
X258816626Y-101512966D01*
X258816626Y-101512966D02*
X258871137Y-101477559D01*
X258871137Y-101477559D02*
X258913077Y-101449061D01*
X258913077Y-101449061D02*
X258989071Y-101396768D01*
X258989071Y-101396768D02*
X259079066Y-101335195D01*
X259079066Y-101335195D02*
X259169336Y-101273720D01*
X259169336Y-101273720D02*
X259217868Y-101240819D01*
X259217868Y-101240819D02*
X259382138Y-101129709D01*
X259382138Y-101129709D02*
X259520031Y-101204266D01*
X259520031Y-101204266D02*
X259582851Y-101236928D01*
X259582851Y-101236928D02*
X259636271Y-101262316D01*
X259636271Y-101262316D02*
X259672416Y-101276796D01*
X259672416Y-101276796D02*
X259681616Y-101278810D01*
X259681616Y-101278810D02*
X259692679Y-101263934D01*
X259692679Y-101263934D02*
X259714506Y-101221897D01*
X259714506Y-101221897D02*
X259745466Y-101156577D01*
X259745466Y-101156577D02*
X259783930Y-101071850D01*
X259783930Y-101071850D02*
X259828268Y-100971595D01*
X259828268Y-100971595D02*
X259876853Y-100859689D01*
X259876853Y-100859689D02*
X259928054Y-100740009D01*
X259928054Y-100740009D02*
X259980241Y-100616434D01*
X259980241Y-100616434D02*
X260031787Y-100492841D01*
X260031787Y-100492841D02*
X260081060Y-100373107D01*
X260081060Y-100373107D02*
X260126433Y-100261109D01*
X260126433Y-100261109D02*
X260166275Y-100160727D01*
X260166275Y-100160727D02*
X260198958Y-100075836D01*
X260198958Y-100075836D02*
X260222851Y-100010315D01*
X260222851Y-100010315D02*
X260236326Y-99968040D01*
X260236326Y-99968040D02*
X260238494Y-99953522D01*
X260238494Y-99953522D02*
X260221317Y-99935003D01*
X260221317Y-99935003D02*
X260183710Y-99904940D01*
X260183710Y-99904940D02*
X260133534Y-99869582D01*
X260133534Y-99869582D02*
X260129322Y-99866784D01*
X260129322Y-99866784D02*
X259999636Y-99762975D01*
X259999636Y-99762975D02*
X259895066Y-99641865D01*
X259895066Y-99641865D02*
X259816519Y-99507326D01*
X259816519Y-99507326D02*
X259764901Y-99363232D01*
X259764901Y-99363232D02*
X259741118Y-99213455D01*
X259741118Y-99213455D02*
X259746077Y-99061867D01*
X259746077Y-99061867D02*
X259780683Y-98912342D01*
X259780683Y-98912342D02*
X259845843Y-98768750D01*
X259845843Y-98768750D02*
X259865014Y-98737334D01*
X259865014Y-98737334D02*
X259964726Y-98610475D01*
X259964726Y-98610475D02*
X260082523Y-98508605D01*
X260082523Y-98508605D02*
X260214329Y-98432254D01*
X260214329Y-98432254D02*
X260356067Y-98381952D01*
X260356067Y-98381952D02*
X260503658Y-98358229D01*
X260503658Y-98358229D02*
X260653027Y-98361615D01*
X260653027Y-98361615D02*
X260800097Y-98392638D01*
X260800097Y-98392638D02*
X260940789Y-98451830D01*
X260940789Y-98451830D02*
X261071027Y-98539719D01*
X261071027Y-98539719D02*
X261111314Y-98575392D01*
X261111314Y-98575392D02*
X261213845Y-98687056D01*
X261213845Y-98687056D02*
X261288559Y-98804607D01*
X261288559Y-98804607D02*
X261339810Y-98936370D01*
X261339810Y-98936370D02*
X261368354Y-99066857D01*
X261368354Y-99066857D02*
X261375400Y-99213566D01*
X261375400Y-99213566D02*
X261351904Y-99361003D01*
X261351904Y-99361003D02*
X261300251Y-99504184D01*
X261300251Y-99504184D02*
X261222829Y-99638127D01*
X261222829Y-99638127D02*
X261122025Y-99757848D01*
X261122025Y-99757848D02*
X261000224Y-99858364D01*
X261000224Y-99858364D02*
X260984216Y-99868959D01*
X260984216Y-99868959D02*
X260933502Y-99903656D01*
X260933502Y-99903656D02*
X260894950Y-99933720D01*
X260894950Y-99933720D02*
X260876519Y-99952915D01*
X260876519Y-99952915D02*
X260876251Y-99953522D01*
X260876251Y-99953522D02*
X260880208Y-99974286D01*
X260880208Y-99974286D02*
X260895893Y-100021412D01*
X260895893Y-100021412D02*
X260921678Y-100091023D01*
X260921678Y-100091023D02*
X260955931Y-100179243D01*
X260955931Y-100179243D02*
X260997023Y-100282194D01*
X260997023Y-100282194D02*
X261043324Y-100396000D01*
X261043324Y-100396000D02*
X261093204Y-100516785D01*
X261093204Y-100516785D02*
X261145033Y-100640671D01*
X261145033Y-100640671D02*
X261197181Y-100763782D01*
X261197181Y-100763782D02*
X261248018Y-100882241D01*
X261248018Y-100882241D02*
X261295913Y-100992173D01*
X261295913Y-100992173D02*
X261339238Y-101089699D01*
X261339238Y-101089699D02*
X261376362Y-101170943D01*
X261376362Y-101170943D02*
X261405656Y-101232029D01*
X261405656Y-101232029D02*
X261425488Y-101269080D01*
X261425488Y-101269080D02*
X261433474Y-101278810D01*
X261433474Y-101278810D02*
X261457879Y-101271233D01*
X261457879Y-101271233D02*
X261503542Y-101250910D01*
X261503542Y-101250910D02*
X261562590Y-101221475D01*
X261562590Y-101221475D02*
X261595060Y-101204266D01*
X261595060Y-101204266D02*
X261732953Y-101129709D01*
X261732953Y-101129709D02*
X261897223Y-101240819D01*
X261897223Y-101240819D02*
X261981079Y-101297740D01*
X261981079Y-101297740D02*
X262072887Y-101360380D01*
X262072887Y-101360380D02*
X262158920Y-101419361D01*
X262158920Y-101419361D02*
X262202013Y-101449061D01*
X262202013Y-101449061D02*
X262262623Y-101489760D01*
X262262623Y-101489760D02*
X262313945Y-101522013D01*
X262313945Y-101522013D02*
X262349285Y-101541734D01*
X262349285Y-101541734D02*
X262360763Y-101545904D01*
X262360763Y-101545904D02*
X262377470Y-101534657D01*
X262377470Y-101534657D02*
X262414446Y-101503261D01*
X262414446Y-101503261D02*
X262468105Y-101454974D01*
X262468105Y-101454974D02*
X262534862Y-101393058D01*
X262534862Y-101393058D02*
X262611134Y-101320771D01*
X262611134Y-101320771D02*
X262659373Y-101274358D01*
X262659373Y-101274358D02*
X262743767Y-101191437D01*
X262743767Y-101191437D02*
X262816703Y-101117270D01*
X262816703Y-101117270D02*
X262875231Y-101055030D01*
X262875231Y-101055030D02*
X262916403Y-101007891D01*
X262916403Y-101007891D02*
X262937272Y-100979023D01*
X262937272Y-100979023D02*
X262939274Y-100973165D01*
X262939274Y-100973165D02*
X262929983Y-100950882D01*
X262929983Y-100950882D02*
X262904309Y-100905827D01*
X262904309Y-100905827D02*
X262865100Y-100842561D01*
X262865100Y-100842561D02*
X262815203Y-100765645D01*
X262815203Y-100765645D02*
X262757467Y-100679642D01*
X262757467Y-100679642D02*
X262741049Y-100655665D01*
X262741049Y-100655665D02*
X262681223Y-100568520D01*
X262681223Y-100568520D02*
X262627550Y-100490060D01*
X262627550Y-100490060D02*
X262583030Y-100424695D01*
X262583030Y-100424695D02*
X262550665Y-100376834D01*
X262550665Y-100376834D02*
X262533455Y-100350885D01*
X262533455Y-100350885D02*
X262531793Y-100348202D01*
X262531793Y-100348202D02*
X262534279Y-100327522D01*
X262534279Y-100327522D02*
X262547477Y-100282054D01*
X262547477Y-100282054D02*
X262569086Y-100217794D01*
X262569086Y-100217794D02*
X262596804Y-100140737D01*
X262596804Y-100140737D02*
X262628330Y-100056879D01*
X262628330Y-100056879D02*
X262661363Y-99972216D01*
X262661363Y-99972216D02*
X262693601Y-99892742D01*
X262693601Y-99892742D02*
X262722743Y-99824454D01*
X262722743Y-99824454D02*
X262746488Y-99773347D01*
X262746488Y-99773347D02*
X262762535Y-99745417D01*
X262762535Y-99745417D02*
X262763675Y-99744077D01*
X262763675Y-99744077D02*
X262773488Y-99736095D01*
X262773488Y-99736095D02*
X262790061Y-99728201D01*
X262790061Y-99728201D02*
X262817032Y-99719579D01*
X262817032Y-99719579D02*
X262858039Y-99709412D01*
X262858039Y-99709412D02*
X262916720Y-99696881D01*
X262916720Y-99696881D02*
X262996713Y-99681171D01*
X262996713Y-99681171D02*
X263101655Y-99661463D01*
X263101655Y-99661463D02*
X263235185Y-99636942D01*
X263235185Y-99636942D02*
X263264096Y-99631669D01*
X263264096Y-99631669D02*
X263349782Y-99615114D01*
X263349782Y-99615114D02*
X263424482Y-99598919D01*
X263424482Y-99598919D02*
X263481594Y-99584646D01*
X263481594Y-99584646D02*
X263514517Y-99573858D01*
X263514517Y-99573858D02*
X263518931Y-99571343D01*
X263518931Y-99571343D02*
X263526206Y-99549046D01*
X263526206Y-99549046D02*
X263532119Y-99499219D01*
X263532119Y-99499219D02*
X263536666Y-99427654D01*
X263536666Y-99427654D02*
X263539845Y-99340143D01*
X263539845Y-99340143D02*
X263541649Y-99242478D01*
X263541649Y-99242478D02*
X263542077Y-99140451D01*
X263542077Y-99140451D02*
X263541123Y-99039853D01*
X263541123Y-99039853D02*
X263538784Y-98946477D01*
X263538784Y-98946477D02*
X263535056Y-98866115D01*
X263535056Y-98866115D02*
X263529934Y-98804559D01*
X263529934Y-98804559D02*
X263523416Y-98767600D01*
X263523416Y-98767600D02*
X263519486Y-98760036D01*
X263519486Y-98760036D02*
X263497608Y-98752406D01*
X263497608Y-98752406D02*
X263447791Y-98739992D01*
X263447791Y-98739992D02*
X263374997Y-98723872D01*
X263374997Y-98723872D02*
X263284189Y-98705123D01*
X263284189Y-98705123D02*
X263180331Y-98684821D01*
X263180331Y-98684821D02*
X263123746Y-98674180D01*
X263123746Y-98674180D02*
X263016386Y-98654110D01*
X263016386Y-98654110D02*
X262920646Y-98635930D01*
X262920646Y-98635930D02*
X262841206Y-98620549D01*
X262841206Y-98620549D02*
X262782746Y-98608881D01*
X262782746Y-98608881D02*
X262749945Y-98601838D01*
X262749945Y-98601838D02*
X262744546Y-98600276D01*
X262744546Y-98600276D02*
X262735422Y-98582672D01*
X262735422Y-98582672D02*
X262716135Y-98540268D01*
X262716135Y-98540268D02*
X262689255Y-98479122D01*
X262689255Y-98479122D02*
X262657354Y-98405293D01*
X262657354Y-98405293D02*
X262623002Y-98324839D01*
X262623002Y-98324839D02*
X262588771Y-98243818D01*
X262588771Y-98243818D02*
X262557231Y-98168287D01*
X262557231Y-98168287D02*
X262530954Y-98104305D01*
X262530954Y-98104305D02*
X262512511Y-98057930D01*
X262512511Y-98057930D02*
X262504471Y-98035219D01*
X262504471Y-98035219D02*
X262504322Y-98034226D01*
X262504322Y-98034226D02*
X262513435Y-98016311D01*
X262513435Y-98016311D02*
X262538986Y-97975083D01*
X262538986Y-97975083D02*
X262578288Y-97914641D01*
X262578288Y-97914641D02*
X262628657Y-97839081D01*
X262628657Y-97839081D02*
X262687406Y-97752502D01*
X262687406Y-97752502D02*
X262721558Y-97702771D01*
X262721558Y-97702771D02*
X262783790Y-97611586D01*
X262783790Y-97611586D02*
X262839064Y-97528799D01*
X262839064Y-97528799D02*
X262884682Y-97458599D01*
X262884682Y-97458599D02*
X262917948Y-97405174D01*
X262917948Y-97405174D02*
X262936164Y-97372711D01*
X262936164Y-97372711D02*
X262938795Y-97365433D01*
X262938795Y-97365433D02*
X262927486Y-97348495D01*
X262927486Y-97348495D02*
X262896219Y-97312328D01*
X262896219Y-97312328D02*
X262848990Y-97260985D01*
X262848990Y-97260985D02*
X262789792Y-97198517D01*
X262789792Y-97198517D02*
X262722619Y-97128976D01*
X262722619Y-97128976D02*
X262651466Y-97056415D01*
X262651466Y-97056415D02*
X262580326Y-96984885D01*
X262580326Y-96984885D02*
X262513193Y-96918437D01*
X262513193Y-96918437D02*
X262454061Y-96861124D01*
X262454061Y-96861124D02*
X262406925Y-96816997D01*
X262406925Y-96816997D02*
X262375777Y-96790109D01*
X262375777Y-96790109D02*
X262365357Y-96783692D01*
X262365357Y-96783692D02*
X262348391Y-96792715D01*
X262348391Y-96792715D02*
X262307811Y-96818065D01*
X262307811Y-96818065D02*
X262247563Y-96857160D01*
X262247563Y-96857160D02*
X262171593Y-96907421D01*
X262171593Y-96907421D02*
X262083846Y-96966267D01*
X262083846Y-96966267D02*
X262017656Y-97011098D01*
X262017656Y-97011098D02*
X261683232Y-97238504D01*
X261683232Y-97238504D02*
X261404467Y-97123588D01*
X261404467Y-97123588D02*
X261125703Y-97008672D01*
X261125703Y-97008672D02*
X261050154Y-96607926D01*
X261050154Y-96607926D02*
X260974606Y-96207179D01*
X260974606Y-96207179D02*
X260140485Y-96207179D01*
X260140485Y-96207179D02*
X260064936Y-96607926D01*
X260064936Y-96607926D02*
X260064936Y-96607926D01*
G36*
X261050154Y-96607926D02*
G01*
X261125703Y-97008672D01*
X261404467Y-97123588D01*
X261683232Y-97238504D01*
X262017656Y-97011098D01*
X262083846Y-96966267D01*
X262171593Y-96907421D01*
X262247563Y-96857160D01*
X262307811Y-96818065D01*
X262348391Y-96792715D01*
X262365357Y-96783692D01*
X262375777Y-96790109D01*
X262406925Y-96816997D01*
X262454061Y-96861124D01*
X262513193Y-96918437D01*
X262580326Y-96984885D01*
X262651466Y-97056415D01*
X262722619Y-97128976D01*
X262789792Y-97198517D01*
X262848990Y-97260985D01*
X262896219Y-97312328D01*
X262927486Y-97348495D01*
X262938795Y-97365433D01*
X262936164Y-97372711D01*
X262917948Y-97405174D01*
X262884682Y-97458599D01*
X262839064Y-97528799D01*
X262783790Y-97611586D01*
X262721558Y-97702771D01*
X262687406Y-97752502D01*
X262628657Y-97839081D01*
X262578288Y-97914641D01*
X262538986Y-97975083D01*
X262513435Y-98016311D01*
X262504322Y-98034226D01*
X262504471Y-98035219D01*
X262512511Y-98057930D01*
X262530954Y-98104305D01*
X262557231Y-98168287D01*
X262588771Y-98243818D01*
X262623002Y-98324839D01*
X262657354Y-98405293D01*
X262689255Y-98479122D01*
X262716135Y-98540268D01*
X262735422Y-98582672D01*
X262744546Y-98600276D01*
X262749945Y-98601838D01*
X262782746Y-98608881D01*
X262841206Y-98620549D01*
X262920646Y-98635930D01*
X263016386Y-98654110D01*
X263123746Y-98674180D01*
X263180331Y-98684821D01*
X263284189Y-98705123D01*
X263374997Y-98723872D01*
X263447791Y-98739992D01*
X263497608Y-98752406D01*
X263519486Y-98760036D01*
X263523416Y-98767600D01*
X263529934Y-98804559D01*
X263535056Y-98866115D01*
X263538784Y-98946477D01*
X263541123Y-99039853D01*
X263542077Y-99140451D01*
X263541649Y-99242478D01*
X263539845Y-99340143D01*
X263536666Y-99427654D01*
X263532119Y-99499219D01*
X263526206Y-99549046D01*
X263518931Y-99571343D01*
X263514517Y-99573858D01*
X263481594Y-99584646D01*
X263424482Y-99598919D01*
X263349782Y-99615114D01*
X263264096Y-99631669D01*
X263235185Y-99636942D01*
X263101655Y-99661463D01*
X262996713Y-99681171D01*
X262916720Y-99696881D01*
X262858039Y-99709412D01*
X262817032Y-99719579D01*
X262790061Y-99728201D01*
X262773488Y-99736095D01*
X262763675Y-99744077D01*
X262762535Y-99745417D01*
X262746488Y-99773347D01*
X262722743Y-99824454D01*
X262693601Y-99892742D01*
X262661363Y-99972216D01*
X262628330Y-100056879D01*
X262596804Y-100140737D01*
X262569086Y-100217794D01*
X262547477Y-100282054D01*
X262534279Y-100327522D01*
X262531793Y-100348202D01*
X262533455Y-100350885D01*
X262550665Y-100376834D01*
X262583030Y-100424695D01*
X262627550Y-100490060D01*
X262681223Y-100568520D01*
X262741049Y-100655665D01*
X262757467Y-100679642D01*
X262815203Y-100765645D01*
X262865100Y-100842561D01*
X262904309Y-100905827D01*
X262929983Y-100950882D01*
X262939274Y-100973165D01*
X262937272Y-100979023D01*
X262916403Y-101007891D01*
X262875231Y-101055030D01*
X262816703Y-101117270D01*
X262743767Y-101191437D01*
X262659373Y-101274358D01*
X262611134Y-101320771D01*
X262534862Y-101393058D01*
X262468105Y-101454974D01*
X262414446Y-101503261D01*
X262377470Y-101534657D01*
X262360763Y-101545904D01*
X262349285Y-101541734D01*
X262313945Y-101522013D01*
X262262623Y-101489760D01*
X262202013Y-101449061D01*
X262158920Y-101419361D01*
X262072887Y-101360380D01*
X261981079Y-101297740D01*
X261897223Y-101240819D01*
X261732953Y-101129709D01*
X261595060Y-101204266D01*
X261562590Y-101221475D01*
X261503542Y-101250910D01*
X261457879Y-101271233D01*
X261433474Y-101278810D01*
X261425488Y-101269080D01*
X261405656Y-101232029D01*
X261376362Y-101170943D01*
X261339238Y-101089699D01*
X261295913Y-100992173D01*
X261248018Y-100882241D01*
X261197181Y-100763782D01*
X261145033Y-100640671D01*
X261093204Y-100516785D01*
X261043324Y-100396000D01*
X260997023Y-100282194D01*
X260955931Y-100179243D01*
X260921678Y-100091023D01*
X260895893Y-100021412D01*
X260880208Y-99974286D01*
X260876251Y-99953522D01*
X260876519Y-99952915D01*
X260894950Y-99933720D01*
X260933502Y-99903656D01*
X260984216Y-99868959D01*
X261000224Y-99858364D01*
X261122025Y-99757848D01*
X261222829Y-99638127D01*
X261300251Y-99504184D01*
X261351904Y-99361003D01*
X261375400Y-99213566D01*
X261368354Y-99066857D01*
X261339810Y-98936370D01*
X261288559Y-98804607D01*
X261213845Y-98687056D01*
X261111314Y-98575392D01*
X261071027Y-98539719D01*
X260940789Y-98451830D01*
X260800097Y-98392638D01*
X260653027Y-98361615D01*
X260503658Y-98358229D01*
X260356067Y-98381952D01*
X260214329Y-98432254D01*
X260082523Y-98508605D01*
X259964726Y-98610475D01*
X259865014Y-98737334D01*
X259845843Y-98768750D01*
X259780683Y-98912342D01*
X259746077Y-99061867D01*
X259741118Y-99213455D01*
X259764901Y-99363232D01*
X259816519Y-99507326D01*
X259895066Y-99641865D01*
X259999636Y-99762975D01*
X260129322Y-99866784D01*
X260133534Y-99869582D01*
X260183710Y-99904940D01*
X260221317Y-99935003D01*
X260238494Y-99953522D01*
X260236326Y-99968040D01*
X260222851Y-100010315D01*
X260198958Y-100075836D01*
X260166275Y-100160727D01*
X260126433Y-100261109D01*
X260081060Y-100373107D01*
X260031787Y-100492841D01*
X259980241Y-100616434D01*
X259928054Y-100740009D01*
X259876853Y-100859689D01*
X259828268Y-100971595D01*
X259783930Y-101071850D01*
X259745466Y-101156577D01*
X259714506Y-101221897D01*
X259692679Y-101263934D01*
X259681616Y-101278810D01*
X259672416Y-101276796D01*
X259636271Y-101262316D01*
X259582851Y-101236928D01*
X259520031Y-101204266D01*
X259382138Y-101129709D01*
X259217868Y-101240819D01*
X259169336Y-101273720D01*
X259079066Y-101335195D01*
X258989071Y-101396768D01*
X258913077Y-101449061D01*
X258871137Y-101477559D01*
X258816626Y-101512966D01*
X258776209Y-101537205D01*
X258756468Y-101546192D01*
X258747987Y-101542376D01*
X258717329Y-101519006D01*
X258670068Y-101477860D01*
X258610316Y-101422985D01*
X258542188Y-101358427D01*
X258469796Y-101288235D01*
X258397256Y-101216456D01*
X258328680Y-101147136D01*
X258268182Y-101084323D01*
X258219876Y-101032064D01*
X258187876Y-100994407D01*
X258176295Y-100975398D01*
X258176963Y-100971781D01*
X258190747Y-100942343D01*
X258220192Y-100891412D01*
X258262453Y-100823588D01*
X258314685Y-100743473D01*
X258374042Y-100655665D01*
X258390689Y-100631446D01*
X258449144Y-100546218D01*
X258500633Y-100470871D01*
X258542156Y-100409813D01*
X258570711Y-100367454D01*
X258583298Y-100348202D01*
X258583607Y-100347377D01*
X258579893Y-100323823D01*
X258565707Y-100276109D01*
X258543351Y-100210229D01*
X258515127Y-100132180D01*
X258483335Y-100047957D01*
X258450278Y-99963555D01*
X258418256Y-99884971D01*
X258389571Y-99818200D01*
X258366523Y-99769236D01*
X258351415Y-99744077D01*
X258349902Y-99742515D01*
X258339085Y-99734613D01*
X258320815Y-99726644D01*
X258291456Y-99717791D01*
X258247370Y-99707237D01*
X258184918Y-99694165D01*
X258100464Y-99677758D01*
X257990369Y-99657198D01*
X257850995Y-99631669D01*
X257822087Y-99626296D01*
X257739277Y-99609687D01*
X257669618Y-99593950D01*
X257619712Y-99580648D01*
X257596159Y-99571343D01*
X257592219Y-99563580D01*
X257585650Y-99526292D01*
X257580444Y-99464475D01*
X257576606Y-99383922D01*
X257574139Y-99290425D01*
X257573047Y-99189776D01*
X257573335Y-99087767D01*
X257575007Y-98990189D01*
X257578065Y-98902835D01*
X257582515Y-98831497D01*
X257588360Y-98781967D01*
X257595604Y-98760036D01*
X257603001Y-98756796D01*
X257639796Y-98746583D01*
X257701991Y-98732139D01*
X257784623Y-98714539D01*
X257882728Y-98694860D01*
X257991344Y-98674180D01*
X258050650Y-98663131D01*
X258152298Y-98643971D01*
X258239790Y-98627194D01*
X258308449Y-98613711D01*
X258353593Y-98604434D01*
X258370544Y-98600276D01*
X258371181Y-98599419D01*
X258381977Y-98577643D01*
X258402557Y-98532021D01*
X258430349Y-98468608D01*
X258462782Y-98393457D01*
X258497282Y-98312620D01*
X258531278Y-98232149D01*
X258562197Y-98158099D01*
X258587466Y-98096522D01*
X258604515Y-98053471D01*
X258610769Y-98035000D01*
X258608010Y-98028500D01*
X258589650Y-97997572D01*
X258556346Y-97945513D01*
X258510774Y-97876409D01*
X258455611Y-97794343D01*
X258393532Y-97703402D01*
X258359473Y-97653598D01*
X258300697Y-97566281D01*
X258250303Y-97489648D01*
X258210980Y-97427881D01*
X258185414Y-97385156D01*
X258176295Y-97365655D01*
X258182632Y-97355077D01*
X258209137Y-97323469D01*
X258252620Y-97275633D01*
X258309089Y-97215623D01*
X258374553Y-97147492D01*
X258445021Y-97075295D01*
X258516501Y-97003083D01*
X258585000Y-96934912D01*
X258646529Y-96874833D01*
X258697094Y-96826901D01*
X258732705Y-96795170D01*
X258749370Y-96783692D01*
X258758620Y-96788155D01*
X258792589Y-96808852D01*
X258847405Y-96844077D01*
X258919118Y-96891246D01*
X259003778Y-96947781D01*
X259097435Y-97011098D01*
X259431859Y-97238504D01*
X259989387Y-97008672D01*
X260064936Y-96607926D01*
X260140485Y-96207179D01*
X260974606Y-96207179D01*
X261050154Y-96607926D01*
G37*
X261050154Y-96607926D02*
X261125703Y-97008672D01*
X261404467Y-97123588D01*
X261683232Y-97238504D01*
X262017656Y-97011098D01*
X262083846Y-96966267D01*
X262171593Y-96907421D01*
X262247563Y-96857160D01*
X262307811Y-96818065D01*
X262348391Y-96792715D01*
X262365357Y-96783692D01*
X262375777Y-96790109D01*
X262406925Y-96816997D01*
X262454061Y-96861124D01*
X262513193Y-96918437D01*
X262580326Y-96984885D01*
X262651466Y-97056415D01*
X262722619Y-97128976D01*
X262789792Y-97198517D01*
X262848990Y-97260985D01*
X262896219Y-97312328D01*
X262927486Y-97348495D01*
X262938795Y-97365433D01*
X262936164Y-97372711D01*
X262917948Y-97405174D01*
X262884682Y-97458599D01*
X262839064Y-97528799D01*
X262783790Y-97611586D01*
X262721558Y-97702771D01*
X262687406Y-97752502D01*
X262628657Y-97839081D01*
X262578288Y-97914641D01*
X262538986Y-97975083D01*
X262513435Y-98016311D01*
X262504322Y-98034226D01*
X262504471Y-98035219D01*
X262512511Y-98057930D01*
X262530954Y-98104305D01*
X262557231Y-98168287D01*
X262588771Y-98243818D01*
X262623002Y-98324839D01*
X262657354Y-98405293D01*
X262689255Y-98479122D01*
X262716135Y-98540268D01*
X262735422Y-98582672D01*
X262744546Y-98600276D01*
X262749945Y-98601838D01*
X262782746Y-98608881D01*
X262841206Y-98620549D01*
X262920646Y-98635930D01*
X263016386Y-98654110D01*
X263123746Y-98674180D01*
X263180331Y-98684821D01*
X263284189Y-98705123D01*
X263374997Y-98723872D01*
X263447791Y-98739992D01*
X263497608Y-98752406D01*
X263519486Y-98760036D01*
X263523416Y-98767600D01*
X263529934Y-98804559D01*
X263535056Y-98866115D01*
X263538784Y-98946477D01*
X263541123Y-99039853D01*
X263542077Y-99140451D01*
X263541649Y-99242478D01*
X263539845Y-99340143D01*
X263536666Y-99427654D01*
X263532119Y-99499219D01*
X263526206Y-99549046D01*
X263518931Y-99571343D01*
X263514517Y-99573858D01*
X263481594Y-99584646D01*
X263424482Y-99598919D01*
X263349782Y-99615114D01*
X263264096Y-99631669D01*
X263235185Y-99636942D01*
X263101655Y-99661463D01*
X262996713Y-99681171D01*
X262916720Y-99696881D01*
X262858039Y-99709412D01*
X262817032Y-99719579D01*
X262790061Y-99728201D01*
X262773488Y-99736095D01*
X262763675Y-99744077D01*
X262762535Y-99745417D01*
X262746488Y-99773347D01*
X262722743Y-99824454D01*
X262693601Y-99892742D01*
X262661363Y-99972216D01*
X262628330Y-100056879D01*
X262596804Y-100140737D01*
X262569086Y-100217794D01*
X262547477Y-100282054D01*
X262534279Y-100327522D01*
X262531793Y-100348202D01*
X262533455Y-100350885D01*
X262550665Y-100376834D01*
X262583030Y-100424695D01*
X262627550Y-100490060D01*
X262681223Y-100568520D01*
X262741049Y-100655665D01*
X262757467Y-100679642D01*
X262815203Y-100765645D01*
X262865100Y-100842561D01*
X262904309Y-100905827D01*
X262929983Y-100950882D01*
X262939274Y-100973165D01*
X262937272Y-100979023D01*
X262916403Y-101007891D01*
X262875231Y-101055030D01*
X262816703Y-101117270D01*
X262743767Y-101191437D01*
X262659373Y-101274358D01*
X262611134Y-101320771D01*
X262534862Y-101393058D01*
X262468105Y-101454974D01*
X262414446Y-101503261D01*
X262377470Y-101534657D01*
X262360763Y-101545904D01*
X262349285Y-101541734D01*
X262313945Y-101522013D01*
X262262623Y-101489760D01*
X262202013Y-101449061D01*
X262158920Y-101419361D01*
X262072887Y-101360380D01*
X261981079Y-101297740D01*
X261897223Y-101240819D01*
X261732953Y-101129709D01*
X261595060Y-101204266D01*
X261562590Y-101221475D01*
X261503542Y-101250910D01*
X261457879Y-101271233D01*
X261433474Y-101278810D01*
X261425488Y-101269080D01*
X261405656Y-101232029D01*
X261376362Y-101170943D01*
X261339238Y-101089699D01*
X261295913Y-100992173D01*
X261248018Y-100882241D01*
X261197181Y-100763782D01*
X261145033Y-100640671D01*
X261093204Y-100516785D01*
X261043324Y-100396000D01*
X260997023Y-100282194D01*
X260955931Y-100179243D01*
X260921678Y-100091023D01*
X260895893Y-100021412D01*
X260880208Y-99974286D01*
X260876251Y-99953522D01*
X260876519Y-99952915D01*
X260894950Y-99933720D01*
X260933502Y-99903656D01*
X260984216Y-99868959D01*
X261000224Y-99858364D01*
X261122025Y-99757848D01*
X261222829Y-99638127D01*
X261300251Y-99504184D01*
X261351904Y-99361003D01*
X261375400Y-99213566D01*
X261368354Y-99066857D01*
X261339810Y-98936370D01*
X261288559Y-98804607D01*
X261213845Y-98687056D01*
X261111314Y-98575392D01*
X261071027Y-98539719D01*
X260940789Y-98451830D01*
X260800097Y-98392638D01*
X260653027Y-98361615D01*
X260503658Y-98358229D01*
X260356067Y-98381952D01*
X260214329Y-98432254D01*
X260082523Y-98508605D01*
X259964726Y-98610475D01*
X259865014Y-98737334D01*
X259845843Y-98768750D01*
X259780683Y-98912342D01*
X259746077Y-99061867D01*
X259741118Y-99213455D01*
X259764901Y-99363232D01*
X259816519Y-99507326D01*
X259895066Y-99641865D01*
X259999636Y-99762975D01*
X260129322Y-99866784D01*
X260133534Y-99869582D01*
X260183710Y-99904940D01*
X260221317Y-99935003D01*
X260238494Y-99953522D01*
X260236326Y-99968040D01*
X260222851Y-100010315D01*
X260198958Y-100075836D01*
X260166275Y-100160727D01*
X260126433Y-100261109D01*
X260081060Y-100373107D01*
X260031787Y-100492841D01*
X259980241Y-100616434D01*
X259928054Y-100740009D01*
X259876853Y-100859689D01*
X259828268Y-100971595D01*
X259783930Y-101071850D01*
X259745466Y-101156577D01*
X259714506Y-101221897D01*
X259692679Y-101263934D01*
X259681616Y-101278810D01*
X259672416Y-101276796D01*
X259636271Y-101262316D01*
X259582851Y-101236928D01*
X259520031Y-101204266D01*
X259382138Y-101129709D01*
X259217868Y-101240819D01*
X259169336Y-101273720D01*
X259079066Y-101335195D01*
X258989071Y-101396768D01*
X258913077Y-101449061D01*
X258871137Y-101477559D01*
X258816626Y-101512966D01*
X258776209Y-101537205D01*
X258756468Y-101546192D01*
X258747987Y-101542376D01*
X258717329Y-101519006D01*
X258670068Y-101477860D01*
X258610316Y-101422985D01*
X258542188Y-101358427D01*
X258469796Y-101288235D01*
X258397256Y-101216456D01*
X258328680Y-101147136D01*
X258268182Y-101084323D01*
X258219876Y-101032064D01*
X258187876Y-100994407D01*
X258176295Y-100975398D01*
X258176963Y-100971781D01*
X258190747Y-100942343D01*
X258220192Y-100891412D01*
X258262453Y-100823588D01*
X258314685Y-100743473D01*
X258374042Y-100655665D01*
X258390689Y-100631446D01*
X258449144Y-100546218D01*
X258500633Y-100470871D01*
X258542156Y-100409813D01*
X258570711Y-100367454D01*
X258583298Y-100348202D01*
X258583607Y-100347377D01*
X258579893Y-100323823D01*
X258565707Y-100276109D01*
X258543351Y-100210229D01*
X258515127Y-100132180D01*
X258483335Y-100047957D01*
X258450278Y-99963555D01*
X258418256Y-99884971D01*
X258389571Y-99818200D01*
X258366523Y-99769236D01*
X258351415Y-99744077D01*
X258349902Y-99742515D01*
X258339085Y-99734613D01*
X258320815Y-99726644D01*
X258291456Y-99717791D01*
X258247370Y-99707237D01*
X258184918Y-99694165D01*
X258100464Y-99677758D01*
X257990369Y-99657198D01*
X257850995Y-99631669D01*
X257822087Y-99626296D01*
X257739277Y-99609687D01*
X257669618Y-99593950D01*
X257619712Y-99580648D01*
X257596159Y-99571343D01*
X257592219Y-99563580D01*
X257585650Y-99526292D01*
X257580444Y-99464475D01*
X257576606Y-99383922D01*
X257574139Y-99290425D01*
X257573047Y-99189776D01*
X257573335Y-99087767D01*
X257575007Y-98990189D01*
X257578065Y-98902835D01*
X257582515Y-98831497D01*
X257588360Y-98781967D01*
X257595604Y-98760036D01*
X257603001Y-98756796D01*
X257639796Y-98746583D01*
X257701991Y-98732139D01*
X257784623Y-98714539D01*
X257882728Y-98694860D01*
X257991344Y-98674180D01*
X258050650Y-98663131D01*
X258152298Y-98643971D01*
X258239790Y-98627194D01*
X258308449Y-98613711D01*
X258353593Y-98604434D01*
X258370544Y-98600276D01*
X258371181Y-98599419D01*
X258381977Y-98577643D01*
X258402557Y-98532021D01*
X258430349Y-98468608D01*
X258462782Y-98393457D01*
X258497282Y-98312620D01*
X258531278Y-98232149D01*
X258562197Y-98158099D01*
X258587466Y-98096522D01*
X258604515Y-98053471D01*
X258610769Y-98035000D01*
X258608010Y-98028500D01*
X258589650Y-97997572D01*
X258556346Y-97945513D01*
X258510774Y-97876409D01*
X258455611Y-97794343D01*
X258393532Y-97703402D01*
X258359473Y-97653598D01*
X258300697Y-97566281D01*
X258250303Y-97489648D01*
X258210980Y-97427881D01*
X258185414Y-97385156D01*
X258176295Y-97365655D01*
X258182632Y-97355077D01*
X258209137Y-97323469D01*
X258252620Y-97275633D01*
X258309089Y-97215623D01*
X258374553Y-97147492D01*
X258445021Y-97075295D01*
X258516501Y-97003083D01*
X258585000Y-96934912D01*
X258646529Y-96874833D01*
X258697094Y-96826901D01*
X258732705Y-96795170D01*
X258749370Y-96783692D01*
X258758620Y-96788155D01*
X258792589Y-96808852D01*
X258847405Y-96844077D01*
X258919118Y-96891246D01*
X259003778Y-96947781D01*
X259097435Y-97011098D01*
X259431859Y-97238504D01*
X259989387Y-97008672D01*
X260064936Y-96607926D01*
X260140485Y-96207179D01*
X260974606Y-96207179D01*
X261050154Y-96607926D01*
D18*
X128587608Y-59531300D03*
X176212648Y-59531300D03*
X128587608Y-144661059D03*
X176212648Y-144661059D03*
X276225224Y-73818804D03*
X28574968Y-73818750D03*
X28575016Y-130968852D03*
X276225224Y-130968852D03*
M02*
