%FSLAX45Y45*%
G04 Gerber Fmt 4.5, Leading zero omitted, Abs format (unit mm)*
G04 Created by KiCad (PCBNEW 6.0.1-79c1e3a40b~116~ubuntu21.10.1) date 2022-02-01 10:26:30*
%MOMM*%
%LPD*%
G01*
G04 APERTURE LIST*
%TA.AperFunction,Profile*%
%ADD10C,0.200000*%
%TD*%
%ADD11C,0.200000*%
G04 APERTURE END LIST*
D10*
X1005000Y-14724375D02*
X1005000Y-5754375D01*
X29250000Y-14949375D02*
X1230000Y-14949375D01*
X1005000Y-14724375D02*
G75*
G03*
X1230000Y-14949375I225000J0D01*
G01*
X29250000Y-14949375D02*
G75*
G03*
X29475000Y-14724375I0J225000D01*
G01*
X29475000Y-5754375D02*
G75*
G03*
X29250000Y-5529375I-225000J0D01*
G01*
X1230000Y-5529375D02*
G75*
G03*
X1005000Y-5754375I0J-225000D01*
G01*
X29475000Y-14724375D02*
X29475000Y-5754375D01*
X29250000Y-5529375D02*
X1230000Y-5529375D01*
D11*
X1252619Y-15269851D02*
X1252619Y-15069851D01*
X1300238Y-15069851D01*
X1328810Y-15079375D01*
X1347857Y-15098423D01*
X1357381Y-15117470D01*
X1366905Y-15155565D01*
X1366905Y-15184137D01*
X1357381Y-15222232D01*
X1347857Y-15241280D01*
X1328810Y-15260327D01*
X1300238Y-15269851D01*
X1252619Y-15269851D01*
X1452619Y-15269851D02*
X1452619Y-15136518D01*
X1452619Y-15174613D02*
X1462143Y-15155565D01*
X1471667Y-15146042D01*
X1490714Y-15136518D01*
X1509762Y-15136518D01*
X1576428Y-15269851D02*
X1576428Y-15136518D01*
X1576428Y-15069851D02*
X1566905Y-15079375D01*
X1576428Y-15088899D01*
X1585952Y-15079375D01*
X1576428Y-15069851D01*
X1576428Y-15088899D01*
X1700238Y-15269851D02*
X1681190Y-15260327D01*
X1671667Y-15241280D01*
X1671667Y-15069851D01*
X1805000Y-15269851D02*
X1785952Y-15260327D01*
X1776428Y-15241280D01*
X1776428Y-15069851D01*
X2033571Y-15269851D02*
X2033571Y-15069851D01*
X2100238Y-15212708D01*
X2166905Y-15069851D01*
X2166905Y-15269851D01*
X2347857Y-15269851D02*
X2347857Y-15165089D01*
X2338333Y-15146042D01*
X2319286Y-15136518D01*
X2281190Y-15136518D01*
X2262143Y-15146042D01*
X2347857Y-15260327D02*
X2328810Y-15269851D01*
X2281190Y-15269851D01*
X2262143Y-15260327D01*
X2252619Y-15241280D01*
X2252619Y-15222232D01*
X2262143Y-15203184D01*
X2281190Y-15193661D01*
X2328810Y-15193661D01*
X2347857Y-15184137D01*
X2443095Y-15136518D02*
X2443095Y-15336518D01*
X2443095Y-15146042D02*
X2462143Y-15136518D01*
X2500238Y-15136518D01*
X2519286Y-15146042D01*
X2528810Y-15155565D01*
X2538333Y-15174613D01*
X2538333Y-15231756D01*
X2528810Y-15250803D01*
X2519286Y-15260327D01*
X2500238Y-15269851D01*
X2462143Y-15269851D01*
X2443095Y-15260327D01*
X2624048Y-15250803D02*
X2633571Y-15260327D01*
X2624048Y-15269851D01*
X2614524Y-15260327D01*
X2624048Y-15250803D01*
X2624048Y-15269851D01*
X2624048Y-15146042D02*
X2633571Y-15155565D01*
X2624048Y-15165089D01*
X2614524Y-15155565D01*
X2624048Y-15146042D01*
X2624048Y-15165089D01*
M02*
