G04 #@! TF.GenerationSoftware,KiCad,Pcbnew,6.0.1-79c1e3a40b~116~ubuntu21.10.1*
G04 #@! TF.CreationDate,2022-02-01T10:26:28+01:00*
G04 #@! TF.ProjectId,lumberjack-bottom,6c756d62-6572-46a6-9163-6b2d626f7474,1.5*
G04 #@! TF.SameCoordinates,Original*
G04 #@! TF.FileFunction,Legend,Top*
G04 #@! TF.FilePolarity,Positive*
%FSLAX46Y46*%
G04 Gerber Fmt 4.6, Leading zero omitted, Abs format (unit mm)*
G04 Created by KiCad (PCBNEW 6.0.1-79c1e3a40b~116~ubuntu21.10.1) date 2022-02-01 10:26:28*
%MOMM*%
%LPD*%
G01*
G04 APERTURE LIST*
%ADD10C,0.200000*%
%ADD11C,0.150000*%
%ADD12C,2.200000*%
G04 APERTURE END LIST*
D10*
X12309247Y-147250204D02*
X12309247Y-147821633D01*
X12271152Y-147935919D01*
X12194961Y-148012109D01*
X12080676Y-148050204D01*
X12004485Y-148050204D01*
X13071152Y-148050204D02*
X12690200Y-148050204D01*
X12690200Y-147250204D01*
X13794961Y-147974014D02*
X13756866Y-148012109D01*
X13642580Y-148050204D01*
X13566390Y-148050204D01*
X13452104Y-148012109D01*
X13375914Y-147935919D01*
X13337819Y-147859728D01*
X13299723Y-147707347D01*
X13299723Y-147593061D01*
X13337819Y-147440680D01*
X13375914Y-147364490D01*
X13452104Y-147288300D01*
X13566390Y-147250204D01*
X13642580Y-147250204D01*
X13756866Y-147288300D01*
X13794961Y-147326395D01*
X14366390Y-147250204D02*
X14366390Y-147821633D01*
X14328295Y-147935919D01*
X14252104Y-148012109D01*
X14137819Y-148050204D01*
X14061628Y-148050204D01*
X15128295Y-148050204D02*
X14747342Y-148050204D01*
X14747342Y-147250204D01*
X15852104Y-147974014D02*
X15814009Y-148012109D01*
X15699723Y-148050204D01*
X15623533Y-148050204D01*
X15509247Y-148012109D01*
X15433057Y-147935919D01*
X15394961Y-147859728D01*
X15356866Y-147707347D01*
X15356866Y-147593061D01*
X15394961Y-147440680D01*
X15433057Y-147364490D01*
X15509247Y-147288300D01*
X15623533Y-147250204D01*
X15699723Y-147250204D01*
X15814009Y-147288300D01*
X15852104Y-147326395D01*
X16423533Y-147250204D02*
X16423533Y-147821633D01*
X16385438Y-147935919D01*
X16309247Y-148012109D01*
X16194961Y-148050204D01*
X16118771Y-148050204D01*
X17185438Y-148050204D02*
X16804485Y-148050204D01*
X16804485Y-147250204D01*
X17909247Y-147974014D02*
X17871152Y-148012109D01*
X17756866Y-148050204D01*
X17680676Y-148050204D01*
X17566390Y-148012109D01*
X17490200Y-147935919D01*
X17452104Y-147859728D01*
X17414009Y-147707347D01*
X17414009Y-147593061D01*
X17452104Y-147440680D01*
X17490200Y-147364490D01*
X17566390Y-147288300D01*
X17680676Y-147250204D01*
X17756866Y-147250204D01*
X17871152Y-147288300D01*
X17909247Y-147326395D01*
X18480676Y-147250204D02*
X18480676Y-147821633D01*
X18442580Y-147935919D01*
X18366390Y-148012109D01*
X18252104Y-148050204D01*
X18175914Y-148050204D01*
X19242580Y-148050204D02*
X18861628Y-148050204D01*
X18861628Y-147250204D01*
X19966390Y-147974014D02*
X19928295Y-148012109D01*
X19814009Y-148050204D01*
X19737819Y-148050204D01*
X19623533Y-148012109D01*
X19547342Y-147935919D01*
X19509247Y-147859728D01*
X19471152Y-147707347D01*
X19471152Y-147593061D01*
X19509247Y-147440680D01*
X19547342Y-147364490D01*
X19623533Y-147288300D01*
X19737819Y-147250204D01*
X19814009Y-147250204D01*
X19928295Y-147288300D01*
X19966390Y-147326395D01*
D11*
X138446041Y-85010505D02*
X138112708Y-84534315D01*
X137874613Y-85010505D02*
X137874613Y-84010505D01*
X138255565Y-84010505D01*
X138350803Y-84058125D01*
X138398422Y-84105744D01*
X138446041Y-84200982D01*
X138446041Y-84343839D01*
X138398422Y-84439077D01*
X138350803Y-84486696D01*
X138255565Y-84534315D01*
X137874613Y-84534315D01*
X138874613Y-84486696D02*
X139207946Y-84486696D01*
X139350803Y-85010505D02*
X138874613Y-85010505D01*
X138874613Y-84010505D01*
X139350803Y-84010505D01*
X140112708Y-84486696D02*
X139779375Y-84486696D01*
X139779375Y-85010505D02*
X139779375Y-84010505D01*
X140255565Y-84010505D01*
X140779375Y-84010505D02*
X140779375Y-84248601D01*
X140541279Y-84153363D02*
X140779375Y-84248601D01*
X141017470Y-84153363D01*
X140636517Y-84439077D02*
X140779375Y-84248601D01*
X140922232Y-84439077D01*
X141541279Y-84010505D02*
X141541279Y-84248601D01*
X141303184Y-84153363D02*
X141541279Y-84248601D01*
X141779375Y-84153363D01*
X141398422Y-84439077D02*
X141541279Y-84248601D01*
X141684136Y-84439077D01*
%LPC*%
D12*
X128587608Y-59531300D03*
X176212648Y-59531300D03*
X128587608Y-144661059D03*
X176212648Y-144661059D03*
X276225224Y-73818804D03*
X28574968Y-73818750D03*
X28575016Y-130968852D03*
X276225224Y-130968852D03*
M02*
