G04 #@! TF.GenerationSoftware,KiCad,Pcbnew,6.0.1-79c1e3a40b~116~ubuntu21.10.1*
G04 #@! TF.CreationDate,2022-02-01T10:26:28+01:00*
G04 #@! TF.ProjectId,lumberjack-bottom,6c756d62-6572-46a6-9163-6b2d626f7474,1.5*
G04 #@! TF.SameCoordinates,Original*
G04 #@! TF.FileFunction,Copper,L1,Top*
G04 #@! TF.FilePolarity,Positive*
%FSLAX46Y46*%
G04 Gerber Fmt 4.6, Leading zero omitted, Abs format (unit mm)*
G04 Created by KiCad (PCBNEW 6.0.1-79c1e3a40b~116~ubuntu21.10.1) date 2022-02-01 10:26:28*
%MOMM*%
%LPD*%
G01*
G04 APERTURE LIST*
G04 APERTURE END LIST*
G04 #@! TA.AperFunction,NonConductor*
G36*
X292470056Y-55803250D02*
G01*
X292471496Y-55803474D01*
X292484858Y-55805555D01*
X292484861Y-55805555D01*
X292493730Y-55806936D01*
X292502632Y-55805772D01*
X292502634Y-55805772D01*
X292506174Y-55805309D01*
X292508957Y-55804945D01*
X292534279Y-55804202D01*
X292702422Y-55816228D01*
X292738921Y-55818838D01*
X292756715Y-55821396D01*
X292981977Y-55870398D01*
X292999216Y-55875460D01*
X293215219Y-55956025D01*
X293231562Y-55963490D01*
X293433890Y-56073970D01*
X293449010Y-56083687D01*
X293633556Y-56221837D01*
X293647142Y-56233610D01*
X293810140Y-56396608D01*
X293821913Y-56410194D01*
X293960063Y-56594740D01*
X293969782Y-56609863D01*
X294080258Y-56812183D01*
X294087727Y-56828536D01*
X294168288Y-57044528D01*
X294173353Y-57061778D01*
X294222354Y-57287035D01*
X294224912Y-57304829D01*
X294239041Y-57502378D01*
X294238297Y-57520282D01*
X294238195Y-57528608D01*
X294236814Y-57537480D01*
X294237978Y-57546382D01*
X294237978Y-57546385D01*
X294240936Y-57569001D01*
X294242000Y-57585339D01*
X294242000Y-147194422D01*
X294240500Y-147213806D01*
X294236814Y-147237480D01*
X294237978Y-147246382D01*
X294237978Y-147246384D01*
X294238805Y-147252705D01*
X294239548Y-147278031D01*
X294224912Y-147482671D01*
X294222354Y-147500465D01*
X294173353Y-147725722D01*
X294168288Y-147742972D01*
X294087727Y-147958964D01*
X294080258Y-147975317D01*
X293969782Y-148177637D01*
X293960063Y-148192760D01*
X293821913Y-148377306D01*
X293810140Y-148390892D01*
X293647142Y-148553890D01*
X293633556Y-148565663D01*
X293449010Y-148703813D01*
X293433890Y-148713530D01*
X293231562Y-148824010D01*
X293215219Y-148831475D01*
X292999216Y-148912040D01*
X292981977Y-148917102D01*
X292775221Y-148962078D01*
X292756715Y-148966104D01*
X292738921Y-148968662D01*
X292541369Y-148982791D01*
X292523468Y-148982047D01*
X292515142Y-148981945D01*
X292506270Y-148980564D01*
X292497368Y-148981728D01*
X292497365Y-148981728D01*
X292474749Y-148984686D01*
X292458411Y-148985750D01*
X12349328Y-148985750D01*
X12329943Y-148984250D01*
X12329661Y-148984206D01*
X12328504Y-148984026D01*
X12315142Y-148981945D01*
X12315139Y-148981945D01*
X12306270Y-148980564D01*
X12297368Y-148981728D01*
X12297366Y-148981728D01*
X12294928Y-148982047D01*
X12291043Y-148982555D01*
X12265721Y-148983298D01*
X12061079Y-148968662D01*
X12043285Y-148966104D01*
X12024779Y-148962078D01*
X11818023Y-148917102D01*
X11800784Y-148912040D01*
X11584781Y-148831475D01*
X11568438Y-148824010D01*
X11366110Y-148713530D01*
X11350990Y-148703813D01*
X11166444Y-148565663D01*
X11152858Y-148553890D01*
X10989860Y-148390892D01*
X10978087Y-148377306D01*
X10839937Y-148192760D01*
X10830218Y-148177637D01*
X10719742Y-147975317D01*
X10712273Y-147958964D01*
X10631712Y-147742972D01*
X10626647Y-147725722D01*
X10577646Y-147500465D01*
X10575088Y-147482671D01*
X10560959Y-147285122D01*
X10561703Y-147267218D01*
X10561805Y-147258892D01*
X10563186Y-147250020D01*
X10561547Y-147237480D01*
X10559064Y-147218499D01*
X10558000Y-147202161D01*
X10558000Y-144661059D01*
X126974134Y-144661059D01*
X126993999Y-144913462D01*
X127053103Y-145159650D01*
X127149992Y-145393561D01*
X127282280Y-145609435D01*
X127446710Y-145801957D01*
X127639232Y-145966387D01*
X127855106Y-146098675D01*
X127859676Y-146100568D01*
X127859680Y-146100570D01*
X128084444Y-146193670D01*
X128089017Y-146195564D01*
X128173640Y-146215880D01*
X128330392Y-146253513D01*
X128330398Y-146253514D01*
X128335205Y-146254668D01*
X128435024Y-146262524D01*
X128521953Y-146269366D01*
X128521960Y-146269366D01*
X128524409Y-146269559D01*
X128650807Y-146269559D01*
X128653256Y-146269366D01*
X128653263Y-146269366D01*
X128740192Y-146262524D01*
X128840011Y-146254668D01*
X128844818Y-146253514D01*
X128844824Y-146253513D01*
X129001576Y-146215880D01*
X129086199Y-146195564D01*
X129090772Y-146193670D01*
X129315536Y-146100570D01*
X129315540Y-146100568D01*
X129320110Y-146098675D01*
X129535984Y-145966387D01*
X129728506Y-145801957D01*
X129892936Y-145609435D01*
X130025224Y-145393561D01*
X130122113Y-145159650D01*
X130181217Y-144913462D01*
X130201082Y-144661059D01*
X174599174Y-144661059D01*
X174619039Y-144913462D01*
X174678143Y-145159650D01*
X174775032Y-145393561D01*
X174907320Y-145609435D01*
X175071750Y-145801957D01*
X175264272Y-145966387D01*
X175480146Y-146098675D01*
X175484716Y-146100568D01*
X175484720Y-146100570D01*
X175709484Y-146193670D01*
X175714057Y-146195564D01*
X175798680Y-146215880D01*
X175955432Y-146253513D01*
X175955438Y-146253514D01*
X175960245Y-146254668D01*
X176060064Y-146262524D01*
X176146993Y-146269366D01*
X176147000Y-146269366D01*
X176149449Y-146269559D01*
X176275847Y-146269559D01*
X176278296Y-146269366D01*
X176278303Y-146269366D01*
X176365232Y-146262524D01*
X176465051Y-146254668D01*
X176469858Y-146253514D01*
X176469864Y-146253513D01*
X176626616Y-146215880D01*
X176711239Y-146195564D01*
X176715812Y-146193670D01*
X176940576Y-146100570D01*
X176940580Y-146100568D01*
X176945150Y-146098675D01*
X177161024Y-145966387D01*
X177353546Y-145801957D01*
X177517976Y-145609435D01*
X177650264Y-145393561D01*
X177747153Y-145159650D01*
X177806257Y-144913462D01*
X177826122Y-144661059D01*
X177806257Y-144408656D01*
X177747153Y-144162468D01*
X177650264Y-143928557D01*
X177517976Y-143712683D01*
X177353546Y-143520161D01*
X177161024Y-143355731D01*
X176945150Y-143223443D01*
X176940580Y-143221550D01*
X176940576Y-143221548D01*
X176715812Y-143128448D01*
X176715810Y-143128447D01*
X176711239Y-143126554D01*
X176626616Y-143106238D01*
X176469864Y-143068605D01*
X176469858Y-143068604D01*
X176465051Y-143067450D01*
X176365232Y-143059594D01*
X176278303Y-143052752D01*
X176278296Y-143052752D01*
X176275847Y-143052559D01*
X176149449Y-143052559D01*
X176147000Y-143052752D01*
X176146993Y-143052752D01*
X176060064Y-143059594D01*
X175960245Y-143067450D01*
X175955438Y-143068604D01*
X175955432Y-143068605D01*
X175798680Y-143106238D01*
X175714057Y-143126554D01*
X175709486Y-143128447D01*
X175709484Y-143128448D01*
X175484720Y-143221548D01*
X175484716Y-143221550D01*
X175480146Y-143223443D01*
X175264272Y-143355731D01*
X175071750Y-143520161D01*
X174907320Y-143712683D01*
X174775032Y-143928557D01*
X174678143Y-144162468D01*
X174619039Y-144408656D01*
X174599174Y-144661059D01*
X130201082Y-144661059D01*
X130181217Y-144408656D01*
X130122113Y-144162468D01*
X130025224Y-143928557D01*
X129892936Y-143712683D01*
X129728506Y-143520161D01*
X129535984Y-143355731D01*
X129320110Y-143223443D01*
X129315540Y-143221550D01*
X129315536Y-143221548D01*
X129090772Y-143128448D01*
X129090770Y-143128447D01*
X129086199Y-143126554D01*
X129001576Y-143106238D01*
X128844824Y-143068605D01*
X128844818Y-143068604D01*
X128840011Y-143067450D01*
X128740192Y-143059594D01*
X128653263Y-143052752D01*
X128653256Y-143052752D01*
X128650807Y-143052559D01*
X128524409Y-143052559D01*
X128521960Y-143052752D01*
X128521953Y-143052752D01*
X128435024Y-143059594D01*
X128335205Y-143067450D01*
X128330398Y-143068604D01*
X128330392Y-143068605D01*
X128173640Y-143106238D01*
X128089017Y-143126554D01*
X128084446Y-143128447D01*
X128084444Y-143128448D01*
X127859680Y-143221548D01*
X127859676Y-143221550D01*
X127855106Y-143223443D01*
X127639232Y-143355731D01*
X127446710Y-143520161D01*
X127282280Y-143712683D01*
X127149992Y-143928557D01*
X127053103Y-144162468D01*
X126993999Y-144408656D01*
X126974134Y-144661059D01*
X10558000Y-144661059D01*
X10558000Y-130968852D01*
X26961542Y-130968852D01*
X26981407Y-131221255D01*
X27040511Y-131467443D01*
X27137400Y-131701354D01*
X27269688Y-131917228D01*
X27434118Y-132109750D01*
X27626640Y-132274180D01*
X27842514Y-132406468D01*
X27847084Y-132408361D01*
X27847088Y-132408363D01*
X28071852Y-132501463D01*
X28076425Y-132503357D01*
X28161048Y-132523673D01*
X28317800Y-132561306D01*
X28317806Y-132561307D01*
X28322613Y-132562461D01*
X28422432Y-132570317D01*
X28509361Y-132577159D01*
X28509368Y-132577159D01*
X28511817Y-132577352D01*
X28638215Y-132577352D01*
X28640664Y-132577159D01*
X28640671Y-132577159D01*
X28727600Y-132570317D01*
X28827419Y-132562461D01*
X28832226Y-132561307D01*
X28832232Y-132561306D01*
X28988984Y-132523673D01*
X29073607Y-132503357D01*
X29078180Y-132501463D01*
X29302944Y-132408363D01*
X29302948Y-132408361D01*
X29307518Y-132406468D01*
X29523392Y-132274180D01*
X29715914Y-132109750D01*
X29880344Y-131917228D01*
X30012632Y-131701354D01*
X30109521Y-131467443D01*
X30168625Y-131221255D01*
X30188490Y-130968852D01*
X274611750Y-130968852D01*
X274631615Y-131221255D01*
X274690719Y-131467443D01*
X274787608Y-131701354D01*
X274919896Y-131917228D01*
X275084326Y-132109750D01*
X275276848Y-132274180D01*
X275492722Y-132406468D01*
X275497292Y-132408361D01*
X275497296Y-132408363D01*
X275722060Y-132501463D01*
X275726633Y-132503357D01*
X275811256Y-132523673D01*
X275968008Y-132561306D01*
X275968014Y-132561307D01*
X275972821Y-132562461D01*
X276072640Y-132570317D01*
X276159569Y-132577159D01*
X276159576Y-132577159D01*
X276162025Y-132577352D01*
X276288423Y-132577352D01*
X276290872Y-132577159D01*
X276290879Y-132577159D01*
X276377808Y-132570317D01*
X276477627Y-132562461D01*
X276482434Y-132561307D01*
X276482440Y-132561306D01*
X276639192Y-132523673D01*
X276723815Y-132503357D01*
X276728388Y-132501463D01*
X276953152Y-132408363D01*
X276953156Y-132408361D01*
X276957726Y-132406468D01*
X277173600Y-132274180D01*
X277366122Y-132109750D01*
X277530552Y-131917228D01*
X277662840Y-131701354D01*
X277759729Y-131467443D01*
X277818833Y-131221255D01*
X277838698Y-130968852D01*
X277818833Y-130716449D01*
X277759729Y-130470261D01*
X277662840Y-130236350D01*
X277530552Y-130020476D01*
X277366122Y-129827954D01*
X277173600Y-129663524D01*
X276957726Y-129531236D01*
X276953156Y-129529343D01*
X276953152Y-129529341D01*
X276728388Y-129436241D01*
X276728386Y-129436240D01*
X276723815Y-129434347D01*
X276639192Y-129414031D01*
X276482440Y-129376398D01*
X276482434Y-129376397D01*
X276477627Y-129375243D01*
X276377808Y-129367387D01*
X276290879Y-129360545D01*
X276290872Y-129360545D01*
X276288423Y-129360352D01*
X276162025Y-129360352D01*
X276159576Y-129360545D01*
X276159569Y-129360545D01*
X276072640Y-129367387D01*
X275972821Y-129375243D01*
X275968014Y-129376397D01*
X275968008Y-129376398D01*
X275811256Y-129414031D01*
X275726633Y-129434347D01*
X275722062Y-129436240D01*
X275722060Y-129436241D01*
X275497296Y-129529341D01*
X275497292Y-129529343D01*
X275492722Y-129531236D01*
X275276848Y-129663524D01*
X275084326Y-129827954D01*
X274919896Y-130020476D01*
X274787608Y-130236350D01*
X274690719Y-130470261D01*
X274631615Y-130716449D01*
X274611750Y-130968852D01*
X30188490Y-130968852D01*
X30168625Y-130716449D01*
X30109521Y-130470261D01*
X30012632Y-130236350D01*
X29880344Y-130020476D01*
X29715914Y-129827954D01*
X29523392Y-129663524D01*
X29307518Y-129531236D01*
X29302948Y-129529343D01*
X29302944Y-129529341D01*
X29078180Y-129436241D01*
X29078178Y-129436240D01*
X29073607Y-129434347D01*
X28988984Y-129414031D01*
X28832232Y-129376398D01*
X28832226Y-129376397D01*
X28827419Y-129375243D01*
X28727600Y-129367387D01*
X28640671Y-129360545D01*
X28640664Y-129360545D01*
X28638215Y-129360352D01*
X28511817Y-129360352D01*
X28509368Y-129360545D01*
X28509361Y-129360545D01*
X28422432Y-129367387D01*
X28322613Y-129375243D01*
X28317806Y-129376397D01*
X28317800Y-129376398D01*
X28161048Y-129414031D01*
X28076425Y-129434347D01*
X28071854Y-129436240D01*
X28071852Y-129436241D01*
X27847088Y-129529341D01*
X27847084Y-129529343D01*
X27842514Y-129531236D01*
X27626640Y-129663524D01*
X27434118Y-129827954D01*
X27269688Y-130020476D01*
X27137400Y-130236350D01*
X27040511Y-130470261D01*
X26981407Y-130716449D01*
X26961542Y-130968852D01*
X10558000Y-130968852D01*
X10558000Y-73818750D01*
X26961494Y-73818750D01*
X26981359Y-74071153D01*
X27040463Y-74317341D01*
X27042356Y-74321912D01*
X27042357Y-74321914D01*
X27042380Y-74321968D01*
X27137352Y-74551252D01*
X27269640Y-74767126D01*
X27434070Y-74959648D01*
X27626592Y-75124078D01*
X27842466Y-75256366D01*
X27847036Y-75258259D01*
X27847040Y-75258261D01*
X28071804Y-75351361D01*
X28076377Y-75353255D01*
X28161000Y-75373571D01*
X28317752Y-75411204D01*
X28317758Y-75411205D01*
X28322565Y-75412359D01*
X28422384Y-75420215D01*
X28509313Y-75427057D01*
X28509320Y-75427057D01*
X28511769Y-75427250D01*
X28638167Y-75427250D01*
X28640616Y-75427057D01*
X28640623Y-75427057D01*
X28727552Y-75420215D01*
X28827371Y-75412359D01*
X28832178Y-75411205D01*
X28832184Y-75411204D01*
X28988936Y-75373571D01*
X29073559Y-75353255D01*
X29078132Y-75351361D01*
X29302896Y-75258261D01*
X29302900Y-75258259D01*
X29307470Y-75256366D01*
X29523344Y-75124078D01*
X29715866Y-74959648D01*
X29880296Y-74767126D01*
X30012584Y-74551252D01*
X30107557Y-74321968D01*
X30107579Y-74321914D01*
X30107580Y-74321912D01*
X30109473Y-74317341D01*
X30168577Y-74071153D01*
X30188438Y-73818804D01*
X274611750Y-73818804D01*
X274631615Y-74071207D01*
X274690719Y-74317395D01*
X274787608Y-74551306D01*
X274919896Y-74767180D01*
X275084326Y-74959702D01*
X275276848Y-75124132D01*
X275492722Y-75256420D01*
X275497292Y-75258313D01*
X275497296Y-75258315D01*
X275721930Y-75351361D01*
X275726633Y-75353309D01*
X275811256Y-75373625D01*
X275968008Y-75411258D01*
X275968014Y-75411259D01*
X275972821Y-75412413D01*
X276072640Y-75420269D01*
X276159569Y-75427111D01*
X276159576Y-75427111D01*
X276162025Y-75427304D01*
X276288423Y-75427304D01*
X276290872Y-75427111D01*
X276290879Y-75427111D01*
X276377808Y-75420269D01*
X276477627Y-75412413D01*
X276482434Y-75411259D01*
X276482440Y-75411258D01*
X276639192Y-75373625D01*
X276723815Y-75353309D01*
X276728518Y-75351361D01*
X276953152Y-75258315D01*
X276953156Y-75258313D01*
X276957726Y-75256420D01*
X277173600Y-75124132D01*
X277366122Y-74959702D01*
X277530552Y-74767180D01*
X277662840Y-74551306D01*
X277759729Y-74317395D01*
X277818833Y-74071207D01*
X277838698Y-73818804D01*
X277818833Y-73566401D01*
X277759729Y-73320213D01*
X277757835Y-73315640D01*
X277664735Y-73090876D01*
X277664733Y-73090872D01*
X277662840Y-73086302D01*
X277530552Y-72870428D01*
X277366122Y-72677906D01*
X277173600Y-72513476D01*
X276957726Y-72381188D01*
X276953156Y-72379295D01*
X276953152Y-72379293D01*
X276728388Y-72286193D01*
X276728386Y-72286192D01*
X276723815Y-72284299D01*
X276639192Y-72263983D01*
X276482440Y-72226350D01*
X276482434Y-72226349D01*
X276477627Y-72225195D01*
X276377808Y-72217339D01*
X276290879Y-72210497D01*
X276290872Y-72210497D01*
X276288423Y-72210304D01*
X276162025Y-72210304D01*
X276159576Y-72210497D01*
X276159569Y-72210497D01*
X276072640Y-72217339D01*
X275972821Y-72225195D01*
X275968014Y-72226349D01*
X275968008Y-72226350D01*
X275811256Y-72263983D01*
X275726633Y-72284299D01*
X275722062Y-72286192D01*
X275722060Y-72286193D01*
X275497296Y-72379293D01*
X275497292Y-72379295D01*
X275492722Y-72381188D01*
X275276848Y-72513476D01*
X275084326Y-72677906D01*
X274919896Y-72870428D01*
X274787608Y-73086302D01*
X274785715Y-73090872D01*
X274785713Y-73090876D01*
X274692613Y-73315640D01*
X274690719Y-73320213D01*
X274631615Y-73566401D01*
X274611750Y-73818804D01*
X30188438Y-73818804D01*
X30188442Y-73818750D01*
X30168577Y-73566347D01*
X30109473Y-73320159D01*
X30012584Y-73086248D01*
X29880296Y-72870374D01*
X29715866Y-72677852D01*
X29523344Y-72513422D01*
X29307470Y-72381134D01*
X29302900Y-72379241D01*
X29302896Y-72379239D01*
X29078132Y-72286139D01*
X29078130Y-72286138D01*
X29073559Y-72284245D01*
X28988936Y-72263929D01*
X28832184Y-72226296D01*
X28832178Y-72226295D01*
X28827371Y-72225141D01*
X28727552Y-72217285D01*
X28640623Y-72210443D01*
X28640616Y-72210443D01*
X28638167Y-72210250D01*
X28511769Y-72210250D01*
X28509320Y-72210443D01*
X28509313Y-72210443D01*
X28422384Y-72217285D01*
X28322565Y-72225141D01*
X28317758Y-72226295D01*
X28317752Y-72226296D01*
X28161000Y-72263929D01*
X28076377Y-72284245D01*
X28071806Y-72286138D01*
X28071804Y-72286139D01*
X27847040Y-72379239D01*
X27847036Y-72379241D01*
X27842466Y-72381134D01*
X27626592Y-72513422D01*
X27434070Y-72677852D01*
X27269640Y-72870374D01*
X27137352Y-73086248D01*
X27040463Y-73320159D01*
X26981359Y-73566347D01*
X26961494Y-73818750D01*
X10558000Y-73818750D01*
X10558000Y-59531300D01*
X126974134Y-59531300D01*
X126993999Y-59783703D01*
X127053103Y-60029891D01*
X127149992Y-60263802D01*
X127282280Y-60479676D01*
X127446710Y-60672198D01*
X127639232Y-60836628D01*
X127855106Y-60968916D01*
X127859676Y-60970809D01*
X127859680Y-60970811D01*
X128084444Y-61063911D01*
X128089017Y-61065805D01*
X128173640Y-61086121D01*
X128330392Y-61123754D01*
X128330398Y-61123755D01*
X128335205Y-61124909D01*
X128435024Y-61132765D01*
X128521953Y-61139607D01*
X128521960Y-61139607D01*
X128524409Y-61139800D01*
X128650807Y-61139800D01*
X128653256Y-61139607D01*
X128653263Y-61139607D01*
X128740192Y-61132765D01*
X128840011Y-61124909D01*
X128844818Y-61123755D01*
X128844824Y-61123754D01*
X129001576Y-61086121D01*
X129086199Y-61065805D01*
X129090772Y-61063911D01*
X129315536Y-60970811D01*
X129315540Y-60970809D01*
X129320110Y-60968916D01*
X129535984Y-60836628D01*
X129728506Y-60672198D01*
X129892936Y-60479676D01*
X130025224Y-60263802D01*
X130122113Y-60029891D01*
X130181217Y-59783703D01*
X130201082Y-59531300D01*
X174599174Y-59531300D01*
X174619039Y-59783703D01*
X174678143Y-60029891D01*
X174775032Y-60263802D01*
X174907320Y-60479676D01*
X175071750Y-60672198D01*
X175264272Y-60836628D01*
X175480146Y-60968916D01*
X175484716Y-60970809D01*
X175484720Y-60970811D01*
X175709484Y-61063911D01*
X175714057Y-61065805D01*
X175798680Y-61086121D01*
X175955432Y-61123754D01*
X175955438Y-61123755D01*
X175960245Y-61124909D01*
X176060064Y-61132765D01*
X176146993Y-61139607D01*
X176147000Y-61139607D01*
X176149449Y-61139800D01*
X176275847Y-61139800D01*
X176278296Y-61139607D01*
X176278303Y-61139607D01*
X176365232Y-61132765D01*
X176465051Y-61124909D01*
X176469858Y-61123755D01*
X176469864Y-61123754D01*
X176626616Y-61086121D01*
X176711239Y-61065805D01*
X176715812Y-61063911D01*
X176940576Y-60970811D01*
X176940580Y-60970809D01*
X176945150Y-60968916D01*
X177161024Y-60836628D01*
X177353546Y-60672198D01*
X177517976Y-60479676D01*
X177650264Y-60263802D01*
X177747153Y-60029891D01*
X177806257Y-59783703D01*
X177826122Y-59531300D01*
X177806257Y-59278897D01*
X177747153Y-59032709D01*
X177650264Y-58798798D01*
X177517976Y-58582924D01*
X177353546Y-58390402D01*
X177161024Y-58225972D01*
X176945150Y-58093684D01*
X176940580Y-58091791D01*
X176940576Y-58091789D01*
X176715812Y-57998689D01*
X176715810Y-57998688D01*
X176711239Y-57996795D01*
X176626616Y-57976479D01*
X176469864Y-57938846D01*
X176469858Y-57938845D01*
X176465051Y-57937691D01*
X176365232Y-57929835D01*
X176278303Y-57922993D01*
X176278296Y-57922993D01*
X176275847Y-57922800D01*
X176149449Y-57922800D01*
X176147000Y-57922993D01*
X176146993Y-57922993D01*
X176060064Y-57929835D01*
X175960245Y-57937691D01*
X175955438Y-57938845D01*
X175955432Y-57938846D01*
X175798680Y-57976479D01*
X175714057Y-57996795D01*
X175709486Y-57998688D01*
X175709484Y-57998689D01*
X175484720Y-58091789D01*
X175484716Y-58091791D01*
X175480146Y-58093684D01*
X175264272Y-58225972D01*
X175071750Y-58390402D01*
X174907320Y-58582924D01*
X174775032Y-58798798D01*
X174678143Y-59032709D01*
X174619039Y-59278897D01*
X174599174Y-59531300D01*
X130201082Y-59531300D01*
X130181217Y-59278897D01*
X130122113Y-59032709D01*
X130025224Y-58798798D01*
X129892936Y-58582924D01*
X129728506Y-58390402D01*
X129535984Y-58225972D01*
X129320110Y-58093684D01*
X129315540Y-58091791D01*
X129315536Y-58091789D01*
X129090772Y-57998689D01*
X129090770Y-57998688D01*
X129086199Y-57996795D01*
X129001576Y-57976479D01*
X128844824Y-57938846D01*
X128844818Y-57938845D01*
X128840011Y-57937691D01*
X128740192Y-57929835D01*
X128653263Y-57922993D01*
X128653256Y-57922993D01*
X128650807Y-57922800D01*
X128524409Y-57922800D01*
X128521960Y-57922993D01*
X128521953Y-57922993D01*
X128435024Y-57929835D01*
X128335205Y-57937691D01*
X128330398Y-57938845D01*
X128330392Y-57938846D01*
X128173640Y-57976479D01*
X128089017Y-57996795D01*
X128084446Y-57998688D01*
X128084444Y-57998689D01*
X127859680Y-58091789D01*
X127859676Y-58091791D01*
X127855106Y-58093684D01*
X127639232Y-58225972D01*
X127446710Y-58390402D01*
X127282280Y-58582924D01*
X127149992Y-58798798D01*
X127053103Y-59032709D01*
X126993999Y-59278897D01*
X126974134Y-59531300D01*
X10558000Y-59531300D01*
X10558000Y-57593078D01*
X10559500Y-57573693D01*
X10561805Y-57558892D01*
X10561805Y-57558889D01*
X10563186Y-57550020D01*
X10561195Y-57534793D01*
X10560452Y-57509469D01*
X10575088Y-57304829D01*
X10577646Y-57287035D01*
X10626647Y-57061778D01*
X10631712Y-57044528D01*
X10712273Y-56828536D01*
X10719742Y-56812183D01*
X10830218Y-56609863D01*
X10839937Y-56594740D01*
X10978087Y-56410194D01*
X10989860Y-56396608D01*
X11152858Y-56233610D01*
X11166444Y-56221837D01*
X11350990Y-56083687D01*
X11366110Y-56073970D01*
X11568438Y-55963490D01*
X11584781Y-55956025D01*
X11800784Y-55875460D01*
X11818023Y-55870398D01*
X12043285Y-55821396D01*
X12061079Y-55818838D01*
X12081460Y-55817380D01*
X12258631Y-55804709D01*
X12276532Y-55805453D01*
X12284858Y-55805555D01*
X12293730Y-55806936D01*
X12302632Y-55805772D01*
X12302635Y-55805772D01*
X12325251Y-55802814D01*
X12341589Y-55801750D01*
X292450672Y-55801750D01*
X292470056Y-55803250D01*
G37*
G04 #@! TD.AperFunction*
M02*
